<?xml version="1.0" standalone="no"?>
<!DOCTYPE svg PUBLIC "-//W3C//DTD SVG 1.1//EN" "http://www.w3.org/Graphics/SVG/1.1/DTD/svg11.dtd" >
<svg xmlns="http://www.w3.org/2000/svg" xmlns:xlink="http://www.w3.org/1999/xlink" version="1.1">
<metadata>
Created by FontForge 20170731 at Mon Jun 28 23:13:38 2010
 By Aleksey,,,
Designed by Paul van der Laan &#38; Pieter van Rosmalen 2008. Produced by Bold Monday. For exclusive use by AUDI AG and its affiliates only.
</metadata>
<defs>
<font id="AudiType-Normal" horiz-adv-x="2597" >
  <font-face 
    font-family="Audi Type"
    font-weight="400"
    font-stretch="normal"
    units-per-em="4096"
    panose-1="2 11 5 3 4 2 0 0 0 3"
    ascent="3113"
    descent="-983"
    x-height="2101"
    cap-height="2966"
    bbox="-672 -983 9085 4014"
    underline-thickness="205"
    underline-position="-614"
    unicode-range="U+000D-FB04"
  />
<missing-glyph horiz-adv-x="1004" 
d="M197 -860v3768h610v-3768h-610z" />
    <glyph glyph-name="uniFB00" unicode="ff" horiz-adv-x="3064" 
d="M2015 0v1802h-1110v-1802h-360v1802h-459v299h459v283q0 190 50.5 334.5t144 241t227 145.5t299.5 49q73 0 138.5 -5t121.5 -14t102.5 -21t83.5 -26v-295q-43 14 -85 23.5t-86.5 15.5t-91.5 8.5t-101 2.5q-129 0 -214.5 -29t-136 -90.5t-71.5 -156t-21 -224.5v-242h1110
v283q0 190 50.5 334.5t144 241t227 145.5t299.5 49q74 0 139 -5t121 -14t103 -21t84 -26v-295q-43 14 -85.5 23.5t-86.5 15.5t-91.5 8.5t-101.5 2.5q-129 0 -214 -29t-136 -90.5t-71.5 -156t-20.5 -224.5v-242h676v-299h-676v-1802h-361z" />
    <glyph glyph-name="fi" unicode="fi" horiz-adv-x="2757" 
d="M2015 0v1802h-1110v-1802h-360v1802h-459v299h459v283q0 190 50.5 334.5t144 241t227 145.5t299.5 49q73 0 138.5 -5t121.5 -14t102.5 -21t83.5 -26v-295q-43 14 -85 23.5t-86.5 15.5t-91.5 8.5t-101 2.5q-129 0 -214.5 -29t-136 -90.5t-71.5 -156t-21 -224.5v-242h1471
v-2101h-361zM2015 2540v426h361v-426h-361z" />
    <glyph glyph-name="fl" unicode="fl" horiz-adv-x="2879" 
d="M545 0v1802h-459v299h459v283q0 190 50.5 334.5t144 241t227 145.5t299.5 49q73 0 138.5 -5t121.5 -14t102.5 -21t83.5 -26v-295q-43 14 -85 23.5t-86.5 15.5t-91.5 8.5t-101 2.5q-129 0 -214.5 -29t-136 -90.5t-71.5 -156t-21 -224.5v-242h676v-299h-676v-1802h-360z
M2777 25q-34 -11 -73 -20t-82.5 -16t-90.5 -10.5t-98 -3.5q-106 0 -191 26.5t-144.5 85t-91.5 150t-32 222.5v2646h360v-2605q0 -53 9.5 -92t31 -65t58 -39t90.5 -13q62 0 127 6t127 18v-290z" />
    <glyph glyph-name="uniFB03" unicode="ffi" horiz-adv-x="4227" 
d="M3486 0v1802h-1110v-1802h-361v1802h-1110v-1802h-360v1802h-459v299h459v283q0 190 50.5 334.5t144 241t227 145.5t299.5 49q73 0 138.5 -5t121.5 -14t102.5 -21t83.5 -26v-295q-43 14 -85 23.5t-86.5 15.5t-91.5 8.5t-101 2.5q-129 0 -214.5 -29t-136 -90.5t-71.5 -156
t-21 -224.5v-242h1110v283q0 190 50.5 334.5t144 241t227 145.5t299.5 49q74 0 139 -5t121 -14t103 -21t84 -26v-295q-43 14 -85.5 23.5t-86.5 15.5t-91.5 8.5t-101.5 2.5q-129 0 -214 -29t-136 -90.5t-71.5 -156t-20.5 -224.5v-242h1470v-2101h-360zM3486 2540v426h360
v-426h-360z" />
    <glyph glyph-name="uniFB04" unicode="ffl" horiz-adv-x="4350" 
d="M2015 0v1802h-1110v-1802h-360v1802h-459v299h459v283q0 190 50.5 334.5t144 241t227 145.5t299.5 49q73 0 138.5 -5t121.5 -14t102.5 -21t83.5 -26v-295q-43 14 -85 23.5t-86.5 15.5t-91.5 8.5t-101 2.5q-129 0 -214.5 -29t-136 -90.5t-71.5 -156t-21 -224.5v-242h1110
v283q0 190 50.5 334.5t144 241t227 145.5t299.5 49q74 0 139 -5t121 -14t103 -21t84 -26v-295q-43 14 -85.5 23.5t-86.5 15.5t-91.5 8.5t-101.5 2.5q-129 0 -214 -29t-136 -90.5t-71.5 -156t-20.5 -224.5v-242h676v-299h-676v-1802h-361zM4248 25q-34 -11 -73 -20t-82.5 -16
t-90.5 -10.5t-98 -3.5q-106 0 -191 26.5t-144.5 85t-91.5 150t-32 222.5v2646h360v-2605q0 -53 9.5 -92t31 -65t58 -39t90.5 -13q62 0 127 6t127 18v-290z" />
    <glyph glyph-name=".notdef" horiz-adv-x="1004" 
d="M197 -860v3768h610v-3768h-610z" />
    <glyph glyph-name=".null" horiz-adv-x="0" 
 />
    <glyph glyph-name=".null" horiz-adv-x="0" 
 />
    <glyph glyph-name="nonmarkingreturn" unicode="&#xd;" horiz-adv-x="1016" 
 />
    <glyph glyph-name="space" unicode=" " horiz-adv-x="1016" 
 />
    <glyph glyph-name="exclam" unicode="!" horiz-adv-x="1356" 
d="M586 815l-41 430q-4 48 -10.5 114.5t-13.5 144.5t-13.5 163t-12 170.5t-9 167.5t-3.5 154v807h394v-807q0 -72 -3.5 -154t-9 -167.5t-12.5 -170.5t-14 -163t-13 -144.5t-10 -114.5l-41 -430h-188zM451 0v446h454v-446h-454z" />
    <glyph glyph-name="quotedbl" unicode="&#x22;" horiz-adv-x="1683" 
d="M410 1954l-41 172q-6 29 -16.5 74t-20.5 96t-17.5 103t-7.5 95v472h385v-472q0 -43 -7.5 -95t-17 -103t-20 -96t-16.5 -74l-41 -172h-180zM1094 1954l-41 172q-6 29 -16.5 74t-20.5 96t-17.5 103t-7.5 95v472h385v-472q0 -43 -7.5 -95t-17 -103t-20 -96t-16.5 -74
l-41 -172h-180z" />
    <glyph glyph-name="numbersign" unicode="#" 
d="M1421 184l66 676h-492l-65 -676h-312l66 676h-365v279h390l73 753h-463v279h492l53 545h312l-54 -545h492l53 545h311l-53 -545h352v-279h-381l-73 -753h454v-279h-479l-65 -676h-312zM1585 1892h-491l-74 -753h491z" />
    <glyph glyph-name="dollar" unicode="$" 
d="M1073 -238v324q-109 4 -214 19.5t-198.5 38.5t-172.5 52.5t-136 61.5v307q44 -21 101 -41t122.5 -39t138 -35t147 -27.5t149 -18.5t145.5 -7q160 0 293 30.5t229 90.5t149.5 148.5t53.5 205.5q0 78 -22.5 137t-63.5 104t-99.5 78.5t-131 60.5t-157 49.5t-177.5 46.5
q-200 51 -357 113t-265 151.5t-165 214t-57 299.5q0 150 48.5 277t144.5 223.5t238.5 160.5t330.5 88v369h328v-356q101 -5 194 -20t175.5 -38t153.5 -53t128 -65v-304q-69 37 -154.5 69.5t-182 56.5t-201 37.5t-212.5 13.5q-140 0 -253 -32.5t-193.5 -92.5t-124 -145
t-43.5 -189q0 -78 22.5 -137t63.5 -103.5t99.5 -78t131 -60.5t157 -50t177.5 -46q200 -51 357 -113t265 -152t165 -214.5t57 -299.5q0 -150 -60 -280t-171.5 -231t-270 -169t-354.5 -94v-336h-328z" />
    <glyph glyph-name="percent" unicode="%" horiz-adv-x="3858" 
d="M991 1511q-180 0 -313.5 59t-222 162.5t-132.5 243.5t-44 301q0 163 46.5 304t137 244.5t223.5 162.5t305 59q181 0 315.5 -59t222.5 -162.5t131.5 -244.5t43.5 -304q0 -107 -20.5 -206t-61.5 -184t-101 -154.5t-139.5 -118.5t-177 -76t-213.5 -27zM991 1765
q98 0 168.5 37t116 104t67 161.5t21.5 209.5q0 117 -21.5 212t-67 162.5t-116 104.5t-168.5 37q-97 0 -168 -37t-117.5 -104.5t-69 -162.5t-22.5 -212q0 -115 22.5 -209.5t69 -161.5t117.5 -104t168 -37zM2867 -33q-180 0 -313.5 59t-222.5 162.5t-133 243.5t-44 301
q0 163 47 303.5t137.5 244t223.5 163t305 59.5q181 0 315.5 -59.5t222.5 -163t131.5 -244t43.5 -303.5q0 -161 -46.5 -301t-136.5 -243.5t-223 -162.5t-307 -59zM2867 221q98 0 168.5 37t116 104t67 161.5t21.5 209.5q0 117 -21.5 212t-67 162.5t-116 104.5t-168.5 37
q-97 0 -168 -37t-117.5 -104.5t-69 -162.5t-22.5 -212q0 -115 22.5 -209.5t69 -161.5t117.5 -104t168 -37zM807 0l1819 2966h348l-1815 -2966h-352z" />
    <glyph glyph-name="ampersand" unicode="&#x26;" horiz-adv-x="3269" 
d="M2580 0l-335 319q-95 -87 -205 -155.5t-235.5 -116t-266 -72t-297.5 -24.5q-166 0 -305.5 28t-251.5 79t-197.5 123t-142.5 160t-86 190t-29 214q0 93 15.5 176.5t47 158.5t80.5 142.5t116 129t152.5 117.5t190.5 108l58 29v0q-80 73 -152.5 147.5t-128 159t-88.5 183.5
t-33 222q0 109 25.5 203t74.5 171t120.5 137.5t163.5 101.5t203.5 62.5t240.5 21.5q192 0 343.5 -49.5t256 -135t160 -199.5t55.5 -243q0 -134 -47.5 -250t-132.5 -217t-203.5 -186.5t-259.5 -157.5l-41 -21l774 -733q35 63 62.5 133.5t46 148t28.5 162t10 175.5v262h713
v-291h-352q-3 -120 -21 -232.5t-50.5 -217t-78.5 -200t-104 -181.5l614 -582h-508zM1118 1393l-45 -25q-117 -59 -201.5 -121.5t-140 -134.5t-82 -155t-26.5 -183q0 -111 44.5 -203.5t128.5 -159t205 -104t273 -37.5q114 0 216 17.5t193.5 52.5t172 86t151.5 119zM1262 1798
q129 66 221 131.5t151.5 134t87 142.5t27.5 157q0 58 -27.5 118.5t-82 110t-135.5 80.5t-189 31q-94 0 -175 -23.5t-140.5 -71t-93.5 -120t-34 -170.5q0 -92 21.5 -160t63 -127.5t102.5 -117t141 -127.5l17 -12z" />
    <glyph glyph-name="quotesingle" unicode="'" horiz-adv-x="999" 
d="M410 1954l-41 172q-6 29 -16.5 74t-20.5 96t-17.5 103t-7.5 95v472h385v-472q0 -43 -7.5 -95t-17 -103t-20 -96t-16.5 -74l-41 -172h-180z" />
    <glyph glyph-name="parenleft" unicode="(" horiz-adv-x="1536" 
d="M1196 -377q-130 69 -242 175.5t-203.5 240.5t-163 291.5t-120 328t-73.5 349.5t-25 356q0 178 25 357.5t73.5 350t120 327.5t163 291t203.5 240t242 175h279q-105 -74 -199.5 -184.5t-175 -247t-144.5 -294.5t-109 -327t-69 -343.5t-24 -344.5q0 -169 24 -343t69 -343
t109 -327.5t144.5 -295.5t174.5 -247.5t200 -184.5h-279z" />
    <glyph glyph-name="parenright" unicode=")" horiz-adv-x="1536" 
d="M61 -377q105 74 199.5 184.5t175 247.5t144.5 295.5t109 327.5t69 343t24 343q0 170 -24 344.5t-69 343.5t-109 327t-144.5 294.5t-175 247t-199.5 184.5h279q130 -69 242 -175t203.5 -240t163 -291t120 -327.5t73.5 -350t25 -357.5q0 -177 -25 -356t-73.5 -349.5
t-120 -328t-163 -291.5t-203.5 -240.5t-242 -175.5h-279z" />
    <glyph glyph-name="asterisk" unicode="*" horiz-adv-x="1876" 
d="M1180 1626l-140 242q-15 24 -29.5 54t-27.5 62.5t-24.5 65.5t-20.5 64q-11 -31 -23 -64t-25 -65.5t-27 -62.5t-27 -54l-140 -242l-241 135l139 246q28 50 72 106t88 103q-65 -12 -134.5 -22.5t-127.5 -10.5h-279v279h279q58 0 127.5 -10.5t134.5 -22.5q-44 46 -88 102.5
t-72 106.5l-139 246l241 135l140 -242q13 -24 27 -54t27 -62.5t25 -65.5t23 -64q9 31 20.5 64t24.5 65.5t27.5 62.5t29.5 54l140 242l241 -135l-139 -246q-15 -25 -34.5 -52t-40.5 -55t-43 -55t-42 -51q31 7 65 14t68 12t67 8t62 3h279v-279h-279q-29 0 -62 2t-67 6.5
t-68 10.5t-65 14q41 -50 85 -104.5t75 -104.5l139 -246z" />
    <glyph glyph-name="plus" unicode="+" horiz-adv-x="2408" 
d="M1040 184v889h-843v295h843v873h328v-873h844v-295h-844v-889h-328z" />
    <glyph glyph-name="comma" unicode="," horiz-adv-x="1307" 
d="M201 -598l291 606l-70 447h311q52 0 90.5 -11t64 -32.5t38 -53.5t12.5 -75q0 -52 -9 -105.5t-29 -111t-51 -119t-74 -131t-99.5 -147t-126.5 -165.5l-82 -102h-266z" />
    <glyph glyph-name="hyphen" unicode="-" horiz-adv-x="1491" 
d="M225 1044v369h1041v-369h-1041z" />
    <glyph glyph-name="period" unicode="." horiz-adv-x="1307" 
d="M426 0v446h455v-446h-455z" />
    <glyph glyph-name="slash" unicode="/" horiz-adv-x="1876" 
d="M94 0l1336 3105h348l-1332 -3105h-352z" />
    <glyph glyph-name="zero" unicode="0" 
d="M1290 -49q-205 0 -362 52t-273 148.5t-194.5 233.5t-126 306.5t-68 368.5t-20.5 419q0 221 21.5 420.5t70.5 370.5t128.5 308.5t196.5 234.5t274 149.5t361 52.5q206 0 364.5 -52t276 -148.5t197 -233.5t128.5 -307t70 -368.5t21 -418.5q0 -221 -21.5 -421t-70.5 -370.5
t-130 -308.5t-199 -234.5t-277.5 -149t-366.5 -52.5zM1298 270q127 0 226 41t173 117t125.5 184t83.5 243t46 293.5t14 334.5t-14 334t-46 293t-83.5 243t-125.5 184t-173 117t-226 41t-225.5 -41t-172 -117t-124 -184t-82 -243t-45.5 -293t-14 -334t14 -334.5t45.5 -293.5
t82 -243t124 -184t172 -117t225.5 -41z" />
    <glyph glyph-name="one" unicode="1" 
d="M537 0v311h626v2298l-626 -127v311l774 173h229v-2655h631v-311h-1634z" />
    <glyph glyph-name="two" unicode="2" 
d="M287 0v287l737 741q114 115 211 218.5t177 198.5t141 183.5t103 173t63.5 167t21.5 165.5q0 124 -35.5 225t-109 172t-187.5 109.5t-270 38.5q-119 0 -225 -9.5t-202 -29t-181.5 -49.5t-161.5 -72v332q69 41 150 72t176.5 51.5t205.5 30.5t238 10q177 0 319 -27.5
t252.5 -79.5t189.5 -127.5t130.5 -171.5t75.5 -211.5t24 -247.5q0 -130 -32.5 -250t-90 -233t-136.5 -220.5t-172 -213t-197.5 -210.5t-211.5 -212l-499 -500h1437v-311h-1941z" />
    <glyph glyph-name="three" unicode="3" 
d="M311 438q74 -32 165.5 -62t195.5 -52.5t218 -36t232 -13.5q166 0 290 39.5t206 110.5t123 168.5t41 214.5q0 129 -45 234.5t-135 181t-226 116.5t-319 41h-266v316h266q152 0 267.5 34t193.5 101t117.5 165.5t39.5 227.5q0 76 -18 139.5t-52 115t-83.5 90.5t-112 65
t-138 39.5t-161.5 13.5q-111 0 -214.5 -14t-196 -37.5t-170.5 -54t-136 -62.5v332q39 22 88 43t106 39.5t120.5 33.5t132 25.5t140.5 16.5t146 6q231 0 406 -49t293.5 -146t178.5 -242t60 -337q0 -109 -26.5 -209t-78.5 -186t-129.5 -157.5t-178.5 -123.5q133 -51 231 -128
t162.5 -174.5t95.5 -213t31 -242.5q0 -123 -27.5 -234t-83.5 -206.5t-141.5 -172t-200.5 -131t-260.5 -83.5t-322.5 -29q-134 0 -253 10.5t-222 31.5t-190.5 51.5t-158.5 70.5v323z" />
    <glyph glyph-name="four" unicode="4" 
d="M1577 0v659h-1487v304l1499 2003h365v-1995h495v-312h-495v-659h-377zM1577 2130q0 65 3 154t9 182q-49 -75 -99.5 -150t-96.5 -137l-901 -1208h1085v1159z" />
    <glyph glyph-name="five" unicode="5" 
d="M369 438q72 -32 163 -62t195.5 -52.5t218 -36t230.5 -13.5q177 0 302.5 44t205.5 122t117.5 186.5t37.5 237.5q0 114 -41.5 200.5t-113 151.5t-166.5 109.5t-203 74t-222.5 46.5t-224.5 25.5t-209 11t-176 4.5l49 1479h1586v-320h-1229l-29 -836q103 -5 216.5 -16.5
t229 -33t228.5 -55.5t215.5 -84.5t190 -119.5t151.5 -161t100.5 -209t36.5 -263q0 -130 -26 -248.5t-80 -220.5t-137.5 -184.5t-199 -141t-264.5 -90.5t-333 -32q-132 0 -250.5 10.5t-222 31.5t-190.5 51.5t-156 70.5v323z" />
    <glyph glyph-name="six" unicode="6" 
d="M2216 2589q-65 21 -131 40t-139 32.5t-155 21.5t-177 8q-223 0 -388.5 -68t-279.5 -203t-178 -337t-84 -469q67 61 145.5 110.5t166.5 84t185 53t203 18.5q163 0 299.5 -33t246.5 -94.5t192.5 -148.5t138 -194.5t83.5 -233t28 -263.5q0 -126 -26.5 -246t-81 -227
t-137 -196.5t-194.5 -154.5t-254 -101.5t-315 -36.5q-257 0 -457 91t-338 268t-210 437.5t-72 600.5q0 404 80.5 715t243.5 522.5t410.5 320.5t580.5 109q106 0 193.5 -7.5t162 -20.5t138 -31t120.5 -40v-327zM668 1327q1 -191 24.5 -344.5t66.5 -272t104.5 -203.5
t138.5 -139.5t168 -80t194 -25.5q155 0 272 48t195 134.5t117 206t39 262.5q0 146 -39 266.5t-117.5 206t-198 132.5t-280.5 47q-92 0 -182 -14.5t-176 -44.5t-168 -74.5t-158 -104.5z" />
    <glyph glyph-name="seven" unicode="7" 
d="M557 0l1307 2646h-1545v320h1950v-320l-1302 -2646h-410z" />
    <glyph glyph-name="eight" unicode="8" 
d="M1827 1556q92 -34 166.5 -80t133 -102.5t100.5 -122.5t69.5 -140.5t41 -156t13.5 -168.5q0 -122 -27 -231t-82.5 -202t-141 -167.5t-202 -126.5t-265 -80t-330.5 -28q-184 0 -334 28t-267 80t-202.5 126.5t-141 167.5t-82 202t-26.5 231q0 87 13.5 168.5t41.5 156
t70.5 140.5t101 122.5t132.5 102.5t165 80q-104 49 -182 119.5t-129.5 158.5t-77 190.5t-25.5 216.5q0 192 60.5 337t179 242t295 146t408.5 49q230 0 406 -49t295 -146t180 -242t61 -337q0 -114 -26 -216.5t-78.5 -190.5t-131 -158.5t-182.5 -119.5zM1958 807
q0 114 -38 217.5t-118 182.5t-203.5 126t-295.5 47t-296 -47t-204 -126t-118 -182.5t-38 -217.5q0 -117 39 -216t120 -171t204.5 -113t292.5 -41q167 0 290.5 41t204.5 113t120.5 171t39.5 216zM1855 2224q0 114 -37.5 203t-108 150.5t-173.5 93.5t-233 32q-132 0 -235 -32
t-173.5 -93.5t-107.5 -150.5t-37 -203t34 -210.5t102.5 -167t172.5 -110.5t244 -40q139 0 243 40t172.5 110.5t102.5 167t34 210.5z" />
    <glyph glyph-name="nine" unicode="9" 
d="M377 377q64 -22 130.5 -40.5t139.5 -32.5t155 -22t177 -8q227 0 395 71.5t282 213.5t177 354.5t80 495.5q-68 -62 -146.5 -111t-167.5 -83.5t-187 -53t-204 -18.5q-244 0 -429 70t-309 194.5t-186.5 297t-62.5 376.5q0 124 26.5 241t81 221t137 190.5t194.5 149t254 97.5
t315 35q256 0 456.5 -91t338.5 -268t210 -438t72 -600q0 -404 -80.5 -715t-243.5 -522.5t-410.5 -320.5t-580.5 -109q-106 0 -194 7.5t-162.5 20.5t-137.5 31t-120 39v328zM1925 1696q-5 181 -31 326t-70 257t-105.5 192.5t-137 132t-164.5 75.5t-188 24q-155 0 -272 -46
t-195 -128.5t-117 -197t-39 -250.5q0 -140 38.5 -255t117.5 -196.5t198.5 -126.5t280.5 -45q92 0 181.5 14.5t175.5 44.5t168 74.5t159 104.5z" />
    <glyph glyph-name="colon" unicode=":" horiz-adv-x="1307" 
d="M426 1655v446h455v-446h-455zM426 0v446h455v-446h-455z" />
    <glyph glyph-name="semicolon" unicode=";" horiz-adv-x="1307" 
d="M426 1655v446h455v-446h-455zM201 -598l291 606l-70 447h311q52 0 90.5 -11t64 -32.5t38 -53.5t12.5 -75q0 -52 -9 -105.5t-29 -111t-51 -119t-74 -131t-99.5 -147t-126.5 -165.5l-82 -102h-266z" />
    <glyph glyph-name="less" unicode="&#x3c;" horiz-adv-x="2408" 
d="M1606 184l-1307 1028l1307 1029h503l-1306 -1029l1306 -1028h-503z" />
    <glyph glyph-name="equal" unicode="=" horiz-adv-x="2408" 
d="M246 664v294h1917v-294h-1917zM246 1483v295h1917v-295h-1917z" />
    <glyph glyph-name="greater" unicode="&#x3e;" horiz-adv-x="2408" 
d="M803 184h-504l1307 1028l-1307 1029h504l1306 -1029z" />
    <glyph glyph-name="question" unicode="?" horiz-adv-x="2097" 
d="M700 815l-36 459l307 344q87 98 170 186.5t147 175t103 176.5t39 191q0 83 -36.5 145t-100 103.5t-148.5 62.5t-182 21q-69 0 -134.5 -5.5t-128 -15.5t-122 -25t-115.5 -34t-109.5 -42.5t-103.5 -49.5v332q69 41 153.5 74t182.5 55.5t208 34.5t230 12q88 0 181 -14.5
t181.5 -45.5t167 -80t137.5 -117t93.5 -157t34.5 -201q0 -108 -24 -203t-65.5 -180.5t-96 -162t-115 -146t-123.5 -134t-121 -124.5l-266 -270l-25 -365h-283zM606 0v446h455v-446h-455z" />
    <glyph glyph-name="at" unicode="@" horiz-adv-x="4162" 
d="M2753 -713q-44 -20 -92.5 -36.5t-101.5 -30t-111.5 -24t-124 -18t-138 -11t-153.5 -3.5q-294 0 -539 57t-441.5 162.5t-343.5 256.5t-245.5 339.5t-147.5 410.5t-49 470q0 323 66.5 608.5t192 525t306 429t407.5 321t497 201.5t575 70q277 0 502.5 -58.5t401.5 -162.5
t304.5 -247.5t212 -314.5t124 -362.5t40.5 -390.5q0 -221 -41 -408.5t-113.5 -339.5t-173 -268t-219.5 -194t-253 -118t-273 -40q-78 0 -151.5 15.5t-134 47t-105 79t-64.5 112.5q-51 -68 -112.5 -117t-134 -80.5t-155.5 -46.5t-175 -15q-138 0 -256 52t-204 149t-134.5 235
t-48.5 310q0 149 31 299.5t91.5 288t151 257t209 207.5t265.5 138.5t321 50.5q70 0 138 -9.5t130 -28t117.5 -47t101.5 -66.5l66 106h266l-328 -1524q-1 -4 -2 -12t-1 -19q0 -28 14.5 -53t40.5 -42t59 -25t70 -8q79 0 159 29t154 89t138.5 151.5t112.5 217t75.5 284.5
t27.5 355q0 171 -31 329.5t-95.5 296.5t-165 251t-239.5 194t-319 125.5t-403 44.5q-260 0 -485 -60.5t-410.5 -174.5t-330 -277t-243.5 -368.5t-150.5 -449t-51.5 -517.5q0 -222 38.5 -415.5t116 -353.5t194 -285.5t273 -211.5t353 -131t434.5 -45q121 0 221.5 8.5
t186.5 24.5t161 39.5t144 54.5v-283zM2626 1720q-36 18 -77.5 34t-90.5 27.5t-105.5 18t-120.5 6.5q-122 0 -224 -36.5t-183.5 -100.5t-143.5 -151.5t-103 -190t-62 -215.5t-21 -227q0 -122 28 -214.5t79.5 -155t124 -94.5t161.5 -32q91 0 163.5 16t133 46t111 72.5
t96.5 94.5z" />
    <glyph glyph-name="A" unicode="A" horiz-adv-x="2671" 
d="M2191 0l-254 758h-1224l-254 -758h-381l1052 2966h402l1061 -2966h-402zM1430 2269q-31 87 -59 183.5t-44 201.5q-18 -105 -48.5 -201.5t-57.5 -183.5l-402 -1188h1008z" />
    <glyph glyph-name="B" unicode="B" horiz-adv-x="2601" 
d="M414 0v2966h827q246 0 428 -52t303 -152t180.5 -246t59.5 -333q0 -115 -25 -211.5t-72 -174.5t-115.5 -139t-156.5 -106q120 -46 215 -118.5t161 -167.5t101 -210t35 -245q0 -121 -25 -228t-78 -197t-135 -161.5t-195.5 -121.5t-259.5 -76.5t-327 -26.5h-921zM1307 311
q175 0 300 37t204.5 104t117 161.5t37.5 209.5q0 117 -34 215.5t-107.5 170t-190 111.5t-282.5 40h-561v-1049h516zM1245 1655q160 0 270 35.5t178.5 102.5t99 162.5t30.5 215.5q0 106 -37.5 195t-115.5 153t-198 99.5t-284 35.5h-397v-999h454z" />
    <glyph glyph-name="C" unicode="C" horiz-adv-x="2454" 
d="M2265 98q-77 -35 -159.5 -62.5t-180 -46.5t-213 -28.5t-258.5 -9.5q-191 0 -353.5 44t-296 130.5t-236 215.5t-172.5 299.5t-106 382.5t-36 464q0 226 32.5 427.5t98.5 371t166 305t235 229.5t304.5 144.5t375.5 50.5q115 0 225.5 -11.5t209.5 -32.5t183.5 -51.5
t147.5 -68.5v-328q-65 34 -148 62.5t-179 49.5t-203 32.5t-219 11.5q-147 0 -267 -36.5t-214 -107t-162.5 -173t-113 -235t-66 -293.5t-21.5 -347q0 -209 27.5 -380t80 -305t128.5 -232.5t172.5 -163t212 -96t247.5 -31.5q120 0 223.5 9t195.5 26.5t175.5 43.5t163.5 60
v-320z" />
    <glyph glyph-name="D" unicode="D" horiz-adv-x="2867" 
d="M414 0v2966h909q243 0 431.5 -51t330 -145t239.5 -227t158.5 -297.5t87.5 -356t27 -402.5q0 -212 -27.5 -404.5t-89.5 -358t-162.5 -299t-245 -228t-337.5 -146t-441 -51.5h-880zM1266 303q169 0 304.5 34.5t240 102t180 167.5t123.5 230.5t71 291t23 350.5t-22 352
t-69.5 293.5t-121.5 232t-179 168.5t-241.5 102.5t-308.5 34.5h-475v-2359h475z" />
    <glyph glyph-name="E" unicode="E" horiz-adv-x="2380" 
d="M414 0v2966h1781v-312h-1404v-983h1200v-311h-1200v-1049h1404v-311h-1781z" />
    <glyph glyph-name="F" unicode="F" horiz-adv-x="2245" 
d="M414 0v2966h1675v-312h-1298v-1048h1220v-312h-1220v-1294h-377z" />
    <glyph glyph-name="G" unicode="G" horiz-adv-x="2839" 
d="M2191 1417h377v-1278q-62 -31 -131.5 -57t-145.5 -46.5t-159.5 -36.5t-175 -26.5t-191.5 -16t-209 -5.5q-310 0 -552.5 93.5t-409 285t-253.5 482t-87 683.5q0 242 39.5 448.5t116.5 375.5t191.5 299t265.5 218t337 133.5t406 45.5q77 0 152.5 -5t147.5 -15t139 -24
t127.5 -32t113 -40.5t94.5 -47.5v-328q-65 34 -148.5 62.5t-181 49.5t-206 32.5t-222.5 11.5q-243 0 -427.5 -71.5t-309 -218t-187.5 -369t-63 -525.5q0 -219 31 -394.5t89.5 -310.5t142 -232t189 -159t230 -91t264.5 -29q88 0 170 4.5t158 14t145.5 24t132.5 34.5v1061z
" />
    <glyph glyph-name="H" unicode="H" horiz-adv-x="2982" 
d="M2191 0v1368h-1400v-1368h-377v2966h377v-1287h1400v1287h377v-2966h-377z" />
    <glyph glyph-name="I" unicode="I" horiz-adv-x="1671" 
d="M270 0v291h377v2384h-377v291h1131v-291h-377v-2384h377v-291h-1131z" />
    <glyph glyph-name="J" unicode="J" horiz-adv-x="1434" 
d="M-16 -242q17 -3 34 -5.5t34.5 -4t36 -2t38.5 -0.5q120 0 215 36.5t161 116.5t101 208t35 311v2257h-414v291h791v-2589q0 -252 -65 -433.5t-180 -298t-273.5 -172t-345.5 -55.5q-23 0 -46 1.5t-44.5 4.5t-41 6.5t-36.5 8.5v319z" />
    <glyph glyph-name="K" unicode="K" horiz-adv-x="2601" 
d="M2060 0l-1269 1393v-1393h-377v2966h377v-1356l1241 1356h458l-1130 -1229q-83 -89 -142.5 -140t-111.5 -81q24 -14 50.5 -33t56.5 -44.5t64.5 -59t74.5 -76.5l1192 -1303h-484z" />
    <glyph glyph-name="L" unicode="L" horiz-adv-x="2138" 
d="M414 0v2966h377v-2655h1228v-311h-1605z" />
    <glyph glyph-name="M" unicode="M" horiz-adv-x="3604" 
d="M2822 0v2068q0 89 4 203t17 232q-46 -122 -95.5 -230.5t-93.5 -187.5l-725 -1249h-250l-721 1249q-26 44 -51.5 92.5t-51.5 103t-50.5 110.5t-46.5 112q12 -112 18 -221.5t6 -213.5v-2068h-368v2966h426l815 -1426q41 -74 78 -156t69 -181q30 99 69 181t83 156l815 1426
h422v-2966h-369z" />
    <glyph glyph-name="N" unicode="N" horiz-adv-x="3043" 
d="M2232 0l-1228 1995q-62 99 -128 222.5t-118 256.5q6 -62 10.5 -126.5t7.5 -127t4.5 -120t1.5 -105.5v-1995h-368v2966h401l1229 -1995q29 -49 60 -104.5t62.5 -115.5t61.5 -123.5t58 -127.5q-6 60 -11 123t-8 124.5t-4.5 118.5t-1.5 105v1995h369v-2966h-398z" />
    <glyph glyph-name="O" unicode="O" horiz-adv-x="2920" 
d="M1454 -49q-221 0 -395 52t-306 148.5t-224.5 233.5t-151 306.5t-85 368.5t-26.5 419q0 221 27 420.5t85.5 370.5t152 308.5t226.5 234.5t308 149.5t397 52.5q221 0 395.5 -52t307 -148.5t225.5 -233.5t151.5 -307t85.5 -368.5t27 -418.5q0 -221 -27 -421t-86.5 -370.5
t-153 -308.5t-227 -234.5t-309 -149t-397.5 -52.5zM1462 270q148 0 264.5 41t205 117t151 184t102.5 243t58 293.5t18 334.5t-18 334t-58 293t-102.5 243t-151 184t-205.5 117t-264 41q-149 0 -266 -41t-206 -117t-152 -184t-103 -243t-58 -293t-18 -334t18 -334.5
t58 -293.5t103 -243t152 -184t206 -117t266 -41z" />
    <glyph glyph-name="P" unicode="P" horiz-adv-x="2441" 
d="M414 0v2966h942q160 0 292.5 -28t238 -82.5t184 -134t131 -182t78.5 -227t26 -268.5q0 -145 -24.5 -270t-75.5 -227.5t-131 -181.5t-191 -133t-254.5 -82t-322.5 -28h-516v-1122h-377zM1274 1421q175 0 297.5 42t199 122t111.5 196t35 263q0 138 -35 252.5t-109.5 196.5
t-190.5 127.5t-279 45.5h-512v-1245h483z" />
    <glyph glyph-name="Q" unicode="Q" horiz-adv-x="2920" 
d="M2200 -532q-20 0 -34.5 4t-25.5 10.5t-19 14.5l-16 16l-446 450q-50 -6 -101 -9t-104 -3q-221 0 -395 52t-306 148.5t-224.5 233.5t-151 306.5t-85 368.5t-26.5 419q0 221 27 420.5t85.5 370.5t152 308.5t226.5 234.5t308 149.5t397 52.5q221 0 395.5 -52t307 -148.5
t225.5 -233.5t151.5 -307t85.5 -368.5t27 -418.5q0 -252 -35.5 -475t-113.5 -406.5t-201.5 -322.5t-300.5 -222q40 -21 80.5 -53t87.5 -78l459 -462h-430zM1462 270q148 0 264.5 41t205 117t151 184t102.5 243t58 293.5t18 334.5t-18 334t-58 293t-102.5 243t-151 184
t-205.5 117t-264 41q-149 0 -266 -41t-206 -117t-152 -184t-103 -243t-58 -293t-18 -334t18 -334.5t58 -293.5t103 -243t152 -184t206 -117t266 -41z" />
    <glyph glyph-name="R" unicode="R" horiz-adv-x="2671" 
d="M2077 0l-619 987q-30 48 -56 86t-51.5 66.5t-52 48.5t-56 33t-64 18.5t-76.5 5.5h-311v-1245h-377v2966h909q237 0 414 -51.5t295.5 -156t177.5 -263t59 -373.5q0 -191 -50.5 -333.5t-138 -244t-205.5 -164.5t-253 -94q62 -34 118 -92t111 -141l664 -1053h-438z
M1249 1536q149 0 266.5 34.5t198.5 106.5t123.5 182.5t42.5 262.5q0 136 -35.5 238.5t-110.5 170t-191 101.5t-277 34h-475v-1130h458z" />
    <glyph glyph-name="S" unicode="S" horiz-adv-x="2372" 
d="M229 438q72 -32 167.5 -62t204 -52.5t226 -36t234.5 -13.5q172 0 303 40.5t219 112t133 168t45 208.5q0 75 -16.5 135t-50 109.5t-84.5 90t-120.5 75t-157 65t-193.5 61.5q-135 39 -252 81t-213.5 93t-171.5 114t-126.5 143t-78.5 181t-27 228q0 124 26 234t79.5 203
t135 167t192.5 125.5t252.5 79t314.5 27.5q127 0 237.5 -10t205 -30.5t175 -51.5t148.5 -72v-328q-75 42 -160 72.5t-180.5 51t-201.5 30.5t-224 10q-157 0 -272.5 -36.5t-191.5 -102.5t-113.5 -158t-37.5 -203q0 -74 17 -132t51 -105.5t85.5 -85t121.5 -70.5t157.5 -62.5
t194.5 -60.5q136 -39 253.5 -82t214 -96t171 -118t125.5 -147t77.5 -184t26.5 -229q0 -122 -29.5 -233t-89.5 -207t-149.5 -174.5t-209 -134t-269.5 -85.5t-330 -30q-132 0 -254.5 10.5t-230.5 31.5t-199 51.5t-160 70.5v323z" />
    <glyph glyph-name="T" unicode="T" horiz-adv-x="2302" 
d="M963 0v2654h-852v312h2080v-312h-852v-2654h-376z" />
    <glyph glyph-name="U" unicode="U" horiz-adv-x="2822" 
d="M2089 2966h377v-2073q0 -159 -27 -290.5t-83 -236t-142 -182.5t-203.5 -130t-267.5 -77.5t-334 -25.5t-334 25.5t-267 77.5t-202 130t-140.5 182.5t-82.5 236t-27 290.5v2073h377v-1999q0 -177 39.5 -308t122 -217.5t210 -129t304.5 -42.5q178 0 306.5 42.5t211.5 129
t122.5 217.5t39.5 308v1999z" />
    <glyph glyph-name="V" unicode="V" horiz-adv-x="2642" 
d="M1122 0l-1048 2966h409l742 -2188q31 -92 58 -178.5t44 -181.5q20 96 48 181.5t59 178.5l741 2188h393l-1044 -2966h-402z" />
    <glyph glyph-name="W" unicode="W" horiz-adv-x="4235" 
d="M2839 0l-619 2003q-14 43 -29.5 102.5t-29.5 128.5t-25 133.5t-18 122.5q-9 -60 -20.5 -123.5t-26 -132.5t-29 -128.5t-27.5 -102.5l-618 -2003h-398l-917 2966h401l639 -2188q12 -40 23.5 -80t22 -80.5t19.5 -82t17 -84.5q6 43 14 84.5t17 82t20 80.5t23 80l651 2188
h377l651 -2188q12 -40 23 -80t20.5 -80.5t17 -82t13.5 -84.5q6 43 15 84.5t19.5 82t23 80.5t24.5 80l639 2188h401l-917 -2966h-397z" />
    <glyph glyph-name="X" unicode="X" horiz-adv-x="2490" 
d="M1987 0l-607 979q-18 28 -36.5 59t-35.5 64t-33 67t-30 68q-15 -34 -31.5 -68t-33 -67t-34.5 -64t-36 -59l-606 -979h-430l954 1520l-905 1446h430l553 -902q18 -29 36 -60.5t34.5 -64.5t33 -67.5t31.5 -69.5q14 35 30 69.5t33 67.5t35.5 64.5t36.5 60.5l557 902h430
l-905 -1446l959 -1520h-430z" />
    <glyph glyph-name="Y" unicode="Y" horiz-adv-x="2433" 
d="M1028 0v1167l-979 1799h406l594 -1119q22 -43 44 -91t42.5 -99t40 -104t36.5 -107q17 54 37.5 107t42.5 104t45.5 99t46.5 91l594 1119h406l-979 -1803v-1163h-377z" />
    <glyph glyph-name="Z" unicode="Z" horiz-adv-x="2441" 
d="M152 0v319l1626 2335h-1577v312h2027v-320l-1626 -2335h1688v-311h-2138z" />
    <glyph glyph-name="bracketleft" unicode="[" horiz-adv-x="1536" 
d="M500 -381v3486h794v-209h-417v-3068h417v-209h-794z" />
    <glyph glyph-name="backslash" unicode="\" horiz-adv-x="1860" 
d="M1425 0l-1331 3105h332l1335 -3105h-336z" />
    <glyph glyph-name="bracketright" unicode="]" horiz-adv-x="1536" 
d="M242 -381v209h417v3068h-417v209h794v-3486h-794z" />
    <glyph glyph-name="asciicircum" unicode="^" horiz-adv-x="1786" 
d="M1352 1794l-459 909l-459 -909h-319l565 1172h430l561 -1172h-319z" />
    <glyph glyph-name="underscore" unicode="_" horiz-adv-x="1638" 
d="M-33 -295v295h1704v-295h-1704z" />
    <glyph glyph-name="grave" unicode="`" horiz-adv-x="1794" 
d="M1008 2408l-549 574h483l393 -574h-327z" />
    <glyph glyph-name="a" unicode="a" horiz-adv-x="2232" 
d="M1561 0l-25 168q-63 -49 -134 -89t-150 -68.5t-166.5 -44t-184.5 -15.5q-153 0 -278.5 41.5t-215 118.5t-138 187t-48.5 247q0 113 32 207t95 168t156 129t215 91t272.5 54t327.5 18h79.5h68.5h61v144q0 129 -28 220.5t-87.5 150t-153 85.5t-223.5 27
q-104 0 -200.5 -14.5t-182 -37t-157.5 -50.5t-127 -54v291q64 35 143.5 67t169.5 56t189.5 38.5t205.5 14.5q181 0 330.5 -38t256.5 -124.5t165.5 -227.5t58.5 -347v-1413h-327zM1528 946h-156q-209 0 -357 -24.5t-242.5 -73.5t-138.5 -123t-44 -172q0 -74 24.5 -130.5
t73 -95t121.5 -58t170 -19.5q78 0 150 10t139.5 31t132 52.5t127.5 74.5v528z" />
    <glyph glyph-name="b" unicode="b" horiz-adv-x="2470" 
d="M381 0v3105h360v-1180q63 51 134 92.5t150.5 71t168 45.5t186.5 16q204 0 363 -65.5t267.5 -199t165 -335t56.5 -473.5q0 -278 -65.5 -488.5t-184.5 -352.5t-287 -213.5t-372 -71.5q-95 0 -179 11.5t-158.5 34t-140.5 56t-124 78.5l-21 -131h-319zM741 393
q61 -38 124 -64.5t129.5 -43t138 -24t149.5 -7.5q143 0 251 52t181 153.5t109.5 249.5t36.5 340q0 193 -34 341.5t-104 249t-175.5 152t-248.5 51.5q-81 0 -155 -10t-142 -31t-132.5 -53.5t-127.5 -77.5v-1278z" />
    <glyph glyph-name="c" unicode="c" horiz-adv-x="1942" 
d="M1757 98q-48 -29 -114 -56t-145 -47t-168 -32t-183 -12q-220 0 -389.5 72t-285 214t-175 351.5t-59.5 484.5q0 159 26 300.5t78 261t129.5 215t181 162.5t233 102.5t285.5 35.5q83 0 163 -8t151 -23.5t132 -37.5t107 -49v-312q-48 23 -109 44t-131.5 36.5t-148.5 25
t-159 9.5q-144 0 -250.5 -52.5t-176.5 -150.5t-104.5 -239.5t-34.5 -319.5q0 -206 37.5 -357t109 -250t175 -147.5t235.5 -48.5q108 0 194 11.5t156.5 29.5t129 40.5t110.5 45.5v-299z" />
    <glyph glyph-name="d" unicode="d" horiz-adv-x="2470" 
d="M1769 0l-32 180q-63 -52 -134.5 -94.5t-152 -72.5t-169.5 -46t-187 -16q-204 0 -363.5 66.5t-269 200.5t-166.5 336t-57 474q0 278 65.5 488t184.5 351t287 212t372 71q91 0 171 -12t152 -35t136 -56.5t123 -76.5v1135h360v-3105h-320zM1729 1683q-62 40 -125 69
t-130 47.5t-138 27t-148 8.5q-143 0 -251 -51t-181 -150.5t-109.5 -247.5t-36.5 -342q0 -192 34 -340t104 -249t175 -153t248 -52q80 0 153 10t141 31t133.5 52.5t130.5 74.5v1265z" />
    <glyph glyph-name="e" unicode="e" horiz-adv-x="2236" 
d="M1901 102q-62 -32 -136.5 -60t-164 -48t-194.5 -31.5t-226 -11.5q-157 0 -287.5 34t-235.5 99.5t-183.5 161t-131 219.5t-78.5 274.5t-26 325.5q0 156 23.5 297t71.5 261.5t121 218t171 166t222 105.5t275 37q148 0 271.5 -35.5t222 -100.5t172 -156.5t122 -203.5
t73 -242.5t24.5 -272.5q0 -20 -0.5 -41.5t-2 -41.5t-3 -37t-2.5 -28h-1397q6 -175 45 -309.5t115 -226t190 -138.5t269 -47q117 0 215.5 12t182.5 30.5t153.5 42t128.5 46.5v-299zM1638 1270q-6 133 -43 242t-102.5 186.5t-159 119.5t-211.5 42t-211 -42t-159 -119.5
t-104 -186.5t-46 -242h1036z" />
    <glyph glyph-name="f" unicode="f" horiz-adv-x="1593" 
d="M545 0v1802h-459v299h459v283q0 190 50.5 334.5t144 241t227 145.5t299.5 49q73 0 138.5 -5t121.5 -14t102.5 -21t83.5 -26v-295q-43 14 -85 23.5t-86.5 15.5t-91.5 8.5t-101 2.5q-129 0 -214.5 -29t-136 -90.5t-71.5 -156t-21 -224.5v-242h676v-299h-676v-1802h-360z
" />
    <glyph glyph-name="g" unicode="g" horiz-adv-x="2470" 
d="M1729 176q-63 -52 -134.5 -93.5t-151.5 -71t-168 -45t-185 -15.5q-204 0 -363 66.5t-267.5 200.5t-165 336t-56.5 474q0 278 65.5 488t184.5 351t287 212t372 71q94 0 177 -12.5t157 -37t139.5 -60.5t124.5 -82l24 143h320v-2089q0 -241 -67 -426.5t-195.5 -312
t-315 -191.5t-426.5 -65q-104 0 -200.5 9t-183.5 25.5t-164.5 40t-143.5 52.5v315q58 -23 128 -45.5t151.5 -40.5t174.5 -28.5t197 -8.5q190 2 321 42.5t212 125.5t116.5 216.5t35.5 316.5v139zM1729 1683q-62 40 -125 69t-130 47.5t-138 27t-148 8.5q-143 0 -251 -51
t-181 -150.5t-109.5 -247.5t-36.5 -342q0 -192 34 -340t104 -249t175 -153t248 -52q80 0 153 10t141 31t133.5 52.5t130.5 74.5v1265z" />
    <glyph glyph-name="h" unicode="h" horiz-adv-x="2470" 
d="M1765 0v1413q0 115 -28.5 196.5t-84 133.5t-137.5 76t-188 24q-84 0 -161 -11.5t-148.5 -35.5t-140 -60t-136.5 -85v-1651h-360v3105h360v-1192q63 54 135.5 97.5t154 74.5t173 48t193.5 17q120 0 220.5 -19.5t181.5 -57.5t142 -95t102.5 -133t62 -169.5t20.5 -205.5
v-1470h-361z" />
    <glyph glyph-name="i" unicode="i" horiz-adv-x="1122" 
d="M381 0v2101h360v-2101h-360zM381 2540v426h360v-426h-360z" />
    <glyph glyph-name="j" unicode="j" horiz-adv-x="1122" 
d="M-225 -643q34 -6 63 -9t72 -3q117 0 205 41t147 126.5t89 217.5t30 315v2056h360v-2097q0 -251 -58 -432.5t-162 -299t-249.5 -174t-320.5 -56.5q-25 0 -50.5 1.5t-48.5 4t-43 6t-34 8.5v295zM381 2540v426h360v-426h-360z" />
    <glyph glyph-name="k" unicode="k" horiz-adv-x="2171" 
d="M1679 0l-938 954v-954h-360v3105h360v-1934l918 930h426l-852 -868q-31 -31 -58 -54.5t-51.5 -42t-47 -33t-44.5 -26.5q20 -9 40.5 -21t43.5 -29t50 -39.5t59 -53.5l913 -934h-459z" />
    <glyph glyph-name="l" unicode="l" horiz-adv-x="1286" 
d="M1184 25q-34 -11 -73 -20t-82.5 -16t-90.5 -10.5t-98 -3.5q-106 0 -191 26.5t-144.5 85t-91.5 150t-32 222.5v2646h360v-2605q0 -53 9.5 -92t31 -65t58 -39t90.5 -13q62 0 127 6t127 18v-290z" />
    <glyph glyph-name="m" unicode="m" horiz-adv-x="3854" 
d="M3150 0v1413q0 115 -29 196.5t-84.5 133.5t-137 76t-187.5 24q-85 0 -161.5 -11.5t-148.5 -35.5t-140.5 -61t-135.5 -88v-129v-129v-1389h-361v1413q0 115 -28.5 196.5t-84 133.5t-137.5 76t-188 24q-84 0 -161 -11.5t-148.5 -35.5t-140 -61t-136.5 -88v-1647h-360v2101
h328l24 -192q64 55 137.5 99.5t156 76t175 48.5t195.5 17q120 0 221 -20t182 -59t142.5 -97t101.5 -135q69 71 148.5 128.5t171 98t195.5 62.5t222 22q120 0 220.5 -19.5t181.5 -57.5t142 -95t102.5 -133t62 -169.5t20.5 -205.5v-1470h-360z" />
    <glyph glyph-name="n" unicode="n" horiz-adv-x="2470" 
d="M1765 0v1413q0 115 -28.5 196.5t-84 133.5t-137.5 76t-188 24q-84 0 -161 -11.5t-148.5 -35.5t-140 -61t-136.5 -88v-1647h-360v2101h328l24 -192q64 55 137.5 99.5t156 76t175 48.5t195.5 17q120 0 220.5 -19.5t181.5 -57.5t142 -95t102.5 -133t62 -169.5t20.5 -205.5
v-1470h-361z" />
    <glyph glyph-name="o" unicode="o" horiz-adv-x="2384" 
d="M1192 -49q-177 0 -317.5 38.5t-247.5 109.5t-183.5 170.5t-125 221.5t-71 263t-22.5 295t24.5 296t75.5 264t129 222t185.5 171t245 109.5t307.5 38.5q178 0 319 -38.5t248.5 -109.5t183.5 -171t124 -222t70 -264t22 -296t-24 -295t-74.5 -263t-128.5 -221.5
t-185.5 -170.5t-245.5 -109.5t-309 -38.5zM1192 254q166 0 279.5 58.5t183.5 164t100.5 251.5t30.5 321q0 177 -30.5 325t-100.5 255t-183.5 166.5t-279.5 59.5q-164 0 -277.5 -59.5t-184 -166.5t-101.5 -255t-31 -325q0 -175 31 -321t101.5 -251.5t184 -164t277.5 -58.5z
" />
    <glyph glyph-name="p" unicode="p" horiz-adv-x="2470" 
d="M381 -934v3035h328l24 -180q63 52 134.5 94.5t152 72.5t170.5 46t190 16q204 0 363 -65.5t267.5 -199t165 -335t56.5 -473.5q0 -278 -65.5 -488.5t-184.5 -352.5t-287 -213.5t-372 -71.5q-92 0 -173 10.5t-153 31.5t-135.5 52.5t-120.5 73.5v-1053h-360zM741 393
q61 -38 124 -64t129.5 -42t138 -22.5t149.5 -6.5q143 0 251 51.5t181 152t109.5 248t36.5 339.5q0 193 -34 341.5t-104 249t-175.5 152t-248.5 51.5q-81 0 -155 -10t-142 -31t-132.5 -53.5t-127.5 -77.5v-1278z" />
    <glyph glyph-name="q" unicode="q" horiz-adv-x="2470" 
d="M1729 -934v1110q-63 -52 -134.5 -93.5t-151.5 -71t-168 -45t-185 -15.5q-204 0 -363 66.5t-267.5 200.5t-165 336t-56.5 474q0 278 65.5 488t184.5 351t287 212t372 71q94 0 177 -12.5t157 -37t139.5 -60.5t124.5 -82l24 143h320v-3035h-360zM1729 1683q-62 40 -125 69
t-130 47.5t-138 27t-148 8.5q-143 0 -251 -51t-181 -150.5t-109.5 -247.5t-36.5 -342q0 -192 34 -340t104 -249t175 -153t248 -52q80 0 153 10t141 31t133.5 52.5t130.5 74.5v1265z" />
    <glyph glyph-name="r" unicode="r" horiz-adv-x="1651" 
d="M381 0v2101h328l24 -311q43 75 100 141t129.5 114.5t160 76.5t192.5 28q77 0 139.5 -13t106.5 -32v-344q-28 9 -63.5 17.5t-75.5 14.5t-83 9.5t-86 3.5q-66 0 -124.5 -15t-110 -42.5t-95 -65t-78.5 -82t-61.5 -94.5t-42.5 -102v-1405h-360z" />
    <glyph glyph-name="s" unicode="s" horiz-adv-x="1962" 
d="M233 393q35 -16 80.5 -32.5t98.5 -31.5t111 -28t118 -22.5t119.5 -15t116.5 -5.5q127 0 225 20.5t164.5 59.5t100.5 96t34 131q0 80 -31.5 136t-91.5 96.5t-146.5 69.5t-197.5 55q-164 38 -291 86t-213.5 118t-131 169.5t-44.5 240.5q0 138 43.5 251.5t138 194t245 124.5
t363.5 44q62 0 122 -5t115.5 -14t107 -22t97.5 -29.5t86.5 -36t74.5 -40.5v-299q-37 19 -80 37.5t-90.5 34.5t-99 29t-106 22.5t-112 14.5t-115.5 5q-110 0 -191 -18.5t-134 -55t-79 -92t-26 -129.5q0 -80 29.5 -133t87.5 -90t142.5 -62.5t195.5 -49.5q166 -37 294 -88
t215.5 -125.5t133 -177.5t45.5 -244q0 -138 -55.5 -254t-165.5 -200t-273 -130.5t-378 -46.5q-97 0 -191.5 11.5t-180 30.5t-157.5 44t-123 53v303z" />
    <glyph glyph-name="t" unicode="t" horiz-adv-x="1704" 
d="M1585 33q-41 -18 -94.5 -33.5t-114 -26t-125.5 -16.5t-129 -6q-155 0 -273.5 33t-199 107.5t-121.5 195t-41 295.5v1220h-360v299h360v647h361v-647h762v-299h-762v-1192q0 -106 21.5 -173t64 -105t106.5 -52t148 -14q58 0 113.5 5.5t106.5 15t95.5 21.5t81.5 24v-299z
" />
    <glyph glyph-name="u" unicode="u" horiz-adv-x="2433" 
d="M1724 0l-24 168q-63 -49 -133 -89t-148 -68.5t-164.5 -44t-181.5 -15.5q-120 0 -220.5 19.5t-181.5 57.5t-142 95t-102.5 133t-62 169.5t-20.5 205.5v1470h361v-1413q0 -115 28 -197.5t83.5 -135t137 -77t189.5 -24.5q78 0 149.5 9.5t139 29.5t131.5 51t129 74v1683h360
v-2101h-328z" />
    <glyph glyph-name="v" unicode="v" horiz-adv-x="1995" 
d="M811 0l-766 2101h385l488 -1478q21 -72 44 -153t42 -171q15 90 40 170.5t50 148.5l487 1483h373l-762 -2101h-381z" />
    <glyph glyph-name="w" unicode="w" horiz-adv-x="3195" 
d="M2073 0l-406 1348q-15 49 -34.5 118.5t-35.5 147.5q-18 -78 -36 -147.5t-33 -118.5l-406 -1348h-360l-701 2101h377l434 -1462q19 -62 37 -136t33 -155q16 81 35.5 155t38.5 136l418 1462h327l418 -1462q16 -62 35 -136t35 -155q15 81 35 155t38 136l435 1462h376
l-700 -2101h-360z" />
    <glyph glyph-name="x" unicode="x" horiz-adv-x="2081" 
d="M1577 0l-537 827l-540 -827h-418l754 1073l-721 1028h426l503 -774l508 774h414l-721 -1024l754 -1077h-422z" />
    <glyph glyph-name="y" unicode="y" horiz-adv-x="1995" 
d="M4 -647q25 -3 58.5 -5.5t76.5 -2.5q79 0 148.5 11t130.5 37t115 69t102 107.5t90.5 152.5t81.5 204l12 45l-774 2130h385l488 -1478q21 -72 44 -153t42 -171q15 90 40 170.5t50 148.5l487 1483h373l-807 -2224q-55 -152 -113 -274t-123 -215t-140 -159.5t-164.5 -109
t-196 -62.5t-234.5 -20q-21 0 -44.5 1.5t-46 4.5t-43.5 6.5t-38 8.5v295z" />
    <glyph glyph-name="z" unicode="z" horiz-adv-x="2028" 
d="M205 0v254l1155 1548h-1122v299h1556v-254l-1163 -1548h1208v-299h-1634z" />
    <glyph glyph-name="braceleft" unicode="{" horiz-adv-x="1696" 
d="M1221 -381q-111 0 -195.5 12.5t-147 40t-104.5 72.5t-67.5 110.5t-36.5 152t-11 198.5v725q0 90 -18 154.5t-56 106t-97 60.5t-140 19h-106v184h106q81 0 140 19t97 60t56 105.5t18 155.5v725q0 112 11 198.5t36.5 152t67.5 110.5t104.5 72.5t147 40t195.5 12.5h233v-217
h-180q-81 0 -128.5 -31.5t-72 -87t-31 -132t-6.5 -167.5v-676q0 -81 -16 -149t-49 -122t-82 -94.5t-115 -68.5q66 -26 115 -66t82 -93.5t49 -120t16 -146.5v-680q0 -91 6.5 -169t31 -135t72 -89.5t128.5 -32.5h180v-209h-233z" />
    <glyph glyph-name="bar" unicode="|" horiz-adv-x="1405" 
d="M553 -934v4039h299v-4039h-299z" />
    <glyph glyph-name="braceright" unicode="}" horiz-adv-x="1696" 
d="M242 -381v209h180q81 0 128.5 32.5t71.5 89.5t30.5 135t6.5 169v680q0 80 16 146.5t49 120t82.5 93.5t115.5 66q-66 28 -115.5 68.5t-82.5 94.5t-49 122t-16 149v676q0 91 -6.5 167.5t-30.5 132t-71.5 87t-128.5 31.5h-180v217h233q166 0 274.5 -28.5t172 -96.5
t89 -180.5t25.5 -280.5v-725q0 -91 18 -155.5t56 -105.5t97 -60t141 -19h106v-184h-106q-82 0 -141 -19t-97 -60.5t-56 -106t-18 -154.5v-725q0 -168 -25.5 -280.5t-89 -180.5t-172 -96.5t-274.5 -28.5h-233z" />
    <glyph glyph-name="asciitilde" unicode="~" horiz-adv-x="1843" 
d="M1724 1487q0 -123 -39 -221.5t-106.5 -168t-158.5 -106.5t-195 -37q-69 0 -127.5 16t-110.5 39.5t-98 51t-89 51t-84.5 39.5t-84.5 16q-57 0 -101 -14.5t-74 -41t-46 -63.5t-17 -81h-274q0 82 17 153t48.5 130t76 105.5t99 78.5t117.5 48.5t133 16.5q69 0 128.5 -16
t112 -39.5t99.5 -51t91 -51t86 -39.5t85 -16q57 0 101.5 14t74.5 40.5t46 63.5t16 83h274z" />
    <glyph glyph-name="uni00A0" unicode="&#xa0;" horiz-adv-x="1016" 
 />
    <glyph glyph-name="exclamdown" unicode="&#xa1;" horiz-adv-x="1356" 
d="M479 -864v807q0 71 3.5 153.5t9 168t12 170.5t13.5 162.5t13.5 144t10.5 114.5l41 430h188l41 -430q4 -48 10 -114.5t13 -144t13.5 -162.5t12 -170.5t9 -168t3.5 -153.5v-807h-393zM451 1655v446h454v-446h-454z" />
    <glyph glyph-name="cent" unicode="&#xa2;" 
d="M1217 -131v459q-225 21 -399.5 106t-294 230.5t-182 352t-62.5 470.5q0 237 56.5 436t172.5 348t292.5 243t416.5 120v463h327v-455q83 -5 162 -15t150 -25.5t132 -35.5t109 -43v-315q-60 26 -136.5 48t-165 37.5t-186 24.5t-200.5 9q-204 0 -349.5 -61t-238 -171.5
t-135.5 -265.5t-43 -342q0 -142 24.5 -260.5t71 -213t115 -165.5t156 -118.5t193 -71t227.5 -23.5q110 0 205.5 7t180.5 20t161.5 32t148.5 43v-307q-60 -21 -122.5 -39.5t-133 -32.5t-151 -24t-175.5 -15v-450h-327z" />
    <glyph glyph-name="sterling" unicode="&#xa3;" 
d="M365 0v303h53q78 0 134 34t92 90.5t52.5 130t16.5 151.5v610h-320v299h320v627q0 132 30 240.5t84 194t129.5 148.5t166.5 104.5t194.5 62t214.5 20.5q83 0 155 -6.5t133 -18t111 -27.5t88 -34v-303q-43 15 -92.5 27.5t-105 22t-116 14.5t-124.5 5q-129 0 -222 -29.5
t-152.5 -91.5t-88 -157t-28.5 -226v-573h884v-299h-884v-651q0 -54 -9.5 -108.5t-30 -102.5t-52.5 -86t-76 -60h1405v-311h-1962z" />
    <glyph glyph-name="currency" unicode="&#xa4;" 
d="M1810 766q-108 -74 -238.5 -113t-273.5 -39q-145 0 -274.5 39t-241.5 113l-250 -270l-237 237l266 246q-74 108 -114.5 238t-40.5 282t40.5 281.5t114.5 234.5l-266 250l237 238l250 -271q112 72 241.5 112t274.5 40q143 0 273.5 -40t238.5 -112l254 271l238 -238
l-270 -250q74 -105 116.5 -234.5t42.5 -281.5t-42.5 -282t-116.5 -238l270 -246l-238 -237zM1298 901q126 0 232 46t183 127t120 190t43 235t-43 235t-120 190t-183 127t-232 46t-231.5 -46t-182.5 -127t-120 -190t-43 -235t43 -235t120 -190t182.5 -127t231.5 -46z" />
    <glyph glyph-name="yen" unicode="&#xa5;" 
d="M1487 627v-627h-377v627h-844v291h844v262l-119 221h-725v291h574l-668 1274h406l577 -1119q40 -80 78 -177t65 -200q28 103 66.5 198.5t81.5 178.5l573 1119h406l-668 -1274h574v-291h-725l-119 -225v-258h844v-291h-844z" />
    <glyph glyph-name="brokenbar" unicode="&#xa6;" horiz-adv-x="1405" 
d="M553 -381v1356h299v-1356h-299zM553 1749v1356h299v-1356h-299z" />
    <glyph glyph-name="section" unicode="&#xa7;" 
d="M1364 2695q-254 0 -385 -76t-131 -219q0 -80 30 -130.5t87.5 -86t141.5 -64t191 -63.5l435 -139q118 -38 223.5 -87t185 -117t126 -159.5t46.5 -214.5q0 -81 -28 -168t-78 -168.5t-120 -151.5t-155 -118q48 -37 84.5 -80.5t61.5 -96.5t38 -116.5t13 -140.5
q0 -147 -62.5 -262t-182 -194t-293 -120.5t-396.5 -41.5q-109 0 -221.5 14t-213.5 37t-184.5 53.5t-134.5 62.5v320q55 -29 139 -59t184.5 -54t211 -39.5t219.5 -15.5q126 0 228 15.5t174.5 50.5t111.5 91.5t39 137.5q0 80 -30 130.5t-88 86t-141.5 64t-191.5 63.5l-434 139
q-118 39 -223.5 88t-185 117t-126 159t-46.5 214q0 81 27.5 167.5t77.5 167t119 150t152 117.5q-46 38 -81.5 82.5t-60 98t-37.5 117t-13 140.5q0 138 56.5 252t169 195.5t280.5 126.5t391 45q109 0 215.5 -13.5t201 -36t172 -52.5t128.5 -62v-320q-56 29 -134 58.5t-171 53
t-198 38t-214 14.5zM1409 975q84 -28 159.5 -54t143.5 -57q57 40 99.5 89t70 102t41.5 107.5t14 107.5q0 73 -26 123.5t-70 85.5t-101 58.5t-118 43.5l-434 139q-87 28 -162.5 53.5t-140.5 53.5q-57 -39 -99.5 -87.5t-70.5 -101.5t-42 -107.5t-14 -105.5q0 -74 26.5 -124
t70 -85t100.5 -58.5t119 -43.5z" />
    <glyph glyph-name="dieresis" unicode="&#xa8;" horiz-adv-x="1794" 
d="M303 2503v409h393v-409h-393zM1098 2503v409h393v-409h-393z" />
    <glyph glyph-name="copyright" unicode="&#xa9;" horiz-adv-x="3547" 
d="M2253 721q-51 -23 -103.5 -40.5t-113.5 -29.5t-134 -18t-165 -6q-120 0 -221 26.5t-182.5 77.5t-143 125.5t-103 170.5t-62.5 212.5t-21 251.5q0 126 21.5 238t64.5 206t106.5 169t147 127t187 80t226.5 28q77 0 145.5 -6.5t128 -19.5t110 -31t91.5 -41v-271
q-41 22 -90 38.5t-106 28t-121.5 17.5t-136.5 6q-106 0 -187.5 -38.5t-136.5 -111t-83 -178.5t-28 -241q0 -163 29.5 -275.5t86.5 -182.5t140 -101t191 -31q75 0 137.5 5.5t117.5 16t105.5 27t102.5 37.5v-266zM1774 3015q239 0 443 -51.5t370 -148t293.5 -233t214 -307
t130.5 -370.5t44 -422t-44 -422t-130.5 -370.5t-214 -307t-293.5 -233t-370 -148t-443 -51.5q-240 0 -444 51.5t-370 148t-293 233t-213.5 307t-130.5 370.5t-44 422t44 422t130.5 370.5t213.5 307t293 233t370 148t444 51.5zM1774 2761q-189 0 -352 -44.5t-297 -126
t-237.5 -196.5t-174.5 -257t-107.5 -307.5t-36.5 -346.5t36.5 -346.5t107.5 -307.5t174.5 -257t237.5 -196.5t296.5 -126t352.5 -44.5q189 0 352 44.5t296.5 126t237 196.5t174.5 257t107.5 307.5t36.5 346.5t-36.5 346.5t-107.5 307.5t-174.5 257t-237 196.5t-296.5 126
t-352 44.5z" />
    <glyph glyph-name="ordfeminine" unicode="&#xaa;" horiz-adv-x="1970" 
d="M1389 1270l-25 139q-52 -42 -111 -75t-125 -56.5t-139 -36t-153 -12.5q-131 0 -237 33.5t-181 95.5t-115.5 150.5t-40.5 199.5q0 91 27 166.5t80 136t131.5 105t180.5 74.5t228 44.5t275 14.5h85h91v102q0 101 -23 172.5t-73 117t-128.5 66.5t-189.5 21q-87 0 -168.5 -11
t-153.5 -29t-132.5 -40t-106.5 -43v246q54 28 120 53t141.5 44t159.5 30.5t173 11.5q152 0 277 -30.5t214.5 -100.5t139 -183.5t49.5 -279.5v-1126h-270zM246 475v295h1446v-295h-1446zM1360 2023h-131q-177 0 -302 -19t-204.5 -57.5t-116.5 -96t-37 -134.5
q0 -58 20.5 -101.5t62 -73t103 -44t142.5 -14.5q66 0 126.5 7.5t117.5 23.5t111 40t108 56v413z" />
    <glyph glyph-name="guillemotleft" unicode="&#xab;" horiz-adv-x="2384" 
d="M954 467l-675 762l675 762h340l-594 -762l594 -762h-340zM1765 467l-675 762l675 762h340l-594 -762l594 -762h-340z" />
    <glyph glyph-name="logicalnot" unicode="&#xac;" horiz-adv-x="2408" 
d="M1884 504v569h-1687v295h2015v-864h-328z" />
    <glyph glyph-name="uni00AD" unicode="&#xad;" horiz-adv-x="1491" 
d="M225 1044v369h1041v-369h-1041z" />
    <glyph glyph-name="registered" unicode="&#xae;" horiz-adv-x="2712" 
d="M2462 2056q0 -162 -40 -306t-112 -266t-173.5 -219.5t-224.5 -165.5t-264 -104.5t-292 -36.5t-292 36.5t-264 104.5t-224.5 165.5t-173.5 219.5t-112 266t-40 306t40 306t112 266t173.5 219.5t224.5 165.5t263.5 104.5t292.5 36.5q151 0 292 -36.5t264 -104.5
t224.5 -165.5t173.5 -219.5t112 -266t40 -306zM1356 1143q126 0 240 32.5t212 92t177 143t135 185t86 218t30 242.5t-30 242.5t-86 218.5t-135 185t-177 143t-212 92.5t-240 32.5t-240.5 -32.5t-212 -92.5t-177 -143t-135 -185t-86 -218.5t-30.5 -242.5t30.5 -242.5t86 -218
t135 -185t177 -143t212 -92t240.5 -32.5zM1659 1470l-242 381q-17 29 -33 46t-33.5 26t-38 11.5t-46.5 2.5h-123v-467h-234v1192h447q101 0 186 -20.5t146.5 -63t96 -108t34.5 -156.5q0 -77 -20.5 -133.5t-55.5 -96t-83.5 -63.5t-103.5 -34q25 -13 47.5 -37t47.5 -58
l266 -422h-258zM1327 2122q60 0 107 10.5t80 33.5t50 59.5t17 88.5q0 80 -58.5 122t-187.5 42h-192v-356h184z" />
    <glyph glyph-name="macron" unicode="&#xaf;" horiz-adv-x="1794" 
d="M344 2503v311h1106v-311h-1106z" />
    <glyph glyph-name="degree" unicode="&#xb0;" horiz-adv-x="1802" 
d="M1622 2302q0 -97 -25 -186t-71 -165.5t-111 -138.5t-145 -106t-173.5 -68t-195.5 -24t-195.5 24t-173.5 68t-145 106t-111 138.5t-71 165.5t-25 186t25 186t71 165.5t111 138.5t145 106t173.5 68t195.5 24t195.5 -24t173.5 -68t145 -106t111 -138.5t71 -165.5t25 -186z
M901 1888q98 0 174.5 33t129 89.5t79.5 132t27 159.5q0 80 -27 154.5t-79.5 132.5t-129 92.5t-174.5 34.5t-174.5 -34.5t-128.5 -92.5t-79 -132.5t-27 -154.5q0 -84 27 -159.5t79 -132t128.5 -89.5t174.5 -33z" />
    <glyph glyph-name="plusminus" unicode="&#xb1;" horiz-adv-x="2408" 
d="M1368 1389v-766h-328v766h-823v294h823v750h328v-750h823v-294h-823zM217 0v295h1974v-295h-1974z" />
    <glyph glyph-name="twosuperior" unicode="&#xb2;" horiz-adv-x="1651" 
d="M205 1503v217l373 307q118 97 205 178t144 153t85 138t28 134q0 57 -19 103.5t-59 80t-103 52t-150 18.5q-68 0 -133.5 -9t-125.5 -24t-112.5 -33.5t-95.5 -36.5v242q38 21 88 40.5t111 34t133 23t155 8.5q112 0 201 -17.5t158 -49t118 -76t80.5 -98.5t46.5 -116.5
t15 -129.5q0 -78 -22.5 -150.5t-62 -140.5t-94.5 -132t-119.5 -125t-136.5 -119.5t-147 -114.5l-160 -119h811v-238h-1212z" />
    <glyph glyph-name="threesuperior" unicode="&#xb3;" horiz-adv-x="1651" 
d="M242 1810q41 -18 97 -34.5t120 -29t133 -19.5t137 -7q89 0 156.5 17t113 48t68.5 75t23 98q0 58 -24 105t-73.5 80t-124 51t-176.5 18h-184v246h184q78 0 144 12.5t113 39t73.5 67.5t26.5 98q0 58 -25.5 98.5t-69 66t-101.5 37t-124 11.5t-129 -8t-120 -21t-107 -30
t-90 -36v242q37 20 91 37t116.5 30t129.5 20t130 7q147 0 260.5 -29.5t190 -84.5t116 -133t39.5 -175q0 -66 -16.5 -120.5t-47.5 -99.5t-76 -80.5t-102 -63.5q71 -29 124 -68t88.5 -88t53 -109t17.5 -132q0 -105 -42 -191t-123.5 -147.5t-201.5 -95t-276 -33.5q-83 0 -159 6
t-142 17.5t-119.5 28t-91.5 38.5v241z" />
    <glyph glyph-name="acute" unicode="&#xb4;" horiz-adv-x="1794" 
d="M455 2408l393 574h475l-545 -574h-323z" />
    <glyph glyph-name="mu" unicode="&#xb5;" horiz-adv-x="2507" 
d="M1110 -49q-115 0 -212 21t-177 61q12 -84 16 -182t4 -203v-582h-360v3035h360v-1413q0 -115 28 -197.5t83.5 -135t137.5 -77t190 -24.5q78 0 149.5 9.5t138.5 29.5t131.5 51t129.5 74v1683h360v-1601q0 -53 7 -92t24 -65t45 -39t71 -13q53 0 98.5 4t98.5 16v-291
q-62 -21 -132.5 -33t-154.5 -12q-62 0 -118.5 14t-104.5 42t-86.5 70.5t-62.5 99.5q-65 -57 -138 -103t-155.5 -79t-175 -50.5t-195.5 -17.5z" />
    <glyph glyph-name="paragraph" unicode="&#xb6;" horiz-adv-x="3170" 
d="M2208 -934v3502h-365v-3502h-454v2204h-5q-198 0 -355.5 30t-277.5 84.5t-205 131t-139 171t-79 203.5t-25 228t24.5 228t78.5 203t139 171t205.5 131.5t279 84.5t359.5 30h1273v-3900h-454z" />
    <glyph glyph-name="periodcentered" unicode="&#xb7;" horiz-adv-x="1397" 
d="M471 999v446h455v-446h-455z" />
    <glyph glyph-name="cedilla" unicode="&#xb8;" horiz-adv-x="1794" 
d="M573 -602q41 -9 84.5 -15t108.5 -6q35 0 71 7t65 23t47 43t18 67q0 43 -25.5 75.5t-66 56.5t-92 39.5t-103.5 24.5l197 328h217l-115 -238q57 -14 105.5 -39t84 -60t56 -80t20.5 -99q0 -94 -38 -162t-101 -112.5t-144 -65.5t-167 -21q-62 0 -117 8.5t-105 20.5v205z" />
    <glyph glyph-name="onesuperior" unicode="&#xb9;" horiz-adv-x="1651" 
d="M324 1503v246h372v1081l-372 -73v245l483 103h188v-1356h373v-246h-1044z" />
    <glyph glyph-name="ordmasculine" unicode="&#xba;" horiz-adv-x="2220" 
d="M1110 1229q-148 0 -266 31t-208 87.5t-154 136t-104.5 177.5t-59.5 211t-19 237q0 186 46.5 347t145.5 279.5t252.5 186.5t366.5 68q149 0 267.5 -31t208.5 -87.5t153.5 -136t104 -177.5t59 -211.5t18.5 -237.5t-20.5 -237t-62.5 -211t-107.5 -177.5t-155.5 -136
t-206 -87.5t-259 -31zM1110 1483q140 0 235.5 46t154.5 129t84.5 198t25.5 253t-25.5 254.5t-84.5 201t-154.5 132t-235.5 47.5q-138 0 -234 -47.5t-156 -132t-87 -201t-27 -254.5t27 -253t87 -198t156 -129t234 -46zM279 475v295h1663v-295h-1663z" />
    <glyph glyph-name="guillemotright" unicode="&#xbb;" horiz-adv-x="2384" 
d="M279 467l593 762l-593 762h339l676 -762l-676 -762h-339zM1090 467l593 762l-593 762h339l676 -762l-676 -762h-339z" />
    <glyph glyph-name="onequarter" unicode="&#xbc;" horiz-adv-x="3928" 
d="M979 0l1663 2966h307l-1658 -2966h-312zM324 1364v246h372v1081l-372 -73v245l483 103h188v-1356h373v-246h-1044zM3223 0v324h-844v196l852 1082h279v-1049h287v-229h-287v-324h-287zM3223 971q0 77 1 141.5t7 120.5q-27 -49 -62 -103.5t-81 -113.5l-377 -463h512v418z
" />
    <glyph glyph-name="onehalf" unicode="&#xbd;" horiz-adv-x="3928" 
d="M324 1364v246h372v1081l-372 -73v245l483 103h188v-1356h373v-246h-1044zM979 0l1663 2966h307l-1658 -2966h-312zM2482 0v217l373 307q118 97 205 178t144 153t85 138t28 134q0 57 -19 103.5t-59 80t-103 52t-150 18.5q-68 0 -133.5 -9t-125.5 -24t-112.5 -33.5
t-95.5 -36.5v242q38 21 88 40.5t111 34t133 23t155 8.5q112 0 201 -17.5t158 -49t118 -76t80.5 -98.5t46.5 -116.5t15 -129.5q0 -78 -22.5 -150.5t-62 -140.5t-94.5 -132t-119.5 -125t-136.5 -119.5t-147 -114.5l-160 -119h811v-238h-1212z" />
    <glyph glyph-name="threequarters" unicode="&#xbe;" horiz-adv-x="3928" 
d="M979 0l1663 2966h307l-1658 -2966h-312zM242 1671q41 -18 97 -34.5t120 -29t133 -19.5t137 -7q89 0 156.5 17t113 48t68.5 75t23 98q0 58 -24 105t-73.5 80t-124 51t-176.5 18h-184v246h184q78 0 144 12.5t113 39t73.5 67.5t26.5 98q0 58 -25.5 98.5t-69 66t-101.5 37
t-124 11.5t-129 -8t-120 -21t-107 -30t-90 -36v242q37 20 91 37t116.5 30t129.5 20t130 7q147 0 260.5 -29.5t190 -84.5t116 -133t39.5 -175q0 -66 -16.5 -120.5t-47.5 -99.5t-76 -80.5t-102 -63.5q71 -29 124 -68t88.5 -88t53 -109t17.5 -132q0 -105 -42 -191
t-123.5 -147.5t-201.5 -95t-276 -33.5q-83 0 -159 6t-142 17.5t-119.5 28t-91.5 38.5v241zM3223 0v324h-844v196l852 1082h279v-1049h287v-229h-287v-324h-287zM3223 971q0 77 1 141.5t7 120.5q-27 -49 -62 -103.5t-81 -113.5l-377 -463h512v418z" />
    <glyph glyph-name="questiondown" unicode="&#xbf;" horiz-adv-x="2097" 
d="M1847 -737q-69 -42 -153.5 -74.5t-182.5 -55t-208 -34.5t-230 -12q-88 0 -181 14.5t-181.5 45.5t-166.5 79.5t-137 117t-93.5 157t-34.5 200.5q0 107 24 202.5t65 181t95.5 162t115 146.5t123.5 134t121 124l267 271l24 364h283l37 -459l-308 -344q-87 -98 -169.5 -186
t-146.5 -175t-103 -176.5t-39 -191.5q0 -83 36.5 -145t100 -103.5t148.5 -62.5t182 -21q103 0 199 12t185 34.5t171 54t157 71.5v-331zM1036 1655v446h455v-446h-455z" />
    <glyph glyph-name="Agrave" unicode="&#xc0;" horiz-adv-x="2671" 
d="M2191 0l-254 758h-1224l-254 -758h-381l1052 2966h402l1061 -2966h-402zM1430 2269q-31 87 -59 183.5t-44 201.5q-18 -105 -48.5 -201.5t-57.5 -183.5l-402 -1188h1008zM1188 3162l-549 574h483l393 -574h-327z" />
    <glyph glyph-name="Aacute" unicode="&#xc1;" horiz-adv-x="2671" 
d="M2191 0l-254 758h-1224l-254 -758h-381l1052 2966h402l1061 -2966h-402zM1430 2269q-31 87 -59 183.5t-44 201.5q-18 -105 -48.5 -201.5t-57.5 -183.5l-402 -1188h1008zM1160 3162l393 574h475l-545 -574h-323z" />
    <glyph glyph-name="Acircumflex" unicode="&#xc2;" horiz-adv-x="2671" 
d="M2191 0l-254 758h-1224l-254 -758h-381l1052 2966h402l1061 -2966h-402zM1430 2269q-31 87 -59 183.5t-44 201.5q-18 -105 -48.5 -201.5t-57.5 -183.5l-402 -1188h1008zM1614 3162l-281 329l-281 -329h-327l393 574h430l393 -574h-327z" />
    <glyph glyph-name="Atilde" unicode="&#xc3;" horiz-adv-x="2671" 
d="M2191 0l-254 758h-1224l-254 -758h-381l1052 2966h402l1061 -2966h-402zM1430 2269q-31 87 -59 183.5t-44 201.5q-18 -105 -48.5 -201.5t-57.5 -183.5l-402 -1188h1008zM2056 3683q0 -117 -32 -210.5t-88.5 -158.5t-133.5 -100t-168 -35q-57 0 -108 15t-96.5 38t-87 49.5
t-80 49.5t-74 38t-70.5 15q-48 0 -80 -16.5t-53 -44t-32 -63t-15 -73.5h-250q0 117 30.5 210t86 158.5t132.5 100.5t169 35q56 0 107 -15t97 -38t88 -49.5t81 -49.5t75.5 -38t71.5 -15q48 0 80 16.5t53 43.5t31.5 62.5t15.5 74.5h250z" />
    <glyph glyph-name="Adieresis" unicode="&#xc4;" horiz-adv-x="2671" 
d="M2191 0l-254 758h-1224l-254 -758h-381l1052 2966h402l1061 -2966h-402zM1430 2269q-31 87 -59 183.5t-44 201.5q-18 -105 -48.5 -201.5t-57.5 -183.5l-402 -1188h1008zM741 3257v409h393v-409h-393zM1536 3257v409h393v-409h-393z" />
    <glyph glyph-name="Aring" unicode="&#xc5;" horiz-adv-x="2671" 
d="M2191 0l-254 758h-1224l-254 -758h-381l1052 2966h402l1061 -2966h-402zM1430 2269q-31 87 -59 183.5t-44 201.5q-18 -105 -48.5 -201.5t-57.5 -183.5l-402 -1188h1008zM1790 3580q0 -92 -35 -171.5t-96 -138t-144 -91.5t-180 -33t-180 33t-144 91.5t-96 138t-35 171.5
t35 171.5t96 138t144 91.5t180 33t180 -33t144 -91.5t96 -138t35 -171.5zM1335 3355q49 0 90.5 18t71.5 48.5t46.5 71.5t16.5 87q0 45 -16.5 85.5t-46.5 72t-71.5 50t-90.5 18.5t-90.5 -18.5t-71.5 -50t-46.5 -72t-16.5 -85.5q0 -46 16.5 -87t46.5 -71.5t71.5 -48.5
t90.5 -18z" />
    <glyph glyph-name="AE" unicode="&#xc6;" horiz-adv-x="3781" 
d="M1815 0v758h-1045l-311 -758h-381l1245 2966h2273v-312h-1405v-983h1200v-311h-1200v-1049h1405v-311h-1781zM1815 2654h-267l-647 -1573h914v1573z" />
    <glyph glyph-name="Ccedilla" unicode="&#xc7;" horiz-adv-x="2454" 
d="M1094 -602q40 -9 83.5 -15t108.5 -6q35 0 71 7t65 23t47 43t18 67q0 43 -25.5 75.5t-66 56.5t-92 39.5t-103.5 24.5l143 242q-173 12 -321 64t-269 142t-214 218.5t-156.5 295t-96 369.5t-32.5 443q0 226 32.5 427.5t98.5 371t166 305t235 229.5t304.5 144.5t375.5 50.5
q115 0 225.5 -11.5t209.5 -32.5t183.5 -51.5t147.5 -68.5v-328q-65 34 -148 62.5t-179 49.5t-203 32.5t-219 11.5q-147 0 -267 -36.5t-214 -107t-162.5 -173t-113 -235t-66 -293.5t-21.5 -347q0 -209 27.5 -380t80 -305t128.5 -232.5t172.5 -163t212 -96t247.5 -31.5
q120 0 223.5 9t195.5 26.5t175.5 43.5t163.5 60v-320q-46 -21 -94 -39.5t-99.5 -34t-107 -27.5t-117.5 -20.5t-131 -14t-147 -7.5l-70 -152q57 -14 105.5 -39t84.5 -60t56 -80t20 -99q0 -94 -38 -162t-101 -112.5t-144 -65.5t-167 -21q-62 0 -117 8.5t-104 20.5v205z" />
    <glyph glyph-name="Egrave" unicode="&#xc8;" horiz-adv-x="2380" 
d="M414 0v2966h1781v-312h-1404v-983h1200v-311h-1200v-1049h1404v-311h-1781zM1147 3162l-549 574h483l393 -574h-327z" />
    <glyph glyph-name="Eacute" unicode="&#xc9;" horiz-adv-x="2380" 
d="M414 0v2966h1781v-312h-1404v-983h1200v-311h-1200v-1049h1404v-311h-1781zM1119 3162l393 574h475l-545 -574h-323z" />
    <glyph glyph-name="Ecircumflex" unicode="&#xca;" horiz-adv-x="2380" 
d="M414 0v2966h1781v-312h-1404v-983h1200v-311h-1200v-1049h1404v-311h-1781zM1573 3162l-281 329l-281 -329h-327l393 574h430l393 -574h-327z" />
    <glyph glyph-name="Edieresis" unicode="&#xcb;" horiz-adv-x="2380" 
d="M414 0v2966h1781v-312h-1404v-983h1200v-311h-1200v-1049h1404v-311h-1781zM700 3257v409h393v-409h-393zM1495 3257v409h393v-409h-393z" />
    <glyph glyph-name="Igrave" unicode="&#xcc;" horiz-adv-x="1671" 
d="M270 0v291h377v2384h-377v291h1131v-291h-377v-2384h377v-291h-1131zM690 3162l-549 574h483l393 -574h-327z" />
    <glyph glyph-name="Iacute" unicode="&#xcd;" horiz-adv-x="1671" 
d="M270 0v291h377v2384h-377v291h1131v-291h-377v-2384h377v-291h-1131zM660 3162l393 574h475l-545 -574h-323z" />
    <glyph glyph-name="Icircumflex" unicode="&#xce;" horiz-adv-x="1671" 
d="M270 0v291h377v2384h-377v291h1131v-291h-377v-2384h377v-291h-1131zM1116 3162l-281 329l-281 -329h-327l393 574h430l393 -574h-327z" />
    <glyph glyph-name="Idieresis" unicode="&#xcf;" horiz-adv-x="1671" 
d="M270 0v291h377v2384h-377v291h1131v-291h-377v-2384h377v-291h-1131zM243 3257v409h393v-409h-393zM1038 3257v409h393v-409h-393z" />
    <glyph glyph-name="Eth" unicode="&#xd0;" horiz-adv-x="2908" 
d="M455 0v1323h-279v295h279v1348h909q243 0 431.5 -51t330 -145t239.5 -227t158.5 -297.5t87.5 -356t27 -402.5q0 -212 -27.5 -404.5t-89.5 -358t-162.5 -299t-245 -228t-337.5 -146t-441 -51.5h-880zM1307 303q169 0 304.5 34.5t240 102t179.5 167.5t123.5 230.5t71.5 291
t23 350.5t-22 352t-69.5 293.5t-121.5 232t-179 168.5t-241.5 102.5t-308.5 34.5h-476v-1044h664v-295h-664v-1020h476z" />
    <glyph glyph-name="Ntilde" unicode="&#xd1;" horiz-adv-x="3043" 
d="M2232 0l-1228 1995q-62 99 -128 222.5t-118 256.5q6 -62 10.5 -126.5t7.5 -127t4.5 -120t1.5 -105.5v-1995h-368v2966h401l1229 -1995q29 -49 60 -104.5t62.5 -115.5t61.5 -123.5t58 -127.5q-6 60 -11 123t-8 124.5t-4.5 118.5t-1.5 105v1995h369v-2966h-398zM2220 3683
q0 -117 -32 -210.5t-88.5 -158.5t-133.5 -100t-168 -35q-57 0 -108 15t-96.5 38t-87 49.5t-80 49.5t-74 38t-70.5 15q-48 0 -80 -16.5t-53 -44t-32 -63t-15 -73.5h-250q0 117 30.5 210t86 158.5t132.5 100.5t169 35q56 0 107 -15t97 -38t88 -49.5t81 -49.5t75.5 -38
t71.5 -15q48 0 80 16.5t53 43.5t31.5 62.5t15.5 74.5h250z" />
    <glyph glyph-name="Ograve" unicode="&#xd2;" horiz-adv-x="2920" 
d="M1454 -49q-221 0 -395 52t-306 148.5t-224.5 233.5t-151 306.5t-85 368.5t-26.5 419q0 221 27 420.5t85.5 370.5t152 308.5t226.5 234.5t308 149.5t397 52.5q221 0 395.5 -52t307 -148.5t225.5 -233.5t151.5 -307t85.5 -368.5t27 -418.5q0 -221 -27 -421t-86.5 -370.5
t-153 -308.5t-227 -234.5t-309 -149t-397.5 -52.5zM1462 270q148 0 264.5 41t205 117t151 184t102.5 243t58 293.5t18 334.5t-18 334t-58 293t-102.5 243t-151 184t-205.5 117t-264 41q-149 0 -266 -41t-206 -117t-152 -184t-103 -243t-58 -293t-18 -334t18 -334.5
t58 -293.5t103 -243t152 -184t206 -117t266 -41zM1311 3162l-549 574h483l393 -574h-327z" />
    <glyph glyph-name="Oacute" unicode="&#xd3;" horiz-adv-x="2920" 
d="M1454 -49q-221 0 -395 52t-306 148.5t-224.5 233.5t-151 306.5t-85 368.5t-26.5 419q0 221 27 420.5t85.5 370.5t152 308.5t226.5 234.5t308 149.5t397 52.5q221 0 395.5 -52t307 -148.5t225.5 -233.5t151.5 -307t85.5 -368.5t27 -418.5q0 -221 -27 -421t-86.5 -370.5
t-153 -308.5t-227 -234.5t-309 -149t-397.5 -52.5zM1462 270q148 0 264.5 41t205 117t151 184t102.5 243t58 293.5t18 334.5t-18 334t-58 293t-102.5 243t-151 184t-205.5 117t-264 41q-149 0 -266 -41t-206 -117t-152 -184t-103 -243t-58 -293t-18 -334t18 -334.5
t58 -293.5t103 -243t152 -184t206 -117t266 -41zM1282 3162l393 574h475l-545 -574h-323z" />
    <glyph glyph-name="Ocircumflex" unicode="&#xd4;" horiz-adv-x="2920" 
d="M1454 -49q-221 0 -395 52t-306 148.5t-224.5 233.5t-151 306.5t-85 368.5t-26.5 419q0 221 27 420.5t85.5 370.5t152 308.5t226.5 234.5t308 149.5t397 52.5q221 0 395.5 -52t307 -148.5t225.5 -233.5t151.5 -307t85.5 -368.5t27 -418.5q0 -221 -27 -421t-86.5 -370.5
t-153 -308.5t-227 -234.5t-309 -149t-397.5 -52.5zM1462 270q148 0 264.5 41t205 117t151 184t102.5 243t58 293.5t18 334.5t-18 334t-58 293t-102.5 243t-151 184t-205.5 117t-264 41q-149 0 -266 -41t-206 -117t-152 -184t-103 -243t-58 -293t-18 -334t18 -334.5
t58 -293.5t103 -243t152 -184t206 -117t266 -41zM1737 3162l-281 329l-281 -329h-327l393 574h430l393 -574h-327z" />
    <glyph glyph-name="Otilde" unicode="&#xd5;" horiz-adv-x="2920" 
d="M1454 -49q-221 0 -395 52t-306 148.5t-224.5 233.5t-151 306.5t-85 368.5t-26.5 419q0 221 27 420.5t85.5 370.5t152 308.5t226.5 234.5t308 149.5t397 52.5q221 0 395.5 -52t307 -148.5t225.5 -233.5t151.5 -307t85.5 -368.5t27 -418.5q0 -221 -27 -421t-86.5 -370.5
t-153 -308.5t-227 -234.5t-309 -149t-397.5 -52.5zM1462 270q148 0 264.5 41t205 117t151 184t102.5 243t58 293.5t18 334.5t-18 334t-58 293t-102.5 243t-151 184t-205.5 117t-264 41q-149 0 -266 -41t-206 -117t-152 -184t-103 -243t-58 -293t-18 -334t18 -334.5
t58 -293.5t103 -243t152 -184t206 -117t266 -41zM2179 3683q0 -117 -32 -210.5t-88.5 -158.5t-133.5 -100t-168 -35q-57 0 -108 15t-96.5 38t-87 49.5t-80 49.5t-74 38t-70.5 15q-48 0 -80 -16.5t-53 -44t-32 -63t-15 -73.5h-250q0 117 30.5 210t86 158.5t132.5 100.5
t169 35q56 0 107 -15t97 -38t88 -49.5t81 -49.5t75.5 -38t71.5 -15q48 0 80 16.5t53 43.5t31.5 62.5t15.5 74.5h250z" />
    <glyph glyph-name="Odieresis" unicode="&#xd6;" horiz-adv-x="2920" 
d="M1454 -49q-221 0 -395 52t-306 148.5t-224.5 233.5t-151 306.5t-85 368.5t-26.5 419q0 221 27 420.5t85.5 370.5t152 308.5t226.5 234.5t308 149.5t397 52.5q221 0 395.5 -52t307 -148.5t225.5 -233.5t151.5 -307t85.5 -368.5t27 -418.5q0 -221 -27 -421t-86.5 -370.5
t-153 -308.5t-227 -234.5t-309 -149t-397.5 -52.5zM1462 270q148 0 264.5 41t205 117t151 184t102.5 243t58 293.5t18 334.5t-18 334t-58 293t-102.5 243t-151 184t-205.5 117t-264 41q-149 0 -266 -41t-206 -117t-152 -184t-103 -243t-58 -293t-18 -334t18 -334.5
t58 -293.5t103 -243t152 -184t206 -117t266 -41zM864 3257v409h393v-409h-393zM1659 3257v409h393v-409h-393z" />
    <glyph glyph-name="multiply" unicode="&#xd7;" horiz-adv-x="2408" 
d="M1204 1016l-672 -672l-213 213l672 672l-672 672l213 213l672 -672l672 672l213 -213l-672 -672l672 -672l-213 -213z" />
    <glyph glyph-name="Oslash" unicode="&#xd8;" horiz-adv-x="2920" 
d="M287 0l250 373q-72 101 -123.5 223.5t-84.5 263t-48 296t-15 323.5q0 221 27 420.5t85.5 370.5t152 308.5t226.5 234.5t308 149.5t397 52.5q221 0 397 -53.5t308 -151.5l102 156h365l-250 -377q72 -102 123 -224t84 -261.5t48 -294.5t15 -322q0 -221 -27 -421
t-86.5 -370.5t-153 -308.5t-227 -234.5t-309 -149t-397.5 -52.5q-221 0 -394.5 50.5t-305.5 145.5l-99 -147h-368zM1962 2507q-92 89 -216 138.5t-284 49.5q-149 0 -266 -41t-206 -117t-152 -184t-103 -243t-58 -293t-18 -334q0 -220 27 -409t92 -341zM958 455
q92 -89 216.5 -137t287.5 -48q148 0 264.5 41t205 117t151 184t102.5 243t58 293.5t18 334.5q0 220 -28.5 407t-90.5 338z" />
    <glyph glyph-name="Ugrave" unicode="&#xd9;" horiz-adv-x="2822" 
d="M2089 2966h377v-2073q0 -159 -27 -290.5t-83 -236t-142 -182.5t-203.5 -130t-267.5 -77.5t-334 -25.5t-334 25.5t-267 77.5t-202 130t-140.5 182.5t-82.5 236t-27 290.5v2073h377v-1999q0 -177 39.5 -308t122 -217.5t210 -129t304.5 -42.5q178 0 306.5 42.5t211.5 129
t122.5 217.5t39.5 308v1999zM1262 3162l-549 574h483l393 -574h-327z" />
    <glyph glyph-name="Uacute" unicode="&#xda;" horiz-adv-x="2822" 
d="M2089 2966h377v-2073q0 -159 -27 -290.5t-83 -236t-142 -182.5t-203.5 -130t-267.5 -77.5t-334 -25.5t-334 25.5t-267 77.5t-202 130t-140.5 182.5t-82.5 236t-27 290.5v2073h377v-1999q0 -177 39.5 -308t122 -217.5t210 -129t304.5 -42.5q178 0 306.5 42.5t211.5 129
t122.5 217.5t39.5 308v1999zM1233 3162l393 574h475l-545 -574h-323z" />
    <glyph glyph-name="Ucircumflex" unicode="&#xdb;" horiz-adv-x="2822" 
d="M2089 2966h377v-2073q0 -159 -27 -290.5t-83 -236t-142 -182.5t-203.5 -130t-267.5 -77.5t-334 -25.5t-334 25.5t-267 77.5t-202 130t-140.5 182.5t-82.5 236t-27 290.5v2073h377v-1999q0 -177 39.5 -308t122 -217.5t210 -129t304.5 -42.5q178 0 306.5 42.5t211.5 129
t122.5 217.5t39.5 308v1999zM1688 3162l-281 329l-281 -329h-327l393 574h430l393 -574h-327z" />
    <glyph glyph-name="Udieresis" unicode="&#xdc;" horiz-adv-x="2822" 
d="M2089 2966h377v-2073q0 -159 -27 -290.5t-83 -236t-142 -182.5t-203.5 -130t-267.5 -77.5t-334 -25.5t-334 25.5t-267 77.5t-202 130t-140.5 182.5t-82.5 236t-27 290.5v2073h377v-1999q0 -177 39.5 -308t122 -217.5t210 -129t304.5 -42.5q178 0 306.5 42.5t211.5 129
t122.5 217.5t39.5 308v1999zM815 3257v409h393v-409h-393zM1610 3257v409h393v-409h-393z" />
    <glyph glyph-name="Yacute" unicode="&#xdd;" horiz-adv-x="2433" 
d="M1028 0v1167l-979 1799h406l594 -1119q22 -43 44 -91t42.5 -99t40 -104t36.5 -107q17 54 37.5 107t42.5 104t45.5 99t46.5 91l594 1119h406l-979 -1803v-1163h-377zM1041 3162l393 574h475l-545 -574h-323z" />
    <glyph glyph-name="Thorn" unicode="&#xde;" horiz-adv-x="2441" 
d="M414 0v2966h377v-500h565q160 0 292.5 -28t238 -82.5t184 -134t131 -182t78.5 -227t26 -268.5q0 -218 -55.5 -389t-175.5 -289.5t-310 -180.5t-458 -62h-516v-623h-377zM1274 922q175 0 297.5 42t199 121.5t111.5 195.5t35 263q0 138 -35 253t-109.5 197t-190.5 127.5
t-279 45.5h-512v-1245h483z" />
    <glyph glyph-name="germandbls" unicode="&#xdf;" horiz-adv-x="2544" 
d="M1032 389q51 -24 114 -47.5t134 -42t147.5 -30t153.5 -11.5q121 0 209 37t144 95.5t83 132t27 145.5q0 56 -14.5 105t-41 92.5t-65.5 82.5t-88 75t-108 70.5t-125 69.5l-570 299v316l250 110q104 46 180 91.5t128 91t84 92t49.5 94.5t23.5 98t6 103q0 81 -29.5 152
t-89 123.5t-149.5 83t-211 30.5q-123 0 -221.5 -34.5t-168 -104.5t-106.5 -176.5t-37 -250.5v-2281h-360v2335q0 142 33 258t92.5 207t142.5 158t183 110.5t214 64.5t236 21q136 0 250.5 -24.5t207 -69t162.5 -106.5t117 -137.5t71 -162.5t24 -180q0 -140 -41 -258.5
t-123 -217.5t-205 -179.5t-287 -143.5l-135 -53l393 -164q109 -45 203 -93.5t170 -104t135 -118t99 -135t60.5 -157t20.5 -182.5q0 -90 -22 -178.5t-66.5 -168t-111.5 -147.5t-157.5 -117.5t-205 -77.5t-252.5 -28q-87 0 -166.5 11.5t-150 30.5t-131 44t-109.5 53v299z" />
    <glyph glyph-name="agrave" unicode="&#xe0;" horiz-adv-x="2232" 
d="M1561 0l-25 168q-63 -49 -134 -89t-150 -68.5t-166.5 -44t-184.5 -15.5q-153 0 -278.5 41.5t-215 118.5t-138 187t-48.5 247q0 113 32 207t95 168t156 129t215 91t272.5 54t327.5 18h79.5h68.5h61v144q0 129 -28 220.5t-87.5 150t-153 85.5t-223.5 27
q-104 0 -200.5 -14.5t-182 -37t-157.5 -50.5t-127 -54v291q64 35 143.5 67t169.5 56t189.5 38.5t205.5 14.5q181 0 330.5 -38t256.5 -124.5t165.5 -227.5t58.5 -347v-1413h-327zM1528 946h-156q-209 0 -357 -24.5t-242.5 -73.5t-138.5 -123t-44 -172q0 -74 24.5 -130.5
t73 -95t121.5 -58t170 -19.5q78 0 150 10t139.5 31t132 52.5t127.5 74.5v528zM952 2408l-549 574h483l393 -574h-327z" />
    <glyph glyph-name="aacute" unicode="&#xe1;" horiz-adv-x="2232" 
d="M1561 0l-25 168q-63 -49 -134 -89t-150 -68.5t-166.5 -44t-184.5 -15.5q-153 0 -278.5 41.5t-215 118.5t-138 187t-48.5 247q0 113 32 207t95 168t156 129t215 91t272.5 54t327.5 18h79.5h68.5h61v144q0 129 -28 220.5t-87.5 150t-153 85.5t-223.5 27
q-104 0 -200.5 -14.5t-182 -37t-157.5 -50.5t-127 -54v291q64 35 143.5 67t169.5 56t189.5 38.5t205.5 14.5q181 0 330.5 -38t256.5 -124.5t165.5 -227.5t58.5 -347v-1413h-327zM1528 946h-156q-209 0 -357 -24.5t-242.5 -73.5t-138.5 -123t-44 -172q0 -74 24.5 -130.5
t73 -95t121.5 -58t170 -19.5q78 0 150 10t139.5 31t132 52.5t127.5 74.5v528zM922 2408l393 574h475l-545 -574h-323z" />
    <glyph glyph-name="acircumflex" unicode="&#xe2;" horiz-adv-x="2232" 
d="M1561 0l-25 168q-63 -49 -134 -89t-150 -68.5t-166.5 -44t-184.5 -15.5q-153 0 -278.5 41.5t-215 118.5t-138 187t-48.5 247q0 113 32 207t95 168t156 129t215 91t272.5 54t327.5 18h79.5h68.5h61v144q0 129 -28 220.5t-87.5 150t-153 85.5t-223.5 27
q-104 0 -200.5 -14.5t-182 -37t-157.5 -50.5t-127 -54v291q64 35 143.5 67t169.5 56t189.5 38.5t205.5 14.5q181 0 330.5 -38t256.5 -124.5t165.5 -227.5t58.5 -347v-1413h-327zM1528 946h-156q-209 0 -357 -24.5t-242.5 -73.5t-138.5 -123t-44 -172q0 -74 24.5 -130.5
t73 -95t121.5 -58t170 -19.5q78 0 150 10t139.5 31t132 52.5t127.5 74.5v528zM1377 2408l-281 329l-281 -329h-327l393 574h430l393 -574h-327z" />
    <glyph glyph-name="atilde" unicode="&#xe3;" horiz-adv-x="2232" 
d="M1561 0l-25 168q-63 -49 -134 -89t-150 -68.5t-166.5 -44t-184.5 -15.5q-153 0 -278.5 41.5t-215 118.5t-138 187t-48.5 247q0 113 32 207t95 168t156 129t215 91t272.5 54t327.5 18h79.5h68.5h61v144q0 129 -28 220.5t-87.5 150t-153 85.5t-223.5 27
q-104 0 -200.5 -14.5t-182 -37t-157.5 -50.5t-127 -54v291q64 35 143.5 67t169.5 56t189.5 38.5t205.5 14.5q181 0 330.5 -38t256.5 -124.5t165.5 -227.5t58.5 -347v-1413h-327zM1528 946h-156q-209 0 -357 -24.5t-242.5 -73.5t-138.5 -123t-44 -172q0 -74 24.5 -130.5
t73 -95t121.5 -58t170 -19.5q78 0 150 10t139.5 31t132 52.5t127.5 74.5v528zM1819 2929q0 -117 -32 -210.5t-88.5 -158.5t-133.5 -100t-168 -35q-57 0 -108 15t-96.5 38t-87 49.5t-80 49.5t-74 38t-70.5 15q-48 0 -80 -16.5t-53 -44t-32 -63t-15 -73.5h-250q0 117 30.5 210
t86 158.5t132.5 100.5t169 35q56 0 107 -15t97 -38t88 -49.5t81 -49.5t75.5 -38t71.5 -15q48 0 80 16.5t53 43.5t31.5 62.5t15.5 74.5h250z" />
    <glyph glyph-name="adieresis" unicode="&#xe4;" horiz-adv-x="2232" 
d="M1561 0l-25 168q-63 -49 -134 -89t-150 -68.5t-166.5 -44t-184.5 -15.5q-153 0 -278.5 41.5t-215 118.5t-138 187t-48.5 247q0 113 32 207t95 168t156 129t215 91t272.5 54t327.5 18h79.5h68.5h61v144q0 129 -28 220.5t-87.5 150t-153 85.5t-223.5 27
q-104 0 -200.5 -14.5t-182 -37t-157.5 -50.5t-127 -54v291q64 35 143.5 67t169.5 56t189.5 38.5t205.5 14.5q181 0 330.5 -38t256.5 -124.5t165.5 -227.5t58.5 -347v-1413h-327zM1528 946h-156q-209 0 -357 -24.5t-242.5 -73.5t-138.5 -123t-44 -172q0 -74 24.5 -130.5
t73 -95t121.5 -58t170 -19.5q78 0 150 10t139.5 31t132 52.5t127.5 74.5v528zM504 2503v409h393v-409h-393zM1299 2503v409h393v-409h-393z" />
    <glyph glyph-name="aring" unicode="&#xe5;" horiz-adv-x="2232" 
d="M1561 0l-25 168q-63 -49 -134 -89t-150 -68.5t-166.5 -44t-184.5 -15.5q-153 0 -278.5 41.5t-215 118.5t-138 187t-48.5 247q0 113 32 207t95 168t156 129t215 91t272.5 54t327.5 18h79.5h68.5h61v144q0 129 -28 220.5t-87.5 150t-153 85.5t-223.5 27
q-104 0 -200.5 -14.5t-182 -37t-157.5 -50.5t-127 -54v291q64 35 143.5 67t169.5 56t189.5 38.5t205.5 14.5q181 0 330.5 -38t256.5 -124.5t165.5 -227.5t58.5 -347v-1413h-327zM1528 946h-156q-209 0 -357 -24.5t-242.5 -73.5t-138.5 -123t-44 -172q0 -74 24.5 -130.5
t73 -95t121.5 -58t170 -19.5q78 0 150 10t139.5 31t132 52.5t127.5 74.5v528zM1553 2826q0 -92 -35 -171.5t-96 -138t-144 -91.5t-180 -33t-180 33t-144 91.5t-96 138t-35 171.5t35 171.5t96 138t144 91.5t180 33t180 -33t144 -91.5t96 -138t35 -171.5zM1098 2601
q49 0 90.5 18t71.5 48.5t46.5 71.5t16.5 87q0 45 -16.5 85.5t-46.5 72t-71.5 50t-90.5 18.5t-90.5 -18.5t-71.5 -50t-46.5 -72t-16.5 -85.5q0 -46 16.5 -87t46.5 -71.5t71.5 -48.5t90.5 -18z" />
    <glyph glyph-name="ae" unicode="&#xe6;" horiz-adv-x="3510" 
d="M3174 102q-61 -32 -136 -60t-164 -48t-194 -31.5t-226 -11.5q-123 0 -230 20.5t-197.5 60.5t-165 100t-132.5 138q-65 -69 -150 -127.5t-186.5 -101t-217 -66.5t-241.5 -24q-166 0 -298 41.5t-224.5 118.5t-141.5 187t-49 247q0 113 32 207t95 168t156 129t215 91
t272.5 54t327.5 18h98h111v144q0 129 -28 220.5t-87.5 150t-153 85.5t-223.5 27q-104 0 -200.5 -14.5t-182 -37t-157.5 -50.5t-127 -54v291q64 35 143.5 67t169.5 56t189.5 38.5t205.5 14.5q117 0 221 -19.5t191.5 -58.5t156.5 -98t115 -139q49 72 113 130.5t143 99.5
t173.5 63t205.5 22q148 0 271.5 -35.5t222 -100.5t172 -156.5t122 -203.5t73 -242.5t24.5 -272.5q0 -20 -0.5 -41.5t-2 -41.5t-3 -37t-2.5 -28h-1397q6 -175 45 -309.5t115 -226t189.5 -138.5t268.5 -47q117 0 216 12t183 30.5t153.5 42t127.5 46.5v-299zM1372 946
q-209 0 -357 -24.5t-242.5 -73.5t-138.5 -123t-44 -172q0 -74 24.5 -130.5t73 -95t121.5 -58t170 -19.5q77 0 150 10.5t141.5 31.5t133 52.5t124.5 73.5v256.5v271.5h-156zM2912 1270q-6 133 -43 242t-102.5 186.5t-159 119.5t-211.5 42t-211.5 -42t-159.5 -119.5
t-104 -186.5t-45 -242h1036z" />
    <glyph glyph-name="ccedilla" unicode="&#xe7;" horiz-adv-x="1942" 
d="M745 -602q41 -9 84.5 -15t108.5 -6q35 0 71 7t65 23t47 43t18 67q0 43 -25.5 75.5t-66 56.5t-92 39.5t-103.5 24.5l147 246q-184 23 -326 105.5t-238.5 222.5t-146.5 337t-50 449q0 159 26 300.5t78 261t129.5 215t181 162.5t233 102.5t285.5 35.5q83 0 163 -8t151 -23.5
t132 -37.5t107 -49v-312q-48 23 -109 44t-131.5 36.5t-148.5 25t-159 9.5q-144 0 -250.5 -52.5t-176.5 -150.5t-104.5 -239.5t-34.5 -319.5q0 -206 37.5 -357t109 -250t175 -147.5t235.5 -48.5q108 0 194 11.5t156.5 29.5t129 40.5t110.5 45.5v-299q-43 -26 -101 -50
t-127 -43t-147 -32.5t-161 -17.5l-70 -152q57 -14 105.5 -39t84.5 -60t56 -80t20 -99q0 -62 -17.5 -113.5t-48.5 -91.5t-73.5 -69.5t-92.5 -48.5t-105.5 -28.5t-112.5 -9.5q-62 0 -117 8.5t-105 20.5v205z" />
    <glyph glyph-name="egrave" unicode="&#xe8;" horiz-adv-x="2236" 
d="M1901 102q-62 -32 -136.5 -60t-164 -48t-194.5 -31.5t-226 -11.5q-157 0 -287.5 34t-235.5 99.5t-183.5 161t-131 219.5t-78.5 274.5t-26 325.5q0 156 23.5 297t71.5 261.5t121 218t171 166t222 105.5t275 37q148 0 271.5 -35.5t222 -100.5t172 -156.5t122 -203.5
t73 -242.5t24.5 -272.5q0 -20 -0.5 -41.5t-2 -41.5t-3 -37t-2.5 -28h-1397q6 -175 45 -309.5t115 -226t190 -138.5t269 -47q117 0 215.5 12t182.5 30.5t153.5 42t128.5 46.5v-299zM1638 1270q-6 133 -43 242t-102.5 186.5t-159 119.5t-211.5 42t-211 -42t-159 -119.5
t-104 -186.5t-46 -242h1036zM993 2408l-549 574h483l393 -574h-327z" />
    <glyph glyph-name="eacute" unicode="&#xe9;" horiz-adv-x="2236" 
d="M1901 102q-62 -32 -136.5 -60t-164 -48t-194.5 -31.5t-226 -11.5q-157 0 -287.5 34t-235.5 99.5t-183.5 161t-131 219.5t-78.5 274.5t-26 325.5q0 156 23.5 297t71.5 261.5t121 218t171 166t222 105.5t275 37q148 0 271.5 -35.5t222 -100.5t172 -156.5t122 -203.5
t73 -242.5t24.5 -272.5q0 -20 -0.5 -41.5t-2 -41.5t-3 -37t-2.5 -28h-1397q6 -175 45 -309.5t115 -226t190 -138.5t269 -47q117 0 215.5 12t182.5 30.5t153.5 42t128.5 46.5v-299zM1638 1270q-6 133 -43 242t-102.5 186.5t-159 119.5t-211.5 42t-211 -42t-159 -119.5
t-104 -186.5t-46 -242h1036zM963 2408l393 574h475l-545 -574h-323z" />
    <glyph glyph-name="ecircumflex" unicode="&#xea;" horiz-adv-x="2236" 
d="M1901 102q-62 -32 -136.5 -60t-164 -48t-194.5 -31.5t-226 -11.5q-157 0 -287.5 34t-235.5 99.5t-183.5 161t-131 219.5t-78.5 274.5t-26 325.5q0 156 23.5 297t71.5 261.5t121 218t171 166t222 105.5t275 37q148 0 271.5 -35.5t222 -100.5t172 -156.5t122 -203.5
t73 -242.5t24.5 -272.5q0 -20 -0.5 -41.5t-2 -41.5t-3 -37t-2.5 -28h-1397q6 -175 45 -309.5t115 -226t190 -138.5t269 -47q117 0 215.5 12t182.5 30.5t153.5 42t128.5 46.5v-299zM1638 1270q-6 133 -43 242t-102.5 186.5t-159 119.5t-211.5 42t-211 -42t-159 -119.5
t-104 -186.5t-46 -242h1036zM1418 2408l-281 329l-281 -329h-327l393 574h430l393 -574h-327z" />
    <glyph glyph-name="edieresis" unicode="&#xeb;" horiz-adv-x="2236" 
d="M1901 102q-62 -32 -136.5 -60t-164 -48t-194.5 -31.5t-226 -11.5q-157 0 -287.5 34t-235.5 99.5t-183.5 161t-131 219.5t-78.5 274.5t-26 325.5q0 156 23.5 297t71.5 261.5t121 218t171 166t222 105.5t275 37q148 0 271.5 -35.5t222 -100.5t172 -156.5t122 -203.5
t73 -242.5t24.5 -272.5q0 -20 -0.5 -41.5t-2 -41.5t-3 -37t-2.5 -28h-1397q6 -175 45 -309.5t115 -226t190 -138.5t269 -47q117 0 215.5 12t182.5 30.5t153.5 42t128.5 46.5v-299zM1638 1270q-6 133 -43 242t-102.5 186.5t-159 119.5t-211.5 42t-211 -42t-159 -119.5
t-104 -186.5t-46 -242h1036zM545 2503v409h393v-409h-393zM1340 2503v409h393v-409h-393z" />
    <glyph glyph-name="igrave" unicode="&#xec;" horiz-adv-x="1122" 
d="M381 0v2101h360v-2101h-360zM415 2408l-549 574h483l393 -574h-327z" />
    <glyph glyph-name="iacute" unicode="&#xed;" horiz-adv-x="1122" 
d="M381 0v2101h360v-2101h-360zM386 2408l393 574h475l-545 -574h-323z" />
    <glyph glyph-name="icircumflex" unicode="&#xee;" horiz-adv-x="1122" 
d="M381 0v2101h360v-2101h-360zM841 2408l-281 329l-281 -329h-327l393 574h430l393 -574h-327z" />
    <glyph glyph-name="idieresis" unicode="&#xef;" horiz-adv-x="1122" 
d="M381 0v2101h360v-2101h-360zM-32 2503v409h393v-409h-393zM763 2503v409h393v-409h-393z" />
    <glyph glyph-name="eth" unicode="&#xf0;" horiz-adv-x="2408" 
d="M1475 2535q147 -146 274.5 -322t221 -375.5t147 -419.5t53.5 -455q0 -141 -25 -271t-76.5 -242.5t-130 -204.5t-186 -157.5t-244.5 -101t-305 -35.5q-174 0 -313 35.5t-246.5 101t-184.5 157.5t-126.5 204.5t-72.5 242t-23 271.5t27 272.5t78.5 243.5t127.5 205
t174 157.5t218 101t259 35.5q78 0 147.5 -9t132 -27.5t118 -46t106.5 -64.5q-90 161 -202 301t-236 264l-516 -250v254l332 160q-100 84 -195.5 150.5t-181.5 115.5l168 180q61 -26 123.5 -58t125 -70.5t124.5 -83t122 -95.5l590 287v-254zM1204 254q161 0 274 50t184 142.5
t103.5 223.5t32.5 293q0 163 -32.5 295.5t-103.5 227t-184 146t-274 51.5q-160 0 -272.5 -51.5t-184 -146t-104.5 -227t-33 -295.5q0 -108 14.5 -202.5t45 -173t78 -140.5t113.5 -105t151 -65.5t192 -22.5z" />
    <glyph glyph-name="ntilde" unicode="&#xf1;" horiz-adv-x="2470" 
d="M1765 0v1413q0 115 -28.5 196.5t-84 133.5t-137.5 76t-188 24q-84 0 -161 -11.5t-148.5 -35.5t-140 -61t-136.5 -88v-1647h-360v2101h328l24 -192q64 55 137.5 99.5t156 76t175 48.5t195.5 17q120 0 220.5 -19.5t181.5 -57.5t142 -95t102.5 -133t62 -169.5t20.5 -205.5
v-1470h-361zM1974 2929q0 -117 -32 -210.5t-88.5 -158.5t-133.5 -100t-168 -35q-57 0 -108 15t-96.5 38t-87 49.5t-80 49.5t-74 38t-70.5 15q-48 0 -80 -16.5t-53 -44t-32 -63t-15 -73.5h-250q0 117 30.5 210t86 158.5t132.5 100.5t169 35q56 0 107 -15t97 -38t88 -49.5
t81 -49.5t75.5 -38t71.5 -15q48 0 80 16.5t53 43.5t31.5 62.5t15.5 74.5h250z" />
    <glyph glyph-name="ograve" unicode="&#xf2;" horiz-adv-x="2384" 
d="M1192 -49q-177 0 -317.5 38.5t-247.5 109.5t-183.5 170.5t-125 221.5t-71 263t-22.5 295t24.5 296t75.5 264t129 222t185.5 171t245 109.5t307.5 38.5q178 0 319 -38.5t248.5 -109.5t183.5 -171t124 -222t70 -264t22 -296t-24 -295t-74.5 -263t-128.5 -221.5
t-185.5 -170.5t-245.5 -109.5t-309 -38.5zM1192 254q166 0 279.5 58.5t183.5 164t100.5 251.5t30.5 321q0 177 -30.5 325t-100.5 255t-183.5 166.5t-279.5 59.5q-164 0 -277.5 -59.5t-184 -166.5t-101.5 -255t-31 -325q0 -175 31 -321t101.5 -251.5t184 -164t277.5 -58.5z
M1041 2408l-549 574h483l393 -574h-327z" />
    <glyph glyph-name="oacute" unicode="&#xf3;" horiz-adv-x="2384" 
d="M1192 -49q-177 0 -317.5 38.5t-247.5 109.5t-183.5 170.5t-125 221.5t-71 263t-22.5 295t24.5 296t75.5 264t129 222t185.5 171t245 109.5t307.5 38.5q178 0 319 -38.5t248.5 -109.5t183.5 -171t124 -222t70 -264t22 -296t-24 -295t-74.5 -263t-128.5 -221.5
t-185.5 -170.5t-245.5 -109.5t-309 -38.5zM1192 254q166 0 279.5 58.5t183.5 164t100.5 251.5t30.5 321q0 177 -30.5 325t-100.5 255t-183.5 166.5t-279.5 59.5q-164 0 -277.5 -59.5t-184 -166.5t-101.5 -255t-31 -325q0 -175 31 -321t101.5 -251.5t184 -164t277.5 -58.5z
M1012 2408l393 574h475l-545 -574h-323z" />
    <glyph glyph-name="ocircumflex" unicode="&#xf4;" horiz-adv-x="2384" 
d="M1192 -49q-177 0 -317.5 38.5t-247.5 109.5t-183.5 170.5t-125 221.5t-71 263t-22.5 295t24.5 296t75.5 264t129 222t185.5 171t245 109.5t307.5 38.5q178 0 319 -38.5t248.5 -109.5t183.5 -171t124 -222t70 -264t22 -296t-24 -295t-74.5 -263t-128.5 -221.5
t-185.5 -170.5t-245.5 -109.5t-309 -38.5zM1192 254q166 0 279.5 58.5t183.5 164t100.5 251.5t30.5 321q0 177 -30.5 325t-100.5 255t-183.5 166.5t-279.5 59.5q-164 0 -277.5 -59.5t-184 -166.5t-101.5 -255t-31 -325q0 -175 31 -321t101.5 -251.5t184 -164t277.5 -58.5z
M1467 2408l-281 329l-281 -329h-327l393 574h430l393 -574h-327z" />
    <glyph glyph-name="otilde" unicode="&#xf5;" horiz-adv-x="2384" 
d="M1192 -49q-177 0 -317.5 38.5t-247.5 109.5t-183.5 170.5t-125 221.5t-71 263t-22.5 295t24.5 296t75.5 264t129 222t185.5 171t245 109.5t307.5 38.5q178 0 319 -38.5t248.5 -109.5t183.5 -171t124 -222t70 -264t22 -296t-24 -295t-74.5 -263t-128.5 -221.5
t-185.5 -170.5t-245.5 -109.5t-309 -38.5zM1192 254q166 0 279.5 58.5t183.5 164t100.5 251.5t30.5 321q0 177 -30.5 325t-100.5 255t-183.5 166.5t-279.5 59.5q-164 0 -277.5 -59.5t-184 -166.5t-101.5 -255t-31 -325q0 -175 31 -321t101.5 -251.5t184 -164t277.5 -58.5z
M1909 2929q0 -117 -32 -210.5t-88.5 -158.5t-133.5 -100t-168 -35q-57 0 -108 15t-96.5 38t-87 49.5t-80 49.5t-74 38t-70.5 15q-48 0 -80 -16.5t-53 -44t-32 -63t-15 -73.5h-250q0 117 30.5 210t86 158.5t132.5 100.5t169 35q56 0 107 -15t97 -38t88 -49.5t81 -49.5
t75.5 -38t71.5 -15q48 0 80 16.5t53 43.5t31.5 62.5t15.5 74.5h250z" />
    <glyph glyph-name="odieresis" unicode="&#xf6;" horiz-adv-x="2384" 
d="M1192 -49q-177 0 -317.5 38.5t-247.5 109.5t-183.5 170.5t-125 221.5t-71 263t-22.5 295t24.5 296t75.5 264t129 222t185.5 171t245 109.5t307.5 38.5q178 0 319 -38.5t248.5 -109.5t183.5 -171t124 -222t70 -264t22 -296t-24 -295t-74.5 -263t-128.5 -221.5
t-185.5 -170.5t-245.5 -109.5t-309 -38.5zM1192 254q166 0 279.5 58.5t183.5 164t100.5 251.5t30.5 321q0 177 -30.5 325t-100.5 255t-183.5 166.5t-279.5 59.5q-164 0 -277.5 -59.5t-184 -166.5t-101.5 -255t-31 -325q0 -175 31 -321t101.5 -251.5t184 -164t277.5 -58.5z
M594 2503v409h393v-409h-393zM1389 2503v409h393v-409h-393z" />
    <glyph glyph-name="divide" unicode="&#xf7;" horiz-adv-x="2408" 
d="M197 1073v295h2015v-295h-2015zM975 1769v447h455v-447h-455zM975 209v446h455v-446h-455z" />
    <glyph glyph-name="oslash" unicode="&#xf8;" horiz-adv-x="2384" 
d="M181 -41l249 324q-54 73 -92.5 160t-63 184.5t-36.5 203.5t-12 218q0 154 24.5 296t75 264t128.5 222t185.5 171t245 109.5t307.5 38.5q178 0 320 -39t250 -112l110 143h332l-254 -323q55 -74 94.5 -161t65 -184.5t37.5 -204t12 -220.5q0 -154 -24 -295t-74.5 -263
t-128.5 -221.5t-185.5 -170.5t-245.5 -109.5t-309 -38.5q-178 0 -320 38t-249 109l-107 -139h-335zM828 365q68 -53 157.5 -82t206.5 -29q166 0 279.5 58.5t183.5 164t100.5 251.5t30.5 321q0 133 -18 247.5t-56 210.5zM1557 1737q-68 59 -157.5 88.5t-207.5 29.5
q-164 0 -277.5 -59.5t-184 -166.5t-101.5 -255t-31 -325q0 -134 16.5 -248.5t53.5 -210.5z" />
    <glyph glyph-name="ugrave" unicode="&#xf9;" horiz-adv-x="2433" 
d="M1724 0l-24 168q-63 -49 -133 -89t-148 -68.5t-164.5 -44t-181.5 -15.5q-120 0 -220.5 19.5t-181.5 57.5t-142 95t-102.5 133t-62 169.5t-20.5 205.5v1470h361v-1413q0 -115 28 -197.5t83.5 -135t137 -77t189.5 -24.5q78 0 149.5 9.5t139 29.5t131.5 51t129 74v1683h360
v-2101h-328zM1049 2408l-549 574h483l393 -574h-327z" />
    <glyph glyph-name="uacute" unicode="&#xfa;" horiz-adv-x="2433" 
d="M1724 0l-24 168q-63 -49 -133 -89t-148 -68.5t-164.5 -44t-181.5 -15.5q-120 0 -220.5 19.5t-181.5 57.5t-142 95t-102.5 133t-62 169.5t-20.5 205.5v1470h361v-1413q0 -115 28 -197.5t83.5 -135t137 -77t189.5 -24.5q78 0 149.5 9.5t139 29.5t131.5 51t129 74v1683h360
v-2101h-328zM1020 2408l393 574h475l-545 -574h-323z" />
    <glyph glyph-name="ucircumflex" unicode="&#xfb;" horiz-adv-x="2433" 
d="M1724 0l-24 168q-63 -49 -133 -89t-148 -68.5t-164.5 -44t-181.5 -15.5q-120 0 -220.5 19.5t-181.5 57.5t-142 95t-102.5 133t-62 169.5t-20.5 205.5v1470h361v-1413q0 -115 28 -197.5t83.5 -135t137 -77t189.5 -24.5q78 0 149.5 9.5t139 29.5t131.5 51t129 74v1683h360
v-2101h-328zM1475 2408l-281 329l-281 -329h-327l393 574h430l393 -574h-327z" />
    <glyph glyph-name="udieresis" unicode="&#xfc;" horiz-adv-x="2433" 
d="M1724 0l-24 168q-63 -49 -133 -89t-148 -68.5t-164.5 -44t-181.5 -15.5q-120 0 -220.5 19.5t-181.5 57.5t-142 95t-102.5 133t-62 169.5t-20.5 205.5v1470h361v-1413q0 -115 28 -197.5t83.5 -135t137 -77t189.5 -24.5q78 0 149.5 9.5t139 29.5t131.5 51t129 74v1683h360
v-2101h-328zM602 2503v409h393v-409h-393zM1397 2503v409h393v-409h-393z" />
    <glyph glyph-name="yacute" unicode="&#xfd;" horiz-adv-x="1995" 
d="M4 -647q25 -3 58.5 -5.5t76.5 -2.5q79 0 148.5 11t130.5 37t115 69t102 107.5t90.5 152.5t81.5 204l12 45l-774 2130h385l488 -1478q21 -72 44 -153t42 -171q15 90 40 170.5t50 148.5l487 1483h373l-807 -2224q-55 -152 -113 -274t-123 -215t-140 -159.5t-164.5 -109
t-196 -62.5t-234.5 -20q-21 0 -44.5 1.5t-46 4.5t-43.5 6.5t-38 8.5v295zM824 2408l393 574h475l-545 -574h-323z" />
    <glyph glyph-name="thorn" unicode="&#xfe;" horiz-adv-x="2470" 
d="M381 -934v4039h360v-1180q63 51 134 92.5t150.5 71t168 45.5t186.5 16q204 0 363 -65.5t267.5 -199t165 -335t56.5 -473.5q0 -185 -29.5 -340.5t-85 -280.5t-135.5 -219.5t-181 -158t-221.5 -95.5t-256.5 -32q-92 0 -173 10.5t-153 31.5t-135.5 52.5t-120.5 73.5v-1053
h-360zM741 393q61 -38 124 -64t129.5 -42t138 -22.5t149.5 -6.5q143 0 251 51.5t181 152t109.5 248t36.5 339.5q0 193 -34 341.5t-104 249t-175.5 152t-248.5 51.5q-81 0 -155 -10t-142 -31t-132.5 -53.5t-127.5 -77.5v-1278z" />
    <glyph glyph-name="ydieresis" unicode="&#xff;" horiz-adv-x="1995" 
d="M4 -647q25 -3 58.5 -5.5t76.5 -2.5q79 0 148.5 11t130.5 37t115 69t102 107.5t90.5 152.5t81.5 204l12 45l-774 2130h385l488 -1478q21 -72 44 -153t42 -171q15 90 40 170.5t50 148.5l487 1483h373l-807 -2224q-55 -152 -113 -274t-123 -215t-140 -159.5t-164.5 -109
t-196 -62.5t-234.5 -20q-21 0 -44.5 1.5t-46 4.5t-43.5 6.5t-38 8.5v295zM405 2503v409h393v-409h-393zM1200 2503v409h393v-409h-393z" />
    <glyph glyph-name="Amacron" unicode="&#x100;" horiz-adv-x="2671" 
d="M2191 0l-254 758h-1224l-254 -758h-381l1052 2966h402l1061 -2966h-402zM1430 2269q-31 87 -59 183.5t-44 201.5q-18 -105 -48.5 -201.5t-57.5 -183.5l-402 -1188h1008zM782 3257v311h1106v-311h-1106z" />
    <glyph glyph-name="amacron" unicode="&#x101;" horiz-adv-x="2232" 
d="M1561 0l-25 168q-63 -49 -134 -89t-150 -68.5t-166.5 -44t-184.5 -15.5q-153 0 -278.5 41.5t-215 118.5t-138 187t-48.5 247q0 113 32 207t95 168t156 129t215 91t272.5 54t327.5 18h79.5h68.5h61v144q0 129 -28 220.5t-87.5 150t-153 85.5t-223.5 27
q-104 0 -200.5 -14.5t-182 -37t-157.5 -50.5t-127 -54v291q64 35 143.5 67t169.5 56t189.5 38.5t205.5 14.5q181 0 330.5 -38t256.5 -124.5t165.5 -227.5t58.5 -347v-1413h-327zM1528 946h-156q-209 0 -357 -24.5t-242.5 -73.5t-138.5 -123t-44 -172q0 -74 24.5 -130.5
t73 -95t121.5 -58t170 -19.5q78 0 150 10t139.5 31t132 52.5t127.5 74.5v528zM545 2503v311h1106v-311h-1106z" />
    <glyph glyph-name="Abreve" unicode="&#x102;" horiz-adv-x="2671" 
d="M2191 0l-254 758h-1224l-254 -758h-381l1052 2966h402l1061 -2966h-402zM1430 2269q-31 87 -59 183.5t-44 201.5q-18 -105 -48.5 -201.5t-57.5 -183.5l-402 -1188h1008zM1941 3736q-3 -133 -47.5 -241.5t-123.5 -186t-189.5 -120t-245.5 -42.5q-137 0 -247.5 42.5
t-189.5 120t-122.5 186t-46.5 241.5h274q8 -74 35 -131t70 -96t100.5 -59.5t126.5 -20.5q67 0 124.5 20.5t101 59.5t71 96t35.5 131h274z" />
    <glyph glyph-name="abreve" unicode="&#x103;" horiz-adv-x="2232" 
d="M1561 0l-25 168q-63 -49 -134 -89t-150 -68.5t-166.5 -44t-184.5 -15.5q-153 0 -278.5 41.5t-215 118.5t-138 187t-48.5 247q0 113 32 207t95 168t156 129t215 91t272.5 54t327.5 18h79.5h68.5h61v144q0 129 -28 220.5t-87.5 150t-153 85.5t-223.5 27
q-104 0 -200.5 -14.5t-182 -37t-157.5 -50.5t-127 -54v291q64 35 143.5 67t169.5 56t189.5 38.5t205.5 14.5q181 0 330.5 -38t256.5 -124.5t165.5 -227.5t58.5 -347v-1413h-327zM1528 946h-156q-209 0 -357 -24.5t-242.5 -73.5t-138.5 -123t-44 -172q0 -74 24.5 -130.5
t73 -95t121.5 -58t170 -19.5q78 0 150 10t139.5 31t132 52.5t127.5 74.5v528zM1704 2982q-3 -133 -47.5 -241.5t-123.5 -186t-189.5 -120t-245.5 -42.5q-137 0 -247.5 42.5t-189.5 120t-122.5 186t-46.5 241.5h274q8 -74 35 -131t70 -96t100.5 -59.5t126.5 -20.5
q67 0 124.5 20.5t101 59.5t71 96t35.5 131h274z" />
    <glyph glyph-name="Aogonek" unicode="&#x104;" horiz-adv-x="2671" 
d="M2576 -811q-49 -12 -105.5 -18.5t-115.5 -6.5q-126 0 -215.5 32t-146 83.5t-83 118t-26.5 135.5q0 74 24.5 139t66 122.5t97.5 108.5t119 97l-254 758h-1224l-254 -758h-381l1052 2966h402l1061 -2966h-156q-55 -55 -101 -107.5t-79 -103t-51.5 -99t-18.5 -96.5
q0 -101 64 -150.5t178 -49.5q23 0 43 1.5t38 3.5t34.5 5t31.5 6v-221zM1430 2269q-31 87 -59 183.5t-44 201.5q-18 -105 -48.5 -201.5t-57.5 -183.5l-402 -1188h1008z" />
    <glyph glyph-name="aogonek" unicode="&#x105;" horiz-adv-x="2232" 
d="M1946 -811q-50 -12 -106.5 -18.5t-115.5 -6.5q-126 0 -215 32t-146 83.5t-83.5 118t-26.5 135.5q0 74 24.5 139t66.5 122.5t98 108.5t119 97l-25 168q-63 -49 -134 -89t-150 -68.5t-166.5 -44t-184.5 -15.5q-153 0 -278.5 41.5t-215 118.5t-138 187t-48.5 247
q0 113 32 207t95 168t156 129t215 91t272.5 54t327.5 18h79.5h68.5h61v144q0 129 -28 220.5t-87.5 150t-153 85.5t-223.5 27q-104 0 -200.5 -14.5t-182 -37t-157.5 -50.5t-127 -54v291q64 35 143.5 67t169.5 56t189.5 38.5t205.5 14.5q181 0 330.5 -38t256.5 -124.5
t165.5 -227.5t58.5 -347v-1413h-82q-55 -55 -101 -107.5t-79 -103t-51.5 -99t-18.5 -96.5q0 -101 64.5 -150.5t177.5 -49.5q23 0 43.5 1.5t38.5 3.5t34.5 5t31.5 6v-221zM1528 946h-156q-209 0 -357 -24.5t-242.5 -73.5t-138.5 -123t-44 -172q0 -74 24.5 -130.5t73 -95
t121.5 -58t170 -19.5q78 0 150 10t139.5 31t132 52.5t127.5 74.5v528z" />
    <glyph glyph-name="Cacute" unicode="&#x106;" horiz-adv-x="2454" 
d="M2265 98q-77 -35 -159.5 -62.5t-180 -46.5t-213 -28.5t-258.5 -9.5q-191 0 -353.5 44t-296 130.5t-236 215.5t-172.5 299.5t-106 382.5t-36 464q0 226 32.5 427.5t98.5 371t166 305t235 229.5t304.5 144.5t375.5 50.5q115 0 225.5 -11.5t209.5 -32.5t183.5 -51.5
t147.5 -68.5v-328q-65 34 -148 62.5t-179 49.5t-203 32.5t-219 11.5q-147 0 -267 -36.5t-214 -107t-162.5 -173t-113 -235t-66 -293.5t-21.5 -347q0 -209 27.5 -380t80 -305t128.5 -232.5t172.5 -163t212 -96t247.5 -31.5q120 0 223.5 9t195.5 26.5t175.5 43.5t163.5 60
v-320zM1299 3162l393 574h475l-545 -574h-323z" />
    <glyph glyph-name="cacute" unicode="&#x107;" horiz-adv-x="1942" 
d="M1757 98q-48 -29 -114 -56t-145 -47t-168 -32t-183 -12q-220 0 -389.5 72t-285 214t-175 351.5t-59.5 484.5q0 159 26 300.5t78 261t129.5 215t181 162.5t233 102.5t285.5 35.5q83 0 163 -8t151 -23.5t132 -37.5t107 -49v-312q-48 23 -109 44t-131.5 36.5t-148.5 25
t-159 9.5q-144 0 -250.5 -52.5t-176.5 -150.5t-104.5 -239.5t-34.5 -319.5q0 -206 37.5 -357t109 -250t175 -147.5t235.5 -48.5q108 0 194 11.5t156.5 29.5t129 40.5t110.5 45.5v-299zM955 2408l393 574h475l-545 -574h-323z" />
    <glyph glyph-name="Ccircumflex" unicode="&#x108;" horiz-adv-x="2454" 
d="M2265 98q-77 -35 -159.5 -62.5t-180 -46.5t-213 -28.5t-258.5 -9.5q-191 0 -353.5 44t-296 130.5t-236 215.5t-172.5 299.5t-106 382.5t-36 464q0 226 32.5 427.5t98.5 371t166 305t235 229.5t304.5 144.5t375.5 50.5q115 0 225.5 -11.5t209.5 -32.5t183.5 -51.5
t147.5 -68.5v-328q-65 34 -148 62.5t-179 49.5t-203 32.5t-219 11.5q-147 0 -267 -36.5t-214 -107t-162.5 -173t-113 -235t-66 -293.5t-21.5 -347q0 -209 27.5 -380t80 -305t128.5 -232.5t172.5 -163t212 -96t247.5 -31.5q120 0 223.5 9t195.5 26.5t175.5 43.5t163.5 60
v-320zM1754 3162l-281 329l-281 -329h-327l393 574h430l393 -574h-327z" />
    <glyph glyph-name="ccircumflex" unicode="&#x109;" horiz-adv-x="1942" 
d="M1757 98q-48 -29 -114 -56t-145 -47t-168 -32t-183 -12q-220 0 -389.5 72t-285 214t-175 351.5t-59.5 484.5q0 159 26 300.5t78 261t129.5 215t181 162.5t233 102.5t285.5 35.5q83 0 163 -8t151 -23.5t132 -37.5t107 -49v-312q-48 23 -109 44t-131.5 36.5t-148.5 25
t-159 9.5q-144 0 -250.5 -52.5t-176.5 -150.5t-104.5 -239.5t-34.5 -319.5q0 -206 37.5 -357t109 -250t175 -147.5t235.5 -48.5q108 0 194 11.5t156.5 29.5t129 40.5t110.5 45.5v-299zM1409 2408l-281 329l-281 -329h-327l393 574h430l393 -574h-327z" />
    <glyph glyph-name="Cdotaccent" unicode="&#x10a;" horiz-adv-x="2454" 
d="M2265 98q-77 -35 -159.5 -62.5t-180 -46.5t-213 -28.5t-258.5 -9.5q-191 0 -353.5 44t-296 130.5t-236 215.5t-172.5 299.5t-106 382.5t-36 464q0 226 32.5 427.5t98.5 371t166 305t235 229.5t304.5 144.5t375.5 50.5q115 0 225.5 -11.5t209.5 -32.5t183.5 -51.5
t147.5 -68.5v-328q-65 34 -148 62.5t-179 49.5t-203 32.5t-219 11.5q-147 0 -267 -36.5t-214 -107t-162.5 -173t-113 -235t-66 -293.5t-21.5 -347q0 -209 27.5 -380t80 -305t128.5 -232.5t172.5 -163t212 -96t247.5 -31.5q120 0 223.5 9t195.5 26.5t175.5 43.5t163.5 60
v-320zM1246 3257v446h454v-446h-454z" />
    <glyph glyph-name="cdotaccent" unicode="&#x10b;" horiz-adv-x="1942" 
d="M1757 98q-48 -29 -114 -56t-145 -47t-168 -32t-183 -12q-220 0 -389.5 72t-285 214t-175 351.5t-59.5 484.5q0 159 26 300.5t78 261t129.5 215t181 162.5t233 102.5t285.5 35.5q83 0 163 -8t151 -23.5t132 -37.5t107 -49v-312q-48 23 -109 44t-131.5 36.5t-148.5 25
t-159 9.5q-144 0 -250.5 -52.5t-176.5 -150.5t-104.5 -239.5t-34.5 -319.5q0 -206 37.5 -357t109 -250t175 -147.5t235.5 -48.5q108 0 194 11.5t156.5 29.5t129 40.5t110.5 45.5v-299zM901 2503v446h454v-446h-454z" />
    <glyph glyph-name="Ccaron" unicode="&#x10c;" horiz-adv-x="2454" 
d="M2265 98q-77 -35 -159.5 -62.5t-180 -46.5t-213 -28.5t-258.5 -9.5q-191 0 -353.5 44t-296 130.5t-236 215.5t-172.5 299.5t-106 382.5t-36 464q0 226 32.5 427.5t98.5 371t166 305t235 229.5t304.5 144.5t375.5 50.5q115 0 225.5 -11.5t209.5 -32.5t183.5 -51.5
t147.5 -68.5v-328q-65 34 -148 62.5t-179 49.5t-203 32.5t-219 11.5q-147 0 -267 -36.5t-214 -107t-162.5 -173t-113 -235t-66 -293.5t-21.5 -347q0 -209 27.5 -380t80 -305t128.5 -232.5t172.5 -163t212 -96t247.5 -31.5q120 0 223.5 9t195.5 26.5t175.5 43.5t163.5 60
v-320zM1258 3162l-393 574h327l281 -329l281 329h327l-393 -574h-430z" />
    <glyph glyph-name="ccaron" unicode="&#x10d;" horiz-adv-x="1942" 
d="M1757 98q-48 -29 -114 -56t-145 -47t-168 -32t-183 -12q-220 0 -389.5 72t-285 214t-175 351.5t-59.5 484.5q0 159 26 300.5t78 261t129.5 215t181 162.5t233 102.5t285.5 35.5q83 0 163 -8t151 -23.5t132 -37.5t107 -49v-312q-48 23 -109 44t-131.5 36.5t-148.5 25
t-159 9.5q-144 0 -250.5 -52.5t-176.5 -150.5t-104.5 -239.5t-34.5 -319.5q0 -206 37.5 -357t109 -250t175 -147.5t235.5 -48.5q108 0 194 11.5t156.5 29.5t129 40.5t110.5 45.5v-299zM913 2408l-393 574h327l281 -329l281 329h327l-393 -574h-430z" />
    <glyph glyph-name="Dcaron" unicode="&#x10e;" horiz-adv-x="2867" 
d="M414 0v2966h909q243 0 431.5 -51t330 -145t239.5 -227t158.5 -297.5t87.5 -356t27 -402.5q0 -212 -27.5 -404.5t-89.5 -358t-162.5 -299t-245 -228t-337.5 -146t-441 -51.5h-880zM1266 303q169 0 304.5 34.5t240 102t180 167.5t123.5 230.5t71 291t23 350.5t-22 352
t-69.5 293.5t-121.5 232t-179 168.5t-241.5 102.5t-308.5 34.5h-475v-2359h475zM1147 3162l-393 574h327l281 -329l281 329h327l-393 -574h-430z" />
    <glyph glyph-name="dcaron" unicode="&#x10f;" horiz-adv-x="2470" 
d="M1769 0l-32 180q-63 -52 -134.5 -94.5t-152 -72.5t-169.5 -46t-187 -16q-204 0 -363.5 66.5t-269 200.5t-166.5 336t-57 474q0 278 65.5 488t184.5 351t287 212t372 71q91 0 171 -12t152 -35t136 -56.5t123 -76.5v1135h360v-3105h-320zM1729 1683q-62 40 -125 69
t-130 47.5t-138 27t-148 8.5q-143 0 -251 -51t-181 -150.5t-109.5 -247.5t-36.5 -342q0 -192 34 -340t104 -249t175 -153t248 -52q80 0 153 10t141 31t133.5 52.5t130.5 74.5v1265zM2294 2253l123 438l-103 414h242q51 0 95 -15t76.5 -43.5t51.5 -69.5t19 -93
q0 -59 -12 -110t-33 -101.5t-50.5 -105t-64.5 -118.5l-106 -196h-238z" />
    <glyph glyph-name="Dcroat" unicode="&#x110;" horiz-adv-x="2908" 
d="M455 0v1323h-279v295h279v1348h909q243 0 431.5 -51t330 -145t239.5 -227t158.5 -297.5t87.5 -356t27 -402.5q0 -212 -27.5 -404.5t-89.5 -358t-162.5 -299t-245 -228t-337.5 -146t-441 -51.5h-880zM1307 303q169 0 304.5 34.5t240 102t179.5 167.5t123.5 230.5t71.5 291
t23 350.5t-22 352t-69.5 293.5t-121.5 232t-179 168.5t-241.5 102.5t-308.5 34.5h-476v-1044h664v-295h-664v-1020h476z" />
    <glyph glyph-name="dcroat" unicode="&#x111;" horiz-adv-x="2470" 
d="M1769 0l-32 180q-63 -52 -134.5 -94.5t-152 -72.5t-169.5 -46t-187 -16q-204 0 -363.5 66.5t-269 200.5t-166.5 336t-57 474q0 278 65.5 488t184.5 351t287 212t372 71q91 0 171 -12t152 -35t136 -56.5t123 -76.5v508h-328v287h328v340h360v-340h246v-287h-246v-2478
h-320zM1729 1683q-62 40 -125 69t-130 47.5t-138 27t-148 8.5q-143 0 -251 -51t-181 -150.5t-109.5 -247.5t-36.5 -342q0 -192 34 -340t104 -249t175 -153t248 -52q80 0 153 10t141 31t133.5 52.5t130.5 74.5v1265z" />
    <glyph glyph-name="Emacron" unicode="&#x112;" horiz-adv-x="2380" 
d="M414 0v2966h1781v-312h-1404v-983h1200v-311h-1200v-1049h1404v-311h-1781zM741 3257v311h1106v-311h-1106z" />
    <glyph glyph-name="emacron" unicode="&#x113;" horiz-adv-x="2236" 
d="M1901 102q-62 -32 -136.5 -60t-164 -48t-194.5 -31.5t-226 -11.5q-157 0 -287.5 34t-235.5 99.5t-183.5 161t-131 219.5t-78.5 274.5t-26 325.5q0 156 23.5 297t71.5 261.5t121 218t171 166t222 105.5t275 37q148 0 271.5 -35.5t222 -100.5t172 -156.5t122 -203.5
t73 -242.5t24.5 -272.5q0 -20 -0.5 -41.5t-2 -41.5t-3 -37t-2.5 -28h-1397q6 -175 45 -309.5t115 -226t190 -138.5t269 -47q117 0 215.5 12t182.5 30.5t153.5 42t128.5 46.5v-299zM1638 1270q-6 133 -43 242t-102.5 186.5t-159 119.5t-211.5 42t-211 -42t-159 -119.5
t-104 -186.5t-46 -242h1036zM586 2503v311h1106v-311h-1106z" />
    <glyph glyph-name="Ebreve" unicode="&#x114;" horiz-adv-x="2380" 
d="M414 0v2966h1781v-312h-1404v-983h1200v-311h-1200v-1049h1404v-311h-1781zM1900 3736q-3 -133 -47.5 -241.5t-123.5 -186t-189.5 -120t-245.5 -42.5q-137 0 -247.5 42.5t-189.5 120t-122.5 186t-46.5 241.5h274q8 -74 35 -131t70 -96t100.5 -59.5t126.5 -20.5
q67 0 124.5 20.5t101 59.5t71 96t35.5 131h274z" />
    <glyph glyph-name="ebreve" unicode="&#x115;" horiz-adv-x="2236" 
d="M1901 102q-62 -32 -136.5 -60t-164 -48t-194.5 -31.5t-226 -11.5q-157 0 -287.5 34t-235.5 99.5t-183.5 161t-131 219.5t-78.5 274.5t-26 325.5q0 156 23.5 297t71.5 261.5t121 218t171 166t222 105.5t275 37q148 0 271.5 -35.5t222 -100.5t172 -156.5t122 -203.5
t73 -242.5t24.5 -272.5q0 -20 -0.5 -41.5t-2 -41.5t-3 -37t-2.5 -28h-1397q6 -175 45 -309.5t115 -226t190 -138.5t269 -47q117 0 215.5 12t182.5 30.5t153.5 42t128.5 46.5v-299zM1638 1270q-6 133 -43 242t-102.5 186.5t-159 119.5t-211.5 42t-211 -42t-159 -119.5
t-104 -186.5t-46 -242h1036zM1745 2982q-3 -133 -47.5 -241.5t-123.5 -186t-189.5 -120t-245.5 -42.5q-137 0 -247.5 42.5t-189.5 120t-122.5 186t-46.5 241.5h274q8 -74 35 -131t70 -96t100.5 -59.5t126.5 -20.5q67 0 124.5 20.5t101 59.5t71 96t35.5 131h274z" />
    <glyph glyph-name="Edotaccent" unicode="&#x116;" horiz-adv-x="2380" 
d="M414 0v2966h1781v-312h-1404v-983h1200v-311h-1200v-1049h1404v-311h-1781zM1065 3257v446h454v-446h-454z" />
    <glyph glyph-name="edotaccent" unicode="&#x117;" horiz-adv-x="2236" 
d="M1901 102q-62 -32 -136.5 -60t-164 -48t-194.5 -31.5t-226 -11.5q-157 0 -287.5 34t-235.5 99.5t-183.5 161t-131 219.5t-78.5 274.5t-26 325.5q0 156 23.5 297t71.5 261.5t121 218t171 166t222 105.5t275 37q148 0 271.5 -35.5t222 -100.5t172 -156.5t122 -203.5
t73 -242.5t24.5 -272.5q0 -20 -0.5 -41.5t-2 -41.5t-3 -37t-2.5 -28h-1397q6 -175 45 -309.5t115 -226t190 -138.5t269 -47q117 0 215.5 12t182.5 30.5t153.5 42t128.5 46.5v-299zM1638 1270q-6 133 -43 242t-102.5 186.5t-159 119.5t-211.5 42t-211 -42t-159 -119.5
t-104 -186.5t-46 -242h1036zM910 2503v446h454v-446h-454z" />
    <glyph glyph-name="Eogonek" unicode="&#x118;" horiz-adv-x="2380" 
d="M2204 -811q-50 -12 -106.5 -18.5t-115.5 -6.5q-126 0 -215 32t-146 83.5t-83.5 118t-26.5 135.5q0 74 24.5 139t66.5 122.5t98 108.5t119 97h-1405v2966h1781v-312h-1404v-983h1200v-311h-1200v-1049h1404v-311h-131q-55 -55 -101 -107.5t-79 -103t-51 -99t-18 -96.5
q0 -101 64 -150.5t177 -49.5q23 0 43.5 1.5t38.5 3.5t34.5 5t31.5 6v-221z" />
    <glyph glyph-name="eogonek" unicode="&#x119;" horiz-adv-x="2236" 
d="M1901 -811q-49 -12 -105.5 -18.5t-115.5 -6.5q-126 0 -215.5 32t-146 83.5t-83 118t-26.5 135.5q0 70 22.5 131.5t60.5 115.5t89.5 102.5t110.5 92.5q-71 -12 -148 -18t-163 -6q-157 0 -287.5 34t-235.5 99.5t-183.5 161t-131 219.5t-79 274.5t-26.5 325.5
q0 156 23.5 297t72 261.5t121.5 218t171 166t222 105.5t275 37q148 0 271.5 -35.5t222 -100.5t172 -156.5t122 -203.5t73 -242.5t24.5 -272.5q0 -20 -0.5 -41.5t-2 -41.5t-3 -37t-2.5 -28h-1397q6 -175 45 -309.5t115 -226t189.5 -138.5t268.5 -47q117 0 216 12t183 30.5
t153.5 42t127.5 46.5v-299q-90 -68 -162.5 -135t-122.5 -131.5t-77 -125.5t-27 -116q0 -101 64 -150.5t178 -49.5q23 0 43 1.5t38 3.5t34.5 5t31.5 6v-221zM1639 1270q-6 133 -43 242t-102.5 186.5t-159 119.5t-211.5 42t-211.5 -42t-159.5 -119.5t-104 -186.5t-45 -242
h1036z" />
    <glyph glyph-name="Ecaron" unicode="&#x11a;" horiz-adv-x="2380" 
d="M414 0v2966h1781v-312h-1404v-983h1200v-311h-1200v-1049h1404v-311h-1781zM1077 3162l-393 574h327l281 -329l281 329h327l-393 -574h-430z" />
    <glyph glyph-name="ecaron" unicode="&#x11b;" horiz-adv-x="2236" 
d="M1901 102q-62 -32 -136.5 -60t-164 -48t-194.5 -31.5t-226 -11.5q-157 0 -287.5 34t-235.5 99.5t-183.5 161t-131 219.5t-78.5 274.5t-26 325.5q0 156 23.5 297t71.5 261.5t121 218t171 166t222 105.5t275 37q148 0 271.5 -35.5t222 -100.5t172 -156.5t122 -203.5
t73 -242.5t24.5 -272.5q0 -20 -0.5 -41.5t-2 -41.5t-3 -37t-2.5 -28h-1397q6 -175 45 -309.5t115 -226t190 -138.5t269 -47q117 0 215.5 12t182.5 30.5t153.5 42t128.5 46.5v-299zM1638 1270q-6 133 -43 242t-102.5 186.5t-159 119.5t-211.5 42t-211 -42t-159 -119.5
t-104 -186.5t-46 -242h1036zM922 2408l-393 574h327l281 -329l281 329h327l-393 -574h-430z" />
    <glyph glyph-name="Gcircumflex" unicode="&#x11c;" horiz-adv-x="2839" 
d="M2191 1417h377v-1278q-62 -31 -131.5 -57t-145.5 -46.5t-159.5 -36.5t-175 -26.5t-191.5 -16t-209 -5.5q-310 0 -552.5 93.5t-409 285t-253.5 482t-87 683.5q0 242 39.5 448.5t116.5 375.5t191.5 299t265.5 218t337 133.5t406 45.5q77 0 152.5 -5t147.5 -15t139 -24
t127.5 -32t113 -40.5t94.5 -47.5v-328q-65 34 -148.5 62.5t-181 49.5t-206 32.5t-222.5 11.5q-243 0 -427.5 -71.5t-309 -218t-187.5 -369t-63 -525.5q0 -219 31 -394.5t89.5 -310.5t142 -232t189 -159t230 -91t264.5 -29q88 0 170 4.5t158 14t145.5 24t132.5 34.5v1061z
M1848 3162l-281 329l-281 -329h-327l393 574h430l393 -574h-327z" />
    <glyph glyph-name="gcircumflex" unicode="&#x11d;" horiz-adv-x="2470" 
d="M1729 176q-63 -52 -134.5 -93.5t-151.5 -71t-168 -45t-185 -15.5q-204 0 -363 66.5t-267.5 200.5t-165 336t-56.5 474q0 278 65.5 488t184.5 351t287 212t372 71q94 0 177 -12.5t157 -37t139.5 -60.5t124.5 -82l24 143h320v-2089q0 -241 -67 -426.5t-195.5 -312
t-315 -191.5t-426.5 -65q-104 0 -200.5 9t-183.5 25.5t-164.5 40t-143.5 52.5v315q58 -23 128 -45.5t151.5 -40.5t174.5 -28.5t197 -8.5q190 2 321 42.5t212 125.5t116.5 216.5t35.5 316.5v139zM1729 1683q-62 40 -125 69t-130 47.5t-138 27t-148 8.5q-143 0 -251 -51
t-181 -150.5t-109.5 -247.5t-36.5 -342q0 -192 34 -340t104 -249t175 -153t248 -52q80 0 153 10t141 31t133.5 52.5t130.5 74.5v1265zM1471 2408l-281 329l-281 -329h-327l393 574h430l393 -574h-327z" />
    <glyph glyph-name="Gbreve" unicode="&#x11e;" horiz-adv-x="2839" 
d="M2191 1417h377v-1278q-62 -31 -131.5 -57t-145.5 -46.5t-159.5 -36.5t-175 -26.5t-191.5 -16t-209 -5.5q-310 0 -552.5 93.5t-409 285t-253.5 482t-87 683.5q0 242 39.5 448.5t116.5 375.5t191.5 299t265.5 218t337 133.5t406 45.5q77 0 152.5 -5t147.5 -15t139 -24
t127.5 -32t113 -40.5t94.5 -47.5v-328q-65 34 -148.5 62.5t-181 49.5t-206 32.5t-222.5 11.5q-243 0 -427.5 -71.5t-309 -218t-187.5 -369t-63 -525.5q0 -219 31 -394.5t89.5 -310.5t142 -232t189 -159t230 -91t264.5 -29q88 0 170 4.5t158 14t145.5 24t132.5 34.5v1061z
M2175 3736q-3 -133 -47.5 -241.5t-123.5 -186t-189.5 -120t-245.5 -42.5q-137 0 -247.5 42.5t-189.5 120t-122.5 186t-46.5 241.5h274q8 -74 35 -131t70 -96t100.5 -59.5t126.5 -20.5q67 0 124.5 20.5t101 59.5t71 96t35.5 131h274z" />
    <glyph glyph-name="gbreve" unicode="&#x11f;" horiz-adv-x="2470" 
d="M1729 176q-63 -52 -134.5 -93.5t-151.5 -71t-168 -45t-185 -15.5q-204 0 -363 66.5t-267.5 200.5t-165 336t-56.5 474q0 278 65.5 488t184.5 351t287 212t372 71q94 0 177 -12.5t157 -37t139.5 -60.5t124.5 -82l24 143h320v-2089q0 -241 -67 -426.5t-195.5 -312
t-315 -191.5t-426.5 -65q-104 0 -200.5 9t-183.5 25.5t-164.5 40t-143.5 52.5v315q58 -23 128 -45.5t151.5 -40.5t174.5 -28.5t197 -8.5q190 2 321 42.5t212 125.5t116.5 216.5t35.5 316.5v139zM1729 1683q-62 40 -125 69t-130 47.5t-138 27t-148 8.5q-143 0 -251 -51
t-181 -150.5t-109.5 -247.5t-36.5 -342q0 -192 34 -340t104 -249t175 -153t248 -52q80 0 153 10t141 31t133.5 52.5t130.5 74.5v1265zM1798 2982q-3 -133 -47.5 -241.5t-123.5 -186t-189.5 -120t-245.5 -42.5q-137 0 -247.5 42.5t-189.5 120t-122.5 186t-46.5 241.5h274
q8 -74 35 -131t70 -96t100.5 -59.5t126.5 -20.5q67 0 124.5 20.5t101 59.5t71 96t35.5 131h274z" />
    <glyph glyph-name="Gdotaccent" unicode="&#x120;" horiz-adv-x="2839" 
d="M2191 1417h377v-1278q-62 -31 -131.5 -57t-145.5 -46.5t-159.5 -36.5t-175 -26.5t-191.5 -16t-209 -5.5q-310 0 -552.5 93.5t-409 285t-253.5 482t-87 683.5q0 242 39.5 448.5t116.5 375.5t191.5 299t265.5 218t337 133.5t406 45.5q77 0 152.5 -5t147.5 -15t139 -24
t127.5 -32t113 -40.5t94.5 -47.5v-328q-65 34 -148.5 62.5t-181 49.5t-206 32.5t-222.5 11.5q-243 0 -427.5 -71.5t-309 -218t-187.5 -369t-63 -525.5q0 -219 31 -394.5t89.5 -310.5t142 -232t189 -159t230 -91t264.5 -29q88 0 170 4.5t158 14t145.5 24t132.5 34.5v1061z
M1340 3257v446h454v-446h-454z" />
    <glyph glyph-name="gdotaccent" unicode="&#x121;" horiz-adv-x="2470" 
d="M1729 176q-63 -52 -134.5 -93.5t-151.5 -71t-168 -45t-185 -15.5q-204 0 -363 66.5t-267.5 200.5t-165 336t-56.5 474q0 278 65.5 488t184.5 351t287 212t372 71q94 0 177 -12.5t157 -37t139.5 -60.5t124.5 -82l24 143h320v-2089q0 -241 -67 -426.5t-195.5 -312
t-315 -191.5t-426.5 -65q-104 0 -200.5 9t-183.5 25.5t-164.5 40t-143.5 52.5v315q58 -23 128 -45.5t151.5 -40.5t174.5 -28.5t197 -8.5q190 2 321 42.5t212 125.5t116.5 216.5t35.5 316.5v139zM1729 1683q-62 40 -125 69t-130 47.5t-138 27t-148 8.5q-143 0 -251 -51
t-181 -150.5t-109.5 -247.5t-36.5 -342q0 -192 34 -340t104 -249t175 -153t248 -52q80 0 153 10t141 31t133.5 52.5t130.5 74.5v1265zM963 2503v446h454v-446h-454z" />
    <glyph glyph-name="Gcommaaccent" unicode="&#x122;" horiz-adv-x="2839" 
d="M2191 1417h377v-1278q-62 -31 -131.5 -57t-145.5 -46.5t-159.5 -36.5t-175 -26.5t-191.5 -16t-209 -5.5q-310 0 -552.5 93.5t-409 285t-253.5 482t-87 683.5q0 242 39.5 448.5t116.5 375.5t191.5 299t265.5 218t337 133.5t406 45.5q77 0 152.5 -5t147.5 -15t139 -24
t127.5 -32t113 -40.5t94.5 -47.5v-328q-65 34 -148.5 62.5t-181 49.5t-206 32.5t-222.5 11.5q-243 0 -427.5 -71.5t-309 -218t-187.5 -369t-63 -525.5q0 -219 31 -394.5t89.5 -310.5t142 -232t189 -159t230 -91t264.5 -29q88 0 170 4.5t158 14t145.5 24t132.5 34.5v1061z
M1319 -954l-148 143l275 291l-66 348h221q55 0 95 -14.5t65 -41t37 -63.5t12 -82q0 -75 -28.5 -142.5t-75.5 -127.5t-108.5 -112t-127.5 -97z" />
    <glyph glyph-name="gcommaaccent" unicode="&#x123;" horiz-adv-x="2470" 
d="M1729 176q-63 -52 -134.5 -93.5t-151.5 -71t-168 -45t-185 -15.5q-204 0 -363 66.5t-267.5 200.5t-165 336t-56.5 474q0 278 65.5 488t184.5 351t287 212t372 71q94 0 177 -12.5t157 -37t139.5 -60.5t124.5 -82l24 143h320v-2089q0 -241 -67 -426.5t-195.5 -312
t-315 -191.5t-426.5 -65q-104 0 -200.5 9t-183.5 25.5t-164.5 40t-143.5 52.5v315q58 -23 128 -45.5t151.5 -40.5t174.5 -28.5t197 -8.5q190 2 321 42.5t212 125.5t116.5 216.5t35.5 316.5v139zM1729 1683q-62 40 -125 69t-130 47.5t-138 27t-148 8.5q-143 0 -251 -51
t-181 -150.5t-109.5 -247.5t-36.5 -342q0 -192 34 -340t104 -249t175 -153t248 -52q80 0 153 10t141 31t133.5 52.5t130.5 74.5v1265zM1155 2408q-55 0 -94.5 14.5t-65 41t-37.5 63.5t-12 82q0 75 28.5 143t75.5 128t108.5 112t127.5 96l152 103l147 -144l-274 -290l65 -349
h-221z" />
    <glyph glyph-name="Hcircumflex" unicode="&#x124;" horiz-adv-x="2982" 
d="M2191 0v1368h-1400v-1368h-377v2966h377v-1287h1400v1287h377v-2966h-377zM1749 3162l-281 329l-281 -329h-327l393 574h430l393 -574h-327z" />
    <glyph glyph-name="hcircumflex" unicode="&#x125;" horiz-adv-x="2470" 
d="M1765 0v1413q0 115 -28.5 196.5t-84 133.5t-137.5 76t-188 24q-84 0 -161 -11.5t-148.5 -35.5t-140 -60t-136.5 -85v-1651h-360v3105h360v-1192q63 54 135.5 97.5t154 74.5t173 48t193.5 17q120 0 220.5 -19.5t181.5 -57.5t142 -95t102.5 -133t62 -169.5t20.5 -205.5
v-1470h-361zM841 3228l-281 329l-281 -329h-327l393 574h430l393 -574h-327z" />
    <glyph glyph-name="Hbar" unicode="&#x126;" horiz-adv-x="3047" 
d="M2224 0v1368h-1401v-1368h-377v2142h-262v295h262v529h377v-529h1401v529h377v-529h262v-295h-262v-2142h-377zM2224 2142h-1401v-463h1401v463z" />
    <glyph glyph-name="hbar" unicode="&#x127;" horiz-adv-x="2470" 
d="M1765 0v1413q0 115 -28.5 196.5t-84 133.5t-137.5 76t-188 24q-84 0 -161 -11.5t-148.5 -35.5t-140 -60t-136.5 -85v-1651h-360v2478h-246v287h246v340h360v-340h328v-287h-328v-565q63 54 135.5 97.5t154 74.5t173 48t193.5 17q120 0 220.5 -19.5t181.5 -57.5t142 -95
t102.5 -133t62 -169.5t20.5 -205.5v-1470h-361z" />
    <glyph glyph-name="Itilde" unicode="&#x128;" horiz-adv-x="1671" 
d="M270 0v291h377v2384h-377v291h1131v-291h-377v-2384h377v-291h-1131zM1557 3683q0 -117 -32 -210.5t-88.5 -158.5t-133.5 -100t-168 -35q-57 0 -108 15t-96.5 38t-87 49.5t-80 49.5t-74 38t-70.5 15q-48 0 -80 -16.5t-53 -44t-32 -63t-15 -73.5h-250q0 117 30.5 210
t86 158.5t132.5 100.5t169 35q56 0 107 -15t97 -38t88 -49.5t81 -49.5t75.5 -38t71.5 -15q48 0 80 16.5t53 43.5t31.5 62.5t15.5 74.5h250z" />
    <glyph glyph-name="itilde" unicode="&#x129;" horiz-adv-x="1122" 
d="M381 0v2101h360v-2101h-360zM1283 2929q0 -117 -32 -210.5t-88.5 -158.5t-133.5 -100t-168 -35q-57 0 -108 15t-96.5 38t-87 49.5t-80 49.5t-74 38t-70.5 15q-48 0 -80 -16.5t-53 -44t-32 -63t-15 -73.5h-250q0 117 30.5 210t86 158.5t132.5 100.5t169 35q56 0 107 -15
t97 -38t88 -49.5t81 -49.5t75.5 -38t71.5 -15q48 0 80 16.5t53 43.5t31.5 62.5t15.5 74.5h250z" />
    <glyph glyph-name="Imacron" unicode="&#x12a;" horiz-adv-x="1671" 
d="M270 0v291h377v2384h-377v291h1131v-291h-377v-2384h377v-291h-1131zM284 3257v311h1106v-311h-1106z" />
    <glyph glyph-name="imacron" unicode="&#x12b;" horiz-adv-x="1122" 
d="M381 0v2101h360v-2101h-360zM9 2503v311h1106v-311h-1106z" />
    <glyph glyph-name="Ibreve" unicode="&#x12c;" horiz-adv-x="1671" 
d="M270 0v291h377v2384h-377v291h1131v-291h-377v-2384h377v-291h-1131zM1443 3736q-3 -133 -47.5 -241.5t-123.5 -186t-189.5 -120t-245.5 -42.5q-137 0 -247.5 42.5t-189.5 120t-122.5 186t-46.5 241.5h274q8 -74 35 -131t70 -96t100.5 -59.5t126.5 -20.5q67 0 124.5 20.5
t101 59.5t71 96t35.5 131h274z" />
    <glyph glyph-name="ibreve" unicode="&#x12d;" horiz-adv-x="1122" 
d="M381 0v2101h360v-2101h-360zM1168 2982q-3 -133 -47.5 -241.5t-123.5 -186t-189.5 -120t-245.5 -42.5q-137 0 -247.5 42.5t-189.5 120t-122.5 186t-46.5 241.5h274q8 -74 35 -131t70 -96t100.5 -59.5t126.5 -20.5q67 0 124.5 20.5t101 59.5t71 96t35.5 131h274z" />
    <glyph glyph-name="Iogonek" unicode="&#x12e;" horiz-adv-x="1671" 
d="M1163 -811q-49 -12 -105.5 -18.5t-115.5 -6.5q-126 0 -215.5 32t-146 83.5t-83 118t-26.5 135.5q0 74 24.5 139t66 122.5t97.5 108.5t119 97h-508v291h377v2384h-377v291h1131v-291h-377v-2384h377v-291h-377q-55 -55 -101 -107.5t-79 -103t-51.5 -99t-18.5 -96.5
q0 -101 64 -150.5t178 -49.5q23 0 43 1.5t38 3.5t34.5 5t31.5 6v-221z" />
    <glyph glyph-name="iogonek" unicode="&#x12f;" horiz-adv-x="1122" 
d="M823 -811q-49 -12 -105.5 -18.5t-115.5 -6.5q-126 0 -215.5 32t-146 83.5t-83 118t-26.5 135.5q0 74 24.5 139t66 122.5t97.5 108.5t119 97h-57v2101h360v-2101h-57q-55 -55 -101 -107.5t-79 -103t-51.5 -99t-18.5 -96.5q0 -101 64 -150.5t178 -49.5q23 0 43 1.5t38 3.5
t34.5 5t31.5 6v-221zM381 2540v426h360v-426h-360z" />
    <glyph glyph-name="Idotaccent" unicode="&#x130;" horiz-adv-x="1671" 
d="M270 0v291h377v2384h-377v291h1131v-291h-377v-2384h377v-291h-1131zM608 3257v446h454v-446h-454z" />
    <glyph glyph-name="dotlessi" unicode="&#x131;" horiz-adv-x="1122" 
d="M381 0v2101h360v-2101h-360z" />
    <glyph glyph-name="IJ" unicode="&#x132;" horiz-adv-x="3105" 
d="M270 0v291h377v2384h-377v291h1131v-291h-377v-2384h377v-291h-1131zM1655 -242q17 -3 34 -5.5t34.5 -4t36 -2t38.5 -0.5q120 0 215 36.5t161 116.5t101 208t35 311v2257h-414v291h791v-2589q0 -252 -65 -433.5t-180 -298t-273.5 -172t-345.5 -55.5q-23 0 -46 1.5
t-44.5 4.5t-41 6.5t-36.5 8.5v319z" />
    <glyph glyph-name="ij" unicode="&#x133;" horiz-adv-x="2245" 
d="M381 0v2101h360v-2101h-360zM381 2540v426h360v-426h-360zM897 -643q34 -6 63 -9t72 -3q117 0 205 41t147 126.5t89 217.5t30 315v2056h360v-2097q0 -251 -58 -432.5t-162 -299t-249.5 -174t-320.5 -56.5q-25 0 -50.5 1.5t-48.5 4t-43 6t-34 8.5v295zM1503 2540v426h360
v-426h-360z" />
    <glyph glyph-name="Jcircumflex" unicode="&#x134;" horiz-adv-x="1434" 
d="M-16 -242q17 -3 34 -5.5t34.5 -4t36 -2t38.5 -0.5q120 0 215 36.5t161 116.5t101 208t35 311v2257h-414v291h791v-2589q0 -252 -65 -433.5t-180 -298t-273.5 -172t-345.5 -55.5q-23 0 -46 1.5t-44.5 4.5t-41 6.5t-36.5 8.5v319zM1116 3162l-281 329l-281 -329h-327
l393 574h430l393 -574h-327z" />
    <glyph glyph-name="jcircumflex" unicode="&#x135;" horiz-adv-x="1163" 
d="M-205 -643q34 -6 63 -9t72 -3q117 0 205 41t147 126.5t89 217.5t30 315v2056h360v-2097q0 -251 -58 -432.5t-162 -299t-249.5 -174t-320.5 -56.5q-25 0 -50.5 1.5t-48.5 4t-43 6t-34 8.5v295zM862 2408l-281 329l-281 -329h-327l393 574h430l393 -574h-327z" />
    <glyph glyph-name="Kcommaaccent" unicode="&#x136;" horiz-adv-x="2601" 
d="M2060 0l-1269 1393v-1393h-377v2966h377v-1356l1241 1356h458l-1130 -1229q-83 -89 -142.5 -140t-111.5 -81q24 -14 50.5 -33t56.5 -44.5t64.5 -59t74.5 -76.5l1192 -1303h-484zM1110 -954l-148 143l275 291l-66 348h221q55 0 95 -14.5t65 -41t37 -63.5t12 -82
q0 -75 -28.5 -142.5t-75.5 -127.5t-108.5 -112t-127.5 -97z" />
    <glyph glyph-name="kcommaaccent" unicode="&#x137;" horiz-adv-x="2171" 
d="M1679 0l-938 954v-954h-360v3105h360v-1934l918 930h426l-852 -868q-31 -31 -58 -54.5t-51.5 -42t-47 -33t-44.5 -26.5q20 -9 40.5 -21t43.5 -29t50 -39.5t59 -53.5l913 -934h-459zM934 -954l-148 143l275 291l-66 348h221q55 0 95 -14.5t65 -41t37 -63.5t12 -82
q0 -75 -28.5 -142.5t-75.5 -127.5t-108.5 -112t-127.5 -97z" />
    <glyph glyph-name="Lacute" unicode="&#x139;" horiz-adv-x="2138" 
d="M414 0v2966h377v-2655h1228v-311h-1605zM427 3162l393 574h475l-545 -574h-323z" />
    <glyph glyph-name="lacute" unicode="&#x13a;" horiz-adv-x="1286" 
d="M1184 25q-34 -11 -73 -20t-82.5 -16t-90.5 -10.5t-98 -3.5q-106 0 -191 26.5t-144.5 85t-91.5 150t-32 222.5v2646h360v-2605q0 -53 9.5 -92t31 -65t58 -39t90.5 -13q62 0 127 6t127 18v-290zM386 3228l393 574h475l-545 -574h-323z" />
    <glyph glyph-name="Lcommaaccent" unicode="&#x13b;" horiz-adv-x="2138" 
d="M414 0v2966h377v-2655h1228v-311h-1605zM967 -954l-148 143l275 291l-66 348h221q55 0 95 -14.5t65 -41t37 -63.5t12 -82q0 -75 -28.5 -142.5t-75.5 -127.5t-108.5 -112t-127.5 -97z" />
    <glyph glyph-name="lcommaaccent" unicode="&#x13c;" horiz-adv-x="1286" 
d="M1184 25q-34 -11 -73 -20t-82.5 -16t-90.5 -10.5t-98 -3.5q-106 0 -191 26.5t-144.5 85t-91.5 150t-32 222.5v2646h360v-2605q0 -53 9.5 -92t31 -65t58 -39t90.5 -13q62 0 127 6t127 18v-290zM534 -954l-148 143l275 291l-66 348h221q55 0 95 -14.5t65 -41t37 -63.5
t12 -82q0 -75 -28.5 -142.5t-75.5 -127.5t-108.5 -112t-127.5 -97z" />
    <glyph glyph-name="Lcaron" unicode="&#x13d;" horiz-adv-x="2138" 
d="M414 0v2966h377v-2655h1228v-311h-1605zM1118 2253l123 438l-103 414h242q51 0 95 -15t76.5 -43.5t51.5 -69.5t19 -93q0 -59 -12 -110t-33 -101.5t-50.5 -105t-64.5 -118.5l-106 -196h-238z" />
    <glyph glyph-name="lcaron" unicode="&#x13e;" horiz-adv-x="1286" 
d="M1184 25q-34 -11 -73 -20t-82.5 -16t-90.5 -10.5t-98 -3.5q-106 0 -191 26.5t-144.5 85t-91.5 150t-32 222.5v2646h360v-2605q0 -53 9.5 -92t31 -65t58 -39t90.5 -13q62 0 127 6t127 18v-290zM946 2253l123 438l-103 414h242q51 0 95 -15t76.5 -43.5t51.5 -69.5t19 -93
q0 -59 -12 -110t-33 -101.5t-50.5 -105t-64.5 -118.5l-106 -196h-238z" />
    <glyph glyph-name="Ldot" unicode="&#x13f;" horiz-adv-x="2138" 
d="M414 0v2966h377v-2655h1228v-311h-1605zM1257 1356v446h455v-446h-455z" />
    <glyph glyph-name="ldot" unicode="&#x140;" horiz-adv-x="1393" 
d="M1184 25q-34 -11 -73 -20t-82.5 -16t-90.5 -10.5t-98 -3.5q-106 0 -191 26.5t-144.5 85t-91.5 150t-32 222.5v2646h360v-2605q0 -53 9.5 -92t31 -65t58 -39t90.5 -13q62 0 127 6t127 18v-290zM1069 1266v393h397v-393h-397z" />
    <glyph glyph-name="Lslash" unicode="&#x141;" horiz-adv-x="2179" 
d="M455 0v1212l-320 -131v295l320 131v1459h376v-1299l623 258v-295l-623 -258v-1061h1229v-311h-1605z" />
    <glyph glyph-name="lslash" unicode="&#x142;" horiz-adv-x="1384" 
d="M1233 25q-34 -11 -73 -20t-82.5 -16t-90.5 -10.5t-98 -3.5q-106 0 -191 26.5t-144.5 85t-91.5 150t-32 222.5v790l-315 -131v295l315 131v1561h361v-1413l385 163v-294l-385 -164v-897q0 -53 9.5 -92t31 -65t57.5 -39t90 -13q62 0 127 6t127 18v-290z" />
    <glyph glyph-name="Nacute" unicode="&#x143;" horiz-adv-x="3043" 
d="M2232 0l-1228 1995q-62 99 -128 222.5t-118 256.5q6 -62 10.5 -126.5t7.5 -127t4.5 -120t1.5 -105.5v-1995h-368v2966h401l1229 -1995q29 -49 60 -104.5t62.5 -115.5t61.5 -123.5t58 -127.5q-6 60 -11 123t-8 124.5t-4.5 118.5t-1.5 105v1995h369v-2966h-398zM1323 3162
l393 574h475l-545 -574h-323z" />
    <glyph glyph-name="nacute" unicode="&#x144;" horiz-adv-x="2470" 
d="M1765 0v1413q0 115 -28.5 196.5t-84 133.5t-137.5 76t-188 24q-84 0 -161 -11.5t-148.5 -35.5t-140 -61t-136.5 -88v-1647h-360v2101h328l24 -192q64 55 137.5 99.5t156 76t175 48.5t195.5 17q120 0 220.5 -19.5t181.5 -57.5t142 -95t102.5 -133t62 -169.5t20.5 -205.5
v-1470h-361zM1078 2408l393 574h475l-545 -574h-323z" />
    <glyph glyph-name="Ncommaaccent" unicode="&#x145;" horiz-adv-x="3043" 
d="M2232 0l-1228 1995q-62 99 -128 222.5t-118 256.5q6 -62 10.5 -126.5t7.5 -127t4.5 -120t1.5 -105.5v-1995h-368v2966h401l1229 -1995q29 -49 60 -104.5t62.5 -115.5t61.5 -123.5t58 -127.5q-6 60 -11 123t-8 124.5t-4.5 118.5t-1.5 105v1995h369v-2966h-398zM1270 -954
l-148 143l275 291l-66 348h221q55 0 95 -14.5t65 -41t37 -63.5t12 -82q0 -75 -28.5 -142.5t-75.5 -127.5t-108.5 -112t-127.5 -97z" />
    <glyph glyph-name="ncommaaccent" unicode="&#x146;" horiz-adv-x="2470" 
d="M1765 0v1413q0 115 -28.5 196.5t-84 133.5t-137.5 76t-188 24q-84 0 -161 -11.5t-148.5 -35.5t-140 -61t-136.5 -88v-1647h-360v2101h328l24 -192q64 55 137.5 99.5t156 76t175 48.5t195.5 17q120 0 220.5 -19.5t181.5 -57.5t142 -95t102.5 -133t62 -169.5t20.5 -205.5
v-1470h-361zM1004 -954l-148 143l275 291l-66 348h221q55 0 95 -14.5t65 -41t37 -63.5t12 -82q0 -75 -28.5 -142.5t-75.5 -127.5t-108.5 -112t-127.5 -97z" />
    <glyph glyph-name="Ncaron" unicode="&#x147;" horiz-adv-x="3043" 
d="M2232 0l-1228 1995q-62 99 -128 222.5t-118 256.5q6 -62 10.5 -126.5t7.5 -127t4.5 -120t1.5 -105.5v-1995h-368v2966h401l1229 -1995q29 -49 60 -104.5t62.5 -115.5t61.5 -123.5t58 -127.5q-6 60 -11 123t-8 124.5t-4.5 118.5t-1.5 105v1995h369v-2966h-398zM1282 3162
l-393 574h327l281 -329l281 329h327l-393 -574h-430z" />
    <glyph glyph-name="ncaron" unicode="&#x148;" horiz-adv-x="2470" 
d="M1765 0v1413q0 115 -28.5 196.5t-84 133.5t-137.5 76t-188 24q-84 0 -161 -11.5t-148.5 -35.5t-140 -61t-136.5 -88v-1647h-360v2101h328l24 -192q64 55 137.5 99.5t156 76t175 48.5t195.5 17q120 0 220.5 -19.5t181.5 -57.5t142 -95t102.5 -133t62 -169.5t20.5 -205.5
v-1470h-361zM1036 2408l-393 574h327l281 -329l281 329h327l-393 -574h-430z" />
    <glyph glyph-name="napostrophe" unicode="&#x149;" horiz-adv-x="3224" 
d="M213 2134l233 508l-102 463h299q55 0 94 -12t64 -35.5t36 -58t11 -79.5q0 -80 -19.5 -158.5t-60 -162t-102.5 -175.5t-146 -200l-69 -90h-238zM2519 0v1413q0 115 -28.5 196.5t-84 133.5t-137.5 76t-188 24q-84 0 -161 -11.5t-148.5 -35.5t-140 -61t-136.5 -88v-1647
h-360v2101h328l24 -192q64 55 137.5 99.5t156 76t175 48.5t195.5 17q120 0 220.5 -19.5t181.5 -57.5t142 -95t102.5 -133t62 -169.5t20.5 -205.5v-1470h-361z" />
    <glyph glyph-name="Omacron" unicode="&#x14c;" horiz-adv-x="2920" 
d="M1454 -49q-221 0 -395 52t-306 148.5t-224.5 233.5t-151 306.5t-85 368.5t-26.5 419q0 221 27 420.5t85.5 370.5t152 308.5t226.5 234.5t308 149.5t397 52.5q221 0 395.5 -52t307 -148.5t225.5 -233.5t151.5 -307t85.5 -368.5t27 -418.5q0 -221 -27 -421t-86.5 -370.5
t-153 -308.5t-227 -234.5t-309 -149t-397.5 -52.5zM1462 270q148 0 264.5 41t205 117t151 184t102.5 243t58 293.5t18 334.5t-18 334t-58 293t-102.5 243t-151 184t-205.5 117t-264 41q-149 0 -266 -41t-206 -117t-152 -184t-103 -243t-58 -293t-18 -334t18 -334.5
t58 -293.5t103 -243t152 -184t206 -117t266 -41zM905 3257v311h1106v-311h-1106z" />
    <glyph glyph-name="omacron" unicode="&#x14d;" horiz-adv-x="2384" 
d="M1192 -49q-177 0 -317.5 38.5t-247.5 109.5t-183.5 170.5t-125 221.5t-71 263t-22.5 295t24.5 296t75.5 264t129 222t185.5 171t245 109.5t307.5 38.5q178 0 319 -38.5t248.5 -109.5t183.5 -171t124 -222t70 -264t22 -296t-24 -295t-74.5 -263t-128.5 -221.5
t-185.5 -170.5t-245.5 -109.5t-309 -38.5zM1192 254q166 0 279.5 58.5t183.5 164t100.5 251.5t30.5 321q0 177 -30.5 325t-100.5 255t-183.5 166.5t-279.5 59.5q-164 0 -277.5 -59.5t-184 -166.5t-101.5 -255t-31 -325q0 -175 31 -321t101.5 -251.5t184 -164t277.5 -58.5z
M635 2503v311h1106v-311h-1106z" />
    <glyph glyph-name="Obreve" unicode="&#x14e;" horiz-adv-x="2920" 
d="M1454 -49q-221 0 -395 52t-306 148.5t-224.5 233.5t-151 306.5t-85 368.5t-26.5 419q0 221 27 420.5t85.5 370.5t152 308.5t226.5 234.5t308 149.5t397 52.5q221 0 395.5 -52t307 -148.5t225.5 -233.5t151.5 -307t85.5 -368.5t27 -418.5q0 -221 -27 -421t-86.5 -370.5
t-153 -308.5t-227 -234.5t-309 -149t-397.5 -52.5zM1462 270q148 0 264.5 41t205 117t151 184t102.5 243t58 293.5t18 334.5t-18 334t-58 293t-102.5 243t-151 184t-205.5 117t-264 41q-149 0 -266 -41t-206 -117t-152 -184t-103 -243t-58 -293t-18 -334t18 -334.5
t58 -293.5t103 -243t152 -184t206 -117t266 -41zM2064 3736q-3 -133 -47.5 -241.5t-123.5 -186t-189.5 -120t-245.5 -42.5q-137 0 -247.5 42.5t-189.5 120t-122.5 186t-46.5 241.5h274q8 -74 35 -131t70 -96t100.5 -59.5t126.5 -20.5q67 0 124.5 20.5t101 59.5t71 96
t35.5 131h274z" />
    <glyph glyph-name="obreve" unicode="&#x14f;" horiz-adv-x="2384" 
d="M1192 -49q-177 0 -317.5 38.5t-247.5 109.5t-183.5 170.5t-125 221.5t-71 263t-22.5 295t24.5 296t75.5 264t129 222t185.5 171t245 109.5t307.5 38.5q178 0 319 -38.5t248.5 -109.5t183.5 -171t124 -222t70 -264t22 -296t-24 -295t-74.5 -263t-128.5 -221.5
t-185.5 -170.5t-245.5 -109.5t-309 -38.5zM1192 254q166 0 279.5 58.5t183.5 164t100.5 251.5t30.5 321q0 177 -30.5 325t-100.5 255t-183.5 166.5t-279.5 59.5q-164 0 -277.5 -59.5t-184 -166.5t-101.5 -255t-31 -325q0 -175 31 -321t101.5 -251.5t184 -164t277.5 -58.5z
M1794 2982q-3 -133 -47.5 -241.5t-123.5 -186t-189.5 -120t-245.5 -42.5q-137 0 -247.5 42.5t-189.5 120t-122.5 186t-46.5 241.5h274q8 -74 35 -131t70 -96t100.5 -59.5t126.5 -20.5q67 0 124.5 20.5t101 59.5t71 96t35.5 131h274z" />
    <glyph glyph-name="Ohungarumlaut" unicode="&#x150;" horiz-adv-x="2920" 
d="M1454 -49q-221 0 -395 52t-306 148.5t-224.5 233.5t-151 306.5t-85 368.5t-26.5 419q0 221 27 420.5t85.5 370.5t152 308.5t226.5 234.5t308 149.5t397 52.5q221 0 395.5 -52t307 -148.5t225.5 -233.5t151.5 -307t85.5 -368.5t27 -418.5q0 -221 -27 -421t-86.5 -370.5
t-153 -308.5t-227 -234.5t-309 -149t-397.5 -52.5zM1462 270q148 0 264.5 41t205 117t151 184t102.5 243t58 293.5t18 334.5t-18 334t-58 293t-102.5 243t-151 184t-205.5 117t-264 41q-149 0 -266 -41t-206 -117t-152 -184t-103 -243t-58 -293t-18 -334t18 -334.5
t58 -293.5t103 -243t152 -184t206 -117t266 -41zM934 3162l249 574h463l-405 -574h-307zM1618 3162l249 574h463l-405 -574h-307z" />
    <glyph glyph-name="ohungarumlaut" unicode="&#x151;" horiz-adv-x="2384" 
d="M1192 -49q-177 0 -317.5 38.5t-247.5 109.5t-183.5 170.5t-125 221.5t-71 263t-22.5 295t24.5 296t75.5 264t129 222t185.5 171t245 109.5t307.5 38.5q178 0 319 -38.5t248.5 -109.5t183.5 -171t124 -222t70 -264t22 -296t-24 -295t-74.5 -263t-128.5 -221.5
t-185.5 -170.5t-245.5 -109.5t-309 -38.5zM1192 254q166 0 279.5 58.5t183.5 164t100.5 251.5t30.5 321q0 177 -30.5 325t-100.5 255t-183.5 166.5t-279.5 59.5q-164 0 -277.5 -59.5t-184 -166.5t-101.5 -255t-31 -325q0 -175 31 -321t101.5 -251.5t184 -164t277.5 -58.5z
M664 2408l249 574h463l-405 -574h-307zM1348 2408l249 574h463l-405 -574h-307z" />
    <glyph glyph-name="OE" unicode="&#x152;" horiz-adv-x="4080" 
d="M2142 0q-65 -9 -133.5 -15t-140.5 -9t-147 -4t-152 -1q-232 0 -420 50.5t-334 144.5t-252 228.5t-174.5 302t-101.5 365t-33 417.5q0 221 32.5 419t100.5 366.5t172 303.5t247 229.5t326 145.5t408 51q89 0 172.5 -1.5t159.5 -5t144 -9t126 -12.5h1753v-312h-1405v-983
h1200v-311h-1200v-1049h1405v-311h-1753zM2114 2666q-57 6 -121.5 11t-131 8t-134 4.5t-130.5 1.5q-159 0 -291 -38.5t-237.5 -111t-184.5 -178t-131.5 -239.5t-79 -295.5t-26.5 -345.5t26.5 -345.5t79 -296t131.5 -240t184.5 -178t237.5 -111t291 -38.5q66 0 134 1t134 4
t129 7.5t120 12.5v2367z" />
    <glyph glyph-name="oe" unicode="&#x153;" horiz-adv-x="3785" 
d="M3449 102q-62 -32 -136.5 -60t-164 -48t-194.5 -31.5t-226 -11.5q-141 0 -260 28t-214.5 81.5t-167.5 132t-120 180.5q-49 -98 -119.5 -176.5t-166 -133t-216.5 -83.5t-272 -29q-177 0 -317.5 38.5t-247.5 109.5t-183.5 170.5t-124.5 221.5t-70.5 263t-22.5 295t24.5 296
t75 264t128.5 222t185.5 171t245 109.5t307.5 38.5q152 0 275.5 -29.5t220 -83.5t166.5 -130t116 -170q46 94 112 170t153 130t195.5 83.5t240.5 29.5q148 0 271.5 -35.5t222 -100.5t172 -156.5t122 -203.5t72.5 -242.5t24 -272.5q0 -20 -0.5 -41.5t-2 -41.5t-3 -37
t-3.5 -28h-1395q6 -175 45 -309.5t114.5 -226t189.5 -138.5t269 -47q117 0 215.5 12t182.5 30.5t153.5 42t128.5 46.5v-299zM1192 254q166 0 279.5 58.5t183.5 164t100.5 251.5t30.5 321q0 177 -30.5 325t-100.5 255t-183.5 166.5t-279.5 59.5q-164 0 -277.5 -59.5
t-184 -166.5t-101.5 -255t-31 -325q0 -175 31 -321t101.5 -251.5t184 -164t277.5 -58.5zM3187 1270q-6 133 -43 242t-103 186.5t-159 119.5t-211 42q-119 0 -212 -42t-159 -119.5t-104 -186.5t-45 -242h1036z" />
    <glyph glyph-name="Racute" unicode="&#x154;" horiz-adv-x="2671" 
d="M2077 0l-619 987q-30 48 -56 86t-51.5 66.5t-52 48.5t-56 33t-64 18.5t-76.5 5.5h-311v-1245h-377v2966h909q237 0 414 -51.5t295.5 -156t177.5 -263t59 -373.5q0 -191 -50.5 -333.5t-138 -244t-205.5 -164.5t-253 -94q62 -34 118 -92t111 -141l664 -1053h-438z
M1249 1536q149 0 266.5 34.5t198.5 106.5t123.5 182.5t42.5 262.5q0 136 -35.5 238.5t-110.5 170t-191 101.5t-277 34h-475v-1130h458zM1078 3162l393 574h475l-545 -574h-323z" />
    <glyph glyph-name="racute" unicode="&#x155;" horiz-adv-x="1651" 
d="M381 0v2101h328l24 -311q43 75 100 141t129.5 114.5t160 76.5t192.5 28q77 0 139.5 -13t106.5 -32v-344q-28 9 -63.5 17.5t-75.5 14.5t-83 9.5t-86 3.5q-66 0 -124.5 -15t-110 -42.5t-95 -65t-78.5 -82t-61.5 -94.5t-42.5 -102v-1405h-360zM738 2408l393 574h475
l-545 -574h-323z" />
    <glyph glyph-name="Rcommaaccent" unicode="&#x156;" horiz-adv-x="2671" 
d="M2077 0l-619 987q-30 48 -56 86t-51.5 66.5t-52 48.5t-56 33t-64 18.5t-76.5 5.5h-311v-1245h-377v2966h909q237 0 414 -51.5t295.5 -156t177.5 -263t59 -373.5q0 -191 -50.5 -333.5t-138 -244t-205.5 -164.5t-253 -94q62 -34 118 -92t111 -141l664 -1053h-438z
M1249 1536q149 0 266.5 34.5t198.5 106.5t123.5 182.5t42.5 262.5q0 136 -35.5 238.5t-110.5 170t-191 101.5t-277 34h-475v-1130h458zM1143 -954l-148 143l275 291l-66 348h221q55 0 95 -14.5t65 -41t37 -63.5t12 -82q0 -75 -28.5 -142.5t-75.5 -127.5t-108.5 -112
t-127.5 -97z" />
    <glyph glyph-name="rcommaaccent" unicode="&#x157;" horiz-adv-x="1651" 
d="M381 0v2101h328l24 -311q43 75 100 141t129.5 114.5t160 76.5t192.5 28q77 0 139.5 -13t106.5 -32v-344q-28 9 -63.5 17.5t-75.5 14.5t-83 9.5t-86 3.5q-66 0 -124.5 -15t-110 -42.5t-95 -65t-78.5 -82t-61.5 -94.5t-42.5 -102v-1405h-360zM313 -954l-148 143l275 291
l-66 348h221q55 0 95 -14.5t65 -41t37 -63.5t12 -82q0 -75 -28.5 -142.5t-75.5 -127.5t-108.5 -112t-127.5 -97z" />
    <glyph glyph-name="Rcaron" unicode="&#x158;" horiz-adv-x="2671" 
d="M2077 0l-619 987q-30 48 -56 86t-51.5 66.5t-52 48.5t-56 33t-64 18.5t-76.5 5.5h-311v-1245h-377v2966h909q237 0 414 -51.5t295.5 -156t177.5 -263t59 -373.5q0 -191 -50.5 -333.5t-138 -244t-205.5 -164.5t-253 -94q62 -34 118 -92t111 -141l664 -1053h-438z
M1249 1536q149 0 266.5 34.5t198.5 106.5t123.5 182.5t42.5 262.5q0 136 -35.5 238.5t-110.5 170t-191 101.5t-277 34h-475v-1130h458zM1036 3162l-393 574h327l281 -329l281 329h327l-393 -574h-430z" />
    <glyph glyph-name="rcaron" unicode="&#x159;" horiz-adv-x="1651" 
d="M381 0v2101h328l24 -311q43 75 100 141t129.5 114.5t160 76.5t192.5 28q77 0 139.5 -13t106.5 -32v-344q-28 9 -63.5 17.5t-75.5 14.5t-83 9.5t-86 3.5q-66 0 -124.5 -15t-110 -42.5t-95 -65t-78.5 -82t-61.5 -94.5t-42.5 -102v-1405h-360zM696 2408l-393 574h327
l281 -329l281 329h327l-393 -574h-430z" />
    <glyph glyph-name="Sacute" unicode="&#x15a;" horiz-adv-x="2372" 
d="M229 438q72 -32 167.5 -62t204 -52.5t226 -36t234.5 -13.5q172 0 303 40.5t219 112t133 168t45 208.5q0 75 -16.5 135t-50 109.5t-84.5 90t-120.5 75t-157 65t-193.5 61.5q-135 39 -252 81t-213.5 93t-171.5 114t-126.5 143t-78.5 181t-27 228q0 124 26 234t79.5 203
t135 167t192.5 125.5t252.5 79t314.5 27.5q127 0 237.5 -10t205 -30.5t175 -51.5t148.5 -72v-328q-75 42 -160 72.5t-180.5 51t-201.5 30.5t-224 10q-157 0 -272.5 -36.5t-191.5 -102.5t-113.5 -158t-37.5 -203q0 -74 17 -132t51 -105.5t85.5 -85t121.5 -70.5t157.5 -62.5
t194.5 -60.5q136 -39 253.5 -82t214 -96t171 -118t125.5 -147t77.5 -184t26.5 -229q0 -122 -29.5 -233t-89.5 -207t-149.5 -174.5t-209 -134t-269.5 -85.5t-330 -30q-132 0 -254.5 10.5t-230.5 31.5t-199 51.5t-160 70.5v323zM1061 3162l393 574h475l-545 -574h-323z" />
    <glyph glyph-name="sacute" unicode="&#x15b;" horiz-adv-x="1962" 
d="M233 393q35 -16 80.5 -32.5t98.5 -31.5t111 -28t118 -22.5t119.5 -15t116.5 -5.5q127 0 225 20.5t164.5 59.5t100.5 96t34 131q0 80 -31.5 136t-91.5 96.5t-146.5 69.5t-197.5 55q-164 38 -291 86t-213.5 118t-131 169.5t-44.5 240.5q0 138 43.5 251.5t138 194t245 124.5
t363.5 44q62 0 122 -5t115.5 -14t107 -22t97.5 -29.5t86.5 -36t74.5 -40.5v-299q-37 19 -80 37.5t-90.5 34.5t-99 29t-106 22.5t-112 14.5t-115.5 5q-110 0 -191 -18.5t-134 -55t-79 -92t-26 -129.5q0 -80 29.5 -133t87.5 -90t142.5 -62.5t195.5 -49.5q166 -37 294 -88
t215.5 -125.5t133 -177.5t45.5 -244q0 -138 -55.5 -254t-165.5 -200t-273 -130.5t-378 -46.5q-97 0 -191.5 11.5t-180 30.5t-157.5 44t-123 53v303zM836 2408l393 574h475l-545 -574h-323z" />
    <glyph glyph-name="Scircumflex" unicode="&#x15c;" horiz-adv-x="2372" 
d="M229 438q72 -32 167.5 -62t204 -52.5t226 -36t234.5 -13.5q172 0 303 40.5t219 112t133 168t45 208.5q0 75 -16.5 135t-50 109.5t-84.5 90t-120.5 75t-157 65t-193.5 61.5q-135 39 -252 81t-213.5 93t-171.5 114t-126.5 143t-78.5 181t-27 228q0 124 26 234t79.5 203
t135 167t192.5 125.5t252.5 79t314.5 27.5q127 0 237.5 -10t205 -30.5t175 -51.5t148.5 -72v-328q-75 42 -160 72.5t-180.5 51t-201.5 30.5t-224 10q-157 0 -272.5 -36.5t-191.5 -102.5t-113.5 -158t-37.5 -203q0 -74 17 -132t51 -105.5t85.5 -85t121.5 -70.5t157.5 -62.5
t194.5 -60.5q136 -39 253.5 -82t214 -96t171 -118t125.5 -147t77.5 -184t26.5 -229q0 -122 -29.5 -233t-89.5 -207t-149.5 -174.5t-209 -134t-269.5 -85.5t-330 -30q-132 0 -254.5 10.5t-230.5 31.5t-199 51.5t-160 70.5v323zM1516 3162l-281 329l-281 -329h-327l393 574
h430l393 -574h-327z" />
    <glyph glyph-name="scircumflex" unicode="&#x15d;" horiz-adv-x="1962" 
d="M233 393q35 -16 80.5 -32.5t98.5 -31.5t111 -28t118 -22.5t119.5 -15t116.5 -5.5q127 0 225 20.5t164.5 59.5t100.5 96t34 131q0 80 -31.5 136t-91.5 96.5t-146.5 69.5t-197.5 55q-164 38 -291 86t-213.5 118t-131 169.5t-44.5 240.5q0 138 43.5 251.5t138 194t245 124.5
t363.5 44q62 0 122 -5t115.5 -14t107 -22t97.5 -29.5t86.5 -36t74.5 -40.5v-299q-37 19 -80 37.5t-90.5 34.5t-99 29t-106 22.5t-112 14.5t-115.5 5q-110 0 -191 -18.5t-134 -55t-79 -92t-26 -129.5q0 -80 29.5 -133t87.5 -90t142.5 -62.5t195.5 -49.5q166 -37 294 -88
t215.5 -125.5t133 -177.5t45.5 -244q0 -138 -55.5 -254t-165.5 -200t-273 -130.5t-378 -46.5q-97 0 -191.5 11.5t-180 30.5t-157.5 44t-123 53v303zM1291 2408l-281 329l-281 -329h-327l393 574h430l393 -574h-327z" />
    <glyph glyph-name="Scedilla" unicode="&#x15e;" horiz-adv-x="2372" 
d="M803 -602q40 -9 83.5 -15t108.5 -6q36 0 71.5 7t64.5 23t47 43t18 67q0 43 -25 75.5t-66 56.5t-92.5 39.5t-103.5 24.5l144 238q-129 1 -248.5 12t-224.5 31.5t-194 50.5t-157 70v323q72 -32 167.5 -62t204 -52.5t226 -36t234.5 -13.5q172 0 303 40.5t219 112t133 168
t45 208.5q0 75 -16.5 135t-50 109.5t-84.5 90t-120.5 75t-157 65t-193.5 61.5q-135 39 -252 81t-213.5 93t-171.5 114t-126.5 143t-78.5 181t-27 228q0 124 26 234t79.5 203t135 167t192.5 125.5t252.5 79t314.5 27.5q127 0 237.5 -10t205 -30.5t175 -51.5t148.5 -72v-328
q-75 42 -160 72.5t-180.5 51t-201.5 30.5t-224 10q-157 0 -272.5 -36.5t-191.5 -102.5t-113.5 -158t-37.5 -203q0 -74 17 -132t51 -105.5t85.5 -85t121.5 -70.5t157.5 -62.5t194.5 -60.5q136 -39 253.5 -82t214 -96t171 -118t125.5 -147t77.5 -184t26.5 -229
q0 -164 -54 -308.5t-162 -257t-271 -187t-381 -99.5l-74 -160q57 -14 106 -39t84.5 -60t56 -80t20.5 -99q0 -94 -38.5 -162t-101.5 -112.5t-144 -65.5t-167 -21q-62 0 -117 8.5t-104 20.5v205z" />
    <glyph glyph-name="scedilla" unicode="&#x15f;" horiz-adv-x="1962" 
d="M602 -602q40 -9 84 -15t109 -6q35 0 71 7t64.5 23t46.5 43t18 67q0 43 -25 75.5t-65.5 56.5t-92 39.5t-103.5 24.5l143 238q-94 3 -184.5 15t-171 31t-148 43t-115.5 50v303q35 -16 80.5 -32.5t98.5 -31.5t111 -28t118 -22.5t119.5 -15t116.5 -5.5q127 0 225 20.5
t164.5 59.5t100.5 96t34 131q0 80 -31.5 136t-91.5 96.5t-146.5 69.5t-197.5 55q-164 38 -291 86t-213.5 118t-131 169.5t-44.5 240.5q0 138 43.5 251.5t138 194t245 124.5t363.5 44q62 0 122 -5t115.5 -14t107 -22t97.5 -29.5t86.5 -36t74.5 -40.5v-299q-37 19 -80 37.5
t-90.5 34.5t-99 29t-106 22.5t-112 14.5t-115.5 5q-110 0 -191 -18.5t-134 -55t-79 -92t-26 -129.5q0 -80 29.5 -133t87.5 -90t142.5 -62.5t195.5 -49.5q166 -37 294 -88t215.5 -125.5t133 -177.5t45.5 -244q0 -122 -42.5 -226t-127 -185t-210.5 -134.5t-292 -73.5l-77 -160
q57 -14 105.5 -39t84 -60t56 -80t20.5 -99q0 -94 -38 -162t-101 -112.5t-144.5 -65.5t-167.5 -21q-62 0 -116.5 8.5t-104.5 20.5v205z" />
    <glyph glyph-name="Scaron" unicode="&#x160;" horiz-adv-x="2372" 
d="M229 438q72 -32 167.5 -62t204 -52.5t226 -36t234.5 -13.5q172 0 303 40.5t219 112t133 168t45 208.5q0 75 -16.5 135t-50 109.5t-84.5 90t-120.5 75t-157 65t-193.5 61.5q-135 39 -252 81t-213.5 93t-171.5 114t-126.5 143t-78.5 181t-27 228q0 124 26 234t79.5 203
t135 167t192.5 125.5t252.5 79t314.5 27.5q127 0 237.5 -10t205 -30.5t175 -51.5t148.5 -72v-328q-75 42 -160 72.5t-180.5 51t-201.5 30.5t-224 10q-157 0 -272.5 -36.5t-191.5 -102.5t-113.5 -158t-37.5 -203q0 -74 17 -132t51 -105.5t85.5 -85t121.5 -70.5t157.5 -62.5
t194.5 -60.5q136 -39 253.5 -82t214 -96t171 -118t125.5 -147t77.5 -184t26.5 -229q0 -122 -29.5 -233t-89.5 -207t-149.5 -174.5t-209 -134t-269.5 -85.5t-330 -30q-132 0 -254.5 10.5t-230.5 31.5t-199 51.5t-160 70.5v323zM1020 3162l-393 574h327l281 -329l281 329h327
l-393 -574h-430z" />
    <glyph glyph-name="scaron" unicode="&#x161;" horiz-adv-x="1962" 
d="M233 393q35 -16 80.5 -32.5t98.5 -31.5t111 -28t118 -22.5t119.5 -15t116.5 -5.5q127 0 225 20.5t164.5 59.5t100.5 96t34 131q0 80 -31.5 136t-91.5 96.5t-146.5 69.5t-197.5 55q-164 38 -291 86t-213.5 118t-131 169.5t-44.5 240.5q0 138 43.5 251.5t138 194t245 124.5
t363.5 44q62 0 122 -5t115.5 -14t107 -22t97.5 -29.5t86.5 -36t74.5 -40.5v-299q-37 19 -80 37.5t-90.5 34.5t-99 29t-106 22.5t-112 14.5t-115.5 5q-110 0 -191 -18.5t-134 -55t-79 -92t-26 -129.5q0 -80 29.5 -133t87.5 -90t142.5 -62.5t195.5 -49.5q166 -37 294 -88
t215.5 -125.5t133 -177.5t45.5 -244q0 -138 -55.5 -254t-165.5 -200t-273 -130.5t-378 -46.5q-97 0 -191.5 11.5t-180 30.5t-157.5 44t-123 53v303zM795 2408l-393 574h327l281 -329l281 329h327l-393 -574h-430z" />
    <glyph glyph-name="Tcommaaccent" unicode="&#x162;" horiz-adv-x="2302" 
d="M963 0v2654h-852v312h2080v-312h-852v-2654h-376zM902 -954l-148 143l275 291l-66 348h221q55 0 95 -14.5t65 -41t37 -63.5t12 -82q0 -75 -28.5 -142.5t-75.5 -127.5t-108.5 -112t-127.5 -97z" />
    <glyph glyph-name="tcommaaccent" unicode="&#x163;" horiz-adv-x="1704" 
d="M1585 33q-41 -18 -94.5 -33.5t-114 -26t-125.5 -16.5t-129 -6q-155 0 -273.5 33t-199 107.5t-121.5 195t-41 295.5v1220h-360v299h360v647h361v-647h762v-299h-762v-1192q0 -106 21.5 -173t64 -105t106.5 -52t148 -14q58 0 113.5 5.5t106.5 15t95.5 21.5t81.5 24v-299z
M783 -954l-148 143l275 291l-66 348h221q55 0 95 -14.5t65 -41t37 -63.5t12 -82q0 -75 -28.5 -142.5t-75.5 -127.5t-108.5 -112t-127.5 -97z" />
    <glyph glyph-name="Tcaron" unicode="&#x164;" horiz-adv-x="2302" 
d="M963 0v2654h-852v312h2080v-312h-852v-2654h-376zM934 3162l-393 574h327l281 -329l281 329h327l-393 -574h-430z" />
    <glyph glyph-name="tcaron" unicode="&#x165;" horiz-adv-x="1704" 
d="M1585 33q-41 -18 -94.5 -33.5t-114 -26t-125.5 -16.5t-129 -6q-155 0 -273.5 33t-199 107.5t-121.5 195t-41 295.5v1220h-360v299h360v647h361v-647h762v-299h-762v-1192q0 -106 21.5 -173t64 -105t106.5 -52t148 -14q58 0 113.5 5.5t106.5 15t95.5 21.5t81.5 24v-299z
M1094 2400l123 438l-103 414h242q51 0 95 -15t76.5 -43.5t51.5 -69.5t19 -93q0 -59 -12 -110t-33 -101.5t-50.5 -105t-64.5 -118.5l-106 -196h-238z" />
    <glyph glyph-name="Tbar" unicode="&#x166;" horiz-adv-x="2302" 
d="M963 0v1229h-648v295h648v1130h-852v312h2080v-312h-852v-1130h648v-295h-648v-1229h-376z" />
    <glyph glyph-name="tbar" unicode="&#x167;" horiz-adv-x="1704" 
d="M1585 33q-41 -18 -94.5 -33.5t-114 -26t-125.5 -16.5t-129 -6q-155 0 -273.5 33t-199 107.5t-121.5 195t-41 295.5v336h-245v286h245v598h-360v299h360v647h361v-647h762v-299h-762v-598h450v-286h-450v-308q0 -106 21.5 -173t64 -105t106.5 -52t148 -14q58 0 113.5 5.5
t106.5 15t95.5 21.5t81.5 24v-299z" />
    <glyph glyph-name="Utilde" unicode="&#x168;" horiz-adv-x="2822" 
d="M2089 2966h377v-2073q0 -159 -27 -290.5t-83 -236t-142 -182.5t-203.5 -130t-267.5 -77.5t-334 -25.5t-334 25.5t-267 77.5t-202 130t-140.5 182.5t-82.5 236t-27 290.5v2073h377v-1999q0 -177 39.5 -308t122 -217.5t210 -129t304.5 -42.5q178 0 306.5 42.5t211.5 129
t122.5 217.5t39.5 308v1999zM2130 3683q0 -117 -32 -210.5t-88.5 -158.5t-133.5 -100t-168 -35q-57 0 -108 15t-96.5 38t-87 49.5t-80 49.5t-74 38t-70.5 15q-48 0 -80 -16.5t-53 -44t-32 -63t-15 -73.5h-250q0 117 30.5 210t86 158.5t132.5 100.5t169 35q56 0 107 -15
t97 -38t88 -49.5t81 -49.5t75.5 -38t71.5 -15q48 0 80 16.5t53 43.5t31.5 62.5t15.5 74.5h250z" />
    <glyph glyph-name="utilde" unicode="&#x169;" horiz-adv-x="2433" 
d="M1724 0l-24 168q-63 -49 -133 -89t-148 -68.5t-164.5 -44t-181.5 -15.5q-120 0 -220.5 19.5t-181.5 57.5t-142 95t-102.5 133t-62 169.5t-20.5 205.5v1470h361v-1413q0 -115 28 -197.5t83.5 -135t137 -77t189.5 -24.5q78 0 149.5 9.5t139 29.5t131.5 51t129 74v1683h360
v-2101h-328zM1917 2929q0 -117 -32 -210.5t-88.5 -158.5t-133.5 -100t-168 -35q-57 0 -108 15t-96.5 38t-87 49.5t-80 49.5t-74 38t-70.5 15q-48 0 -80 -16.5t-53 -44t-32 -63t-15 -73.5h-250q0 117 30.5 210t86 158.5t132.5 100.5t169 35q56 0 107 -15t97 -38t88 -49.5
t81 -49.5t75.5 -38t71.5 -15q48 0 80 16.5t53 43.5t31.5 62.5t15.5 74.5h250z" />
    <glyph glyph-name="Umacron" unicode="&#x16a;" horiz-adv-x="2822" 
d="M2089 2966h377v-2073q0 -159 -27 -290.5t-83 -236t-142 -182.5t-203.5 -130t-267.5 -77.5t-334 -25.5t-334 25.5t-267 77.5t-202 130t-140.5 182.5t-82.5 236t-27 290.5v2073h377v-1999q0 -177 39.5 -308t122 -217.5t210 -129t304.5 -42.5q178 0 306.5 42.5t211.5 129
t122.5 217.5t39.5 308v1999zM856 3257v311h1106v-311h-1106z" />
    <glyph glyph-name="umacron" unicode="&#x16b;" horiz-adv-x="2433" 
d="M1724 0l-24 168q-63 -49 -133 -89t-148 -68.5t-164.5 -44t-181.5 -15.5q-120 0 -220.5 19.5t-181.5 57.5t-142 95t-102.5 133t-62 169.5t-20.5 205.5v1470h361v-1413q0 -115 28 -197.5t83.5 -135t137 -77t189.5 -24.5q78 0 149.5 9.5t139 29.5t131.5 51t129 74v1683h360
v-2101h-328zM643 2503v311h1106v-311h-1106z" />
    <glyph glyph-name="Ubreve" unicode="&#x16c;" horiz-adv-x="2822" 
d="M2089 2966h377v-2073q0 -159 -27 -290.5t-83 -236t-142 -182.5t-203.5 -130t-267.5 -77.5t-334 -25.5t-334 25.5t-267 77.5t-202 130t-140.5 182.5t-82.5 236t-27 290.5v2073h377v-1999q0 -177 39.5 -308t122 -217.5t210 -129t304.5 -42.5q178 0 306.5 42.5t211.5 129
t122.5 217.5t39.5 308v1999zM2015 3736q-3 -133 -47.5 -241.5t-123.5 -186t-189.5 -120t-245.5 -42.5q-137 0 -247.5 42.5t-189.5 120t-122.5 186t-46.5 241.5h274q8 -74 35 -131t70 -96t100.5 -59.5t126.5 -20.5q67 0 124.5 20.5t101 59.5t71 96t35.5 131h274z" />
    <glyph glyph-name="ubreve" unicode="&#x16d;" horiz-adv-x="2433" 
d="M1724 0l-24 168q-63 -49 -133 -89t-148 -68.5t-164.5 -44t-181.5 -15.5q-120 0 -220.5 19.5t-181.5 57.5t-142 95t-102.5 133t-62 169.5t-20.5 205.5v1470h361v-1413q0 -115 28 -197.5t83.5 -135t137 -77t189.5 -24.5q78 0 149.5 9.5t139 29.5t131.5 51t129 74v1683h360
v-2101h-328zM1802 2982q-3 -133 -47.5 -241.5t-123.5 -186t-189.5 -120t-245.5 -42.5q-137 0 -247.5 42.5t-189.5 120t-122.5 186t-46.5 241.5h274q8 -74 35 -131t70 -96t100.5 -59.5t126.5 -20.5q67 0 124.5 20.5t101 59.5t71 96t35.5 131h274z" />
    <glyph glyph-name="Uring" unicode="&#x16e;" horiz-adv-x="2822" 
d="M2089 2966h377v-2073q0 -159 -27 -290.5t-83 -236t-142 -182.5t-203.5 -130t-267.5 -77.5t-334 -25.5t-334 25.5t-267 77.5t-202 130t-140.5 182.5t-82.5 236t-27 290.5v2073h377v-1999q0 -177 39.5 -308t122 -217.5t210 -129t304.5 -42.5q178 0 306.5 42.5t211.5 129
t122.5 217.5t39.5 308v1999zM1864 3580q0 -92 -35 -171.5t-96 -138t-144 -91.5t-180 -33t-180 33t-144 91.5t-96 138t-35 171.5t35 171.5t96 138t144 91.5t180 33t180 -33t144 -91.5t96 -138t35 -171.5zM1409 3355q49 0 90.5 18t71.5 48.5t46.5 71.5t16.5 87
q0 45 -16.5 85.5t-46.5 72t-71.5 50t-90.5 18.5t-90.5 -18.5t-71.5 -50t-46.5 -72t-16.5 -85.5q0 -46 16.5 -87t46.5 -71.5t71.5 -48.5t90.5 -18z" />
    <glyph glyph-name="uring" unicode="&#x16f;" horiz-adv-x="2433" 
d="M1724 0l-24 168q-63 -49 -133 -89t-148 -68.5t-164.5 -44t-181.5 -15.5q-120 0 -220.5 19.5t-181.5 57.5t-142 95t-102.5 133t-62 169.5t-20.5 205.5v1470h361v-1413q0 -115 28 -197.5t83.5 -135t137 -77t189.5 -24.5q78 0 149.5 9.5t139 29.5t131.5 51t129 74v1683h360
v-2101h-328zM1651 2826q0 -92 -35 -171.5t-96 -138t-144 -91.5t-180 -33t-180 33t-144 91.5t-96 138t-35 171.5t35 171.5t96 138t144 91.5t180 33t180 -33t144 -91.5t96 -138t35 -171.5zM1196 2601q49 0 90.5 18t71.5 48.5t46.5 71.5t16.5 87q0 45 -16.5 85.5t-46.5 72
t-71.5 50t-90.5 18.5t-90.5 -18.5t-71.5 -50t-46.5 -72t-16.5 -85.5q0 -46 16.5 -87t46.5 -71.5t71.5 -48.5t90.5 -18z" />
    <glyph glyph-name="Uhungarumlaut" unicode="&#x170;" horiz-adv-x="2822" 
d="M2089 2966h377v-2073q0 -159 -27 -290.5t-83 -236t-142 -182.5t-203.5 -130t-267.5 -77.5t-334 -25.5t-334 25.5t-267 77.5t-202 130t-140.5 182.5t-82.5 236t-27 290.5v2073h377v-1999q0 -177 39.5 -308t122 -217.5t210 -129t304.5 -42.5q178 0 306.5 42.5t211.5 129
t122.5 217.5t39.5 308v1999zM885 3162l249 574h463l-405 -574h-307zM1569 3162l249 574h463l-405 -574h-307z" />
    <glyph glyph-name="uhungarumlaut" unicode="&#x171;" horiz-adv-x="2433" 
d="M1724 0l-24 168q-63 -49 -133 -89t-148 -68.5t-164.5 -44t-181.5 -15.5q-120 0 -220.5 19.5t-181.5 57.5t-142 95t-102.5 133t-62 169.5t-20.5 205.5v1470h361v-1413q0 -115 28 -197.5t83.5 -135t137 -77t189.5 -24.5q78 0 149.5 9.5t139 29.5t131.5 51t129 74v1683h360
v-2101h-328zM672 2408l249 574h463l-405 -574h-307zM1356 2408l249 574h463l-405 -574h-307z" />
    <glyph glyph-name="Uogonek" unicode="&#x172;" horiz-adv-x="2822" 
d="M1785 -811q-49 -12 -105.5 -18.5t-115.5 -6.5q-126 0 -215.5 32t-146 83.5t-83 118t-26.5 135.5t21 129t59 112t89.5 96t113.5 81q-178 2 -323 29t-258.5 79.5t-196 130.5t-136.5 182t-80 234t-26 287v2073h377v-1999q0 -177 39 -308t121.5 -217.5t210.5 -129t305 -42.5
q178 0 306.5 42.5t211 129t122 217.5t39.5 308v1999h377v-2073q0 -125 -16.5 -233t-51 -199.5t-86.5 -166t-123.5 -133t-162.5 -101t-203 -68.5q-98 -23 -177 -67.5t-134.5 -99.5t-85 -115.5t-29.5 -115.5q0 -101 64 -150.5t178 -49.5q23 0 43 1.5t38 3.5t34.5 5t31.5 6
v-221z" />
    <glyph glyph-name="uogonek" unicode="&#x173;" horiz-adv-x="2433" 
d="M2109 -811q-49 -12 -105.5 -18.5t-115.5 -6.5q-126 0 -215.5 32t-146 83.5t-83 118t-26.5 135.5q0 74 24.5 139t66 122.5t97.5 108.5t119 97l-24 168q-63 -49 -133 -89t-148 -68.5t-164.5 -44t-181.5 -15.5q-120 0 -220.5 19.5t-181.5 57.5t-142 95t-102.5 133t-62 169.5
t-20.5 205.5v1470h361v-1413q0 -115 28 -197.5t83.5 -135t137 -77t189.5 -24.5q78 0 149.5 9.5t139 29.5t131.5 51t129 74v1683h360v-2101h-82q-55 -55 -101 -107.5t-79 -103t-51.5 -99t-18.5 -96.5q0 -101 64 -150.5t178 -49.5q23 0 43 1.5t38 3.5t34.5 5t31.5 6v-221z" />
    <glyph glyph-name="Wcircumflex" unicode="&#x174;" horiz-adv-x="4235" 
d="M2839 0l-619 2003q-14 43 -29.5 102.5t-29.5 128.5t-25 133.5t-18 122.5q-9 -60 -20.5 -123.5t-26 -132.5t-29 -128.5t-27.5 -102.5l-618 -2003h-398l-917 2966h401l639 -2188q12 -40 23.5 -80t22 -80.5t19.5 -82t17 -84.5q6 43 14 84.5t17 82t20 80.5t23 80l651 2188
h377l651 -2188q12 -40 23 -80t20.5 -80.5t17 -82t13.5 -84.5q6 43 15 84.5t19.5 82t23 80.5t24.5 80l639 2188h401l-917 -2966h-397zM2363 3162l-281 329l-281 -329h-327l393 574h430l393 -574h-327z" />
    <glyph glyph-name="wcircumflex" unicode="&#x175;" horiz-adv-x="3195" 
d="M2073 0l-406 1348q-15 49 -34.5 118.5t-35.5 147.5q-18 -78 -36 -147.5t-33 -118.5l-406 -1348h-360l-701 2101h377l434 -1462q19 -62 37 -136t33 -155q16 81 35.5 155t38.5 136l418 1462h327l418 -1462q16 -62 35 -136t35 -155q15 81 35 155t38 136l435 1462h376
l-700 -2101h-360zM1872 2408l-281 329l-281 -329h-327l393 574h430l393 -574h-327z" />
    <glyph glyph-name="Ycircumflex" unicode="&#x176;" horiz-adv-x="2433" 
d="M1028 0v1167l-979 1799h406l594 -1119q22 -43 44 -91t42.5 -99t40 -104t36.5 -107q17 54 37.5 107t42.5 104t45.5 99t46.5 91l594 1119h406l-979 -1803v-1163h-377zM1495 3162l-281 329l-281 -329h-327l393 574h430l393 -574h-327z" />
    <glyph glyph-name="ycircumflex" unicode="&#x177;" horiz-adv-x="1995" 
d="M4 -647q25 -3 58.5 -5.5t76.5 -2.5q79 0 148.5 11t130.5 37t115 69t102 107.5t90.5 152.5t81.5 204l12 45l-774 2130h385l488 -1478q21 -72 44 -153t42 -171q15 90 40 170.5t50 148.5l487 1483h373l-807 -2224q-55 -152 -113 -274t-123 -215t-140 -159.5t-164.5 -109
t-196 -62.5t-234.5 -20q-21 0 -44.5 1.5t-46 4.5t-43.5 6.5t-38 8.5v295zM1278 2408l-281 329l-281 -329h-327l393 574h430l393 -574h-327z" />
    <glyph glyph-name="Ydieresis" unicode="&#x178;" horiz-adv-x="2433" 
d="M1028 0v1167l-979 1799h406l594 -1119q22 -43 44 -91t42.5 -99t40 -104t36.5 -107q17 54 37.5 107t42.5 104t45.5 99t46.5 91l594 1119h406l-979 -1803v-1163h-377zM622 3257v409h393v-409h-393zM1417 3257v409h393v-409h-393z" />
    <glyph glyph-name="Zacute" unicode="&#x179;" horiz-adv-x="2441" 
d="M152 0v319l1626 2335h-1577v312h2027v-320l-1626 -2335h1688v-311h-2138zM1045 3162l393 574h475l-545 -574h-323z" />
    <glyph glyph-name="zacute" unicode="&#x17a;" horiz-adv-x="2028" 
d="M205 0v254l1155 1548h-1122v299h1556v-254l-1163 -1548h1208v-299h-1634zM840 2408l393 574h475l-545 -574h-323z" />
    <glyph glyph-name="Zdotaccent" unicode="&#x17b;" horiz-adv-x="2441" 
d="M152 0v319l1626 2335h-1577v312h2027v-320l-1626 -2335h1688v-311h-2138zM992 3257v446h454v-446h-454z" />
    <glyph glyph-name="zdotaccent" unicode="&#x17c;" horiz-adv-x="2028" 
d="M205 0v254l1155 1548h-1122v299h1556v-254l-1163 -1548h1208v-299h-1634zM787 2503v446h454v-446h-454z" />
    <glyph glyph-name="Zcaron" unicode="&#x17d;" horiz-adv-x="2441" 
d="M152 0v319l1626 2335h-1577v312h2027v-320l-1626 -2335h1688v-311h-2138zM1004 3162l-393 574h327l281 -329l281 329h327l-393 -574h-430z" />
    <glyph glyph-name="zcaron" unicode="&#x17e;" horiz-adv-x="2028" 
d="M205 0v254l1155 1548h-1122v299h1556v-254l-1163 -1548h1208v-299h-1634zM799 2408l-393 574h327l281 -329l281 329h327l-393 -574h-430z" />
    <glyph glyph-name="florin" unicode="&#x192;" 
d="M1425 1401l-143 -897q-40 -251 -122.5 -423.5t-201 -279.5t-268.5 -154.5t-325 -47.5q-28 0 -56.5 2t-54 5.5t-47 7.5t-35.5 9l49 291q15 -3 33.5 -5.5t39 -4t43.5 -2t48 -0.5q105 0 192.5 36.5t156.5 116.5t118.5 207.5t77.5 310.5l131 828h-594l49 299h594l98 610
q31 198 107 331.5t187 214.5t250 115.5t296 34.5q40 0 77.5 -2.5t72.5 -7t67 -11t61 -14t54.5 -16.5t48.5 -18l-49 -295q-37 12 -75 22t-77.5 17t-81 10.5t-86.5 3.5q-107 0 -191 -22t-146 -74.5t-102 -140t-60 -217.5l-86 -541h761l-49 -299h-762z" />
    <glyph glyph-name="Scommaaccent" unicode="&#x218;" horiz-adv-x="2372" 
d="M229 438q72 -32 167.5 -62t204 -52.5t226 -36t234.5 -13.5q172 0 303 40.5t219 112t133 168t45 208.5q0 75 -16.5 135t-50 109.5t-84.5 90t-120.5 75t-157 65t-193.5 61.5q-135 39 -252 81t-213.5 93t-171.5 114t-126.5 143t-78.5 181t-27 228q0 124 26 234t79.5 203
t135 167t192.5 125.5t252.5 79t314.5 27.5q127 0 237.5 -10t205 -30.5t175 -51.5t148.5 -72v-328q-75 42 -160 72.5t-180.5 51t-201.5 30.5t-224 10q-157 0 -272.5 -36.5t-191.5 -102.5t-113.5 -158t-37.5 -203q0 -74 17 -132t51 -105.5t85.5 -85t121.5 -70.5t157.5 -62.5
t194.5 -60.5q136 -39 253.5 -82t214 -96t171 -118t125.5 -147t77.5 -184t26.5 -229q0 -122 -29.5 -233t-89.5 -207t-149.5 -174.5t-209 -134t-269.5 -85.5t-330 -30q-132 0 -254.5 10.5t-230.5 31.5t-199 51.5t-160 70.5v323zM938 -954l-148 143l275 291l-66 348h221
q55 0 95 -14.5t65 -41t37 -63.5t12 -82q0 -75 -28.5 -142.5t-75.5 -127.5t-108.5 -112t-127.5 -97z" />
    <glyph glyph-name="scommaaccent" unicode="&#x219;" horiz-adv-x="1962" 
d="M233 393q35 -16 80.5 -32.5t98.5 -31.5t111 -28t118 -22.5t119.5 -15t116.5 -5.5q127 0 225 20.5t164.5 59.5t100.5 96t34 131q0 80 -31.5 136t-91.5 96.5t-146.5 69.5t-197.5 55q-164 38 -291 86t-213.5 118t-131 169.5t-44.5 240.5q0 138 43.5 251.5t138 194t245 124.5
t363.5 44q62 0 122 -5t115.5 -14t107 -22t97.5 -29.5t86.5 -36t74.5 -40.5v-299q-37 19 -80 37.5t-90.5 34.5t-99 29t-106 22.5t-112 14.5t-115.5 5q-110 0 -191 -18.5t-134 -55t-79 -92t-26 -129.5q0 -80 29.5 -133t87.5 -90t142.5 -62.5t195.5 -49.5q166 -37 294 -88
t215.5 -125.5t133 -177.5t45.5 -244q0 -138 -55.5 -254t-165.5 -200t-273 -130.5t-378 -46.5q-97 0 -191.5 11.5t-180 30.5t-157.5 44t-123 53v303zM738 -954l-148 143l275 291l-66 348h221q55 0 95 -14.5t65 -41t37 -63.5t12 -82q0 -75 -28.5 -142.5t-75.5 -127.5
t-108.5 -112t-127.5 -97z" />
    <glyph glyph-name="uni021A" unicode="&#x21a;" horiz-adv-x="2302" 
d="M963 0v2654h-852v312h2080v-312h-852v-2654h-376zM902 -954l-148 143l275 291l-66 348h221q55 0 95 -14.5t65 -41t37 -63.5t12 -82q0 -75 -28.5 -142.5t-75.5 -127.5t-108.5 -112t-127.5 -97z" />
    <glyph glyph-name="uni021B" unicode="&#x21b;" horiz-adv-x="1704" 
d="M1585 33q-41 -18 -94.5 -33.5t-114 -26t-125.5 -16.5t-129 -6q-155 0 -273.5 33t-199 107.5t-121.5 195t-41 295.5v1220h-360v299h360v647h361v-647h762v-299h-762v-1192q0 -106 21.5 -173t64 -105t106.5 -52t148 -14q58 0 113.5 5.5t106.5 15t95.5 21.5t81.5 24v-299z
M783 -954l-148 143l275 291l-66 348h221q55 0 95 -14.5t65 -41t37 -63.5t12 -82q0 -75 -28.5 -142.5t-75.5 -127.5t-108.5 -112t-127.5 -97z" />
    <glyph glyph-name="dotlessj" unicode="&#x237;" horiz-adv-x="1122" 
d="M-225 -643q34 -6 63 -9t72 -3q117 0 205 41t147 126.5t89 217.5t30 315v2056h360v-2097q0 -251 -58 -432.5t-162 -299t-249.5 -174t-320.5 -56.5q-25 0 -50.5 1.5t-48.5 4t-43 6t-34 8.5v295z" />
    <glyph glyph-name="circumflex" unicode="&#x2c6;" horiz-adv-x="1794" 
d="M1176 2408l-281 329l-281 -329h-327l393 574h430l393 -574h-327z" />
    <glyph glyph-name="caron" unicode="&#x2c7;" horiz-adv-x="1794" 
d="M680 2408l-393 574h327l281 -329l281 329h327l-393 -574h-430z" />
    <glyph glyph-name="breve" unicode="&#x2d8;" horiz-adv-x="1794" 
d="M1503 2982q-3 -133 -47.5 -241.5t-123.5 -186t-189.5 -120t-245.5 -42.5q-137 0 -247.5 42.5t-189.5 120t-122.5 186t-46.5 241.5h274q8 -74 35 -131t70 -96t100.5 -59.5t126.5 -20.5q67 0 124.5 20.5t101 59.5t71 96t35.5 131h274z" />
    <glyph glyph-name="dotaccent" unicode="&#x2d9;" horiz-adv-x="1794" 
d="M668 2503v446h454v-446h-454z" />
    <glyph glyph-name="ring" unicode="&#x2da;" horiz-adv-x="1794" 
d="M1352 2826q0 -92 -35 -171.5t-96 -138t-144 -91.5t-180 -33t-180 33t-144 91.5t-96 138t-35 171.5t35 171.5t96 138t144 91.5t180 33t180 -33t144 -91.5t96 -138t35 -171.5zM897 2601q49 0 90.5 18t71.5 48.5t46.5 71.5t16.5 87q0 45 -16.5 85.5t-46.5 72t-71.5 50
t-90.5 18.5t-90.5 -18.5t-71.5 -50t-46.5 -72t-16.5 -85.5q0 -46 16.5 -87t46.5 -71.5t71.5 -48.5t90.5 -18z" />
    <glyph glyph-name="ogonek" unicode="&#x2db;" horiz-adv-x="1794" 
d="M1221 -811q-50 -12 -106.5 -18.5t-115.5 -6.5q-126 0 -215 32t-146 83.5t-83.5 118t-26.5 135.5q0 81 30.5 152.5t81.5 134t116.5 117.5t136.5 104h233q-65 -62 -119 -119.5t-93 -113t-61 -109t-22 -105.5q0 -101 64.5 -150.5t177.5 -49.5q23 0 43.5 1.5t38.5 3.5t34.5 5
t31.5 6v-221z" />
    <glyph glyph-name="tilde" unicode="&#x2dc;" horiz-adv-x="1794" 
d="M1581 2929q0 -117 -32 -210.5t-88.5 -158.5t-133.5 -100t-168 -35q-57 0 -108 15t-96.5 38t-87 49.5t-80 49.5t-74 38t-70.5 15q-48 0 -80 -16.5t-53 -44t-32 -63t-15 -73.5h-250q0 117 30.5 210t86 158.5t132.5 100.5t169 35q56 0 107 -15t97 -38t88 -49.5t81 -49.5
t75.5 -38t71.5 -15q48 0 80 16.5t53 43.5t31.5 62.5t15.5 74.5h250z" />
    <glyph glyph-name="hungarumlaut" unicode="&#x2dd;" horiz-adv-x="1794" 
d="M197 2408l249 574h463l-405 -574h-307zM881 2408l249 574h463l-405 -574h-307z" />
    <glyph glyph-name="commatop" unicode="&#x312;" horiz-adv-x="1794" 
d="M860 2408q-55 0 -94.5 14.5t-65 41t-37.5 63.5t-12 82q0 75 28.5 143t75.5 128t108.5 112t127.5 96l152 103l147 -144l-274 -290l65 -349h-221z" />
    <glyph glyph-name="caronslovak" unicode="&#x315;" horiz-adv-x="1794" 
d="M639 2253l123 438l-103 414h242q51 0 95 -15t76.5 -43.5t51.5 -69.5t19 -93q0 -59 -12 -110t-33 -101.5t-50.5 -105t-64.5 -118.5l-106 -196h-238z" />
    <glyph glyph-name="commaaccent" unicode="&#x326;" horiz-adv-x="1794" 
d="M709 -954l-148 143l275 291l-66 348h221q55 0 95 -14.5t65 -41t37 -63.5t12 -82q0 -75 -28.5 -142.5t-75.5 -127.5t-108.5 -112t-127.5 -97z" />
    <glyph glyph-name="tonos" unicode="&#x384;" horiz-adv-x="1794" 
d="M655 3105h484l-168 -721h-148z" />
    <glyph glyph-name="dieresistonos" unicode="&#x385;" horiz-adv-x="1794" 
d="M172 2912h352v-409h-352v409zM680 3064h434l-143 -656h-148zM1270 2912h352v-409h-352v409z" />
    <glyph glyph-name="Alphatonos" unicode="&#x386;" horiz-adv-x="2675" 
d="M2195 0l-254 758h-1224l-254 -758h-381l1052 2966h402l1061 -2966h-402zM1434 2269q-31 87 -59 183.5t-44 201.5q-18 -105 -48.5 -201.5t-57.5 -183.5l-402 -1188h1008zM164 3089h484l-168 -721h-148z" />
    <glyph glyph-name="Epsilontonos" unicode="&#x388;" horiz-adv-x="2748" 
d="M783 0v2966h1781v-312h-1404v-983h1200v-311h-1200v-1049h1404v-311h-1781zM-57 3089h484l-168 -721h-148z" />
    <glyph glyph-name="Etatonos" unicode="&#x389;" horiz-adv-x="3367" 
d="M2576 0v1368h-1400v-1368h-377v2966h377v-1287h1400v1287h377v-2966h-377zM-57 3089h484l-168 -721h-148z" />
    <glyph glyph-name="Iotatonos" unicode="&#x38a;" horiz-adv-x="2208" 
d="M807 0v291h377v2384h-377v291h1131v-291h-377v-2384h377v-291h-1131zM-57 3089h484l-168 -721h-148z" />
    <glyph glyph-name="Omicrontonos" unicode="&#x38c;" horiz-adv-x="3199" 
d="M1733 -49q-221 0 -395 52t-306 148.5t-224.5 233.5t-151 306.5t-85 368.5t-26.5 419q0 221 27 420.5t85.5 370.5t152 308.5t226.5 234.5t308 149.5t397 52.5q221 0 395.5 -52t307 -148.5t225.5 -233.5t151.5 -307t85.5 -368.5t27 -418.5q0 -221 -27 -421t-86.5 -370.5
t-153 -308.5t-227 -234.5t-309 -149t-397.5 -52.5zM1741 270q148 0 264.5 41t205 117t151 184t102.5 243t58 293.5t18 334.5t-18 334t-58 293t-102.5 243t-151 184t-205.5 117t-264 41q-149 0 -266 -41t-206 -117t-152 -184t-103 -243t-58 -293t-18 -334t18 -334.5
t58 -293.5t103 -243t152 -184t206 -117t266 -41zM-57 3089h484l-168 -721h-148z" />
    <glyph glyph-name="Upsilontonos" unicode="&#x38e;" horiz-adv-x="2974" 
d="M1569 0v1167l-979 1799h406l594 -1119q22 -43 44 -91t42.5 -99t40 -104t36.5 -107q17 54 37.5 107t42.5 104t45.5 99t46.5 91l594 1119h406l-979 -1803v-1163h-377zM-89 3089h484l-168 -721h-148z" />
    <glyph glyph-name="Omegatonos" unicode="&#x38f;" horiz-adv-x="3277" 
d="M1901 0v242q137 81 254 205t202.5 287.5t134 365.5t48.5 440q0 170 -20 321.5t-62 280t-106.5 231t-153.5 174t-204 110t-257 38.5t-257 -38.5t-204 -110t-153.5 -174t-106.5 -231t-62 -280t-20 -321.5q0 -238 48.5 -440t134.5 -365.5t202.5 -287.5t253.5 -205v-242
h-1073v311h545q-115 103 -208 233.5t-159 286t-101.5 333.5t-35.5 376q0 215 29 408t90 357t156.5 295t228.5 223.5t305 142t387 49.5q219 0 393 -48.5t307 -139t227 -221t154 -294.5t87.5 -358.5t27.5 -413.5q0 -198 -35.5 -376t-101 -333.5t-159 -286t-208.5 -233.5h545
v-311h-1073zM-57 3089h484l-168 -721h-148z" />
    <glyph glyph-name="iotadieresistonos" unicode="&#x390;" horiz-adv-x="1286" 
d="M840 -25q-106 0 -191 26.5t-144.5 85t-91.5 150t-32 222.5v1642h360v-1601q0 -53 9.5 -92t31 -65t58 -39t90.5 -13q62 0 127 6t127 18v-290q-34 -11 -73 -20t-82.5 -16t-90.5 -10.5t-98 -3.5zM-163 2912h352v-409h-352v409zM345 3064h434l-143 -656h-148zM935 2912h352
v-409h-352v409z" />
    <glyph glyph-name="Alpha" unicode="&#x391;" horiz-adv-x="2671" 
d="M2191 0l-254 758h-1224l-254 -758h-381l1052 2966h402l1061 -2966h-402zM1430 2269q-31 87 -59 183.5t-44 201.5q-18 -105 -48.5 -201.5t-57.5 -183.5l-402 -1188h1008z" />
    <glyph glyph-name="Beta" unicode="&#x392;" horiz-adv-x="2601" 
d="M414 0v2966h827q246 0 428 -52t303 -152t180.5 -246t59.5 -333q0 -115 -25 -211.5t-72 -174.5t-115.5 -139t-156.5 -106q120 -46 215 -118.5t161 -167.5t101 -210t35 -245q0 -121 -25 -228t-78 -197t-135 -161.5t-195.5 -121.5t-259.5 -76.5t-327 -26.5h-921zM1307 311
q175 0 300 37t204.5 104t117 161.5t37.5 209.5q0 117 -34 215.5t-107.5 170t-190 111.5t-282.5 40h-561v-1049h516zM1245 1655q160 0 270 35.5t178.5 102.5t99 162.5t30.5 215.5q0 106 -37.5 195t-115.5 153t-198 99.5t-284 35.5h-397v-999h454z" />
    <glyph glyph-name="Gamma" unicode="&#x393;" horiz-adv-x="2138" 
d="M414 2966h1605v-312h-1228v-2654h-377v2966z" />
    <glyph glyph-name="uni0394" unicode="&#x394;" horiz-adv-x="2712" 
d="M131 0v319l1020 2647h401l1028 -2647v-319h-2449zM1438 2269q-15 39 -29 78t-26 77.5t-22 76.5t-18 75q-9 -37 -19.5 -75t-22.5 -76.5t-25 -77.5t-27 -78l-741 -1958h1675z" />
    <glyph glyph-name="Epsilon" unicode="&#x395;" horiz-adv-x="2380" 
d="M414 0v2966h1781v-312h-1404v-983h1200v-311h-1200v-1049h1404v-311h-1781z" />
    <glyph glyph-name="Zeta" unicode="&#x396;" horiz-adv-x="2441" 
d="M152 0v319l1626 2335h-1577v312h2027v-320l-1626 -2335h1688v-311h-2138z" />
    <glyph glyph-name="Eta" unicode="&#x397;" horiz-adv-x="2982" 
d="M2191 0v1368h-1400v-1368h-377v2966h377v-1287h1400v1287h377v-2966h-377z" />
    <glyph glyph-name="Theta" unicode="&#x398;" horiz-adv-x="2920" 
d="M1454 -49q-221 0 -395 52t-306 148.5t-224.5 233.5t-151 306.5t-85 368.5t-26.5 419q0 221 27 420.5t85.5 370.5t152 308.5t226.5 234.5t308 149.5t397 52.5q221 0 395.5 -52t307 -148.5t225.5 -233.5t151.5 -307t85.5 -368.5t27 -418.5q0 -221 -27 -421t-86.5 -370.5
t-153 -308.5t-227 -234.5t-309 -149t-397.5 -52.5zM1462 270q148 0 264.5 41t205 117t151 184t102.5 243t58 293.5t18 334.5t-18 334t-58 293t-102.5 243t-151 184t-205.5 117t-264 41q-149 0 -266 -41t-206 -117t-152 -184t-103 -243t-58 -293t-18 -334t18 -334.5
t58 -293.5t103 -243t152 -184t206 -117t266 -41zM934 1634h1073v-311h-1073v311z" />
    <glyph glyph-name="Iota" unicode="&#x399;" horiz-adv-x="1671" 
d="M270 0v291h377v2384h-377v291h1131v-291h-377v-2384h377v-291h-1131z" />
    <glyph glyph-name="Kappa" unicode="&#x39a;" horiz-adv-x="2601" 
d="M2060 0l-1269 1393v-1393h-377v2966h377v-1356l1241 1356h458l-1130 -1229q-83 -89 -142.5 -140t-111.5 -81q24 -14 50.5 -33t56.5 -44.5t64.5 -59t74.5 -76.5l1192 -1303h-484z" />
    <glyph glyph-name="Lambda" unicode="&#x39b;" horiz-adv-x="2671" 
d="M1130 2966h402l1061 -2966h-410l-762 2269q-25 78 -51 160.5t-43 175.5q-19 -93 -45.5 -175t-52.5 -161l-762 -2269h-389z" />
    <glyph glyph-name="Mu" unicode="&#x39c;" horiz-adv-x="3604" 
d="M2822 0v2068q0 89 4 203t17 232q-46 -122 -95.5 -230.5t-93.5 -187.5l-725 -1249h-250l-721 1249q-26 44 -51.5 92.5t-51.5 103t-50.5 110.5t-46.5 112q12 -112 18 -221.5t6 -213.5v-2068h-368v2966h426l815 -1426q41 -74 78 -156t69 -181q30 99 69 181t83 156l815 1426
h422v-2966h-369z" />
    <glyph glyph-name="Nu" unicode="&#x39d;" horiz-adv-x="3043" 
d="M2232 0l-1228 1995q-62 99 -128 222.5t-118 256.5q6 -62 10.5 -126.5t7.5 -127t4.5 -120t1.5 -105.5v-1995h-368v2966h401l1229 -1995q29 -49 60 -104.5t62.5 -115.5t61.5 -123.5t58 -127.5q-6 60 -11 123t-8 124.5t-4.5 118.5t-1.5 105v1995h369v-2966h-398z" />
    <glyph glyph-name="Xi" unicode="&#x39e;" horiz-adv-x="2273" 
d="M184 319h1905v-319h-1905v319zM389 1675h1495v-319h-1495v319zM184 2966h1905v-320h-1905v320z" />
    <glyph glyph-name="Omicron" unicode="&#x39f;" horiz-adv-x="2920" 
d="M1454 -49q-221 0 -395 52t-306 148.5t-224.5 233.5t-151 306.5t-85 368.5t-26.5 419q0 221 27 420.5t85.5 370.5t152 308.5t226.5 234.5t308 149.5t397 52.5q221 0 395.5 -52t307 -148.5t225.5 -233.5t151.5 -307t85.5 -368.5t27 -418.5q0 -221 -27 -421t-86.5 -370.5
t-153 -308.5t-227 -234.5t-309 -149t-397.5 -52.5zM1462 270q148 0 264.5 41t205 117t151 184t102.5 243t58 293.5t18 334.5t-18 334t-58 293t-102.5 243t-151 184t-205.5 117t-264 41q-149 0 -266 -41t-206 -117t-152 -184t-103 -243t-58 -293t-18 -334t18 -334.5
t58 -293.5t103 -243t152 -184t206 -117t266 -41z" />
    <glyph glyph-name="Pi" unicode="&#x3a0;" horiz-adv-x="2982" 
d="M2191 2654h-1400v-2654h-377v2966h2154v-2966h-377v2654z" />
    <glyph glyph-name="Rho" unicode="&#x3a1;" horiz-adv-x="2441" 
d="M414 0v2966h942q160 0 292.5 -28t238 -82.5t184 -134t131 -182t78.5 -227t26 -268.5q0 -145 -24.5 -270t-75.5 -227.5t-131 -181.5t-191 -133t-254.5 -82t-322.5 -28h-516v-1122h-377zM1274 1421q175 0 297.5 42t199 122t111.5 196t35 263q0 138 -35 252.5t-109.5 196.5
t-190.5 127.5t-279 45.5h-512v-1245h483z" />
    <glyph glyph-name="Sigma" unicode="&#x3a3;" horiz-adv-x="2257" 
d="M184 319l946 1184l-925 1143v320h1863v-312h-1437l856 -1028v-254l-869 -1061h1430v-311h-1864v319z" />
    <glyph glyph-name="Tau" unicode="&#x3a4;" horiz-adv-x="2302" 
d="M963 0v2654h-852v312h2080v-312h-852v-2654h-376z" />
    <glyph glyph-name="Upsilon" unicode="&#x3a5;" horiz-adv-x="2433" 
d="M1028 0v1167l-979 1799h406l594 -1119q22 -43 44 -91t42.5 -99t40 -104t36.5 -107q17 54 37.5 107t42.5 104t45.5 99t46.5 91l594 1119h406l-979 -1803v-1163h-377z" />
    <glyph glyph-name="Phi" unicode="&#x3a6;" horiz-adv-x="3056" 
d="M1339 336q-196 2 -359.5 45t-294.5 120t-228.5 184.5t-162.5 239t-97.5 283t-32.5 316.5q0 164 37 315t107.5 283t172.5 240t232.5 185.5t288 120.5t337.5 44v254h377v-254q179 -1 336 -44t287.5 -120.5t233.5 -185.5t173.5 -240t108 -283t37.5 -315q0 -165 -32.5 -316.5
t-98 -283t-163.5 -239t-229 -184.5t-294 -120t-359 -45v-336h-377v336zM553 1524q0 -124 21 -237.5t63.5 -211.5t107.5 -178.5t152 -138t197.5 -89.5t244.5 -34v1778q-126 -3 -233 -38t-194.5 -94.5t-154.5 -141.5t-112 -180t-68.5 -208t-23.5 -227zM2503 1524
q0 117 -23.5 227t-69.5 208t-113 180t-154.5 141.5t-194.5 94.5t-232 38v-1778q133 2 243 34t197.5 89.5t152.5 138t108 178.5t64.5 211.5t21.5 237.5z" />
    <glyph glyph-name="Chi" unicode="&#x3a7;" horiz-adv-x="2490" 
d="M1987 0l-607 979q-18 28 -36.5 59t-35.5 64t-33 67t-30 68q-15 -34 -31.5 -68t-33 -67t-34.5 -64t-36 -59l-606 -979h-430l954 1520l-905 1446h430l553 -902q18 -29 36 -60.5t34.5 -64.5t33 -67.5t31.5 -69.5q14 35 30 69.5t33 67.5t35.5 64.5t36.5 60.5l557 902h430
l-905 -1446l959 -1520h-430z" />
    <glyph glyph-name="Psi" unicode="&#x3a8;" horiz-adv-x="2925" 
d="M1282 950q-177 13 -326.5 53t-270 104t-212 152t-153 196.5t-92.5 237.5t-31 277v996h381v-922q0 -158 41.5 -291t128 -232.5t219 -163t315.5 -83.5v1692h377v-1688q178 23 308 86.5t214.5 162.5t125 229.5t40.5 287.5v922h381v-996q0 -145 -31 -273t-92 -236t-152 -195
t-209.5 -151.5t-265 -105.5t-319.5 -55v-954h-377v950z" />
    <glyph glyph-name="uni03A9" unicode="&#x3a9;" horiz-adv-x="3080" 
d="M1704 0v242q137 81 254 205t202.5 287.5t134 365.5t48.5 440q0 170 -20 321.5t-62 280t-106.5 231t-153.5 174t-204 110t-257 38.5t-257 -38.5t-204 -110t-153.5 -174t-106.5 -231t-62 -280t-20 -321.5q0 -238 48.5 -440t134.5 -365.5t202.5 -287.5t253.5 -205v-242
h-1073v311h545q-115 103 -208 233.5t-159 286t-101.5 333.5t-35.5 376q0 215 29 408t90 357t156.5 295t228.5 223.5t305 142t387 49.5q219 0 393 -48.5t307 -139t227 -221t154 -294.5t87.5 -358.5t27.5 -413.5q0 -198 -35.5 -376t-101 -333.5t-159 -286t-208.5 -233.5h545
v-311h-1073z" />
    <glyph glyph-name="Iotadieresis" unicode="&#x3aa;" horiz-adv-x="1671" 
d="M270 0v291h377v2384h-377v291h1131v-291h-377v-2384h377v-291h-1131zM243 3257v409h393v-409h-393zM1038 3257v409h393v-409h-393z" />
    <glyph glyph-name="Upsilondieresis" unicode="&#x3ab;" horiz-adv-x="2433" 
d="M1028 0v1167l-979 1799h406l594 -1119q22 -43 44 -91t42.5 -99t40 -104t36.5 -107q17 54 37.5 107t42.5 104t45.5 99t46.5 91l594 1119h406l-979 -1803v-1163h-377zM622 3257v409h393v-409h-393zM1417 3257v409h393v-409h-393z" />
    <glyph glyph-name="alphatonos" unicode="&#x3ac;" horiz-adv-x="2482" 
d="M1061 -49q-189 0 -341 73.5t-259.5 216t-165 351.5t-57.5 481q0 258 65 458.5t180 338t271.5 209t339.5 71.5q101 0 190 -23.5t166 -64.5t141.5 -95.5t116.5 -115.5l37 250h319v-1601q0 -53 7 -92t24 -65t45.5 -39t71.5 -13q52 0 98 4t98 16v-291q-30 -11 -63 -19
t-69 -14t-74.5 -9t-79.5 -3q-74 0 -140.5 20.5t-120 61t-89.5 100.5t-48 138q-52 -69 -119.5 -131.5t-150.5 -109.5t-181 -75t-212 -28zM1143 266q86 0 168.5 30t156 79.5t134 114t102.5 133.5v847q-43 74 -101.5 140t-129.5 116t-153 79.5t-173 29.5q-123 0 -222.5 -53.5
t-169 -154t-107.5 -245t-38 -325.5q0 -189 29.5 -336t94 -248.5t165.5 -154t244 -52.5zM934 3105h484l-168 -721h-148z" />
    <glyph glyph-name="epsilontonos" unicode="&#x3ad;" horiz-adv-x="1876" 
d="M1044 -49q-207 0 -365 48t-265.5 131.5t-162 195t-54.5 239.5q0 95 26.5 177.5t77 151t122.5 121t163 87.5q-75 34 -133.5 82t-98 110.5t-60 138t-20.5 164.5q0 127 53.5 229.5t153.5 174.5t242.5 110.5t320.5 38.5q63 0 123 -4t115.5 -11.5t107 -18.5t98 -25.5
t88.5 -31.5t79 -36v-286q-56 26 -120.5 47t-138 36t-154.5 23t-169 8q-100 0 -179 -21.5t-134 -60.5t-84 -94t-29 -123q0 -75 28 -138t84.5 -109t142 -71.5t200.5 -25.5h319v-282h-368q-82 0 -149.5 -11t-121.5 -31.5t-94 -50t-66.5 -67t-39.5 -82t-13 -94.5
q0 -72 29.5 -132.5t91 -104t156 -67.5t223.5 -24q112 0 201 8t165 23t142.5 36.5t134.5 47.5v-303q-63 -28 -133 -50.5t-151.5 -38.5t-176.5 -25t-207 -9zM782 3105h484l-168 -721h-148z" />
    <glyph glyph-name="etatonos" unicode="&#x3ae;" horiz-adv-x="2470" 
d="M381 2101h328l24 -192q64 55 137.5 99.5t156 76t175 48.5t195.5 17q120 0 220.5 -19.5t181.5 -57.5t142 -95t102.5 -133t62 -169.5t20.5 -205.5v-2404h-361v2347q0 115 -28.5 196.5t-84 133.5t-137.5 76t-188 24q-84 0 -161 -11.5t-148.5 -35.5t-140 -61t-136.5 -88
v-1647h-360v2101zM1011 3105h484l-168 -721h-148z" />
    <glyph glyph-name="iotatonos" unicode="&#x3af;" horiz-adv-x="1286" 
d="M840 -25q-106 0 -191 26.5t-144.5 85t-91.5 150t-32 222.5v1642h360v-1601q0 -53 9.5 -92t31 -65t58 -39t90.5 -13q62 0 127 6t127 18v-290q-34 -11 -73 -20t-82.5 -16t-90.5 -10.5t-98 -3.5zM320 3105h484l-168 -721h-148z" />
    <glyph glyph-name="upsilondieresistonos" unicode="&#x3b0;" horiz-adv-x="2335" 
d="M1192 -49q-157 0 -281 30.5t-219.5 88.5t-163 142t-110 191.5t-62.5 236.5t-20 278v1183h360v-1159q0 -117 11.5 -213t36 -172.5t63.5 -133.5t94 -94.5t127.5 -56t163.5 -18.5q138 0 233 46.5t153.5 149.5t84 268.5t25.5 403.5q0 117 -10 238.5t-28.5 245.5t-45 248
t-60.5 247h340q39 -100 70.5 -211.5t54 -234.5t35 -256.5t12.5 -276.5q0 -196 -22 -359.5t-68 -293.5t-116 -227t-166 -162t-219 -97t-273 -32zM442 2912h352v-409h-352v409zM950 3064h434l-143 -656h-148zM1540 2912h352v-409h-352v409z" />
    <glyph glyph-name="alpha" unicode="&#x3b1;" horiz-adv-x="2482" 
d="M1061 -49q-189 0 -341 73.5t-259.5 216t-165 351.5t-57.5 481q0 258 65 458.5t180 338t271.5 209t339.5 71.5q101 0 190 -23.5t166 -64.5t141.5 -95.5t116.5 -115.5l37 250h319v-1601q0 -53 7 -92t24 -65t45.5 -39t71.5 -13q52 0 98 4t98 16v-291q-30 -11 -63 -19
t-69 -14t-74.5 -9t-79.5 -3q-74 0 -140.5 20.5t-120 61t-89.5 100.5t-48 138q-52 -69 -119.5 -131.5t-150.5 -109.5t-181 -75t-212 -28zM1143 266q86 0 168.5 30t156 79.5t134 114t102.5 133.5v847q-43 74 -101.5 140t-129.5 116t-153 79.5t-173 29.5q-123 0 -222.5 -53.5
t-169 -154t-107.5 -245t-38 -325.5q0 -189 29.5 -336t94 -248.5t165.5 -154t244 -52.5z" />
    <glyph glyph-name="beta" unicode="&#x3b2;" horiz-adv-x="2482" 
d="M381 2335q0 142 33 258t92.5 207t142.5 158t183 110.5t214 64.5t236 21q192 0 339 -54t246 -146.5t150 -216t51 -263.5q0 -123 -48.5 -240.5t-130 -219.5t-189 -184t-225.5 -134q186 -43 330.5 -128.5t244 -201t151.5 -255.5t52 -292q0 -116 -29 -225t-85 -205.5
t-137 -177t-184.5 -138.5t-229 -90t-269.5 -32q-84 0 -168 11.5t-159.5 31.5t-140 46.5t-110.5 57.5v-1032h-360v3269zM741 406q55 -33 122.5 -59t141 -44t151.5 -27.5t155 -9.5q130 0 235.5 42t179.5 116.5t114 175.5t40 219q0 97 -23 180.5t-68.5 154t-114 129t-160 107
t-206 86.5t-251.5 68v275q95 20 179.5 54.5t155.5 80t127.5 101.5t95.5 120.5t60 135.5t21 147q0 81 -26.5 152t-79 123.5t-131.5 83t-185 30.5q-123 0 -221.5 -34.5t-168 -104.5t-106.5 -176.5t-37 -250.5v-1875z" />
    <glyph glyph-name="gamma" unicode="&#x3b3;" horiz-adv-x="2060" 
d="M885 -20l-623 1703q-11 29 -27 52.5t-36 40t-44.5 25.5t-52.5 9q-43 0 -74.5 -3.5t-68.5 -12.5v291q29 11 56.5 18.5t57 12.5t61.5 7.5t71 2.5q77 0 137 -19.5t106.5 -58.5t81 -98.5t60.5 -139.5l393 -1187q22 -72 44.5 -153t41.5 -171q16 90 42 170.5t48 148.5l488 1483
h372l-774 -2134v-901h-360v914z" />
    <glyph glyph-name="delta" unicode="&#x3b4;" horiz-adv-x="2408" 
d="M1204 -49q-168 0 -305 37t-244 105t-186 162.5t-130 209t-76 246t-25 272.5q0 175 31 324t87 270.5t134 215t171 156.5t198.5 95.5t217.5 32.5q50 0 98 -9t95 -24q-40 43 -84.5 86t-87.5 86l-639 627v262h1343v-299h-897l627 -586q106 -98 194 -188.5t159 -179.5
t124.5 -180t89.5 -191t54 -211.5t18 -241.5q0 -146 -25 -283t-76.5 -256.5t-130 -218.5t-186 -170t-244.5 -110t-305 -39zM1204 254q110 0 196.5 27t152.5 77t112.5 119.5t76 154.5t43 183t13.5 205q0 106 -13.5 206.5t-43 188t-76 160t-112.5 123t-153 76t-196 20.5
q-166 -8 -279.5 -69.5t-183.5 -165t-100.5 -241.5t-30.5 -298t30.5 -299.5t100.5 -243t183.5 -163.5t279.5 -60z" />
    <glyph glyph-name="epsilon" unicode="&#x3b5;" horiz-adv-x="1876" 
d="M1044 -49q-207 0 -365 48t-265.5 131.5t-162 195t-54.5 239.5q0 95 26.5 177.5t77 151t122.5 121t163 87.5q-75 34 -133.5 82t-98 110.5t-60 138t-20.5 164.5q0 127 53.5 229.5t153.5 174.5t242.5 110.5t320.5 38.5q63 0 123 -4t115.5 -11.5t107 -18.5t98 -25.5
t88.5 -31.5t79 -36v-286q-56 26 -120.5 47t-138 36t-154.5 23t-169 8q-100 0 -179 -21.5t-134 -60.5t-84 -94t-29 -123q0 -75 28 -138t84.5 -109t142 -71.5t200.5 -25.5h319v-282h-368q-82 0 -149.5 -11t-121.5 -31.5t-94 -50t-66.5 -67t-39.5 -82t-13 -94.5
q0 -72 29.5 -132.5t91 -104t156 -67.5t223.5 -24q112 0 201 8t165 23t142.5 36.5t134.5 47.5v-303q-63 -28 -133 -50.5t-151.5 -38.5t-176.5 -25t-207 -9z" />
    <glyph glyph-name="zeta" unicode="&#x3b6;" horiz-adv-x="1860" 
d="M1294 -549q17 57 34 132t31 152t23 147t11 118h-164q-172 0 -315.5 26.5t-258 79t-200.5 129.5t-143.5 178t-86 225.5t-28.5 270.5q0 182 39 367t109 364t167 348t212 319t244.5 277t264.5 222h-881v299h1426v-254q-111 -52 -222.5 -130t-217 -176t-204 -214.5
t-184 -245.5t-155.5 -269t-120.5 -285t-78 -293.5t-27.5 -295.5q0 -110 19.5 -200.5t59 -161.5t97.5 -123t135 -86.5t172.5 -51t209.5 -16.5h217q69 0 120 -15.5t84 -42.5t49.5 -64.5t16.5 -82.5q0 -40 -6 -91.5t-16.5 -109.5t-24.5 -119t-30 -120t-33 -112t-33 -95h-312v0z
" />
    <glyph glyph-name="eta" unicode="&#x3b7;" horiz-adv-x="2470" 
d="M381 2101h328l24 -192q64 55 137.5 99.5t156 76t175 48.5t195.5 17q120 0 220.5 -19.5t181.5 -57.5t142 -95t102.5 -133t62 -169.5t20.5 -205.5v-2404h-361v2347q0 115 -28.5 196.5t-84 133.5t-137.5 76t-188 24q-84 0 -161 -11.5t-148.5 -35.5t-140 -61t-136.5 -88
v-1647h-360v2101z" />
    <glyph glyph-name="theta" unicode="&#x3b8;" horiz-adv-x="2425" 
d="M1212 -57q-177 0 -317.5 58t-247.5 162.5t-183.5 251.5t-124.5 324.5t-70.5 381.5t-22.5 423q0 221 24.5 426.5t75 384.5t128.5 326t185.5 252t245 163t307.5 58q178 0 319 -58t248.5 -163t183.5 -252.5t124 -327t70 -385.5t22 -428q0 -218 -24 -421t-74.5 -380.5
t-128.5 -324t-185.5 -251.5t-245.5 -162.5t-309 -57.5zM1212 258q157 0 267.5 82t182 233.5t107 365.5t41.5 478h-1200q8 -264 45 -478t109 -365.5t182.5 -233.5t265.5 -82zM1212 2855q-152 0 -261.5 -81t-182 -230.5t-111 -359.5t-47.5 -468h1200q-8 258 -45 468
t-109 359.5t-182 230.5t-262 81z" />
    <glyph glyph-name="iota" unicode="&#x3b9;" horiz-adv-x="1286" 
d="M840 -25q-106 0 -191 26.5t-144.5 85t-91.5 150t-32 222.5v1642h360v-1601q0 -53 9.5 -92t31 -65t58 -39t90.5 -13q62 0 127 6t127 18v-290q-34 -11 -73 -20t-82.5 -16t-90.5 -10.5t-98 -3.5z" />
    <glyph glyph-name="kappa" unicode="&#x3ba;" horiz-adv-x="2171" 
d="M381 2101h360v-930l918 930h426l-852 -868q-31 -31 -58 -54.5t-51.5 -42t-47 -33t-44.5 -26.5q20 -9 40.5 -21t43.5 -29t50 -39.5t59 -53.5l913 -934h-459l-938 954v-954h-360v2101z" />
    <glyph glyph-name="lambda" unicode="&#x3bb;" horiz-adv-x="2134" 
d="M864 2175l-73 209q-38 106 -75.5 181.5t-76.5 126.5t-79.5 81t-84 45.5t-91.5 20t-101 4.5q-22 0 -40 -1t-34.5 -2.5t-31.5 -4t-30 -5.5v295q17 6 38.5 11.5t45.5 9.5t50.5 6t54.5 2q89 0 167.5 -12t148 -41.5t131.5 -79t119 -124.5t109.5 -178.5t102.5 -240.5l758 -2060
q11 -29 27 -52.5t36 -40t44.5 -25.5t52.5 -9q43 0 74.5 3.5t68.5 12.5v-291q-29 -11 -56.5 -18.5t-57 -12.5t-61.5 -7.5t-71 -2.5q-77 0 -137 19.5t-106.5 58.5t-81 98.5t-60.5 139.5l-397 1192q-12 34 -25.5 73.5t-26.5 82.5t-25 88.5t-21 91.5q-9 -46 -20.5 -91.5t-24 -89
t-25.5 -84t-25 -75.5l-528 -1479h-385z" />
    <glyph glyph-name="uni03BC" unicode="&#x3bc;" horiz-adv-x="2507" 
d="M1110 -49q-115 0 -212 21t-177 61q12 -84 16 -182t4 -203v-582h-360v3035h360v-1413q0 -115 28 -197.5t83.5 -135t137.5 -77t190 -24.5q78 0 149.5 9.5t138.5 29.5t131.5 51t129.5 74v1683h360v-1601q0 -53 7 -92t24 -65t45 -39t71 -13q53 0 98.5 4t98.5 16v-291
q-62 -21 -132.5 -33t-154.5 -12q-62 0 -118.5 14t-104.5 42t-86.5 70.5t-62.5 99.5q-65 -57 -138 -103t-155.5 -79t-175 -50.5t-195.5 -17.5z" />
    <glyph glyph-name="nu" unicode="&#x3bd;" horiz-adv-x="1995" 
d="M811 0l-766 2101h385l488 -1478q21 -72 44 -153t42 -171q15 90 40 170.5t50 148.5l487 1483h373l-762 -2101h-381z" />
    <glyph glyph-name="xi" unicode="&#x3be;" horiz-adv-x="1909" 
d="M1356 -549q17 57 34 132t30.5 152t22.5 147t11 118h-131q-173 0 -320.5 27t-268 81t-213.5 135.5t-155.5 190.5t-95 245t-32.5 300q0 150 31 278.5t97 232t170 180t250 124.5q-92 40 -169 103.5t-133 147.5t-87.5 187.5t-31.5 225.5q0 160 53.5 288.5t153 219t242 139.5
t321.5 49q95 0 181.5 -9t163 -25.5t143 -40t122.5 -52.5v-299q-56 26 -120.5 47.5t-138 36.5t-154.5 23t-169 8q-100 0 -179.5 -28t-135 -82.5t-85.5 -135t-30 -184.5q0 -112 39.5 -201.5t111 -152.5t171 -96.5t219.5 -33.5h295v-291h-312q-153 0 -273.5 -41.5t-203.5 -124
t-126.5 -206t-43.5 -287.5q0 -97 16 -185t52 -163t93.5 -135.5t140 -103.5t193 -66t251.5 -23h184q69 0 120 -15.5t84 -42.5t49.5 -64.5t16.5 -82.5q0 -60 -13 -144.5t-33.5 -175.5t-46 -177.5t-50.5 -149.5h-311z" />
    <glyph glyph-name="omicron" unicode="&#x3bf;" horiz-adv-x="2384" 
d="M1192 -49q-177 0 -317.5 38.5t-247.5 109.5t-183.5 170.5t-125 221.5t-71 263t-22.5 295t24.5 296t75.5 264t129 222t185.5 171t245 109.5t307.5 38.5q178 0 319 -38.5t248.5 -109.5t183.5 -171t124 -222t70 -264t22 -296t-24 -295t-74.5 -263t-128.5 -221.5
t-185.5 -170.5t-245.5 -109.5t-309 -38.5zM1192 254q166 0 279.5 58.5t183.5 164t100.5 251.5t30.5 321q0 177 -30.5 325t-100.5 255t-183.5 166.5t-279.5 59.5q-164 0 -277.5 -59.5t-184 -166.5t-101.5 -255t-31 -325q0 -175 31 -321t101.5 -251.5t184 -164t277.5 -58.5z
" />
    <glyph glyph-name="pi" unicode="&#x3c0;" horiz-adv-x="2601" 
d="M2413 25q-34 -11 -73 -20t-82.5 -16t-90.5 -10.5t-98 -3.5q-106 0 -191 26.5t-144.5 85t-91.5 150t-32 222.5v1343h-791v-1802h-360v1802h-312v299h2270v-299h-447v-1302q0 -53 9.5 -92t31.5 -65t58 -39t90 -13q31 0 63 1.5t64 4.5t64 7.5t63 10.5v-290z" />
    <glyph glyph-name="rho" unicode="&#x3c1;" horiz-adv-x="2408" 
d="M319 1081q0 155 21.5 294t67.5 258t118.5 214.5t173.5 163t232.5 103.5t296.5 36q173 0 310 -38.5t241.5 -109t179 -169.5t121.5 -219.5t68.5 -259.5t21.5 -289q0 -273 -65.5 -481.5t-185 -349t-287 -212t-371.5 -71.5q-92 0 -173.5 10.5t-153.5 31.5t-135 52.5
t-120 73.5v-1053h-361v2015zM1221 258q143 0 251 51.5t180.5 152t109 248t36.5 339.5q0 177 -29.5 325t-96.5 255t-176 166.5t-267 59.5q-104 0 -185.5 -27t-142.5 -77.5t-103 -122t-68.5 -161t-38 -195t-11.5 -223.5v-656q61 -38 124 -64t129.5 -42t138 -22.5t149.5 -6.5z
" />
    <glyph glyph-name="sigma1" unicode="&#x3c2;" horiz-adv-x="1966" 
d="M1356 -549q17 57 34 132t30.5 152t22.5 147t11 118h-131q-173 0 -320.5 26.5t-268 81.5t-213.5 141t-155.5 205.5t-95 273t-32.5 345.5q0 159 26 300.5t78 261t129.5 215t181 162.5t233 102.5t285.5 35.5q83 0 163 -8t151 -23.5t132 -37.5t107 -49v-312q-48 23 -109 44
t-131.5 36.5t-148.5 25t-159 9.5q-144 0 -250.5 -52.5t-176.5 -150.5t-104.5 -239.5t-34.5 -319.5q0 -184 37 -327.5t124 -241.5t230 -149.5t355 -51.5h184q69 0 120 -15.5t84 -42.5t49.5 -64.5t16.5 -82.5q0 -60 -13 -144.5t-33.5 -175.5t-46 -177.5t-50.5 -149.5h-311v0z
" />
    <glyph glyph-name="sigma" unicode="&#x3c3;" horiz-adv-x="2417" 
d="M1171 -49q-173 0 -310.5 38t-242.5 108t-179.5 168t-122 217t-69.5 256t-22 286q0 150 25 287.5t76.5 257.5t131 218t187.5 168t246.5 108t308.5 38h1135v-299h-566q72 -65 136 -151t111 -190t74.5 -222.5t27.5 -247.5q0 -140 -23.5 -271.5t-72.5 -247.5t-125.5 -211.5
t-181.5 -164.5t-240.5 -107t-303.5 -38zM1745 1016q0 118 -23.5 231t-66.5 214t-103.5 188t-134.5 153h-192q-161 0 -279.5 -57.5t-195.5 -161t-114.5 -246t-37.5 -313.5q0 -169 30.5 -310.5t98.5 -243.5t177 -159t267 -57q106 0 190 25t148 72t109 114.5t73 152.5t41 185
t13 213z" />
    <glyph glyph-name="tau" unicode="&#x3c4;" horiz-adv-x="1786" 
d="M90 2101h1606v-299h-692v-1302q0 -53 9.5 -92t31 -65t57.5 -39t90 -13q62 0 127 6t127 18v-290q-34 -11 -73 -20t-82.5 -16t-90.5 -10.5t-98 -3.5q-106 0 -191 26.5t-144.5 85t-91.5 150t-32 222.5v1343h-553v299z" />
    <glyph glyph-name="upsilon" unicode="&#x3c5;" horiz-adv-x="2335" 
d="M1192 -49q-157 0 -281 30.5t-219.5 88.5t-163 142t-110 191.5t-62.5 236.5t-20 278v1183h360v-1159q0 -117 11.5 -213t36 -172.5t63.5 -133.5t94 -94.5t127.5 -56t163.5 -18.5q138 0 233 46.5t153.5 149.5t84 268.5t25.5 403.5q0 117 -10 238.5t-28.5 245.5t-45 248
t-60.5 247h340q39 -100 70.5 -211.5t54 -234.5t35 -256.5t12.5 -276.5q0 -196 -22 -359.5t-68 -293.5t-116 -227t-166 -162t-219 -97t-273 -32z" />
    <glyph glyph-name="phi" unicode="&#x3c6;" horiz-adv-x="2998" 
d="M1327 -41q-272 9 -478 90t-345 223t-209 339t-70 438q0 243 67 440.5t203.5 339.5t343.5 223t488 90v963h344v-963q283 -9 490.5 -90t343.5 -223t202 -339.5t66 -440.5q0 -241 -70 -438t-209 -339t-345 -223t-478 -90v-893h-344v893zM598 1049q0 -186 45 -333.5
t135.5 -251.5t227.5 -161t321 -61v1626q-184 -6 -321 -65.5t-227.5 -165t-135.5 -254t-45 -334.5zM2400 1049q0 186 -45.5 334.5t-136 254t-227.5 165t-320 65.5v-1626q183 4 320 61t227.5 161t136 251.5t45.5 333.5z" />
    <glyph glyph-name="chi" unicode="&#x3c7;" horiz-adv-x="2060" 
d="M1884 -958q-74 0 -130 21t-101.5 61t-83 99t-74.5 134l-319 643q-17 32 -36 72t-36.5 83.5t-33 88.5t-26.5 88q-11 -43 -27.5 -88t-35 -88.5t-38 -83.5t-34.5 -72l-458 -934h-369l782 1548l-528 1069q-14 28 -30.5 51t-36 40t-42.5 26.5t-51 9.5q-21 0 -39.5 -1t-35 -2.5
t-33.5 -5t-35 -7.5v291q29 11 55.5 18.5t54 12.5t58.5 7.5t69 2.5q74 0 129.5 -20.5t100 -60.5t81.5 -99t74 -136l283 -585q15 -32 33 -72.5t35 -84t32.5 -88.5t26.5 -87q12 42 29 87t36 88.5t38 84t36 72.5l430 876h365l-750 -1487l566 -1130q13 -28 29.5 -51t36 -40
t43 -26.5t50.5 -9.5q22 0 40 1t35 2.5t33.5 4.5t35.5 8v-291q-29 -11 -55 -18.5t-53 -12t-57 -7t-69 -2.5z" />
    <glyph glyph-name="psi" unicode="&#x3c8;" horiz-adv-x="2896" 
d="M1274 -41q-164 14 -297.5 53t-237.5 100.5t-180 144.5t-125.5 184.5t-73.5 221.5t-24 255v1183h360v-1159q0 -152 35 -270.5t106.5 -203.5t180.5 -137.5t256 -72.5v2372h344v-2380v0q163 17 282.5 74t198 162.5t116.5 262.5t38 373q0 117 -12.5 238.5t-39 245.5
t-66.5 248t-95 247h340q57 -101 101.5 -213t75.5 -234.5t47.5 -255.5t16.5 -276q0 -184 -29 -339t-86.5 -281t-142 -223t-196 -165t-249 -108t-300.5 -51v0v-889h-344v893z" />
    <glyph glyph-name="omega" unicode="&#x3c9;" horiz-adv-x="3203" 
d="M1016 -49q-134 0 -241 36t-189 102.5t-140 160.5t-95 211t-54.5 254t-17.5 289q0 141 19 265.5t54.5 232.5t84.5 199.5t109 166t129 133t144 100.5h361q-126 -95 -225.5 -212t-169 -256.5t-106 -301.5t-36.5 -348q0 -158 21.5 -292t70.5 -231t128 -151.5t194 -54.5
q100 0 172 42t118.5 127t68.5 214.5t22 304.5v619h327v-619q0 -175 22 -304.5t68.5 -214.5t118.5 -127t172 -42q115 0 194.5 54.5t128 151.5t70 231t21.5 292q0 186 -36.5 348t-106 301.5t-169 256.5t-225.5 212h361q75 -42 144 -100.5t129 -133t109.5 -166t84.5 -199.5
t54.5 -232.5t19.5 -265.5q0 -152 -17.5 -289t-54.5 -254t-95.5 -211t-140.5 -160.5t-189 -102.5t-241 -36q-112 0 -203.5 21.5t-164 63t-126.5 100.5t-91 134q-39 -75 -93 -134t-126.5 -100.5t-163.5 -63t-203 -21.5z" />
    <glyph glyph-name="iotadieresis" unicode="&#x3ca;" horiz-adv-x="1286" 
d="M840 -25q-106 0 -191 26.5t-144.5 85t-91.5 150t-32 222.5v1642h360v-1601q0 -53 9.5 -92t31 -65t58 -39t90.5 -13q62 0 127 6t127 18v-290q-34 -11 -73 -20t-82.5 -16t-90.5 -10.5t-98 -3.5zM-32 2503v409h393v-409h-393zM763 2503v409h393v-409h-393z" />
    <glyph glyph-name="upsilondieresis" unicode="&#x3cb;" horiz-adv-x="2335" 
d="M1192 -49q-157 0 -281 30.5t-219.5 88.5t-163 142t-110 191.5t-62.5 236.5t-20 278v1183h360v-1159q0 -117 11.5 -213t36 -172.5t63.5 -133.5t94 -94.5t127.5 -56t163.5 -18.5q138 0 233 46.5t153.5 149.5t84 268.5t25.5 403.5q0 117 -10 238.5t-28.5 245.5t-45 248
t-60.5 247h340q39 -100 70.5 -211.5t54 -234.5t35 -256.5t12.5 -276.5q0 -196 -22 -359.5t-68 -293.5t-116 -227t-166 -162t-219 -97t-273 -32zM573 2503v409h393v-409h-393zM1368 2503v409h393v-409h-393z" />
    <glyph glyph-name="omicrontonos" unicode="&#x3cc;" horiz-adv-x="2384" 
d="M1192 -49q-177 0 -317.5 38.5t-247.5 109.5t-183.5 170.5t-125 221.5t-71 263t-22.5 295t24.5 296t75.5 264t129 222t185.5 171t245 109.5t307.5 38.5q178 0 319 -38.5t248.5 -109.5t183.5 -171t124 -222t70 -264t22 -296t-24 -295t-74.5 -263t-128.5 -221.5
t-185.5 -170.5t-245.5 -109.5t-309 -38.5zM1192 254q166 0 279.5 58.5t183.5 164t100.5 251.5t30.5 321q0 177 -30.5 325t-100.5 255t-183.5 166.5t-279.5 59.5q-164 0 -277.5 -59.5t-184 -166.5t-101.5 -255t-31 -325q0 -175 31 -321t101.5 -251.5t184 -164t277.5 -58.5z
M946 3105h484l-168 -721h-148z" />
    <glyph glyph-name="upsilontonos" unicode="&#x3cd;" horiz-adv-x="2335" 
d="M1192 -49q-157 0 -281 30.5t-219.5 88.5t-163 142t-110 191.5t-62.5 236.5t-20 278v1183h360v-1159q0 -117 11.5 -213t36 -172.5t63.5 -133.5t94 -94.5t127.5 -56t163.5 -18.5q138 0 233 46.5t153.5 149.5t84 268.5t25.5 403.5q0 117 -10 238.5t-28.5 245.5t-45 248
t-60.5 247h340q39 -100 70.5 -211.5t54 -234.5t35 -256.5t12.5 -276.5q0 -196 -22 -359.5t-68 -293.5t-116 -227t-166 -162t-219 -97t-273 -32zM925 3105h484l-168 -721h-148z" />
    <glyph glyph-name="omegatonos" unicode="&#x3ce;" horiz-adv-x="3203" 
d="M1016 -49q-134 0 -241 36t-189 102.5t-140 160.5t-95 211t-54.5 254t-17.5 289q0 141 19 265.5t54.5 232.5t84.5 199.5t109 166t129 133t144 100.5h361q-126 -95 -225.5 -212t-169 -256.5t-106 -301.5t-36.5 -348q0 -158 21.5 -292t70.5 -231t128 -151.5t194 -54.5
q100 0 172 42t118.5 127t68.5 214.5t22 304.5v619h327v-619q0 -175 22 -304.5t68.5 -214.5t118.5 -127t172 -42q115 0 194.5 54.5t128 151.5t70 231t21.5 292q0 186 -36.5 348t-106 301.5t-169 256.5t-225.5 212h361q75 -42 144 -100.5t129 -133t109.5 -166t84.5 -199.5
t54.5 -232.5t19.5 -265.5q0 -152 -17.5 -289t-54.5 -254t-95.5 -211t-140.5 -160.5t-189 -102.5t-241 -36q-112 0 -203.5 21.5t-164 63t-126.5 100.5t-91 134q-39 -75 -93 -134t-126.5 -100.5t-163.5 -63t-203 -21.5zM1360 3105h484l-168 -721h-148z" />
    <glyph glyph-name="uni0400" unicode="&#x400;" horiz-adv-x="2380" 
d="M414 0v2966h1781v-312h-1404v-983h1200v-311h-1200v-1049h1404v-311h-1781zM1147 3162l-549 574h483l393 -574h-327z" />
    <glyph glyph-name="uni0401" unicode="&#x401;" horiz-adv-x="2380" 
d="M414 0v2966h1781v-312h-1404v-983h1200v-311h-1200v-1049h1404v-311h-1781zM700 3257v409h393v-409h-393zM1495 3257v409h393v-409h-393z" />
    <glyph glyph-name="uni0402" unicode="&#x402;" horiz-adv-x="3043" 
d="M111 2966h1835v-312h-729v-745h589q154 0 285.5 -28.5t239.5 -83.5t191 -136.5t140 -187.5t86 -236t29 -283q0 -147 -27.5 -275t-83 -234t-140 -189t-197.5 -139.5t-256 -86.5t-316 -30h-94v307h61q114 0 207.5 19t167 56t128 92t90.5 127t53.5 160.5t17.5 192.5
q0 98 -17.5 184.5t-53 158.5t-88.5 128.5t-123.5 96t-159 60t-193.5 20.5h-536v-1602h-377v2654h-729v312z" />
    <glyph glyph-name="uni0403" unicode="&#x403;" horiz-adv-x="2138" 
d="M414 2966h1605v-312h-1228v-2654h-377v2966zM975 3162l393 574h475l-545 -574h-323z" />
    <glyph glyph-name="uni0404" unicode="&#x404;" horiz-adv-x="2454" 
d="M1454 -49q-191 0 -353.5 44t-296 130.5t-236 215.5t-172.5 299.5t-106 382.5t-36 464q0 226 32.5 427.5t98.5 371t166 305t235 229.5t304.5 144.5t375.5 50.5q115 0 225.5 -11.5t209.5 -32.5t183.5 -51.5t147.5 -68.5v-328q-65 34 -148 62.5t-179 49.5t-203 32.5
t-219 11.5q-204 0 -357 -69.5t-256.5 -201t-159.5 -320.5t-67 -429h1225v-311h-1229q6 -186 38 -337t87 -270t131 -206t170.5 -144t205.5 -84.5t236 -27.5q120 0 223.5 9t195.5 26.5t175.5 43.5t163.5 60v-320q-77 -35 -159.5 -62.5t-180 -46.5t-213 -28.5t-258.5 -9.5z" />
    <glyph glyph-name="uni0405" unicode="&#x405;" horiz-adv-x="2372" 
d="M229 438q72 -32 167.5 -62t204 -52.5t226 -36t234.5 -13.5q172 0 303 40.5t219 112t133 168t45 208.5q0 75 -16.5 135t-50 109.5t-84.5 90t-120.5 75t-157 65t-193.5 61.5q-135 39 -252 81t-213.5 93t-171.5 114t-126.5 143t-78.5 181t-27 228q0 124 26 234t79.5 203
t135 167t192.5 125.5t252.5 79t314.5 27.5q127 0 237.5 -10t205 -30.5t175 -51.5t148.5 -72v-328q-75 42 -160 72.5t-180.5 51t-201.5 30.5t-224 10q-157 0 -272.5 -36.5t-191.5 -102.5t-113.5 -158t-37.5 -203q0 -74 17 -132t51 -105.5t85.5 -85t121.5 -70.5t157.5 -62.5
t194.5 -60.5q136 -39 253.5 -82t214 -96t171 -118t125.5 -147t77.5 -184t26.5 -229q0 -122 -29.5 -233t-89.5 -207t-149.5 -174.5t-209 -134t-269.5 -85.5t-330 -30q-132 0 -254.5 10.5t-230.5 31.5t-199 51.5t-160 70.5v323z" />
    <glyph glyph-name="uni0406" unicode="&#x406;" horiz-adv-x="1671" 
d="M270 0v291h377v2384h-377v291h1131v-291h-377v-2384h377v-291h-1131z" />
    <glyph glyph-name="uni0407" unicode="&#x407;" horiz-adv-x="1671" 
d="M270 0v291h377v2384h-377v291h1131v-291h-377v-2384h377v-291h-1131zM243 3257v409h393v-409h-393zM1038 3257v409h393v-409h-393z" />
    <glyph glyph-name="uni0408" unicode="&#x408;" horiz-adv-x="1434" 
d="M-16 -242q17 -3 34 -5.5t34.5 -4t36 -2t38.5 -0.5q120 0 215 36.5t161 116.5t101 208t35 311v2257h-414v291h791v-2589q0 -252 -65 -433.5t-180 -298t-273.5 -172t-345.5 -55.5q-23 0 -46 1.5t-44.5 4.5t-41 6.5t-36.5 8.5v319z" />
    <glyph glyph-name="uni0409" unicode="&#x409;" horiz-adv-x="4186" 
d="M2159 2654h-1020v-20q0 -111 -3.5 -486.5t-20 -661t-43.5 -500.5t-72.5 -388.5t-106 -290t-140 -190.5t-174 -108t-214.5 -34q-31 0 -61.5 3t-60 9t-58 14t-54.5 19v295q28 -9 66.5 -16.5t85.5 -7.5q56 0 104.5 15.5t96.5 59t88 123t77 217.5t59 324t40 456t26 689t8 723
v68h1753v-1303h590q154 0 285.5 -26t239.5 -76t191 -122t140 -164.5t86 -204t29 -239.5q0 -129 -27.5 -240.5t-83 -204t-140 -164.5t-197.5 -121.5t-256 -75t-316 -25.5h-917v2654zM2535 1356v-1049h508q171 0 296 35t206.5 101.5t121.5 164t40 223.5q0 117 -40 213.5
t-119.5 166t-198.5 107.5t-277 38h-537z" />
    <glyph glyph-name="uni040A" unicode="&#x40a;" horiz-adv-x="4219" 
d="M414 2966h377v-1287h1400v1287h377v-1303h590q153 0 285 -26t240 -76t191 -122t139.5 -164.5t86 -204t29.5 -239.5q0 -129 -27.5 -240.5t-83 -204t-140 -164.5t-197.5 -121.5t-256 -75t-316 -25.5h-918v1368h-1400v-1368h-377v2966zM2568 1356v-1049h508q171 0 296 35
t206.5 101.5t121.5 164t40 223.5q0 117 -40 213.5t-119.5 166t-198.5 107.5t-277 38h-537z" />
    <glyph glyph-name="uni040B" unicode="&#x40b;" horiz-adv-x="3240" 
d="M111 2966h1835v-312h-729v-794q66 24 144 44t164 33.5t177.5 21t185.5 7.5q179 0 321.5 -27.5t252 -83t187 -138.5t127 -193.5t72.5 -248.5t23 -304v-971h-377v946q0 178 -36.5 309t-115.5 217t-203.5 128t-299.5 42q-77 0 -156 -3.5t-158 -11t-157 -18t-151 -24.5v-1585
h-377v2654h-729v312z" />
    <glyph glyph-name="uni040C" unicode="&#x40c;" horiz-adv-x="2601" 
d="M414 2966h377v-1324h270q42 0 76.5 6t64 18.5t56 32.5t52 49t51.5 67t56 86l651 1065h431l-689 -1131q-38 -63 -78 -116.5t-83 -96.5t-88.5 -75t-94.5 -52q49 -20 94 -52t87.5 -74.5t82.5 -95.5t80 -114l725 -1159h-430l-688 1094q-30 48 -56 86t-51.5 66.5t-52 48.5
t-56 32.5t-64 18.5t-76.5 6h-270v-1352h-377v2966zM1160 3162l393 574h475l-545 -574h-323z" />
    <glyph glyph-name="uni040D" unicode="&#x40d;" horiz-adv-x="3043" 
d="M414 2966h368v-1995q0 -48 -1.5 -105.5t-4.5 -120.5t-7.5 -127.5t-10.5 -125.5q26 64 56 128.5t62 126t64.5 118.5t63.5 106l1253 1995h373v-2966h-369v1995q0 46 1.5 102.5t4.5 118t8 125t11 125.5q-28 -65 -58 -128.5t-61.5 -124t-62.5 -115.5t-60 -103l-1253 -1995
h-377v2966zM1352 3162l-549 574h483l393 -574h-327z" />
    <glyph glyph-name="uni040E" unicode="&#x40e;" horiz-adv-x="2433" 
d="M430 -33q-21 0 -44.5 1.5t-46 4t-43.5 6.5t-38 9v295q12 -2 27 -3.5t31.5 -2.5t36 -2t40.5 -1q98 0 176.5 28t148 95.5t136 179.5t141.5 279l9 25l-955 2085h406l561 -1270q17 -40 37.5 -87.5t43 -100t46.5 -108t49 -110.5q24 55 49 110.5t49 108t46 100t40 87.5
l578 1270h401l-979 -2159q-100 -221 -197.5 -380t-208 -261t-241.5 -150.5t-299 -48.5zM1798 3736q-3 -133 -47.5 -241.5t-123.5 -186t-189.5 -120t-245.5 -42.5q-137 0 -247.5 42.5t-189.5 120t-122.5 186t-46.5 241.5h274q8 -74 35 -131t70 -96t100.5 -59.5t126.5 -20.5
q67 0 124.5 20.5t101 59.5t71 96t35.5 131h274z" />
    <glyph glyph-name="uni040F" unicode="&#x40f;" horiz-adv-x="2949" 
d="M414 2966h377v-2655h1368v2655h376v-2966h-868v-700h-385v700h-868v2966z" />
    <glyph glyph-name="uni0410" unicode="&#x410;" horiz-adv-x="2671" 
d="M2191 0l-254 758h-1224l-254 -758h-381l1052 2966h402l1061 -2966h-402zM1430 2269q-31 87 -59 183.5t-44 201.5q-18 -105 -48.5 -201.5t-57.5 -183.5l-402 -1188h1008z" />
    <glyph glyph-name="uni0411" unicode="&#x411;" horiz-adv-x="2441" 
d="M414 2966h1716v-312h-1339v-991h589q154 0 285.5 -26t239.5 -76t191 -122t140 -164.5t86 -204t29 -239.5q0 -129 -27.5 -240.5t-83 -204t-140 -164.5t-197.5 -121.5t-256 -75t-316 -25.5h-917v2966zM791 1356v-1049h507q171 0 296 35t206.5 101.5t121.5 164t40 223.5
q0 117 -40 213.5t-119.5 166t-198.5 107.5t-277 38h-536z" />
    <glyph glyph-name="uni0412" unicode="&#x412;" horiz-adv-x="2601" 
d="M414 0v2966h827q246 0 428 -52t303 -152t180.5 -246t59.5 -333q0 -115 -25 -211.5t-72 -174.5t-115.5 -139t-156.5 -106q120 -46 215 -118.5t161 -167.5t101 -210t35 -245q0 -121 -25 -228t-78 -197t-135 -161.5t-195.5 -121.5t-259.5 -76.5t-327 -26.5h-921zM1307 311
q175 0 300 37t204.5 104t117 161.5t37.5 209.5q0 117 -34 215.5t-107.5 170t-190 111.5t-282.5 40h-561v-1049h516zM1245 1655q160 0 270 35.5t178.5 102.5t99 162.5t30.5 215.5q0 106 -37.5 195t-115.5 153t-198 99.5t-284 35.5h-397v-999h454z" />
    <glyph glyph-name="uni0413" unicode="&#x413;" horiz-adv-x="2138" 
d="M414 2966h1605v-312h-1228v-2654h-377v2966z" />
    <glyph glyph-name="uni0414" unicode="&#x414;" horiz-adv-x="3154" 
d="M180 311h111q60 0 116 25.5t111 84t107 159t97 248.5t82 351.5t63 458t40.5 603.5t14.5 637v88h1724v-2655h328v-1011h-385v700h-2024v-700h-385v1011zM1270 2654v-57q0 -496 -33.5 -886t-73 -583.5t-71 -301.5t-78 -210.5t-105 -179t-135.5 -125.5h1495v2343h-999z" />
    <glyph glyph-name="uni0415" unicode="&#x415;" horiz-adv-x="2380" 
d="M414 0v2966h1781v-312h-1404v-983h1200v-311h-1200v-1049h1404v-311h-1781z" />
    <glyph glyph-name="uni0416" unicode="&#x416;" horiz-adv-x="3768" 
d="M1696 1343h-205q-63 0 -110.5 -11.5t-88 -39.5t-77.5 -76.5t-80 -121.5l-648 -1094h-430l684 1159q37 63 77 116.5t83 96t89 74t95 49.5q-46 20 -88 52t-82 75t-77 96.5t-72 116.5l-647 1131h413l611 -1065q27 -49 52 -87t49.5 -65.5t50.5 -46.5t55.5 -30t64 -16t76.5 -5
h205v1315h377v-1315h204q63 0 110 11.5t86 40t75 76.5t78 122l610 1065h414l-648 -1131q-37 -63 -74 -116.5t-76 -96.5t-81 -75t-88 -52q49 -18 94.5 -49.5t88.5 -74t83 -96t78 -116.5l684 -1159h-430l-647 1094q-29 49 -55 86.5t-51.5 65t-52 46.5t-56.5 30t-65 16t-77 5
h-204v-1343h-377v1343z" />
    <glyph glyph-name="uni0417" unicode="&#x417;" horiz-adv-x="2351" 
d="M1020 -49q-140 0 -256 11t-214.5 31t-183 49t-161.5 64v332q80 -34 164 -63.5t180 -52t208 -35.5t247 -13q122 0 222 19t179 53.5t137.5 83t97 108.5t57.5 130t19 147q0 117 -43 215.5t-130 170t-217.5 111.5t-305.5 40h-459v311h393q169 0 293.5 39.5t206 111t121 171
t39.5 219.5q0 70 -19 133.5t-55 117t-89.5 96.5t-122 73.5t-152.5 46.5t-181 16q-109 0 -210 -13.5t-192 -36.5t-170.5 -53.5t-143.5 -64.5v324q63 38 144.5 70t178 54.5t205 35t225.5 12.5q151 0 282 -24.5t239 -71.5t192 -116t141 -157.5t87 -196.5t30 -233
q0 -118 -29.5 -220t-84.5 -186t-133 -150t-175 -112q120 -48 217 -122.5t165 -170.5t105 -210.5t37 -241.5q0 -121 -30.5 -231t-91 -205t-151 -171.5t-211 -131t-271 -84t-330.5 -29.5z" />
    <glyph glyph-name="uni0418" unicode="&#x418;" horiz-adv-x="3043" 
d="M414 2966h368v-1995q0 -48 -1.5 -105.5t-4.5 -120.5t-7.5 -127.5t-10.5 -125.5q26 64 56 128.5t62 126t64.5 118.5t63.5 106l1253 1995h373v-2966h-369v1995q0 46 1.5 102.5t4.5 118t8 125t11 125.5q-28 -65 -58 -128.5t-61.5 -124t-62.5 -115.5t-60 -103l-1253 -1995
h-377v2966z" />
    <glyph glyph-name="uni0419" unicode="&#x419;" horiz-adv-x="3043" 
d="M414 2966h368v-1995q0 -48 -1.5 -105.5t-4.5 -120.5t-7.5 -127.5t-10.5 -125.5q26 64 56 128.5t62 126t64.5 118.5t63.5 106l1253 1995h373v-2966h-369v1995q0 46 1.5 102.5t4.5 118t8 125t11 125.5q-28 -65 -58 -128.5t-61.5 -124t-62.5 -115.5t-60 -103l-1253 -1995
h-377v2966zM2105 3736q-3 -133 -47.5 -241.5t-123.5 -186t-189.5 -120t-245.5 -42.5q-137 0 -247.5 42.5t-189.5 120t-122.5 186t-46.5 241.5h274q8 -74 35 -131t70 -96t100.5 -59.5t126.5 -20.5q67 0 124.5 20.5t101 59.5t71 96t35.5 131h274z" />
    <glyph glyph-name="uni041A" unicode="&#x41a;" horiz-adv-x="2601" 
d="M414 2966h377v-1324h270q42 0 76.5 6t64 18.5t56 32.5t52 49t51.5 67t56 86l651 1065h431l-689 -1131q-38 -63 -78 -116.5t-83 -96.5t-88.5 -75t-94.5 -52q49 -20 94 -52t87.5 -74.5t82.5 -95.5t80 -114l725 -1159h-430l-688 1094q-30 48 -56 86t-51.5 66.5t-52 48.5
t-56 32.5t-64 18.5t-76.5 6h-270v-1352h-377v2966z" />
    <glyph glyph-name="uni041B" unicode="&#x41b;" horiz-adv-x="2949" 
d="M2159 0v2654h-1020v-20q0 -111 -3.5 -486.5t-20 -661t-43.5 -500.5t-72.5 -388.5t-106 -290t-140 -190.5t-174 -108t-214.5 -34q-31 0 -61.5 3t-60 9t-58 14t-54.5 19v295q28 -9 66.5 -16.5t85.5 -7.5q56 0 104.5 15.5t96.5 59t88 123t77 217.5t59 324t40 456t26 689
t8 723v68h1753v-2966h-376z" />
    <glyph glyph-name="uni041C" unicode="&#x41c;" horiz-adv-x="3604" 
d="M2822 0v2068q0 89 4 203t17 232q-46 -122 -95.5 -230.5t-93.5 -187.5l-725 -1249h-250l-721 1249q-26 44 -51.5 92.5t-51.5 103t-50.5 110.5t-46.5 112q12 -112 18 -221.5t6 -213.5v-2068h-368v2966h426l815 -1426q41 -74 78 -156t69 -181q30 99 69 181t83 156l815 1426
h422v-2966h-369z" />
    <glyph glyph-name="uni041D" unicode="&#x41d;" horiz-adv-x="2982" 
d="M2191 0v1368h-1400v-1368h-377v2966h377v-1287h1400v1287h377v-2966h-377z" />
    <glyph glyph-name="uni041E" unicode="&#x41e;" horiz-adv-x="2920" 
d="M1454 -49q-221 0 -395 52t-306 148.5t-224.5 233.5t-151 306.5t-85 368.5t-26.5 419q0 221 27 420.5t85.5 370.5t152 308.5t226.5 234.5t308 149.5t397 52.5q221 0 395.5 -52t307 -148.5t225.5 -233.5t151.5 -307t85.5 -368.5t27 -418.5q0 -221 -27 -421t-86.5 -370.5
t-153 -308.5t-227 -234.5t-309 -149t-397.5 -52.5zM1462 270q148 0 264.5 41t205 117t151 184t102.5 243t58 293.5t18 334.5t-18 334t-58 293t-102.5 243t-151 184t-205.5 117t-264 41q-149 0 -266 -41t-206 -117t-152 -184t-103 -243t-58 -293t-18 -334t18 -334.5
t58 -293.5t103 -243t152 -184t206 -117t266 -41z" />
    <glyph glyph-name="uni041F" unicode="&#x41f;" horiz-adv-x="2982" 
d="M2191 2654h-1400v-2654h-377v2966h2154v-2966h-377v2654z" />
    <glyph glyph-name="uni0420" unicode="&#x420;" horiz-adv-x="2441" 
d="M414 0v2966h942q160 0 292.5 -28t238 -82.5t184 -134t131 -182t78.5 -227t26 -268.5q0 -145 -24.5 -270t-75.5 -227.5t-131 -181.5t-191 -133t-254.5 -82t-322.5 -28h-516v-1122h-377zM1274 1421q175 0 297.5 42t199 122t111.5 196t35 263q0 138 -35 252.5t-109.5 196.5
t-190.5 127.5t-279 45.5h-512v-1245h483z" />
    <glyph glyph-name="uni0421" unicode="&#x421;" horiz-adv-x="2454" 
d="M2265 98q-77 -35 -159.5 -62.5t-180 -46.5t-213 -28.5t-258.5 -9.5q-191 0 -353.5 44t-296 130.5t-236 215.5t-172.5 299.5t-106 382.5t-36 464q0 226 32.5 427.5t98.5 371t166 305t235 229.5t304.5 144.5t375.5 50.5q115 0 225.5 -11.5t209.5 -32.5t183.5 -51.5
t147.5 -68.5v-328q-65 34 -148 62.5t-179 49.5t-203 32.5t-219 11.5q-147 0 -267 -36.5t-214 -107t-162.5 -173t-113 -235t-66 -293.5t-21.5 -347q0 -209 27.5 -380t80 -305t128.5 -232.5t172.5 -163t212 -96t247.5 -31.5q120 0 223.5 9t195.5 26.5t175.5 43.5t163.5 60
v-320z" />
    <glyph glyph-name="uni0422" unicode="&#x422;" horiz-adv-x="2302" 
d="M963 0v2654h-852v312h2080v-312h-852v-2654h-376z" />
    <glyph glyph-name="uni0423" unicode="&#x423;" horiz-adv-x="2433" 
d="M430 -33q-21 0 -44.5 1.5t-46 4t-43.5 6.5t-38 9v295q12 -2 27 -3.5t31.5 -2.5t36 -2t40.5 -1q98 0 176.5 28t148 95.5t136 179.5t141.5 279l9 25l-955 2085h406l561 -1270q17 -40 37.5 -87.5t43 -100t46.5 -108t49 -110.5q24 55 49 110.5t49 108t46 100t40 87.5
l578 1270h401l-979 -2159q-100 -221 -197.5 -380t-208 -261t-241.5 -150.5t-299 -48.5z" />
    <glyph glyph-name="uni0424" unicode="&#x424;" horiz-adv-x="3056" 
d="M1339 336q-196 2 -359.5 45t-294.5 120t-228.5 184.5t-162.5 239t-97.5 283t-32.5 316.5q0 164 37 315t107.5 283t172.5 240t232.5 185.5t288 120.5t337.5 44v254h377v-254q179 -1 336 -44t287.5 -120.5t233.5 -185.5t173.5 -240t108 -283t37.5 -315q0 -165 -32.5 -316.5
t-98 -283t-163.5 -239t-229 -184.5t-294 -120t-359 -45v-336h-377v336zM553 1524q0 -124 21 -237.5t63.5 -211.5t107.5 -178.5t152 -138t197.5 -89.5t244.5 -34v1778q-126 -3 -233 -38t-194.5 -94.5t-154.5 -141.5t-112 -180t-68.5 -208t-23.5 -227zM2503 1524
q0 117 -23.5 227t-69.5 208t-113 180t-154.5 141.5t-194.5 94.5t-232 38v-1778q133 2 243 34t197.5 89.5t152.5 138t108 178.5t64.5 211.5t21.5 237.5z" />
    <glyph glyph-name="uni0425" unicode="&#x425;" horiz-adv-x="2490" 
d="M1987 0l-607 979q-18 28 -36.5 59t-35.5 64t-33 67t-30 68q-15 -34 -31.5 -68t-33 -67t-34.5 -64t-36 -59l-606 -979h-430l954 1520l-905 1446h430l553 -902q18 -29 36 -60.5t34.5 -64.5t33 -67.5t31.5 -69.5q14 35 30 69.5t33 67.5t35.5 64.5t36.5 60.5l557 902h430
l-905 -1446l959 -1520h-430z" />
    <glyph glyph-name="uni0426" unicode="&#x426;" horiz-adv-x="3043" 
d="M414 2966h377v-2655h1368v2655h376v-2655h328v-1011h-385v700h-2064v2966z" />
    <glyph glyph-name="uni0427" unicode="&#x427;" horiz-adv-x="2716" 
d="M1925 1102q-69 -23 -147.5 -42t-164.5 -32.5t-177 -21t-183 -7.5q-179 0 -321.5 27.5t-252 83t-187 138.5t-127 193.5t-72.5 249t-23 304.5v971h377v-947q0 -178 36.5 -309t115.5 -217t203.5 -128t299.5 -42q77 0 156 3t158 9.5t156.5 16.5t152.5 24v1590h377v-2966h-377
v1102z" />
    <glyph glyph-name="uni0428" unicode="&#x428;" horiz-adv-x="4497" 
d="M414 2966h377v-2655h1269v2655h377v-2655h1270v2655h377v-2966h-3670v2966z" />
    <glyph glyph-name="uni0429" unicode="&#x429;" horiz-adv-x="4592" 
d="M414 2966h377v-2655h1269v2655h377v-2655h1270v2655h377v-2655h327v-1011h-385v700h-3612v2966z" />
    <glyph glyph-name="uni042A" unicode="&#x42a;" horiz-adv-x="2888" 
d="M98 2966h1139v-1303h590q154 0 285.5 -26t239.5 -76t191 -122t139.5 -164.5t86 -204t29.5 -239.5q0 -129 -27.5 -240.5t-83 -204t-140 -164.5t-197.5 -121.5t-256 -75t-316 -25.5h-918v2654h-762v312zM1237 1356v-1049h508q171 0 295.5 35t206.5 101.5t121.5 164
t39.5 223.5q0 117 -40 213.5t-119.5 166t-198 107.5t-276.5 38h-537z" />
    <glyph glyph-name="uni042B" unicode="&#x42b;" horiz-adv-x="3518" 
d="M414 2966h377v-1303h589q154 0 285.5 -26t239.5 -76t191 -122t140 -164.5t86 -204t29 -239.5q0 -129 -27.5 -240.5t-83 -204t-140 -164.5t-197.5 -121.5t-256 -75t-316 -25.5h-917v2966zM2728 2966h377v-2966h-377v2966zM791 1356v-1049h507q171 0 296 35t206.5 101.5
t121.5 164t40 223.5q0 117 -40 213.5t-119.5 166t-198.5 107.5t-277 38h-536z" />
    <glyph glyph-name="uni042C" unicode="&#x42c;" horiz-adv-x="2441" 
d="M414 2966h377v-1303h589q154 0 285.5 -26t239.5 -76t191 -122t140 -164.5t86 -204t29 -239.5q0 -129 -27.5 -240.5t-83 -204t-140 -164.5t-197.5 -121.5t-256 -75t-316 -25.5h-917v2966zM791 1356v-1049h507q171 0 296 35t206.5 101.5t121.5 164t40 223.5
q0 117 -40 213.5t-119.5 166t-198.5 107.5t-277 38h-536z" />
    <glyph glyph-name="uni042D" unicode="&#x42d;" horiz-adv-x="2454" 
d="M676 1655h1200q-8 235 -63.5 424t-160 322.5t-258.5 205.5t-358 72q-112 0 -219 -11.5t-203 -32.5t-179.5 -49.5t-147.5 -62.5v324q63 38 147 69t183 53t209.5 34t226.5 12q206 0 375.5 -50.5t304.5 -144.5t235 -229.5t166 -305t98.5 -371t32.5 -427.5q0 -252 -37 -464
t-109 -382.5t-176.5 -299.5t-240 -215.5t-299.5 -130.5t-354 -44q-137 0 -249.5 9.5t-208 28.5t-178 46.5t-159.5 62.5v320q80 -34 163.5 -60t175.5 -43.5t195.5 -26.5t223.5 -9q123 0 233.5 28t205.5 85.5t172 145t132.5 205.5t87.5 268t37 332h-1204v312z" />
    <glyph glyph-name="uni042E" unicode="&#x42e;" horiz-adv-x="4190" 
d="M414 2966h377v-1287h749q11 195 47 369.5t100 323t158.5 267.5t223.5 202.5t293.5 128.5t369.5 45q221 0 395.5 -52t307 -148.5t225.5 -233.5t151.5 -307t85.5 -368.5t27 -418.5q0 -221 -27 -421t-86.5 -370.5t-153 -308.5t-227 -234.5t-309 -149t-397.5 -52.5
q-212 0 -380.5 48t-298.5 136.5t-223.5 215t-155 284t-93 342.5t-37.5 391h-745v-1368h-377v2966zM2732 270q147 0 264 41t205.5 117t151 184t102.5 243t58 293.5t18 334.5t-18 334t-58 293t-102.5 243t-151 184t-205.5 117t-264 41q-148 0 -265.5 -41t-206.5 -117
t-152 -184t-103 -243t-58 -293t-18 -334t18 -334.5t58 -293.5t103 -243t152 -184t206 -117t266 -41z" />
    <glyph glyph-name="uni042F" unicode="&#x42f;" horiz-adv-x="2671" 
d="M1880 1245h-311q-42 0 -76.5 -5.5t-64.5 -18.5t-56 -33t-52 -48.5t-52 -66.5t-56 -86l-618 -987h-438l663 1053q53 83 110 141t115 92q-135 31 -252.5 94t-204 164.5t-136.5 244t-50 333.5q0 215 59 373.5t177.5 263t296 156t414.5 51.5h909v-2966h-377v1245zM791 2122
q0 -152 42.5 -262.5t123.5 -182.5t198 -106.5t266 -34.5h459v1130h-475q-161 0 -277 -34t-191 -101.5t-110.5 -170t-35.5 -238.5z" />
    <glyph glyph-name="uni0430" unicode="&#x430;" horiz-adv-x="2232" 
d="M1561 0l-25 168q-63 -49 -134 -89t-150 -68.5t-166.5 -44t-184.5 -15.5q-153 0 -278.5 41.5t-215 118.5t-138 187t-48.5 247q0 113 32 207t95 168t156 129t215 91t272.5 54t327.5 18h79.5h68.5h61v144q0 129 -28 220.5t-87.5 150t-153 85.5t-223.5 27
q-104 0 -200.5 -14.5t-182 -37t-157.5 -50.5t-127 -54v291q64 35 143.5 67t169.5 56t189.5 38.5t205.5 14.5q181 0 330.5 -38t256.5 -124.5t165.5 -227.5t58.5 -347v-1413h-327zM1528 946h-156q-209 0 -357 -24.5t-242.5 -73.5t-138.5 -123t-44 -172q0 -74 24.5 -130.5
t73 -95t121.5 -58t170 -19.5q78 0 150 10t139.5 31t132 52.5t127.5 74.5v528z" />
    <glyph glyph-name="uni0431" unicode="&#x431;" horiz-adv-x="2404" 
d="M1204 -49q-169 0 -304.5 39.5t-240 115.5t-180 187t-123.5 254t-71 316t-23 374q0 311 22 550t70.5 419t125.5 308t186 218.5t253 150.5t326 103l692 164v-320l-651 -164q-108 -28 -193.5 -60t-151.5 -75t-114.5 -99.5t-82.5 -133t-55.5 -175.5t-33.5 -227
q60 45 127.5 81t143.5 62t160 40t176 14q168 0 301 -38t235 -108t174 -168t118 -217t67.5 -256.5t21.5 -285.5q0 -147 -24.5 -284t-76 -255.5t-130.5 -216t-187.5 -167.5t-247 -108t-309.5 -38zM1180 1786q-78 0 -150 -9.5t-139 -29t-129.5 -49.5t-122.5 -72
q-3 -83 -3.5 -172.5t-0.5 -191.5q0 -240 31 -427.5t99.5 -316.5t178.5 -196.5t268 -67.5q109 0 195 25.5t152 73t113 115.5t76.5 153t43.5 185.5t14 213.5q0 117 -16 219t-49.5 187t-84.5 152t-120.5 113t-158.5 70.5t-197 24.5z" />
    <glyph glyph-name="uni0432" unicode="&#x432;" horiz-adv-x="2236" 
d="M381 2101h762q192 0 334.5 -37t236.5 -107.5t140.5 -173.5t46.5 -235q0 -81 -17.5 -149.5t-51 -124.5t-82.5 -100t-112 -76q89 -34 159 -85.5t118.5 -118.5t74 -148t25.5 -173q0 -128 -45 -233t-142 -181t-248 -117.5t-363 -41.5h-836v2101zM733 938v-651h463
q120 0 205.5 22t140 63t80 98t25.5 128q0 74 -25 136.5t-78 107.5t-137.5 70.5t-202.5 25.5h-471zM733 1815v-611h389q114 0 192.5 21.5t128 63t71.5 101t22 134.5q0 64 -25.5 118t-78.5 92t-134 59.5t-192 21.5h-373z" />
    <glyph glyph-name="uni0433" unicode="&#x433;" horiz-adv-x="1708" 
d="M381 2101h1302v-299h-942v-1802h-360v2101z" />
    <glyph glyph-name="uni0434" unicode="&#x434;" horiz-adv-x="2429" 
d="M41 299h123q83 0 150.5 41.5t120 137t89 271t53.5 401.5t23 458.5t6 425.5v67h1426v-1802h299v-848h-365v549h-1560v-549h-365v848zM946 1802v-52q0 -156 -7 -331.5t-23 -338t-40.5 -292.5t-57 -224t-77 -162t-114.5 -103h1044v1503h-725z" />
    <glyph glyph-name="uni0435" unicode="&#x435;" horiz-adv-x="2236" 
d="M1901 102q-62 -32 -136.5 -60t-164 -48t-194.5 -31.5t-226 -11.5q-157 0 -287.5 34t-235.5 99.5t-183.5 161t-131 219.5t-78.5 274.5t-26 325.5q0 156 23.5 297t71.5 261.5t121 218t171 166t222 105.5t275 37q148 0 271.5 -35.5t222 -100.5t172 -156.5t122 -203.5
t73 -242.5t24.5 -272.5q0 -20 -0.5 -41.5t-2 -41.5t-3 -37t-2.5 -28h-1397q6 -175 45 -309.5t115 -226t190 -138.5t269 -47q117 0 215.5 12t182.5 30.5t153.5 42t128.5 46.5v-299zM1638 1270q-6 133 -43 242t-102.5 186.5t-159 119.5t-211.5 42t-211 -42t-159 -119.5
t-104 -186.5t-46 -242h1036z" />
    <glyph glyph-name="uni0436" unicode="&#x436;" horiz-adv-x="3047" 
d="M1343 918h-131q-46 0 -79 -6.5t-61.5 -24.5t-55 -49t-58.5 -80l-503 -758h-414l549 831q26 40 58.5 76.5t70.5 66t81 51t89 32.5q-43 12 -82 34.5t-74 53t-66 67.5t-57 78l-528 811h393l471 -741q32 -49 60 -80t57.5 -49t64 -24.5t80.5 -6.5h135v901h361v-901h139
q46 0 81 6.5t65 24.5t57.5 49t58.5 80l467 741h394l-529 -811q-26 -41 -56.5 -78t-65 -67.5t-73.5 -53t-83 -34.5q46 -11 89 -32.5t82 -51t72.5 -66t59.5 -76.5l544 -831h-409l-504 758q-34 49 -60.5 80t-54 49t-60.5 24.5t-79 6.5h-135v-918h-361v918z" />
    </font>
</defs>
</svg>
