<?xml version="1.0" standalone="no"?>
<!DOCTYPE svg PUBLIC "-//W3C//DTD SVG 1.1//EN" "http://www.w3.org/Graphics/SVG/1.1/DTD/svg11.dtd" >
<svg xmlns="http://www.w3.org/2000/svg" xmlns:xlink="http://www.w3.org/1999/xlink" version="1.1">
<metadata>
Created by FontForge 20170731 at Mon Jun 28 23:14:06 2010
 By Aleksey,,,
Designed by Paul van der Laan &#38; Pieter van Rosmalen 2008. Produced by Bold Monday. For exclusive use by AUDI AG and its affiliates only.
</metadata>
<defs>
<font id="AudiType-ExtendedBold" horiz-adv-x="3465" >
  <font-face 
    font-family="Audi Type Extended"
    font-weight="700"
    font-stretch="expanded"
    units-per-em="4096"
    panose-1="2 11 8 5 4 2 0 0 0 3"
    ascent="3113"
    descent="-983"
    x-height="2101"
    cap-height="2966"
    bbox="-1454 -983 9085 4014"
    underline-thickness="205"
    underline-position="-614"
    unicode-range="U+000D-FB04"
  />
<missing-glyph horiz-adv-x="1212" 
d="M258 -864v3830h696v-3830h-696z" />
    <glyph glyph-name="uniFB00" unicode="ff" horiz-adv-x="4030" 
d="M2511 0v1642h-1266v-1642h-635v1642h-463v459h463v62q0 226 72.5 388.5t203.5 267.5t313.5 154.5t402.5 49.5q93 0 168.5 -5t141 -15t126 -23.5t125.5 -30.5v-450q-56 13 -108 25t-104.5 21t-107 14t-114.5 5q-119 0 -209 -20.5t-151.5 -70.5t-92.5 -133.5t-31 -209.5
v-29h1266v62q0 226 72.5 388.5t203.5 267.5t313 154.5t402 49.5q94 0 169 -5t140.5 -15t126 -23.5t125.5 -30.5v-450q-55 13 -107.5 25t-105 21t-107 14t-114.5 5q-118 0 -208.5 -20.5t-151.5 -70.5t-92 -133.5t-31 -209.5v-29h819v-459h-819v-1642h-635z" />
    <glyph glyph-name="fi" unicode="fi" horiz-adv-x="3576" 
d="M2531 0v1642h-1286v-1642h-635v1642h-463v459h463v62q0 226 72.5 388.5t203.5 267.5t313.5 154.5t402.5 49.5q93 0 168.5 -5t141 -15t126 -23.5t125.5 -30.5v-450q-56 13 -108 25t-104.5 21t-107 14t-114.5 5q-119 0 -209 -20.5t-151.5 -70.5t-92.5 -133.5t-31 -209.5
v-29h1929v-2101h-643zM2531 2408v558h643v-558h-643z" />
    <glyph glyph-name="fl" unicode="fl" horiz-adv-x="3858" 
d="M610 0v1642h-463v459h463v62q0 226 72.5 388.5t203.5 267.5t313.5 154.5t402.5 49.5q93 0 168.5 -5t141 -15t126 -23.5t125.5 -30.5v-450q-56 13 -108 25t-104.5 21t-107 14t-114.5 5q-119 0 -209 -20.5t-151.5 -70.5t-92.5 -133.5t-31 -209.5v-29h819v-459h-819v-1642
h-635zM3785 37q-52 -20 -116.5 -36.5t-135.5 -28.5t-146 -18.5t-147 -6.5q-200 0 -339 44t-227 127.5t-127.5 204.5t-39.5 275v2368h643v-2282q0 -55 10 -100t42 -76.5t91.5 -48.5t159.5 -17q93 0 175 13.5t157 31.5v-450z" />
    <glyph glyph-name="uniFB03" unicode="ffi" horiz-adv-x="5476" 
d="M4432 0v1642h-1286v-1642h-635v1642h-1266v-1642h-635v1642h-463v459h463v62q0 226 72.5 388.5t203.5 267.5t313.5 154.5t402.5 49.5q93 0 168.5 -5t141 -15t126 -23.5t125.5 -30.5v-450q-56 13 -108 25t-104.5 21t-107 14t-114.5 5q-119 0 -209 -20.5t-151.5 -70.5
t-92.5 -133.5t-31 -209.5v-29h1266v62q0 226 72.5 388.5t203.5 267.5t313 154.5t402 49.5q94 0 169 -5t140.5 -15t126 -23.5t125.5 -30.5v-450q-55 13 -107.5 25t-105 21t-107 14t-114.5 5q-118 0 -208.5 -20.5t-151.5 -70.5t-92 -133.5t-31 -209.5v-29h1929v-2101h-643z
M4432 2408v558h643v-558h-643z" />
    <glyph glyph-name="uniFB04" unicode="ffl" horiz-adv-x="5759" 
d="M2511 0v1642h-1266v-1642h-635v1642h-463v459h463v62q0 226 72.5 388.5t203.5 267.5t313.5 154.5t402.5 49.5q93 0 168.5 -5t141 -15t126 -23.5t125.5 -30.5v-450q-56 13 -108 25t-104.5 21t-107 14t-114.5 5q-119 0 -209 -20.5t-151.5 -70.5t-92.5 -133.5t-31 -209.5
v-29h1266v62q0 226 72.5 388.5t203.5 267.5t313 154.5t402 49.5q94 0 169 -5t140.5 -15t126 -23.5t125.5 -30.5v-450q-55 13 -107.5 25t-105 21t-107 14t-114.5 5q-118 0 -208.5 -20.5t-151.5 -70.5t-92 -133.5t-31 -209.5v-29h819v-459h-819v-1642h-635zM5685 37
q-52 -20 -116.5 -36.5t-135.5 -28.5t-146 -18.5t-147 -6.5q-200 0 -339 44t-227 127.5t-127.5 204.5t-39.5 275v2368h643v-2282q0 -55 10 -100t42 -76.5t91.5 -48.5t159.5 -17q93 0 175 13.5t157 31.5v-450z" />
    <glyph glyph-name=".notdef" horiz-adv-x="1212" 
d="M258 -864v3830h696v-3830h-696z" />
    <glyph glyph-name=".null" horiz-adv-x="0" 
 />
    <glyph glyph-name=".null" horiz-adv-x="0" 
 />
    <glyph glyph-name="nonmarkingreturn" unicode="&#xd;" horiz-adv-x="1397" 
 />
    <glyph glyph-name="space" unicode=" " horiz-adv-x="1397" 
 />
    <glyph glyph-name="exclam" unicode="!" horiz-adv-x="1675" 
d="M635 934l-62 385q-8 49 -16.5 116.5t-16.5 145.5t-15.5 163t-13 170.5t-8.5 167.5t-3 154v730h676v-730q0 -71 -4 -153.5t-10 -167.5t-14.5 -170t-17 -163t-17 -144.5t-15.5 -114.5l-58 -389h-405zM492 0v618h692v-618h-692z" />
    <glyph glyph-name="quotedbl" unicode="&#x22;" horiz-adv-x="2322" 
d="M520 1806l-53 217q-15 63 -35 142t-38 162.5t-30 167t-12 155.5v316h635v-316q0 -72 -12 -155.5t-30 -167t-38 -162.5t-35 -142l-53 -217h-299zM1503 1806l-53 217q-15 63 -35 142t-38 162.5t-30 167t-12 155.5v316h635v-316q0 -72 -12 -155.5t-30 -167t-38 -162.5
t-35 -142l-53 -217h-299z" />
    <glyph glyph-name="numbersign" unicode="#" 
d="M1950 160l45 499h-672l-45 -499h-533l46 499h-459v426h495l70 758h-565v426h606l45 471h533l-46 -471h672l45 471h533l-45 -471h458v-426h-499l-70 -758h569v-426h-606l-45 -499h-532zM2101 1843h-671l-70 -758h672z" />
    <glyph glyph-name="dollar" unicode="$" 
d="M1479 -381v393q-165 3 -316 17.5t-283 38t-242 54.5t-192 66v492q62 -22 139 -44.5t164 -42.5t182 -37t195.5 -29.5t203.5 -19.5t206 -7q218 0 377.5 20t263 62t153.5 108t50 158q0 48 -17.5 88t-55.5 75t-97.5 65.5t-144.5 59.5t-196 57.5t-251 59.5q-254 55 -462 128.5
t-357 176t-230.5 238.5t-81.5 318q0 163 66.5 299t193 240.5t311 174.5t421.5 101v417h499v-397q143 -5 272.5 -18.5t242.5 -34.5t209 -49t173 -62v-487q-97 32 -212.5 62t-246 52.5t-274 36t-295.5 13.5q-192 0 -330 -18.5t-226.5 -57.5t-130.5 -99.5t-42 -144.5
q0 -48 18.5 -89t57.5 -76t100.5 -66.5t147.5 -60.5t198 -57t252 -56q260 -53 468.5 -122.5t355 -170.5t225 -240.5t78.5 -331.5q0 -167 -64 -307t-193.5 -247.5t-325 -180t-458.5 -104.5v-414h-499z" />
    <glyph glyph-name="percent" unicode="%" horiz-adv-x="5173" 
d="M1274 1319q-226 0 -402 60t-297 171.5t-184 269.5t-63 355q0 192 65.5 349.5t188 270t297.5 174.5t395 62q226 0 402 -60t297 -171.5t184 -270t63 -354.5q0 -128 -29.5 -241t-85.5 -208.5t-138 -170.5t-187 -127.5t-232.5 -80.5t-273.5 -28zM1274 1724q104 0 178.5 36
t122 97.5t70 143.5t22.5 174t-22.5 174t-70 143.5t-122 97.5t-178.5 36q-105 0 -179.5 -36t-122 -97.5t-69.5 -143.5t-22 -174t22 -174t69.5 -143.5t122 -97.5t179.5 -36zM3899 -66q-226 0 -402 60t-297 171.5t-184 270t-63 355.5q0 192 65.5 349.5t188 270t298 174.5
t394.5 62q226 0 402.5 -60t297.5 -171.5t184 -270t63 -354.5q0 -192 -65.5 -350t-188 -270.5t-298 -174.5t-395.5 -62zM3899 340q105 0 179.5 36t122 97.5t70 143.5t22.5 174t-22.5 173.5t-70 143t-122 97.5t-179.5 36q-104 0 -178.5 -36t-122 -97.5t-70 -143t-22.5 -173.5
t22.5 -174t70 -143.5t122 -97.5t178.5 -36zM975 0l2584 2966h631l-2584 -2966h-631z" />
    <glyph glyph-name="ampersand" unicode="&#x26;" horiz-adv-x="4121" 
d="M3178 0l-360 270q-134 -83 -281.5 -146t-304.5 -105t-320 -63.5t-327 -21.5q-236 0 -430 32t-346.5 89t-264.5 136.5t-185.5 175t-109.5 203t-36 221.5q0 100 24.5 186t71 161t113 141t150.5 125t184.5 114t214.5 108l49 21l-49 41q-81 61 -150.5 132.5t-119.5 154
t-78.5 176.5t-28.5 200q0 122 35 220t99 173.5t155 129.5t203.5 89t243.5 51.5t276 16.5q221 0 406.5 -36.5t320 -117.5t209.5 -210.5t75 -315.5q0 -118 -51 -226t-134.5 -201t-191 -168.5t-221.5 -129.5l-94 -45l877 -668q66 80 118.5 172t88.5 195.5t55.5 217.5t19.5 239
v123h885v-484h-352q-25 -115 -64.5 -220.5t-91.5 -202t-116 -184t-138 -167.5l799 -602h-828zM1421 1339l-164 -77q-74 -36 -143 -78.5t-123 -94.5t-86.5 -114t-32.5 -135q0 -111 52 -192t149.5 -134t237.5 -78.5t315 -25.5q100 0 201 11.5t200 34t193 56t180 78.5z
M1696 1966q97 46 161 92t102 92.5t53.5 93.5t15.5 95q0 57 -27.5 104t-81 81.5t-132 53.5t-181.5 19q-100 0 -178.5 -16t-132.5 -48.5t-82.5 -81t-28.5 -112.5q0 -49 15.5 -97.5t46.5 -96.5t78 -95.5t110 -95.5l90 -70z" />
    <glyph glyph-name="quotesingle" unicode="'" horiz-adv-x="1339" 
d="M520 1806l-53 217q-15 63 -35 142t-38 162.5t-30 167t-12 155.5v316h635v-316q0 -72 -12 -155.5t-30 -167t-38 -162.5t-35 -142l-53 -217h-299z" />
    <glyph glyph-name="parenleft" unicode="(" horiz-adv-x="1901" 
d="M1303 -377q-126 82 -242.5 189.5t-217.5 236.5t-184 278.5t-142 315.5t-91.5 347t-32.5 374q0 192 32.5 373.5t91.5 347.5t142 315.5t184 278.5t217.5 236.5t242.5 189.5h507q-108 -91 -210 -202.5t-191 -241t-163 -276.5t-126.5 -310t-82 -341.5t-29.5 -369.5
q0 -192 29.5 -370.5t82 -342t126.5 -310t163 -276t190.5 -240.5t210.5 -202h-507z" />
    <glyph glyph-name="parenright" unicode=")" horiz-adv-x="1901" 
d="M90 -377q108 91 210 202t191 240.5t163 276t127 310t82.5 341.5t29.5 371q0 191 -29.5 369.5t-82.5 341.5t-127 310t-163 276.5t-191 241t-210 202.5h508q126 -82 242.5 -189.5t217.5 -236.5t183.5 -278.5t141.5 -315.5t91.5 -347.5t32.5 -373.5t-32.5 -373.5
t-91.5 -347.5t-141.5 -315.5t-183.5 -278.5t-217.5 -236.5t-242.5 -189.5h-508z" />
    <glyph glyph-name="asterisk" unicode="*" horiz-adv-x="2310" 
d="M1393 1417l-115 197q-17 29 -34.5 63t-34 70.5t-31.5 74t-27 74.5q-11 -37 -25 -74.5t-30.5 -74t-33.5 -70.5t-34 -63l-115 -197l-331 193l114 196q31 59 77.5 124.5t98.5 121.5q-74 -15 -154.5 -22t-148.5 -7h-290v385h290q68 0 151 -8.5t161 -23.5q-53 55 -100 121.5
t-81 128.5l-114 196l332 193l114 -197q17 -31 34 -65.5t33.5 -71.5t30.5 -75t25 -75q12 37 27 75t31.5 75t34 71.5t34.5 65.5l115 197l332 -193l-115 -196q-17 -29 -37.5 -61t-43.5 -64t-48 -64t-51 -61q38 9 78 15t80 10t77.5 5.5t71.5 1.5h291v-385h-291q-35 0 -74.5 2
t-79.5 5.5t-80 10t-77 15.5q52 -59 99 -125t81 -125l114 -196z" />
    <glyph glyph-name="plus" unicode="+" horiz-adv-x="3269" 
d="M1327 160v815h-1073v491h1073v795h615v-795h1073v-491h-1073v-815h-615z" />
    <glyph glyph-name="comma" unicode="," horiz-adv-x="1610" 
d="M143 -623l373 713l-106 590h467q93 0 160.5 -24.5t111 -69.5t64 -109.5t20.5 -144.5q0 -60 -19 -127t-52.5 -139t-80 -147t-102 -149t-118.5 -145.5t-128 -136.5l-110 -111h-480z" />
    <glyph glyph-name="hyphen" unicode="-" horiz-adv-x="1937" 
d="M246 942v553h1446v-553h-1446z" />
    <glyph glyph-name="period" unicode="." horiz-adv-x="1610" 
d="M434 0v684h742v-684h-742z" />
    <glyph glyph-name="slash" unicode="/" horiz-adv-x="2302" 
d="M49 0l1618 2966h586l-1614 -2966h-590z" />
    <glyph glyph-name="zero" unicode="0" 
d="M1724 -66q-275 0 -491 57t-378.5 160t-276 245t-185 312.5t-103.5 362.5t-32 395q0 205 34 400.5t107.5 369.5t190 320t282 251.5t382 164.5t491.5 59q276 0 491 -57t377.5 -159t275.5 -244t183.5 -311.5t102.5 -361.5t32 -395q0 -205 -33.5 -400.5t-107 -370
t-189.5 -321t-280.5 -252.5t-381.5 -165.5t-491 -59.5zM1733 434q149 0 267.5 34t208.5 98.5t153.5 157t104 209t59 255t18.5 295.5q0 158 -18.5 296.5t-59 254.5t-104 207.5t-153.5 155t-208.5 97t-267.5 33.5t-267 -33.5t-208 -97t-153 -155t-102.5 -207.5t-58 -254.5
t-18.5 -296.5q0 -157 18.5 -295.5t58 -255t102.5 -209t153 -157t207.5 -98.5t267.5 -34z" />
    <glyph glyph-name="one" unicode="1" 
d="M795 0v483h692v1921l-692 -151v500l888 213h463v-2483h693v-483h-2044z" />
    <glyph glyph-name="two" unicode="2" 
d="M418 0v426l962 713q126 93 229 174.5t184 156t140.5 143t98.5 134.5t58 132t19 136q0 124 -36.5 219t-114.5 159.5t-199.5 97t-292.5 32.5q-106 0 -225.5 -13.5t-240 -37.5t-235.5 -58t-212 -75v500q91 37 192.5 71.5t219 61.5t253 43t293.5 16q225 0 407 -30t323 -88.5
t243 -143.5t168 -194.5t97.5 -243t31.5 -287.5q0 -146 -40 -273.5t-110.5 -240.5t-165.5 -213.5t-205 -192.5t-230 -178.5t-240 -171.5l-410 -291h1663v-483h-2625z" />
    <glyph glyph-name="three" unicode="3" 
d="M467 610q98 -34 215.5 -66t250.5 -57.5t279.5 -41t303.5 -15.5q190 0 337.5 33t248 90.5t152.5 135.5t52 167q0 86 -49 168t-149.5 145.5t-254 102.5t-362.5 39h-373v475h373q175 0 302.5 28t210.5 78t123 119t40 152q0 53 -22.5 100.5t-65 87.5t-102 72t-133 54t-160 34
t-181.5 12q-118 0 -246.5 -15.5t-254.5 -42.5t-244.5 -64.5t-216.5 -82.5v492q59 31 128.5 59t147 53t163.5 45t178 34t190 22t200 8q301 0 541.5 -58t409 -164t258.5 -255t90 -330q0 -104 -34 -201t-103 -182t-173 -155t-243 -121q180 -53 312.5 -127t219.5 -166.5
t129.5 -201.5t42.5 -230q0 -123 -39.5 -238t-119.5 -215.5t-200 -184t-280.5 -143t-362 -92.5t-444.5 -33q-186 0 -344 15t-292 40.5t-245.5 59t-203.5 70.5v491z" />
    <glyph glyph-name="four" unicode="4" 
d="M2036 0v582h-1790v426l1822 1958h623v-1901h586v-483h-586v-582h-655zM2036 1815v188v188q-65 -71 -131 -141t-131 -141l-787 -844h1049v750z" />
    <glyph glyph-name="five" unicode="5" 
d="M487 610q99 -34 216.5 -66t250 -57.5t279 -41t303.5 -15.5q226 0 383.5 33t256 91t143 136.5t44.5 169.5q0 85 -51 152t-140.5 119t-210 90.5t-259 65.5t-288.5 44t-298.5 26.5t-288.5 12.5t-258 2l66 1594h2253v-484h-1635l-24 -614q144 -8 298 -22.5t309 -39.5
t305 -62.5t284.5 -91t248.5 -125t197 -164.5t129.5 -209.5t46.5 -260.5q0 -132 -37 -254.5t-114.5 -229t-197 -194t-283 -150t-373.5 -97t-469 -34.5q-186 0 -344.5 15t-292.5 40.5t-245.5 59t-203.5 70.5v491z" />
    <glyph glyph-name="six" unicode="6" 
d="M2949 2376q-83 27 -184.5 53.5t-214.5 47.5t-233 33.5t-240 12.5q-238 0 -420.5 -49t-312.5 -143.5t-210 -232.5t-114 -316q80 46 169.5 83t189 63t208.5 40t228 14q212 0 394 -31t331.5 -90.5t265.5 -146.5t195 -198.5t120 -246t41 -290.5q0 -138 -39.5 -269.5
t-118.5 -247.5t-197.5 -213t-275.5 -167t-354 -109t-432 -39q-349 0 -616.5 93t-449 273.5t-275 446t-93.5 609.5q0 398 105 709.5t321 526t545 327t778 112.5q132 0 257.5 -13t239.5 -34.5t213 -49.5t179 -59v-499zM971 1315q0 -170 30.5 -303t84.5 -233.5t128.5 -171
t163 -114t187 -63.5t200.5 -20q178 0 311.5 47t221.5 125.5t132 181.5t44 215q0 123 -49 217t-140.5 158t-222 96.5t-293.5 32.5q-117 0 -223.5 -10t-205 -31t-190.5 -52.5t-179 -74.5z" />
    <glyph glyph-name="seven" unicode="7" 
d="M791 0l1531 2482h-1863v484h2597v-431l-1573 -2535h-692z" />
    <glyph glyph-name="eight" unicode="8" 
d="M2494 1569q127 -35 231 -81t185.5 -102.5t141 -121.5t99 -138t58.5 -152t19 -163q0 -118 -40 -228.5t-121 -208t-204 -178.5t-289 -139t-376 -90.5t-465 -32.5t-465 32.5t-376 90.5t-289 139t-204 178.5t-121 208t-40 228.5q0 84 19.5 163t60 152t101.5 138t144.5 121.5
t189 102.5t234.5 81q-147 46 -258.5 111.5t-186 147t-112 178.5t-37.5 206q0 186 89.5 337t261 258t420.5 165.5t569 58.5q322 0 572.5 -58.5t421.5 -165.5t260 -258t89 -337q0 -109 -36 -206t-108.5 -178.5t-182 -147t-255.5 -111.5zM2548 868q0 83 -46 164.5t-145 146
t-253.5 104.5t-370.5 40q-214 0 -368 -40t-253.5 -104.5t-146.5 -146t-47 -164.5t48.5 -165t148.5 -147t253.5 -105.5t364.5 -40.5q209 0 362.5 40.5t254 105.5t149.5 147t49 165zM2408 2159q0 83 -44 157t-129.5 130t-211.5 89t-290 33q-165 0 -291 -33t-211.5 -89
t-129.5 -130t-44 -157t40 -153.5t123 -122t210.5 -80.5t302.5 -29t302.5 29t210 80.5t122.5 122t40 153.5z" />
    <glyph glyph-name="nine" unicode="9" 
d="M516 590q83 -28 184.5 -54.5t214.5 -47.5t233.5 -33.5t240.5 -12.5q262 0 454 58.5t321.5 165t202 255t95.5 328.5q-81 -48 -173 -86.5t-194 -65.5t-213 -42t-231 -15q-315 0 -565 63.5t-424 187.5t-266.5 305.5t-92.5 418.5q0 136 39.5 264.5t118.5 241.5t197.5 206.5
t275.5 161t353.5 105t432.5 37.5q349 0 616.5 -93t449 -273.5t275 -445.5t93.5 -609q0 -398 -105 -709.5t-321 -526.5t-545.5 -327.5t-777.5 -112.5q-132 0 -257.5 13t-239 34.5t-213 49.5t-179.5 59v500zM2494 1704q-3 130 -28 243.5t-71 208.5t-113.5 169t-154.5 125.5
t-194 78.5t-233 27q-178 0 -311 -44t-221.5 -118.5t-132.5 -172.5t-44 -206q0 -118 49 -207t140.5 -148.5t222 -89.5t293.5 -30q117 0 222.5 10t204 30.5t190.5 51t181 72.5z" />
    <glyph glyph-name="colon" unicode=":" horiz-adv-x="1610" 
d="M434 1417v684h742v-684h-742zM434 0v684h742v-684h-742z" />
    <glyph glyph-name="semicolon" unicode=";" horiz-adv-x="1610" 
d="M434 1417v684h742v-684h-742zM143 -623l373 713l-106 590h467q93 0 160.5 -24.5t111 -69.5t64 -109.5t20.5 -144.5q0 -60 -19 -127t-52.5 -139t-80 -147t-102 -149t-118.5 -145.5t-128 -136.5l-110 -111h-480z" />
    <glyph glyph-name="less" unicode="&#x3c;" horiz-adv-x="3269" 
d="M1954 184l-1553 1028l1553 1029h913l-1511 -1029l1511 -1028h-913z" />
    <glyph glyph-name="equal" unicode="=" horiz-adv-x="3269" 
d="M336 483v492h2597v-492h-2597zM336 1466v492h2597v-492h-2597z" />
    <glyph glyph-name="greater" unicode="&#x3e;" horiz-adv-x="3269" 
d="M1315 184h-914l1512 1028l-1512 1029h914l1552 -1029z" />
    <glyph glyph-name="question" unicode="?" horiz-adv-x="2376" 
d="M614 934l-49 491l590 316q84 45 159 96.5t130.5 110t88 124.5t32.5 140q0 80 -41.5 140t-116 99.5t-176.5 59.5t-223 20q-75 0 -157 -6.5t-167 -19t-171 -29.5t-167.5 -38.5t-157 -46.5t-139.5 -52v500q91 37 197.5 71.5t231 61.5t267.5 43t308 16q176 0 331.5 -22
t286 -65t234 -107.5t175.5 -150t110 -192t38 -233.5q0 -117 -29.5 -214t-81 -178.5t-122 -150.5t-153 -129.5t-173 -114.5t-182.5 -106l-328 -184l-24 -250h-521zM541 0v618h692v-618h-692z" />
    <glyph glyph-name="at" unicode="@" horiz-adv-x="5382" 
d="M2359 106q-216 0 -383.5 63t-281.5 175.5t-173 268t-59 341.5q0 188 50.5 344.5t138 281.5t206 218t254.5 155t283 93t293 31q120 0 219.5 -12.5t184 -36.5t156 -58.5t136.5 -77.5l90 123h459l-315 -1110q-10 -34 -17.5 -73t-7.5 -95q0 -37 14 -78.5t51.5 -76.5
t104 -57.5t170.5 -20.5q135 3 245 74t187.5 193.5t119.5 288t42 357.5q0 171 -47 328t-141 292.5t-236 246.5t-331.5 189.5t-427.5 121.5t-525 43q-314 0 -580 -62.5t-482 -176t-380 -272.5t-275 -352.5t-167.5 -416t-56.5 -461.5q0 -217 55.5 -403t158 -338.5t249 -270
t328.5 -197.5t395.5 -121.5t451.5 -41.5q180 0 344 14.5t314.5 40.5t289.5 62t268 79v-409q-118 -43 -258.5 -78t-298 -59.5t-329 -38t-351.5 -13.5q-522 0 -922.5 123t-672.5 352.5t-411.5 558t-139.5 740.5q0 297 73 570.5t215.5 510.5t352.5 431.5t484.5 332.5
t611.5 213.5t733 75.5q347 0 648 -52.5t549 -151.5t441.5 -241.5t326.5 -322.5t202 -395t69 -459q0 -211 -44.5 -389.5t-124 -323.5t-190 -255t-242.5 -184.5t-281 -112.5t-305 -38q-169 0 -292 24t-210 65t-142.5 96.5t-89.5 118.5q-61 -63 -146.5 -118.5t-186.5 -96.5
t-213.5 -65t-227.5 -24zM2503 537q130 0 247.5 44t223.5 128l245 860q-213 73 -405 73q-164 0 -302.5 -40t-239 -122t-156.5 -207t-56 -294q0 -88 23 -168t75.5 -141t137 -97t207.5 -36z" />
    <glyph glyph-name="A" unicode="A" horiz-adv-x="3817" 
d="M3068 0l-320 614h-1691l-316 -614h-733l1557 2966h688l1556 -2966h-741zM2138 1864q-59 117 -117 231t-116 232l-117 -234t-117 -233l-368 -734h1204z" />
    <glyph glyph-name="B" unicode="B" horiz-adv-x="3510" 
d="M442 0v2966h1430q321 0 545.5 -54t365.5 -158.5t205 -258t64 -353.5q0 -114 -28 -205t-81 -164t-130 -128t-175 -97q141 -46 253 -112t189.5 -153t118.5 -194.5t41 -236.5q0 -122 -27.5 -232.5t-89 -205t-159.5 -171t-238 -130.5t-325.5 -83.5t-422.5 -29.5h-1536z
M1970 467q164 0 278 27t185 78.5t103 127t32 172.5t-32 173.5t-103 130t-185 82t-278 28.5h-872v-819h872zM1815 1737q142 0 248.5 27t176.5 77.5t105 121.5t35 159q0 87 -35 157t-105 119t-176.5 75t-248.5 26h-717v-762h717z" />
    <glyph glyph-name="C" unicode="C" horiz-adv-x="3330" 
d="M3092 127q-117 -47 -234 -81.5t-251.5 -59t-295.5 -38.5t-365 -14q-294 0 -533 56t-426 157.5t-324 243t-226 314t-132 369.5t-43 409q0 208 45.5 403.5t137 367.5t230.5 315t326.5 245.5t423 159.5t521.5 57q173 0 329.5 -17.5t294.5 -47.5t257.5 -69.5t219.5 -82.5
v-520q-95 41 -210 81.5t-247.5 72.5t-282.5 51.5t-316 19.5q-181 0 -329.5 -36t-265.5 -101.5t-203.5 -159t-143 -208.5t-84 -249.5t-27.5 -281.5q0 -139 25.5 -270t80 -246.5t138.5 -211t201 -164.5t268 -107t340 -38q136 0 279 13.5t284 37.5t277.5 58t260.5 76v-504z" />
    <glyph glyph-name="D" unicode="D" horiz-adv-x="3793" 
d="M442 0v2966h1442q285 0 517.5 -49t415.5 -140t317.5 -220.5t222.5 -291.5t131 -352t43 -402q0 -208 -44 -400.5t-134 -360.5t-228 -306t-325.5 -237t-426 -153t-530.5 -54h-1401zM1749 483q210 0 374 33t287 95t209 150.5t139 200t77 242.5t24 279t-24 279t-77 242
t-139 199.5t-209 150.5t-287 95t-374 33h-651v-1999h651z" />
    <glyph glyph-name="E" unicode="E" horiz-adv-x="3236" 
d="M442 0v2966h2499v-484h-1839v-721h1577v-483h-1577v-795h1855v-483h-2515z" />
    <glyph glyph-name="F" unicode="F" horiz-adv-x="2970" 
d="M442 0v2966h2356v-484h-1696v-803h1421v-483h-1421v-1196h-660z" />
    <glyph glyph-name="G" unicode="G" horiz-adv-x="3793" 
d="M2822 1434h660v-1274q-92 -31 -199.5 -59.5t-225 -53.5t-243 -46t-254.5 -36t-258 -23t-254 -8q-410 0 -740.5 97t-563 290.5t-357.5 484t-125 677.5q0 226 50.5 429t151 375t251.5 309.5t351.5 234t451 148.5t550.5 52q126 0 246 -7t231.5 -20.5t213 -32.5t194.5 -43
t178.5 -52.5t165.5 -61.5v-528q-111 38 -243 79.5t-282 75.5t-314.5 56t-339.5 22q-309 0 -532 -68t-367 -200t-212.5 -325t-68.5 -443q0 -168 30.5 -310.5t93 -258t158 -204t225.5 -148t295.5 -90t368.5 -30.5q109 0 205.5 6.5t183.5 19t167 30t157 39.5v897z" />
    <glyph glyph-name="H" unicode="H" horiz-adv-x="3944" 
d="M2843 0v1245h-1741v-1245h-660v2966h660v-1237h1741v1237h659v-2966h-659z" />
    <glyph glyph-name="I" unicode="I" horiz-adv-x="2257" 
d="M311 0v483h488v1999h-488v484h1635v-484h-488v-1999h488v-483h-1635z" />
    <glyph glyph-name="J" unicode="J" horiz-adv-x="1929" 
d="M41 -111q26 -5 58 -8.5t66.5 -6t71.5 -4t74 -1.5q161 0 262 37.5t157.5 114.5t76.5 195.5t20 279.5v1986h-569v484h1229v-2544q0 -288 -69 -492t-207.5 -330t-337.5 -182.5t-463 -56.5q-42 0 -96 3t-112.5 11t-95 16.5t-65.5 18.5v479z" />
    <glyph glyph-name="K" unicode="K" horiz-adv-x="3600" 
d="M2621 0l-1519 1319v-1319h-660v2966h660v-1278l1552 1278h881l-1434 -1151q-89 -71 -178 -144t-178 -143q49 -40 97.5 -80l97 -80l97 -80t97.5 -80l1458 -1208h-971z" />
    <glyph glyph-name="L" unicode="L" horiz-adv-x="2843" 
d="M442 0v2966h660v-2483h1610v-483h-2270z" />
    <glyph glyph-name="M" unicode="M" horiz-adv-x="4809" 
d="M3727 0v1565v262v262q-96 -136 -190.5 -272.5t-190.5 -272.5l-712 -1012h-463l-713 1016q-48 68 -95 135.5t-93.5 135t-93.5 135t-95 135.5v-258v-258v-1573h-639v2966h729l955 -1364q74 -109 149.5 -213.5t149.5 -212.5q77 108 151.5 216.5t151.5 217.5l950 1356h688
v-2966h-639z" />
    <glyph glyph-name="N" unicode="N" horiz-adv-x="4026" 
d="M2814 0l-1401 1761q-83 106 -163.5 207.5t-164.5 206.5v-114v-113.5v-113.5v-114v-1720h-643v2966h770l1393 -1758q42 -52 84 -105l84 -106l84 -106t84 -105v114v114v113.5v113.5v1725h643v-2966h-770z" />
    <glyph glyph-name="O" unicode="O" horiz-adv-x="3899" 
d="M1950 -66q-294 0 -533.5 56t-427 157.5t-324.5 243t-226.5 314t-133 369.5t-43.5 409q0 208 45.5 403.5t138 367.5t232 315t327 245.5t423.5 159.5t522 57q294 0 533 -56t426.5 -157t324.5 -243t226.5 -314t133 -369t43.5 -409q0 -208 -45.5 -403.5t-138 -367.5
t-232 -315.5t-327 -246t-423.5 -159.5t-521 -57zM1950 455q181 0 326 37.5t257 105.5t192.5 162.5t132 208.5t75.5 244.5t24 269.5t-24 269.5t-75.5 244.5t-132 208.5t-192.5 162.5t-257 105.5t-326 37.5t-326.5 -37.5t-257.5 -105.5t-192 -162.5t-131.5 -208.5t-76 -244.5
t-24.5 -269.5t24.5 -269.5t76 -244.5t131.5 -208.5t192 -162.5t257.5 -105.5t326.5 -37.5z" />
    <glyph glyph-name="P" unicode="P" horiz-adv-x="3346" 
d="M442 0v2966h1315q225 0 415.5 -26t344 -79t270.5 -133t196 -188t119 -244t40 -301q0 -161 -40.5 -296t-121 -243.5t-201 -191t-281 -137.5t-361.5 -83t-441 -28h-594v-1016h-660zM1655 1499q224 0 377.5 29.5t248 91t136 154.5t41.5 221q0 124 -41.5 216t-132.5 152
t-236 89.5t-352 29.5h-594v-983h553z" />
    <glyph glyph-name="Q" unicode="Q" horiz-adv-x="3899" 
d="M2839 -578q-56 0 -92.5 6.5t-65 19.5t-54 33t-59.5 48l-495 410q-31 0 -61.5 -2.5t-61.5 -2.5q-294 0 -533.5 56t-427 157.5t-324.5 243t-226.5 314t-133 369.5t-43.5 409q0 208 45.5 403.5t138 367.5t232 315t327 245.5t423.5 159.5t522 57q294 0 533 -56t426.5 -157
t324.5 -243t226.5 -314t133 -369t43.5 -409q0 -231 -56.5 -446t-170 -399.5t-285 -330t-401.5 -237.5q55 -22 113 -58t129 -94l589 -496h-716zM1950 455q181 0 326 37.5t257 105.5t192.5 162.5t132 208.5t75.5 244.5t24 269.5t-24 269.5t-75.5 244.5t-132 208.5
t-192.5 162.5t-257 105.5t-326 37.5t-326.5 -37.5t-257.5 -105.5t-192 -162.5t-131.5 -208.5t-76 -244.5t-24.5 -269.5t24.5 -269.5t76 -244.5t131.5 -208.5t192 -162.5t257.5 -105.5t326.5 -37.5z" />
    <glyph glyph-name="R" unicode="R" horiz-adv-x="3494" 
d="M2605 0l-737 922q-36 45 -66.5 78.5t-61.5 57t-65.5 38.5t-78.5 23.5t-100.5 12t-131.5 3.5h-262v-1135h-660v2966h1258q333 0 591 -57t434.5 -169.5t267.5 -278.5t91 -384q0 -158 -50.5 -289.5t-147 -235.5t-237.5 -181t-322 -126q74 -34 137.5 -88.5t128.5 -128.5
l835 -1028h-823zM1630 1614q207 0 352 30.5t236 89t132.5 143t41.5 191.5q0 103 -46 180.5t-140 129.5t-237.5 78t-338.5 26h-528v-868h528z" />
    <glyph glyph-name="S" unicode="S" horiz-adv-x="3240" 
d="M262 635q98 -34 227 -69t277 -63.5t307.5 -46.5t319.5 -18q227 0 395 26.5t278.5 76.5t165 122t54.5 164q0 48 -19.5 88t-61.5 74.5t-107 64.5t-156 58t-208.5 55.5t-263.5 57.5q-196 39 -361.5 87.5t-298 109.5t-233 134.5t-168 161.5t-101.5 191.5t-34 224.5
q0 129 35.5 245.5t110 216.5t190 180t275.5 137t367 87.5t464 30.5q174 0 329 -14.5t290 -39.5t248 -58.5t202 -71.5v-504q-101 32 -221.5 64.5t-256 58t-284.5 41.5t-307 16q-200 0 -345 -24.5t-239.5 -71t-140 -113.5t-45.5 -151q0 -48 20.5 -88t64 -74.5t110 -64.5
t158.5 -58t210 -55.5t265 -57.5q197 -39 362 -86t297.5 -106t233 -131t168 -160.5t101.5 -195t34 -234.5q0 -131 -41.5 -250t-125.5 -221t-211.5 -184.5t-299.5 -141t-389.5 -90t-481.5 -31.5q-184 0 -354 16.5t-318.5 43.5t-272 61.5t-214.5 71.5v508z" />
    <glyph glyph-name="T" unicode="T" horiz-adv-x="3105" 
d="M1221 0v2482h-1090v484h2843v-484h-1094v-2482h-659z" />
    <glyph glyph-name="U" unicode="U" horiz-adv-x="3752" 
d="M2712 2966h655v-1770q0 -210 -40.5 -385t-122 -315.5t-205 -245.5t-289 -175.5t-374 -105.5t-460.5 -35q-261 0 -473 35t-378 105.5t-286.5 175.5t-199 245.5t-116.5 315.5t-38 385v1770h655v-1737q0 -197 47.5 -343t149 -242.5t260 -144.5t379.5 -48t379.5 48t260 144.5
t149 242.5t47.5 343v1737z" />
    <glyph glyph-name="V" unicode="V" horiz-adv-x="3654" 
d="M1483 0l-1499 2966h753l955 -1995q37 -80 75.5 -160t75.5 -160q37 81 76 160t76 160l954 1995h721l-1499 -2966h-688z" />
    <glyph glyph-name="W" unicode="W" horiz-adv-x="5486" 
d="M3588 0l-847 2224l-850 -2224h-671l-1195 2966h728l834 -2227l851 2227h659l849 -2227l833 2227h682l-1196 -2966h-677z" />
    <glyph glyph-name="X" unicode="X" horiz-adv-x="3473" 
d="M2613 0l-748 930q-19 23 -37 45.5l-36 45t-36 44.5t-36 45q-18 -23 -37 -46t-37.5 -46l-37 -46t-37.5 -47l-748 -925h-782l1298 1536l-1204 1430h819l638 -799q18 -22 35.5 -44t35.5 -44.5t35.5 -44.5t34.5 -43q17 21 34.5 43t35.5 44.5t36 44.5t35 44l641 799h782
l-1183 -1410l1318 -1556h-819z" />
    <glyph glyph-name="Y" unicode="Y" horiz-adv-x="3363" 
d="M1352 0v1102l-1360 1864h782l631 -902q35 -51 70.5 -101.5t70.5 -101t70.5 -101t71.5 -101.5q35 51 71 102t72 102.5t72 102.5t71 102l635 898h762l-1360 -1836v-1130h-659z" />
    <glyph glyph-name="Z" unicode="Z" horiz-adv-x="3416" 
d="M221 0v426l2036 2056h-1978v484h2834v-422l-2044 -2061h2126v-483h-2974z" />
    <glyph glyph-name="bracketleft" unicode="[" horiz-adv-x="1901" 
d="M516 -381v3486h1155v-340h-594v-2806h594v-340h-1155z" />
    <glyph glyph-name="backslash" unicode="\" horiz-adv-x="2302" 
d="M1663 0l-1688 3105h586l1692 -3105h-590z" />
    <glyph glyph-name="bracketright" unicode="]" horiz-adv-x="1901" 
d="M229 -381v340h594v2806h-594v340h1155v-3486h-1155z" />
    <glyph glyph-name="asciicircum" unicode="^" horiz-adv-x="2302" 
d="M1606 1786l-455 717l-455 -717h-553l770 1180h476l770 -1180h-553z" />
    <glyph glyph-name="underscore" unicode="_" horiz-adv-x="2417" 
d="M-33 -492v492h2482v-492h-2482z" />
    <glyph glyph-name="grave" unicode="`" horiz-adv-x="2253" 
d="M1233 2408l-696 648h770l409 -648h-483z" />
    <glyph glyph-name="a" unicode="a" horiz-adv-x="2949" 
d="M2044 0l-41 213q-78 -66 -174 -118t-207.5 -87.5t-239 -54.5t-268.5 -19q-213 0 -382.5 43t-287.5 126.5t-180.5 206t-62.5 280.5q0 131 45.5 232t130 176t204.5 126.5t269 83t324 45t370 13.5q80 0 156.5 -2t141.5 -5t128 -6v4q0 111 -42 190.5t-124.5 131t-205 76
t-283.5 24.5q-134 0 -256 -13t-233.5 -36t-212 -54.5t-191.5 -68.5v459q89 45 196 82t229 63.5t256 41t277 14.5q290 0 516.5 -48t382 -152t237 -268t81.5 -396v-1303h-553zM1970 889h-328q-209 0 -358 -14.5t-244 -47.5t-139.5 -85.5t-44.5 -127.5q0 -51 23 -97t72.5 -81
t127.5 -55.5t187 -20.5q118 0 218.5 14t187 39t160 59.5t138.5 76.5v340z" />
    <glyph glyph-name="b" unicode="b" horiz-adv-x="3310" 
d="M401 0v2966h643v-1074q80 63 174.5 114t202.5 86.5t230.5 55t257.5 19.5q278 0 497 -75t370.5 -216t231.5 -344t80 -459q0 -258 -82.5 -468t-239 -359.5t-383 -230.5t-515.5 -81q-137 0 -263 18.5t-237 54t-205 85.5t-168 113l-86 -205h-508zM1044 594q80 -42 160 -72.5
t167 -51t183.5 -30.5t210.5 -10q163 0 288 41.5t209.5 120.5t127.5 194t43 263q0 147 -43 261.5t-127.5 193t-209.5 119t-288 40.5q-114 0 -210.5 -9.5t-183.5 -29.5t-167 -51t-160 -74v-905z" />
    <glyph glyph-name="c" unicode="c" horiz-adv-x="2531" 
d="M2327 102q-85 -37 -181.5 -67t-202.5 -51.5t-220.5 -33t-235.5 -11.5q-318 0 -555.5 73t-395.5 215t-236.5 351.5t-78.5 482.5q0 162 35 306.5t105.5 267t177 220.5t249.5 166.5t322.5 105t396.5 36.5q111 0 225.5 -12.5t221 -35t198.5 -54.5t158 -70v-471
q-72 31 -165 57.5t-196 46.5t-210 31.5t-207 11.5q-161 0 -283.5 -41t-205 -119t-124.5 -190.5t-42 -255.5q0 -149 41.5 -265.5t123 -197t201.5 -122.5t277 -42q117 0 227 10.5t211.5 29.5t194 45.5t174.5 58.5v-476z" />
    <glyph glyph-name="d" unicode="d" horiz-adv-x="3310" 
d="M2347 0l-45 238q-74 -68 -172 -124t-212.5 -96t-241.5 -62t-259 -22q-281 0 -503 77.5t-376 222t-235.5 352t-81.5 467.5q0 259 83 465.5t242 350.5t390.5 221t529.5 77q117 0 229.5 -14t215 -40.5t192.5 -64.5t162 -86v1004h643v-2966h-561zM2265 1507q-80 42 -160 72.5
t-167 51t-183.5 30.5t-210.5 10q-163 0 -287.5 -41.5t-209 -120.5t-127.5 -194t-43 -262q0 -148 43 -262.5t127.5 -193t209 -119t287.5 -40.5q114 0 210.5 9.5t183.5 29.5t167 51t160 74v905z" />
    <glyph glyph-name="e" unicode="e" horiz-adv-x="2986" 
d="M2609 135q-91 -45 -212 -81t-258.5 -61.5t-285.5 -39.5t-292 -14q-225 0 -412 38t-336 107.5t-260 168.5t-185 221.5t-110.5 265t-36.5 300.5q0 148 33.5 289.5t102.5 266.5t174 230t247.5 181t324.5 118t404 42q225 0 408.5 -38.5t327 -108.5t248 -168.5t173 -219
t101.5 -260t33 -291.5q0 -29 -1 -55.5t-2.5 -51.5t-4 -47t-5.5 -42h-1913q12 -106 61.5 -191t141.5 -144.5t230 -91.5t329 -32q138 0 274 12.5t261.5 35t237 53t202.5 67.5v-459zM2138 1282q-23 111 -77.5 192t-136 134t-187.5 78.5t-230 25.5t-229 -25.5t-185.5 -78.5
t-134.5 -134t-77 -192h1257z" />
    <glyph glyph-name="f" unicode="f" horiz-adv-x="2130" 
d="M610 0v1642h-463v459h463v62q0 226 72.5 388.5t203.5 267.5t313.5 154.5t402.5 49.5q93 0 168.5 -5t141 -15t126 -23.5t125.5 -30.5v-450q-56 13 -108 25t-104.5 21t-107 14t-114.5 5q-119 0 -209 -20.5t-151.5 -70.5t-92.5 -133.5t-31 -209.5v-29h819v-459h-819v-1642
h-635z" />
    <glyph glyph-name="g" unicode="g" horiz-adv-x="3310" 
d="M2265 287q-75 -62 -171 -112t-205.5 -85t-229 -54.5t-242.5 -19.5q-281 0 -503 74.5t-376 214t-235.5 339t-81.5 450.5q0 250 83 449t242 337.5t390.5 212.5t529.5 74q131 0 255 -18t234.5 -50.5t204 -78.5t162.5 -103l78 184h508v-1966q0 -279 -94.5 -480.5t-276 -331.5
t-445 -191.5t-601.5 -61.5q-157 0 -298.5 8t-267.5 24t-237.5 40.5t-208.5 58.5v512q85 -29 187.5 -52.5t220 -40t248 -25.5t270.5 -9q223 0 385 29t267.5 92.5t156.5 164t51 243.5v172zM2265 1507q-80 42 -160 72.5t-167 51t-183.5 30.5t-210.5 10q-160 0 -284 -37.5
t-209 -110t-129.5 -180.5t-44.5 -249t44.5 -248.5t129.5 -180t209 -109t284 -36.5q114 0 210.5 9.5t183.5 29.5t167 51t160 74v823z" />
    <glyph glyph-name="h" unicode="h" horiz-adv-x="3289" 
d="M2302 0v1155q0 132 -31 229.5t-97.5 162t-170.5 96.5t-250 32q-115 0 -215 -14.5t-187 -38.5t-163 -56t-144 -67v-1499h-643v2966h643v-1074q78 64 172 115.5t201 86.5t225 54t246 19q140 0 273 -17t250.5 -57.5t215.5 -109t168.5 -172t110 -245.5t39.5 -329v-1237h-643z
" />
    <glyph glyph-name="i" unicode="i" horiz-adv-x="1446" 
d="M401 0v2101h643v-2101h-643zM401 2408v558h643v-558h-643z" />
    <glyph glyph-name="j" unicode="j" horiz-adv-x="1446" 
d="M-373 -401q53 -11 124 -18t143 -7q158 0 257 37.5t154.5 114.5t75.5 193t20 274v1908h643v-1982q0 -284 -67.5 -482.5t-201.5 -322.5t-331.5 -180t-459.5 -56q-56 0 -111.5 5t-99.5 13t-82.5 20t-63.5 24v459zM401 2408v558h643v-558h-643z" />
    <glyph glyph-name="k" unicode="k" horiz-adv-x="2937" 
d="M2064 0l-1020 963v-963h-643v2966h643v-1721l1045 856h840l-942 -753q-37 -29 -73.5 -58t-72.5 -57.5l-72 -57t-73 -57.5q35 -31 71 -62.5l72 -63t72 -62.5t71 -62l979 -868h-897z" />
    <glyph glyph-name="l" unicode="l" horiz-adv-x="1729" 
d="M1655 37q-52 -20 -116.5 -36.5t-135.5 -28.5t-146 -18.5t-147 -6.5q-200 0 -339 44t-227 127.5t-127.5 204.5t-39.5 275v2368h643v-2282q0 -55 10 -100t42 -76.5t91.5 -48.5t159.5 -17q93 0 175 13.5t157 31.5v-450z" />
    <glyph glyph-name="m" unicode="m" horiz-adv-x="5190" 
d="M4202 0v1155q0 132 -31 229.5t-97 162t-170 96.5t-250 32q-116 0 -215.5 -14.5t-187 -38.5t-163.5 -56t-143 -67v-149.5v-149.5v-1200h-643v1155q0 132 -31 229.5t-97.5 162t-170.5 96.5t-250 32q-115 0 -215 -14.5t-187 -38.5t-163 -56t-144 -67v-1499h-643v2101h562
l45 -241q80 72 177 129t208 96.5t235.5 60.5t259.5 21q137 0 270 -17.5t252 -58t220.5 -107.5t175.5 -165q83 83 190 147.5t232.5 109t267 68t293.5 23.5q140 0 273 -17t250.5 -57.5t215.5 -109t168.5 -172t110 -245.5t39.5 -329v-1237h-644z" />
    <glyph glyph-name="n" unicode="n" horiz-adv-x="3289" 
d="M2302 0v1155q0 132 -31 229.5t-97.5 162t-170.5 96.5t-250 32q-115 0 -215 -14.5t-187 -38.5t-163 -56t-144 -67v-1499h-643v2101h562l45 -241q80 72 177 129t208 96.5t235.5 60.5t259.5 21q140 0 273 -17t250.5 -57.5t215.5 -109t168.5 -172t110 -245.5t39.5 -329v-1237
h-643z" />
    <glyph glyph-name="o" unicode="o" horiz-adv-x="3252" 
d="M1626 -66q-227 0 -419.5 33.5t-348.5 99t-275 161t-199.5 220t-121.5 276.5t-41 329q0 169 41 317t121.5 272t199.5 221.5t275 165t348.5 103t419.5 35.5q228 0 421 -33.5t349.5 -99t275 -161t198.5 -220t120.5 -276t40.5 -328.5q0 -169 -41 -317.5t-121.5 -272
t-199.5 -221.5t-275 -165.5t-348.5 -103t-419.5 -35.5zM1626 406q168 0 305.5 44.5t235.5 127.5t151.5 202.5t53.5 268.5t-53.5 268.5t-151.5 203.5t-235.5 129.5t-305.5 45.5q-167 0 -304.5 -44.5t-235.5 -128t-151.5 -202.5t-53.5 -268t53.5 -269t151.5 -204t235.5 -129
t304.5 -45z" />
    <glyph glyph-name="p" unicode="p" horiz-adv-x="3310" 
d="M401 -864v2965h562l45 -237q80 69 177 125t210.5 95.5t242 61t271.5 21.5q278 0 497 -75t370.5 -216t231.5 -344t80 -459q0 -258 -80 -468t-233.5 -359.5t-377.5 -230.5t-513 -81q-120 0 -239 15.5t-228.5 44.5t-205 70t-167.5 92v-1020h-643zM1044 594q80 -42 160 -72.5
t167 -51t183.5 -30.5t210.5 -10q163 0 288 41.5t209.5 120.5t127.5 194t43 263q0 147 -43 261.5t-127.5 193t-209.5 119t-288 40.5q-114 0 -210.5 -9.5t-183.5 -29.5t-167 -51t-160 -74v-905z" />
    <glyph glyph-name="q" unicode="q" horiz-adv-x="3310" 
d="M2265 -864v1069q-75 -62 -171 -112t-205.5 -85t-229 -54.5t-242.5 -19.5q-281 0 -503 77.5t-376 222t-235.5 352t-81.5 467.5q0 259 83 465.5t242 350.5t390.5 221t529.5 77q131 0 255 -18t234.5 -50.5t204 -78.5t162.5 -103l78 184h508v-2965h-643zM2265 1507
q-80 42 -160 72.5t-167 51t-183.5 30.5t-210.5 10q-163 0 -287.5 -41.5t-209 -120.5t-127.5 -194t-43 -262q0 -148 43 -262.5t127.5 -193t209 -119t287.5 -40.5q114 0 210.5 9.5t183.5 29.5t167 51t160 74v905z" />
    <glyph glyph-name="r" unicode="r" horiz-adv-x="2159" 
d="M401 0v2101h586l25 -385q51 97 120 178t160.5 140t206.5 92t258 33q78 0 159.5 -9.5t143.5 -27.5v-557q-34 7 -77 13t-89.5 10.5t-94.5 6.5t-91 2q-86 0 -161.5 -10.5t-140.5 -29t-120 -44.5t-100.5 -56.5t-80.5 -65.5t-61 -72v-1319h-643z" />
    <glyph glyph-name="s" unicode="s" horiz-adv-x="2646" 
d="M262 573q47 -19 113 -38.5t144 -37t164.5 -33t174.5 -26.5t174 -17.5t164 -6.5q143 0 256 9t192 30.5t120.5 57t41.5 87.5q0 48 -35 80.5t-108.5 56.5t-186.5 43.5t-268 40.5q-226 31 -400.5 82t-294 131t-181.5 192.5t-62 266.5q0 163 68 288t209.5 210.5t360.5 129.5
t522 44q81 0 168 -6t173.5 -17.5t169.5 -27.5t156 -35t132 -41t98 -45v-459q-47 21 -112 40.5t-140.5 37.5t-158.5 33t-166.5 26t-165.5 17t-154 6q-117 0 -212.5 -9t-163 -30.5t-104.5 -56t-37 -85.5q0 -48 36 -79.5t110 -55t188 -42t269 -40.5q229 -32 403 -81t292 -127
t178 -190.5t60 -272.5t-81 -286.5t-239.5 -215t-392.5 -135.5t-540 -47q-141 0 -281.5 15t-265 39t-225.5 55t-162 63v462z" />
    <glyph glyph-name="t" unicode="t" horiz-adv-x="2335" 
d="M2187 61q-60 -21 -142 -41t-174.5 -35.5t-189.5 -24.5t-186 -9q-237 0 -408 50t-281.5 149t-163 246t-52.5 341v905h-467v459h491l66 525h537v-525h954v-459h-954v-831q0 -97 20.5 -164.5t68.5 -110t126.5 -62t193.5 -19.5q83 0 164 6.5t154.5 16.5t135.5 23t107 27v-467
z" />
    <glyph glyph-name="u" unicode="u" horiz-adv-x="3240" 
d="M2277 0l-45 229q-71 -65 -165 -117.5t-204 -91t-233 -61t-250 -25.5q-136 0 -265.5 17t-244.5 58t-212 109.5t-166.5 171.5t-108.5 245t-39 329v1237h643v-1155q0 -132 31 -230t97.5 -162.5t170.5 -96t250 -31.5q98 0 186 11.5t168.5 33.5t155.5 55t149 76v1499h644
v-2101h-562z" />
    <glyph glyph-name="v" unicode="v" horiz-adv-x="2859" 
d="M1098 0l-1065 2101h696l574 -1204q37 -77 71.5 -151.5t71.5 -151.5q34 74 69.5 147.5t69.5 147.5l574 1212h667l-1065 -2101h-663z" />
    <glyph glyph-name="w" unicode="w" horiz-adv-x="4399" 
d="M2753 0l-422 1077q-34 90 -70 180.5t-70 180.5q-34 -90 -67.5 -180.5t-67.5 -180.5l-405 -1077h-697l-921 2101h672l446 -1110q37 -93 73.5 -184.5t73.5 -183.5q34 92 68 183.5t68 184.5l409 1110h705l418 -1110q34 -93 69.5 -184.5t69.5 -183.5q37 92 75.5 183.5
t75.5 184.5l451 1110h659l-921 -2101h-692z" />
    <glyph glyph-name="x" unicode="x" horiz-adv-x="2912" 
d="M2036 0l-602 659l-598 -659h-783l1020 1053l-987 1048h811l573 -635l566 635h790l-999 -1028l1032 -1073h-823z" />
    <glyph glyph-name="y" unicode="y" horiz-adv-x="2859" 
d="M16 -393q59 -13 138 -21t174 -8q73 0 150 7.5t148 25t136.5 46.5t122 71.5t104.5 100.5t84 134l21 41l-1061 2097h696l573 -1204q37 -77 72 -151.5t72 -151.5q35 74 70.5 149.5t71.5 151.5l571 1206h667l-1093 -2167q-80 -157 -163.5 -277.5t-176 -213t-193.5 -159
t-216 -113.5t-264.5 -74t-330.5 -27q-40 0 -89.5 3t-107 11.5t-106 22.5t-70.5 25v475z" />
    <glyph glyph-name="z" unicode="z" horiz-adv-x="2707" 
d="M180 0v365l1389 1269h-1340v467h2245v-360l-1372 -1274h1425v-467h-2347z" />
    <glyph glyph-name="braceleft" unicode="{" horiz-adv-x="1901" 
d="M1303 -381q-111 0 -209 12.5t-181 40t-149 72.5t-112 110.5t-70.5 152t-24.5 198.5v663q0 91 -18 154.5t-56 104t-97 59t-140 18.5h-107v320h107q81 0 140 18.5t97 59t56 104t18 154.5v659q0 112 24.5 198.5t70.5 152t112 110.5t149 72.5t181 40t209 12.5h368v-340h-241
q-82 0 -141 -18.5t-97 -59t-56 -104t-18 -154.5v-569q0 -95 -18 -172.5t-53 -138.5t-86 -107t-117 -78q66 -31 117 -76t86 -105.5t53 -138t18 -172.5v-577q0 -91 18 -154.5t56 -104t97 -59t141 -18.5h241v-340h-368z" />
    <glyph glyph-name="bar" unicode="|" horiz-adv-x="1778" 
d="M655 -864v3830h467v-3830h-467z" />
    <glyph glyph-name="braceright" unicode="}" horiz-adv-x="1901" 
d="M229 -381v340h242q81 0 140 18.5t97 59t56 104t18 154.5v577q0 95 18 172.5t53 138t85 105.5t115 76q-65 32 -115 78t-85 107t-53 138.5t-18 172.5v569q0 91 -18 154.5t-56 104t-97 59t-140 18.5h-242v340h369q166 0 303 -28.5t235 -96.5t152.5 -180.5t54.5 -280.5v-659
q0 -91 18 -154.5t56.5 -104t97.5 -59t140 -18.5h106v-320h-106q-81 0 -140 -18.5t-97.5 -59t-56.5 -104t-18 -154.5v-663q0 -168 -54.5 -280.5t-152.5 -180.5t-235 -96.5t-303 -28.5h-369z" />
    <glyph glyph-name="asciitilde" unicode="~" horiz-adv-x="2417" 
d="M2187 1561q0 -185 -42.5 -332t-121.5 -250t-192 -158t-254 -55q-88 0 -164.5 26.5t-144 66.5t-126 87t-111 87t-100 66.5t-91.5 26.5q-45 0 -81.5 -30t-63 -76t-42 -101t-18.5 -104h-406q0 123 19 229.5t55.5 195t89.5 157.5t121 116.5t150 72t176 24.5q88 0 164.5 -26.5
t144 -67t126 -87t111 -87t100 -67t91.5 -26.5q45 0 81.5 30.5t63 76.5t42 101t18.5 104h405z" />
    <glyph glyph-name="uni00A0" unicode="&#xa0;" horiz-adv-x="1397" 
 />
    <glyph glyph-name="exclamdown" unicode="&#xa1;" horiz-adv-x="1675" 
d="M500 -864v729q0 72 4 154t10 167.5t14 170.5t17 162.5t17.5 144t15.5 114.5l57 389h405l62 -385q8 -49 17 -116t17 -145t15.5 -163.5t13 -171t8.5 -167.5t3 -154v-729h-676zM492 1483v618h692v-618h-692z" />
    <glyph glyph-name="cent" unicode="&#xa2;" 
d="M1520 -123v447q-273 38 -484.5 132.5t-356 241.5t-219.5 345t-75 444q0 240 77 436t223 344t357 245t478 138v438h499v-413q140 -5 266.5 -20.5t239 -38.5t210.5 -53t181 -64v-476q-86 39 -189.5 73t-223 60t-255.5 41t-286 15q-215 0 -389.5 -39t-298.5 -125.5
t-191 -224.5t-67 -336q0 -126 28.5 -228.5t83 -182.5t135.5 -138.5t186 -96.5t233.5 -56.5t279.5 -18.5q123 0 251 8.5t255.5 26.5t251 46t237.5 66v-454q-98 -31 -197 -58.5t-210.5 -49t-241 -35.5t-289.5 -17v-422h-499z" />
    <glyph glyph-name="sterling" unicode="&#xa3;" 
d="M418 0v438h78q109 0 200 22.5t156.5 80t102 157t36.5 252.5v250h-450v467h450v336q0 140 25 271t80.5 245t144 208.5t216 162t296.5 104.5t385 37q75 0 163 -8.5t175.5 -23t169.5 -34t147 -40.5v-496q-54 17 -119 33.5t-140 30t-158 22t-172 8.5q-163 0 -272.5 -39.5
t-175.5 -112t-94 -173.5t-28 -224v-307h1090v-467h-1090v-332q0 -69 -11 -127t-31.5 -105.5t-50 -85.5t-66.5 -67h1568v-483h-2625z" />
    <glyph glyph-name="currency" unicode="&#xa4;" 
d="M2322 582q-130 -47 -277.5 -68.5t-311.5 -21.5q-168 0 -316 23.5t-278 70.5l-312 -398l-385 353l291 286q-130 124 -198 287.5t-68 364.5q0 198 68 361t198 290l-291 287l385 352l312 -397q130 46 278 70t316 24q164 0 311.5 -24t277.5 -70l316 397l385 -352l-295 -287
q130 -127 200 -290t70 -361q0 -201 -70 -364.5t-200 -287.5l295 -286l-385 -353zM1733 938q156 0 280.5 36t211.5 105.5t133 170t46 229.5t-46 229.5t-133 169.5t-211.5 105t-280.5 36q-157 0 -281.5 -36t-211.5 -105t-133 -169.5t-46 -229.5t46 -229.5t133 -170
t211.5 -105.5t281.5 -36z" />
    <glyph glyph-name="yen" unicode="&#xa5;" 
d="M2040 487v-487h-619v487h-991v467h991v119l-176 242h-815v467h475l-864 1184h754l651 -955q74 -108 145 -215t146 -215q74 108 147 215t148 215l655 955h733l-880 -1184h487v-467h-832l-155 -213v-148h987v-467h-987z" />
    <glyph glyph-name="brokenbar" unicode="&#xa6;" horiz-adv-x="1778" 
d="M655 -381v1331h467v-1331h-467zM655 1774v1331h467v-1331h-467z" />
    <glyph glyph-name="section" unicode="&#xa7;" 
d="M1565 -311q-168 0 -322 14t-291 38.5t-254 58t-211 73.5v463q97 -35 219.5 -68.5t260.5 -59t286 -41t295 -15.5q144 0 264.5 13t207.5 40t135.5 67.5t48.5 96.5q0 46 -20 81.5t-64 63.5t-115 50t-174 42l-741 144q-168 32 -301.5 81.5t-226.5 117t-143 153.5t-50 192
q0 85 35.5 167t97.5 155.5t146.5 134.5t182.5 104q-63 43 -113 94t-85 111t-53.5 129.5t-18.5 149.5q0 129 54.5 230.5t148 178.5t219 130.5t268.5 87.5t295.5 49.5t300.5 15.5q186 0 337 -13t271 -34.5t211.5 -49.5t159.5 -59v-450q-81 28 -183 53.5t-223 45.5t-260.5 32
t-295.5 12q-135 0 -250.5 -12.5t-200 -38.5t-132.5 -66.5t-48 -95.5q0 -46 19.5 -82t64 -64.5t115.5 -51.5t174 -43l741 -144q167 -32 300.5 -81.5t227 -117t143.5 -154t50 -192.5q0 -86 -36 -169t-98.5 -156.5t-147 -135t-181.5 -104.5q126 -83 198 -202.5t72 -276.5
q0 -129 -54.5 -230.5t-149 -178.5t-221.5 -130.5t-272.5 -87.5t-302.5 -49.5t-310 -15.5zM1356 1663q-50 9 -97.5 19.5t-91.5 25.5q-80 -53 -126 -121t-46 -145q0 -51 23 -88.5t67.5 -66t108.5 -49.5t145 -38l742 -143q49 -10 95.5 -21.5t92.5 -23.5q78 52 125 118.5
t47 147.5q0 51 -23 88.5t-67.5 66t-108.5 49.5t-145 38z" />
    <glyph glyph-name="dieresis" unicode="&#xa8;" horiz-adv-x="2253" 
d="M311 2441v525h561v-525h-561zM1380 2441v525h562v-525h-562z" />
    <glyph glyph-name="copyright" unicode="&#xa9;" horiz-adv-x="3899" 
d="M2585 721q-65 -21 -126 -39t-128.5 -31t-147 -20.5t-180.5 -7.5q-165 0 -301 30.5t-243 86.5t-187 134.5t-132 174t-78 205.5t-26 229q0 117 27 226t81 204.5t134.5 174.5t188 135.5t241.5 88t295 31.5q87 0 164.5 -8t147 -22.5t132.5 -34t121 -42.5v-397
q-52 25 -112 46.5t-127.5 37.5t-142.5 25.5t-158 9.5q-126 0 -221 -32.5t-159 -94t-96 -149.5t-32 -199q0 -103 31 -190t94 -150.5t158.5 -99t224.5 -35.5q67 0 131 4t130.5 14.5t138.5 29.5t157 50v-385zM1950 3031q272 0 503 -55t418.5 -156t330.5 -242t239.5 -313
t146 -370t49.5 -412t-49.5 -412t-146 -370t-239.5 -313.5t-330.5 -242t-418.5 -156t-503 -55.5t-503.5 55.5t-419 156t-330.5 242t-239.5 313.5t-146 370t-49.5 412t49.5 412t146 370t239.5 313t330.5 242t418.5 156t504 55zM1950 2691q-220 0 -400.5 -44.5t-322.5 -125
t-246.5 -192t-173 -245.5t-102 -286.5t-33.5 -314.5t33.5 -314.5t102 -286.5t173 -246t246.5 -192.5t322.5 -125t400.5 -44.5t400 44.5t322 125t247 192.5t173.5 246t102 286.5t33.5 314.5t-33.5 314.5t-102 286.5t-173.5 245.5t-247 192t-322 125t-400 44.5z" />
    <glyph glyph-name="ordfeminine" unicode="&#xaa;" horiz-adv-x="2662" 
d="M1876 1221l-33 168q-68 -53 -151 -94t-180 -69.5t-207.5 -43.5t-231.5 -15q-183 0 -329 35.5t-248.5 104.5t-157.5 169.5t-55 231.5q0 109 38 193.5t109.5 146.5t173.5 104.5t230.5 68.5t280.5 37t323 11q86 0 183 -2.5t189 -5.5v0q-3 74 -32 134t-94.5 102t-173.5 65
t-269 23q-117 0 -222.5 -11.5t-201 -31t-182 -46t-164.5 -55.5v398q77 37 168.5 67.5t195.5 52.5t219.5 34.5t239.5 12.5q256 0 451.5 -39.5t327.5 -125t199 -222t67 -329.5v-1069h-463zM242 340v451h2138v-451h-2138zM1810 1942h-290q-185 0 -316 -11t-215 -36t-123 -65.5
t-39 -100.5q0 -40 21 -76.5t65.5 -64t114.5 -44t168 -16.5q103 0 190 12.5t162 33.5t139.5 47.5t122.5 53.5v267z" />
    <glyph glyph-name="guillemotleft" unicode="&#xab;" horiz-adv-x="3006" 
d="M1036 467l-815 762l815 762h520l-585 -762l585 -762h-520zM2265 467l-815 762l815 762h520l-585 -762l585 -762h-520z" />
    <glyph glyph-name="logicalnot" unicode="&#xac;" horiz-adv-x="2826" 
d="M2089 246v729h-1942v491h2409v-1220h-467z" />
    <glyph glyph-name="uni00AD" unicode="&#xad;" horiz-adv-x="1937" 
d="M246 942v553h1446v-553h-1446z" />
    <glyph glyph-name="registered" unicode="&#xae;" horiz-adv-x="3178" 
d="M2871 1933q0 -156 -34.5 -297.5t-104 -263.5t-175 -221t-248 -169t-322.5 -108t-398 -38t-397.5 38t-322 108t-248.5 169t-175.5 221t-104 263.5t-34.5 297.5t34.5 298t104 264t175.5 221t248.5 169t322 108t397.5 38t398 -38t322.5 -108t248 -169t175 -221t104 -264
t34.5 -298zM1589 1106q168 0 305 28t244.5 80t186 126t130 166t76.5 199.5t25 227.5t-25 228t-76.5 200t-130 166t-186 126t-244.5 80t-305 28t-304.5 -28t-244 -80t-186 -126t-130 -166t-76.5 -200t-25 -228t25 -227.5t76.5 -199.5t130 -166t186 -126t244 -80t304.5 -28z
M1880 1380l-262 336q-23 29 -39.5 46t-35 26t-44.5 11.5t-69 2.5h-50v-422h-311v1147h496q127 0 227.5 -21t170 -64.5t106 -109.5t36.5 -157q0 -62 -17.5 -112t-50.5 -89t-81 -67.5t-109 -46.5q37 -16 70.5 -42.5t60.5 -60.5l291 -377h-389zM1540 2028q66 0 112.5 10.5
t76.5 29.5t43.5 46t13.5 61q0 55 -63 87t-183 32h-160v-266h160z" />
    <glyph glyph-name="macron" unicode="&#xaf;" horiz-adv-x="2253" 
d="M418 2482v443h1417v-443h-1417z" />
    <glyph glyph-name="degree" unicode="&#xb0;" horiz-adv-x="2245" 
d="M1966 2212q0 -113 -30 -217.5t-85 -195.5t-132 -165.5t-170.5 -128t-201.5 -83t-225 -29.5t-224.5 29.5t-201.5 83t-170.5 128t-131.5 165.5t-85 195.5t-30 217.5q0 111 30 215.5t85 195.5t131.5 166t170.5 129t201.5 83.5t224.5 29.5t225 -29.5t201.5 -83.5t170.5 -129
t132 -166t85 -195.5t30 -215.5zM1122 1786q86 0 163.5 34t136 92.5t92.5 136t34 163.5t-34 163t-92.5 135.5t-136 93t-163.5 34.5t-163 -34.5t-135.5 -93t-93 -135.5t-34.5 -163t34.5 -163.5t93 -136t135.5 -92.5t163 -34z" />
    <glyph glyph-name="plusminus" unicode="&#xb1;" horiz-adv-x="3269" 
d="M1942 1679v-815h-615v815h-1073v492h1073v795h615v-795h1073v-492h-1073zM254 0v492h2761v-492h-2761z" />
    <glyph glyph-name="twosuperior" unicode="&#xb2;" horiz-adv-x="2191" 
d="M295 1364v279l614 381q78 51 136 98t96.5 93t57 91.5t18.5 93.5q0 72 -28.5 123t-79.5 83t-122 46.5t-156 14.5q-37 0 -94.5 -6t-121.5 -17.5t-127 -28.5t-111 -38v335q54 22 115 39.5t125.5 30t130.5 19t129 6.5q118 0 223.5 -15.5t196 -47.5t163 -80t123 -114t78 -149
t27.5 -184q0 -66 -18 -127t-51.5 -116.5t-81.5 -107t-108 -99.5t-131 -93t-151 -88l-201 -111h918v-311h-1569z" />
    <glyph glyph-name="threesuperior" unicode="&#xb3;" horiz-adv-x="2191" 
d="M319 1757q55 -18 125 -37t149 -34.5t165.5 -25t175.5 -9.5q109 0 189.5 16.5t133 46t78 69t25.5 85.5q0 51 -28.5 88t-84 61t-136.5 36t-185 12h-221v286h221q106 0 174 14.5t107.5 38.5t55 54t15.5 61q0 39 -25.5 68t-72 48.5t-111.5 29.5t-143 10q-71 0 -147.5 -9.5
t-150 -25.5t-140.5 -37.5t-119 -46.5v328q49 26 108.5 48.5t132.5 39t162.5 26t198.5 9.5q184 0 334 -33.5t256 -93t163.5 -140.5t57.5 -176q0 -58 -19.5 -109.5t-58 -95t-94 -78t-127.5 -57.5q84 -21 155.5 -54.5t123.5 -81t81 -109.5t29 -140q0 -98 -60.5 -191.5
t-176 -166.5t-282 -117.5t-378.5 -44.5q-115 0 -212.5 9.5t-178.5 25.5t-147 36t-118 40v327z" />
    <glyph glyph-name="acute" unicode="&#xb4;" horiz-adv-x="2253" 
d="M537 2408l409 648h770l-696 -648h-483z" />
    <glyph glyph-name="mu" unicode="&#xb5;" horiz-adv-x="3391" 
d="M2888 -49q-116 0 -209 21.5t-164 61.5t-120 96.5t-77 127.5q-69 -71 -165 -130t-210.5 -102.5t-243 -67.5t-261.5 -24q-124 0 -236.5 19.5t-202.5 62.5q19 -46 32 -118t13 -168v-594h-643v2965h643v-1155q0 -132 31 -230t97.5 -162.5t170.5 -96t250 -31.5q98 0 186 11.5
t168.5 33.5t156 55t149.5 76v1499h643v-1433q0 -111 44 -166.5t148 -55.5q68 0 123.5 11t114.5 26v-438q-31 -17 -78 -33.5t-104.5 -30t-123 -22t-132.5 -8.5z" />
    <glyph glyph-name="paragraph" unicode="&#xb6;" horiz-adv-x="3441" 
d="M2437 -864v3412h-422v-3412h-561v2134h-4q-214 0 -392.5 24t-321.5 72t-250 119t-178.5 165.5t-107.5 211.5t-36 256t36 256t107.5 211.5t179 165.5t251 119t322.5 72t394 24h1544v-3830h-561z" />
    <glyph glyph-name="periodcentered" unicode="&#xb7;" horiz-adv-x="1790" 
d="M524 885v684h742v-684h-742z" />
    <glyph glyph-name="cedilla" unicode="&#xb8;" horiz-adv-x="2253" 
d="M721 -549q50 -12 99 -18t114 -6q29 0 56.5 4t48 13t33.5 25t13 39q0 29 -23 54.5t-61 45.5t-88.5 35.5t-105.5 24.5l217 373h332l-115 -238q46 -15 96 -39t91.5 -60t68.5 -86.5t27 -117.5q0 -102 -46.5 -177.5t-122 -124t-171 -72t-193.5 -23.5q-65 0 -135 7t-135 26v315
z" />
    <glyph glyph-name="onesuperior" unicode="&#xb9;" horiz-adv-x="2191" 
d="M553 1364v328h365v905l-369 -57v315l495 111h340v-1274h365v-328h-1196z" />
    <glyph glyph-name="ordmasculine" unicode="&#xba;" horiz-adv-x="2966" 
d="M1483 1167q-196 0 -361 27t-298 80t-234.5 131t-169.5 180t-102.5 227t-34.5 273q0 210 77.5 380.5t229 290.5t375.5 185t518 65q196 0 361.5 -27t299 -80.5t234.5 -132t168.5 -180.5t102 -228t34.5 -273q0 -140 -34.5 -262.5t-102.5 -224.5t-169.5 -182t-235 -135.5
t-298.5 -84.5t-360 -29zM1483 1565q149 0 269.5 35.5t205 103t130.5 163.5t46 218q0 120 -46 216t-130.5 163.5t-205 104t-269.5 36.5t-270.5 -36t-207 -103t-132 -163.5t-46.5 -217.5q0 -120 46.5 -216.5t132 -164t207 -103.5t270.5 -36zM242 340v451h2482v-451h-2482z" />
    <glyph glyph-name="guillemotright" unicode="&#xbb;" horiz-adv-x="3006" 
d="M221 467l586 762l-586 762h520l815 -762l-815 -762h-520zM1450 467l586 762l-586 762h520l815 -762l-815 -762h-520z" />
    <glyph glyph-name="onequarter" unicode="&#xbc;" horiz-adv-x="4850" 
d="M737 -123l2810 3211h565l-2810 -3211h-565zM553 1364v328h365v905l-369 -57v315l495 111h340v-1274h365v-328h-1196zM3899 0v299h-1044l4 275l1048 1028h447v-996h336v-307h-336v-299h-455zM3899 955v87.5v88.5q-68 -68 -135 -132.5t-135 -129.5l-271 -263h541v349z" />
    <glyph glyph-name="onehalf" unicode="&#xbd;" horiz-adv-x="4850" 
d="M553 1364v328h365v905l-369 -57v315l495 111h340v-1274h365v-328h-1196zM737 -123l2810 3211h565l-2810 -3211h-565zM2953 0v279l614 381q78 51 136 98t96.5 93t57 91.5t18.5 93.5q0 72 -28.5 123t-79.5 83t-122 46.5t-156 14.5q-37 0 -94.5 -6t-121.5 -17.5t-127 -28.5
t-111 -38v335q54 22 115 39.5t125.5 30t130.5 19t129 6.5q118 0 223.5 -15.5t196 -47.5t163 -80t123 -114t78 -149t27.5 -184q0 -66 -18 -127t-51.5 -116.5t-81.5 -107t-108 -99.5t-131 -93t-151 -88l-201 -111h918v-311h-1569z" />
    <glyph glyph-name="threequarters" unicode="&#xbe;" horiz-adv-x="4850" 
d="M737 -123l2810 3211h565l-2810 -3211h-565zM319 1757q55 -18 125 -37t149 -34.5t165.5 -25t175.5 -9.5q109 0 189.5 16.5t133 46t78 69t25.5 85.5q0 51 -28.5 88t-84 61t-136.5 36t-185 12h-221v286h221q106 0 174 14.5t107.5 38.5t55 54t15.5 61q0 39 -25.5 68t-72 48.5
t-111.5 29.5t-143 10q-71 0 -147.5 -9.5t-150 -25.5t-140.5 -37.5t-119 -46.5v328q49 26 108.5 48.5t132.5 39t162.5 26t198.5 9.5q184 0 334 -33.5t256 -93t163.5 -140.5t57.5 -176q0 -58 -19.5 -109.5t-58 -95t-94 -78t-127.5 -57.5q84 -21 155.5 -54.5t123.5 -81
t81 -109.5t29 -140q0 -98 -60.5 -191.5t-176 -166.5t-282 -117.5t-378.5 -44.5q-115 0 -212.5 9.5t-178.5 25.5t-147 36t-118 40v327zM3899 0v299h-1044l4 275l1048 1028h447v-996h336v-307h-336v-299h-455zM3899 955v87.5v88.5q-68 -68 -135 -132.5t-135 -129.5l-271 -263
h541v349z" />
    <glyph glyph-name="questiondown" unicode="&#xbf;" horiz-adv-x="2376" 
d="M2327 -737q-91 -37 -197.5 -72t-231 -62t-268 -43t-307.5 -16q-176 0 -332 22t-286.5 65t-234 107.5t-175.5 150t-110 192t-38 233.5q0 117 29.5 214t81 178.5t122 150.5t153 129.5t173.5 114.5t183 106l328 185l24 249h520l49 -491l-589 -316q-85 -44 -159.5 -95.5
t-130 -110.5t-88 -125t-32.5 -140q0 -80 41.5 -140t115.5 -99.5t176 -59.5t224 -20q112 0 239.5 14.5t255 40t247.5 61t217 76.5v-499zM1143 1483v618h692v-618h-692z" />
    <glyph glyph-name="Agrave" unicode="&#xc0;" horiz-adv-x="3817" 
d="M3068 0l-320 614h-1691l-316 -614h-733l1557 2966h688l1556 -2966h-741zM2138 1864q-59 117 -117 231t-116 232l-117 -234t-117 -233l-368 -734h1204zM1692 3162l-696 648h770l409 -648h-483z" />
    <glyph glyph-name="Aacute" unicode="&#xc1;" horiz-adv-x="3817" 
d="M3068 0l-320 614h-1691l-316 -614h-733l1557 2966h688l1556 -2966h-741zM2138 1864q-59 117 -117 231t-116 232l-117 -234t-117 -233l-368 -734h1204zM1610 3162l409 648h770l-696 -648h-483z" />
    <glyph glyph-name="Acircumflex" unicode="&#xc2;" horiz-adv-x="3817" 
d="M3068 0l-320 614h-1691l-316 -614h-733l1557 2966h688l1556 -2966h-741zM2138 1864q-59 117 -117 231t-116 232l-117 -234t-117 -233l-368 -734h1204zM2196 3162l-320 320l-319 -320h-492l426 648h770l426 -648h-491z" />
    <glyph glyph-name="Atilde" unicode="&#xc3;" horiz-adv-x="3817" 
d="M3068 0l-320 614h-1691l-316 -614h-733l1557 2966h688l1556 -2966h-741zM2138 1864q-59 117 -117 231t-116 232l-117 -234t-117 -233l-368 -734h1204zM2692 3810q0 -140 -30.5 -261t-92 -210.5t-153 -141t-212.5 -51.5q-67 0 -128 16t-116.5 40t-105 52.5t-95 52.5
t-86.5 40t-79 16q-32 0 -60.5 -13t-51 -38t-37.5 -63t-19 -87h-365q0 140 30.5 261t92 210.5t152.5 141t213 51.5q68 0 128.5 -16t115.5 -40t105 -52.5t95.5 -52.5t86.5 -40t79 -16q32 0 60.5 13t51 38.5t37 63t19.5 86.5h365z" />
    <glyph glyph-name="Adieresis" unicode="&#xc4;" horiz-adv-x="3817" 
d="M3068 0l-320 614h-1691l-316 -614h-733l1557 2966h688l1556 -2966h-741zM2138 1864q-59 117 -117 231t-116 232l-117 -234t-117 -233l-368 -734h1204zM1061 3195v525h561v-525h-561zM2130 3195v525h562v-525h-562z" />
    <glyph glyph-name="Aring" unicode="&#xc5;" horiz-adv-x="3817" 
d="M3068 0l-320 614h-1691l-316 -614h-733l1557 2966h688l1556 -2966h-741zM2138 1864q-59 117 -117 231t-116 232l-117 -234t-117 -233l-368 -734h1204zM2396 3547q0 -100 -37.5 -185.5t-103.5 -148t-156 -98t-195 -35.5q-104 0 -194 35.5t-156 98t-103.5 148t-37.5 185.5
t37.5 185.5t103.5 148t156 98t194 35.5q105 0 195 -35.5t156 -98t103.5 -148t37.5 -185.5zM2105 3547q0 40 -14.5 76.5t-41 64t-63.5 44t-82 16.5q-44 0 -81.5 -16.5t-64.5 -44t-42.5 -64t-15.5 -76.5q0 -42 15.5 -79t42.5 -65t64.5 -44.5t81.5 -16.5q45 0 82 16.5
t63.5 44.5t41 65t14.5 79z" />
    <glyph glyph-name="AE" unicode="&#xc6;" horiz-adv-x="5243" 
d="M2449 0v655h-1429l-348 -655h-733l1630 2966h3379v-484h-1839v-721h1577v-483h-1577v-795h1855v-483h-2515zM2449 2482h-458l-701 -1315h1159v1315z" />
    <glyph glyph-name="Ccedilla" unicode="&#xc7;" horiz-adv-x="3330" 
d="M1397 -549q49 -12 98.5 -18t114.5 -6q29 0 56.5 4t48.5 13.5t33.5 25.5t12.5 38q0 29 -23 54.5t-61 45.5t-88.5 35.5t-105.5 24.5l164 283q-241 27 -437 97.5t-350 176.5t-266.5 243t-186.5 298t-109.5 342t-35.5 375q0 208 45.5 403.5t137 367.5t230.5 315t326.5 245.5
t423 159.5t521.5 57q173 0 329.5 -17.5t294.5 -47.5t257.5 -69.5t219.5 -82.5v-520q-95 41 -210 81.5t-247.5 72.5t-282.5 51.5t-316 19.5q-181 0 -329.5 -36t-265.5 -101.5t-203.5 -159t-143 -208.5t-84 -249.5t-27.5 -281.5q0 -139 25.5 -270t80 -246.5t138.5 -211
t201 -164.5t268 -107t340 -38q136 0 279 13.5t284 37.5t277.5 58t260.5 76v-504q-77 -30 -153 -55.5t-156 -46.5t-166.5 -37t-184.5 -28t-210.5 -18.5t-241.5 -7.5l-63 -131q46 -15 96 -39.5t91.5 -59.5t68.5 -85.5t27 -117.5q0 -103 -46.5 -178t-122 -124t-171 -72.5
t-193.5 -23.5q-65 0 -135 7t-135 26v315z" />
    <glyph glyph-name="Egrave" unicode="&#xc8;" horiz-adv-x="3236" 
d="M442 0v2966h2499v-484h-1839v-721h1577v-483h-1577v-795h1855v-483h-2515zM1520 3162l-696 648h770l409 -648h-483z" />
    <glyph glyph-name="Eacute" unicode="&#xc9;" horiz-adv-x="3236" 
d="M442 0v2966h2499v-484h-1839v-721h1577v-483h-1577v-795h1855v-483h-2515zM1438 3162l409 648h770l-696 -648h-483z" />
    <glyph glyph-name="Ecircumflex" unicode="&#xca;" horiz-adv-x="3236" 
d="M442 0v2966h2499v-484h-1839v-721h1577v-483h-1577v-795h1855v-483h-2515zM2024 3162l-320 320l-319 -320h-492l426 648h770l426 -648h-491z" />
    <glyph glyph-name="Edieresis" unicode="&#xcb;" horiz-adv-x="3236" 
d="M442 0v2966h2499v-484h-1839v-721h1577v-483h-1577v-795h1855v-483h-2515zM889 3195v525h561v-525h-561zM1958 3195v525h562v-525h-562z" />
    <glyph glyph-name="Igrave" unicode="&#xcc;" horiz-adv-x="2257" 
d="M311 0v483h488v1999h-488v484h1635v-484h-488v-1999h488v-483h-1635zM943 3162l-696 648h770l409 -648h-483z" />
    <glyph glyph-name="Iacute" unicode="&#xcd;" horiz-adv-x="2257" 
d="M311 0v483h488v1999h-488v484h1635v-484h-488v-1999h488v-483h-1635zM861 3162l409 648h770l-696 -648h-483z" />
    <glyph glyph-name="Icircumflex" unicode="&#xce;" horiz-adv-x="2257" 
d="M311 0v483h488v1999h-488v484h1635v-484h-488v-1999h488v-483h-1635zM1446 3162l-320 320l-319 -320h-492l426 648h770l426 -648h-491z" />
    <glyph glyph-name="Idieresis" unicode="&#xcf;" horiz-adv-x="2257" 
d="M311 0v483h488v1999h-488v484h1635v-484h-488v-1999h488v-483h-1635zM311 3195v525h561v-525h-561zM1380 3195v525h562v-525h-562z" />
    <glyph glyph-name="Eth" unicode="&#xd0;" horiz-adv-x="3830" 
d="M479 0v1266h-266v442h266v1258h1442q285 0 517.5 -49t415.5 -140t317.5 -220.5t222.5 -291.5t131 -352t43 -402q0 -208 -44 -400.5t-134.5 -360.5t-228 -306t-325 -237t-426 -153t-530.5 -54h-1401zM1786 483q210 0 374 33t287 95t209 150.5t139 200t77 242.5t24 279
t-24 279t-77 242t-139 199.5t-209 150.5t-287 95t-374 33h-651v-774h675v-442h-675v-783h651z" />
    <glyph glyph-name="Ntilde" unicode="&#xd1;" horiz-adv-x="4026" 
d="M2814 0l-1401 1761q-83 106 -163.5 207.5t-164.5 206.5v-114v-113.5v-113.5v-114v-1720h-643v2966h770l1393 -1758q42 -52 84 -105l84 -106l84 -106t84 -105v114v114v113.5v113.5v1725h643v-2966h-770zM2827 3810q0 -140 -30.5 -261t-92 -210.5t-153 -141t-212.5 -51.5
q-67 0 -128 16t-116.5 40t-105 52.5t-95 52.5t-86.5 40t-79 16q-32 0 -60.5 -13t-51 -38t-37.5 -63t-19 -87h-365q0 140 30.5 261t92 210.5t152.5 141t213 51.5q68 0 128.5 -16t115.5 -40t105 -52.5t95.5 -52.5t86.5 -40t79 -16q32 0 60.5 13t51 38.5t37 63t19.5 86.5h365z
" />
    <glyph glyph-name="Ograve" unicode="&#xd2;" horiz-adv-x="3899" 
d="M1950 -66q-294 0 -533.5 56t-427 157.5t-324.5 243t-226.5 314t-133 369.5t-43.5 409q0 208 45.5 403.5t138 367.5t232 315t327 245.5t423.5 159.5t522 57q294 0 533 -56t426.5 -157t324.5 -243t226.5 -314t133 -369t43.5 -409q0 -208 -45.5 -403.5t-138 -367.5
t-232 -315.5t-327 -246t-423.5 -159.5t-521 -57zM1950 455q181 0 326 37.5t257 105.5t192.5 162.5t132 208.5t75.5 244.5t24 269.5t-24 269.5t-75.5 244.5t-132 208.5t-192.5 162.5t-257 105.5t-326 37.5t-326.5 -37.5t-257.5 -105.5t-192 -162.5t-131.5 -208.5t-76 -244.5
t-24.5 -269.5t24.5 -269.5t76 -244.5t131.5 -208.5t192 -162.5t257.5 -105.5t326.5 -37.5zM1765 3162l-696 648h770l409 -648h-483z" />
    <glyph glyph-name="Oacute" unicode="&#xd3;" horiz-adv-x="3899" 
d="M1950 -66q-294 0 -533.5 56t-427 157.5t-324.5 243t-226.5 314t-133 369.5t-43.5 409q0 208 45.5 403.5t138 367.5t232 315t327 245.5t423.5 159.5t522 57q294 0 533 -56t426.5 -157t324.5 -243t226.5 -314t133 -369t43.5 -409q0 -208 -45.5 -403.5t-138 -367.5
t-232 -315.5t-327 -246t-423.5 -159.5t-521 -57zM1950 455q181 0 326 37.5t257 105.5t192.5 162.5t132 208.5t75.5 244.5t24 269.5t-24 269.5t-75.5 244.5t-132 208.5t-192.5 162.5t-257 105.5t-326 37.5t-326.5 -37.5t-257.5 -105.5t-192 -162.5t-131.5 -208.5t-76 -244.5
t-24.5 -269.5t24.5 -269.5t76 -244.5t131.5 -208.5t192 -162.5t257.5 -105.5t326.5 -37.5zM1684 3162l409 648h770l-696 -648h-483z" />
    <glyph glyph-name="Ocircumflex" unicode="&#xd4;" horiz-adv-x="3899" 
d="M1950 -66q-294 0 -533.5 56t-427 157.5t-324.5 243t-226.5 314t-133 369.5t-43.5 409q0 208 45.5 403.5t138 367.5t232 315t327 245.5t423.5 159.5t522 57q294 0 533 -56t426.5 -157t324.5 -243t226.5 -314t133 -369t43.5 -409q0 -208 -45.5 -403.5t-138 -367.5
t-232 -315.5t-327 -246t-423.5 -159.5t-521 -57zM1950 455q181 0 326 37.5t257 105.5t192.5 162.5t132 208.5t75.5 244.5t24 269.5t-24 269.5t-75.5 244.5t-132 208.5t-192.5 162.5t-257 105.5t-326 37.5t-326.5 -37.5t-257.5 -105.5t-192 -162.5t-131.5 -208.5t-76 -244.5
t-24.5 -269.5t24.5 -269.5t76 -244.5t131.5 -208.5t192 -162.5t257.5 -105.5t326.5 -37.5zM2269 3162l-320 320l-319 -320h-492l426 648h770l426 -648h-491z" />
    <glyph glyph-name="Otilde" unicode="&#xd5;" horiz-adv-x="3899" 
d="M1950 -66q-294 0 -533.5 56t-427 157.5t-324.5 243t-226.5 314t-133 369.5t-43.5 409q0 208 45.5 403.5t138 367.5t232 315t327 245.5t423.5 159.5t522 57q294 0 533 -56t426.5 -157t324.5 -243t226.5 -314t133 -369t43.5 -409q0 -208 -45.5 -403.5t-138 -367.5
t-232 -315.5t-327 -246t-423.5 -159.5t-521 -57zM1950 455q181 0 326 37.5t257 105.5t192.5 162.5t132 208.5t75.5 244.5t24 269.5t-24 269.5t-75.5 244.5t-132 208.5t-192.5 162.5t-257 105.5t-326 37.5t-326.5 -37.5t-257.5 -105.5t-192 -162.5t-131.5 -208.5t-76 -244.5
t-24.5 -269.5t24.5 -269.5t76 -244.5t131.5 -208.5t192 -162.5t257.5 -105.5t326.5 -37.5zM2765 3810q0 -140 -30.5 -261t-92 -210.5t-153 -141t-212.5 -51.5q-67 0 -128 16t-116.5 40t-105 52.5t-95 52.5t-86.5 40t-79 16q-32 0 -60.5 -13t-51 -38t-37.5 -63t-19 -87h-365
q0 140 30.5 261t92 210.5t152.5 141t213 51.5q68 0 128.5 -16t115.5 -40t105 -52.5t95.5 -52.5t86.5 -40t79 -16q32 0 60.5 13t51 38.5t37 63t19.5 86.5h365z" />
    <glyph glyph-name="Odieresis" unicode="&#xd6;" horiz-adv-x="3899" 
d="M1950 -66q-294 0 -533.5 56t-427 157.5t-324.5 243t-226.5 314t-133 369.5t-43.5 409q0 208 45.5 403.5t138 367.5t232 315t327 245.5t423.5 159.5t522 57q294 0 533 -56t426.5 -157t324.5 -243t226.5 -314t133 -369t43.5 -409q0 -208 -45.5 -403.5t-138 -367.5
t-232 -315.5t-327 -246t-423.5 -159.5t-521 -57zM1950 455q181 0 326 37.5t257 105.5t192.5 162.5t132 208.5t75.5 244.5t24 269.5t-24 269.5t-75.5 244.5t-132 208.5t-192.5 162.5t-257 105.5t-326 37.5t-326.5 -37.5t-257.5 -105.5t-192 -162.5t-131.5 -208.5t-76 -244.5
t-24.5 -269.5t24.5 -269.5t76 -244.5t131.5 -208.5t192 -162.5t257.5 -105.5t326.5 -37.5zM1134 3195v525h561v-525h-561zM2203 3195v525h562v-525h-562z" />
    <glyph glyph-name="multiply" unicode="&#xd7;" horiz-adv-x="3269" 
d="M1634 897l-893 -696l-409 323l889 697l-889 696l409 324l893 -701l893 701l410 -324l-893 -696l893 -697l-410 -323z" />
    <glyph glyph-name="Oslash" unicode="&#xd8;" horiz-adv-x="3940" 
d="M164 0l463 455q-88 103 -152.5 221t-107 248.5t-63.5 271t-21 287.5q0 208 45.5 403.5t138 367.5t231.5 315t326.5 245.5t423.5 159.5t522 57q319 0 572.5 -66.5t447.5 -183.5l188 185h599l-463 -459q87 -103 152 -221.5t107.5 -248t63.5 -269t21 -285.5
q0 -208 -45.5 -403.5t-138 -367.5t-232 -315.5t-327 -246t-423.5 -159.5t-522 -57q-320 0 -575.5 65t-448.5 181l-184 -180h-598zM2564 2359q-113 71 -261.5 111.5t-332.5 40.5q-181 0 -326 -37.5t-257 -105.5t-192.5 -162.5t-132 -208.5t-75.5 -244.5t-24 -269.5
q0 -161 31 -304t96 -270zM1376 602q114 -71 260 -109t334 -38q181 0 326.5 37.5t257.5 105.5t192 162.5t131.5 208.5t76 244.5t24.5 269.5q0 158 -31 301.5t-96 267.5z" />
    <glyph glyph-name="Ugrave" unicode="&#xd9;" horiz-adv-x="3752" 
d="M2712 2966h655v-1770q0 -210 -40.5 -385t-122 -315.5t-205 -245.5t-289 -175.5t-374 -105.5t-460.5 -35q-261 0 -473 35t-378 105.5t-286.5 175.5t-199 245.5t-116.5 315.5t-38 385v1770h655v-1737q0 -197 47.5 -343t149 -242.5t260 -144.5t379.5 -48t379.5 48t260 144.5
t149 242.5t47.5 343v1737zM1692 3162l-696 648h770l409 -648h-483z" />
    <glyph glyph-name="Uacute" unicode="&#xda;" horiz-adv-x="3752" 
d="M2712 2966h655v-1770q0 -210 -40.5 -385t-122 -315.5t-205 -245.5t-289 -175.5t-374 -105.5t-460.5 -35q-261 0 -473 35t-378 105.5t-286.5 175.5t-199 245.5t-116.5 315.5t-38 385v1770h655v-1737q0 -197 47.5 -343t149 -242.5t260 -144.5t379.5 -48t379.5 48t260 144.5
t149 242.5t47.5 343v1737zM1610 3162l409 648h770l-696 -648h-483z" />
    <glyph glyph-name="Ucircumflex" unicode="&#xdb;" horiz-adv-x="3752" 
d="M2712 2966h655v-1770q0 -210 -40.5 -385t-122 -315.5t-205 -245.5t-289 -175.5t-374 -105.5t-460.5 -35q-261 0 -473 35t-378 105.5t-286.5 175.5t-199 245.5t-116.5 315.5t-38 385v1770h655v-1737q0 -197 47.5 -343t149 -242.5t260 -144.5t379.5 -48t379.5 48t260 144.5
t149 242.5t47.5 343v1737zM2196 3162l-320 320l-319 -320h-492l426 648h770l426 -648h-491z" />
    <glyph glyph-name="Udieresis" unicode="&#xdc;" horiz-adv-x="3752" 
d="M2712 2966h655v-1770q0 -210 -40.5 -385t-122 -315.5t-205 -245.5t-289 -175.5t-374 -105.5t-460.5 -35q-261 0 -473 35t-378 105.5t-286.5 175.5t-199 245.5t-116.5 315.5t-38 385v1770h655v-1737q0 -197 47.5 -343t149 -242.5t260 -144.5t379.5 -48t379.5 48t260 144.5
t149 242.5t47.5 343v1737zM1061 3195v525h561v-525h-561zM2130 3195v525h562v-525h-562z" />
    <glyph glyph-name="Yacute" unicode="&#xdd;" horiz-adv-x="3363" 
d="M1352 0v1102l-1360 1864h782l631 -902q35 -51 70.5 -101.5t70.5 -101t70.5 -101t71.5 -101.5q35 51 71 102t72 102.5t72 102.5t71 102l635 898h762l-1360 -1836v-1130h-659zM1414 3162l409 648h770l-696 -648h-483z" />
    <glyph glyph-name="Thorn" unicode="&#xde;" horiz-adv-x="3346" 
d="M442 0v2966h656v-492h659q225 0 415.5 -26t344 -79t270.5 -133t196 -188t119 -244t40 -301q0 -241 -90.5 -424t-271.5 -306.5t-452 -186t-632 -62.5h-598v-524h-656zM1655 1008q224 0 377.5 29.5t248 90.5t136 154t41.5 221q0 124 -41.5 216t-132.5 152.5t-236 90
t-352 29.5h-598v-983h557z" />
    <glyph glyph-name="germandbls" unicode="&#xdf;" horiz-adv-x="3404" 
d="M2195 -66q-128 0 -249 11.5t-229.5 32.5t-201.5 49.5t-163 62.5v471q64 -28 158.5 -54.5t202.5 -47t222.5 -33t218.5 -12.5q131 0 217 25t137 67.5t72 99t21 119.5q0 72 -35 132.5t-113 114.5t-202.5 103.5t-304.5 100.5l-553 155v373l237 74q151 46 265 92t191 100
t116 120.5t39 154.5q0 86 -40.5 148.5t-110.5 103t-164 60t-202 19.5q-177 0 -305 -41.5t-211.5 -126t-123.5 -212.5t-40 -300v-1896h-643v1946q0 275 94.5 479t269 338.5t421.5 201t551 66.5q169 0 320.5 -20.5t279.5 -62t231 -102.5t175 -142t110.5 -181.5t38.5 -220.5
q0 -140 -57.5 -255.5t-158.5 -209t-239 -165.5t-299 -124l111 -20q255 -48 444 -121t314.5 -175.5t187 -236.5t61.5 -303q0 -170 -68 -310t-201.5 -239.5t-332 -154t-459.5 -54.5z" />
    <glyph glyph-name="agrave" unicode="&#xe0;" horiz-adv-x="2949" 
d="M2044 0l-41 213q-78 -66 -174 -118t-207.5 -87.5t-239 -54.5t-268.5 -19q-213 0 -382.5 43t-287.5 126.5t-180.5 206t-62.5 280.5q0 131 45.5 232t130 176t204.5 126.5t269 83t324 45t370 13.5q80 0 156.5 -2t141.5 -5t128 -6v4q0 111 -42 190.5t-124.5 131t-205 76
t-283.5 24.5q-134 0 -256 -13t-233.5 -36t-212 -54.5t-191.5 -68.5v459q89 45 196 82t229 63.5t256 41t277 14.5q290 0 516.5 -48t382 -152t237 -268t81.5 -396v-1303h-553zM1970 889h-328q-209 0 -358 -14.5t-244 -47.5t-139.5 -85.5t-44.5 -127.5q0 -51 23 -97t72.5 -81
t127.5 -55.5t187 -20.5q118 0 218.5 14t187 39t160 59.5t138.5 76.5v340zM1299 2408l-696 648h770l409 -648h-483z" />
    <glyph glyph-name="aacute" unicode="&#xe1;" horiz-adv-x="2949" 
d="M2044 0l-41 213q-78 -66 -174 -118t-207.5 -87.5t-239 -54.5t-268.5 -19q-213 0 -382.5 43t-287.5 126.5t-180.5 206t-62.5 280.5q0 131 45.5 232t130 176t204.5 126.5t269 83t324 45t370 13.5q80 0 156.5 -2t141.5 -5t128 -6v4q0 111 -42 190.5t-124.5 131t-205 76
t-283.5 24.5q-134 0 -256 -13t-233.5 -36t-212 -54.5t-191.5 -68.5v459q89 45 196 82t229 63.5t256 41t277 14.5q290 0 516.5 -48t382 -152t237 -268t81.5 -396v-1303h-553zM1970 889h-328q-209 0 -358 -14.5t-244 -47.5t-139.5 -85.5t-44.5 -127.5q0 -51 23 -97t72.5 -81
t127.5 -55.5t187 -20.5q118 0 218.5 14t187 39t160 59.5t138.5 76.5v340zM1217 2408l409 648h770l-696 -648h-483z" />
    <glyph glyph-name="acircumflex" unicode="&#xe2;" horiz-adv-x="2949" 
d="M2044 0l-41 213q-78 -66 -174 -118t-207.5 -87.5t-239 -54.5t-268.5 -19q-213 0 -382.5 43t-287.5 126.5t-180.5 206t-62.5 280.5q0 131 45.5 232t130 176t204.5 126.5t269 83t324 45t370 13.5q80 0 156.5 -2t141.5 -5t128 -6v4q0 111 -42 190.5t-124.5 131t-205 76
t-283.5 24.5q-134 0 -256 -13t-233.5 -36t-212 -54.5t-191.5 -68.5v459q89 45 196 82t229 63.5t256 41t277 14.5q290 0 516.5 -48t382 -152t237 -268t81.5 -396v-1303h-553zM1970 889h-328q-209 0 -358 -14.5t-244 -47.5t-139.5 -85.5t-44.5 -127.5q0 -51 23 -97t72.5 -81
t127.5 -55.5t187 -20.5q118 0 218.5 14t187 39t160 59.5t138.5 76.5v340zM1802 2408l-320 320l-319 -320h-492l426 648h770l426 -648h-491z" />
    <glyph glyph-name="atilde" unicode="&#xe3;" horiz-adv-x="2949" 
d="M2044 0l-41 213q-78 -66 -174 -118t-207.5 -87.5t-239 -54.5t-268.5 -19q-213 0 -382.5 43t-287.5 126.5t-180.5 206t-62.5 280.5q0 131 45.5 232t130 176t204.5 126.5t269 83t324 45t370 13.5q80 0 156.5 -2t141.5 -5t128 -6v4q0 111 -42 190.5t-124.5 131t-205 76
t-283.5 24.5q-134 0 -256 -13t-233.5 -36t-212 -54.5t-191.5 -68.5v459q89 45 196 82t229 63.5t256 41t277 14.5q290 0 516.5 -48t382 -152t237 -268t81.5 -396v-1303h-553zM1970 889h-328q-209 0 -358 -14.5t-244 -47.5t-139.5 -85.5t-44.5 -127.5q0 -51 23 -97t72.5 -81
t127.5 -55.5t187 -20.5q118 0 218.5 14t187 39t160 59.5t138.5 76.5v340zM2298 3056q0 -140 -30.5 -261t-92 -210.5t-153 -141t-212.5 -51.5q-67 0 -128 16t-116.5 40t-105 52.5t-95 52.5t-86.5 40t-79 16q-32 0 -60.5 -13t-51 -38t-37.5 -63t-19 -87h-365q0 140 30.5 261
t92 210.5t152.5 141t213 51.5q68 0 128.5 -16t115.5 -40t105 -52.5t95.5 -52.5t86.5 -40t79 -16q32 0 60.5 13t51 38.5t37 63t19.5 86.5h365z" />
    <glyph glyph-name="adieresis" unicode="&#xe4;" horiz-adv-x="2949" 
d="M2044 0l-41 213q-78 -66 -174 -118t-207.5 -87.5t-239 -54.5t-268.5 -19q-213 0 -382.5 43t-287.5 126.5t-180.5 206t-62.5 280.5q0 131 45.5 232t130 176t204.5 126.5t269 83t324 45t370 13.5q80 0 156.5 -2t141.5 -5t128 -6v4q0 111 -42 190.5t-124.5 131t-205 76
t-283.5 24.5q-134 0 -256 -13t-233.5 -36t-212 -54.5t-191.5 -68.5v459q89 45 196 82t229 63.5t256 41t277 14.5q290 0 516.5 -48t382 -152t237 -268t81.5 -396v-1303h-553zM1970 889h-328q-209 0 -358 -14.5t-244 -47.5t-139.5 -85.5t-44.5 -127.5q0 -51 23 -97t72.5 -81
t127.5 -55.5t187 -20.5q118 0 218.5 14t187 39t160 59.5t138.5 76.5v340zM667 2441v525h561v-525h-561zM1736 2441v525h562v-525h-562z" />
    <glyph glyph-name="aring" unicode="&#xe5;" horiz-adv-x="2949" 
d="M2044 0l-41 213q-78 -66 -174 -118t-207.5 -87.5t-239 -54.5t-268.5 -19q-213 0 -382.5 43t-287.5 126.5t-180.5 206t-62.5 280.5q0 131 45.5 232t130 176t204.5 126.5t269 83t324 45t370 13.5q80 0 156.5 -2t141.5 -5t128 -6v4q0 111 -42 190.5t-124.5 131t-205 76
t-283.5 24.5q-134 0 -256 -13t-233.5 -36t-212 -54.5t-191.5 -68.5v459q89 45 196 82t229 63.5t256 41t277 14.5q290 0 516.5 -48t382 -152t237 -268t81.5 -396v-1303h-553zM1970 889h-328q-209 0 -358 -14.5t-244 -47.5t-139.5 -85.5t-44.5 -127.5q0 -51 23 -97t72.5 -81
t127.5 -55.5t187 -20.5q118 0 218.5 14t187 39t160 59.5t138.5 76.5v340zM1950 2859q0 -100 -37.5 -185.5t-103.5 -148t-156 -98t-195 -35.5q-104 0 -194 35.5t-156 98t-103.5 148t-37.5 185.5t37.5 185.5t103.5 148t156 98t194 35.5q105 0 195 -35.5t156 -98t103.5 -148
t37.5 -185.5zM1659 2859q0 40 -14.5 76.5t-41 64t-63.5 44t-82 16.5q-44 0 -81.5 -16.5t-64.5 -44t-42.5 -64t-15.5 -76.5q0 -42 15.5 -79t42.5 -65t64.5 -44.5t81.5 -16.5q45 0 82 16.5t63.5 44.5t41 65t14.5 79z" />
    <glyph glyph-name="ae" unicode="&#xe6;" horiz-adv-x="4723" 
d="M4346 135q-91 -45 -212 -82t-259 -63.5t-286 -41t-292 -14.5q-180 0 -335 24t-284 69.5t-225.5 103t-179.5 135.5q-104 -82 -245.5 -153t-294 -110.5t-290 -54t-288.5 -14.5q-225 0 -405 43t-301 126.5t-184.5 206t-63.5 280.5q0 131 45.5 232.5t130 176t204.5 126
t269 82.5t324 45t370 14q102 0 211.5 -3t214.5 -10v0q-3 96 -33 172t-104 133.5t-199.5 89t-318.5 31.5q-134 0 -256 -13t-233.5 -36t-212 -54.5t-191.5 -68.5v459q89 45 196 82t229 63.5t256 41t277 14.5q175 0 320.5 -19t263.5 -57t209.5 -94t157.5 -129q75 69 169 124.5
t207.5 94t247.5 59.5t289 21q225 0 408.5 -38.5t326.5 -108.5t248 -168.5t173 -219t101 -260t33 -291.5q0 -29 -1 -56.5t-2.5 -52.5t-3.5 -48t-5 -43h-1913q14 -105 64 -189.5t142 -144.5t229.5 -92.5t326.5 -32.5q138 0 274 13t261.5 36t237 54.5t202.5 68.5v-459z
M1642 889q-209 0 -358 -15t-244 -47.5t-139.5 -85t-44.5 -127.5q0 -52 25 -97.5t83.5 -81.5t155.5 -55.5t228 -19.5q72 0 152 9t173.5 34t187 66.5t191.5 103.5q-31 67 -54 149.5t-32 166.5h-324zM3879 1270q-21 114 -76 197t-137 137.5t-189 81t-233 26.5t-232 -26.5
t-187 -81t-134.5 -137.5t-73.5 -197h1262z" />
    <glyph glyph-name="ccedilla" unicode="&#xe7;" horiz-adv-x="2531" 
d="M954 -549q50 -12 99 -18t114 -6q29 0 56.5 4t48.5 13.5t34 25t13 38.5q0 29 -23 54.5t-61 45.5t-89 35.5t-106 24.5l167 287q-250 31 -434.5 117t-307 225.5t-183.5 331t-61 432.5q0 162 35 306.5t105.5 267t177 220.5t249.5 166.5t322.5 105t396.5 36.5
q111 0 225.5 -12.5t221 -35t198.5 -54.5t158 -70v-471q-72 31 -165 57.5t-196 46.5t-210 31.5t-207 11.5q-161 0 -283.5 -41t-205 -119t-124.5 -190.5t-42 -255.5q0 -149 41.5 -265.5t123 -197t201.5 -122.5t277 -42q117 0 227 10.5t211.5 29.5t194 45.5t174.5 58.5v-476
q-80 -35 -171 -64t-191 -50t-207.5 -33.5t-217.5 -15.5l-65 -136q46 -15 96 -39t91 -59.5t68 -86.5t27 -118q0 -68 -21 -124t-58.5 -100.5t-88.5 -77t-110 -53.5t-124 -31.5t-130 -10.5t-135.5 7t-135.5 26v315z" />
    <glyph glyph-name="egrave" unicode="&#xe8;" horiz-adv-x="2986" 
d="M2609 135q-91 -45 -212 -81t-258.5 -61.5t-285.5 -39.5t-292 -14q-225 0 -412 38t-336 107.5t-260 168.5t-185 221.5t-110.5 265t-36.5 300.5q0 148 33.5 289.5t102.5 266.5t174 230t247.5 181t324.5 118t404 42q225 0 408.5 -38.5t327 -108.5t248 -168.5t173 -219
t101.5 -260t33 -291.5q0 -29 -1 -55.5t-2.5 -51.5t-4 -47t-5.5 -42h-1913q12 -106 61.5 -191t141.5 -144.5t230 -91.5t329 -32q138 0 274 12.5t261.5 35t237 53t202.5 67.5v-459zM2138 1282q-23 111 -77.5 192t-136 134t-187.5 78.5t-230 25.5t-229 -25.5t-185.5 -78.5
t-134.5 -134t-77 -192h1257zM1315 2408l-696 648h770l409 -648h-483z" />
    <glyph glyph-name="eacute" unicode="&#xe9;" horiz-adv-x="2986" 
d="M2609 135q-91 -45 -212 -81t-258.5 -61.5t-285.5 -39.5t-292 -14q-225 0 -412 38t-336 107.5t-260 168.5t-185 221.5t-110.5 265t-36.5 300.5q0 148 33.5 289.5t102.5 266.5t174 230t247.5 181t324.5 118t404 42q225 0 408.5 -38.5t327 -108.5t248 -168.5t173 -219
t101.5 -260t33 -291.5q0 -29 -1 -55.5t-2.5 -51.5t-4 -47t-5.5 -42h-1913q12 -106 61.5 -191t141.5 -144.5t230 -91.5t329 -32q138 0 274 12.5t261.5 35t237 53t202.5 67.5v-459zM2138 1282q-23 111 -77.5 192t-136 134t-187.5 78.5t-230 25.5t-229 -25.5t-185.5 -78.5
t-134.5 -134t-77 -192h1257zM1233 2408l409 648h770l-696 -648h-483z" />
    <glyph glyph-name="ecircumflex" unicode="&#xea;" horiz-adv-x="2986" 
d="M2609 135q-91 -45 -212 -81t-258.5 -61.5t-285.5 -39.5t-292 -14q-225 0 -412 38t-336 107.5t-260 168.5t-185 221.5t-110.5 265t-36.5 300.5q0 148 33.5 289.5t102.5 266.5t174 230t247.5 181t324.5 118t404 42q225 0 408.5 -38.5t327 -108.5t248 -168.5t173 -219
t101.5 -260t33 -291.5q0 -29 -1 -55.5t-2.5 -51.5t-4 -47t-5.5 -42h-1913q12 -106 61.5 -191t141.5 -144.5t230 -91.5t329 -32q138 0 274 12.5t261.5 35t237 53t202.5 67.5v-459zM2138 1282q-23 111 -77.5 192t-136 134t-187.5 78.5t-230 25.5t-229 -25.5t-185.5 -78.5
t-134.5 -134t-77 -192h1257zM1819 2408l-320 320l-319 -320h-492l426 648h770l426 -648h-491z" />
    <glyph glyph-name="edieresis" unicode="&#xeb;" horiz-adv-x="2986" 
d="M2609 135q-91 -45 -212 -81t-258.5 -61.5t-285.5 -39.5t-292 -14q-225 0 -412 38t-336 107.5t-260 168.5t-185 221.5t-110.5 265t-36.5 300.5q0 148 33.5 289.5t102.5 266.5t174 230t247.5 181t324.5 118t404 42q225 0 408.5 -38.5t327 -108.5t248 -168.5t173 -219
t101.5 -260t33 -291.5q0 -29 -1 -55.5t-2.5 -51.5t-4 -47t-5.5 -42h-1913q12 -106 61.5 -191t141.5 -144.5t230 -91.5t329 -32q138 0 274 12.5t261.5 35t237 53t202.5 67.5v-459zM2138 1282q-23 111 -77.5 192t-136 134t-187.5 78.5t-230 25.5t-229 -25.5t-185.5 -78.5
t-134.5 -134t-77 -192h1257zM684 2441v525h561v-525h-561zM1753 2441v525h562v-525h-562z" />
    <glyph glyph-name="igrave" unicode="&#xec;" horiz-adv-x="1446" 
d="M401 0v2101h643v-2101h-643zM538 2408l-696 648h770l409 -648h-483z" />
    <glyph glyph-name="iacute" unicode="&#xed;" horiz-adv-x="1446" 
d="M401 0v2101h643v-2101h-643zM456 2408l409 648h770l-696 -648h-483z" />
    <glyph glyph-name="icircumflex" unicode="&#xee;" horiz-adv-x="1446" 
d="M401 0v2101h643v-2101h-643zM1041 2408l-320 320l-319 -320h-492l426 648h770l426 -648h-491z" />
    <glyph glyph-name="idieresis" unicode="&#xef;" horiz-adv-x="1446" 
d="M401 0v2101h643v-2101h-643zM-94 2441v525h561v-525h-561zM975 2441v525h562v-525h-562z" />
    <glyph glyph-name="eth" unicode="&#xf0;" horiz-adv-x="3252" 
d="M2159 2568q180 -115 338.5 -261t277 -326t187.5 -396t69 -471q0 -155 -31.5 -303t-100.5 -279t-178.5 -241t-265.5 -189.5t-362 -123.5t-467 -44q-212 0 -398.5 25.5t-342.5 78.5t-279.5 136t-209 198.5t-130.5 264t-45 334.5q0 181 45 329t128 264t201.5 201
t265.5 140.5t319 82.5t364 27q100 0 191 -11.5t173.5 -32.5t157 -50.5t142.5 -65.5q-109 149 -261.5 276t-328.5 232l-717 -274v348l320 123q-118 46 -232 79t-219 52l111 356q92 -15 198 -39.5t221 -58t235.5 -77.5t242.5 -99l708 274v-352zM1626 401q154 0 289.5 29.5
t237 97t160.5 176.5t59 267t-59 268t-160.5 178.5t-237 99.5t-289.5 31q-153 0 -289 -31t-237 -99.5t-160 -178.5t-59 -268q0 -106 27 -189t75.5 -146.5t116.5 -108t151 -72.5t178 -41t197 -13z" />
    <glyph glyph-name="ntilde" unicode="&#xf1;" horiz-adv-x="3289" 
d="M2302 0v1155q0 132 -31 229.5t-97.5 162t-170.5 96.5t-250 32q-115 0 -215 -14.5t-187 -38.5t-163 -56t-144 -67v-1499h-643v2101h562l45 -241q80 72 177 129t208 96.5t235.5 60.5t259.5 21q140 0 273 -17t250.5 -57.5t215.5 -109t168.5 -172t110 -245.5t39.5 -329v-1237
h-643zM2487 3056q0 -140 -30.5 -261t-92 -210.5t-153 -141t-212.5 -51.5q-67 0 -128 16t-116.5 40t-105 52.5t-95 52.5t-86.5 40t-79 16q-32 0 -60.5 -13t-51 -38t-37.5 -63t-19 -87h-365q0 140 30.5 261t92 210.5t152.5 141t213 51.5q68 0 128.5 -16t115.5 -40t105 -52.5
t95.5 -52.5t86.5 -40t79 -16q32 0 60.5 13t51 38.5t37 63t19.5 86.5h365z" />
    <glyph glyph-name="ograve" unicode="&#xf2;" horiz-adv-x="3252" 
d="M1626 -66q-227 0 -419.5 33.5t-348.5 99t-275 161t-199.5 220t-121.5 276.5t-41 329q0 169 41 317t121.5 272t199.5 221.5t275 165t348.5 103t419.5 35.5q228 0 421 -33.5t349.5 -99t275 -161t198.5 -220t120.5 -276t40.5 -328.5q0 -169 -41 -317.5t-121.5 -272
t-199.5 -221.5t-275 -165.5t-348.5 -103t-419.5 -35.5zM1626 406q168 0 305.5 44.5t235.5 127.5t151.5 202.5t53.5 268.5t-53.5 268.5t-151.5 203.5t-235.5 129.5t-305.5 45.5q-167 0 -304.5 -44.5t-235.5 -128t-151.5 -202.5t-53.5 -268t53.5 -269t151.5 -204t235.5 -129
t304.5 -45zM1381 2408l-696 648h770l409 -648h-483z" />
    <glyph glyph-name="oacute" unicode="&#xf3;" horiz-adv-x="3252" 
d="M1626 -66q-227 0 -419.5 33.5t-348.5 99t-275 161t-199.5 220t-121.5 276.5t-41 329q0 169 41 317t121.5 272t199.5 221.5t275 165t348.5 103t419.5 35.5q228 0 421 -33.5t349.5 -99t275 -161t198.5 -220t120.5 -276t40.5 -328.5q0 -169 -41 -317.5t-121.5 -272
t-199.5 -221.5t-275 -165.5t-348.5 -103t-419.5 -35.5zM1626 406q168 0 305.5 44.5t235.5 127.5t151.5 202.5t53.5 268.5t-53.5 268.5t-151.5 203.5t-235.5 129.5t-305.5 45.5q-167 0 -304.5 -44.5t-235.5 -128t-151.5 -202.5t-53.5 -268t53.5 -269t151.5 -204t235.5 -129
t304.5 -45zM1298 2408l409 648h770l-696 -648h-483z" />
    <glyph glyph-name="ocircumflex" unicode="&#xf4;" horiz-adv-x="3252" 
d="M1626 -66q-227 0 -419.5 33.5t-348.5 99t-275 161t-199.5 220t-121.5 276.5t-41 329q0 169 41 317t121.5 272t199.5 221.5t275 165t348.5 103t419.5 35.5q228 0 421 -33.5t349.5 -99t275 -161t198.5 -220t120.5 -276t40.5 -328.5q0 -169 -41 -317.5t-121.5 -272
t-199.5 -221.5t-275 -165.5t-348.5 -103t-419.5 -35.5zM1626 406q168 0 305.5 44.5t235.5 127.5t151.5 202.5t53.5 268.5t-53.5 268.5t-151.5 203.5t-235.5 129.5t-305.5 45.5q-167 0 -304.5 -44.5t-235.5 -128t-151.5 -202.5t-53.5 -268t53.5 -269t151.5 -204t235.5 -129
t304.5 -45zM1946 2408l-320 320l-319 -320h-492l426 648h770l426 -648h-491z" />
    <glyph glyph-name="otilde" unicode="&#xf5;" horiz-adv-x="3252" 
d="M1626 -66q-227 0 -419.5 33.5t-348.5 99t-275 161t-199.5 220t-121.5 276.5t-41 329q0 169 41 317t121.5 272t199.5 221.5t275 165t348.5 103t419.5 35.5q228 0 421 -33.5t349.5 -99t275 -161t198.5 -220t120.5 -276t40.5 -328.5q0 -169 -41 -317.5t-121.5 -272
t-199.5 -221.5t-275 -165.5t-348.5 -103t-419.5 -35.5zM1626 406q168 0 305.5 44.5t235.5 127.5t151.5 202.5t53.5 268.5t-53.5 268.5t-151.5 203.5t-235.5 129.5t-305.5 45.5q-167 0 -304.5 -44.5t-235.5 -128t-151.5 -202.5t-53.5 -268t53.5 -269t151.5 -204t235.5 -129
t304.5 -45zM2442 3056q0 -140 -30.5 -261t-92 -210.5t-153 -141t-212.5 -51.5q-67 0 -128 16t-116.5 40t-105 52.5t-95 52.5t-86.5 40t-79 16q-32 0 -60.5 -13t-51 -38t-37.5 -63t-19 -87h-365q0 140 30.5 261t92 210.5t152.5 141t213 51.5q68 0 128.5 -16t115.5 -40
t105 -52.5t95.5 -52.5t86.5 -40t79 -16q32 0 60.5 13t51 38.5t37 63t19.5 86.5h365z" />
    <glyph glyph-name="odieresis" unicode="&#xf6;" horiz-adv-x="3252" 
d="M1626 -66q-227 0 -419.5 33.5t-348.5 99t-275 161t-199.5 220t-121.5 276.5t-41 329q0 169 41 317t121.5 272t199.5 221.5t275 165t348.5 103t419.5 35.5q228 0 421 -33.5t349.5 -99t275 -161t198.5 -220t120.5 -276t40.5 -328.5q0 -169 -41 -317.5t-121.5 -272
t-199.5 -221.5t-275 -165.5t-348.5 -103t-419.5 -35.5zM1626 406q168 0 305.5 44.5t235.5 127.5t151.5 202.5t53.5 268.5t-53.5 268.5t-151.5 203.5t-235.5 129.5t-305.5 45.5q-167 0 -304.5 -44.5t-235.5 -128t-151.5 -202.5t-53.5 -268t53.5 -269t151.5 -204t235.5 -129
t304.5 -45zM811 2441v525h561v-525h-561zM1880 2441v525h562v-525h-562z" />
    <glyph glyph-name="divide" unicode="&#xf7;" horiz-adv-x="3269" 
d="M254 975v491h2761v-491h-2761zM1266 1757v684h741v-684h-741zM1266 0v684h741v-684h-741z" />
    <glyph glyph-name="oslash" unicode="&#xf8;" horiz-adv-x="3293" 
d="M82 0l430 352q-57 67 -100 145.5t-71.5 166.5t-43 185.5t-14.5 203.5q0 169 41 317t121 272t199 221.5t275 165t348.5 103t420.5 35.5q255 0 464 -43t375 -125l123 102h561l-385 -315q66 -69 116 -150t83 -173.5t50 -196t17 -217.5q0 -169 -41 -317.5t-121 -272
t-199 -221.5t-275 -165.5t-348.5 -103t-419.5 -35.5q-274 0 -497 49t-392 144l-156 -127h-561zM1257 504q90 -50 197 -74t234 -24q167 0 304.5 44.5t235.5 127.5t151.5 202.5t53.5 268.5q0 99 -24 183.5t-70 156.5zM2064 1622q-80 34 -174 54t-202 20q-168 0 -305.5 -44.5
t-235.5 -128t-151.5 -202.5t-53.5 -268q0 -84 16 -157t50 -138z" />
    <glyph glyph-name="ugrave" unicode="&#xf9;" horiz-adv-x="3240" 
d="M2277 0l-45 229q-71 -65 -165 -117.5t-204 -91t-233 -61t-250 -25.5q-136 0 -265.5 17t-244.5 58t-212 109.5t-166.5 171.5t-108.5 245t-39 329v1237h643v-1155q0 -132 31 -230t97.5 -162.5t170.5 -96t250 -31.5q98 0 186 11.5t168.5 33.5t155.5 55t149 76v1499h644
v-2101h-562zM1405 2408l-696 648h770l409 -648h-483z" />
    <glyph glyph-name="uacute" unicode="&#xfa;" horiz-adv-x="3240" 
d="M2277 0l-45 229q-71 -65 -165 -117.5t-204 -91t-233 -61t-250 -25.5q-136 0 -265.5 17t-244.5 58t-212 109.5t-166.5 171.5t-108.5 245t-39 329v1237h643v-1155q0 -132 31 -230t97.5 -162.5t170.5 -96t250 -31.5q98 0 186 11.5t168.5 33.5t155.5 55t149 76v1499h644
v-2101h-562zM1323 2408l409 648h770l-696 -648h-483z" />
    <glyph glyph-name="ucircumflex" unicode="&#xfb;" horiz-adv-x="3240" 
d="M2277 0l-45 229q-71 -65 -165 -117.5t-204 -91t-233 -61t-250 -25.5q-136 0 -265.5 17t-244.5 58t-212 109.5t-166.5 171.5t-108.5 245t-39 329v1237h643v-1155q0 -132 31 -230t97.5 -162.5t170.5 -96t250 -31.5q98 0 186 11.5t168.5 33.5t155.5 55t149 76v1499h644
v-2101h-562zM1909 2408l-320 320l-319 -320h-492l426 648h770l426 -648h-491z" />
    <glyph glyph-name="udieresis" unicode="&#xfc;" horiz-adv-x="3240" 
d="M2277 0l-45 229q-71 -65 -165 -117.5t-204 -91t-233 -61t-250 -25.5q-136 0 -265.5 17t-244.5 58t-212 109.5t-166.5 171.5t-108.5 245t-39 329v1237h643v-1155q0 -132 31 -230t97.5 -162.5t170.5 -96t250 -31.5q98 0 186 11.5t168.5 33.5t155.5 55t149 76v1499h644
v-2101h-562zM774 2441v525h561v-525h-561zM1843 2441v525h562v-525h-562z" />
    <glyph glyph-name="yacute" unicode="&#xfd;" horiz-adv-x="2859" 
d="M16 -393q59 -13 138 -21t174 -8q73 0 150 7.5t148 25t136.5 46.5t122 71.5t104.5 100.5t84 134l21 41l-1061 2097h696l573 -1204q37 -77 72 -151.5t72 -151.5q35 74 70.5 149.5t71.5 151.5l571 1206h667l-1093 -2167q-80 -157 -163.5 -277.5t-176 -213t-193.5 -159
t-216 -113.5t-264.5 -74t-330.5 -27q-40 0 -89.5 3t-107 11.5t-106 22.5t-70.5 25v475zM1139 2408l409 648h770l-696 -648h-483z" />
    <glyph glyph-name="thorn" unicode="&#xfe;" horiz-adv-x="3310" 
d="M401 -864v3830h643v-1074q74 59 166 109.5t200.5 87.5t233.5 57.5t265 20.5q278 0 497 -74t370.5 -216t231.5 -342.5t80 -462.5q0 -171 -36 -323.5t-105 -277.5t-172.5 -226t-235.5 -169t-300.5 -105t-355.5 -37q-140 0 -252 16t-220.5 45t-200.5 69.5t-166 91.5v-1020
h-643zM1044 594q79 -40 158 -70.5t165.5 -51.5t183.5 -31.5t214 -10.5q163 0 288 41.5t209.5 120.5t127.5 194t43 263q0 147 -43 262t-127.5 193t-209.5 118.5t-288 40.5q-117 0 -214 -10t-183 -30t-165 -51t-159 -73v-905z" />
    <glyph glyph-name="ydieresis" unicode="&#xff;" horiz-adv-x="2859" 
d="M16 -393q59 -13 138 -21t174 -8q73 0 150 7.5t148 25t136.5 46.5t122 71.5t104.5 100.5t84 134l21 41l-1061 2097h696l573 -1204q37 -77 72 -151.5t72 -151.5q35 74 70.5 149.5t71.5 151.5l571 1206h667l-1093 -2167q-80 -157 -163.5 -277.5t-176 -213t-193.5 -159
t-216 -113.5t-264.5 -74t-330.5 -27q-40 0 -89.5 3t-107 11.5t-106 22.5t-70.5 25v475zM590 2441v525h561v-525h-561zM1659 2441v525h562v-525h-562z" />
    <glyph glyph-name="Amacron" unicode="&#x100;" horiz-adv-x="3817" 
d="M3068 0l-320 614h-1691l-316 -614h-733l1557 2966h688l1556 -2966h-741zM2138 1864q-59 117 -117 231t-116 232l-117 -234t-117 -233l-368 -734h1204zM1168 3236v443h1417v-443h-1417z" />
    <glyph glyph-name="amacron" unicode="&#x101;" horiz-adv-x="2949" 
d="M2044 0l-41 213q-78 -66 -174 -118t-207.5 -87.5t-239 -54.5t-268.5 -19q-213 0 -382.5 43t-287.5 126.5t-180.5 206t-62.5 280.5q0 131 45.5 232t130 176t204.5 126.5t269 83t324 45t370 13.5q80 0 156.5 -2t141.5 -5t128 -6v4q0 111 -42 190.5t-124.5 131t-205 76
t-283.5 24.5q-134 0 -256 -13t-233.5 -36t-212 -54.5t-191.5 -68.5v459q89 45 196 82t229 63.5t256 41t277 14.5q290 0 516.5 -48t382 -152t237 -268t81.5 -396v-1303h-553zM1970 889h-328q-209 0 -358 -14.5t-244 -47.5t-139.5 -85.5t-44.5 -127.5q0 -51 23 -97t72.5 -81
t127.5 -55.5t187 -20.5q118 0 218.5 14t187 39t160 59.5t138.5 76.5v340zM774 2482v443h1417v-443h-1417z" />
    <glyph glyph-name="Abreve" unicode="&#x102;" horiz-adv-x="3817" 
d="M3068 0l-320 614h-1691l-316 -614h-733l1557 2966h688l1556 -2966h-741zM2138 1864q-59 117 -117 231t-116 232l-117 -234t-117 -233l-368 -734h1204zM2634 3810q-8 -140 -57 -263t-142 -215t-232.5 -145t-326.5 -53t-326 53t-232 145t-142.5 215t-56.5 263h397
q17 -51 46.5 -96t74 -78t103.5 -52.5t136 -19.5t136.5 19.5t104 52.5t74 78t46.5 96h397z" />
    <glyph glyph-name="abreve" unicode="&#x103;" horiz-adv-x="2949" 
d="M2044 0l-41 213q-78 -66 -174 -118t-207.5 -87.5t-239 -54.5t-268.5 -19q-213 0 -382.5 43t-287.5 126.5t-180.5 206t-62.5 280.5q0 131 45.5 232t130 176t204.5 126.5t269 83t324 45t370 13.5q80 0 156.5 -2t141.5 -5t128 -6v4q0 111 -42 190.5t-124.5 131t-205 76
t-283.5 24.5q-134 0 -256 -13t-233.5 -36t-212 -54.5t-191.5 -68.5v459q89 45 196 82t229 63.5t256 41t277 14.5q290 0 516.5 -48t382 -152t237 -268t81.5 -396v-1303h-553zM1970 889h-328q-209 0 -358 -14.5t-244 -47.5t-139.5 -85.5t-44.5 -127.5q0 -51 23 -97t72.5 -81
t127.5 -55.5t187 -20.5q118 0 218.5 14t187 39t160 59.5t138.5 76.5v340zM2240 3056q-8 -140 -57 -263t-142 -215t-232.5 -145t-326.5 -53t-326 53t-232 145t-142.5 215t-56.5 263h397q17 -51 46.5 -96t74 -78t103.5 -52.5t136 -19.5t136.5 19.5t104 52.5t74 78t46.5 96h397
z" />
    <glyph glyph-name="Aogonek" unicode="&#x104;" horiz-adv-x="3817" 
d="M3592 -852q-71 -15 -141 -24t-129 -9q-135 0 -239 24t-174.5 72t-107 120t-36.5 169q0 81 25 152t66.5 133t96.5 115.5t115 99.5l-320 614h-1691l-316 -614h-733l1557 2966h688l1556 -2966h-340q-57 -54 -104 -105t-81.5 -100t-53.5 -95t-19 -89q0 -74 51 -113t146 -39
q20 0 40 1t42.5 3t47.5 6.5t54 10.5v-332zM2138 1860q-59 117 -117 233t-116 234l-117 -234t-117 -233l-368 -734h1204z" />
    <glyph glyph-name="aogonek" unicode="&#x105;" horiz-adv-x="2949" 
d="M2568 -852q-71 -15 -141 -24t-129 -9q-135 0 -239 24t-174.5 72t-107 120t-36.5 169q0 81 25 152t66.5 133t96.5 115.5t115 99.5l-41 213q-78 -66 -174 -118t-207.5 -87.5t-239 -54.5t-268.5 -19q-213 0 -382.5 43t-287.5 126.5t-180.5 206t-62.5 280.5q0 131 45.5 232
t130 176t204.5 126.5t269 83t324 45t370 13.5q80 0 156.5 -2.5t141.5 -5t128 -5.5v4q0 111 -42 190.5t-124.5 131t-205 76t-283.5 24.5q-134 0 -256 -13t-233.5 -36t-212 -54.5t-191.5 -68.5v459q89 45 196 82t229 63.5t256 41t277 14.5q290 0 516.5 -48t382 -152t237 -268
t81.5 -396v-1303h-152q-57 -54 -104 -105t-81.5 -100t-53.5 -95t-19 -89q0 -74 51 -113t146 -39q20 0 40 1t42.5 3t47.5 6.5t54 10.5v-332zM1970 889h-328q-209 0 -358 -14.5t-244 -47.5t-139.5 -85.5t-44.5 -127.5q0 -51 23 -97t72.5 -81t127.5 -55.5t187 -20.5
q118 0 218.5 14t187 39t160 59.5t138.5 76.5v340z" />
    <glyph glyph-name="Cacute" unicode="&#x106;" horiz-adv-x="3330" 
d="M3092 127q-117 -47 -234 -81.5t-251.5 -59t-295.5 -38.5t-365 -14q-294 0 -533 56t-426 157.5t-324 243t-226 314t-132 369.5t-43 409q0 208 45.5 403.5t137 367.5t230.5 315t326.5 245.5t423 159.5t521.5 57q173 0 329.5 -17.5t294.5 -47.5t257.5 -69.5t219.5 -82.5
v-520q-95 41 -210 81.5t-247.5 72.5t-282.5 51.5t-316 19.5q-181 0 -329.5 -36t-265.5 -101.5t-203.5 -159t-143 -208.5t-84 -249.5t-27.5 -281.5q0 -139 25.5 -270t80 -246.5t138.5 -211t201 -164.5t268 -107t340 -38q136 0 279 13.5t284 37.5t277.5 58t260.5 76v-504z
M1614 3162l409 648h770l-696 -648h-483z" />
    <glyph glyph-name="cacute" unicode="&#x107;" horiz-adv-x="2531" 
d="M2327 102q-85 -37 -181.5 -67t-202.5 -51.5t-220.5 -33t-235.5 -11.5q-318 0 -555.5 73t-395.5 215t-236.5 351.5t-78.5 482.5q0 162 35 306.5t105.5 267t177 220.5t249.5 166.5t322.5 105t396.5 36.5q111 0 225.5 -12.5t221 -35t198.5 -54.5t158 -70v-471
q-72 31 -165 57.5t-196 46.5t-210 31.5t-207 11.5q-161 0 -283.5 -41t-205 -119t-124.5 -190.5t-42 -255.5q0 -149 41.5 -265.5t123 -197t201.5 -122.5t277 -42q117 0 227 10.5t211.5 29.5t194 45.5t174.5 58.5v-476zM1090 2408l409 648h770l-696 -648h-483z" />
    <glyph glyph-name="Ccircumflex" unicode="&#x108;" horiz-adv-x="3330" 
d="M3092 127q-117 -47 -234 -81.5t-251.5 -59t-295.5 -38.5t-365 -14q-294 0 -533 56t-426 157.5t-324 243t-226 314t-132 369.5t-43 409q0 208 45.5 403.5t137 367.5t230.5 315t326.5 245.5t423 159.5t521.5 57q173 0 329.5 -17.5t294.5 -47.5t257.5 -69.5t219.5 -82.5
v-520q-95 41 -210 81.5t-247.5 72.5t-282.5 51.5t-316 19.5q-181 0 -329.5 -36t-265.5 -101.5t-203.5 -159t-143 -208.5t-84 -249.5t-27.5 -281.5q0 -139 25.5 -270t80 -246.5t138.5 -211t201 -164.5t268 -107t340 -38q136 0 279 13.5t284 37.5t277.5 58t260.5 76v-504z
M2200 3162l-320 320l-319 -320h-492l426 648h770l426 -648h-491z" />
    <glyph glyph-name="ccircumflex" unicode="&#x109;" horiz-adv-x="2531" 
d="M2327 102q-85 -37 -181.5 -67t-202.5 -51.5t-220.5 -33t-235.5 -11.5q-318 0 -555.5 73t-395.5 215t-236.5 351.5t-78.5 482.5q0 162 35 306.5t105.5 267t177 220.5t249.5 166.5t322.5 105t396.5 36.5q111 0 225.5 -12.5t221 -35t198.5 -54.5t158 -70v-471
q-72 31 -165 57.5t-196 46.5t-210 31.5t-207 11.5q-161 0 -283.5 -41t-205 -119t-124.5 -190.5t-42 -255.5q0 -149 41.5 -265.5t123 -197t201.5 -122.5t277 -42q117 0 227 10.5t211.5 29.5t194 45.5t174.5 58.5v-476zM1675 2408l-320 320l-319 -320h-492l426 648h770
l426 -648h-491z" />
    <glyph glyph-name="Cdotaccent" unicode="&#x10a;" horiz-adv-x="3330" 
d="M3092 127q-117 -47 -234 -81.5t-251.5 -59t-295.5 -38.5t-365 -14q-294 0 -533 56t-426 157.5t-324 243t-226 314t-132 369.5t-43 409q0 208 45.5 403.5t137 367.5t230.5 315t326.5 245.5t423 159.5t521.5 57q173 0 329.5 -17.5t294.5 -47.5t257.5 -69.5t219.5 -82.5
v-520q-95 41 -210 81.5t-247.5 72.5t-282.5 51.5t-316 19.5q-181 0 -329.5 -36t-265.5 -101.5t-203.5 -159t-143 -208.5t-84 -249.5t-27.5 -281.5q0 -139 25.5 -270t80 -246.5t138.5 -211t201 -164.5t268 -107t340 -38q136 0 279 13.5t284 37.5t277.5 58t260.5 76v-504z
M1561 3236v557h643v-557h-643z" />
    <glyph glyph-name="cdotaccent" unicode="&#x10b;" horiz-adv-x="2531" 
d="M2327 102q-85 -37 -181.5 -67t-202.5 -51.5t-220.5 -33t-235.5 -11.5q-318 0 -555.5 73t-395.5 215t-236.5 351.5t-78.5 482.5q0 162 35 306.5t105.5 267t177 220.5t249.5 166.5t322.5 105t396.5 36.5q111 0 225.5 -12.5t221 -35t198.5 -54.5t158 -70v-471
q-72 31 -165 57.5t-196 46.5t-210 31.5t-207 11.5q-161 0 -283.5 -41t-205 -119t-124.5 -190.5t-42 -255.5q0 -149 41.5 -265.5t123 -197t201.5 -122.5t277 -42q117 0 227 10.5t211.5 29.5t194 45.5t174.5 58.5v-476zM1036 2482v557h643v-557h-643z" />
    <glyph glyph-name="Ccaron" unicode="&#x10c;" horiz-adv-x="3330" 
d="M3092 127q-117 -47 -234 -81.5t-251.5 -59t-295.5 -38.5t-365 -14q-294 0 -533 56t-426 157.5t-324 243t-226 314t-132 369.5t-43 409q0 208 45.5 403.5t137 367.5t230.5 315t326.5 245.5t423 159.5t521.5 57q173 0 329.5 -17.5t294.5 -47.5t257.5 -69.5t219.5 -82.5
v-520q-95 41 -210 81.5t-247.5 72.5t-282.5 51.5t-316 19.5q-181 0 -329.5 -36t-265.5 -101.5t-203.5 -159t-143 -208.5t-84 -249.5t-27.5 -281.5q0 -139 25.5 -270t80 -246.5t138.5 -211t201 -164.5t268 -107t340 -38q136 0 279 13.5t284 37.5t277.5 58t260.5 76v-504z
M1495 3162l-426 648h492l319 -320l320 320h491l-426 -648h-770z" />
    <glyph glyph-name="ccaron" unicode="&#x10d;" horiz-adv-x="2531" 
d="M2327 102q-85 -37 -181.5 -67t-202.5 -51.5t-220.5 -33t-235.5 -11.5q-318 0 -555.5 73t-395.5 215t-236.5 351.5t-78.5 482.5q0 162 35 306.5t105.5 267t177 220.5t249.5 166.5t322.5 105t396.5 36.5q111 0 225.5 -12.5t221 -35t198.5 -54.5t158 -70v-471
q-72 31 -165 57.5t-196 46.5t-210 31.5t-207 11.5q-161 0 -283.5 -41t-205 -119t-124.5 -190.5t-42 -255.5q0 -149 41.5 -265.5t123 -197t201.5 -122.5t277 -42q117 0 227 10.5t211.5 29.5t194 45.5t174.5 58.5v-476zM970 2408l-426 648h492l319 -320l320 320h491l-426 -648
h-770z" />
    <glyph glyph-name="Dcaron" unicode="&#x10e;" horiz-adv-x="3793" 
d="M442 0v2966h1442q285 0 517.5 -49t415.5 -140t317.5 -220.5t222.5 -291.5t131 -352t43 -402q0 -208 -44 -400.5t-134 -360.5t-228 -306t-325.5 -237t-426 -153t-530.5 -54h-1401zM1749 483q210 0 374 33t287 95t209 150.5t139 200t77 242.5t24 279t-24 279t-77 242
t-139 199.5t-209 150.5t-287 95t-374 33h-651v-1999h651zM1478 3162l-426 648h492l319 -320l320 320h491l-426 -648h-770z" />
    <glyph glyph-name="dcaron" unicode="&#x10f;" horiz-adv-x="3473" 
d="M2347 0l-45 238q-74 -68 -172 -124t-212.5 -96t-241.5 -62t-259 -22q-281 0 -503 77.5t-376 222t-235.5 352t-81.5 467.5q0 259 83 465.5t242 350.5t390.5 221t529.5 77q117 0 229.5 -14t215 -40.5t192.5 -64.5t162 -86v1004h643v-2966h-561zM2265 1507q-80 42 -160 72.5
t-167 51t-183.5 30.5t-210.5 10q-163 0 -287.5 -41.5t-209 -120.5t-127.5 -194t-43 -262q0 -148 43 -262.5t127.5 -193t209 -119t287.5 -40.5q114 0 210.5 9.5t183.5 29.5t167 51t160 74v905zM3199 2019l131 512l-127 435h360q74 0 129.5 -20.5t92 -57.5t55 -88.5
t18.5 -112.5q0 -51 -22 -111.5t-56 -123.5t-74 -126t-77 -118l-127 -189h-303z" />
    <glyph glyph-name="Dcroat" unicode="&#x110;" horiz-adv-x="3830" 
d="M479 0v1266h-266v442h266v1258h1442q285 0 517.5 -49t415.5 -140t317.5 -220.5t222.5 -291.5t131 -352t43 -402q0 -208 -44 -400.5t-134.5 -360.5t-228 -306t-325 -237t-426 -153t-530.5 -54h-1401zM1786 483q210 0 374 33t287 95t209 150.5t139 200t77 242.5t24 279
t-24 279t-77 242t-139 199.5t-209 150.5t-287 95t-374 33h-651v-774h675v-442h-675v-783h651z" />
    <glyph glyph-name="dcroat" unicode="&#x111;" horiz-adv-x="3310" 
d="M2347 0l-45 238q-74 -68 -172 -124t-212.5 -96t-241.5 -62t-259 -22q-281 0 -503 77.5t-376 222t-235.5 352t-81.5 467.5q0 259 83 465.5t242 350.5t390.5 221t529.5 77q117 0 229.5 -14t215 -40.5t192.5 -64.5t162 -86v381h-434v442h434v181h643v-181h266v-442h-266
v-2343h-561zM2265 1507q-80 42 -160 72.5t-167 51t-183.5 30.5t-210.5 10q-163 0 -287.5 -41.5t-209 -120.5t-127.5 -194t-43 -262q0 -148 43 -262.5t127.5 -193t209 -119t287.5 -40.5q114 0 210.5 9.5t183.5 29.5t167 51t160 74v905z" />
    <glyph glyph-name="Emacron" unicode="&#x112;" horiz-adv-x="3236" 
d="M442 0v2966h2499v-484h-1839v-721h1577v-483h-1577v-795h1855v-483h-2515zM996 3236v443h1417v-443h-1417z" />
    <glyph glyph-name="emacron" unicode="&#x113;" horiz-adv-x="2986" 
d="M2609 135q-91 -45 -212 -81t-258.5 -61.5t-285.5 -39.5t-292 -14q-225 0 -412 38t-336 107.5t-260 168.5t-185 221.5t-110.5 265t-36.5 300.5q0 148 33.5 289.5t102.5 266.5t174 230t247.5 181t324.5 118t404 42q225 0 408.5 -38.5t327 -108.5t248 -168.5t173 -219
t101.5 -260t33 -291.5q0 -29 -1 -55.5t-2.5 -51.5t-4 -47t-5.5 -42h-1913q12 -106 61.5 -191t141.5 -144.5t230 -91.5t329 -32q138 0 274 12.5t261.5 35t237 53t202.5 67.5v-459zM2138 1282q-23 111 -77.5 192t-136 134t-187.5 78.5t-230 25.5t-229 -25.5t-185.5 -78.5
t-134.5 -134t-77 -192h1257zM791 2482v443h1417v-443h-1417z" />
    <glyph glyph-name="Ebreve" unicode="&#x114;" horiz-adv-x="3236" 
d="M442 0v2966h2499v-484h-1839v-721h1577v-483h-1577v-795h1855v-483h-2515zM2462 3810q-8 -140 -57 -263t-142 -215t-232.5 -145t-326.5 -53t-326 53t-232 145t-142.5 215t-56.5 263h397q17 -51 46.5 -96t74 -78t103.5 -52.5t136 -19.5t136.5 19.5t104 52.5t74 78t46.5 96
h397z" />
    <glyph glyph-name="ebreve" unicode="&#x115;" horiz-adv-x="2986" 
d="M2609 135q-91 -45 -212 -81t-258.5 -61.5t-285.5 -39.5t-292 -14q-225 0 -412 38t-336 107.5t-260 168.5t-185 221.5t-110.5 265t-36.5 300.5q0 148 33.5 289.5t102.5 266.5t174 230t247.5 181t324.5 118t404 42q225 0 408.5 -38.5t327 -108.5t248 -168.5t173 -219
t101.5 -260t33 -291.5q0 -29 -1 -55.5t-2.5 -51.5t-4 -47t-5.5 -42h-1913q12 -106 61.5 -191t141.5 -144.5t230 -91.5t329 -32q138 0 274 12.5t261.5 35t237 53t202.5 67.5v-459zM2138 1282q-23 111 -77.5 192t-136 134t-187.5 78.5t-230 25.5t-229 -25.5t-185.5 -78.5
t-134.5 -134t-77 -192h1257zM2257 3056q-8 -140 -57 -263t-142 -215t-232.5 -145t-326.5 -53t-326 53t-232 145t-142.5 215t-56.5 263h397q17 -51 46.5 -96t74 -78t103.5 -52.5t136 -19.5t136.5 19.5t104 52.5t74 78t46.5 96h397z" />
    <glyph glyph-name="Edotaccent" unicode="&#x116;" horiz-adv-x="3236" 
d="M442 0v2966h2499v-484h-1839v-721h1577v-483h-1577v-795h1855v-483h-2515zM1385 3236v557h643v-557h-643z" />
    <glyph glyph-name="edotaccent" unicode="&#x117;" horiz-adv-x="2986" 
d="M2609 135q-91 -45 -212 -81t-258.5 -61.5t-285.5 -39.5t-292 -14q-225 0 -412 38t-336 107.5t-260 168.5t-185 221.5t-110.5 265t-36.5 300.5q0 148 33.5 289.5t102.5 266.5t174 230t247.5 181t324.5 118t404 42q225 0 408.5 -38.5t327 -108.5t248 -168.5t173 -219
t101.5 -260t33 -291.5q0 -29 -1 -55.5t-2.5 -51.5t-4 -47t-5.5 -42h-1913q12 -106 61.5 -191t141.5 -144.5t230 -91.5t329 -32q138 0 274 12.5t261.5 35t237 53t202.5 67.5v-459zM2138 1282q-23 111 -77.5 192t-136 134t-187.5 78.5t-230 25.5t-229 -25.5t-185.5 -78.5
t-134.5 -134t-77 -192h1257zM1180 2482v557h643v-557h-643z" />
    <glyph glyph-name="Eogonek" unicode="&#x118;" horiz-adv-x="3236" 
d="M2957 -852q-71 -15 -141 -24t-129 -9q-135 0 -239 24t-174.5 72t-107 120t-36.5 169q0 81 24 152t65.5 133t95.5 115.5t114 99.5h-1987v2966h2499v-484h-1839v-721h1577v-483h-1577v-795h1855v-483h-123q-57 -54 -104 -105t-81.5 -100t-53.5 -95t-19 -89q0 -74 51 -113
t146 -39q20 0 40 1t42.5 3t47.5 6.5t54 10.5v-332z" />
    <glyph glyph-name="eogonek" unicode="&#x119;" horiz-adv-x="2986" 
d="M2589 -852q-72 -15 -142 -24t-129 -9q-135 0 -239 24t-174.5 72t-107 120t-36.5 169q0 83 25 151.5t67 126.5t96.5 107.5t114.5 94.5q-123 -19 -249.5 -30t-253.5 -11q-225 0 -412 38t-336 107.5t-260 168.5t-185 221.5t-110.5 265t-36.5 300.5q0 148 33.5 289.5
t102.5 266.5t174 230t247.5 181t324.5 118t404 42q225 0 408.5 -38.5t327 -108.5t248 -168.5t173 -219t101.5 -260t33 -291.5q0 -29 -1 -55.5t-2.5 -51.5t-4 -47t-5.5 -42h-1913q12 -106 61.5 -191t141.5 -144.5t230 -91.5t329 -32q138 0 274 12.5t261.5 35t237 53
t202.5 67.5v-459q-92 -81 -166.5 -156t-126.5 -141.5t-80 -123.5t-28 -103q0 -74 50.5 -113t145.5 -39q20 0 40.5 1t43 3t47.5 6.5t54 10.5v-332zM2138 1282q-23 111 -77.5 192t-136 134t-187.5 78.5t-230 25.5t-229 -25.5t-185.5 -78.5t-134.5 -134t-77 -192h1257z" />
    <glyph glyph-name="Ecaron" unicode="&#x11a;" horiz-adv-x="3236" 
d="M442 0v2966h2499v-484h-1839v-721h1577v-483h-1577v-795h1855v-483h-2515zM1319 3162l-426 648h492l319 -320l320 320h491l-426 -648h-770z" />
    <glyph glyph-name="ecaron" unicode="&#x11b;" horiz-adv-x="2986" 
d="M2609 135q-91 -45 -212 -81t-258.5 -61.5t-285.5 -39.5t-292 -14q-225 0 -412 38t-336 107.5t-260 168.5t-185 221.5t-110.5 265t-36.5 300.5q0 148 33.5 289.5t102.5 266.5t174 230t247.5 181t324.5 118t404 42q225 0 408.5 -38.5t327 -108.5t248 -168.5t173 -219
t101.5 -260t33 -291.5q0 -29 -1 -55.5t-2.5 -51.5t-4 -47t-5.5 -42h-1913q12 -106 61.5 -191t141.5 -144.5t230 -91.5t329 -32q138 0 274 12.5t261.5 35t237 53t202.5 67.5v-459zM2138 1282q-23 111 -77.5 192t-136 134t-187.5 78.5t-230 25.5t-229 -25.5t-185.5 -78.5
t-134.5 -134t-77 -192h1257zM1114 2408l-426 648h492l319 -320l320 320h491l-426 -648h-770z" />
    <glyph glyph-name="Gcircumflex" unicode="&#x11c;" horiz-adv-x="3793" 
d="M2822 1434h660v-1274q-92 -31 -199.5 -59.5t-225 -53.5t-243 -46t-254.5 -36t-258 -23t-254 -8q-410 0 -740.5 97t-563 290.5t-357.5 484t-125 677.5q0 226 50.5 429t151 375t251.5 309.5t351.5 234t451 148.5t550.5 52q126 0 246 -7t231.5 -20.5t213 -32.5t194.5 -43
t178.5 -52.5t165.5 -61.5v-528q-111 38 -243 79.5t-282 75.5t-314.5 56t-339.5 22q-309 0 -532 -68t-367 -200t-212.5 -325t-68.5 -443q0 -168 30.5 -310.5t93 -258t158 -204t225.5 -148t295.5 -90t368.5 -30.5q109 0 205.5 6.5t183.5 19t167 30t157 39.5v897zM2355 3162
l-320 320l-319 -320h-492l426 648h770l426 -648h-491z" />
    <glyph glyph-name="gcircumflex" unicode="&#x11d;" horiz-adv-x="3310" 
d="M2265 287q-75 -62 -171 -112t-205.5 -85t-229 -54.5t-242.5 -19.5q-281 0 -503 74.5t-376 214t-235.5 339t-81.5 450.5q0 250 83 449t242 337.5t390.5 212.5t529.5 74q131 0 255 -18t234.5 -50.5t204 -78.5t162.5 -103l78 184h508v-1966q0 -279 -94.5 -480.5t-276 -331.5
t-445 -191.5t-601.5 -61.5q-157 0 -298.5 8t-267.5 24t-237.5 40.5t-208.5 58.5v512q85 -29 187.5 -52.5t220 -40t248 -25.5t270.5 -9q223 0 385 29t267.5 92.5t156.5 164t51 243.5v172zM2265 1507q-80 42 -160 72.5t-167 51t-183.5 30.5t-210.5 10q-160 0 -284 -37.5
t-209 -110t-129.5 -180.5t-44.5 -249t44.5 -248.5t129.5 -180t209 -109t284 -36.5q114 0 210.5 9.5t183.5 29.5t167 51t160 74v823zM1929 2408l-320 320l-319 -320h-492l426 648h770l426 -648h-491z" />
    <glyph glyph-name="Gbreve" unicode="&#x11e;" horiz-adv-x="3793" 
d="M2822 1434h660v-1274q-92 -31 -199.5 -59.5t-225 -53.5t-243 -46t-254.5 -36t-258 -23t-254 -8q-410 0 -740.5 97t-563 290.5t-357.5 484t-125 677.5q0 226 50.5 429t151 375t251.5 309.5t351.5 234t451 148.5t550.5 52q126 0 246 -7t231.5 -20.5t213 -32.5t194.5 -43
t178.5 -52.5t165.5 -61.5v-528q-111 38 -243 79.5t-282 75.5t-314.5 56t-339.5 22q-309 0 -532 -68t-367 -200t-212.5 -325t-68.5 -443q0 -168 30.5 -310.5t93 -258t158 -204t225.5 -148t295.5 -90t368.5 -30.5q109 0 205.5 6.5t183.5 19t167 30t157 39.5v897zM2793 3810
q-8 -140 -57 -263t-142 -215t-232.5 -145t-326.5 -53t-326 53t-232 145t-142.5 215t-56.5 263h397q17 -51 46.5 -96t74 -78t103.5 -52.5t136 -19.5t136.5 19.5t104 52.5t74 78t46.5 96h397z" />
    <glyph glyph-name="gbreve" unicode="&#x11f;" horiz-adv-x="3310" 
d="M2265 287q-75 -62 -171 -112t-205.5 -85t-229 -54.5t-242.5 -19.5q-281 0 -503 74.5t-376 214t-235.5 339t-81.5 450.5q0 250 83 449t242 337.5t390.5 212.5t529.5 74q131 0 255 -18t234.5 -50.5t204 -78.5t162.5 -103l78 184h508v-1966q0 -279 -94.5 -480.5t-276 -331.5
t-445 -191.5t-601.5 -61.5q-157 0 -298.5 8t-267.5 24t-237.5 40.5t-208.5 58.5v512q85 -29 187.5 -52.5t220 -40t248 -25.5t270.5 -9q223 0 385 29t267.5 92.5t156.5 164t51 243.5v172zM2265 1507q-80 42 -160 72.5t-167 51t-183.5 30.5t-210.5 10q-160 0 -284 -37.5
t-209 -110t-129.5 -180.5t-44.5 -249t44.5 -248.5t129.5 -180t209 -109t284 -36.5q114 0 210.5 9.5t183.5 29.5t167 51t160 74v823zM2367 3056q-8 -140 -57 -263t-142 -215t-232.5 -145t-326.5 -53t-326 53t-232 145t-142.5 215t-56.5 263h397q17 -51 46.5 -96t74 -78
t103.5 -52.5t136 -19.5t136.5 19.5t104 52.5t74 78t46.5 96h397z" />
    <glyph glyph-name="Gdotaccent" unicode="&#x120;" horiz-adv-x="3793" 
d="M2822 1434h660v-1274q-92 -31 -199.5 -59.5t-225 -53.5t-243 -46t-254.5 -36t-258 -23t-254 -8q-410 0 -740.5 97t-563 290.5t-357.5 484t-125 677.5q0 226 50.5 429t151 375t251.5 309.5t351.5 234t451 148.5t550.5 52q126 0 246 -7t231.5 -20.5t213 -32.5t194.5 -43
t178.5 -52.5t165.5 -61.5v-528q-111 38 -243 79.5t-282 75.5t-314.5 56t-339.5 22q-309 0 -532 -68t-367 -200t-212.5 -325t-68.5 -443q0 -168 30.5 -310.5t93 -258t158 -204t225.5 -148t295.5 -90t368.5 -30.5q109 0 205.5 6.5t183.5 19t167 30t157 39.5v897zM1716 3236
v557h643v-557h-643z" />
    <glyph glyph-name="gdotaccent" unicode="&#x121;" horiz-adv-x="3310" 
d="M2265 287q-75 -62 -171 -112t-205.5 -85t-229 -54.5t-242.5 -19.5q-281 0 -503 74.5t-376 214t-235.5 339t-81.5 450.5q0 250 83 449t242 337.5t390.5 212.5t529.5 74q131 0 255 -18t234.5 -50.5t204 -78.5t162.5 -103l78 184h508v-1966q0 -279 -94.5 -480.5t-276 -331.5
t-445 -191.5t-601.5 -61.5q-157 0 -298.5 8t-267.5 24t-237.5 40.5t-208.5 58.5v512q85 -29 187.5 -52.5t220 -40t248 -25.5t270.5 -9q223 0 385 29t267.5 92.5t156.5 164t51 243.5v172zM2265 1507q-80 42 -160 72.5t-167 51t-183.5 30.5t-210.5 10q-160 0 -284 -37.5
t-209 -110t-129.5 -180.5t-44.5 -249t44.5 -248.5t129.5 -180t209 -109t284 -36.5q114 0 210.5 9.5t183.5 29.5t167 51t160 74v823zM1290 2482v557h643v-557h-643z" />
    <glyph glyph-name="Gcommaaccent" unicode="&#x122;" horiz-adv-x="3793" 
d="M2822 1434h660v-1274q-92 -31 -199.5 -59.5t-225 -53.5t-243 -46t-254.5 -36t-258 -23t-254 -8q-410 0 -740.5 97t-563 290.5t-357.5 484t-125 677.5q0 226 50.5 429t151 375t251.5 309.5t351.5 234t451 148.5t550.5 52q126 0 246 -7t231.5 -20.5t213 -32.5t194.5 -43
t178.5 -52.5t165.5 -61.5v-528q-111 38 -243 79.5t-282 75.5t-314.5 56t-339.5 22q-309 0 -532 -68t-367 -200t-212.5 -325t-68.5 -443q0 -168 30.5 -310.5t93 -258t158 -204t225.5 -148t295.5 -90t368.5 -30.5q109 0 205.5 6.5t183.5 19t167 30t157 39.5v897zM1491 -770
l308 256l-99 342h372q74 0 129.5 -18.5t92 -52t55 -81.5t18.5 -106q0 -60 -24.5 -126t-83 -130t-155 -122.5t-241.5 -104.5l-221 -70z" />
    <glyph glyph-name="gcommaaccent" unicode="&#x123;" horiz-adv-x="3310" 
d="M2265 287q-75 -62 -171 -112t-205.5 -85t-229 -54.5t-242.5 -19.5q-281 0 -503 74.5t-376 214t-235.5 339t-81.5 450.5q0 250 83 449t242 337.5t390.5 212.5t529.5 74q131 0 255 -18t234.5 -50.5t204 -78.5t162.5 -103l78 184h508v-1966q0 -279 -94.5 -480.5t-276 -331.5
t-445 -191.5t-601.5 -61.5q-157 0 -298.5 8t-267.5 24t-237.5 40.5t-208.5 58.5v512q85 -29 187.5 -52.5t220 -40t248 -25.5t270.5 -9q223 0 385 29t267.5 92.5t156.5 164t51 243.5v172zM2265 1507q-80 42 -160 72.5t-167 51t-183.5 30.5t-210.5 10q-160 0 -284 -37.5
t-209 -110t-129.5 -180.5t-44.5 -249t44.5 -248.5t129.5 -180t209 -109t284 -36.5q114 0 210.5 9.5t183.5 29.5t167 51t160 74v823zM1528 2318q-74 0 -129.5 20.5t-92 57.5t-55 88t-18.5 113q0 60 26.5 121t77 122t122.5 120t163 116l254 160l176 -197l-287 -299l123 -422
h-360z" />
    <glyph glyph-name="Hcircumflex" unicode="&#x124;" horiz-adv-x="3944" 
d="M2843 0v1245h-1741v-1245h-660v2966h660v-1237h1741v1237h659v-2966h-659zM2290 3162l-320 320l-319 -320h-492l426 648h770l426 -648h-491z" />
    <glyph glyph-name="hcircumflex" unicode="&#x125;" horiz-adv-x="3289" 
d="M2302 0v1155q0 132 -31 229.5t-97.5 162t-170.5 96.5t-250 32q-115 0 -215 -14.5t-187 -38.5t-163 -56t-144 -67v-1499h-643v2966h643v-1074q78 64 172 115.5t201 86.5t225 54t246 19q140 0 273 -17t250.5 -57.5t215.5 -109t168.5 -172t110 -245.5t39.5 -329v-1237h-643z
M1046 3162l-320 320l-319 -320h-492l426 648h770l426 -648h-491z" />
    <glyph glyph-name="Hbar" unicode="&#x126;" horiz-adv-x="3944" 
d="M2843 0v1245h-1741v-1245h-660v2130h-229v442h229v394h660v-394h1741v394h659v-394h229v-442h-229v-2130h-659zM2843 2130h-1741v-401h1741v401z" />
    <glyph glyph-name="hbar" unicode="&#x127;" horiz-adv-x="3289" 
d="M2302 0v1155q0 132 -31 229.5t-97.5 162t-170.5 96.5t-250 32q-115 0 -215 -14.5t-187 -38.5t-163 -56t-144 -67v-1499h-643v2343h-266v442h266v181h643v-181h435v-442h-435v-451q78 64 172 115.5t201 86.5t225 54t246 19q140 0 273 -17t250.5 -57.5t215.5 -109
t168.5 -172t110 -245.5t39.5 -329v-1237h-643z" />
    <glyph glyph-name="Itilde" unicode="&#x128;" horiz-adv-x="2257" 
d="M311 0v483h488v1999h-488v484h1635v-484h-488v-1999h488v-483h-1635zM1942 3810q0 -140 -30.5 -261t-92 -210.5t-153 -141t-212.5 -51.5q-67 0 -128 16t-116.5 40t-105 52.5t-95 52.5t-86.5 40t-79 16q-32 0 -60.5 -13t-51 -38t-37.5 -63t-19 -87h-365q0 140 30.5 261
t92 210.5t152.5 141t213 51.5q68 0 128.5 -16t115.5 -40t105 -52.5t95.5 -52.5t86.5 -40t79 -16q32 0 60.5 13t51 38.5t37 63t19.5 86.5h365z" />
    <glyph glyph-name="itilde" unicode="&#x129;" horiz-adv-x="1446" 
d="M401 0v2101h643v-2101h-643zM1537 3056q0 -140 -30.5 -261t-92 -210.5t-153 -141t-212.5 -51.5q-67 0 -128 16t-116.5 40t-105 52.5t-95 52.5t-86.5 40t-79 16q-32 0 -60.5 -13t-51 -38t-37.5 -63t-19 -87h-365q0 140 30.5 261t92 210.5t152.5 141t213 51.5
q68 0 128.5 -16t115.5 -40t105 -52.5t95.5 -52.5t86.5 -40t79 -16q32 0 60.5 13t51 38.5t37 63t19.5 86.5h365z" />
    <glyph glyph-name="Imacron" unicode="&#x12a;" horiz-adv-x="2257" 
d="M311 0v483h488v1999h-488v484h1635v-484h-488v-1999h488v-483h-1635zM418 3236v443h1417v-443h-1417z" />
    <glyph glyph-name="imacron" unicode="&#x12b;" horiz-adv-x="1446" 
d="M401 0v2101h643v-2101h-643zM13 2482v443h1417v-443h-1417z" />
    <glyph glyph-name="Ibreve" unicode="&#x12c;" horiz-adv-x="2257" 
d="M311 0v483h488v1999h-488v484h1635v-484h-488v-1999h488v-483h-1635zM1884 3810q-8 -140 -57 -263t-142 -215t-232.5 -145t-326.5 -53t-326 53t-232 145t-142.5 215t-56.5 263h397q17 -51 46.5 -96t74 -78t103.5 -52.5t136 -19.5t136.5 19.5t104 52.5t74 78t46.5 96h397z
" />
    <glyph glyph-name="ibreve" unicode="&#x12d;" horiz-adv-x="1446" 
d="M401 0v2101h643v-2101h-643zM1479 3056q-8 -140 -57 -263t-142 -215t-232.5 -145t-326.5 -53t-326 53t-232 145t-142.5 215t-56.5 263h397q17 -51 46.5 -96t74 -78t103.5 -52.5t136 -19.5t136.5 19.5t104 52.5t74 78t46.5 96h397z" />
    <glyph glyph-name="Iogonek" unicode="&#x12e;" horiz-adv-x="2257" 
d="M1544 -852q-71 -15 -141 -24t-129 -9q-135 0 -239 24t-174.5 72t-107 120t-36.5 169q0 81 24 152t65.5 133t95.5 115.5t114 99.5h-705v483h488v1999h-488v484h1635v-484h-488v-1999h488v-483h-525q-57 -54 -104 -105t-81.5 -100t-53.5 -95t-19 -89q0 -74 51 -113t146 -39
q20 0 40 1t42.5 3t47.5 6.5t54 10.5v-332z" />
    <glyph glyph-name="iogonek" unicode="&#x12f;" horiz-adv-x="1446" 
d="M1057 -852q-71 -15 -141.5 -24t-129.5 -9q-135 0 -239 24t-174.5 72t-107 120t-36.5 169q0 81 24.5 152t65.5 133t95 115.5t114 99.5h-127v2101h643v-2101h-110q-57 -54 -104.5 -105t-81.5 -100t-53 -95t-19 -89q0 -74 50.5 -113t145.5 -39q20 0 40.5 1t43 3t47.5 6.5
t54 10.5v-332zM401 2408v558h643v-558h-643z" />
    <glyph glyph-name="Idotaccent" unicode="&#x130;" horiz-adv-x="2257" 
d="M311 0v483h488v1999h-488v484h1635v-484h-488v-1999h488v-483h-1635zM807 3236v557h643v-557h-643z" />
    <glyph glyph-name="dotlessi" unicode="&#x131;" horiz-adv-x="1446" 
d="M401 0v2101h643v-2101h-643z" />
    <glyph glyph-name="IJ" unicode="&#x132;" horiz-adv-x="4186" 
d="M311 0v483h488v1999h-488v484h1635v-484h-488v-1999h488v-483h-1635zM2298 -111q26 -5 58 -8.5t66.5 -6t71.5 -4t74 -1.5q161 0 262 37.5t157.5 114.5t76.5 195.5t20 279.5v1986h-569v484h1229v-2544q0 -288 -69 -492t-207.5 -330t-337.5 -182.5t-463 -56.5q-42 0 -96 3
t-112.5 11t-95 16.5t-65.5 18.5v479z" />
    <glyph glyph-name="ij" unicode="&#x133;" horiz-adv-x="2892" 
d="M401 0v2101h643v-2101h-643zM401 2408v558h643v-558h-643zM1073 -401q53 -11 124 -18t143 -7q158 0 257 37.5t154.5 114.5t75.5 193t20 274v1908h643v-1982q0 -284 -67.5 -482.5t-201.5 -322.5t-331.5 -180t-459.5 -56q-56 0 -111.5 5t-99.5 13t-82.5 20t-63.5 24v459z
M1847 2408v558h643v-558h-643z" />
    <glyph glyph-name="Jcircumflex" unicode="&#x134;" horiz-adv-x="1929" 
d="M41 -111q26 -5 58 -8.5t66.5 -6t71.5 -4t74 -1.5q161 0 262 37.5t157.5 114.5t76.5 195.5t20 279.5v1986h-569v484h1229v-2544q0 -288 -69 -492t-207.5 -330t-337.5 -182.5t-463 -56.5q-42 0 -96 3t-112.5 11t-95 16.5t-65.5 18.5v479zM1475 3162l-320 320l-319 -320
h-492l426 648h770l426 -648h-491z" />
    <glyph glyph-name="jcircumflex" unicode="&#x135;" horiz-adv-x="1446" 
d="M-373 -401q53 -10 124 -17.5t143 -7.5q158 0 257 37.5t154.5 114.5t75.5 193t20 274v1908h643v-1982q0 -284 -67.5 -482.5t-201.5 -322.5t-331.5 -180t-459.5 -56q-56 0 -111.5 5t-99.5 13t-82.5 20t-63.5 24v459zM1041 2408l-320 320l-319 -320h-492l426 648h770
l426 -648h-491z" />
    <glyph glyph-name="Kcommaaccent" unicode="&#x136;" horiz-adv-x="3600" 
d="M2621 0l-1519 1319v-1319h-660v2966h660v-1278l1552 1278h881l-1434 -1151q-89 -71 -178 -144t-178 -143q49 -40 97.5 -80l97 -80l97 -80t97.5 -80l1458 -1208h-971zM1307 -770l308 256l-99 342h372q74 0 129.5 -18.5t92 -52t55 -81.5t18.5 -106q0 -60 -24.5 -126
t-83 -130t-155 -122.5t-241.5 -104.5l-221 -70z" />
    <glyph glyph-name="kcommaaccent" unicode="&#x137;" horiz-adv-x="2937" 
d="M2064 0l-1020 963v-963h-643v2966h643v-1721l1045 856h840l-942 -753q-37 -29 -73.5 -58t-72.5 -57.5l-72 -57t-73 -57.5q35 -31 71 -62.5l72 -63t72 -62.5t71 -62l979 -868h-897zM1012 -770l308 256l-99 342h372q74 0 129.5 -18.5t92 -52t55 -81.5t18.5 -106
q0 -60 -24.5 -126t-83 -130t-155 -122.5t-241.5 -104.5l-221 -70z" />
    <glyph glyph-name="Lacute" unicode="&#x139;" horiz-adv-x="2843" 
d="M442 0v2966h660v-2483h1610v-483h-2270zM509 3162l409 648h770l-696 -648h-483z" />
    <glyph glyph-name="lacute" unicode="&#x13a;" horiz-adv-x="1729" 
d="M1655 37q-52 -20 -116.5 -36.5t-135.5 -28.5t-146 -18.5t-147 -6.5q-200 0 -339 44t-227 127.5t-127.5 204.5t-39.5 275v2368h643v-2282q0 -55 10 -100t42 -76.5t91.5 -48.5t159.5 -17q93 0 175 13.5t157 31.5v-450zM436 3162l409 648h770l-696 -648h-483z" />
    <glyph glyph-name="Lcommaaccent" unicode="&#x13b;" horiz-adv-x="2843" 
d="M442 0v2966h660v-2483h1610v-483h-2270zM1032 -770l308 256l-99 342h372q74 0 129.5 -18.5t92 -52t55 -81.5t18.5 -106q0 -60 -24.5 -126t-83 -130t-155 -122.5t-241.5 -104.5l-221 -70z" />
    <glyph glyph-name="lcommaaccent" unicode="&#x13c;" horiz-adv-x="1729" 
d="M1655 37q-52 -20 -116.5 -36.5t-135.5 -28.5t-146 -18.5t-147 -6.5q-200 0 -339 44t-227 127.5t-127.5 204.5t-39.5 275v2368h643v-2282q0 -55 10 -100t42 -76.5t91.5 -48.5t159.5 -17q93 0 175 13.5t157 31.5v-450zM472 -770l308 256l-99 342h372q74 0 129.5 -18.5
t92 -52t55 -81.5t18.5 -106q0 -60 -24.5 -126t-83 -130t-155 -122.5t-241.5 -104.5l-221 -70z" />
    <glyph glyph-name="Lcaron" unicode="&#x13d;" horiz-adv-x="2843" 
d="M442 0v2966h660v-2483h1610v-483h-2270zM1475 2019l131 512l-127 435h360q74 0 129.5 -20.5t92 -57.5t55 -88.5t18.5 -112.5q0 -51 -22 -111.5t-56 -123.5t-74 -126t-77 -118l-127 -189h-303z" />
    <glyph glyph-name="lcaron" unicode="&#x13e;" horiz-adv-x="1729" 
d="M1655 37q-52 -20 -116.5 -36.5t-135.5 -28.5t-146 -18.5t-147 -6.5q-200 0 -339 44t-227 127.5t-127.5 204.5t-39.5 275v2368h643v-2282q0 -55 10 -100t42 -76.5t91.5 -48.5t159.5 -17q93 0 175 13.5t157 31.5v-450zM1311 2019l131 512l-127 435h360q74 0 129.5 -20.5
t92 -57.5t55 -88.5t18.5 -112.5q0 -51 -22 -111.5t-56 -123.5t-74 -126t-77 -118l-127 -189h-303z" />
    <glyph glyph-name="Ldot" unicode="&#x13f;" horiz-adv-x="2843" 
d="M442 0v2966h660v-2483h1610v-483h-2270zM1552 1356v557h643v-557h-643z" />
    <glyph glyph-name="ldot" unicode="&#x140;" horiz-adv-x="1991" 
d="M1655 37q-52 -20 -116.5 -36.5t-135.5 -28.5t-146 -18.5t-147 -6.5q-200 0 -339 44t-227 127.5t-127.5 204.5t-39.5 275v2368h643v-2282q0 -55 10 -100t42 -76.5t91.5 -48.5t159.5 -17q93 0 175 13.5t157 31.5v-450zM1348 1294v557h643v-557h-643z" />
    <glyph glyph-name="Lslash" unicode="&#x141;" horiz-adv-x="2879" 
d="M479 0v930l-266 -152v484l266 151v1553h660v-1168l606 352v-483l-606 -352v-832h1609v-483h-2269z" />
    <glyph glyph-name="lslash" unicode="&#x142;" horiz-adv-x="1806" 
d="M1692 37q-53 -20 -117.5 -36.5t-135.5 -28.5t-145.5 -18.5t-146.5 -6.5q-200 0 -339.5 44t-227 127.5t-127 204.5t-39.5 275v295l-201 -115v484l201 114v1590h643v-1217l483 283v-484l-483 -282v-582q0 -55 10 -100t42 -76.5t91.5 -48.5t159.5 -17q93 0 175 13.5
t157 31.5v-450z" />
    <glyph glyph-name="Nacute" unicode="&#x143;" horiz-adv-x="4026" 
d="M2814 0l-1401 1761q-83 106 -163.5 207.5t-164.5 206.5v-114v-113.5v-113.5v-114v-1720h-643v2966h770l1393 -1758q42 -52 84 -105l84 -106l84 -106t84 -105v114v114v113.5v113.5v1725h643v-2966h-770zM1745 3162l409 648h770l-696 -648h-483z" />
    <glyph glyph-name="nacute" unicode="&#x144;" horiz-adv-x="3289" 
d="M2302 0v1155q0 132 -31 229.5t-97.5 162t-170.5 96.5t-250 32q-115 0 -215 -14.5t-187 -38.5t-163 -56t-144 -67v-1499h-643v2101h562l45 -241q80 72 177 129t208 96.5t235.5 60.5t259.5 21q140 0 273 -17t250.5 -57.5t215.5 -109t168.5 -172t110 -245.5t39.5 -329v-1237
h-643zM1405 2408l409 648h770l-696 -648h-483z" />
    <glyph glyph-name="Ncommaaccent" unicode="&#x145;" horiz-adv-x="4026" 
d="M2814 0l-1401 1761q-83 106 -163.5 207.5t-164.5 206.5v-114v-113.5v-113.5v-114v-1720h-643v2966h770l1393 -1758q42 -52 84 -105l84 -106l84 -106t84 -105v114v114v113.5v113.5v1725h643v-2966h-770zM1467 -770l308 256l-99 342h372q74 0 129.5 -18.5t92 -52t55 -81.5
t18.5 -106q0 -60 -24.5 -126t-83 -130t-155 -122.5t-241.5 -104.5l-221 -70z" />
    <glyph glyph-name="ncommaaccent" unicode="&#x146;" horiz-adv-x="3289" 
d="M2302 0v1155q0 132 -31 229.5t-97.5 162t-170.5 96.5t-250 32q-115 0 -215 -14.5t-187 -38.5t-163 -56t-144 -67v-1499h-643v2101h562l45 -241q80 72 177 129t208 96.5t235.5 60.5t259.5 21q140 0 273 -17t250.5 -57.5t215.5 -109t168.5 -172t110 -245.5t39.5 -329v-1237
h-643zM1127 -770l308 256l-99 342h372q74 0 129.5 -18.5t92 -52t55 -81.5t18.5 -106q0 -60 -24.5 -126t-83 -130t-155 -122.5t-241.5 -104.5l-221 -70z" />
    <glyph glyph-name="Ncaron" unicode="&#x147;" horiz-adv-x="4026" 
d="M2814 0l-1401 1761q-83 106 -163.5 207.5t-164.5 206.5v-114v-113.5v-113.5v-114v-1720h-643v2966h770l1393 -1758q42 -52 84 -105l84 -106l84 -106t84 -105v114v114v113.5v113.5v1725h643v-2966h-770zM1626 3162l-426 648h492l319 -320l320 320h491l-426 -648h-770z" />
    <glyph glyph-name="ncaron" unicode="&#x148;" horiz-adv-x="3289" 
d="M2302 0v1155q0 132 -31 229.5t-97.5 162t-170.5 96.5t-250 32q-115 0 -215 -14.5t-187 -38.5t-163 -56t-144 -67v-1499h-643v2101h562l45 -241q80 72 177 129t208 96.5t235.5 60.5t259.5 21q140 0 273 -17t250.5 -57.5t215.5 -109t168.5 -172t110 -245.5t39.5 -329v-1237
h-643zM1286 2408l-426 648h492l319 -320l320 320h491l-426 -648h-770z" />
    <glyph glyph-name="napostrophe" unicode="&#x149;" horiz-adv-x="4313" 
d="M156 1806l340 648l-90 512h405q81 0 142.5 -21.5t103 -60t62 -93t20.5 -120.5q0 -74 -32 -157t-93 -176.5t-148 -197.5t-198 -219l-111 -115h-401zM3326 0v1155q0 132 -31 229.5t-97.5 162t-170.5 96.5t-250 32q-115 0 -215 -14.5t-187 -38.5t-163 -56t-144 -67v-1499
h-643v2101h562l45 -241q80 72 177 129t208 96.5t235.5 60.5t259.5 21q140 0 273 -17t250.5 -57.5t215.5 -109t168.5 -172t110 -245.5t39.5 -329v-1237h-643z" />
    <glyph glyph-name="Omacron" unicode="&#x14c;" horiz-adv-x="3899" 
d="M1950 -66q-294 0 -533.5 56t-427 157.5t-324.5 243t-226.5 314t-133 369.5t-43.5 409q0 208 45.5 403.5t138 367.5t232 315t327 245.5t423.5 159.5t522 57q294 0 533 -56t426.5 -157t324.5 -243t226.5 -314t133 -369t43.5 -409q0 -208 -45.5 -403.5t-138 -367.5
t-232 -315.5t-327 -246t-423.5 -159.5t-521 -57zM1950 455q181 0 326 37.5t257 105.5t192.5 162.5t132 208.5t75.5 244.5t24 269.5t-24 269.5t-75.5 244.5t-132 208.5t-192.5 162.5t-257 105.5t-326 37.5t-326.5 -37.5t-257.5 -105.5t-192 -162.5t-131.5 -208.5t-76 -244.5
t-24.5 -269.5t24.5 -269.5t76 -244.5t131.5 -208.5t192 -162.5t257.5 -105.5t326.5 -37.5zM1241 3236v443h1417v-443h-1417z" />
    <glyph glyph-name="omacron" unicode="&#x14d;" horiz-adv-x="3252" 
d="M1626 -66q-227 0 -419.5 33.5t-348.5 99t-275 161t-199.5 220t-121.5 276.5t-41 329q0 169 41 317t121.5 272t199.5 221.5t275 165t348.5 103t419.5 35.5q228 0 421 -33.5t349.5 -99t275 -161t198.5 -220t120.5 -276t40.5 -328.5q0 -169 -41 -317.5t-121.5 -272
t-199.5 -221.5t-275 -165.5t-348.5 -103t-419.5 -35.5zM1626 406q168 0 305.5 44.5t235.5 127.5t151.5 202.5t53.5 268.5t-53.5 268.5t-151.5 203.5t-235.5 129.5t-305.5 45.5q-167 0 -304.5 -44.5t-235.5 -128t-151.5 -202.5t-53.5 -268t53.5 -269t151.5 -204t235.5 -129
t304.5 -45zM918 2482v443h1417v-443h-1417z" />
    <glyph glyph-name="Obreve" unicode="&#x14e;" horiz-adv-x="3899" 
d="M1950 -66q-294 0 -533.5 56t-427 157.5t-324.5 243t-226.5 314t-133 369.5t-43.5 409q0 208 45.5 403.5t138 367.5t232 315t327 245.5t423.5 159.5t522 57q294 0 533 -56t426.5 -157t324.5 -243t226.5 -314t133 -369t43.5 -409q0 -208 -45.5 -403.5t-138 -367.5
t-232 -315.5t-327 -246t-423.5 -159.5t-521 -57zM1950 455q181 0 326 37.5t257 105.5t192.5 162.5t132 208.5t75.5 244.5t24 269.5t-24 269.5t-75.5 244.5t-132 208.5t-192.5 162.5t-257 105.5t-326 37.5t-326.5 -37.5t-257.5 -105.5t-192 -162.5t-131.5 -208.5t-76 -244.5
t-24.5 -269.5t24.5 -269.5t76 -244.5t131.5 -208.5t192 -162.5t257.5 -105.5t326.5 -37.5zM2707 3810q-8 -140 -57 -263t-142 -215t-232.5 -145t-326.5 -53t-326 53t-232 145t-142.5 215t-56.5 263h397q17 -51 46.5 -96t74 -78t103.5 -52.5t136 -19.5t136.5 19.5t104 52.5
t74 78t46.5 96h397z" />
    <glyph glyph-name="obreve" unicode="&#x14f;" horiz-adv-x="3252" 
d="M1626 -66q-227 0 -419.5 33.5t-348.5 99t-275 161t-199.5 220t-121.5 276.5t-41 329q0 169 41 317t121.5 272t199.5 221.5t275 165t348.5 103t419.5 35.5q228 0 421 -33.5t349.5 -99t275 -161t198.5 -220t120.5 -276t40.5 -328.5q0 -169 -41 -317.5t-121.5 -272
t-199.5 -221.5t-275 -165.5t-348.5 -103t-419.5 -35.5zM1626 406q168 0 305.5 44.5t235.5 127.5t151.5 202.5t53.5 268.5t-53.5 268.5t-151.5 203.5t-235.5 129.5t-305.5 45.5q-167 0 -304.5 -44.5t-235.5 -128t-151.5 -202.5t-53.5 -268t53.5 -269t151.5 -204t235.5 -129
t304.5 -45zM2384 3056q-8 -140 -57 -263t-142 -215t-232.5 -145t-326.5 -53t-326 53t-232 145t-142.5 215t-56.5 263h397q17 -51 46.5 -96t74 -78t103.5 -52.5t136 -19.5t136.5 19.5t104 52.5t74 78t46.5 96h397z" />
    <glyph glyph-name="Ohungarumlaut" unicode="&#x150;" horiz-adv-x="3899" 
d="M1950 -66q-294 0 -533.5 56t-427 157.5t-324.5 243t-226.5 314t-133 369.5t-43.5 409q0 208 45.5 403.5t138 367.5t232 315t327 245.5t423.5 159.5t522 57q294 0 533 -56t426.5 -157t324.5 -243t226.5 -314t133 -369t43.5 -409q0 -208 -45.5 -403.5t-138 -367.5
t-232 -315.5t-327 -246t-423.5 -159.5t-521 -57zM1950 455q181 0 326 37.5t257 105.5t192.5 162.5t132 208.5t75.5 244.5t24 269.5t-24 269.5t-75.5 244.5t-132 208.5t-192.5 162.5t-257 105.5t-326 37.5t-326.5 -37.5t-257.5 -105.5t-192 -162.5t-131.5 -208.5t-76 -244.5
t-24.5 -269.5t24.5 -269.5t76 -244.5t131.5 -208.5t192 -162.5t257.5 -105.5t326.5 -37.5zM1216 3162l246 648h729l-524 -648h-451zM2232 3162l246 648h729l-525 -648h-450z" />
    <glyph glyph-name="ohungarumlaut" unicode="&#x151;" horiz-adv-x="3252" 
d="M1626 -66q-227 0 -419.5 33.5t-348.5 99t-275 161t-199.5 220t-121.5 276.5t-41 329q0 169 41 317t121.5 272t199.5 221.5t275 165t348.5 103t419.5 35.5q228 0 421 -33.5t349.5 -99t275 -161t198.5 -220t120.5 -276t40.5 -328.5q0 -169 -41 -317.5t-121.5 -272
t-199.5 -221.5t-275 -165.5t-348.5 -103t-419.5 -35.5zM1626 406q168 0 305.5 44.5t235.5 127.5t151.5 202.5t53.5 268.5t-53.5 268.5t-151.5 203.5t-235.5 129.5t-305.5 45.5q-167 0 -304.5 -44.5t-235.5 -128t-151.5 -202.5t-53.5 -268t53.5 -269t151.5 -204t235.5 -129
t304.5 -45zM893 2408l246 648h729l-524 -648h-451zM1909 2408l246 648h729l-525 -648h-450z" />
    <glyph glyph-name="OE" unicode="&#x152;" horiz-adv-x="5403" 
d="M2654 0q-74 -14 -158.5 -26t-168 -21t-160.5 -14t-135 -5q-299 0 -546.5 56t-444 157.5t-343 243t-243.5 314t-145 369.5t-48 409q0 208 50.5 403.5t150 367.5t248 315t345 245.5t441 159.5t535.5 57q58 0 135 -5t160.5 -14t168 -21t158.5 -25h2454v-484h-1798v-721h1536
v-483h-1536v-795h1814v-483h-2470zM2654 2433q-63 17 -144 31t-165.5 24.5t-166.5 16.5t-146 6q-192 0 -347 -37.5t-276 -105.5t-209 -162.5t-145.5 -208.5t-85 -244.5t-27.5 -269.5t27.5 -269.5t85 -244.5t145.5 -208.5t209 -162.5t276 -105.5t347 -37.5q64 0 146 5.5
t166.5 16t165.5 24.5t144 31v1901z" />
    <glyph glyph-name="oe" unicode="&#x153;" horiz-adv-x="5149" 
d="M4772 135q-91 -45 -212 -82t-259 -63.5t-286 -41t-292 -14.5q-192 0 -351.5 29t-288.5 82.5t-228.5 129t-171.5 169.5q-75 -92 -177 -167.5t-233 -129.5t-292.5 -83.5t-354.5 -29.5q-232 0 -426.5 33.5t-351 99t-274 161t-196 220t-118 276.5t-39.5 329q0 169 39.5 317
t118 272t196 221.5t274 165t350.5 103t427 35.5q193 0 354.5 -30t292.5 -84.5t234 -131t180 -168.5q67 92 161 168.5t215.5 131t272.5 84.5t334 30q225 0 408.5 -38.5t326.5 -108.5t248 -168.5t173 -219t101 -260t33 -291.5q0 -29 -1 -55.5t-2.5 -51.5t-3.5 -47t-5 -42
h-1913q12 -106 61.5 -191.5t141.5 -146t230 -93t329 -32.5q138 0 274 13t261.5 36t237 54.5t202.5 68.5v-459zM1626 406q174 0 312 44.5t234.5 127.5t148 202.5t51.5 268.5t-51.5 268.5t-148 203.5t-234.5 129.5t-312 45.5t-312 -44.5t-234 -128t-147.5 -202.5t-51.5 -268
t51.5 -269t147.5 -204t234 -129t312 -45zM4301 1282q-23 111 -78 192t-136.5 134t-187 78.5t-229.5 25.5q-125 0 -229.5 -25.5t-185 -78.5t-135 -134t-77.5 -192h1258z" />
    <glyph glyph-name="Racute" unicode="&#x154;" horiz-adv-x="3494" 
d="M2605 0l-737 922q-36 45 -66.5 78.5t-61.5 57t-65.5 38.5t-78.5 23.5t-100.5 12t-131.5 3.5h-262v-1135h-660v2966h1258q333 0 591 -57t434.5 -169.5t267.5 -278.5t91 -384q0 -158 -50.5 -289.5t-147 -235.5t-237.5 -181t-322 -126q74 -34 137.5 -88.5t128.5 -128.5
l835 -1028h-823zM1630 1614q207 0 352 30.5t236 89t132.5 143t41.5 191.5q0 103 -46 180.5t-140 129.5t-237.5 78t-338.5 26h-528v-868h528zM1479 3162l409 648h770l-696 -648h-483z" />
    <glyph glyph-name="racute" unicode="&#x155;" horiz-adv-x="2159" 
d="M401 0v2101h586l25 -385q51 97 120 178t160.5 140t206.5 92t258 33q78 0 159.5 -9.5t143.5 -27.5v-557q-34 7 -77 13t-89.5 10.5t-94.5 6.5t-91 2q-86 0 -161.5 -10.5t-140.5 -29t-120 -44.5t-100.5 -56.5t-80.5 -65.5t-61 -72v-1319h-643zM947 2408l409 648h770
l-696 -648h-483z" />
    <glyph glyph-name="Rcommaaccent" unicode="&#x156;" horiz-adv-x="3494" 
d="M2605 0l-737 922q-36 45 -66.5 78.5t-61.5 57t-65.5 38.5t-78.5 23.5t-100.5 12t-131.5 3.5h-262v-1135h-660v2966h1258q333 0 591 -57t434.5 -169.5t267.5 -278.5t91 -384q0 -158 -50.5 -289.5t-147 -235.5t-237.5 -181t-322 -126q74 -34 137.5 -88.5t128.5 -128.5
l835 -1028h-823zM1630 1614q207 0 352 30.5t236 89t132.5 143t41.5 191.5q0 103 -46 180.5t-140 129.5t-237.5 78t-338.5 26h-528v-868h528zM1303 -770l308 256l-99 342h372q74 0 129.5 -18.5t92 -52t55 -81.5t18.5 -106q0 -60 -24.5 -126t-83 -130t-155 -122.5
t-241.5 -104.5l-221 -70z" />
    <glyph glyph-name="rcommaaccent" unicode="&#x157;" horiz-adv-x="2159" 
d="M401 0v2101h586l25 -385q51 97 120 178t160.5 140t206.5 92t258 33q78 0 159.5 -9.5t143.5 -27.5v-557q-34 7 -77 13t-89.5 10.5t-94.5 6.5t-91 2q-86 0 -161.5 -10.5t-140.5 -29t-120 -44.5t-100.5 -56.5t-80.5 -65.5t-61 -72v-1319h-643zM181 -770l308 256l-99 342h372
q74 0 129.5 -18.5t92 -52t55 -81.5t18.5 -106q0 -60 -24.5 -126t-83 -130t-155 -122.5t-241.5 -104.5l-221 -70z" />
    <glyph glyph-name="Rcaron" unicode="&#x158;" horiz-adv-x="3494" 
d="M2605 0l-737 922q-36 45 -66.5 78.5t-61.5 57t-65.5 38.5t-78.5 23.5t-100.5 12t-131.5 3.5h-262v-1135h-660v2966h1258q333 0 591 -57t434.5 -169.5t267.5 -278.5t91 -384q0 -158 -50.5 -289.5t-147 -235.5t-237.5 -181t-322 -126q74 -34 137.5 -88.5t128.5 -128.5
l835 -1028h-823zM1630 1614q207 0 352 30.5t236 89t132.5 143t41.5 191.5q0 103 -46 180.5t-140 129.5t-237.5 78t-338.5 26h-528v-868h528zM1359 3162l-426 648h492l319 -320l320 320h491l-426 -648h-770z" />
    <glyph glyph-name="rcaron" unicode="&#x159;" horiz-adv-x="2159" 
d="M401 0v2101h586l25 -385q51 97 120 178t160.5 140t206.5 92t258 33q78 0 159.5 -9.5t143.5 -27.5v-557q-34 7 -77 13t-89.5 10.5t-94.5 6.5t-91 2q-86 0 -161.5 -10.5t-140.5 -29t-120 -44.5t-100.5 -56.5t-80.5 -65.5t-61 -72v-1319h-643zM827 2408l-426 648h492
l319 -320l320 320h491l-426 -648h-770z" />
    <glyph glyph-name="Sacute" unicode="&#x15a;" horiz-adv-x="3240" 
d="M262 635q98 -34 227 -69t277 -63.5t307.5 -46.5t319.5 -18q227 0 395 26.5t278.5 76.5t165 122t54.5 164q0 48 -19.5 88t-61.5 74.5t-107 64.5t-156 58t-208.5 55.5t-263.5 57.5q-196 39 -361.5 87.5t-298 109.5t-233 134.5t-168 161.5t-101.5 191.5t-34 224.5
q0 129 35.5 245.5t110 216.5t190 180t275.5 137t367 87.5t464 30.5q174 0 329 -14.5t290 -39.5t248 -58.5t202 -71.5v-504q-101 32 -221.5 64.5t-256 58t-284.5 41.5t-307 16q-200 0 -345 -24.5t-239.5 -71t-140 -113.5t-45.5 -151q0 -48 20.5 -88t64 -74.5t110 -64.5
t158.5 -58t210 -55.5t265 -57.5q197 -39 362 -86t297.5 -106t233 -131t168 -160.5t101.5 -195t34 -234.5q0 -131 -41.5 -250t-125.5 -221t-211.5 -184.5t-299.5 -141t-389.5 -90t-481.5 -31.5q-184 0 -354 16.5t-318.5 43.5t-272 61.5t-214.5 71.5v508zM1401 3162l409 648
h770l-696 -648h-483z" />
    <glyph glyph-name="sacute" unicode="&#x15b;" horiz-adv-x="2646" 
d="M262 573q47 -19 113 -38.5t144 -37t164.5 -33t174.5 -26.5t174 -17.5t164 -6.5q143 0 256 9t192 30.5t120.5 57t41.5 87.5q0 48 -35 80.5t-108.5 56.5t-186.5 43.5t-268 40.5q-226 31 -400.5 82t-294 131t-181.5 192.5t-62 266.5q0 163 68 288t209.5 210.5t360.5 129.5
t522 44q81 0 168 -6t173.5 -17.5t169.5 -27.5t156 -35t132 -41t98 -45v-459q-47 21 -112 40.5t-140.5 37.5t-158.5 33t-166.5 26t-165.5 17t-154 6q-117 0 -212.5 -9t-163 -30.5t-104.5 -56t-37 -85.5q0 -48 36 -79.5t110 -55t188 -42t269 -40.5q229 -32 403 -81t292 -127
t178 -190.5t60 -272.5t-81 -286.5t-239.5 -215t-392.5 -135.5t-540 -47q-141 0 -281.5 15t-265 39t-225.5 55t-162 63v462zM1041 2408l409 648h770l-696 -648h-483z" />
    <glyph glyph-name="Scircumflex" unicode="&#x15c;" horiz-adv-x="3240" 
d="M262 635q98 -34 227 -69t277 -63.5t307.5 -46.5t319.5 -18q227 0 395 26.5t278.5 76.5t165 122t54.5 164q0 48 -19.5 88t-61.5 74.5t-107 64.5t-156 58t-208.5 55.5t-263.5 57.5q-196 39 -361.5 87.5t-298 109.5t-233 134.5t-168 161.5t-101.5 191.5t-34 224.5
q0 129 35.5 245.5t110 216.5t190 180t275.5 137t367 87.5t464 30.5q174 0 329 -14.5t290 -39.5t248 -58.5t202 -71.5v-504q-101 32 -221.5 64.5t-256 58t-284.5 41.5t-307 16q-200 0 -345 -24.5t-239.5 -71t-140 -113.5t-45.5 -151q0 -48 20.5 -88t64 -74.5t110 -64.5
t158.5 -58t210 -55.5t265 -57.5q197 -39 362 -86t297.5 -106t233 -131t168 -160.5t101.5 -195t34 -234.5q0 -131 -41.5 -250t-125.5 -221t-211.5 -184.5t-299.5 -141t-389.5 -90t-481.5 -31.5q-184 0 -354 16.5t-318.5 43.5t-272 61.5t-214.5 71.5v508zM1987 3162l-320 320
l-319 -320h-492l426 648h770l426 -648h-491z" />
    <glyph glyph-name="scircumflex" unicode="&#x15d;" horiz-adv-x="2646" 
d="M262 573q47 -19 113 -38.5t144 -37t164.5 -33t174.5 -26.5t174 -17.5t164 -6.5q143 0 256 9t192 30.5t120.5 57t41.5 87.5q0 48 -35 80.5t-108.5 56.5t-186.5 43.5t-268 40.5q-226 31 -400.5 82t-294 131t-181.5 192.5t-62 266.5q0 163 68 288t209.5 210.5t360.5 129.5
t522 44q81 0 168 -6t173.5 -17.5t169.5 -27.5t156 -35t132 -41t98 -45v-459q-47 21 -112 40.5t-140.5 37.5t-158.5 33t-166.5 26t-165.5 17t-154 6q-117 0 -212.5 -9t-163 -30.5t-104.5 -56t-37 -85.5q0 -48 36 -79.5t110 -55t188 -42t269 -40.5q229 -32 403 -81t292 -127
t178 -190.5t60 -272.5t-81 -286.5t-239.5 -215t-392.5 -135.5t-540 -47q-141 0 -281.5 15t-265 39t-225.5 55t-162 63v462zM1626 2408l-320 320l-319 -320h-492l426 648h770l426 -648h-491z" />
    <glyph glyph-name="Scedilla" unicode="&#x15e;" horiz-adv-x="3240" 
d="M1020 -549q50 -12 99 -18t114 -6q29 0 56.5 4t48.5 13.5t33.5 25t12.5 38.5q0 29 -23 54.5t-61 45.5t-88.5 35.5t-105.5 24.5l156 270q-160 6 -306 24t-273.5 43.5t-234 56.5t-186.5 65v508q98 -34 227 -69t277 -63.5t307.5 -46.5t319.5 -18q227 0 395 26.5t278.5 76.5
t165 122t54.5 164q0 48 -19.5 88t-61.5 74.5t-107 64.5t-156 58t-208.5 55.5t-263.5 57.5q-196 39 -361.5 87.5t-298 109.5t-233 134.5t-168 161.5t-101.5 191.5t-34 224.5q0 129 35.5 245.5t110 216.5t190 180t275.5 137t367 87.5t464 30.5q174 0 329 -14.5t290 -39.5
t248 -58.5t202 -71.5v-504q-101 32 -221.5 64.5t-256 58t-284.5 41.5t-307 16q-200 0 -345 -24.5t-239.5 -71t-140 -113.5t-45.5 -151q0 -48 20.5 -88t64 -74.5t110 -64.5t158.5 -58t210 -55.5t265 -57.5q197 -39 362 -86t297.5 -106t233 -131t168 -160.5t101.5 -195
t34 -234.5q0 -186 -83 -345.5t-252.5 -280t-427 -196t-602.5 -91.5l-65 -136q46 -15 96 -39t91.5 -59.5t68.5 -86t27 -117.5q0 -103 -46.5 -178t-122 -124t-171 -72.5t-193.5 -23.5q-65 0 -135 7t-135 26v315z" />
    <glyph glyph-name="scedilla" unicode="&#x15f;" horiz-adv-x="2646" 
d="M844 -549q49 -12 98.5 -18t114.5 -6q29 0 56.5 4t48.5 13.5t33.5 25.5t12.5 38q0 29 -23 54.5t-61 45.5t-88.5 35.5t-105.5 24.5l159 275q-132 4 -255.5 20t-232 39t-196.5 51.5t-143 57.5v462q47 -19 113 -38.5t144 -37t164.5 -33t174.5 -26.5t174 -17.5t164 -6.5
q143 0 256 9t192 30.5t120.5 57t41.5 87.5q0 48 -35 80.5t-108.5 56.5t-186.5 43.5t-268 40.5q-226 31 -400.5 82t-294 131t-181.5 192.5t-62 266.5q0 163 68 288t209.5 210.5t360.5 129.5t522 44q81 0 168 -6t173.5 -17.5t169.5 -27.5t156 -35t132 -41t98 -45v-459
q-47 21 -112 40.5t-140.5 37.5t-158.5 33t-166.5 26t-165.5 17t-154 6q-117 0 -212.5 -9t-163 -30.5t-104.5 -56t-37 -85.5q0 -48 36 -79.5t110 -55t188 -42t269 -40.5q229 -32 403 -81t292 -127t178 -190.5t60 -272.5q0 -144 -66 -261.5t-195 -204t-319 -140t-435 -70.5
l-70 -144q46 -15 96 -39t91.5 -59.5t68.5 -86.5t27 -118q0 -101 -46.5 -177.5t-122.5 -124.5t-171 -71.5t-193 -23.5q-65 0 -135 7t-135 26v315z" />
    <glyph glyph-name="Scaron" unicode="&#x160;" horiz-adv-x="3240" 
d="M262 635q98 -34 227 -69t277 -63.5t307.5 -46.5t319.5 -18q227 0 395 26.5t278.5 76.5t165 122t54.5 164q0 48 -19.5 88t-61.5 74.5t-107 64.5t-156 58t-208.5 55.5t-263.5 57.5q-196 39 -361.5 87.5t-298 109.5t-233 134.5t-168 161.5t-101.5 191.5t-34 224.5
q0 129 35.5 245.5t110 216.5t190 180t275.5 137t367 87.5t464 30.5q174 0 329 -14.5t290 -39.5t248 -58.5t202 -71.5v-504q-101 32 -221.5 64.5t-256 58t-284.5 41.5t-307 16q-200 0 -345 -24.5t-239.5 -71t-140 -113.5t-45.5 -151q0 -48 20.5 -88t64 -74.5t110 -64.5
t158.5 -58t210 -55.5t265 -57.5q197 -39 362 -86t297.5 -106t233 -131t168 -160.5t101.5 -195t34 -234.5q0 -131 -41.5 -250t-125.5 -221t-211.5 -184.5t-299.5 -141t-389.5 -90t-481.5 -31.5q-184 0 -354 16.5t-318.5 43.5t-272 61.5t-214.5 71.5v508zM1282 3162l-426 648
h492l319 -320l320 320h491l-426 -648h-770z" />
    <glyph glyph-name="scaron" unicode="&#x161;" horiz-adv-x="2646" 
d="M262 573q47 -19 113 -38.5t144 -37t164.5 -33t174.5 -26.5t174 -17.5t164 -6.5q143 0 256 9t192 30.5t120.5 57t41.5 87.5q0 48 -35 80.5t-108.5 56.5t-186.5 43.5t-268 40.5q-226 31 -400.5 82t-294 131t-181.5 192.5t-62 266.5q0 163 68 288t209.5 210.5t360.5 129.5
t522 44q81 0 168 -6t173.5 -17.5t169.5 -27.5t156 -35t132 -41t98 -45v-459q-47 21 -112 40.5t-140.5 37.5t-158.5 33t-166.5 26t-165.5 17t-154 6q-117 0 -212.5 -9t-163 -30.5t-104.5 -56t-37 -85.5q0 -48 36 -79.5t110 -55t188 -42t269 -40.5q229 -32 403 -81t292 -127
t178 -190.5t60 -272.5t-81 -286.5t-239.5 -215t-392.5 -135.5t-540 -47q-141 0 -281.5 15t-265 39t-225.5 55t-162 63v462zM942 2408l-426 648h492l319 -320l320 320h491l-426 -648h-770z" />
    <glyph glyph-name="Tcommaaccent" unicode="&#x162;" horiz-adv-x="3105" 
d="M1221 0v2482h-1090v484h2843v-484h-1094v-2482h-659zM1008 -770l308 256l-99 342h372q74 0 129.5 -18.5t92 -52t55 -81.5t18.5 -106q0 -60 -24.5 -126t-83 -130t-155 -122.5t-241.5 -104.5l-221 -70z" />
    <glyph glyph-name="tcommaaccent" unicode="&#x163;" horiz-adv-x="2335" 
d="M2187 61q-60 -21 -142 -41t-174.5 -35.5t-189.5 -24.5t-186 -9q-237 0 -408 50t-281.5 149t-163 246t-52.5 341v905h-467v459h491l66 525h537v-525h954v-459h-954v-831q0 -97 20.5 -164.5t68.5 -110t126.5 -62t193.5 -19.5q83 0 164 6.5t154.5 16.5t135.5 23t107 27v-467
zM852 -770l308 256l-99 342h372q74 0 129.5 -18.5t92 -52t55 -81.5t18.5 -106q0 -60 -24.5 -126t-83 -130t-155 -122.5t-241.5 -104.5l-221 -70z" />
    <glyph glyph-name="Tcaron" unicode="&#x164;" horiz-adv-x="3105" 
d="M1221 0v2482h-1090v484h2843v-484h-1094v-2482h-659zM1159 3162l-426 648h492l319 -320l320 320h491l-426 -648h-770z" />
    <glyph glyph-name="tcaron" unicode="&#x165;" horiz-adv-x="2335" 
d="M2187 61q-60 -21 -142 -41t-174.5 -35.5t-189.5 -24.5t-186 -9q-237 0 -408 50t-281.5 149t-163 246t-52.5 341v905h-467v459h491l66 525h537v-525h954v-459h-954v-831q0 -97 20.5 -164.5t68.5 -110t126.5 -62t193.5 -19.5q83 0 164 6.5t154.5 16.5t135.5 23t107 27v-467
zM1590 2388l131 512l-127 435h360q74 0 129.5 -20.5t92 -57.5t55 -88.5t18.5 -112.5q0 -51 -22 -111.5t-56 -123.5t-74 -126t-77 -118l-127 -189h-303z" />
    <glyph glyph-name="Tbar" unicode="&#x166;" horiz-adv-x="3105" 
d="M1221 0v1151h-566v442h566v889h-1090v484h2843v-484h-1094v-889h569v-442h-569v-1151h-659z" />
    <glyph glyph-name="tbar" unicode="&#x167;" horiz-adv-x="2421" 
d="M2216 61q-60 -21 -142.5 -41t-175 -35.5t-189 -24.5t-185.5 -9q-237 0 -408 50t-281.5 149t-163.5 246t-53 341v135h-266v422h266v348h-466v459h491l66 525h536v-525h955v-459h-955v-348h615v-422h-615v-61q0 -97 21 -164.5t69 -110t126.5 -62t193.5 -19.5q83 0 164 6.5
t154.5 16.5t135.5 23t107 27v-467z" />
    <glyph glyph-name="Utilde" unicode="&#x168;" horiz-adv-x="3752" 
d="M2712 2966h655v-1770q0 -210 -40.5 -385t-122 -315.5t-205 -245.5t-289 -175.5t-374 -105.5t-460.5 -35q-261 0 -473 35t-378 105.5t-286.5 175.5t-199 245.5t-116.5 315.5t-38 385v1770h655v-1737q0 -197 47.5 -343t149 -242.5t260 -144.5t379.5 -48t379.5 48t260 144.5
t149 242.5t47.5 343v1737zM2692 3810q0 -140 -30.5 -261t-92 -210.5t-153 -141t-212.5 -51.5q-67 0 -128 16t-116.5 40t-105 52.5t-95 52.5t-86.5 40t-79 16q-32 0 -60.5 -13t-51 -38t-37.5 -63t-19 -87h-365q0 140 30.5 261t92 210.5t152.5 141t213 51.5q68 0 128.5 -16
t115.5 -40t105 -52.5t95.5 -52.5t86.5 -40t79 -16q32 0 60.5 13t51 38.5t37 63t19.5 86.5h365z" />
    <glyph glyph-name="utilde" unicode="&#x169;" horiz-adv-x="3240" 
d="M2277 0l-45 229q-71 -65 -165 -117.5t-204 -91t-233 -61t-250 -25.5q-136 0 -265.5 17t-244.5 58t-212 109.5t-166.5 171.5t-108.5 245t-39 329v1237h643v-1155q0 -132 31 -230t97.5 -162.5t170.5 -96t250 -31.5q98 0 186 11.5t168.5 33.5t155.5 55t149 76v1499h644
v-2101h-562zM2405 3056q0 -140 -30.5 -261t-92 -210.5t-153 -141t-212.5 -51.5q-67 0 -128 16t-116.5 40t-105 52.5t-95 52.5t-86.5 40t-79 16q-32 0 -60.5 -13t-51 -38t-37.5 -63t-19 -87h-365q0 140 30.5 261t92 210.5t152.5 141t213 51.5q68 0 128.5 -16t115.5 -40
t105 -52.5t95.5 -52.5t86.5 -40t79 -16q32 0 60.5 13t51 38.5t37 63t19.5 86.5h365z" />
    <glyph glyph-name="Umacron" unicode="&#x16a;" horiz-adv-x="3752" 
d="M2712 2966h655v-1770q0 -210 -40.5 -385t-122 -315.5t-205 -245.5t-289 -175.5t-374 -105.5t-460.5 -35q-261 0 -473 35t-378 105.5t-286.5 175.5t-199 245.5t-116.5 315.5t-38 385v1770h655v-1737q0 -197 47.5 -343t149 -242.5t260 -144.5t379.5 -48t379.5 48t260 144.5
t149 242.5t47.5 343v1737zM1168 3236v443h1417v-443h-1417z" />
    <glyph glyph-name="umacron" unicode="&#x16b;" horiz-adv-x="3240" 
d="M2277 0l-45 229q-71 -65 -165 -117.5t-204 -91t-233 -61t-250 -25.5q-136 0 -265.5 17t-244.5 58t-212 109.5t-166.5 171.5t-108.5 245t-39 329v1237h643v-1155q0 -132 31 -230t97.5 -162.5t170.5 -96t250 -31.5q98 0 186 11.5t168.5 33.5t155.5 55t149 76v1499h644
v-2101h-562zM881 2482v443h1417v-443h-1417z" />
    <glyph glyph-name="Ubreve" unicode="&#x16c;" horiz-adv-x="3752" 
d="M2712 2966h655v-1770q0 -210 -40.5 -385t-122 -315.5t-205 -245.5t-289 -175.5t-374 -105.5t-460.5 -35q-261 0 -473 35t-378 105.5t-286.5 175.5t-199 245.5t-116.5 315.5t-38 385v1770h655v-1737q0 -197 47.5 -343t149 -242.5t260 -144.5t379.5 -48t379.5 48t260 144.5
t149 242.5t47.5 343v1737zM2634 3810q-8 -140 -57 -263t-142 -215t-232.5 -145t-326.5 -53t-326 53t-232 145t-142.5 215t-56.5 263h397q17 -51 46.5 -96t74 -78t103.5 -52.5t136 -19.5t136.5 19.5t104 52.5t74 78t46.5 96h397z" />
    <glyph glyph-name="ubreve" unicode="&#x16d;" horiz-adv-x="3240" 
d="M2277 0l-45 229q-71 -65 -165 -117.5t-204 -91t-233 -61t-250 -25.5q-136 0 -265.5 17t-244.5 58t-212 109.5t-166.5 171.5t-108.5 245t-39 329v1237h643v-1155q0 -132 31 -230t97.5 -162.5t170.5 -96t250 -31.5q98 0 186 11.5t168.5 33.5t155.5 55t149 76v1499h644
v-2101h-562zM2347 3056q-8 -140 -57 -263t-142 -215t-232.5 -145t-326.5 -53t-326 53t-232 145t-142.5 215t-56.5 263h397q17 -51 46.5 -96t74 -78t103.5 -52.5t136 -19.5t136.5 19.5t104 52.5t74 78t46.5 96h397z" />
    <glyph glyph-name="Uring" unicode="&#x16e;" horiz-adv-x="3752" 
d="M2712 2966h655v-1770q0 -210 -40.5 -385t-122 -315.5t-205 -245.5t-289 -175.5t-374 -105.5t-460.5 -35q-261 0 -473 35t-378 105.5t-286.5 175.5t-199 245.5t-116.5 315.5t-38 385v1770h655v-1737q0 -197 47.5 -343t149 -242.5t260 -144.5t379.5 -48t379.5 48t260 144.5
t149 242.5t47.5 343v1737zM2368 3547q0 -100 -37.5 -185.5t-103.5 -148t-156 -98t-195 -35.5q-104 0 -194 35.5t-156 98t-103.5 148t-37.5 185.5t37.5 185.5t103.5 148t156 98t194 35.5q105 0 195 -35.5t156 -98t103.5 -148t37.5 -185.5zM2077 3547q0 40 -14.5 76.5t-41 64
t-63.5 44t-82 16.5q-44 0 -81.5 -16.5t-64.5 -44t-42.5 -64t-15.5 -76.5q0 -42 15.5 -79t42.5 -65t64.5 -44.5t81.5 -16.5q45 0 82 16.5t63.5 44.5t41 65t14.5 79z" />
    <glyph glyph-name="uring" unicode="&#x16f;" horiz-adv-x="3240" 
d="M2277 0l-45 229q-71 -65 -165 -117.5t-204 -91t-233 -61t-250 -25.5q-136 0 -265.5 17t-244.5 58t-212 109.5t-166.5 171.5t-108.5 245t-39 329v1237h643v-1155q0 -132 31 -230t97.5 -162.5t170.5 -96t250 -31.5q98 0 186 11.5t168.5 33.5t155.5 55t149 76v1499h644
v-2101h-562zM2081 2859q0 -100 -37.5 -185.5t-103.5 -148t-156 -98t-195 -35.5q-104 0 -194 35.5t-156 98t-103.5 148t-37.5 185.5t37.5 185.5t103.5 148t156 98t194 35.5q105 0 195 -35.5t156 -98t103.5 -148t37.5 -185.5zM1790 2859q0 40 -14.5 76.5t-41 64t-63.5 44
t-82 16.5q-44 0 -81.5 -16.5t-64.5 -44t-42.5 -64t-15.5 -76.5q0 -42 15.5 -79t42.5 -65t64.5 -44.5t81.5 -16.5q45 0 82 16.5t63.5 44.5t41 65t14.5 79z" />
    <glyph glyph-name="Uhungarumlaut" unicode="&#x170;" horiz-adv-x="3752" 
d="M2712 2966h655v-1770q0 -210 -40.5 -385t-122 -315.5t-205 -245.5t-289 -175.5t-374 -105.5t-460.5 -35q-261 0 -473 35t-378 105.5t-286.5 175.5t-199 245.5t-116.5 315.5t-38 385v1770h655v-1737q0 -197 47.5 -343t149 -242.5t260 -144.5t379.5 -48t379.5 48t260 144.5
t149 242.5t47.5 343v1737zM1143 3162l246 648h729l-524 -648h-451zM2159 3162l246 648h729l-525 -648h-450z" />
    <glyph glyph-name="uhungarumlaut" unicode="&#x171;" horiz-adv-x="3240" 
d="M2277 0l-45 229q-71 -65 -165 -117.5t-204 -91t-233 -61t-250 -25.5q-136 0 -265.5 17t-244.5 58t-212 109.5t-166.5 171.5t-108.5 245t-39 329v1237h643v-1155q0 -132 31 -230t97.5 -162.5t170.5 -96t250 -31.5q98 0 186 11.5t168.5 33.5t155.5 55t149 76v1499h644
v-2101h-562zM856 2408l246 648h729l-524 -648h-451zM1872 2408l246 648h729l-525 -648h-450z" />
    <glyph glyph-name="Uogonek" unicode="&#x172;" horiz-adv-x="3752" 
d="M2281 -852q-71 -15 -141 -24t-129 -9q-135 0 -239 23.5t-174.5 70.5t-107 117t-36.5 162q0 81 21 148t56 122t82 99.5t99 81.5q-231 11 -419.5 53.5t-336 116t-255 178t-178 240.5t-104.5 303t-34 366v1770h655v-1737q0 -197 47.5 -343t149 -242.5t260 -144.5t379.5 -48
t379.5 48t260 144.5t149 242.5t47.5 343v1737h655v-1770q0 -196 -32.5 -351.5t-93.5 -277t-148 -213t-195.5 -161.5t-236 -121t-269.5 -92q-108 -31 -198 -71.5t-155 -88.5t-101.5 -101t-36.5 -108q0 -74 50.5 -113t145.5 -39q20 0 40.5 1t42.5 3t47 6.5t54 10.5v-332z" />
    <glyph glyph-name="uogonek" unicode="&#x173;" horiz-adv-x="3240" 
d="M2802 -852q-72 -15 -142 -24t-129 -9q-135 0 -239 24t-174.5 72t-107 120t-36.5 169q0 81 25 152t67 133t96.5 115.5t114.5 99.5l-45 229q-71 -65 -165 -117.5t-204 -91t-233 -61t-250 -25.5q-136 0 -265.5 17t-244.5 58t-212 109.5t-166.5 171.5t-108.5 245t-39 329
v1237h643v-1155q0 -132 31 -230t97.5 -162.5t170.5 -96t250 -31.5q98 0 186 11.5t168.5 33.5t155.5 55t149 76v1499h644v-2101h-160q-57 -54 -104.5 -105t-81.5 -100t-53 -95t-19 -89q0 -74 50.5 -113t145.5 -39q20 0 40.5 1t43 3t47.5 6.5t54 10.5v-332z" />
    <glyph glyph-name="Wcircumflex" unicode="&#x174;" horiz-adv-x="5486" 
d="M3588 0l-847 2224l-850 -2224h-671l-1195 2966h728l834 -2227l851 2227h659l849 -2227l833 2227h682l-1196 -2966h-677zM3063 3162l-320 320l-319 -320h-492l426 648h770l426 -648h-491z" />
    <glyph glyph-name="wcircumflex" unicode="&#x175;" horiz-adv-x="4399" 
d="M2753 0l-422 1077q-34 90 -70 180.5t-70 180.5q-34 -90 -67.5 -180.5t-67.5 -180.5l-405 -1077h-697l-921 2101h672l446 -1110q37 -93 73.5 -184.5t73.5 -183.5q34 92 68 183.5t68 184.5l409 1110h705l418 -1110q34 -93 69.5 -184.5t69.5 -183.5q37 92 75.5 183.5
t75.5 184.5l451 1110h659l-921 -2101h-692zM2519 2408l-320 320l-319 -320h-492l426 648h770l426 -648h-491z" />
    <glyph glyph-name="Ycircumflex" unicode="&#x176;" horiz-adv-x="3363" 
d="M1352 0v1102l-1360 1864h782l631 -902q35 -51 70.5 -101.5t70.5 -101t70.5 -101t71.5 -101.5q35 51 71 102t72 102.5t72 102.5t71 102l635 898h762l-1360 -1836v-1130h-659zM1999 3162l-320 320l-319 -320h-492l426 648h770l426 -648h-491z" />
    <glyph glyph-name="ycircumflex" unicode="&#x177;" horiz-adv-x="2859" 
d="M16 -393q59 -13 138 -21t174 -8q73 0 150 7.5t148 25t136.5 46.5t122 71.5t104.5 100.5t84 134l21 41l-1061 2097h696l573 -1204q37 -77 72 -151.5t72 -151.5q35 74 70.5 149.5t71.5 151.5l571 1206h667l-1093 -2167q-80 -157 -163.5 -277.5t-176 -213t-193.5 -159
t-216 -113.5t-264.5 -74t-330.5 -27q-40 0 -89.5 3t-107 11.5t-106 22.5t-70.5 25v475zM1725 2408l-320 320l-319 -320h-492l426 648h770l426 -648h-491z" />
    <glyph glyph-name="Ydieresis" unicode="&#x178;" horiz-adv-x="3363" 
d="M1352 0v1102l-1360 1864h782l631 -902q35 -51 70.5 -101.5t70.5 -101t70.5 -101t71.5 -101.5q35 51 71 102t72 102.5t72 102.5t71 102l635 898h762l-1360 -1836v-1130h-659zM864 3195v525h561v-525h-561zM1933 3195v525h562v-525h-562z" />
    <glyph glyph-name="Zacute" unicode="&#x179;" horiz-adv-x="3416" 
d="M221 0v426l2036 2056h-1978v484h2834v-422l-2044 -2061h2126v-483h-2974zM1360 3162l409 648h770l-696 -648h-483z" />
    <glyph glyph-name="zacute" unicode="&#x17a;" horiz-adv-x="2707" 
d="M180 0v365l1389 1269h-1340v467h2245v-360l-1372 -1274h1425v-467h-2347zM1086 2408l409 648h770l-696 -648h-483z" />
    <glyph glyph-name="Zdotaccent" unicode="&#x17b;" horiz-adv-x="3416" 
d="M221 0v426l2036 2056h-1978v484h2834v-422l-2044 -2061h2126v-483h-2974zM1307 3236v557h643v-557h-643z" />
    <glyph glyph-name="zdotaccent" unicode="&#x17c;" horiz-adv-x="2707" 
d="M180 0v365l1389 1269h-1340v467h2245v-360l-1372 -1274h1425v-467h-2347zM1032 2482v557h643v-557h-643z" />
    <glyph glyph-name="Zcaron" unicode="&#x17d;" horiz-adv-x="3416" 
d="M221 0v426l2036 2056h-1978v484h2834v-422l-2044 -2061h2126v-483h-2974zM1241 3162l-426 648h492l319 -320l320 320h491l-426 -648h-770z" />
    <glyph glyph-name="zcaron" unicode="&#x17e;" horiz-adv-x="2707" 
d="M180 0v365l1389 1269h-1340v467h2245v-360l-1372 -1274h1425v-467h-2347zM966 2408l-426 648h492l319 -320l320 320h491l-426 -648h-770z" />
    <glyph glyph-name="florin" unicode="&#x192;" 
d="M1937 1323l-94 -623q-45 -285 -142 -497.5t-256.5 -353t-387 -210t-533.5 -69.5q-26 0 -69.5 3t-90.5 8t-91.5 11.5t-71.5 14.5l78 487q13 -3 38 -6t52.5 -5t54 -3.5t43.5 -1.5q178 0 306 38.5t216 121t141 213t82 315.5l86 557h-827l74 467h823l33 192q41 263 132 459.5
t233.5 327.5t337.5 196.5t444 65.5q45 0 100.5 -5t115.5 -13t120.5 -19t115.5 -24t101 -27t77 -27l-73 -483q-52 18 -110.5 34.5t-121.5 29t-130.5 19.5t-137.5 7q-144 0 -244 -42t-166 -119.5t-104 -187.5t-59 -245l-21 -139h1000l-74 -467h-1000z" />
    <glyph glyph-name="Scommaaccent" unicode="&#x218;" horiz-adv-x="3240" 
d="M262 635q98 -34 227 -69t277 -63.5t307.5 -46.5t319.5 -18q227 0 395 26.5t278.5 76.5t165 122t54.5 164q0 48 -19.5 88t-61.5 74.5t-107 64.5t-156 58t-208.5 55.5t-263.5 57.5q-196 39 -361.5 87.5t-298 109.5t-233 134.5t-168 161.5t-101.5 191.5t-34 224.5
q0 129 35.5 245.5t110 216.5t190 180t275.5 137t367 87.5t464 30.5q174 0 329 -14.5t290 -39.5t248 -58.5t202 -71.5v-504q-101 32 -221.5 64.5t-256 58t-284.5 41.5t-307 16q-200 0 -345 -24.5t-239.5 -71t-140 -113.5t-45.5 -151q0 -48 20.5 -88t64 -74.5t110 -64.5
t158.5 -58t210 -55.5t265 -57.5q197 -39 362 -86t297.5 -106t233 -131t168 -160.5t101.5 -195t34 -234.5q0 -131 -41.5 -250t-125.5 -221t-211.5 -184.5t-299.5 -141t-389.5 -90t-481.5 -31.5q-184 0 -354 16.5t-318.5 43.5t-272 61.5t-214.5 71.5v508zM1024 -770l308 256
l-99 342h372q74 0 129.5 -18.5t92 -52t55 -81.5t18.5 -106q0 -60 -24.5 -126t-83 -130t-155 -122.5t-241.5 -104.5l-221 -70z" />
    <glyph glyph-name="scommaaccent" unicode="&#x219;" horiz-adv-x="2646" 
d="M262 573q47 -19 113 -38.5t144 -37t164.5 -33t174.5 -26.5t174 -17.5t164 -6.5q143 0 256 9t192 30.5t120.5 57t41.5 87.5q0 48 -35 80.5t-108.5 56.5t-186.5 43.5t-268 40.5q-226 31 -400.5 82t-294 131t-181.5 192.5t-62 266.5q0 163 68 288t209.5 210.5t360.5 129.5
t522 44q81 0 168 -6t173.5 -17.5t169.5 -27.5t156 -35t132 -41t98 -45v-459q-47 21 -112 40.5t-140.5 37.5t-158.5 33t-166.5 26t-165.5 17t-154 6q-117 0 -212.5 -9t-163 -30.5t-104.5 -56t-37 -85.5q0 -48 36 -79.5t110 -55t188 -42t269 -40.5q229 -32 403 -81t292 -127
t178 -190.5t60 -272.5t-81 -286.5t-239.5 -215t-392.5 -135.5t-540 -47q-141 0 -281.5 15t-265 39t-225.5 55t-162 63v462zM783 -770l308 256l-99 342h372q74 0 129.5 -18.5t92 -52t55 -81.5t18.5 -106q0 -60 -24.5 -126t-83 -130t-155 -122.5t-241.5 -104.5l-221 -70z" />
    <glyph glyph-name="uni021A" unicode="&#x21a;" horiz-adv-x="3105" 
d="M1221 0v2482h-1090v484h2843v-484h-1094v-2482h-659zM1008 -770l308 256l-99 342h372q74 0 129.5 -18.5t92 -52t55 -81.5t18.5 -106q0 -60 -24.5 -126t-83 -130t-155 -122.5t-241.5 -104.5l-221 -70z" />
    <glyph glyph-name="uni021B" unicode="&#x21b;" horiz-adv-x="2335" 
d="M2187 61q-60 -21 -142 -41t-174.5 -35.5t-189.5 -24.5t-186 -9q-237 0 -408 50t-281.5 149t-163 246t-52.5 341v905h-467v459h491l66 525h537v-525h954v-459h-954v-831q0 -97 20.5 -164.5t68.5 -110t126.5 -62t193.5 -19.5q83 0 164 6.5t154.5 16.5t135.5 23t107 27v-467
zM852 -770l308 256l-99 342h372q74 0 129.5 -18.5t92 -52t55 -81.5t18.5 -106q0 -60 -24.5 -126t-83 -130t-155 -122.5t-241.5 -104.5l-221 -70z" />
    <glyph glyph-name="dotlessj" unicode="&#x237;" horiz-adv-x="1446" 
d="M-373 -401q53 -10 124 -17.5t143 -7.5q158 0 257 37.5t154.5 114.5t75.5 193t20 274v1908h643v-1982q0 -284 -67.5 -482.5t-201.5 -322.5t-331.5 -180t-459.5 -56q-56 0 -111.5 5t-99.5 13t-82.5 20t-63.5 24v459z" />
    <glyph glyph-name="circumflex" unicode="&#x2c6;" horiz-adv-x="2253" 
d="M1446 2408l-320 320l-319 -320h-492l426 648h770l426 -648h-491z" />
    <glyph glyph-name="caron" unicode="&#x2c7;" horiz-adv-x="2253" 
d="M741 2408l-426 648h492l319 -320l320 320h491l-426 -648h-770z" />
    <glyph glyph-name="breve" unicode="&#x2d8;" horiz-adv-x="2253" 
d="M1884 3056q-8 -140 -57 -263t-142 -215t-232.5 -145t-326.5 -53t-326 53t-232 145t-142.5 215t-56.5 263h397q17 -51 46.5 -96t74 -78t103.5 -52.5t136 -19.5t136.5 19.5t104 52.5t74 78t46.5 96h397z" />
    <glyph glyph-name="dotaccent" unicode="&#x2d9;" horiz-adv-x="2253" 
d="M803 2482v557h643v-557h-643z" />
    <glyph glyph-name="ring" unicode="&#x2da;" horiz-adv-x="2253" 
d="M1618 2859q0 -100 -37.5 -185.5t-103.5 -148t-156 -98t-195 -35.5q-104 0 -194 35.5t-156 98t-103.5 148t-37.5 185.5t37.5 185.5t103.5 148t156 98t194 35.5q105 0 195 -35.5t156 -98t103.5 -148t37.5 -185.5zM1327 2859q0 40 -14.5 76.5t-41 64t-63.5 44t-82 16.5
q-44 0 -81.5 -16.5t-64.5 -44t-42.5 -64t-15.5 -76.5q0 -42 15.5 -79t42.5 -65t64.5 -44.5t81.5 -16.5q45 0 82 16.5t63.5 44.5t41 65t14.5 79z" />
    <glyph glyph-name="ogonek" unicode="&#x2db;" horiz-adv-x="2253" 
d="M1540 -852q-71 -15 -141 -24t-129 -9q-135 0 -239 24t-174.5 72t-107 120t-36.5 169q0 91 30.5 168.5t80 144t113.5 123t132 105.5h393q-66 -60 -121.5 -117.5t-96 -111.5t-63 -104.5t-22.5 -96.5q0 -74 51 -113t146 -39q20 0 40 1t42.5 3t47.5 6.5t54 10.5v-332z" />
    <glyph glyph-name="tilde" unicode="&#x2dc;" horiz-adv-x="2253" 
d="M1942 3056q0 -140 -30.5 -261t-92 -210.5t-153 -141t-212.5 -51.5q-67 0 -128 16t-116.5 40t-105 52.5t-95 52.5t-86.5 40t-79 16q-32 0 -60.5 -13t-51 -38t-37.5 -63t-19 -87h-365q0 140 30.5 261t92 210.5t152.5 141t213 51.5q68 0 128.5 -16t115.5 -40t105 -52.5
t95.5 -52.5t86.5 -40t79 -16q32 0 60.5 13t51 38.5t37 63t19.5 86.5h365z" />
    <glyph glyph-name="hungarumlaut" unicode="&#x2dd;" horiz-adv-x="2253" 
d="M131 2408l246 648h729l-524 -648h-451zM1147 2408l246 648h729l-525 -648h-450z" />
    <glyph glyph-name="commatop" unicode="&#x312;" horiz-adv-x="2253" 
d="M1012 2318q-74 0 -129.5 20.5t-92 57.5t-55 88t-18.5 113q0 60 26.5 121t77 122t122.5 120t163 116l254 160l176 -197l-287 -299l123 -422h-360z" />
    <glyph glyph-name="caronslovak" unicode="&#x315;" horiz-adv-x="2253" 
d="M795 2019l131 512l-127 435h360q74 0 129.5 -20.5t92 -57.5t55 -88.5t18.5 -112.5q0 -51 -22 -111.5t-56 -123.5t-74 -126t-77 -118l-127 -189h-303z" />
    <glyph glyph-name="commaaccent" unicode="&#x326;" horiz-adv-x="2253" 
d="M672 -770l308 256l-99 342h372q74 0 129.5 -18.5t92 -52t55 -81.5t18.5 -106q0 -60 -24.5 -126t-83 -130t-155 -122.5t-241.5 -104.5l-221 -70z" />
    <glyph glyph-name="tonos" unicode="&#x384;" horiz-adv-x="2253" 
d="M737 3146h779l-267 -774h-245z" />
    <glyph glyph-name="dieresistonos" unicode="&#x385;" horiz-adv-x="2253" 
d="M94 2966h520v-525h-520v525zM807 3146h639l-197 -774h-245zM1638 2966h521v-525h-521v525z" />
    <glyph glyph-name="Alphatonos" unicode="&#x386;" horiz-adv-x="3817" 
d="M3068 0l-320 614h-1691l-316 -614h-733l1557 2966h688l1556 -2966h-741zM2138 1864q-59 117 -117 231t-116 232l-117 -234t-117 -233l-368 -734h1204zM214 2966h779l-267 -774h-245z" />
    <glyph glyph-name="Epsilontonos" unicode="&#x388;" horiz-adv-x="3772" 
d="M979 0v2966h2499v-484h-1839v-721h1577v-483h-1577v-795h1855v-483h-2515zM-48 2966h779l-267 -774h-245z" />
    <glyph glyph-name="Etatonos" unicode="&#x389;" horiz-adv-x="4481" 
d="M3380 0v1245h-1741v-1245h-660v2966h660v-1237h1741v1237h659v-2966h-659zM-48 2966h779l-267 -774h-245z" />
    <glyph glyph-name="Iotatonos" unicode="&#x38a;" horiz-adv-x="2920" 
d="M975 0v483h488v1999h-488v484h1635v-484h-488v-1999h488v-483h-1635zM-48 2966h779l-267 -774h-245z" />
    <glyph glyph-name="Omicrontonos" unicode="&#x38c;" horiz-adv-x="4321" 
d="M2372 -66q-294 0 -533.5 56t-427 157.5t-324.5 243t-226.5 314t-133 369.5t-43.5 409q0 208 45.5 403.5t138 367.5t232 315t327 245.5t423.5 159.5t522 57q294 0 533 -56t426.5 -157t324.5 -243t226.5 -314t133 -369t43.5 -409q0 -208 -45.5 -403.5t-138 -367.5
t-232 -315.5t-327 -246t-423.5 -159.5t-521 -57zM2372 455q181 0 326 37.5t257 105.5t192.5 162.5t132 208.5t75.5 244.5t24 269.5t-24 269.5t-75.5 244.5t-132 208.5t-192.5 162.5t-257 105.5t-326 37.5t-326.5 -37.5t-257.5 -105.5t-192 -162.5t-131.5 -208.5t-76 -244.5
t-24.5 -269.5t24.5 -269.5t76 -244.5t131.5 -208.5t192 -162.5t257.5 -105.5t326.5 -37.5zM-48 2966h779l-267 -774h-245z" />
    <glyph glyph-name="Upsilontonos" unicode="&#x38e;" horiz-adv-x="4194" 
d="M2183 0v1102l-1360 1864h782l631 -902q35 -51 70.5 -101.5t70.5 -101t70.5 -101t71.5 -101.5q35 51 71 102t72 102.5t72 102.5t71 102l635 898h762l-1360 -1836v-1130h-659zM-48 2966h779l-267 -774h-245z" />
    <glyph glyph-name="Omegatonos" unicode="&#x38f;" horiz-adv-x="4461" 
d="M2671 0v455q204 48 342 147.5t222 236t120 301.5t36 343q0 139 -24 269.5t-75.5 244.5t-132 208.5t-192.5 162.5t-257 105.5t-326 37.5t-326.5 -37.5t-258 -105.5t-193.5 -162.5t-133 -208.5t-76.5 -244.5t-24.5 -269.5q0 -178 36 -343t120 -301.5t222.5 -236
t342.5 -147.5v-455h-1552v467h647q-146 109 -241 237t-151 267.5t-78 286.5t-22 294q0 192 47.5 376.5t142 349t235.5 302.5t328.5 238.5t421 156.5t513.5 56q288 0 524.5 -54t423.5 -151t325 -233t229.5 -300.5t136 -352t44.5 -388.5q0 -147 -22 -294t-78 -286.5
t-152 -267.5t-243 -237h651v-467h-1552zM-48 2966h779l-267 -774h-245z" />
    <glyph glyph-name="iotadieresistonos" unicode="&#x390;" horiz-adv-x="1729" 
d="M1110 -53q-200 0 -339 44t-227 127.5t-127.5 204.5t-39.5 275v1503h643v-1417q0 -55 10 -100t42 -76.5t91.5 -48.5t159.5 -17q93 0 175 13.5t157 31.5v-450q-52 -20 -116.5 -36.5t-135.5 -28.5t-146 -18.5t-147 -6.5zM-335 2966h520v-525h-520v525zM378 3146h639
l-197 -774h-245zM1209 2966h521v-525h-521v525z" />
    <glyph glyph-name="Alpha" unicode="&#x391;" horiz-adv-x="3817" 
d="M3068 0l-320 614h-1691l-316 -614h-733l1557 2966h688l1556 -2966h-741zM2138 1864q-59 117 -117 231t-116 232l-117 -234t-117 -233l-368 -734h1204z" />
    <glyph glyph-name="Beta" unicode="&#x392;" horiz-adv-x="3510" 
d="M442 0v2966h1430q321 0 545.5 -54t365.5 -158.5t205 -258t64 -353.5q0 -114 -28 -205t-81 -164t-130 -128t-175 -97q141 -46 253 -112t189.5 -153t118.5 -194.5t41 -236.5q0 -122 -27.5 -232.5t-89 -205t-159.5 -171t-238 -130.5t-325.5 -83.5t-422.5 -29.5h-1536z
M1970 467q164 0 278 27t185 78.5t103 127t32 172.5t-32 173.5t-103 130t-185 82t-278 28.5h-872v-819h872zM1815 1737q142 0 248.5 27t176.5 77.5t105 121.5t35 159q0 87 -35 157t-105 119t-176.5 75t-248.5 26h-717v-762h717z" />
    <glyph glyph-name="Gamma" unicode="&#x393;" horiz-adv-x="2843" 
d="M442 2966h2270v-484h-1610v-2482h-660v2966z" />
    <glyph glyph-name="uni0394" unicode="&#x394;" horiz-adv-x="3727" 
d="M176 0v459l1344 2507h688l1343 -2507v-459h-3375zM2089 1901q-31 58 -61 116.5l-60 117t-60 118t-61 119.5q-31 -60 -61.5 -119.5t-61 -118t-60 -117t-58.5 -116.5l-725 -1418h1937z" />
    <glyph glyph-name="Epsilon" unicode="&#x395;" horiz-adv-x="3236" 
d="M442 0v2966h2499v-484h-1839v-721h1577v-483h-1577v-795h1855v-483h-2515z" />
    <glyph glyph-name="Zeta" unicode="&#x396;" horiz-adv-x="3416" 
d="M221 0v426l2036 2056h-1978v484h2834v-422l-2044 -2061h2126v-483h-2974z" />
    <glyph glyph-name="Eta" unicode="&#x397;" horiz-adv-x="3944" 
d="M2843 0v1245h-1741v-1245h-660v2966h660v-1237h1741v1237h659v-2966h-659z" />
    <glyph glyph-name="Theta" unicode="&#x398;" horiz-adv-x="3899" 
d="M1950 -66q-294 0 -533.5 56t-427 157.5t-324.5 243t-226.5 314t-133 369.5t-43.5 409q0 208 45.5 403.5t138 367.5t232 315t327 245.5t423.5 159.5t522 57q294 0 533 -56t426.5 -157t324.5 -243t226.5 -314t133 -369t43.5 -409q0 -208 -45.5 -403.5t-138 -367.5
t-232 -315.5t-327 -246t-423.5 -159.5t-521 -57zM1950 455q181 0 326 37.5t257 105.5t192.5 162.5t132 208.5t75.5 244.5t24 269.5t-24 269.5t-75.5 244.5t-132 208.5t-192.5 162.5t-257 105.5t-326 37.5t-326.5 -37.5t-257.5 -105.5t-192 -162.5t-131.5 -208.5t-76 -244.5
t-24.5 -269.5t24.5 -269.5t76 -244.5t131.5 -208.5t192 -162.5t257.5 -105.5t326.5 -37.5zM1274 1729h1352v-484h-1352v484z" />
    <glyph glyph-name="Iota" unicode="&#x399;" horiz-adv-x="2257" 
d="M311 0v483h488v1999h-488v484h1635v-484h-488v-1999h488v-483h-1635z" />
    <glyph glyph-name="Kappa" unicode="&#x39a;" horiz-adv-x="3600" 
d="M2621 0l-1519 1319v-1319h-660v2966h660v-1278l1552 1278h881l-1434 -1151q-89 -71 -178 -144t-178 -143q49 -40 97.5 -80l97 -80l97 -80t97.5 -80l1458 -1208h-971z" />
    <glyph glyph-name="Lambda" unicode="&#x39b;" horiz-adv-x="3703" 
d="M1507 2966h688l1500 -2966h-754l-1106 2314v0v0v0v0l-1106 -2314h-721z" />
    <glyph glyph-name="Mu" unicode="&#x39c;" horiz-adv-x="4809" 
d="M3727 0v1565v262v262q-96 -136 -190.5 -272.5t-190.5 -272.5l-712 -1012h-463l-713 1016q-48 68 -95 135.5t-93.5 135t-93.5 135t-95 135.5v-258v-258v-1573h-639v2966h729l955 -1364q74 -109 149.5 -213.5t149.5 -212.5q77 108 151.5 216.5t151.5 217.5l950 1356h688
v-2966h-639z" />
    <glyph glyph-name="Nu" unicode="&#x39d;" horiz-adv-x="4026" 
d="M2814 0l-1401 1761q-83 106 -163.5 207.5t-164.5 206.5v-114v-113.5v-113.5v-114v-1720h-643v2966h770l1393 -1758q42 -52 84 -105l84 -106l84 -106t84 -105v114v114v113.5v113.5v1725h643v-2966h-770z" />
    <glyph glyph-name="Xi" unicode="&#x39e;" horiz-adv-x="3195" 
d="M279 516h2637v-516h-2637v516zM557 1778h2081v-516h-2081v516zM279 2966h2637v-517h-2637v517z" />
    <glyph glyph-name="Omicron" unicode="&#x39f;" horiz-adv-x="3899" 
d="M1950 -66q-294 0 -533.5 56t-427 157.5t-324.5 243t-226.5 314t-133 369.5t-43.5 409q0 208 45.5 403.5t138 367.5t232 315t327 245.5t423.5 159.5t522 57q294 0 533 -56t426.5 -157t324.5 -243t226.5 -314t133 -369t43.5 -409q0 -208 -45.5 -403.5t-138 -367.5
t-232 -315.5t-327 -246t-423.5 -159.5t-521 -57zM1950 455q181 0 326 37.5t257 105.5t192.5 162.5t132 208.5t75.5 244.5t24 269.5t-24 269.5t-75.5 244.5t-132 208.5t-192.5 162.5t-257 105.5t-326 37.5t-326.5 -37.5t-257.5 -105.5t-192 -162.5t-131.5 -208.5t-76 -244.5
t-24.5 -269.5t24.5 -269.5t76 -244.5t131.5 -208.5t192 -162.5t257.5 -105.5t326.5 -37.5z" />
    <glyph glyph-name="Pi" unicode="&#x3a0;" horiz-adv-x="3863" 
d="M2761 2482h-1659v-2482h-660v2966h2978v-2966h-659v2482z" />
    <glyph glyph-name="Rho" unicode="&#x3a1;" horiz-adv-x="3346" 
d="M442 0v2966h1315q225 0 415.5 -26t344 -79t270.5 -133t196 -188t119 -244t40 -301q0 -161 -40.5 -296t-121 -243.5t-201 -191t-281 -137.5t-361.5 -83t-441 -28h-594v-1016h-660zM1655 1499q224 0 377.5 29.5t248 91t136 154.5t41.5 221q0 124 -41.5 216t-132.5 152
t-236 89.5t-352 29.5h-594v-983h553z" />
    <glyph glyph-name="Sigma" unicode="&#x3a3;" horiz-adv-x="3285" 
d="M279 426l1351 1057l-1351 1057v426h2727v-484h-1744l1048 -819v-360l-1048 -820h1744v-483h-2727v426z" />
    <glyph glyph-name="Tau" unicode="&#x3a4;" horiz-adv-x="3105" 
d="M1221 0v2482h-1090v484h2843v-484h-1094v-2482h-659z" />
    <glyph glyph-name="Upsilon" unicode="&#x3a5;" horiz-adv-x="3363" 
d="M1352 0v1102l-1360 1864h782l631 -902q35 -51 70.5 -101.5t70.5 -101t70.5 -101t71.5 -101.5q35 51 71 102t72 102.5t72 102.5t71 102l635 898h762l-1360 -1836v-1130h-659z" />
    <glyph glyph-name="Phi" unicode="&#x3a6;" horiz-adv-x="4465" 
d="M1925 262q-244 4 -466.5 41t-414 107t-347 173.5t-266 240.5t-170.5 307.5t-60 375.5q0 204 60 372.5t170.5 303t266 235t347 168t414 103t466.5 39.5v238h619v-238q242 -5 464 -41t413 -104t346.5 -168t266 -234t170.5 -302t60 -372t-60 -374t-170.5 -307t-266 -240.5
t-346.5 -174t-413 -108t-464 -41.5v-262h-619v262zM864 1507q0 -128 33.5 -232.5t97 -187t156 -143.5t210 -102.5t259.5 -64t305 -27.5v1503q-163 -5 -305 -27t-259.5 -62.5t-210 -100.5t-156 -141.5t-97 -184.5t-33.5 -230zM3600 1507q0 127 -33.5 230t-96.5 184.5
t-155 141.5t-209.5 100.5t-258.5 62.5t-303 27v-1503q162 6 303 29t258.5 64.5t209.5 102t155 143t96.5 186.5t33.5 232z" />
    <glyph glyph-name="Chi" unicode="&#x3a7;" horiz-adv-x="3473" 
d="M2613 0l-748 930q-19 23 -37 45.5l-36 45t-36 44.5t-36 45q-18 -23 -37 -46t-37.5 -46l-37 -46t-37.5 -47l-748 -925h-782l1298 1536l-1204 1430h819l638 -799q18 -22 35.5 -44t35.5 -44.5t35.5 -44.5t34.5 -43q17 21 34.5 43t35.5 44.5t36 44.5t35 44l641 799h782
l-1183 -1410l1318 -1556h-819z" />
    <glyph glyph-name="Psi" unicode="&#x3a8;" horiz-adv-x="4338" 
d="M1839 881q-270 12 -489 53.5t-389.5 114t-294.5 175.5t-205 238.5t-119.5 304t-38.5 371.5v828h655v-754q0 -207 54 -354.5t163.5 -245t275 -149t388.5 -66.5v1569h660v-1569q221 15 386 66.5t275 149t164.5 245t54.5 354.5v754h656v-828q0 -203 -38.5 -371.5
t-119.5 -304t-205 -238.5t-294.5 -175.5t-389.5 -114t-489 -53.5v-881h-660v881z" />
    <glyph glyph-name="uni03A9" unicode="&#x3a9;" horiz-adv-x="4157" 
d="M2368 0v455q204 48 342 147.5t222 236t120 301.5t36 343q0 139 -24 269.5t-75.5 244.5t-132 208.5t-192.5 162.5t-257 105.5t-326 37.5t-326.5 -37.5t-258 -105.5t-193.5 -162.5t-133 -208.5t-76.5 -244.5t-24.5 -269.5q0 -178 36 -343t120 -301.5t222.5 -236
t342.5 -147.5v-455h-1552v467h647q-146 109 -241 237t-151 267.5t-78 286.5t-22 294q0 192 47.5 376.5t142 349t235.5 302.5t328.5 238.5t421 156.5t513.5 56q288 0 524.5 -54t423.5 -151t325 -233t229.5 -300.5t136 -352t44.5 -388.5q0 -147 -22 -294t-78 -286.5
t-152 -267.5t-243 -237h651v-467h-1552z" />
    <glyph glyph-name="Iotadieresis" unicode="&#x3aa;" horiz-adv-x="2257" 
d="M311 0v483h488v1999h-488v484h1635v-484h-488v-1999h488v-483h-1635zM311 3195v525h561v-525h-561zM1380 3195v525h562v-525h-562z" />
    <glyph glyph-name="Upsilondieresis" unicode="&#x3ab;" horiz-adv-x="3363" 
d="M1352 0v1102l-1360 1864h782l631 -902q35 -51 70.5 -101.5t70.5 -101t70.5 -101t71.5 -101.5q35 51 71 102t72 102.5t72 102.5t71 102l635 898h762l-1360 -1836v-1130h-659zM864 3195v525h561v-525h-561zM1933 3195v525h562v-525h-562z" />
    <glyph glyph-name="alphatonos" unicode="&#x3ac;" horiz-adv-x="3404" 
d="M1348 -66q-264 0 -473.5 74t-354.5 216.5t-222 351t-77 477.5q0 259 82 465.5t232.5 350.5t363 221t473.5 77q154 0 287.5 -27t247.5 -72.5t209 -105t170 -123.5l90 262h532v-1433q0 -56 10.5 -97.5t33.5 -69t59.5 -41.5t89.5 -14q68 0 123 11t114 26v-438
q-31 -17 -78 -33.5t-104.5 -30t-123 -22t-132.5 -8.5q-132 0 -232.5 28t-172 79t-115.5 122.5t-62 159.5q-75 -75 -172 -148t-217.5 -130.5t-265.5 -92.5t-315 -35zM1454 438q130 0 248 25.5t220.5 69t188.5 99.5t154 118v602q-68 60 -152.5 116t-184 99.5t-212.5 69.5
t-237 26q-148 0 -260.5 -41.5t-188.5 -120.5t-114.5 -192t-38.5 -256t38.5 -257t112 -193.5t181 -122t245.5 -42.5zM1138 3146h779l-267 -774h-245z" />
    <glyph glyph-name="epsilontonos" unicode="&#x3ad;" horiz-adv-x="2798" 
d="M1462 -66q-286 0 -511.5 40.5t-382 119t-239.5 194t-83 265.5q0 106 30.5 188t90 143.5t147.5 104t203 68.5q-98 29 -172.5 72.5t-124.5 104t-75.5 138.5t-25.5 176q0 151 71.5 266.5t214.5 194t357 118.5t500 40q101 0 199.5 -4.5t191.5 -13.5t181 -23t169.5 -32.5
t155.5 -42t140 -52.5v-463q-106 37 -216 64.5t-226 46t-239.5 27.5t-256.5 9q-160 0 -269.5 -16.5t-177 -46t-97.5 -69t-30 -85.5q0 -48 23.5 -83t79.5 -58.5t147.5 -35t228.5 -11.5h598v-455h-659q-91 0 -163 -5t-126.5 -15t-93 -25t-63 -36t-35.5 -47.5t-11 -59.5
q0 -49 39 -89t117 -68.5t195 -44t272 -15.5q143 0 282 13t270.5 35.5t254 53.5t233.5 66v-463q-95 -45 -220.5 -80t-270.5 -59t-303.5 -37t-319.5 -13zM1003 3146h779l-267 -774h-245z" />
    <glyph glyph-name="etatonos" unicode="&#x3ae;" horiz-adv-x="3289" 
d="M401 2101h562l45 -241q80 72 177 129t208 96.5t235.5 60.5t259.5 21q140 0 273 -17t250.5 -57.5t215.5 -109t168.5 -172t110 -245.5t39.5 -329v-2101h-643v2019q0 132 -31 229.5t-97.5 162t-170.5 96.5t-250 32q-115 0 -215 -14.5t-187 -38.5t-163 -56t-144 -67v-1499
h-643v2101zM1282 3146h779l-267 -774h-245z" />
    <glyph glyph-name="iotatonos" unicode="&#x3af;" horiz-adv-x="1729" 
d="M1110 -53q-200 0 -339 44t-227 127.5t-127.5 204.5t-39.5 275v1503h643v-1417q0 -55 10 -100t42 -76.5t91.5 -48.5t159.5 -17q93 0 175 13.5t157 31.5v-450q-52 -20 -116.5 -36.5t-135.5 -28.5t-146 -18.5t-147 -6.5zM308 3146h779l-267 -774h-245z" />
    <glyph glyph-name="upsilondieresistonos" unicode="&#x3b0;" horiz-adv-x="3088" 
d="M1561 -66q-152 0 -304.5 19.5t-293.5 68.5t-263 132t-212 210t-141.5 302.5t-51.5 410.5v1024h643v-942q0 -141 19.5 -250t57 -189.5t92 -135t123.5 -88t152.5 -48t178.5 -14.5q143 0 258 34t196 117t124.5 222.5t43.5 351.5q0 152 -19 288.5t-50 255t-70.5 218.5
t-81.5 180h655q45 -72 85.5 -164t72 -208t50 -257.5t18.5 -312.5q0 -184 -27 -346.5t-88 -298.5t-159 -243.5t-240.5 -182.5t-332.5 -114.5t-435 -39.5zM516 2966h520v-525h-520v525zM1229 3146h639l-197 -774h-245zM2060 2966h521v-525h-521v525z" />
    <glyph glyph-name="alpha" unicode="&#x3b1;" horiz-adv-x="3404" 
d="M1348 -66q-264 0 -473.5 74t-354.5 216.5t-222 351t-77 477.5q0 259 82 465.5t232.5 350.5t363 221t473.5 77q154 0 287.5 -27t247.5 -72.5t209 -105t170 -123.5l90 262h532v-1433q0 -56 10.5 -97.5t33.5 -69t59.5 -41.5t89.5 -14q68 0 123 11t114 26v-438
q-31 -17 -78 -33.5t-104.5 -30t-123 -22t-132.5 -8.5q-132 0 -232.5 28t-172 79t-115.5 122.5t-62 159.5q-75 -75 -172 -148t-217.5 -130.5t-265.5 -92.5t-315 -35zM1454 438q130 0 248 25.5t220.5 69t188.5 99.5t154 118v602q-68 60 -152.5 116t-184 99.5t-212.5 69.5
t-237 26q-148 0 -260.5 -41.5t-188.5 -120.5t-114.5 -192t-38.5 -256t38.5 -257t112 -193.5t181 -122t245.5 -42.5z" />
    <glyph glyph-name="beta" unicode="&#x3b2;" horiz-adv-x="3330" 
d="M401 1946q0 189 42.5 343t122 274.5t193.5 208.5t256 145.5t309.5 85.5t354.5 28q277 0 494.5 -55t368 -159t230 -253t79.5 -336q0 -106 -31.5 -203.5t-93 -182.5t-152.5 -154.5t-211 -118.5q186 -39 333 -105t248.5 -160.5t155.5 -217.5t54 -275q0 -122 -31.5 -234
t-98 -209.5t-168 -177.5t-241 -137t-319 -88t-400.5 -31q-138 0 -263.5 16t-234 43.5t-198.5 64t-156 77.5v-999h-643v2810zM1044 573q66 -34 146.5 -63t175.5 -50.5t205.5 -33.5t238.5 -12q171 0 299 30.5t213.5 86.5t128.5 135.5t43 177.5q0 84 -30.5 149.5t-92.5 114.5
t-155 83t-218 55t-281.5 30.5t-344.5 9.5v443q164 0 288.5 15t215.5 43.5t151.5 68.5t97 90t51.5 108.5t15 124.5q0 72 -28.5 141t-91.5 122t-163.5 85.5t-244.5 32.5q-169 0 -287 -34.5t-191.5 -113t-107 -205.5t-33.5 -311v-1323z" />
    <glyph glyph-name="gamma" unicode="&#x3b3;" horiz-adv-x="2974" 
d="M1221 -16l-746 1462q-29 57 -56.5 98t-60.5 67.5t-75.5 39t-102.5 12.5q-49 0 -93.5 -6t-78.5 -19v435q40 20 85 36t93 27t98 17t101 6q120 0 211.5 -19.5t163 -63.5t128 -116t107.5 -178l566 -1188v0v0v0v0l712 1507h668l-1077 -2126v-839h-643v848z" />
    <glyph glyph-name="delta" unicode="&#x3b4;" horiz-adv-x="3203" 
d="M1610 -66q-227 0 -420 30.5t-349 91.5t-275 151.5t-199 210t-121 268.5t-41 326q0 169 43.5 309.5t121 252t183.5 195.5t230.5 139.5t263 83t280.5 27.5q40 0 79 -5t73 -11v0v0l-967 643v320h2089v-467h-1036l594 -381q155 -100 279 -192.5t219 -181.5t163 -177.5
t111.5 -182t63.5 -194.5t20 -215q0 -159 -41 -297.5t-121.5 -254.5t-199.5 -206.5t-275 -153.5t-348.5 -96t-419.5 -33zM1610 406q112 0 210.5 17t181 50.5t148 84t111.5 117.5t70 150t24 183q0 99 -24 182.5t-70 151t-111.5 118.5t-148 85t-181.5 51.5t-210 17.5
q-168 0 -305.5 -38t-235.5 -114t-151.5 -188.5t-53.5 -261.5t53.5 -262.5t151.5 -190t235.5 -115t305.5 -38.5z" />
    <glyph glyph-name="epsilon" unicode="&#x3b5;" horiz-adv-x="2798" 
d="M1462 -66q-286 0 -511.5 40.5t-382 119t-239.5 194t-83 265.5q0 106 30.5 188t90 143.5t147.5 104t203 68.5q-98 29 -172.5 72.5t-124.5 104t-75.5 138.5t-25.5 176q0 151 71.5 266.5t214.5 194t357 118.5t500 40q101 0 199.5 -4.5t191.5 -13.5t181 -23t169.5 -32.5
t155.5 -42t140 -52.5v-463q-106 37 -216 64.5t-226 46t-239.5 27.5t-256.5 9q-160 0 -269.5 -16.5t-177 -46t-97.5 -69t-30 -85.5q0 -48 23.5 -83t79.5 -58.5t147.5 -35t228.5 -11.5h598v-455h-659q-91 0 -163 -5t-126.5 -15t-93 -25t-63 -36t-35.5 -47.5t-11 -59.5
q0 -49 39 -89t117 -68.5t195 -44t272 -15.5q143 0 282 13t270.5 35.5t254 53.5t233.5 66v-463q-95 -45 -220.5 -80t-270.5 -59t-303.5 -37t-319.5 -13z" />
    <glyph glyph-name="zeta" unicode="&#x3b6;" horiz-adv-x="2433" 
d="M1507 -680q46 75 88.5 160.5t78.5 173.5t65 176.5t47 169.5h-352q-174 0 -331.5 24.5t-292.5 75t-244 129t-185.5 186t-118 245t-41.5 307.5q0 156 49 310.5t132.5 300.5t194.5 281t234.5 253t253 216t250.5 171h-1081v467h2015v-361q-97 -46 -208 -112.5t-226.5 -148.5
t-231.5 -178.5t-221.5 -203t-197 -221.5t-159 -233.5t-106 -239.5t-38.5 -240q0 -97 23 -174.5t64.5 -137t100.5 -102t131 -70t155 -40t173 -12.5h368q137 0 234 -29t159 -79t90.5 -118.5t28.5 -146.5q0 -70 -12 -141.5t-34 -142.5t-52 -140.5t-67 -135t-79 -126t-87 -113.5
h-570v0z" />
    <glyph glyph-name="eta" unicode="&#x3b7;" horiz-adv-x="3289" 
d="M401 2101h562l45 -241q80 72 177 129t208 96.5t235.5 60.5t259.5 21q140 0 273 -17t250.5 -57.5t215.5 -109t168.5 -172t110 -245.5t39.5 -329v-2101h-643v2019q0 132 -31 229.5t-97.5 162t-170.5 96.5t-250 32q-115 0 -215 -14.5t-187 -38.5t-163 -56t-144 -67v-1499
h-643v2101z" />
    <glyph glyph-name="theta" unicode="&#x3b8;" horiz-adv-x="3219" 
d="M1610 -66q-227 0 -420 48.5t-349 141.5t-275 228t-199 307.5t-121 380.5t-41 447q0 233 41 438.5t121 377t199 307t275 229t348.5 143t420.5 49.5t421 -48.5t349 -141.5t275 -228t199 -307.5t120.5 -380.5t40.5 -446q0 -233 -41 -438.5t-121.5 -377t-199.5 -307
t-275 -229.5t-348.5 -143.5t-419.5 -49.5zM1610 426q150 0 281 50.5t230.5 153t163 259t78.5 368.5h-1511q17 -212 80.5 -368.5t163 -259t231 -153t283.5 -50.5zM1610 2540q-151 0 -280.5 -49.5t-228.5 -151t-163 -255t-82 -360.5h1507q-18 206 -82.5 359t-163.5 254.5
t-228.5 152t-278.5 50.5z" />
    <glyph glyph-name="iota" unicode="&#x3b9;" horiz-adv-x="1729" 
d="M1110 -53q-200 0 -339 44t-227 127.5t-127.5 204.5t-39.5 275v1503h643v-1417q0 -55 10 -100t42 -76.5t91.5 -48.5t159.5 -17q93 0 175 13.5t157 31.5v-450q-52 -20 -116.5 -36.5t-135.5 -28.5t-146 -18.5t-147 -6.5z" />
    <glyph glyph-name="kappa" unicode="&#x3ba;" horiz-adv-x="2937" 
d="M401 2101h643v-856l1045 856h840l-1229 -983v0v0v0v0v0v0v0v0l1261 -1118h-897l-1020 963v-963h-643v2101z" />
    <glyph glyph-name="lambda" unicode="&#x3bb;" horiz-adv-x="3043" 
d="M1163 2159l-12 24q-27 58 -57 107.5t-65.5 89t-77 69.5t-90.5 50.5t-107.5 30.5t-126.5 10q-54 0 -110 -5t-106 -12.5t-90 -17.5t-63 -19v471q25 14 74.5 27t112 23.5t132.5 17t136 6.5q158 0 282 -21.5t223 -64t176.5 -105.5t142.5 -145t121 -183.5t111 -221.5
l746 -1618q29 -65 57 -109.5t62 -72t78 -40t106 -12.5q74 0 133 9.5t109 27.5v-446q-40 -22 -91.5 -38t-109.5 -26.5t-119 -16t-119 -5.5q-146 0 -248 31t-177 94t-132 159.5t-114 227.5l-475 1089v0v0v0v0v0v0v0v0l-725 -1544h-676z" />
    <glyph glyph-name="uni03BC" unicode="&#x3bc;" horiz-adv-x="3391" 
d="M2888 -49q-116 0 -209 21.5t-164 61.5t-120 96.5t-77 127.5q-69 -71 -165 -130t-210.5 -102.5t-243 -67.5t-261.5 -24q-62 0 -121.5 5t-115 15t-106.5 25.5t-96 36.5q19 -46 32 -118.5t13 -167.5v-594h-643v2965h643v-1155q0 -132 31 -230t97.5 -162.5t170.5 -96
t250 -31.5q98 0 186 11.5t168.5 33.5t156 55t149.5 76v1499h643v-1433q0 -56 10.5 -97.5t33.5 -69t59.5 -41.5t88.5 -14q68 0 123.5 11t114.5 26v-438q-31 -17 -78 -33.5t-104.5 -30t-123 -22t-132.5 -8.5z" />
    <glyph glyph-name="nu" unicode="&#x3bd;" horiz-adv-x="2859" 
d="M1098 0l-1065 2101h696l574 -1204q37 -77 71.5 -151.5t71.5 -151.5q34 74 69.5 147.5t69.5 147.5l574 1212h667l-1065 -2101h-663z" />
    <glyph glyph-name="xi" unicode="&#x3be;" horiz-adv-x="2523" 
d="M1573 -680q46 75 88.5 160.5t78.5 173.5t64.5 176.5t46.5 169.5h-376q-178 0 -339 24t-298.5 73.5t-248.5 125t-189 177.5t-120 231t-42 287q0 136 39 248t112 199.5t178.5 152.5t239.5 108q-120 45 -212.5 109t-155.5 146t-95.5 181.5t-32.5 214.5q0 151 68.5 283.5
t203 231.5t333.5 156.5t460 57.5q146 0 267 -8t226.5 -25t199 -44t184.5 -66v-450q-98 27 -191.5 46t-189 30.5t-197.5 16.5t-217 5q-123 0 -214.5 -21.5t-152 -61.5t-90.5 -97t-30 -127q0 -77 33 -142.5t99 -113t165 -74.5t231 -27h533v-467h-484q-161 0 -283.5 -23.5
t-205 -75t-124.5 -134.5t-42 -201q0 -81 25.5 -146t72 -115.5t111.5 -87t142.5 -60t166 -34.5t182.5 -11h369q137 0 234 -29t159 -79t90.5 -118.5t28.5 -146.5q0 -105 -26.5 -213t-72 -211.5t-106 -199t-127.5 -175.5h-569z" />
    <glyph glyph-name="omicron" unicode="&#x3bf;" horiz-adv-x="3252" 
d="M1626 -66q-227 0 -419.5 33.5t-348.5 99t-275 161t-199.5 220t-121.5 276.5t-41 329q0 169 41 317t121.5 272t199.5 221.5t275 165t348.5 103t419.5 35.5q228 0 421 -33.5t349.5 -99t275 -161t198.5 -220t120.5 -276t40.5 -328.5q0 -169 -41 -317.5t-121.5 -272
t-199.5 -221.5t-275 -165.5t-348.5 -103t-419.5 -35.5zM1626 406q168 0 305.5 44.5t235.5 127.5t151.5 202.5t53.5 268.5t-53.5 268.5t-151.5 203.5t-235.5 129.5t-305.5 45.5q-167 0 -304.5 -44.5t-235.5 -128t-151.5 -202.5t-53.5 -268t53.5 -269t151.5 -204t235.5 -129
t304.5 -45z" />
    <glyph glyph-name="pi" unicode="&#x3c0;" horiz-adv-x="3547" 
d="M3203 8q-35 -14 -93.5 -25t-121.5 -19t-121.5 -12.5t-93.5 -4.5q-180 0 -297.5 41t-187 121t-97.5 197.5t-28 271.5v1056h-897v-1634h-643v1634h-500v467h3220v-467h-537v-995q0 -55 8 -95t35 -66.5t79 -39t140 -12.5q11 0 30 1.5t39 3t38.5 3.5t27.5 4v-430z" />
    <glyph glyph-name="rho" unicode="&#x3c1;" horiz-adv-x="3252" 
d="M344 983q0 168 31 321t98 284.5t172 238.5t254 182.5t343.5 116.5t440.5 41q225 0 413 -34t337.5 -98.5t261.5 -159.5t187 -216.5t112 -268.5t37 -317q0 -258 -80 -468t-233.5 -359.5t-377.5 -230.5t-513 -81q-120 0 -239 15.5t-228.5 44.5t-205 70t-167.5 92v-1020h-643
v1847zM1708 430q163 0 287.5 41.5t209 120.5t128 194t43.5 263q0 147 -47 265.5t-136.5 201.5t-218 127.5t-291.5 44.5q-115 0 -211.5 -21t-174 -63t-135.5 -104.5t-97 -145.5t-58.5 -186t-19.5 -226v-348q80 -42 160 -72.5t167 -51t183.5 -30.5t210.5 -10z" />
    <glyph glyph-name="sigma1" unicode="&#x3c2;" horiz-adv-x="2580" 
d="M1565 -680q46 75 88.5 160.5t78.5 173.5t64.5 176.5t46.5 169.5h-368q-178 0 -340.5 28t-301.5 84.5t-252 141.5t-193 200.5t-123.5 260.5t-43.5 321q0 162 35 308.5t105.5 271.5t177 226t249.5 172.5t322.5 110t396.5 38.5q111 0 225.5 -12.5t221 -35t198.5 -54.5
t158 -70v-471q-72 31 -165 57.5t-196 46.5t-210 31.5t-207 11.5q-161 0 -283.5 -41t-205 -119t-124.5 -190.5t-42 -255.5q0 -146 59 -253t158 -177.5t228.5 -104.5t270.5 -34h361q136 0 233.5 -29t159 -79t90.5 -118.5t29 -146.5q0 -105 -26.5 -213t-72 -211.5t-106 -199
t-127.5 -175.5h-569v0z" />
    <glyph glyph-name="sigma" unicode="&#x3c3;" horiz-adv-x="3363" 
d="M1602 -66q-227 0 -418 33.5t-344.5 99t-269.5 161t-193.5 220t-116.5 276.5t-39 329q0 169 36.5 312.5t110 260t184.5 205t260 149t337 91t416 30.5h1683v-459h-569q60 -52 115 -121.5t96.5 -153.5t66.5 -182.5t25 -209.5q0 -148 -40.5 -283t-119.5 -251t-195.5 -209.5
t-270 -159.5t-342.5 -102t-412 -36zM2322 1049q0 93 -21.5 180t-59 163t-88.5 139.5t-109 110.5h-418q-167 0 -304.5 -36t-235.5 -109.5t-151.5 -184t-53.5 -259.5t50 -269t143 -204t226.5 -129t301.5 -45q111 0 208 20t177 58.5t142.5 94t105 127t65 157.5t22.5 186z" />
    <glyph glyph-name="tau" unicode="&#x3c4;" horiz-adv-x="2466" 
d="M66 2101h2277v-459h-987v-958q0 -55 11 -100t44.5 -76.5t94.5 -48.5t161 -17q93 0 179.5 13.5t160.5 31.5v-450q-52 -20 -116.5 -36.5t-135.5 -28.5t-146 -18.5t-147 -6.5q-200 0 -339 44t-227 127.5t-127.5 204.5t-39.5 275v1044h-663v459z" />
    <glyph glyph-name="upsilon" unicode="&#x3c5;" horiz-adv-x="3088" 
d="M1561 -66q-152 0 -304.5 19.5t-293.5 68.5t-263 132t-212 210t-141.5 302.5t-51.5 410.5v1024h643v-942q0 -141 19.5 -250t57 -189.5t92 -135t123.5 -88t152.5 -48t178.5 -14.5q143 0 258 34t196 117t124.5 222.5t43.5 351.5q0 152 -19 288.5t-50 255t-70.5 218.5
t-81.5 180h655q45 -72 85.5 -164t72 -208t50 -257.5t18.5 -312.5q0 -184 -27 -346.5t-88 -298.5t-159 -243.5t-240.5 -182.5t-332.5 -114.5t-435 -39.5z" />
    <glyph glyph-name="phi" unicode="&#x3c6;" horiz-adv-x="4043" 
d="M1700 -41q-390 15 -674 98t-468 224t-272.5 335.5t-88.5 432.5q0 256 88 454t271.5 335t467.5 213.5t676 90.5v824h643v-824q390 -14 673.5 -90.5t468 -213.5t273 -335t88.5 -454q0 -238 -88.5 -432.5t-273 -335.5t-468 -224t-673.5 -98v-823h-643v823zM856 1049
q0 -141 46.5 -252t149 -190.5t266 -126t398.5 -58.5v1257q-235 -12 -398.5 -59t-266 -127t-149 -191.5t-46.5 -252.5zM3187 1049q0 141 -47 252.5t-150 191.5t-266.5 127t-396.5 59v-1257q233 12 396.5 58.5t266.5 126t150 190.5t47 252z" />
    <glyph glyph-name="chi" unicode="&#x3c7;" horiz-adv-x="2847" 
d="M2417 -922q-92 0 -167.5 13t-139 45.5t-119 87t-107.5 137.5l-516 807v0v0v0v0v0v0v0v0l-709 -1032h-704l1106 1511l-574 877q-26 38 -52 64.5t-55.5 43t-64 24t-77.5 7.5q-25 0 -48.5 -1.5t-45.5 -4.5t-41.5 -8t-36.5 -11v435q37 20 80 36t93 27t108 17t124 6
q92 0 167 -13t139 -45.5t119 -87t108 -137.5l475 -750v0v0v0v0v0v0v0v0l667 975h705l-1061 -1450l610 -938q25 -38 51 -64.5t56 -43t65 -24t78 -7.5q25 0 48.5 1.5t45.5 4.5t41.5 8t36.5 11v-435q-37 -20 -80 -36t-93.5 -27t-108 -17t-123.5 -6z" />
    <glyph glyph-name="psi" unicode="&#x3c8;" horiz-adv-x="3969" 
d="M1647 -20q-207 13 -388 49.5t-332.5 101.5t-270 161.5t-201 231t-125.5 309.5t-43 396v872h643v-790q0 -221 40.5 -372.5t127.5 -248.5t222.5 -147t326.5 -68v2491h643v-2491v0q201 15 347 60t241 128t140.5 210t45.5 307q0 152 -19 285t-50 247.5t-71 211.5t-81 177h655
q45 -72 85.5 -161t71.5 -201t49.5 -250.5t18.5 -308.5q0 -213 -46 -381.5t-133.5 -297.5t-213 -222.5t-285 -156.5t-349.5 -98.5t-406 -48.5v0v-839h-643v844z" />
    <glyph glyph-name="omega" unicode="&#x3c9;" horiz-adv-x="4190" 
d="M1270 -66q-175 0 -319 32.5t-258 96t-198 158t-139.5 219.5t-82.5 279.5t-27 337.5q0 135 18 253t50.5 220t78 188.5t100.5 157.5t117.5 127t130.5 98h664q-122 -87 -215 -192.5t-156.5 -230.5t-96 -269.5t-32.5 -310.5q0 -144 20.5 -266t70 -210.5t131 -138t204.5 -49.5
t210 44.5t142.5 126.5t81 199t25.5 261v504h610v-504q0 -144 25.5 -261t81 -199t142.5 -126.5t210 -44.5t205 49.5t131 138t69.5 210.5t20.5 266q0 166 -32.5 310.5t-96 269.5t-157 230.5t-214.5 192.5h664q67 -42 130 -98t118 -127t100.5 -157.5t78 -188.5t50.5 -220
t18 -253q0 -183 -27 -337.5t-82.5 -279.5t-139.5 -219.5t-198 -158t-258 -96t-319 -32.5q-150 0 -276.5 28t-229 77t-183 115t-138.5 141q-57 -75 -136.5 -141t-182.5 -115t-229 -77t-275 -28z" />
    <glyph glyph-name="iotadieresis" unicode="&#x3ca;" horiz-adv-x="1729" 
d="M1110 -53q-200 0 -339 44t-227 127.5t-127.5 204.5t-39.5 275v1503h643v-1417q0 -55 10 -100t42 -76.5t91.5 -48.5t159.5 -17q93 0 175 13.5t157 31.5v-450q-52 -20 -116.5 -36.5t-135.5 -28.5t-146 -18.5t-147 -6.5zM-118 2441v525h561v-525h-561zM951 2441v525h562
v-525h-562z" />
    <glyph glyph-name="upsilondieresis" unicode="&#x3cb;" horiz-adv-x="3088" 
d="M1561 -66q-152 0 -304.5 19.5t-293.5 68.5t-263 132t-212 210t-141.5 302.5t-51.5 410.5v1024h643v-942q0 -141 19.5 -250t57 -189.5t92 -135t123.5 -88t152.5 -48t178.5 -14.5q143 0 258 34t196 117t124.5 222.5t43.5 351.5q0 152 -19 288.5t-50 255t-70.5 218.5
t-81.5 180h655q45 -72 85.5 -164t72 -208t50 -257.5t18.5 -312.5q0 -184 -27 -346.5t-88 -298.5t-159 -243.5t-240.5 -182.5t-332.5 -114.5t-435 -39.5zM733 2441v525h561v-525h-561zM1802 2441v525h562v-525h-562z" />
    <glyph glyph-name="omicrontonos" unicode="&#x3cc;" horiz-adv-x="3252" 
d="M1626 -66q-227 0 -419.5 33.5t-348.5 99t-275 161t-199.5 220t-121.5 276.5t-41 329q0 169 41 317t121.5 272t199.5 221.5t275 165t348.5 103t419.5 35.5q228 0 421 -33.5t349.5 -99t275 -161t198.5 -220t120.5 -276t40.5 -328.5q0 -169 -41 -317.5t-121.5 -272
t-199.5 -221.5t-275 -165.5t-348.5 -103t-419.5 -35.5zM1626 406q168 0 305.5 44.5t235.5 127.5t151.5 202.5t53.5 268.5t-53.5 268.5t-151.5 203.5t-235.5 129.5t-305.5 45.5q-167 0 -304.5 -44.5t-235.5 -128t-151.5 -202.5t-53.5 -268t53.5 -269t151.5 -204t235.5 -129
t304.5 -45zM1237 3146h779l-267 -774h-245z" />
    <glyph glyph-name="upsilontonos" unicode="&#x3cd;" horiz-adv-x="3088" 
d="M1561 -66q-152 0 -304.5 19.5t-293.5 68.5t-263 132t-212 210t-141.5 302.5t-51.5 410.5v1024h643v-942q0 -141 19.5 -250t57 -189.5t92 -135t123.5 -88t152.5 -48t178.5 -14.5q143 0 258 34t196 117t124.5 222.5t43.5 351.5q0 152 -19 288.5t-50 255t-70.5 218.5
t-81.5 180h655q45 -72 85.5 -164t72 -208t50 -257.5t18.5 -312.5q0 -184 -27 -346.5t-88 -298.5t-159 -243.5t-240.5 -182.5t-332.5 -114.5t-435 -39.5zM1159 3146h779l-267 -774h-245z" />
    <glyph glyph-name="omegatonos" unicode="&#x3ce;" horiz-adv-x="4190" 
d="M1270 -66q-175 0 -319 32.5t-258 96t-198 158t-139.5 219.5t-82.5 279.5t-27 337.5q0 135 18 253t50.5 220t78 188.5t100.5 157.5t117.5 127t130.5 98h664q-122 -87 -215 -192.5t-156.5 -230.5t-96 -269.5t-32.5 -310.5q0 -144 20.5 -266t70 -210.5t131 -138t204.5 -49.5
t210 44.5t142.5 126.5t81 199t25.5 261v504h610v-504q0 -144 25.5 -261t81 -199t142.5 -126.5t210 -44.5t205 49.5t131 138t69.5 210.5t20.5 266q0 166 -32.5 310.5t-96 269.5t-157 230.5t-214.5 192.5h664q67 -42 130 -98t118 -127t100.5 -157.5t78 -188.5t50.5 -220
t18 -253q0 -183 -27 -337.5t-82.5 -279.5t-139.5 -219.5t-198 -158t-258 -96t-319 -32.5q-150 0 -276.5 28t-229 77t-183 115t-138.5 141q-57 -75 -136.5 -141t-182.5 -115t-229 -77t-275 -28zM1704 3146h779l-267 -774h-245z" />
    <glyph glyph-name="uni0400" unicode="&#x400;" horiz-adv-x="3236" 
d="M442 0v2966h2499v-484h-1839v-721h1577v-483h-1577v-795h1855v-483h-2515zM1520 3162l-696 648h770l409 -648h-483z" />
    <glyph glyph-name="uni0401" unicode="&#x401;" horiz-adv-x="3236" 
d="M442 0v2966h2499v-484h-1839v-721h1577v-483h-1577v-795h1855v-483h-2515zM889 3195v525h561v-525h-561zM1958 3195v525h562v-525h-562z" />
    <glyph glyph-name="uni0402" unicode="&#x402;" horiz-adv-x="4153" 
d="M131 2966h2515v-484h-930v-565h807q260 0 462.5 -32t354 -92t256 -146t169.5 -193t93.5 -234.5t28.5 -269.5q0 -137 -28.5 -261t-93.5 -229.5t-169.5 -190.5t-256 -145t-354 -92t-462.5 -32h-319v467h299q141 0 249 18t187 50.5t132 77.5t85 99.5t45.5 116.5t13.5 129
t-13.5 129.5t-45.5 117t-85 99.5t-132 77.5t-187 50.5t-249 18h-787v-1450h-659v2482h-926v484z" />
    <glyph glyph-name="uni0403" unicode="&#x403;" horiz-adv-x="2843" 
d="M442 2966h2270v-484h-1610v-2482h-660v2966zM1311 3162l409 648h770l-696 -648h-483z" />
    <glyph glyph-name="uni0404" unicode="&#x404;" horiz-adv-x="3494" 
d="M1946 -66q-294 0 -533 56t-426 157.5t-324 243t-226 314t-132 369.5t-43 409q0 208 45.5 403.5t137 367.5t230.5 315t326.5 245.5t423 159.5t521.5 57q173 0 329.5 -17.5t294.5 -47.5t257.5 -69.5t219.5 -82.5v-520q-95 41 -210 81.5t-247.5 72.5t-282.5 51.5t-316 19.5
q-240 0 -426.5 -58.5t-318.5 -163.5t-209.5 -250t-98.5 -318h1741v-484h-1741q13 -113 50 -215.5t99 -191.5t148.5 -161.5t199 -123.5t251.5 -79t305 -28q136 0 279 13.5t284 37.5t277.5 58t260.5 76v-504q-118 -48 -242.5 -84t-263 -60t-296.5 -36.5t-344 -12.5z" />
    <glyph glyph-name="uni0405" unicode="&#x405;" horiz-adv-x="3240" 
d="M262 635q98 -34 227 -69t277 -63.5t307.5 -46.5t319.5 -18q227 0 395 26.5t278.5 76.5t165 122t54.5 164q0 48 -19.5 88t-61.5 74.5t-107 64.5t-156 58t-208.5 55.5t-263.5 57.5q-196 39 -361.5 87.5t-298 109.5t-233 134.5t-168 161.5t-101.5 191.5t-34 224.5
q0 129 35.5 245.5t110 216.5t190 180t275.5 137t367 87.5t464 30.5q174 0 329 -14.5t290 -39.5t248 -58.5t202 -71.5v-504q-101 32 -221.5 64.5t-256 58t-284.5 41.5t-307 16q-200 0 -345 -24.5t-239.5 -71t-140 -113.5t-45.5 -151q0 -48 20.5 -88t64 -74.5t110 -64.5
t158.5 -58t210 -55.5t265 -57.5q197 -39 362 -86t297.5 -106t233 -131t168 -160.5t101.5 -195t34 -234.5q0 -131 -41.5 -250t-125.5 -221t-211.5 -184.5t-299.5 -141t-389.5 -90t-481.5 -31.5q-184 0 -354 16.5t-318.5 43.5t-272 61.5t-214.5 71.5v508z" />
    <glyph glyph-name="uni0406" unicode="&#x406;" horiz-adv-x="2257" 
d="M311 0v483h488v1999h-488v484h1635v-484h-488v-1999h488v-483h-1635z" />
    <glyph glyph-name="uni0407" unicode="&#x407;" horiz-adv-x="2257" 
d="M311 0v483h488v1999h-488v484h1635v-484h-488v-1999h488v-483h-1635zM311 3195v525h561v-525h-561zM1380 3195v525h562v-525h-562z" />
    <glyph glyph-name="uni0408" unicode="&#x408;" horiz-adv-x="1929" 
d="M41 -111q26 -5 58 -8.5t66.5 -6t71.5 -4t74 -1.5q161 0 262 37.5t157.5 114.5t76.5 195.5t20 279.5v1986h-569v484h1229v-2544q0 -288 -69 -492t-207.5 -330t-337.5 -182.5t-463 -56.5q-42 0 -96 3t-112.5 11t-95 16.5t-65.5 18.5v479z" />
    <glyph glyph-name="uni0409" unicode="&#x409;" horiz-adv-x="5632" 
d="M2617 2482h-1056l-13 -262q-15 -328 -44 -600t-72 -493t-101 -394.5t-131.5 -304.5t-164 -222.5t-198.5 -149t-234 -83.5t-271 -26q-42 0 -90 4t-96 12t-92.5 20t-78.5 29v463q56 -12 101.5 -18t95.5 -6q86 0 162 25.5t142 78.5t122.5 135t102.5 194.5t82 257t62 323
t42 392.5t22 465l17 644h2351v-1049h721q260 0 462.5 -27.5t354.5 -82t257 -135t170.5 -187t94.5 -238.5t29 -289q0 -151 -30.5 -281t-98 -236.5t-175.5 -188.5t-262.5 -138t-358.5 -85t-464 -29h-1360v2482zM3277 1450v-983h704q212 0 350 33.5t218.5 97t112.5 154.5
t32 206t-32 206.5t-112.5 155t-218.5 97t-350 33.5h-704z" />
    <glyph glyph-name="uni040A" unicode="&#x40a;" horiz-adv-x="5693" 
d="M442 2966h660v-1237h1577v1237h659v-1049h721q260 0 462.5 -27.5t354.5 -82t257 -135t170.5 -187t94.5 -238.5t29 -289q0 -151 -30.5 -281t-98 -236.5t-175.5 -188.5t-262 -138t-358 -85t-464 -29h-1360v1245h-1577v-1245h-660v2966zM3338 1450v-983h705
q212 0 349.5 33.5t218 97t112.5 154.5t32 206t-32 206.5t-112.5 155t-218 97t-349.5 33.5h-705z" />
    <glyph glyph-name="uni040B" unicode="&#x40b;" horiz-adv-x="4219" 
d="M131 2966h2515v-484h-930v-741q100 48 210 84.5t221 61t219.5 37.5t205.5 13q164 0 321 -18.5t296.5 -64.5t257.5 -123t203 -193.5t132.5 -276.5t47.5 -372v-889h-660v807q0 166 -45 282.5t-136 190t-230 107.5t-326 34q-94 0 -188 -10t-185.5 -28.5t-178.5 -44
t-165 -56.5v-1282h-659v2482h-926v484z" />
    <glyph glyph-name="uni040C" unicode="&#x40c;" horiz-adv-x="3600" 
d="M442 2966h660v-1225h262q75 0 131.5 3.5t100.5 12t78.5 23.5t65.5 38.5t61.5 57t66.5 78.5l819 1012h766l-905 -1119q-43 -52 -90.5 -102.5t-100.5 -95t-112.5 -81t-126.5 -61.5q75 -21 141.5 -58t125 -84t110.5 -101t98 -109l934 -1155h-824l-848 1049
q-36 45 -66.5 78.5t-61 57t-65.5 38.5t-78.5 23.5t-100 12t-131.5 3.5h-250v-1262h-660v2966zM1586 3162l409 648h770l-696 -648h-483z" />
    <glyph glyph-name="uni040D" unicode="&#x40d;" horiz-adv-x="4026" 
d="M442 2966h643v-1852v-74.5v-89.5v-89.5v-74.5q26 32 56 70t60 76.5t58.5 75t51.5 65.5l1503 1893h770v-2966h-643v1847v74.5v89.5v89.5v74.5q-26 -32 -56.5 -70.5t-61.5 -77.5t-59.5 -75t-51.5 -64l-1500 -1888h-770v2966zM1827 3162l-696 648h770l409 -648h-483z" />
    <glyph glyph-name="uni040E" unicode="&#x40e;" horiz-adv-x="3412" 
d="M1004 -53q-60 0 -123.5 8t-120 19.5t-101 24t-65.5 21.5v484q14 -8 49.5 -17t80.5 -17t93 -13.5t88 -5.5q114 0 205.5 26t166 76.5t133 123.5t106.5 167v0l-1389 2122h733l1003 -1606v0v0v0l5 -8l5 9v0v0v0l888 1605h696l-1270 -2208q-132 -229 -261.5 -384.5t-270 -250
t-300 -135.5t-351.5 -41zM2642 3810q-8 -140 -57 -263t-142 -215t-232.5 -145t-326.5 -53t-326 53t-232 145t-142.5 215t-56.5 263h397q17 -51 46.5 -96t74 -78t103.5 -52.5t136 -19.5t136.5 19.5t104 52.5t74 78t46.5 96h397z" />
    <glyph glyph-name="uni040F" unicode="&#x40f;" horiz-adv-x="3781" 
d="M442 2966h660v-2483h1577v2483h659v-2966h-1159v-729h-582v729h-1155v2966z" />
    <glyph glyph-name="uni0410" unicode="&#x410;" horiz-adv-x="3817" 
d="M3068 0l-320 614h-1691l-316 -614h-733l1557 2966h688l1556 -2966h-741zM2138 1864q-59 117 -117 231t-116 232l-117 -234t-117 -233l-368 -734h1204z" />
    <glyph glyph-name="uni0411" unicode="&#x411;" horiz-adv-x="3469" 
d="M442 2966h2552v-484h-1896v-729h880q237 0 422.5 -26t325.5 -77.5t238 -126.5t159.5 -173t89 -218t27.5 -260q0 -126 -27.5 -239.5t-89 -210.5t-159.5 -175t-238 -133t-325.5 -84.5t-422.5 -29.5h-1536v2966zM1098 1286v-819h872q164 0 278 27t185 78.5t103 127t32 172.5
t-32 173.5t-103 130t-185 82t-278 28.5h-872z" />
    <glyph glyph-name="uni0412" unicode="&#x412;" horiz-adv-x="3510" 
d="M442 0v2966h1430q321 0 545.5 -54t365.5 -158.5t205 -258t64 -353.5q0 -114 -28 -205t-81 -164t-130 -128t-175 -97q141 -46 253 -112t189.5 -153t118.5 -194.5t41 -236.5q0 -122 -27.5 -232.5t-89 -205t-159.5 -171t-238 -130.5t-325.5 -83.5t-422.5 -29.5h-1536z
M1970 467q164 0 278 27t185 78.5t103 127t32 172.5t-32 173.5t-103 130t-185 82t-278 28.5h-872v-819h872zM1815 1737q142 0 248.5 27t176.5 77.5t105 121.5t35 159q0 87 -35 157t-105 119t-176.5 75t-248.5 26h-717v-762h717z" />
    <glyph glyph-name="uni0413" unicode="&#x413;" horiz-adv-x="2843" 
d="M442 2966h2270v-484h-1610v-2482h-660v2966z" />
    <glyph glyph-name="uni0414" unicode="&#x414;" horiz-adv-x="3867" 
d="M20 483h115q98 0 180.5 25t151 85.5t123.5 161.5t98 253q40 141 70 331t50 432.5t30 540t10 654.5h2503v-2483h475v-1212h-582v729h-2642v-729h-582v1212zM1470 2482q-2 -287 -14 -527.5t-34.5 -438t-55.5 -353.5t-76 -274q-27 -78 -59.5 -140.5t-68.5 -111.5t-75.5 -87
t-82.5 -67h1687v1999h-1221z" />
    <glyph glyph-name="uni0415" unicode="&#x415;" horiz-adv-x="3236" 
d="M442 0v2966h2499v-484h-1839v-721h1577v-483h-1577v-795h1855v-483h-2515z" />
    <glyph glyph-name="uni0416" unicode="&#x416;" horiz-adv-x="5394" 
d="M2367 1262h-126q-112 0 -185.5 -7.5t-126.5 -30t-96.5 -64.5t-95.5 -111l-807 -1049h-824l893 1155q43 57 94 111t109.5 100.5t125.5 83t142 57.5q-68 25 -127.5 61.5t-112.5 81t-99.5 95t-86.5 102.5l-864 1119h766l778 -1012q35 -46 65 -80t61.5 -57.5t66 -38.5t79 -23
t101 -11t131.5 -3h139v1225h660v-1225h139q112 0 185.5 7.5t126.5 30t96.5 64.5t95.5 111l778 1012h766l-864 -1119q-42 -52 -89 -102.5t-100 -95t-113.5 -81t-127.5 -61.5q77 -21 144 -57.5t125.5 -83t109.5 -100.5t96 -111l893 -1155h-823l-807 1049q-35 46 -65 79.5
t-61.5 57.5t-66 38.5t-79 23t-101 11.5t-131.5 3h-127v-1262h-660v1262z" />
    <glyph glyph-name="uni0417" unicode="&#x417;" horiz-adv-x="3080" 
d="M1364 -66q-186 0 -344.5 15t-292.5 40.5t-245 59t-203 70.5v491q98 -34 215.5 -66t250 -57.5t279 -41t303.5 -15.5q139 0 252 16t201 45t151.5 69t105 89t61.5 104.5t20 114.5q0 86 -46 162t-145 133t-253.5 90t-370.5 33h-373v447h348q216 0 363 27t236.5 77t128 120.5
t38.5 156.5q0 59 -15.5 113.5t-50 101t-90 84.5t-136.5 65.5t-189.5 42t-247.5 14.5q-157 0 -292.5 -15.5t-255.5 -41t-226.5 -57.5t-204.5 -66v492q92 37 192.5 70t221.5 58.5t268.5 40.5t333.5 15q243 0 439.5 -31.5t350.5 -89.5t266 -139t185 -180t108 -212.5t35 -236.5
q0 -104 -26.5 -196.5t-82.5 -172t-145 -145.5t-213 -117q140 -55 242 -126.5t168.5 -157t98.5 -183t32 -204.5q0 -123 -39.5 -238t-119.5 -215.5t-200 -184t-280.5 -143t-362 -92.5t-444.5 -33z" />
    <glyph glyph-name="uni0418" unicode="&#x418;" horiz-adv-x="4026" 
d="M442 2966h643v-1852v-74.5v-89.5v-89.5v-74.5q26 32 56 70t60 76.5t58.5 75t51.5 65.5l1503 1893h770v-2966h-643v1847v74.5v89.5v89.5v74.5q-26 -32 -56.5 -70.5t-61.5 -77.5t-59.5 -75t-51.5 -64l-1500 -1888h-770v2966z" />
    <glyph glyph-name="uni0419" unicode="&#x419;" horiz-adv-x="4026" 
d="M442 2966h643v-1852v-74.5v-89.5v-89.5v-74.5q26 32 56 70t60 76.5t58.5 75t51.5 65.5l1503 1893h770v-2966h-643v1847v74.5v89.5v89.5v74.5q-26 -32 -56.5 -70.5t-61.5 -77.5t-59.5 -75t-51.5 -64l-1500 -1888h-770v2966zM2769 3810q-8 -140 -57 -263t-142 -215
t-232.5 -145t-326.5 -53t-326 53t-232 145t-142.5 215t-56.5 263h397q17 -51 46.5 -96t74 -78t103.5 -52.5t136 -19.5t136.5 19.5t104 52.5t74 78t46.5 96h397z" />
    <glyph glyph-name="uni041A" unicode="&#x41a;" horiz-adv-x="3600" 
d="M442 2966h660v-1225h262q75 0 131.5 3.5t100.5 12t78.5 23.5t65.5 38.5t61.5 57t66.5 78.5l819 1012h766l-905 -1119q-43 -52 -90.5 -102.5t-100.5 -95t-112.5 -81t-126.5 -61.5q75 -21 141.5 -58t125 -84t110.5 -101t98 -109l934 -1155h-824l-848 1049
q-36 45 -66.5 78.5t-61 57t-65.5 38.5t-78.5 23.5t-100 12t-131.5 3.5h-250v-1262h-660v2966z" />
    <glyph glyph-name="uni041B" unicode="&#x41b;" horiz-adv-x="3801" 
d="M2699 0v2482h-1138l-13 -262q-15 -328 -44 -600t-72 -493t-101 -394.5t-131.5 -304.5t-164 -222.5t-198.5 -149t-234 -83.5t-271 -26q-42 0 -90 4t-96 12t-92.5 20t-78.5 29v463q56 -12 101.5 -18t95.5 -6q86 0 162 25.5t142 78.5t122.5 135t102.5 194.5t82 257t62 323
t42 392.5t22 465l17 644h2433v-2966h-660z" />
    <glyph glyph-name="uni041C" unicode="&#x41c;" horiz-adv-x="4809" 
d="M3727 0v1565v262v262q-96 -136 -190.5 -272.5t-190.5 -272.5l-712 -1012h-463l-713 1016q-48 68 -95 135.5t-93.5 135t-93.5 135t-95 135.5v-258v-258v-1573h-639v2966h729l955 -1364q74 -109 149.5 -213.5t149.5 -212.5q77 108 151.5 216.5t151.5 217.5l950 1356h688
v-2966h-639z" />
    <glyph glyph-name="uni041D" unicode="&#x41d;" horiz-adv-x="3944" 
d="M2843 0v1245h-1741v-1245h-660v2966h660v-1237h1741v1237h659v-2966h-659z" />
    <glyph glyph-name="uni041E" unicode="&#x41e;" horiz-adv-x="3899" 
d="M1950 -66q-294 0 -533.5 56t-427 157.5t-324.5 243t-226.5 314t-133 369.5t-43.5 409q0 208 45.5 403.5t138 367.5t232 315t327 245.5t423.5 159.5t522 57q294 0 533 -56t426.5 -157t324.5 -243t226.5 -314t133 -369t43.5 -409q0 -208 -45.5 -403.5t-138 -367.5
t-232 -315.5t-327 -246t-423.5 -159.5t-521 -57zM1950 455q181 0 326 37.5t257 105.5t192.5 162.5t132 208.5t75.5 244.5t24 269.5t-24 269.5t-75.5 244.5t-132 208.5t-192.5 162.5t-257 105.5t-326 37.5t-326.5 -37.5t-257.5 -105.5t-192 -162.5t-131.5 -208.5t-76 -244.5
t-24.5 -269.5t24.5 -269.5t76 -244.5t131.5 -208.5t192 -162.5t257.5 -105.5t326.5 -37.5z" />
    <glyph glyph-name="uni041F" unicode="&#x41f;" horiz-adv-x="3863" 
d="M2761 2482h-1659v-2482h-660v2966h2978v-2966h-659v2482z" />
    <glyph glyph-name="uni0420" unicode="&#x420;" horiz-adv-x="3346" 
d="M442 0v2966h1315q225 0 415.5 -26t344 -79t270.5 -133t196 -188t119 -244t40 -301q0 -161 -40.5 -296t-121 -243.5t-201 -191t-281 -137.5t-361.5 -83t-441 -28h-594v-1016h-660zM1655 1499q224 0 377.5 29.5t248 91t136 154.5t41.5 221q0 124 -41.5 216t-132.5 152
t-236 89.5t-352 29.5h-594v-983h553z" />
    <glyph glyph-name="uni0421" unicode="&#x421;" horiz-adv-x="3330" 
d="M3092 127q-117 -47 -234 -81.5t-251.5 -59t-295.5 -38.5t-365 -14q-294 0 -533 56t-426 157.5t-324 243t-226 314t-132 369.5t-43 409q0 208 45.5 403.5t137 367.5t230.5 315t326.5 245.5t423 159.5t521.5 57q173 0 329.5 -17.5t294.5 -47.5t257.5 -69.5t219.5 -82.5
v-520q-95 41 -210 81.5t-247.5 72.5t-282.5 51.5t-316 19.5q-181 0 -329.5 -36t-265.5 -101.5t-203.5 -159t-143 -208.5t-84 -249.5t-27.5 -281.5q0 -139 25.5 -270t80 -246.5t138.5 -211t201 -164.5t268 -107t340 -38q136 0 279 13.5t284 37.5t277.5 58t260.5 76v-504z" />
    <glyph glyph-name="uni0422" unicode="&#x422;" horiz-adv-x="3105" 
d="M1221 0v2482h-1090v484h2843v-484h-1094v-2482h-659z" />
    <glyph glyph-name="uni0423" unicode="&#x423;" horiz-adv-x="3412" 
d="M1004 -53q-60 0 -123.5 8t-120 19.5t-101 24t-65.5 21.5v484q14 -8 49.5 -17t80.5 -17t93 -13.5t88 -5.5q114 0 205.5 26t166 76.5t133 123.5t106.5 167v0l-1389 2122h733l1003 -1606v0v0v0l5 -8l5 9v0v0v0l888 1605h696l-1270 -2208q-132 -229 -261.5 -384.5t-270 -250
t-300 -135.5t-351.5 -41z" />
    <glyph glyph-name="uni0424" unicode="&#x424;" horiz-adv-x="4465" 
d="M1925 262q-244 4 -466.5 41t-414 107t-347 173.5t-266 240.5t-170.5 307.5t-60 375.5q0 204 60 372.5t170.5 303t266 235t347 168t414 103t466.5 39.5v238h619v-238q242 -5 464 -41t413 -104t346.5 -168t266 -234t170.5 -302t60 -372t-60 -374t-170.5 -307t-266 -240.5
t-346.5 -174t-413 -108t-464 -41.5v-262h-619v262zM864 1507q0 -128 33.5 -232.5t97 -187t156 -143.5t210 -102.5t259.5 -64t305 -27.5v1503q-163 -5 -305 -27t-259.5 -62.5t-210 -100.5t-156 -141.5t-97 -184.5t-33.5 -230zM3600 1507q0 127 -33.5 230t-96.5 184.5
t-155 141.5t-209.5 100.5t-258.5 62.5t-303 27v-1503q162 6 303 29t258.5 64.5t209.5 102t155 143t96.5 186.5t33.5 232z" />
    <glyph glyph-name="uni0425" unicode="&#x425;" horiz-adv-x="3473" 
d="M2613 0l-748 930q-19 23 -37 45.5l-36 45t-36 44.5t-36 45q-18 -23 -37 -46t-37.5 -46l-37 -46t-37.5 -47l-748 -925h-782l1298 1536l-1204 1430h819l638 -799q18 -22 35.5 -44t35.5 -44.5t35.5 -44.5t34.5 -43q17 21 34.5 43t35.5 44.5t36 44.5t35 44l641 799h782
l-1183 -1410l1318 -1556h-819z" />
    <glyph glyph-name="uni0426" unicode="&#x426;" horiz-adv-x="3854" 
d="M442 2966h660v-2483h1577v2483h659v-2483h475v-1212h-581v729h-2790v2966z" />
    <glyph glyph-name="uni0427" unicode="&#x427;" horiz-adv-x="3527" 
d="M2425 995q-86 -27 -186.5 -51t-210 -42t-225.5 -28t-234 -10q-164 0 -321 19t-296.5 64.5t-257.5 123t-203 194t-132.5 276.5t-47.5 372v1053h660v-971q0 -166 45 -283t136 -190.5t229.5 -107.5t326.5 -34q95 0 190 6t186.5 16.5t177.5 26t163 33.5v1504h659v-2966h-659
v995z" />
    <glyph glyph-name="uni0428" unicode="&#x428;" horiz-adv-x="5607" 
d="M442 2966h660v-2483h1372v2483h659v-2483h1373v2483h659v-2966h-4723v2966z" />
    <glyph glyph-name="uni0429" unicode="&#x429;" horiz-adv-x="5681" 
d="M442 2966h660v-2483h1372v2483h659v-2483h1373v2483h659v-2483h475v-1212h-581v729h-4617v2966z" />
    <glyph glyph-name="uni042A" unicode="&#x42a;" horiz-adv-x="4305" 
d="M123 2966h1745v-1049h803q260 0 462.5 -27.5t354.5 -82t257 -135t170.5 -187t94.5 -238.5t29 -289q0 -151 -30.5 -281t-98.5 -236.5t-175.5 -188.5t-262 -138t-358.5 -85t-464 -29h-1442v2482h-1085v484zM1868 1450v-983h786q212 0 350 33.5t218.5 97t112.5 154.5t32 206
t-32 206.5t-112.5 155t-218.5 97t-350 33.5h-786z" />
    <glyph glyph-name="uni042B" unicode="&#x42b;" horiz-adv-x="4841" 
d="M442 2966h660v-1049h721q260 0 462.5 -27.5t354.5 -82t257 -135t170.5 -187t94.5 -238.5t29 -289q0 -151 -30.5 -281t-98 -236.5t-175.5 -188.5t-262.5 -138t-358.5 -85t-464 -29h-1360v2966zM3744 2966h655v-2966h-655v2966zM1102 1450v-983h704q212 0 350 33.5
t218.5 97t112.5 154.5t32 206t-32 206.5t-112.5 155t-218.5 97t-350 33.5h-704z" />
    <glyph glyph-name="uni042C" unicode="&#x42c;" horiz-adv-x="3539" 
d="M442 2966h660v-1049h803q260 0 462.5 -27.5t354.5 -82t257 -135t170.5 -187t94.5 -238.5t29 -289q0 -151 -30.5 -281t-98 -236.5t-175.5 -188.5t-262.5 -138t-358.5 -85t-464 -29h-1442v2966zM1102 1450v-983h786q212 0 350 33.5t218.5 97t112.5 154.5t32 206t-32 206.5
t-112.5 155t-218.5 97t-350 33.5h-786z" />
    <glyph glyph-name="uni042D" unicode="&#x42d;" horiz-adv-x="3494" 
d="M815 1729h1741q-23 173 -100.5 318t-209.5 250t-317.5 163.5t-425.5 58.5q-166 0 -316 -19.5t-283 -51.5t-248 -72.5t-210 -81.5v520q100 43 219.5 82.5t258 69.5t294.5 47.5t330 17.5q286 0 521.5 -57t423 -159.5t326.5 -245.5t230.5 -315t137 -367.5t45.5 -403.5
q0 -212 -43 -409t-132 -369.5t-226 -314t-324 -243t-426 -157.5t-533 -56q-186 0 -344 12.5t-297 36.5t-263.5 60t-242.5 84v504q124 -42 261 -76t278 -58t283.5 -37.5t279.5 -13.5q166 0 304.5 28t251 79t199 123.5t148 161.5t99 191.5t51.5 215.5h-1741v484z" />
    <glyph glyph-name="uni042E" unicode="&#x42e;" horiz-adv-x="5280" 
d="M442 2966h660v-1237h635q24 180 83 346.5t155.5 311t231 263.5t308.5 203.5t387.5 131t468.5 46.5q290 0 524.5 -56t417.5 -157t316 -243t219.5 -314t128 -369t41.5 -409q0 -208 -44 -403.5t-133 -367.5t-224.5 -315.5t-318.5 -246t-414.5 -159.5t-512.5 -57
q-263 0 -481 46t-392.5 130t-308 203t-227.5 264.5t-151 314.5t-78 353h-631v-1245h-660v2966zM3371 451q175 0 314.5 37t247 104t184.5 161t126 209t72 246.5t23 274.5q0 142 -23 274t-72 246.5t-126 209t-184.5 161.5t-247 104t-314.5 37q-176 0 -316.5 -37t-248.5 -104
t-185 -161.5t-126 -209t-72 -246.5t-23 -274t23 -274t72 -247t126 -209t185 -161t248.5 -104t316.5 -37z" />
    <glyph glyph-name="uni042F" unicode="&#x42f;" horiz-adv-x="3494" 
d="M2392 1135h-262q-75 0 -131.5 -3.5t-100.5 -12t-78.5 -23.5t-65.5 -38.5t-61.5 -57t-66.5 -78.5l-737 -922h-823l835 1028q62 74 125 128.5t137 88.5q-181 49 -321.5 126t-236.5 181t-145.5 235.5t-49.5 289.5q0 218 91 384t267.5 278.5t434.5 169.5t591 57h1258v-2966
h-660v1135zM1102 2068q0 -107 41.5 -191.5t132.5 -143t236 -89t352 -30.5h528v868h-528q-195 0 -338.5 -26t-237.5 -78t-140 -129.5t-46 -180.5z" />
    <glyph glyph-name="uni0430" unicode="&#x430;" horiz-adv-x="2949" 
d="M2044 0l-41 213q-78 -66 -174 -118t-207.5 -87.5t-239 -54.5t-268.5 -19q-213 0 -382.5 43t-287.5 126.5t-180.5 206t-62.5 280.5q0 131 45.5 232t130 176t204.5 126.5t269 83t324 45t370 13.5q80 0 156.5 -2t141.5 -5t128 -6v4q0 111 -42 190.5t-124.5 131t-205 76
t-283.5 24.5q-134 0 -256 -13t-233.5 -36t-212 -54.5t-191.5 -68.5v459q89 45 196 82t229 63.5t256 41t277 14.5q290 0 516.5 -48t382 -152t237 -268t81.5 -396v-1303h-553zM1970 889h-328q-209 0 -358 -14.5t-244 -47.5t-139.5 -85.5t-44.5 -127.5q0 -51 23 -97t72.5 -81
t127.5 -55.5t187 -20.5q118 0 218.5 14t187 39t160 59.5t138.5 76.5v340z" />
    <glyph glyph-name="uni0431" unicode="&#x431;" horiz-adv-x="3252" 
d="M1597 -66q-277 0 -487 55t-363 153.5t-254.5 235.5t-161.5 301t-85 349t-25 381q0 243 41 446.5t122 369t201 292.5t277.5 217.5t353 143.5t426.5 71l1094 82v-504l-999 -86q-122 -11 -228 -33t-195 -59t-161 -91.5t-126.5 -131t-91 -177t-54.5 -229.5q83 68 184 122.5
t218.5 93t252 59t283.5 20.5q181 0 341.5 -30.5t295 -89t241.5 -145.5t181 -199.5t113.5 -251t39.5 -300.5q0 -175 -45 -322t-131 -265.5t-210.5 -207.5t-284 -149t-351.5 -90.5t-412 -30.5zM1630 1532q-126 0 -234.5 -15t-202.5 -41t-175.5 -60t-153.5 -73v0v0
q9 -267 65.5 -447.5t154 -290.5t233.5 -157t305 -47q102 0 197.5 15t179 46.5t152 79.5t118 114.5t76.5 152t27 190.5q0 98 -22.5 176t-66 137.5t-107.5 101t-146.5 68t-182.5 38.5t-217 12z" />
    <glyph glyph-name="uni0432" unicode="&#x432;" horiz-adv-x="3056" 
d="M401 2101h1266q235 0 424.5 -32.5t322.5 -101.5t205 -177t72 -258q0 -92 -24 -165t-68.5 -129.5t-108 -98t-143.5 -70.5q114 -23 204 -62t153 -99t96.5 -143.5t33.5 -195.5q0 -150 -72 -258t-205 -177t-322.5 -101.5t-424.5 -32.5h-1409v2101zM1044 856v-430h676
q121 0 207.5 10.5t141.5 35.5t80.5 64.5t25.5 98.5q0 58 -25.5 100t-80.5 69t-141.5 39.5t-207.5 12.5h-676zM1044 1675v-430h533q121 0 207.5 12.5t141.5 39.5t80.5 69t25.5 100t-25.5 98t-80.5 65t-141.5 35.5t-207.5 10.5h-533z" />
    <glyph glyph-name="uni0433" unicode="&#x433;" horiz-adv-x="2413" 
d="M401 2101h1786v-459h-1143v-1642h-643v2101z" />
    <glyph glyph-name="uni0434" unicode="&#x434;" horiz-adv-x="3420" 
d="M20 459h152q110 0 192 40t141.5 124t98.5 215t64 313.5t39 418.5t22 531h2220v-1642h397v-1147h-581v688h-2163v-688h-582v1147zM1348 1642q-4 -298 -28.5 -505t-70.5 -342q-23 -71 -51.5 -125t-62 -94t-71 -68.5t-77.5 -48.5h1319v1183h-958z" />
    <glyph glyph-name="uni0435" unicode="&#x435;" horiz-adv-x="2986" 
d="M2609 135q-91 -45 -212 -81t-258.5 -61.5t-285.5 -39.5t-292 -14q-225 0 -412 38t-336 107.5t-260 168.5t-185 221.5t-110.5 265t-36.5 300.5q0 148 33.5 289.5t102.5 266.5t174 230t247.5 181t324.5 118t404 42q225 0 408.5 -38.5t327 -108.5t248 -168.5t173 -219
t101.5 -260t33 -291.5q0 -29 -1 -55.5t-2.5 -51.5t-4 -47t-5.5 -42h-1913q12 -106 61.5 -191t141.5 -144.5t230 -91.5t329 -32q138 0 274 12.5t261.5 35t237 53t202.5 67.5v-459zM2138 1282q-23 111 -77.5 192t-136 134t-187.5 78.5t-230 25.5t-229 -25.5t-185.5 -78.5
t-134.5 -134t-77 -192h1257z" />
    <glyph glyph-name="uni0436" unicode="&#x436;" horiz-adv-x="4428" 
d="M1892 844h-147q-66 0 -115 -7t-88 -24t-72.5 -45.5t-68.5 -71.5l-570 -696h-782l647 750q42 48 88.5 94.5t100.5 88t116 75.5t134 57q-60 18 -112 44t-96.5 58t-82.5 69t-70 79l-651 786h733l545 -671q35 -43 68.5 -71.5t72.5 -45.5t88 -24t115 -7h147v819h643v-819h148
q66 0 115 7t88 24t72.5 45.5t68.5 71.5l545 671h733l-651 -786q-34 -42 -72 -79t-82.5 -69t-95.5 -58t-111 -44q72 -23 134 -57t116 -75.5t100.5 -88t87.5 -94.5l648 -750h-783l-569 696q-35 43 -68.5 71.5t-72.5 45.5t-88 24t-115 7h-148v-844h-643v844z" />
    <glyph glyph-name="uni0437" unicode="&#x437;" horiz-adv-x="2773" 
d="M1327 -66q-161 0 -319.5 13t-303.5 37t-270.5 59t-220.5 80v463q111 -35 233.5 -66t254 -53.5t270.5 -35.5t282 -13q155 0 272 15.5t195 44t117 68.5t39 89q0 33 -11 59.5t-35.5 47.5t-63 36t-93 25t-126.5 15t-163 5h-659v455h598q137 0 229 11.5t147.5 35t79 58.5
t23.5 83q0 46 -29.5 85.5t-97 69t-177 46t-269.5 16.5q-134 0 -257.5 -9t-239.5 -27.5t-225.5 -46t-215.5 -64.5v463q65 29 139.5 52.5t155.5 42t169 32.5t181.5 23t191.5 13.5t199 4.5q286 0 500 -40t357 -118.5t214.5 -194t71.5 -266.5q0 -98 -26 -176t-76.5 -138.5
t-125.5 -104t-174 -72.5q115 -26 204 -68.5t149.5 -104t91.5 -143.5t31 -188q0 -100 -37 -185t-109 -153.5t-177 -121t-240 -88t-299.5 -53.5t-354.5 -18z" />
    </font>
</defs>
</svg>
