<?xml version="1.0" standalone="no"?>
<!DOCTYPE svg PUBLIC "-//W3C//DTD SVG 1.1//EN" "http://www.w3.org/Graphics/SVG/1.1/DTD/svg11.dtd" >
<svg xmlns="http://www.w3.org/2000/svg" xmlns:xlink="http://www.w3.org/1999/xlink" version="1.1">
<metadata>
Created by FontForge 20170731 at Mon Jun 28 23:14:30 2010
 By Aleksey,,,
Designed by Paul van der Laan &#38; Pieter van Rosmalen 2008. Produced by Bold Monday. For exclusive use by AUDI AG and its affiliates only.
</metadata>
<defs>
<font id="AudiType-ExtendedNormal" horiz-adv-x="3277" >
  <font-face 
    font-family="Audi Type Extended"
    font-weight="400"
    font-stretch="expanded"
    units-per-em="4096"
    panose-1="2 11 5 5 4 2 0 0 0 3"
    ascent="3113"
    descent="-983"
    x-height="2101"
    cap-height="2966"
    bbox="-1270 -983 9085 4014"
    underline-thickness="205"
    underline-position="-614"
    unicode-range="U+000D-FB04"
  />
<missing-glyph horiz-adv-x="1487" 
d="M340 -864v3830h815v-3830h-815z" />
    <glyph glyph-name="uniFB00" unicode="ff" horiz-adv-x="3932" 
d="M2605 0v1782h-1479v-1782h-405v1782h-602v319h602v140q0 180 54.5 323t169 243.5t291.5 154t423 53.5q97 0 180 -6.5t154 -18t130.5 -27.5t108.5 -34v-320q-55 18 -121 32.5t-138.5 24.5t-150 15.5t-155.5 5.5q-150 0 -253.5 -29t-167.5 -87.5t-92 -148t-28 -210.5v-111
h1479v140q0 180 54.5 323t169 243.5t291.5 154t423 53.5q97 0 180 -6.5t154 -18t130.5 -27.5t108.5 -34v-320q-55 18 -121 32.5t-138.5 24.5t-150 15.5t-155.5 5.5q-150 0 -253.5 -29t-167 -87.5t-91.5 -148t-28 -210.5v-111h884v-319h-884v-1782h-406z" />
    <glyph glyph-name="fi" unicode="fi" horiz-adv-x="3396" 
d="M2519 0v1782h-1393v-1782h-405v1782h-602v319h602v140q0 180 54.5 323t169 243.5t291.5 154t423 53.5q97 0 180 -6.5t154 -18t130.5 -27.5t108.5 -34v-320q-55 18 -121 32.5t-138.5 24.5t-150 15.5t-155.5 5.5q-150 0 -253.5 -29t-167.5 -87.5t-92 -148t-28 -210.5v-111
h1799v-2101h-406zM2519 2523v443h406v-443h-406z" />
    <glyph glyph-name="fl" unicode="fl" horiz-adv-x="3641" 
d="M721 0v1782h-602v319h602v140q0 180 54.5 323t169 243.5t291.5 154t423 53.5q97 0 180 -6.5t154 -18t130.5 -27.5t108.5 -34v-320q-55 18 -121 32.5t-138.5 24.5t-150 15.5t-155.5 5.5q-150 0 -253.5 -29t-167.5 -87.5t-92 -148t-28 -210.5v-111h885v-319h-885v-1782
h-405zM3551 16q-43 -12 -94.5 -23.5t-112 -21t-130.5 -15t-150 -5.5q-157 0 -265 35t-174.5 103t-96 169.5t-29.5 233.5v2474h405v-2425q0 -63 10.5 -110.5t39 -79.5t78.5 -48t130 -16q124 0 221 11t168 30v-312z" />
    <glyph glyph-name="uniFB03" unicode="ffi" horiz-adv-x="5280" 
d="M4403 0v1782h-1392v-1782h-406v1782h-1479v-1782h-405v1782h-602v319h602v140q0 180 54.5 323t169 243.5t291.5 154t423 53.5q97 0 180 -6.5t154 -18t130.5 -27.5t108.5 -34v-320q-55 18 -121 32.5t-138.5 24.5t-150 15.5t-155.5 5.5q-150 0 -253.5 -29t-167.5 -87.5
t-92 -148t-28 -210.5v-111h1479v140q0 180 54.5 323t169 243.5t291.5 154t423 53.5q97 0 180 -6.5t154 -18t130.5 -27.5t108.5 -34v-320q-55 18 -121 32.5t-138.5 24.5t-150 15.5t-155.5 5.5q-150 0 -253.5 -29t-167 -87.5t-91.5 -148t-28 -210.5v-111h1798v-2101h-406z
M4403 2523v443h406v-443h-406z" />
    <glyph glyph-name="uniFB04" unicode="ffl" horiz-adv-x="5526" 
d="M2605 0v1782h-1479v-1782h-405v1782h-602v319h602v140q0 180 54.5 323t169 243.5t291.5 154t423 53.5q97 0 180 -6.5t154 -18t130.5 -27.5t108.5 -34v-320q-55 18 -121 32.5t-138.5 24.5t-150 15.5t-155.5 5.5q-150 0 -253.5 -29t-167.5 -87.5t-92 -148t-28 -210.5v-111
h1479v140q0 180 54.5 323t169 243.5t291.5 154t423 53.5q97 0 180 -6.5t154 -18t130.5 -27.5t108.5 -34v-320q-55 18 -121 32.5t-138.5 24.5t-150 15.5t-155.5 5.5q-150 0 -253.5 -29t-167 -87.5t-91.5 -148t-28 -210.5v-111h884v-319h-884v-1782h-406zM5435 16
q-43 -12 -94.5 -23.5t-112 -21t-130.5 -15t-150 -5.5q-157 0 -265 35t-174.5 103t-96 169.5t-29.5 233.5v2474h405v-2425q0 -63 10.5 -110.5t39 -79.5t78.5 -48t130 -16q124 0 221 11t168 30v-312z" />
    <glyph glyph-name=".notdef" horiz-adv-x="1487" 
d="M340 -864v3830h815v-3830h-815z" />
    <glyph glyph-name=".null" horiz-adv-x="0" 
 />
    <glyph glyph-name=".null" horiz-adv-x="0" 
 />
    <glyph glyph-name="nonmarkingreturn" unicode="&#xd;" horiz-adv-x="1356" 
 />
    <glyph glyph-name="space" unicode=" " horiz-adv-x="1356" 
 />
    <glyph glyph-name="exclam" unicode="!" horiz-adv-x="1647" 
d="M721 815l-45 430q-5 48 -12.5 114.5t-15 144.5t-15 163t-14 170.5t-10 167.5t-3.5 154v807h438v-807q0 -72 -3.5 -154t-9.5 -167.5t-14 -170.5t-15.5 -163t-14.5 -144.5t-12 -114.5l-45 -430h-209zM573 0v500h500v-500h-500z" />
    <glyph glyph-name="quotedbl" unicode="&#x22;" horiz-adv-x="2089" 
d="M504 1925l-45 189q-6 30 -17.5 79t-22 104.5t-18.5 112.5t-8 105v451h418v-451q0 -48 -8 -105t-18.5 -112.5t-22 -104.5t-17.5 -79l-45 -189h-196zM1389 1925l-45 189q-6 30 -17.5 79t-22 104.5t-18.5 112.5t-8 105v451h418v-451q0 -48 -8 -105t-18.5 -112.5t-22 -104.5
t-17.5 -79l-45 -189h-196z" />
    <glyph glyph-name="numbersign" unicode="#" 
d="M1905 184l53 582h-778l-54 -582h-327l53 582h-385v295h414l73 807h-487v295h516l53 553h328l-53 -553h778l53 553h328l-53 -553h389v-295h-418l-74 -807h492v-295h-520l-54 -582h-327zM2060 1868h-778l-74 -807h779z" />
    <glyph glyph-name="dollar" unicode="$" 
d="M1430 -381v487q-158 3 -300.5 16.5t-266 33.5t-227.5 45t-185 53v315q53 -16 124 -33t154 -33t174.5 -30t186.5 -24.5t190.5 -16.5t185.5 -6q221 0 396 30.5t296.5 84.5t185.5 128.5t64 161.5q0 61 -20.5 113t-63 97t-108 84t-156 75t-206 70t-257.5 69
q-304 75 -515.5 155t-343.5 177.5t-191.5 220t-59.5 283.5q0 133 57.5 250t174.5 208.5t294 153t417 84.5v475h331v-458q141 -2 271 -13.5t245 -31.5t213 -47.5t176 -59.5v-319q-84 31 -189 58.5t-224.5 48t-252 32.5t-271.5 12q-203 0 -357 -28.5t-258 -80t-156.5 -123
t-52.5 -157.5q0 -62 19.5 -113.5t61.5 -96.5t106.5 -84t155 -75t207 -70t261.5 -69q289 -69 498.5 -147.5t345.5 -177.5t201 -224t65 -286q0 -135 -71 -256t-206.5 -217t-334 -160.5t-453.5 -87.5v-496h-331z" />
    <glyph glyph-name="percent" unicode="%" horiz-adv-x="5071" 
d="M1221 1479q-195 0 -350 54.5t-263 155t-165.5 241.5t-57.5 315q0 175 60.5 317.5t170 243t263.5 155t342 54.5q195 0 350 -54.5t262.5 -155t165 -243t57.5 -317.5q0 -116 -27 -217.5t-78.5 -186.5t-125 -152.5t-166.5 -114t-203 -71t-235 -24.5zM1221 1765
q118 0 207 32.5t148.5 94t89.5 150.5t30 203q0 115 -30 205t-89.5 151.5t-148.5 94t-207 32.5q-119 0 -208 -32.5t-148.5 -94t-89.5 -151.5t-30 -205q0 -114 30 -203t89.5 -150.5t148.5 -94t208 -32.5zM3850 -49q-195 0 -350 54.5t-262.5 155t-165 241.5t-57.5 315
q0 175 60.5 317.5t170 243t263.5 155t341 54.5q195 0 350 -54.5t263 -155t165.5 -243t57.5 -317.5q0 -174 -60.5 -315t-170 -241.5t-264 -155t-341.5 -54.5zM3850 238q118 0 207.5 32t148.5 93.5t89 150.5t30 203q0 115 -30 205t-89 151.5t-148.5 94t-207.5 32.5t-207 -32.5
t-148.5 -94t-89.5 -151.5t-30 -205q0 -114 30 -203t89.5 -150.5t148.5 -93.5t207 -32zM1016 0l2584 2966h451l-2585 -2966h-450z" />
    <glyph glyph-name="ampersand" unicode="&#x26;" horiz-adv-x="3977" 
d="M3207 0l-426 336q-129 -94 -274 -166t-301 -120.5t-320 -73.5t-330 -25q-203 0 -377.5 24t-318.5 71t-255.5 115.5t-187.5 157.5t-115.5 197t-39.5 234q0 108 32.5 202.5t90.5 176t138.5 152t176.5 132.5t204 115.5t222 101.5l9 4l-54 45q-95 75 -179.5 153.5
t-147.5 161.5t-99.5 173t-36.5 188q0 108 29 199.5t85 164.5t137.5 128.5t186.5 93t231.5 56t273.5 18.5q222 0 396.5 -40.5t295 -122t183.5 -205.5t63 -292q0 -131 -58.5 -242t-157.5 -205.5t-230 -173.5t-275 -145l-25 -12l1020 -799q83 94 147.5 203t109 231t68 255
t23.5 274v119h709v-320h-340q-17 -147 -55.5 -282t-95.5 -257.5t-130.5 -231.5t-161.5 -204l725 -565h-565zM1409 1417l-94 -41q-132 -60 -246.5 -123.5t-199 -137t-133 -159.5t-48.5 -190q0 -98 50.5 -185.5t156.5 -152.5t270 -103t391 -38q138 0 268.5 16.5t250.5 49.5
t228.5 82t203.5 114zM1593 1827q118 51 211 108.5t157.5 122t98 136t33.5 149.5q0 98 -44 165.5t-117.5 109t-170 59.5t-200.5 18q-105 0 -201 -18t-170 -59.5t-118 -109t-44 -165.5q0 -43 16.5 -92t52 -102t90.5 -110.5t132 -117.5l172 -139z" />
    <glyph glyph-name="quotesingle" unicode="'" horiz-adv-x="1204" 
d="M504 1925l-45 189q-6 30 -17.5 79t-22 104.5t-18.5 112.5t-8 105v451h418v-451q0 -48 -8 -105t-18.5 -112.5t-22 -104.5t-17.5 -79l-45 -189h-196z" />
    <glyph glyph-name="parenleft" unicode="(" horiz-adv-x="1847" 
d="M1323 -377q-121 82 -232.5 189.5t-208.5 236.5t-176.5 278.5t-136 315.5t-87.5 347t-31 374q0 192 31 373.5t87.5 347.5t136 315.5t176.5 278.5t208.5 236.5t232.5 189.5h385q-113 -91 -218.5 -202.5t-197.5 -241t-168.5 -276.5t-131.5 -310t-85 -341.5t-30 -369.5
q0 -192 30 -370.5t85 -342t131.5 -310t168.5 -276t197.5 -240.5t218.5 -202h-385z" />
    <glyph glyph-name="parenright" unicode=")" horiz-adv-x="1847" 
d="M139 -377q113 91 218.5 202t198 240.5t169 276t131 310t85 341.5t30.5 371q0 191 -30.5 369.5t-85 341.5t-131 310t-169 276.5t-198 241t-218.5 202.5h385q121 -82 232.5 -189.5t208.5 -236.5t177 -278.5t136.5 -315.5t87.5 -347.5t31 -373.5t-31 -373.5t-87.5 -347.5
t-136.5 -315.5t-177 -278.5t-208.5 -236.5t-232.5 -189.5h-385z" />
    <glyph glyph-name="asterisk" unicode="*" horiz-adv-x="2212" 
d="M1348 1626l-140 242q-15 24 -29.5 54t-27.5 62.5t-24.5 65.5t-20.5 64q-11 -31 -23 -64t-25 -65.5t-27 -62.5t-27 -54l-140 -242l-241 135l139 246q28 50 72 106t88 103q-65 -12 -134.5 -22.5t-128.5 -10.5h-340v279h340q59 0 128.5 -10.5t134.5 -22.5q-44 46 -88 102.5
t-72 106.5l-139 246l241 135l140 -242q13 -24 27 -54t27 -62.5t25 -65.5t23 -64q9 31 20.5 64t24.5 65.5t27.5 62.5t29.5 54l140 242l241 -135l-139 -246q-15 -25 -34.5 -52t-41 -55t-43 -55t-41.5 -51q31 7 65 14t68 12t67 8t62 3h340v-279h-340q-29 0 -62 2t-67 6.5
t-68 10.5t-65 14q40 -50 84.5 -104.5t75.5 -104.5l139 -246z" />
    <glyph glyph-name="plus" unicode="+" horiz-adv-x="3039" 
d="M1339 160v909h-1077v320h1077v872h361v-872h1077v-320h-1077v-909h-361z" />
    <glyph glyph-name="comma" unicode="," horiz-adv-x="1450" 
d="M139 -594l375 599l-92 495h422q55 0 92.5 -11t60.5 -34.5t33 -60t10 -87.5q0 -54 -12.5 -109.5t-37 -112t-60 -116t-81.5 -122t-102 -128.5t-120 -137l-164 -176h-324z" />
    <glyph glyph-name="hyphen" unicode="-" horiz-adv-x="1958" 
d="M270 1036v385h1418v-385h-1418z" />
    <glyph glyph-name="period" unicode="." horiz-adv-x="1450" 
d="M475 0v500h500v-500h-500z" />
    <glyph glyph-name="slash" unicode="/" horiz-adv-x="2208" 
d="M66 0l1687 2966h389l-1683 -2966h-393z" />
    <glyph glyph-name="zero" unicode="0" 
d="M1638 -49q-259 0 -461.5 53.5t-355.5 151.5t-259.5 237t-173 309.5t-96.5 369t-30 415.5q0 212 31.5 407.5t99.5 365.5t176 309t261 238t353.5 153.5t454.5 54.5q259 0 462 -53.5t356 -152t259.5 -237t173 -309.5t96.5 -369t30 -415q0 -212 -31.5 -407.5t-100 -365.5
t-176 -309t-260.5 -238t-354 -153.5t-455 -54.5zM1638 274q178 0 318 43t245.5 121t179.5 188.5t120 244.5t67 289t21 323q0 167 -21 321t-67 288.5t-120 244.5t-179.5 189t-245.5 122t-318 43t-317.5 -43t-245 -121t-179.5 -188t-120 -244.5t-67 -289t-21 -322.5
q0 -167 21 -321.5t67 -289t120 -244.5t179.5 -189t245 -122t317.5 -43z" />
    <glyph glyph-name="one" unicode="1" 
d="M696 0v344h799v2224l-790 -176v348l937 226h275v-2622h799v-344h-2020z" />
    <glyph glyph-name="two" unicode="2" 
d="M410 0v324l880 704q169 135 309 247.5t251 209.5t193.5 183t137.5 169t82 166.5t27 175.5q0 114 -46 202t-136 149t-224 92.5t-311 31.5q-161 0 -302.5 -13.5t-268.5 -37.5t-243 -58t-227 -75v364q89 39 203 72t248 57t284.5 38t313.5 14q197 0 357.5 -26.5t287 -76.5
t219.5 -122t154 -164t91 -202.5t30 -236.5q0 -116 -31 -223t-93 -212.5t-156 -213t-220 -223.5t-285 -244.5t-350 -275.5l-586 -451h1934v-344h-2523z" />
    <glyph glyph-name="three" unicode="3" 
d="M467 471q101 -31 214.5 -59.5t241.5 -51t271.5 -36t304.5 -13.5q181 0 340 31t277.5 93t187 156t68.5 220q0 124 -58.5 226t-173.5 175t-285 112.5t-393 39.5h-356v340h356q177 0 318.5 30t241 91.5t153 156.5t53.5 226q0 78 -27.5 141.5t-76.5 114t-117 88t-150 62
t-175 36.5t-191 12q-114 0 -237.5 -9.5t-249 -30t-247.5 -52t-233 -76.5v349q65 27 136.5 50.5t149.5 43t160.5 34t168.5 24.5t174.5 15t177.5 5q267 0 483 -52.5t368 -154t234 -248.5t82 -336q0 -114 -33 -214.5t-95 -186.5t-151.5 -155t-203.5 -120q147 -48 263.5 -123
t197.5 -172t123.5 -213t42.5 -245q0 -125 -41 -236t-119 -205t-191.5 -168.5t-259 -126.5t-321.5 -80t-379 -28q-168 0 -313 12.5t-271.5 34t-235.5 51.5t-204 66v356z" />
    <glyph glyph-name="four" unicode="4" 
d="M2068 0v655h-1835l-4 336l1835 1975h426v-1967h594v-344h-594v-655h-422zM2068 1962v239.5v239.5q-83 -90 -167.5 -180t-167.5 -180l-1004 -1082h1339v963z" />
    <glyph glyph-name="five" unicode="5" 
d="M446 471q102 -31 220 -59.5t249 -51t273 -36t291 -13.5q247 0 423 38t288.5 108t165 167t52.5 216q0 103 -55 184t-149.5 144t-222 109t-272.5 78.5t-300 53.5t-305.5 33t-289 17t-249.5 7l74 1500h2064v-345h-1683l-41 -811q165 -8 333.5 -24.5t331.5 -43.5t316 -66
t287.5 -93t246 -124.5t192 -160.5t125 -201t44.5 -245q0 -129 -35.5 -246t-108.5 -217t-185.5 -181t-266.5 -138t-350.5 -88t-438.5 -31q-155 0 -298.5 11.5t-273 32.5t-243.5 50.5t-209 65.5v360z" />
    <glyph glyph-name="six" unicode="6" 
d="M2773 2552q-83 21 -167.5 40t-177 32.5t-196.5 21.5t-225 8q-286 0 -508 -61t-379 -189.5t-248 -326.5t-114 -471q90 72 198.5 129t231.5 96.5t260 60.5t285 21q199 0 367.5 -31.5t306 -90.5t242.5 -145t176.5 -195.5t108 -240.5t36.5 -280q0 -126 -34 -247.5
t-103 -230.5t-174 -200.5t-247.5 -158.5t-323 -104.5t-400.5 -37.5q-330 0 -585.5 88t-429.5 263t-264 437t-90 609q0 404 107 715t317.5 522.5t523 320.5t724.5 109q135 0 247 -7.5t206.5 -20.5t175.5 -31t153 -40v-364zM745 1290q6 -198 42.5 -350.5t98 -264.5t146.5 -188
t187.5 -122t221 -66t247.5 -20q198 0 356 42.5t268 125t169 204t59 279.5q0 161 -56 280.5t-164.5 198t-267.5 117.5t-364 39q-140 0 -268.5 -19t-246 -54t-224.5 -86.5t-204 -115.5z" />
    <glyph glyph-name="seven" unicode="7" 
d="M741 0l1684 2621h-1999v345h2474v-324l-1696 -2642h-463z" />
    <glyph glyph-name="eight" unicode="8" 
d="M2417 1540q69 -29 141 -66.5t139 -85t125.5 -106t102 -129t69 -154t25.5 -180.5q0 -119 -35 -229.5t-108 -207t-185 -176t-265.5 -136t-349.5 -88t-438 -31.5q-251 0 -450.5 31.5t-353 88t-262.5 136t-179 176t-102.5 207t-32.5 229.5q0 97 25.5 180.5t69 154t102 129
t125.5 106t138.5 85t141.5 66.5q-111 49 -196.5 115.5t-144 148.5t-88.5 179t-30 208q0 189 87 341.5t248 259.5t389.5 165t512.5 58q298 0 528.5 -58t388 -165t239 -259.5t81.5 -341.5q0 -111 -31 -208t-89.5 -179t-143.5 -148.5t-194 -115.5zM2593 827q0 114 -60 214.5
t-179.5 175.5t-298.5 119t-417 44t-416.5 -44t-298 -119t-179.5 -175.5t-60 -214.5q0 -126 60 -226.5t179.5 -171t298 -108.5t416.5 -38t417 38t298.5 108.5t179.5 171t60 226.5zM2449 2191q0 129 -57.5 222.5t-163.5 154.5t-256 90t-334 29t-334 -29t-256 -90
t-163.5 -154.5t-57.5 -222.5t57.5 -223.5t163.5 -157t256 -92.5t334 -30t334 30t256 92.5t163.5 157t57.5 223.5z" />
    <glyph glyph-name="nine" unicode="9" 
d="M528 414q83 -22 168 -40.5t177.5 -32.5t196 -22t224.5 -8q294 0 517 64.5t376 200.5t237 346.5t99 502.5q-91 -72 -199 -130t-232 -99.5t-261.5 -63.5t-286.5 -22q-298 0 -528.5 65.5t-388 189t-239 301.5t-81.5 402q0 126 36 245t107 224.5t178.5 193t249.5 151
t320 98.5t391 35q330 0 585 -88t429 -263t264 -437t90 -609q0 -404 -103 -715t-308.5 -522.5t-514.5 -320.5t-720 -109q-135 0 -247.5 7.5t-207 20.5t-175.5 31t-153 39v365zM2527 1737q-10 185 -49 327.5t-101.5 248t-146.5 177.5t-185 115.5t-216 62.5t-240 19
q-187 0 -343.5 -37.5t-269.5 -114t-176 -193t-63 -274.5q0 -161 56 -276.5t164 -189.5t267 -109t365 -35q138 0 266 19.5t245 55.5t223.5 87.5t203.5 116.5z" />
    <glyph glyph-name="colon" unicode=":" horiz-adv-x="1450" 
d="M475 1602v500h500v-500h-500zM475 0v500h500v-500h-500z" />
    <glyph glyph-name="semicolon" unicode=";" horiz-adv-x="1450" 
d="M475 1602v500h500v-500h-500zM139 -594l375 599l-92 495h422q55 0 92.5 -11t60.5 -34.5t33 -60t10 -87.5q0 -54 -12.5 -109.5t-37 -112t-60 -116t-81.5 -122t-102 -128.5t-120 -137l-164 -176h-324z" />
    <glyph glyph-name="less" unicode="&#x3c;" horiz-adv-x="3039" 
d="M1991 160l-1532 1069l1532 1032h589l-1531 -1032l1531 -1069h-589z" />
    <glyph glyph-name="equal" unicode="=" horiz-adv-x="3039" 
d="M369 659v320h2302v-320h-2302zM369 1479v319h2302v-319h-2302z" />
    <glyph glyph-name="greater" unicode="&#x3e;" horiz-adv-x="3039" 
d="M1049 160h-590l1532 1069l-1532 1032h590l1531 -1032z" />
    <glyph glyph-name="question" unicode="?" horiz-adv-x="2322" 
d="M705 811l-37 549l540 311q126 72 220.5 141.5t157.5 141t94.5 146t31.5 157.5q0 89 -45.5 162t-132 125.5t-211.5 81t-283 28.5q-76 0 -155 -5t-160 -14.5t-163 -24t-162 -34t-158 -44t-152 -54.5v356q97 42 207.5 75.5t231 57t249 36t262.5 12.5q156 0 298 -21
t264.5 -62t222 -103.5t170 -144.5t109 -185t38.5 -226q0 -96 -25.5 -183.5t-71.5 -166t-109 -149.5t-139 -134.5t-161 -120t-174 -106.5l-438 -250l-25 -352h-294zM618 0v500h500v-500h-500z" />
    <glyph glyph-name="at" unicode="@" horiz-adv-x="4977" 
d="M3523 -733q-61 -20 -138 -37t-164.5 -31.5t-181.5 -26t-188 -19.5t-185 -12.5t-172 -4.5q-387 0 -700.5 57t-557.5 165.5t-422 265t-293 355.5t-170.5 437t-55.5 510q0 280 68.5 544t203.5 496t335.5 425t463.5 331.5t587.5 215.5t708.5 77q367 0 659.5 -58.5t518 -163
t386.5 -250.5t264 -320.5t151.5 -372.5t48.5 -408q0 -198 -34.5 -373.5t-101.5 -324t-164.5 -267t-224.5 -201t-281 -126.5t-333 -44q-120 0 -210.5 23.5t-156.5 63t-109.5 90.5t-68.5 106q-68 -65 -153 -118.5t-186.5 -91.5t-217.5 -59.5t-245 -21.5q-206 0 -373 62
t-285.5 171t-183 256.5t-64.5 317.5q0 181 44.5 339t127.5 289t201.5 233.5t266 173.5t321 108t367.5 37q112 0 219 -13t202.5 -35.5t176.5 -53.5t143 -66l61 119h303l-356 -1225q-15 -56 -28 -112.5t-13 -108.5q0 -40 16.5 -77.5t51.5 -67t89.5 -47t129.5 -17.5
q90 0 175.5 33t161 96t138.5 154t108.5 207.5t71 257t25.5 301.5q0 187 -39.5 354.5t-123 309.5t-214.5 255.5t-313 193t-418 122t-531 42.5q-327 0 -599.5 -62.5t-491 -177t-382.5 -276t-273.5 -359.5t-164.5 -427t-55 -479q0 -240 50 -443t150.5 -367.5t251.5 -290.5
t353.5 -210.5t457 -128t560.5 -43.5q149 0 291.5 9t271.5 26t241 41t200 55v-307zM3260 1679q-58 28 -127.5 49.5t-145 36t-155 22t-157.5 7.5q-135 0 -260 -23t-233.5 -70t-197 -117.5t-152 -164.5t-98 -212.5t-34.5 -260.5q0 -140 44 -245.5t125.5 -176.5t198.5 -107
t263 -36q81 0 162.5 14t160 40.5t152 64.5t139.5 86z" />
    <glyph glyph-name="A" unicode="A" horiz-adv-x="3494" 
d="M3002 0l-367 731l-1 2h-1786l-1 -2l-364 -731h-463l1483 2966h488l1482 -2966h-471zM1917 2220q-43 87 -88 179t-88 181q-44 -89 -88.5 -179.5t-87.5 -180.5l-565 -1141l-1 -2h1483l-1 2z" />
    <glyph glyph-name="B" unicode="B" horiz-adv-x="3326" 
d="M492 0v2966h1118q312 0 548.5 -53.5t395.5 -158t240 -259t81 -357.5q0 -128 -33 -227.5t-94.5 -176t-150.5 -131.5t-201 -92q149 -38 265.5 -97.5t197 -143t122.5 -193.5t42 -250q0 -135 -36 -249t-107.5 -205.5t-177.5 -161.5t-247 -116.5t-315.5 -70.5t-382.5 -24
h-1265zM1667 340q226 0 398 22.5t288.5 78t176 149.5t59.5 237t-59.5 237.5t-176 151t-288.5 80t-398 23.5h-754v-979h754zM1520 1647q226 0 398 23t288 79.5t175.5 151t59.5 237.5t-59.5 237t-175.5 150t-288 78.5t-398 22.5h-607v-979h607z" />
    <glyph glyph-name="C" unicode="C" horiz-adv-x="3146" 
d="M2900 98q-77 -31 -176 -57.5t-219.5 -46.5t-262.5 -31.5t-305 -11.5q-235 0 -448 43t-395 128.5t-329 213.5t-250.5 298t-159.5 382.5t-56 466.5q0 240 56 447.5t158 377.5t247 302t323 222t384.5 136.5t433.5 46.5q121 0 245.5 -9.5t245 -29t233 -49.5t209.5 -72v-365
q-110 45 -223 76t-224 50.5t-219.5 28.5t-209.5 9q-185 0 -348 -32t-300 -97t-244.5 -162t-182.5 -227t-114.5 -293.5t-39.5 -359.5q0 -219 48.5 -391.5t134 -303t201.5 -222t251.5 -149.5t283.5 -84t298 -26q178 0 326 14t266.5 35t208.5 46.5t153 48.5v-353z" />
    <glyph glyph-name="D" unicode="D" horiz-adv-x="3592" 
d="M492 0v2966h1179q260 0 481.5 -47t401.5 -136.5t318 -219t231.5 -294t141.5 -362.5t48 -424q0 -218 -49.5 -413t-145 -359.5t-235.5 -296t-320 -224t-399 -141.5t-473 -49h-1179zM1700 344q195 0 356.5 38.5t291 109.5t226 172.5t161 228t96.5 275.5t32 315t-32 314.5
t-96.5 275t-161 228t-226 172.5t-291.5 109.5t-356 38.5h-787v-2277h787z" />
    <glyph glyph-name="E" unicode="E" horiz-adv-x="3162" 
d="M492 0v2966h2359v-345h-1938v-925h1692v-344h-1692v-1008h1962v-344h-2383z" />
    <glyph glyph-name="F" unicode="F" horiz-adv-x="2925" 
d="M492 0v2966h2220v-345h-1799v-1015h1541v-344h-1541v-1262h-421z" />
    <glyph glyph-name="G" unicode="G" horiz-adv-x="3662" 
d="M2892 1430h418v-1291q-83 -30 -175.5 -55.5t-194.5 -46.5t-213 -37t-230.5 -27t-248.5 -16.5t-266 -5.5q-390 0 -701.5 100.5t-530 295.5t-335 480.5t-116.5 655.5q0 238 53 444.5t154 376.5t248.5 302.5t337 223.5t418.5 138t493 47q88 0 183 -4t191.5 -12.5
t191.5 -21.5t183.5 -31t167.5 -40.5t144 -50.5v-365q-111 45 -239.5 76t-260.5 50.5t-260.5 28.5t-239.5 9q-323 0 -571.5 -72.5t-418.5 -218.5t-257.5 -365.5t-87.5 -514.5q0 -213 43.5 -383t124.5 -300.5t197.5 -224t262.5 -153t319 -87.5t368 -28q155 0 288 11.5
t240.5 28.5t188 36.5t131.5 34.5v1012z" />
    <glyph glyph-name="H" unicode="H" horiz-adv-x="3736" 
d="M2822 0v1315h-1909v-1315h-421v2966h421v-1307h1909v1307h422v-2966h-422z" />
    <glyph glyph-name="I" unicode="I" horiz-adv-x="2183" 
d="M328 0v344h553v2277h-553v345h1527v-345h-552v-2277h552v-344h-1527z" />
    <glyph glyph-name="J" unicode="J" horiz-adv-x="1737" 
d="M-25 -188q23 -8 61.5 -14.5t81.5 -11.5t86 -8t75 -3q150 0 254 38.5t168.5 123t93 218t28.5 324.5v2142h-635v345h1057v-2528q0 -241 -50.5 -430.5t-162 -320.5t-290.5 -200t-435 -69q-40 0 -87 2.5t-92.5 7t-86 11.5t-66.5 16v357z" />
    <glyph glyph-name="K" unicode="K" horiz-adv-x="3461" 
d="M2789 0l-1876 1372v-1372h-421v2966h421v-1344l1852 1344h622l-1682 -1201q-87 -62 -175 -125t-175 -124q43 -31 85.5 -61.5t85 -61.5t85 -61.5t85.5 -61.5l1753 -1270h-660z" />
    <glyph glyph-name="L" unicode="L" horiz-adv-x="2761" 
d="M492 0v2966h421v-2622h1684v-344h-2105z" />
    <glyph glyph-name="M" unicode="M" horiz-adv-x="4379" 
d="M3478 0v2007v200.5v200.5q-59 -80 -117 -159.5t-117 -159.5l-938 -1270h-233l-938 1270q-29 40 -58.5 80t-58.5 79.5t-58.5 79.5t-58.5 80v-200.5v-200.5v-2007h-409v2966h458l1041 -1418q52 -71 104 -141t105 -141q52 71 104 143t104 143l1041 1414h438v-2966h-409z" />
    <glyph glyph-name="N" unicode="N" horiz-adv-x="3932" 
d="M2982 0l-1733 2032q-86 102 -171.5 202.5t-172.5 202.5v-122.5v-121v-121.5v-122v-1950h-413v2966h458l1729 -2036q43 -51 86.5 -101.5t87 -101.5t87.5 -101.5t87 -101.5v122v122v121.5v122.5v1954h414v-2966h-459z" />
    <glyph glyph-name="O" unicode="O" horiz-adv-x="3760" 
d="M1880 -49q-260 0 -478 50.5t-394 145.5t-308.5 230.5t-221.5 306t-134 372t-45 427.5q0 218 46.5 416.5t137.5 368.5t225.5 308t310 235.5t391.5 150.5t470 53q260 0 478 -50.5t394 -145.5t308.5 -230.5t221.5 -306t134 -372t45 -427.5q0 -218 -46.5 -416.5
t-137.5 -368.5t-225.5 -308t-310 -235.5t-391.5 -150.5t-470 -53zM1880 287q195 0 355.5 42.5t288.5 120t223 186.5t158.5 242t94.5 286t31 319t-31 319t-94.5 286t-158.5 242t-223 186.5t-289 120t-355 42.5t-355 -42.5t-289 -120t-223 -186.5t-158.5 -242t-94.5 -286
t-31 -319t31 -319t94.5 -286t158.5 -242t223 -186.5t288.5 -120t355.5 -42.5z" />
    <glyph glyph-name="P" unicode="P" horiz-adv-x="3142" 
d="M492 0v2966h1171q228 0 409 -30.5t318.5 -88t235 -139.5t159.5 -184.5t90.5 -223.5t28.5 -256t-30 -257t-94 -226.5t-164 -188.5t-240.5 -143t-323 -91t-410.5 -32h-729v-1106h-421zM1573 1450q256 0 429 39t278 115t149.5 186.5t44.5 253.5t-44.5 251t-149.5 180.5
t-278 109t-429 36.5h-660v-1171h660z" />
    <glyph glyph-name="Q" unicode="Q" horiz-adv-x="3760" 
d="M2863 -520q-31 0 -56.5 2.5t-48 8.5t-42 16.5t-37.5 25.5l-525 434q-68 -9 -135.5 -12.5t-138.5 -3.5q-260 0 -478 50.5t-394 145.5t-308.5 230.5t-221.5 306t-134 372t-45 427.5q0 218 46.5 416.5t137.5 368.5t225.5 308t310 235.5t391.5 150.5t470 53q260 0 478 -50.5
t394 -145.5t308.5 -230.5t221.5 -306t134 -372t45 -427.5q0 -246 -59 -466.5t-174 -403.5t-285 -323t-391 -224q37 -16 82.5 -44t101.5 -71l569 -471h-442zM1880 287q195 0 355.5 42.5t288.5 120t223 186.5t158.5 242t94.5 286t31 319t-31 319t-94.5 286t-158.5 242
t-223 186.5t-289 120t-355 42.5t-355 -42.5t-289 -120t-223 -186.5t-158.5 -242t-94.5 -286t-31 -319t31 -319t94.5 -286t158.5 -242t223 -186.5t288.5 -120t355.5 -42.5z" />
    <glyph glyph-name="R" unicode="R" horiz-adv-x="3305" 
d="M2683 0l-950 1065q-30 33 -56.5 57t-54 41.5t-58 28.5t-67 17.5t-82.5 9t-104 2.5h-398v-1221h-421v2966h1150q343 0 583 -59.5t391 -172t219.5 -273.5t68.5 -364q0 -172 -58 -312t-170.5 -245.5t-277.5 -175.5t-379 -102q59 -22 109.5 -60.5t99.5 -91.5l996 -1110h-541z
M1552 1556q256 0 432.5 31t285 96.5t156.5 168t48 245.5t-48 242.5t-156.5 162t-285 91t-432.5 28.5h-639v-1065h639z" />
    <glyph glyph-name="S" unicode="S" horiz-adv-x="3097" 
d="M283 471q103 -32 226 -61t260.5 -51t284.5 -35t298 -13q235 0 417 30t307 87.5t190 140.5t65 189q0 68 -19.5 124t-61.5 103t-108 87.5t-160 79.5t-217 77.5t-278 81.5q-168 46 -319 93t-279.5 101.5t-231.5 121.5t-174.5 152.5t-108.5 194t-34 246.5q2 121 40.5 226.5
t112.5 194t183 158t252.5 117.5t321 73.5t388.5 25.5q160 0 302.5 -12t268.5 -33.5t234 -51.5t199 -67v-365q-101 35 -211.5 66t-234.5 53.5t-264.5 35.5t-301.5 13q-212 0 -372 -27t-267.5 -80t-162 -131t-54.5 -180q0 -67 14 -121t49.5 -100.5t96.5 -88t153.5 -81.5
t221.5 -81.5t301 -88.5q188 -52 347.5 -100.5t289 -102t228 -117.5t164 -146.5t97.5 -189t29 -245.5q-2 -122 -42 -230t-119 -199.5t-197 -164.5t-275.5 -124t-355.5 -78t-437 -27q-158 0 -307.5 11.5t-285 32.5t-253 50.5t-210.5 65.5v360z" />
    <glyph glyph-name="T" unicode="T" horiz-adv-x="3092" 
d="M1335 0v2621h-1200v345h2822v-345h-1200v-2621h-422z" />
    <glyph glyph-name="U" unicode="U" horiz-adv-x="3600" 
d="M2736 2966h422v-1848q0 -182 -43.5 -339.5t-126 -287t-202 -230.5t-270.5 -169.5t-331.5 -104.5t-386.5 -36q-209 0 -390.5 36t-332 104.5t-268.5 169.5t-199 230.5t-123.5 287t-42.5 339.5v1848h422v-1815q0 -207 59 -365.5t176 -266t292 -162t407 -54.5
q234 0 409.5 54.5t293 162t176.5 266t59 365.5v1815z" />
    <glyph glyph-name="V" unicode="V" horiz-adv-x="3305" 
d="M1421 0l-1413 2966h467l946 -2008q58 -125 118.5 -251t119.5 -252q59 127 119 252t118 251l943 2008h458l-1413 -2966h-463z" />
    <glyph glyph-name="W" unicode="W" horiz-adv-x="5476" 
d="M3731 0l-794 1946q-25 61 -50 121.5t-50.5 121.5t-50.5 121.5t-50 122.5q-24 -62 -48.5 -122.5t-49.5 -121.5t-49.5 -121.5t-48.5 -121.5l-795 -1946h-430l-1282 2966h463l831 -2003q26 -63 52 -125.5t52.5 -124.5t52.5 -124.5t52 -125.5q25 63 50 125.5t50.5 124.5
t50.5 124.5t50 125.5l803 2003h397l811 -2024q24 -63 49.5 -126l51 -126t52 -126t52.5 -126q26 63 52.5 126t53.5 126l54 126t53 126l843 2024h435l-1282 -2966h-431z" />
    <glyph glyph-name="X" unicode="X" horiz-adv-x="3248" 
d="M2666 0l-1056 1262l-1057 -1262h-504l1315 1532l-1221 1434h533l946 -1147l954 1147h504l-1212 -1418l1331 -1548h-533z" />
    <glyph glyph-name="Y" unicode="Y" horiz-adv-x="3183" 
d="M1380 0v1106l-1372 1860h496l1089 -1520l1102 1520h479l-1372 -1856v-1110h-422z" />
    <glyph glyph-name="Z" unicode="Z" horiz-adv-x="3117" 
d="M270 0v324l1999 2297h-1954v345h2474v-324l-1994 -2298h2052v-344h-2577z" />
    <glyph glyph-name="bracketleft" unicode="[" horiz-adv-x="1847" 
d="M598 -381v3486h971v-238h-574v-3010h574v-238h-971z" />
    <glyph glyph-name="backslash" unicode="\" horiz-adv-x="2208" 
d="M1749 0l-1683 2966h389l1687 -2966h-393z" />
    <glyph glyph-name="bracketright" unicode="]" horiz-adv-x="1847" 
d="M279 -381v238h573v3010h-573v238h970v-3486h-970z" />
    <glyph glyph-name="asciicircum" unicode="^" horiz-adv-x="2228" 
d="M1683 1786l-569 864l-569 -864h-385l790 1180h328l790 -1180h-385z" />
    <glyph glyph-name="underscore" unicode="_" horiz-adv-x="2253" 
d="M-33 -319v319h2319v-319h-2319z" />
    <glyph glyph-name="grave" unicode="`" horiz-adv-x="2064" 
d="M1151 2408l-606 648h524l451 -648h-369z" />
    <glyph glyph-name="a" unicode="a" horiz-adv-x="2941" 
d="M2175 0l-33 193q-77 -56 -174 -100.5t-211 -76t-242 -48.5t-266 -17q-197 0 -366.5 38.5t-295 117t-197 197t-71.5 278.5q0 104 32 193t98.5 161t170 127.5t246.5 93t327 57t413 19.5q86 0 175 -2.5t168 -6t160 -7.5v73q0 129 -39.5 228.5t-124 167t-216.5 102.5t-316 35
q-158 0 -283 -10.5t-229.5 -30.5t-196.5 -49t-184 -66v315q83 37 178.5 68t209.5 53t248 34.5t294 12.5q238 0 434 -49.5t336.5 -149.5t217.5 -252t77 -356v-1343h-340zM2109 934h-405q-263 0 -446.5 -19t-299.5 -59.5t-168.5 -104.5t-52.5 -153q0 -81 33.5 -144t105 -105.5
t183 -64.5t268.5 -22q121 0 233.5 14t211.5 40.5t184 64.5t153 86v467z" />
    <glyph glyph-name="b" unicode="b" horiz-adv-x="3178" 
d="M471 0v2966h406v-1029q75 48 167 87t195.5 67t216 43.5t227.5 15.5q278 0 503 -73t383.5 -213t244.5 -344.5t86 -466.5q0 -257 -84 -461t-243.5 -346.5t-390 -218.5t-523.5 -76q-120 0 -236 14.5t-221.5 42.5t-197.5 69t-164 95l-29 -172h-340zM877 467q75 -48 158.5 -86
t174.5 -64.5t189 -40.5t203 -14q213 0 377.5 50.5t276 150t169 247.5t57.5 343t-57.5 341t-169 243t-276 145.5t-377.5 48.5q-105 0 -203 -14t-189 -40.5t-174.5 -64.5t-158.5 -86v-1159z" />
    <glyph glyph-name="c" unicode="c" horiz-adv-x="2568" 
d="M2314 111q-75 -32 -159 -61t-186 -51t-227.5 -35t-283.5 -13q-278 0 -497 79t-370.5 223t-231.5 347.5t-80 452.5q0 156 34 298.5t102.5 264.5t172 220.5t242.5 168t314.5 107.5t387.5 38q106 0 211.5 -9.5t203 -27t183 -41.5t151.5 -53v-331q-69 27 -154 51.5t-181.5 43
t-203 29.5t-218.5 11q-220 0 -376.5 -56t-257 -157.5t-147.5 -243t-47 -313.5q0 -189 57 -333.5t162 -242.5t253 -148t331 -50q140 0 259.5 15.5t220.5 40t184 55t151 61.5v-340z" />
    <glyph glyph-name="d" unicode="d" horiz-adv-x="3178" 
d="M2367 0l-32 184q-75 -51 -170.5 -93.5t-203.5 -73.5t-226.5 -48.5t-239.5 -17.5q-278 0 -502.5 73.5t-383 214.5t-244.5 346t-86 468q0 256 84 459.5t243 345.5t389.5 217t524.5 75q112 0 220.5 -13t208.5 -37.5t189.5 -61t163.5 -84.5v1012h405v-2966h-340zM2302 1630
q-75 48 -159 86t-175 64.5t-189 40.5t-202 14q-213 0 -377.5 -49t-276.5 -147t-169.5 -244.5t-57.5 -341.5t57.5 -342.5t169.5 -246.5t276.5 -148.5t377.5 -49.5q104 0 202 14t189 40.5t175 64.5t159 86v1159z" />
    <glyph glyph-name="e" unicode="e" horiz-adv-x="2863" 
d="M2466 143q-89 -41 -190 -76.5t-218.5 -61t-253 -40t-293.5 -14.5q-207 0 -378.5 38t-308.5 109t-239 172t-170 226.5t-102 273t-34 311.5q0 150 35 288t103 256.5t168 215.5t230 165.5t289.5 106t345.5 37.5q183 0 340 -34.5t286 -99t228.5 -156t167 -205t102.5 -247.5
t35 -282q0 -20 -0.5 -42t-2 -43.5t-3 -40.5t-2.5 -33h-1917q11 -157 69 -284t166 -217t266.5 -138.5t370.5 -48.5q152 0 278.5 15.5t236 41.5t206.5 60t189 71v-324zM2212 1278q-14 124 -76.5 227.5t-163 177.5t-234 115t-288.5 41t-289 -41t-235 -115t-163.5 -177.5
t-74.5 -227.5h1524z" />
    <glyph glyph-name="f" unicode="f" horiz-adv-x="2048" 
d="M721 0v1782h-602v319h602v140q0 180 54.5 323t169 243.5t291.5 154t423 53.5q97 0 180 -6.5t154 -18t130.5 -27.5t108.5 -34v-320q-55 18 -121 32.5t-138.5 24.5t-150 15.5t-155.5 5.5q-150 0 -253.5 -29t-167.5 -87.5t-92 -148t-28 -210.5v-111h885v-319h-885v-1782
h-405z" />
    <glyph glyph-name="g" unicode="g" horiz-adv-x="3178" 
d="M2302 229q-77 -48 -170 -87t-196.5 -67t-215 -43.5t-225.5 -15.5q-278 0 -502.5 69.5t-383 205.5t-244.5 335t-86 459q0 253 84 451.5t243 334.5t389.5 207.5t524.5 71.5q120 0 235 -15t220 -43.5t197.5 -69.5t166.5 -93l28 172h340v-2031q0 -264 -89 -451t-253.5 -305
t-398.5 -172.5t-524 -54.5q-158 0 -303.5 12t-271 33t-228.5 49.5t-176 60.5v344q84 -35 184 -66t217.5 -53.5t255 -35.5t297.5 -13q206 0 370 32t278.5 110.5t175.5 210t61 331.5v127zM2302 1630q-75 48 -159 86t-175 64.5t-189 40.5t-202 14q-213 0 -377.5 -46
t-276.5 -139t-169.5 -234t-57.5 -331t57.5 -331.5t169.5 -235t276.5 -140t377.5 -46.5q104 0 202 14t189 40.5t175 64.5t159 86v1093z" />
    <glyph glyph-name="h" unicode="h" horiz-adv-x="3174" 
d="M2343 0v1274q0 157 -42 263.5t-125.5 171.5t-207.5 93.5t-289 28.5q-118 0 -231.5 -18t-217 -48t-193.5 -70t-160 -85v-1610h-406v2966h406v-1065q78 54 176.5 99.5t212 78.5t239.5 52t260 19q132 0 256.5 -16.5t233.5 -54.5t200 -99t156 -151t101 -210t36 -276v-1343
h-405z" />
    <glyph glyph-name="i" unicode="i" horiz-adv-x="1348" 
d="M471 0v2101h406v-2101h-406zM471 2523v443h406v-443h-406z" />
    <glyph glyph-name="j" unicode="j" horiz-adv-x="1348" 
d="M-291 -565q68 -16 128 -22.5t122 -6.5q146 0 244 39t157.5 120t85 205.5t25.5 295.5v2035h406v-2064q0 -241 -48.5 -419.5t-155 -296.5t-275.5 -176t-410 -58q-39 0 -77 2t-73.5 6.5t-68 10t-60.5 13.5v316zM471 2523v443h406v-443h-406z" />
    <glyph glyph-name="k" unicode="k" horiz-adv-x="2777" 
d="M2154 0l-1277 958v-958h-406v2966h406v-1786l1261 921h557l-1171 -844q-32 -23 -64 -45t-63.5 -44.5l-63 -45t-63.5 -45.5q31 -21 60 -42t58.5 -41.5t58.5 -41.5t60 -43l1262 -909h-615z" />
    <glyph glyph-name="l" unicode="l" horiz-adv-x="1593" 
d="M1503 16q-43 -12 -94.5 -23.5t-112 -21t-130.5 -15t-150 -5.5q-157 0 -265 35t-174.5 103t-96 169.5t-29.5 233.5v2474h405v-2425q0 -63 10.5 -110.5t39 -79.5t78.5 -48t130 -16q124 0 221 11t168 30v-312z" />
    <glyph glyph-name="m" unicode="m" horiz-adv-x="5042" 
d="M4211 0v1274q0 157 -42 263.5t-125.5 171.5t-208 93.5t-288.5 28.5q-123 0 -241.5 -19.5t-226 -52t-199 -75.5t-160.5 -91q12 -55 20 -118t8 -132v-1343h-405v1274q0 157 -42 263.5t-125.5 171.5t-207.5 93.5t-289 28.5q-118 0 -231.5 -18t-217 -48t-193.5 -70t-160 -85
v-1610h-406v2101h340l33 -209q78 57 179.5 104.5t220 81.5t250 53t271.5 19q131 0 254.5 -17t232.5 -55.5t200 -100t157 -150.5q75 66 185.5 124.5t244 103t285 70t309.5 25.5q132 0 256.5 -16.5t233.5 -54.5t200 -99t156 -151t101 -210t36 -276v-1343h-405z" />
    <glyph glyph-name="n" unicode="n" horiz-adv-x="3174" 
d="M2343 0v1274q0 157 -42 263.5t-125.5 171.5t-207.5 93.5t-289 28.5q-118 0 -231.5 -18t-217 -48t-193.5 -70t-160 -85v-1610h-406v2101h340l33 -209q78 57 179.5 104.5t220 81.5t250 53t271.5 19q132 0 256.5 -16.5t233.5 -54.5t200 -99t156 -151t101 -210t36 -276v-1343
h-405z" />
    <glyph glyph-name="o" unicode="o" horiz-adv-x="3088" 
d="M1544 -49q-221 0 -401 38t-320.5 107.5t-243 168.5t-169.5 221.5t-99 265.5t-32 301q0 155 33 297t101 264t171.5 221t244 169t319 108t396.5 38q221 0 401 -38t320.5 -107.5t243.5 -168.5t169.5 -221.5t99 -265.5t32.5 -300q0 -156 -33 -298t-101 -264t-171.5 -221
t-244 -169t-319.5 -108t-397 -38zM1544 266q218 0 378 55.5t264.5 157.5t155 246.5t50.5 323.5q0 178 -50.5 323t-155 248t-264.5 159t-378 56t-377.5 -55.5t-264 -157.5t-155.5 -246.5t-51 -322.5t51 -323.5t155.5 -248.5t264 -159t377.5 -56z" />
    <glyph glyph-name="p" unicode="p" horiz-adv-x="3178" 
d="M471 -864v2965h340l29 -184q76 51 171.5 93.5t204 73.5t226.5 48.5t241 17.5q278 0 503 -73t383.5 -213t244.5 -344.5t86 -466.5q0 -257 -84 -461t-243.5 -346.5t-390 -218.5t-523.5 -76q-114 0 -223 13t-209.5 37.5t-189 61t-160.5 84.5v-1011h-406zM877 475
q75 -48 158.5 -86t174.5 -64.5t189 -40.5t203 -14q213 0 377.5 49t276 147t169 245t57.5 342t-57.5 342t-169 246t-276 148.5t-377.5 49.5q-105 0 -203 -14t-189 -40.5t-174.5 -64.5t-158.5 -86v-1159z" />
    <glyph glyph-name="q" unicode="q" horiz-adv-x="3178" 
d="M2302 -864v1024q-77 -46 -169.5 -84.5t-196 -66t-215 -43t-226.5 -15.5q-278 0 -502.5 73.5t-383 214.5t-244.5 346t-86 468q0 256 84 459.5t243 345.5t389.5 217t524.5 75q120 0 235 -15t220 -44t197.5 -70.5t166.5 -95.5l28 176h340v-2965h-405zM2302 1638
q-75 48 -159 86t-175 64.5t-189 40.5t-202 14q-213 0 -377.5 -50.5t-276.5 -149.5t-169.5 -247t-57.5 -343t57.5 -341.5t169.5 -243.5t276.5 -145.5t377.5 -48.5q104 0 202 14t189 40.5t175 64.5t159 86v1159z" />
    <glyph glyph-name="r" unicode="r" horiz-adv-x="2138" 
d="M471 0v2101h365l32 -381q54 81 127 157.5t170 135t219.5 94t274.5 35.5q114 0 209.5 -14t163.5 -39v-360q-45 12 -94.5 21t-103 15.5t-110 9.5t-114.5 3q-110 0 -200.5 -20t-164.5 -52.5t-132.5 -75.5t-103 -88.5t-77.5 -90.5t-55 -83v-1368h-406z" />
    <glyph glyph-name="s" unicode="s" horiz-adv-x="2626" 
d="M328 414q45 -16 105 -33t129.5 -32.5t147 -29t158 -23.5t160.5 -16t156 -6q187 0 325.5 19.5t230 58t136.5 94t45 127.5q0 77 -41 126t-120 83.5t-195 60t-267 54.5q-241 45 -418.5 95t-293.5 122t-173 174.5t-57 251.5q0 140 60.5 252.5t188 192t326 122.5t474.5 43
q84 0 163 -5t152 -15t140.5 -24t127.5 -31t113.5 -37.5t98.5 -42.5v-316q-48 20 -104 39t-118 35.5t-130 30t-140 23t-148 15t-155 5.5q-171 0 -291.5 -17.5t-197 -53t-111.5 -88.5t-35 -124q0 -77 41 -125.5t120 -81.5t195 -58t267 -54q240 -45 417 -95.5t293.5 -123.5
t174 -176t57.5 -252q0 -140 -74 -255.5t-219 -198t-360.5 -128t-497.5 -45.5q-125 0 -249 12t-236.5 32.5t-208 48t-162.5 58.5v312z" />
    <glyph glyph-name="t" unicode="t" horiz-adv-x="2187" 
d="M1974 53q-57 -21 -124 -40t-144.5 -32.5t-165 -21.5t-184.5 -8q-191 0 -333.5 36.5t-238 116t-143 204.5t-47.5 302v1172h-455v319h471l49 525h336v-525h1012v-319h-1012v-1118q0 -109 28.5 -183t87.5 -119t150.5 -64t217.5 -19q70 0 137.5 6.5t130 18.5t119.5 28.5
t108 36.5v-316z" />
    <glyph glyph-name="u" unicode="u" horiz-adv-x="3133" 
d="M2322 0l-32 180q-78 -51 -174 -93t-205.5 -72t-230.5 -47t-250 -17q-132 0 -258 13.5t-237.5 47.5t-205 91t-161 144.5t-105 208t-37.5 281.5v1364h405v-1294q0 -149 45.5 -251.5t132.5 -166t214.5 -91.5t292.5 -28q120 0 219 13t187 38.5t169.5 63t165.5 86.5v1630h405
v-2101h-340z" />
    <glyph glyph-name="v" unicode="v" horiz-adv-x="2630" 
d="M1126 0l-1077 2101h451l659 -1339q40 -84 82 -168t82 -168q40 84 82 168t82 168l651 1339h442l-1077 -2101h-377z" />
    <glyph glyph-name="w" unicode="w" horiz-adv-x="4239" 
d="M2814 0l-561 1339q-34 84 -69.5 166.5t-69.5 165.5q-35 -83 -70.5 -169.5t-69.5 -170.5l-549 -1331h-376l-983 2101h442l586 -1339q37 -84 73.5 -168t73.5 -168q34 84 69.5 168t69.5 168l553 1339h377l565 -1339q34 -84 70 -166t70 -166q37 84 71.5 166t71.5 166
l582 1339h434l-983 -2101h-377z" />
    <glyph glyph-name="x" unicode="x" horiz-adv-x="2695" 
d="M2097 0l-758 815l-761 -815h-504l1024 1069l-992 1032h525l712 -774l721 774h504l-983 -1028l1036 -1073h-524z" />
    <glyph glyph-name="y" unicode="y" horiz-adv-x="2630" 
d="M16 -553q41 -9 90.5 -17t114.5 -8q95 0 180 13.5t160.5 41.5t142.5 70.5t127.5 101t114.5 133t103 165.5l53 98l-1053 2056h451l680 -1384q37 -75 71.5 -146.5t71.5 -148.5q37 77 71.5 151t71.5 148l672 1380h442l-1110 -2162q-67 -130 -140 -244t-157.5 -208.5
t-182.5 -169t-214 -125.5t-252.5 -78t-298.5 -27q-24 0 -52.5 1.5t-56.5 5t-54 8.5t-46 13v332z" />
    <glyph glyph-name="z" unicode="z" horiz-adv-x="2646" 
d="M238 0v279l1564 1503h-1503v319h2056v-274l-1573 -1508h1626v-319h-2170z" />
    <glyph glyph-name="braceleft" unicode="{" horiz-adv-x="1847" 
d="M1159 -381q-91 0 -168 12t-139.5 36.5t-109.5 62t-79 89.5t-48.5 118.5t-16.5 148.5v881q0 70 -16 122t-49 85.5t-84 50t-121 16.5h-148v242h148q70 0 121 16.5t84 50t49 85t16 122.5v881q0 82 16.5 148.5t48.5 118.5t79 89.5t109.5 62t139.5 36.5t168 12h410v-238h-303
q-71 0 -122 -16.5t-84 -50t-49 -85.5t-16 -122v-824q0 -80 -16 -145.5t-49 -116.5t-82 -87.5t-115 -59.5q66 -23 115 -59.5t82 -87t49 -115t16 -144.5v-823q0 -71 16 -122.5t49 -85t84 -50t122 -16.5h303v-238h-410z" />
    <glyph glyph-name="bar" unicode="|" horiz-adv-x="1790" 
d="M729 -864v3830h332v-3830h-332z" />
    <glyph glyph-name="braceright" unicode="}" horiz-adv-x="1847" 
d="M279 -381v238h303q70 0 121 16.5t84 50t49 85t16 122.5v823q0 80 16 144.5t49 115t82 87t115 59.5q-66 23 -115 59.5t-82 87.5t-49 116.5t-16 145.5v824q0 70 -16 122t-49 85.5t-84 50t-121 16.5h-303v238h409q137 0 241.5 -27t175.5 -83.5t107.5 -145t36.5 -211.5v-881
q0 -71 16 -122.5t49 -85t84 -50t122 -16.5h147v-242h-147q-71 0 -122 -16.5t-84 -50t-49 -85.5t-16 -122v-881q0 -123 -36.5 -211.5t-107.5 -145t-175.5 -83.5t-241.5 -27h-409z" />
    <glyph glyph-name="asciitilde" unicode="~" horiz-adv-x="2265" 
d="M2028 1483q0 -122 -26 -235.5t-85.5 -201.5t-156.5 -141t-240 -53q-85 0 -163.5 24.5t-150.5 61.5t-137.5 80t-124.5 80t-112 61.5t-99 24.5q-52 0 -87.5 -20t-57.5 -58t-33 -92t-14 -121h-303q0 81 11 159t36 148.5t64 129.5t95.5 102.5t131 67.5t169.5 24
q85 0 163.5 -24.5t150.5 -61.5t138 -80t125 -80t111.5 -61.5t98.5 -24.5q52 0 87.5 20t57.5 58t33 91.5t14 121.5h304z" />
    <glyph glyph-name="uni00A0" unicode="&#xa0;" horiz-adv-x="1356" 
 />
    <glyph glyph-name="exclamdown" unicode="&#xa1;" horiz-adv-x="1647" 
d="M606 -864v807q0 71 3.5 153.5t10 168t14 170.5t15 162.5t15 144t12.5 114.5l45 430h209l45 -430q5 -48 12 -114.5t14.5 -144t15.5 -162.5t14 -170.5t9.5 -168t3.5 -153.5v-807h-438zM578 1602v499h499v-499h-499z" />
    <glyph glyph-name="cent" unicode="&#xa2;" 
d="M1626 -176v491q-263 26 -476 109t-364 226t-233 349.5t-82 479.5q0 256 79.5 460.5t229 352.5t363.5 238.5t483 119.5v488h332v-472q106 -3 212.5 -14.5t207.5 -30t193 -44.5t169 -58v-336q-90 37 -189 65t-203 47.5t-211.5 29.5t-215.5 10q-249 0 -442 -49t-325 -153
t-200.5 -266t-68.5 -388q0 -168 37.5 -296t105.5 -221.5t162.5 -156.5t208 -100.5t242 -53.5t264.5 -16q158 0 291.5 14.5t243 37t196.5 50.5t153 54v-332q-72 -31 -157.5 -58t-187.5 -48t-222.5 -34t-263.5 -16v-479h-332z" />
    <glyph glyph-name="sterling" unicode="&#xa3;" 
d="M434 0v324h74q144 0 241 24t155.5 84.5t83 164t24.5 263.5v418h-443v344h443v446q0 142 27 268t81 231t136.5 188t193.5 141t251 88.5t310 30.5q77 0 150.5 -6t143.5 -18t135.5 -30t127.5 -41v-348q-38 12 -95 26.5t-126.5 27t-148.5 20.5t-162 8q-154 0 -267 -33
t-187.5 -108t-111 -196t-36.5 -298v-397h1081v-344h-1081v-500q0 -83 -11 -149.5t-31.5 -119.5t-49.5 -93.5t-64 -71.5h1565v-344h-2409z" />
    <glyph glyph-name="currency" unicode="&#xa4;" 
d="M2187 627q-117 -47 -254 -71t-295 -24q-157 0 -294.5 24t-258.5 71l-335 -410l-271 238l332 336q-146 123 -222.5 295.5t-76.5 392.5q0 216 76.5 390t222.5 298l-332 336l271 237l335 -409q121 46 258.5 70t294.5 24q158 0 295 -24t254 -70l340 409l271 -237l-332 -336
q145 -124 222 -298t77 -390q0 -220 -77.5 -392.5t-225.5 -295.5l336 -336l-271 -238zM1638 856q180 0 318.5 41.5t232.5 121t142.5 195.5t48.5 265t-48.5 264.5t-142.5 195t-232.5 121t-318.5 41.5t-318 -41.5t-232 -121t-142.5 -195t-48.5 -264.5t48.5 -265t142.5 -195.5
t232 -121t318 -41.5z" />
    <glyph glyph-name="yen" unicode="&#xa5;" 
d="M1847 565v-565h-422v565h-1032v332h1032v209l-143 192h-889v332h643l-983 1336h496l815 -1139q68 -96 137 -190.5t137 -190.5q69 96 138 190.5t137 190.5l827 1139h479l-991 -1336h656v-332h-902l-135 -188v-213h1037v-332h-1037z" />
    <glyph glyph-name="brokenbar" unicode="&#xa6;" horiz-adv-x="1790" 
d="M729 -381v1274h332v-1274h-332zM729 1831v1274h332v-1274h-332z" />
    <glyph glyph-name="section" unicode="&#xa7;" 
d="M1528 -311q-186 0 -347 16t-294.5 41t-237 55.5t-174.5 59.5v319q77 -29 186.5 -58.5t240.5 -53t278 -38t299 -14.5q109 0 213.5 5.5t197.5 18.5t171 33.5t134 51.5t87.5 72t31.5 94q0 67 -35 114t-103 83.5t-169 67.5t-233 67l-746 196q-149 39 -271 93.5t-209 125
t-135 157t-48 189.5q0 94 33.5 178.5t93 158t141 134.5t178.5 107q-62 40 -112.5 86t-86.5 99.5t-55.5 114.5t-19.5 130q0 116 43.5 207t121.5 160.5t185.5 118t235 79t270 44.5t290.5 14q171 0 321 -9.5t276 -26.5t226 -40.5t169 -50.5v-324q-71 28 -174.5 50.5
t-227.5 38.5t-262.5 25t-277.5 9q-88 0 -180 -4.5t-178 -16t-162 -31t-132.5 -50t-89.5 -73t-33 -99.5q0 -68 35 -115t103.5 -83.5t169.5 -67.5t233 -66l746 -197q149 -38 271 -92.5t209 -125.5t135 -157.5t48 -189.5q0 -95 -33.5 -180t-93.5 -158t-142.5 -133.5
t-180.5 -106.5q63 -40 114.5 -86t87.5 -99.5t56 -114.5t20 -130q0 -116 -47.5 -207t-131.5 -160t-199 -117.5t-249 -79t-282.5 -44.5t-298.5 -14zM2490 1237q0 110 -113.5 194t-353.5 146l-745 197q-106 24 -197 61q-60 -42 -114 -83.5t-95 -86t-65.5 -93.5t-24.5 -106
q0 -110 114 -194.5t353 -145.5l746 -196q49 -13 101 -29.5t95 -32.5q60 40 114 81.5t95.5 86.5t65.5 94.5t24 106.5z" />
    <glyph glyph-name="dieresis" unicode="&#xa8;" horiz-adv-x="2064" 
d="M279 2527v414h438v-414h-438zM1348 2527v414h438v-414h-438z" />
    <glyph glyph-name="copyright" unicode="&#xa9;" horiz-adv-x="3760" 
d="M2540 668q-63 -22 -127.5 -40.5t-136.5 -32.5t-154 -22t-180 -8q-165 0 -300 33t-241 93t-184 144t-129 186t-76 219t-25 243q0 121 25.5 236t77.5 216.5t130.5 187t183.5 147t237 96t292 34.5q80 0 157 -8t150 -23t140 -36t127 -47v-279q-62 26 -124 48t-128.5 37.5
t-139 24.5t-153.5 9q-164 0 -281.5 -47.5t-192.5 -132.5t-110 -203.5t-35 -259.5q0 -143 37.5 -261.5t113.5 -203t191.5 -131.5t272.5 -47q80 0 157 7.5t150.5 20.5t142.5 31t132 39v-270zM1880 3015q254 0 470 -53t391.5 -150.5t310 -235.5t225.5 -308t137.5 -368.5
t46.5 -416.5t-46.5 -416.5t-137.5 -368.5t-225.5 -308t-310 -235.5t-391.5 -150.5t-470 -53t-470 53t-391.5 150.5t-310 235.5t-225.5 308t-137.5 368.5t-46.5 416.5t46.5 416.5t137.5 368.5t225.5 308t310 235.5t391.5 150.5t470 53zM1880 2773q-218 0 -398.5 -46
t-323.5 -130t-250 -202t-177.5 -261t-105.5 -308t-35 -343t35 -343t105.5 -308.5t177.5 -261t250 -201.5t323.5 -130t398.5 -46t398.5 46t324 130t250 201.5t177 261t105.5 308.5t35 343t-35 343t-105.5 308t-177 261t-250 202t-324 130t-398.5 46z" />
    <glyph glyph-name="ordfeminine" unicode="&#xaa;" horiz-adv-x="2609" 
d="M1901 1274l-29 151q-65 -44 -146.5 -79.5t-177.5 -60.5t-203.5 -38.5t-222.5 -13.5q-164 0 -307 31.5t-248.5 95t-166 158.5t-60.5 223q0 84 26.5 155t82 129t141.5 102t205.5 74t274 45t347.5 15q102 0 213 -3t213 -9v57q0 101 -33.5 179.5t-104.5 132.5t-182 82
t-266 28q-134 0 -238.5 -9t-192.5 -25.5t-164.5 -40t-153.5 -52.5v258q69 29 149 54t175.5 43t207.5 28t246 10q198 0 362 -39.5t281 -120t181.5 -202t64.5 -285.5v-1073h-274zM307 475v291h1901v-291h-1901zM1843 2019h-344q-221 0 -376 -15t-252.5 -47t-142 -82.5
t-44.5 -121.5q0 -65 28 -114.5t88 -83t155 -51t229 -17.5q101 0 195.5 11t178.5 32t156 51.5t129 69.5v368z" />
    <glyph glyph-name="guillemotleft" unicode="&#xab;" horiz-adv-x="2818" 
d="M1094 467l-824 762l824 762h389l-733 -762l733 -762h-389zM2159 467l-824 762l824 762h389l-733 -762l733 -762h-389z" />
    <glyph glyph-name="logicalnot" unicode="&#xac;" horiz-adv-x="2728" 
d="M2064 344v705h-1884v344h2245v-1049h-361z" />
    <glyph glyph-name="uni00AD" unicode="&#xad;" horiz-adv-x="1958" 
d="M270 1036v385h1418v-385h-1418z" />
    <glyph glyph-name="registered" unicode="&#xae;" horiz-adv-x="3129" 
d="M2785 1917q0 -172 -45.5 -320t-127 -270t-195 -217t-249 -159.5t-288.5 -98t-315 -33.5t-315 33.5t-289 98t-249 159.5t-195 217t-127.5 270t-45.5 320t45.5 320t127.5 270t195 217t249 159.5t289 98t315 33.5t315 -33.5t288.5 -98t249 -159.5t195 -217t127 -270
t45.5 -320zM1565 1012q136 0 262 29t235.5 84.5t200 135t154.5 180t99.5 220.5t35.5 256t-35.5 256t-99.5 220.5t-154.5 180t-200 135t-235.5 84.5t-262 29t-262 -29t-236 -84.5t-200 -135t-154 -180t-99.5 -220.5t-35.5 -256t35.5 -256t99.5 -220.5t154 -180t200 -135
t236 -84.5t262 -29zM1905 1331l-283 381q-20 28 -36.5 45t-33.5 26t-36.5 12t-45.5 3h-155v-467h-242v1192h529q101 0 187.5 -20.5t149.5 -63t98.5 -108t35.5 -156.5q0 -83 -24 -142t-64.5 -99t-95 -61.5t-115.5 -29.5q21 -15 43 -37t47 -53l307 -422h-266zM1573 1987
q60 0 107 10t80 32t50 58t17 88q0 79 -58.5 119.5t-187.5 40.5h-266v-348h258z" />
    <glyph glyph-name="macron" unicode="&#xaf;" horiz-adv-x="2064" 
d="M319 2548v307h1426v-307h-1426z" />
    <glyph glyph-name="degree" unicode="&#xb0;" horiz-adv-x="2122" 
d="M1802 2294q0 -98 -26 -189.5t-74 -172t-115.5 -146.5t-149.5 -113.5t-177.5 -73.5t-198.5 -26q-104 0 -199 26t-177.5 73.5t-150 113.5t-115.5 146.5t-74 172t-26 189.5t26 189.5t74 172t115.5 146.5t150 113.5t177.5 73.5t199 26q103 0 198.5 -26t177.5 -73.5
t149.5 -113.5t115.5 -146.5t74 -172t26 -189.5zM1061 1868q86 0 163 34t135.5 92.5t93 136t34.5 163.5t-34.5 163t-93 135.5t-135.5 93t-163 34.5t-163.5 -34.5t-136 -93t-92.5 -135.5t-34 -163t34 -163.5t92.5 -136t136 -92.5t163.5 -34z" />
    <glyph glyph-name="plusminus" unicode="&#xb1;" horiz-adv-x="3039" 
d="M1700 1511v-909h-361v909h-1077v320h1077v872h361v-872h1077v-320h-1077zM262 0v319h2515v-319h-2515z" />
    <glyph glyph-name="twosuperior" unicode="&#xb2;" horiz-adv-x="2007" 
d="M270 1364v217l533 385q118 86 206 153t146 125.5t86.5 113t28.5 116.5q0 66 -23.5 116.5t-70.5 85t-118.5 52t-168.5 17.5q-71 0 -143 -7.5t-142 -21t-136 -32.5t-124 -42v254q52 20 112.5 38.5t130 32.5t149 22.5t169.5 8.5q112 0 207.5 -16t173 -46.5t137.5 -75.5
t100.5 -102t61.5 -126.5t21 -149.5q0 -75 -23.5 -140.5t-65 -125t-98.5 -114t-125 -107.5t-144 -105.5t-155 -107.5l-258 -176h1012v-242h-1479z" />
    <glyph glyph-name="threesuperior" unicode="&#xb3;" horiz-adv-x="2007" 
d="M299 1675q57 -18 123.5 -35t141.5 -30t157.5 -21t171.5 -8q120 0 207.5 18.5t145.5 51t86 77.5t28 99q0 51 -27.5 96t-86.5 79.5t-150.5 54.5t-218.5 20h-209v242h209q101 0 176.5 15.5t125.5 44.5t74.5 69.5t24.5 91.5t-25.5 90.5t-75 66.5t-122 41.5t-166.5 14.5
q-68 0 -140.5 -7t-144.5 -20t-139.5 -32t-124.5 -44v242q51 23 112 42.5t132 33.5t151.5 22t169.5 8q174 0 307.5 -30.5t224.5 -86.5t138 -136.5t47 -180.5q0 -58 -19.5 -110.5t-58.5 -98t-96.5 -82.5t-132.5 -65q98 -26 172 -66t123 -91t73.5 -112t24.5 -128
q0 -100 -47.5 -187.5t-146.5 -152.5t-250.5 -102.5t-358.5 -37.5q-101 0 -188.5 8t-162.5 21.5t-138 31.5t-117 38v245z" />
    <glyph glyph-name="acute" unicode="&#xb4;" horiz-adv-x="2064" 
d="M545 2408l450 648h525l-607 -648h-368z" />
    <glyph glyph-name="mu" unicode="&#xb5;" horiz-adv-x="3178" 
d="M1475 -49q-92 0 -181 13.5t-170.5 38.5t-153.5 60.5t-130 79.5q12 -49 24.5 -120.5t12.5 -161.5v-725h-406v2965h406v-1294q0 -149 56.5 -251.5t151.5 -166t218.5 -91.5t257.5 -28q120 0 219 13t187 38.5t169.5 63t165.5 86.5v1630h405v-1626q0 -54 12.5 -90t36.5 -57.5
t60 -31t84 -9.5q56 0 111.5 8t101.5 20v-303q-25 -14 -65.5 -25t-89 -19t-100 -12.5t-97.5 -4.5q-85 0 -152 17t-118 48t-87 74.5t-57 97.5q-80 -52 -177 -95.5t-208 -75t-234 -49t-253 -17.5z" />
    <glyph glyph-name="paragraph" unicode="&#xb6;" horiz-adv-x="3183" 
d="M2306 -864v3510h-422v-3510h-385v2134h-164q-174 0 -327 24t-281 72t-228.5 119t-170.5 165.5t-107 211.5t-37 256t37 256t107 211.5t170.5 165.5t228.5 119t281 72t327 24h1356v-3830h-385z" />
    <glyph glyph-name="periodcentered" unicode="&#xb7;" horiz-adv-x="1712" 
d="M606 983v500h500v-500h-500z" />
    <glyph glyph-name="cedilla" unicode="&#xb8;" horiz-adv-x="2064" 
d="M696 -643q41 -9 84.5 -15t108.5 -6q26 0 59 5.5t62.5 20.5t50 40.5t20.5 65.5q0 43 -24 75.5t-63 56.5t-89 39.5t-102 24.5l225 377h213l-139 -287q57 -14 105.5 -39t84 -60.5t56 -80t20.5 -98.5q0 -94 -38 -162t-101 -112.5t-144 -65.5t-167 -21q-62 0 -117 8.5
t-105 20.5v213z" />
    <glyph glyph-name="onesuperior" unicode="&#xb9;" horiz-adv-x="2007" 
d="M467 1364v242h414v1081l-410 -82v242l512 119h234v-1360h413v-242h-1163z" />
    <glyph glyph-name="ordmasculine" unicode="&#xba;" horiz-adv-x="2798" 
d="M1397 1233q-185 0 -335.5 30.5t-268 86.5t-203 135t-141 177.5t-82.5 213.5t-27 242q0 187 62.5 347.5t192.5 278t329.5 184t472.5 66.5q186 0 337 -30t269 -85.5t204 -134.5t141.5 -176.5t82.5 -212t27 -241.5q0 -125 -27.5 -239t-84.5 -212t-143.5 -177t-204.5 -135.5
t-268 -87t-333 -30.5zM1397 1491q186 0 321 44.5t223 126t130.5 196.5t42.5 256t-42.5 256t-130.5 196t-223 125.5t-321 44.5q-185 0 -319 -43.5t-222 -124.5t-130 -195t-42 -255q0 -143 42 -259t130 -197.5t222 -126t319 -44.5zM307 475v291h2183v-291h-2183z" />
    <glyph glyph-name="guillemotright" unicode="&#xbb;" horiz-adv-x="2818" 
d="M270 467l734 762l-734 762h389l824 -762l-824 -762h-389zM1335 467l734 762l-734 762h389l824 -762l-824 -762h-389z" />
    <glyph glyph-name="onequarter" unicode="&#xbc;" horiz-adv-x="4706" 
d="M737 -123l2810 3211h422l-2810 -3211h-422zM467 1364v242h414v1081l-410 -82v242l512 119h234v-1360h413v-242h-1163zM3899 0v324h-1028l-4 217l1044 1061h320v-1041h336v-237h-336v-324h-332zM3899 1008v112.5v112.5q-68 -68 -132.5 -136.5t-129.5 -133.5l-397 -402h659
v447z" />
    <glyph glyph-name="onehalf" unicode="&#xbd;" horiz-adv-x="4706" 
d="M467 1364v242h414v1081l-410 -82v242l512 119h234v-1360h413v-242h-1163zM737 -123l2810 3211h422l-2810 -3211h-422zM2969 0v217l533 385q118 86 206 153t146 125.5t86.5 113t28.5 116.5q0 66 -23.5 116.5t-70.5 85t-118.5 52t-168.5 17.5q-71 0 -143 -7.5t-142 -21
t-136 -32.5t-124 -42v254q52 20 112.5 38.5t130 32.5t149 22.5t169.5 8.5q112 0 207.5 -16t173 -46.5t137.5 -75.5t100.5 -102t61.5 -126.5t21 -149.5q0 -75 -23.5 -140.5t-65 -125t-98.5 -114t-125 -107.5t-144 -105.5t-155 -107.5l-258 -176h1012v-242h-1479z" />
    <glyph glyph-name="threequarters" unicode="&#xbe;" horiz-adv-x="4706" 
d="M737 -123l2810 3211h422l-2810 -3211h-422zM299 1675q57 -18 123.5 -35t141.5 -30t157.5 -21t171.5 -8q120 0 207.5 18.5t145.5 51t86 77.5t28 99q0 51 -27.5 96t-86.5 79.5t-150.5 54.5t-218.5 20h-209v242h209q101 0 176.5 15.5t125.5 44.5t74.5 69.5t24.5 91.5
t-25.5 90.5t-75 66.5t-122 41.5t-166.5 14.5q-68 0 -140.5 -7t-144.5 -20t-139.5 -32t-124.5 -44v242q51 23 112 42.5t132 33.5t151.5 22t169.5 8q174 0 307.5 -30.5t224.5 -86.5t138 -136.5t47 -180.5q0 -58 -19.5 -110.5t-58.5 -98t-96.5 -82.5t-132.5 -65q98 -26 172 -66
t123 -91t73.5 -112t24.5 -128q0 -100 -47.5 -187.5t-146.5 -152.5t-250.5 -102.5t-358.5 -37.5q-101 0 -188.5 8t-162.5 21.5t-138 31.5t-117 38v245zM3899 0v324h-1028l-4 217l1044 1061h320v-1041h336v-237h-336v-324h-332zM3899 1008v112.5v112.5q-68 -68 -132.5 -136.5
t-129.5 -133.5l-397 -402h659v447z" />
    <glyph glyph-name="questiondown" unicode="&#xbf;" horiz-adv-x="2322" 
d="M2232 -733q-97 -42 -207.5 -75t-231 -56.5t-249.5 -36t-262 -12.5q-156 0 -298 20.5t-264.5 62t-222 103.5t-170 144.5t-109 185t-38.5 225.5q0 96 25.5 183.5t71.5 166t109.5 149.5t139 134.5t160.5 120t174 106.5l438 250l25 352h295l37 -549l-541 -311
q-126 -72 -220.5 -141.5t-157.5 -140.5t-94.5 -146t-31.5 -158q0 -89 45.5 -162t132 -125.5t211.5 -81t283 -28.5q114 0 235 11t243 32.5t241.5 54.5t230.5 78v-356zM1204 1602v499h500v-499h-500z" />
    <glyph glyph-name="Agrave" unicode="&#xc0;" horiz-adv-x="3494" 
d="M3002 0l-367 731l-1 2h-1786l-1 -2l-364 -731h-463l1483 2966h488l1482 -2966h-471zM1917 2220q-43 87 -88 179t-88 181q-44 -89 -88.5 -179.5t-87.5 -180.5l-565 -1141l-1 -2h1483l-1 2zM1577 3162l-606 648h524l451 -648h-369z" />
    <glyph glyph-name="Aacute" unicode="&#xc1;" horiz-adv-x="3494" 
d="M3002 0l-367 731l-1 2h-1786l-1 -2l-364 -731h-463l1483 2966h488l1482 -2966h-471zM1917 2220q-43 87 -88 179t-88 181q-44 -89 -88.5 -179.5t-87.5 -180.5l-565 -1141l-1 -2h1483l-1 2zM1540 3162l450 648h525l-607 -648h-368z" />
    <glyph glyph-name="Acircumflex" unicode="&#xc2;" horiz-adv-x="3494" 
d="M3002 0l-367 731l-1 2h-1786l-1 -2l-364 -731h-463l1483 2966h488l1482 -2966h-471zM1917 2220q-43 87 -88 179t-88 181q-44 -89 -88.5 -179.5t-87.5 -180.5l-565 -1141l-1 -2h1483l-1 2zM2167 3162l-426 328l-426 -328h-368l614 648h360l615 -648h-369z" />
    <glyph glyph-name="Atilde" unicode="&#xc3;" horiz-adv-x="3494" 
d="M3002 0l-367 731l-1 2h-1786l-1 -2l-364 -731h-463l1483 2966h488l1482 -2966h-471zM1917 2220q-43 87 -88 179t-88 181q-44 -89 -88.5 -179.5t-87.5 -180.5l-565 -1141l-1 -2h1483l-1 2zM2519 3744q0 -103 -26 -199.5t-81.5 -171.5t-142.5 -120t-208 -45
q-73 0 -135.5 18t-117.5 44.5t-103.5 58t-93.5 58t-87.5 44.5t-85.5 18q-45 0 -78 -15t-56 -43.5t-36.5 -69.5t-17.5 -93h-283q0 103 26 199.5t82 171.5t142.5 120.5t208.5 45.5q73 0 135.5 -18t117 -45t103 -58t93.5 -58t87.5 -45t85.5 -18q45 0 78 15t56 43.5t36.5 69.5
t18.5 93h282z" />
    <glyph glyph-name="Adieresis" unicode="&#xc4;" horiz-adv-x="3494" 
d="M3002 0l-367 731l-1 2h-1786l-1 -2l-364 -731h-463l1483 2966h488l1482 -2966h-471zM1917 2220q-43 87 -88 179t-88 181q-44 -89 -88.5 -179.5t-87.5 -180.5l-565 -1141l-1 -2h1483l-1 2zM988 3281v414h438v-414h-438zM2057 3281v414h438v-414h-438z" />
    <glyph glyph-name="Aring" unicode="&#xc5;" horiz-adv-x="3494" 
d="M3002 0l-367 731l-1 2h-1786l-1 -2l-364 -731h-463l1483 2966h488l1482 -2966h-471zM1917 2220q-43 87 -88 179t-88 181q-44 -89 -88.5 -179.5t-87.5 -180.5l-565 -1141l-1 -2h1483l-1 2zM2196 3580q0 -93 -35.5 -173t-97 -138t-144.5 -90.5t-178 -32.5q-94 0 -177 32.5
t-144.5 90.5t-97 138t-35.5 173q0 94 35.5 173.5t97 137.5t144.5 90.5t177 32.5q95 0 178 -32.5t144.5 -90.5t97 -137.5t35.5 -173.5zM1741 3355q49 0 90 17.5t71 48t47 71.5t17 88t-17 87.5t-47 71t-71 49t-90 18.5t-90 -18.5t-71 -49t-47 -71t-17 -87.5t17 -88t47 -71.5
t71 -48t90 -17.5z" />
    <glyph glyph-name="AE" unicode="&#xc6;" horiz-adv-x="5100" 
d="M2429 0v733h-1593l-422 -733h-475l1728 2966h3121v-345h-1937v-925h1691v-344h-1691v-1008h1962v-344h-2384zM2429 2621h-500l-893 -1544h1393v1544z" />
    <glyph glyph-name="Ccedilla" unicode="&#xc7;" horiz-adv-x="3146" 
d="M1348 -643q40 -9 83.5 -15t108.5 -6q26 0 59.5 5.5t63 20.5t50 40.5t20.5 65.5q0 43 -24 75.5t-63.5 56.5t-89.5 39.5t-102 24.5l180 307q-195 25 -370 83.5t-323.5 151t-267.5 219t-202 286.5t-127.5 353t-44.5 419q0 240 56 447.5t158 377.5t247 302t323 222
t384.5 136.5t433.5 46.5q121 0 245.5 -9.5t245 -29t233 -49.5t209.5 -72v-365q-110 45 -223 76t-224 50.5t-219.5 28.5t-209.5 9q-185 0 -348 -32t-300 -97t-244.5 -162t-182.5 -227t-114.5 -293.5t-39.5 -359.5q0 -219 48.5 -391.5t134 -303t201.5 -222t251.5 -149.5
t283.5 -84t298 -26q178 0 326 14t266.5 35t208.5 46.5t153 48.5v-353q-72 -28 -153.5 -51t-169.5 -40.5t-180.5 -29t-185.5 -18t-185 -7.5t-179 3l-94 -201q57 -14 105.5 -39t84.5 -60.5t56 -80t20 -98.5q0 -94 -38 -162t-101 -112.5t-144 -65.5t-167 -21q-62 0 -117 8.5
t-104 20.5v213z" />
    <glyph glyph-name="Egrave" unicode="&#xc8;" horiz-adv-x="3162" 
d="M492 0v2966h2359v-345h-1938v-925h1692v-344h-1692v-1008h1962v-344h-2383zM1524 3162l-606 648h524l451 -648h-369z" />
    <glyph glyph-name="Eacute" unicode="&#xc9;" horiz-adv-x="3162" 
d="M492 0v2966h2359v-345h-1938v-925h1692v-344h-1692v-1008h1962v-344h-2383zM1487 3162l450 648h525l-607 -648h-368z" />
    <glyph glyph-name="Ecircumflex" unicode="&#xca;" horiz-adv-x="3162" 
d="M492 0v2966h2359v-345h-1938v-925h1692v-344h-1692v-1008h1962v-344h-2383zM2113 3162l-426 328l-426 -328h-368l614 648h360l615 -648h-369z" />
    <glyph glyph-name="Edieresis" unicode="&#xcb;" horiz-adv-x="3162" 
d="M492 0v2966h2359v-345h-1938v-925h1692v-344h-1692v-1008h1962v-344h-2383zM934 3281v414h438v-414h-438zM2003 3281v414h438v-414h-438z" />
    <glyph glyph-name="Igrave" unicode="&#xcc;" horiz-adv-x="2183" 
d="M328 0v344h553v2277h-553v345h1527v-345h-552v-2277h552v-344h-1527zM923 3162l-606 648h524l451 -648h-369z" />
    <glyph glyph-name="Iacute" unicode="&#xcd;" horiz-adv-x="2183" 
d="M328 0v344h553v2277h-553v345h1527v-345h-552v-2277h552v-344h-1527zM885 3162l450 648h525l-607 -648h-368z" />
    <glyph glyph-name="Icircumflex" unicode="&#xce;" horiz-adv-x="2183" 
d="M328 0v344h553v2277h-553v345h1527v-345h-552v-2277h552v-344h-1527zM1511 3162l-426 328l-426 -328h-368l614 648h360l615 -648h-369z" />
    <glyph glyph-name="Idieresis" unicode="&#xcf;" horiz-adv-x="2183" 
d="M328 0v344h553v2277h-553v345h1527v-345h-552v-2277h552v-344h-1527zM332 3281v414h438v-414h-438zM1401 3281v414h438v-414h-438z" />
    <glyph glyph-name="Eth" unicode="&#xd0;" horiz-adv-x="3641" 
d="M541 0v1331h-287v307h287v1328h1179q260 0 481.5 -47t401.5 -136.5t318 -219t231.5 -294t141.5 -362.5t48 -424q0 -218 -49.5 -413t-145 -359.5t-235.5 -296t-320 -224t-399 -141.5t-473 -49h-1179zM1749 344q194 0 356 38.5t291.5 109.5t226 172.5t161 228t96.5 275.5
t32 315t-32 314.5t-96.5 275t-161 228t-226 172.5t-291.5 109.5t-356 38.5h-786v-983h815v-307h-815v-987h786z" />
    <glyph glyph-name="Ntilde" unicode="&#xd1;" horiz-adv-x="3932" 
d="M2982 0l-1733 2032q-86 102 -171.5 202.5t-172.5 202.5v-122.5v-121v-121.5v-122v-1950h-413v2966h458l1729 -2036q43 -51 86.5 -101.5t87 -101.5t87.5 -101.5t87 -101.5v122v122v121.5v122.5v1954h414v-2966h-459zM2744 3744q0 -103 -26 -199.5t-81.5 -171.5
t-142.5 -120t-208 -45q-73 0 -135.5 18t-117.5 44.5t-103.5 58t-93.5 58t-87.5 44.5t-85.5 18q-45 0 -78 -15t-56 -43.5t-36.5 -69.5t-17.5 -93h-283q0 103 26 199.5t82 171.5t142.5 120.5t208.5 45.5q73 0 135.5 -18t117 -45t103 -58t93.5 -58t87.5 -45t85.5 -18
q45 0 78 15t56 43.5t36.5 69.5t18.5 93h282z" />
    <glyph glyph-name="Ograve" unicode="&#xd2;" horiz-adv-x="3760" 
d="M1880 -49q-260 0 -478 50.5t-394 145.5t-308.5 230.5t-221.5 306t-134 372t-45 427.5q0 218 46.5 416.5t137.5 368.5t225.5 308t310 235.5t391.5 150.5t470 53q260 0 478 -50.5t394 -145.5t308.5 -230.5t221.5 -306t134 -372t45 -427.5q0 -218 -46.5 -416.5
t-137.5 -368.5t-225.5 -308t-310 -235.5t-391.5 -150.5t-470 -53zM1880 287q195 0 355.5 42.5t288.5 120t223 186.5t158.5 242t94.5 286t31 319t-31 319t-94.5 286t-158.5 242t-223 186.5t-289 120t-355 42.5t-355 -42.5t-289 -120t-223 -186.5t-158.5 -242t-94.5 -286
t-31 -319t31 -319t94.5 -286t158.5 -242t223 -186.5t288.5 -120t355.5 -42.5zM1716 3162l-606 648h524l451 -648h-369z" />
    <glyph glyph-name="Oacute" unicode="&#xd3;" horiz-adv-x="3760" 
d="M1880 -49q-260 0 -478 50.5t-394 145.5t-308.5 230.5t-221.5 306t-134 372t-45 427.5q0 218 46.5 416.5t137.5 368.5t225.5 308t310 235.5t391.5 150.5t470 53q260 0 478 -50.5t394 -145.5t308.5 -230.5t221.5 -306t134 -372t45 -427.5q0 -218 -46.5 -416.5
t-137.5 -368.5t-225.5 -308t-310 -235.5t-391.5 -150.5t-470 -53zM1880 287q195 0 355.5 42.5t288.5 120t223 186.5t158.5 242t94.5 286t31 319t-31 319t-94.5 286t-158.5 242t-223 186.5t-289 120t-355 42.5t-355 -42.5t-289 -120t-223 -186.5t-158.5 -242t-94.5 -286
t-31 -319t31 -319t94.5 -286t158.5 -242t223 -186.5t288.5 -120t355.5 -42.5zM1680 3162l450 648h525l-607 -648h-368z" />
    <glyph glyph-name="Ocircumflex" unicode="&#xd4;" horiz-adv-x="3760" 
d="M1880 -49q-260 0 -478 50.5t-394 145.5t-308.5 230.5t-221.5 306t-134 372t-45 427.5q0 218 46.5 416.5t137.5 368.5t225.5 308t310 235.5t391.5 150.5t470 53q260 0 478 -50.5t394 -145.5t308.5 -230.5t221.5 -306t134 -372t45 -427.5q0 -218 -46.5 -416.5
t-137.5 -368.5t-225.5 -308t-310 -235.5t-391.5 -150.5t-470 -53zM1880 287q195 0 355.5 42.5t288.5 120t223 186.5t158.5 242t94.5 286t31 319t-31 319t-94.5 286t-158.5 242t-223 186.5t-289 120t-355 42.5t-355 -42.5t-289 -120t-223 -186.5t-158.5 -242t-94.5 -286
t-31 -319t31 -319t94.5 -286t158.5 -242t223 -186.5t288.5 -120t355.5 -42.5zM2306 3162l-426 328l-426 -328h-368l614 648h360l615 -648h-369z" />
    <glyph glyph-name="Otilde" unicode="&#xd5;" horiz-adv-x="3760" 
d="M1880 -49q-260 0 -478 50.5t-394 145.5t-308.5 230.5t-221.5 306t-134 372t-45 427.5q0 218 46.5 416.5t137.5 368.5t225.5 308t310 235.5t391.5 150.5t470 53q260 0 478 -50.5t394 -145.5t308.5 -230.5t221.5 -306t134 -372t45 -427.5q0 -218 -46.5 -416.5
t-137.5 -368.5t-225.5 -308t-310 -235.5t-391.5 -150.5t-470 -53zM1880 287q195 0 355.5 42.5t288.5 120t223 186.5t158.5 242t94.5 286t31 319t-31 319t-94.5 286t-158.5 242t-223 186.5t-289 120t-355 42.5t-355 -42.5t-289 -120t-223 -186.5t-158.5 -242t-94.5 -286
t-31 -319t31 -319t94.5 -286t158.5 -242t223 -186.5t288.5 -120t355.5 -42.5zM2658 3744q0 -103 -26 -199.5t-81.5 -171.5t-142.5 -120t-208 -45q-73 0 -135.5 18t-117.5 44.5t-103.5 58t-93.5 58t-87.5 44.5t-85.5 18q-45 0 -78 -15t-56 -43.5t-36.5 -69.5t-17.5 -93h-283
q0 103 26 199.5t82 171.5t142.5 120.5t208.5 45.5q73 0 135.5 -18t117 -45t103 -58t93.5 -58t87.5 -45t85.5 -18q45 0 78 15t56 43.5t36.5 69.5t18.5 93h282z" />
    <glyph glyph-name="Odieresis" unicode="&#xd6;" horiz-adv-x="3760" 
d="M1880 -49q-260 0 -478 50.5t-394 145.5t-308.5 230.5t-221.5 306t-134 372t-45 427.5q0 218 46.5 416.5t137.5 368.5t225.5 308t310 235.5t391.5 150.5t470 53q260 0 478 -50.5t394 -145.5t308.5 -230.5t221.5 -306t134 -372t45 -427.5q0 -218 -46.5 -416.5
t-137.5 -368.5t-225.5 -308t-310 -235.5t-391.5 -150.5t-470 -53zM1880 287q195 0 355.5 42.5t288.5 120t223 186.5t158.5 242t94.5 286t31 319t-31 319t-94.5 286t-158.5 242t-223 186.5t-289 120t-355 42.5t-355 -42.5t-289 -120t-223 -186.5t-158.5 -242t-94.5 -286
t-31 -319t31 -319t94.5 -286t158.5 -242t223 -186.5t288.5 -120t355.5 -42.5zM1127 3281v414h438v-414h-438zM2196 3281v414h438v-414h-438z" />
    <glyph glyph-name="multiply" unicode="&#xd7;" horiz-adv-x="3039" 
d="M1516 1016l-861 -676l-254 201l861 676l-861 679l254 201l861 -680l864 680l254 -201l-865 -679l865 -676l-254 -201z" />
    <glyph glyph-name="Oslash" unicode="&#xd8;" horiz-adv-x="3760" 
d="M205 0l434 442q-84 100 -148 216.5t-106.5 247.5t-64 275.5t-21.5 301.5q0 218 46.5 416.5t137.5 368.5t225.5 308t310 235.5t391.5 150.5t470 53q310 0 559.5 -71.5t439.5 -203.5l222 226h454l-434 -447q84 -98 148 -214t106.5 -247t64 -275.5t21.5 -299.5
q0 -218 -46.5 -416.5t-137.5 -368.5t-225.5 -308t-310 -235.5t-391.5 -150.5t-470 -53q-311 0 -561.5 71t-437.5 203l-222 -225h-454zM2605 2458q-135 104 -316.5 162.5t-408.5 58.5q-194 0 -355 -42.5t-289 -120t-223 -186.5t-158.5 -242t-94.5 -286t-31 -319
q0 -211 49.5 -399t151.5 -343zM1151 504q138 -104 320 -160.5t409 -56.5q195 0 355.5 42.5t288.5 120t223 186.5t158.5 242t94.5 286t31 319q0 210 -49 397.5t-152 339.5z" />
    <glyph glyph-name="Ugrave" unicode="&#xd9;" horiz-adv-x="3600" 
d="M2736 2966h422v-1848q0 -182 -43.5 -339.5t-126 -287t-202 -230.5t-270.5 -169.5t-331.5 -104.5t-386.5 -36q-209 0 -390.5 36t-332 104.5t-268.5 169.5t-199 230.5t-123.5 287t-42.5 339.5v1848h422v-1815q0 -207 59 -365.5t176 -266t292 -162t407 -54.5
q234 0 409.5 54.5t293 162t176.5 266t59 365.5v1815zM1634 3162l-606 648h524l451 -648h-369z" />
    <glyph glyph-name="Uacute" unicode="&#xda;" horiz-adv-x="3600" 
d="M2736 2966h422v-1848q0 -182 -43.5 -339.5t-126 -287t-202 -230.5t-270.5 -169.5t-331.5 -104.5t-386.5 -36q-209 0 -390.5 36t-332 104.5t-268.5 169.5t-199 230.5t-123.5 287t-42.5 339.5v1848h422v-1815q0 -207 59 -365.5t176 -266t292 -162t407 -54.5
q234 0 409.5 54.5t293 162t176.5 266t59 365.5v1815zM1598 3162l450 648h525l-607 -648h-368z" />
    <glyph glyph-name="Ucircumflex" unicode="&#xdb;" horiz-adv-x="3600" 
d="M2736 2966h422v-1848q0 -182 -43.5 -339.5t-126 -287t-202 -230.5t-270.5 -169.5t-331.5 -104.5t-386.5 -36q-209 0 -390.5 36t-332 104.5t-268.5 169.5t-199 230.5t-123.5 287t-42.5 339.5v1848h422v-1815q0 -207 59 -365.5t176 -266t292 -162t407 -54.5
q234 0 409.5 54.5t293 162t176.5 266t59 365.5v1815zM2224 3162l-426 328l-426 -328h-368l614 648h360l615 -648h-369z" />
    <glyph glyph-name="Udieresis" unicode="&#xdc;" horiz-adv-x="3600" 
d="M2736 2966h422v-1848q0 -182 -43.5 -339.5t-126 -287t-202 -230.5t-270.5 -169.5t-331.5 -104.5t-386.5 -36q-209 0 -390.5 36t-332 104.5t-268.5 169.5t-199 230.5t-123.5 287t-42.5 339.5v1848h422v-1815q0 -207 59 -365.5t176 -266t292 -162t407 -54.5
q234 0 409.5 54.5t293 162t176.5 266t59 365.5v1815zM1045 3281v414h438v-414h-438zM2114 3281v414h438v-414h-438z" />
    <glyph glyph-name="Yacute" unicode="&#xdd;" horiz-adv-x="3183" 
d="M1380 0v1106l-1372 1860h496l1089 -1520l1102 1520h479l-1372 -1856v-1110h-422zM1389 3162l450 648h525l-607 -648h-368z" />
    <glyph glyph-name="Thorn" unicode="&#xde;" horiz-adv-x="3142" 
d="M492 0v2966h418v-533h749q229 0 409.5 -30.5t318.5 -88t235.5 -139.5t159 -184.5t90 -223.5t28.5 -256q0 -203 -68.5 -374.5t-219.5 -297t-391 -196t-582 -70.5h-729v-573h-418zM1569 918q256 0 429 39t278 114.5t149.5 186t44.5 253.5t-44.5 251t-149.5 181t-278 109.5
t-429 36.5h-659v-1171h659z" />
    <glyph glyph-name="germandbls" unicode="&#xdf;" horiz-adv-x="3252" 
d="M1335 406q74 -29 160 -53.5t177.5 -42t186 -27t185.5 -9.5q160 0 281 21t202.5 66.5t122.5 118t41 175.5q0 72 -26.5 133t-74.5 113.5t-115 98.5t-147 86.5t-171 77.5t-187 73l-635 238v278l234 57q104 26 203 52t186.5 56.5t160.5 68.5t125.5 86.5t81.5 111t29 142.5
q0 98 -55.5 168.5t-152.5 115.5t-224.5 66.5t-288.5 21.5q-189 0 -333.5 -46t-238.5 -140t-139.5 -235.5t-45.5 -331.5v-1946h-406v1995q0 168 35.5 308.5t104 254t168.5 199t229.5 143t286.5 86.5t339 29q174 0 315 -18t267.5 -54.5t227 -91.5t172.5 -129.5t110.5 -169
t38.5 -209.5q0 -147 -66 -265t-182.5 -209t-272 -155t-336.5 -104l-20 -4l320 -115q144 -52 266.5 -103.5t222.5 -107.5t176 -119.5t127.5 -140t78 -169.5t26.5 -208q0 -114 -30.5 -209.5t-90.5 -172.5t-148.5 -135t-205 -97t-260.5 -58.5t-314 -19.5q-95 0 -191.5 8.5
t-189 25t-179 41t-161.5 56.5v324z" />
    <glyph glyph-name="agrave" unicode="&#xe0;" horiz-adv-x="2941" 
d="M2175 0l-33 193q-77 -56 -174 -100.5t-211 -76t-242 -48.5t-266 -17q-197 0 -366.5 38.5t-295 117t-197 197t-71.5 278.5q0 104 32 193t98.5 161t170 127.5t246.5 93t327 57t413 19.5q86 0 175 -2.5t168 -6t160 -7.5v73q0 129 -39.5 228.5t-124 167t-216.5 102.5t-316 35
q-158 0 -283 -10.5t-229.5 -30.5t-196.5 -49t-184 -66v315q83 37 178.5 68t209.5 53t248 34.5t294 12.5q238 0 434 -49.5t336.5 -149.5t217.5 -252t77 -356v-1343h-340zM2109 934h-405q-263 0 -446.5 -19t-299.5 -59.5t-168.5 -104.5t-52.5 -153q0 -81 33.5 -144t105 -105.5
t183 -64.5t268.5 -22q121 0 233.5 14t211.5 40.5t184 64.5t153 86v467zM1319 2408l-606 648h524l451 -648h-369z" />
    <glyph glyph-name="aacute" unicode="&#xe1;" horiz-adv-x="2941" 
d="M2175 0l-33 193q-77 -56 -174 -100.5t-211 -76t-242 -48.5t-266 -17q-197 0 -366.5 38.5t-295 117t-197 197t-71.5 278.5q0 104 32 193t98.5 161t170 127.5t246.5 93t327 57t413 19.5q86 0 175 -2.5t168 -6t160 -7.5v73q0 129 -39.5 228.5t-124 167t-216.5 102.5t-316 35
q-158 0 -283 -10.5t-229.5 -30.5t-196.5 -49t-184 -66v315q83 37 178.5 68t209.5 53t248 34.5t294 12.5q238 0 434 -49.5t336.5 -149.5t217.5 -252t77 -356v-1343h-340zM2109 934h-405q-263 0 -446.5 -19t-299.5 -59.5t-168.5 -104.5t-52.5 -153q0 -81 33.5 -144t105 -105.5
t183 -64.5t268.5 -22q121 0 233.5 14t211.5 40.5t184 64.5t153 86v467zM1282 2408l450 648h525l-607 -648h-368z" />
    <glyph glyph-name="acircumflex" unicode="&#xe2;" horiz-adv-x="2941" 
d="M2175 0l-33 193q-77 -56 -174 -100.5t-211 -76t-242 -48.5t-266 -17q-197 0 -366.5 38.5t-295 117t-197 197t-71.5 278.5q0 104 32 193t98.5 161t170 127.5t246.5 93t327 57t413 19.5q86 0 175 -2.5t168 -6t160 -7.5v73q0 129 -39.5 228.5t-124 167t-216.5 102.5t-316 35
q-158 0 -283 -10.5t-229.5 -30.5t-196.5 -49t-184 -66v315q83 37 178.5 68t209.5 53t248 34.5t294 12.5q238 0 434 -49.5t336.5 -149.5t217.5 -252t77 -356v-1343h-340zM2109 934h-405q-263 0 -446.5 -19t-299.5 -59.5t-168.5 -104.5t-52.5 -153q0 -81 33.5 -144t105 -105.5
t183 -64.5t268.5 -22q121 0 233.5 14t211.5 40.5t184 64.5t153 86v467zM1909 2408l-426 328l-426 -328h-368l614 648h360l615 -648h-369z" />
    <glyph glyph-name="atilde" unicode="&#xe3;" horiz-adv-x="2941" 
d="M2175 0l-33 193q-77 -56 -174 -100.5t-211 -76t-242 -48.5t-266 -17q-197 0 -366.5 38.5t-295 117t-197 197t-71.5 278.5q0 104 32 193t98.5 161t170 127.5t246.5 93t327 57t413 19.5q86 0 175 -2.5t168 -6t160 -7.5v73q0 129 -39.5 228.5t-124 167t-216.5 102.5t-316 35
q-158 0 -283 -10.5t-229.5 -30.5t-196.5 -49t-184 -66v315q83 37 178.5 68t209.5 53t248 34.5t294 12.5q238 0 434 -49.5t336.5 -149.5t217.5 -252t77 -356v-1343h-340zM2109 934h-405q-263 0 -446.5 -19t-299.5 -59.5t-168.5 -104.5t-52.5 -153q0 -81 33.5 -144t105 -105.5
t183 -64.5t268.5 -22q121 0 233.5 14t211.5 40.5t184 64.5t153 86v467zM2261 2990q0 -103 -26 -199.5t-81.5 -171.5t-142.5 -120t-208 -45q-73 0 -135.5 18t-117.5 44.5t-103.5 58t-93.5 58t-87.5 44.5t-85.5 18q-45 0 -78 -15t-56 -43.5t-36.5 -69.5t-17.5 -93h-283
q0 103 26 199.5t82 171.5t142.5 120.5t208.5 45.5q73 0 135.5 -18t117 -45t103 -58t93.5 -58t87.5 -45t85.5 -18q45 0 78 15t56 43.5t36.5 69.5t18.5 93h282z" />
    <glyph glyph-name="adieresis" unicode="&#xe4;" horiz-adv-x="2941" 
d="M2175 0l-33 193q-77 -56 -174 -100.5t-211 -76t-242 -48.5t-266 -17q-197 0 -366.5 38.5t-295 117t-197 197t-71.5 278.5q0 104 32 193t98.5 161t170 127.5t246.5 93t327 57t413 19.5q86 0 175 -2.5t168 -6t160 -7.5v73q0 129 -39.5 228.5t-124 167t-216.5 102.5t-316 35
q-158 0 -283 -10.5t-229.5 -30.5t-196.5 -49t-184 -66v315q83 37 178.5 68t209.5 53t248 34.5t294 12.5q238 0 434 -49.5t336.5 -149.5t217.5 -252t77 -356v-1343h-340zM2109 934h-405q-263 0 -446.5 -19t-299.5 -59.5t-168.5 -104.5t-52.5 -153q0 -81 33.5 -144t105 -105.5
t183 -64.5t268.5 -22q121 0 233.5 14t211.5 40.5t184 64.5t153 86v467zM730 2527v414h438v-414h-438zM1799 2527v414h438v-414h-438z" />
    <glyph glyph-name="aring" unicode="&#xe5;" horiz-adv-x="2941" 
d="M2175 0l-33 193q-77 -56 -174 -100.5t-211 -76t-242 -48.5t-266 -17q-197 0 -366.5 38.5t-295 117t-197 197t-71.5 278.5q0 104 32 193t98.5 161t170 127.5t246.5 93t327 57t413 19.5q86 0 175 -2.5t168 -6t160 -7.5v73q0 129 -39.5 228.5t-124 167t-216.5 102.5t-316 35
q-158 0 -283 -10.5t-229.5 -30.5t-196.5 -49t-184 -66v315q83 37 178.5 68t209.5 53t248 34.5t294 12.5q238 0 434 -49.5t336.5 -149.5t217.5 -252t77 -356v-1343h-340zM2109 934h-405q-263 0 -446.5 -19t-299.5 -59.5t-168.5 -104.5t-52.5 -153q0 -81 33.5 -144t105 -105.5
t183 -64.5t268.5 -22q121 0 233.5 14t211.5 40.5t184 64.5t153 86v467zM1938 2826q0 -93 -35.5 -173t-97 -138t-144.5 -90.5t-178 -32.5q-94 0 -177 32.5t-144.5 90.5t-97 138t-35.5 173q0 94 35.5 173.5t97 137.5t144.5 90.5t177 32.5q95 0 178 -32.5t144.5 -90.5
t97 -137.5t35.5 -173.5zM1483 2601q49 0 90 17.5t71 48t47 71.5t17 88t-17 87.5t-47 71t-71 49t-90 18.5t-90 -18.5t-71 -49t-47 -71t-17 -87.5t17 -88t47 -71.5t71 -48t90 -17.5z" />
    <glyph glyph-name="ae" unicode="&#xe6;" horiz-adv-x="4694" 
d="M4297 143q-89 -41 -193.5 -76.5t-224 -61t-254 -40t-283.5 -14.5q-174 0 -321 25.5t-269 73.5t-220 117t-173 157q-84 -77 -202 -145t-261 -118.5t-306.5 -80t-340.5 -29.5q-197 0 -366.5 40t-295 120t-197 199.5t-71.5 279.5q0 104 32 193.5t98.5 163t170 130
t246.5 94.5t327 58t413 20q120 0 251.5 -5t251.5 -11v57q0 129 -43 228.5t-130 167t-217.5 102.5t-305.5 35q-158 0 -283 -10.5t-229.5 -30.5t-196.5 -49t-184 -66v315q83 37 178.5 68t209.5 53t248 34.5t294 12.5t299 -25t254 -74t204.5 -122t151.5 -168q72 89 166 161
t209 122.5t252 78t295 27.5q183 0 340 -34.5t286 -99t228.5 -156t167 -205t102.5 -247.5t35 -282q0 -20 -0.5 -44.5t-2 -49.5t-3 -46.5t-2.5 -35.5h-1913q11 -140 60.5 -262t150 -213t257 -143.5t380.5 -52.5q152 0 281.5 15.5t243 41.5t213.5 60t192 71v-324zM1704 950
q-263 0 -446.5 -20.5t-299.5 -62.5t-168.5 -107t-52.5 -154q0 -81 33.5 -145t105 -108.5t183 -67.5t268.5 -23q120 0 245.5 23.5t244 62t222.5 89t181 104.5q-43 93 -70 194t-36 215h-410zM4043 1262q-9 127 -70.5 233.5t-163 182.5t-236.5 118.5t-292 42.5
q-158 0 -293.5 -42.5t-237 -118.5t-163 -182.5t-72.5 -233.5h1528z" />
    <glyph glyph-name="ccedilla" unicode="&#xe7;" horiz-adv-x="2568" 
d="M995 -643q41 -9 84.5 -15t108.5 -6q26 0 59 5.5t62.5 20.5t50 40.5t20.5 65.5q0 43 -24 75.5t-63 56.5t-89 39.5t-102 24.5l176 299q-237 23 -422.5 110.5t-313.5 228.5t-195.5 331.5t-67.5 419.5q0 156 34 298.5t102.5 264.5t172 220.5t242.5 168t314.5 107.5t387.5 38
q106 0 211.5 -9.5t203 -27t183 -41.5t151.5 -53v-331q-69 27 -154 51.5t-181.5 43t-203 29.5t-218.5 11q-220 0 -376.5 -56t-257 -157.5t-147.5 -243t-47 -313.5q0 -189 57 -333.5t162 -242.5t253 -148t331 -50q140 0 259.5 15.5t220.5 40t184 55t151 61.5v-340
q-74 -32 -155 -60.5t-179 -50t-217 -35t-268 -14.5l-94 -197q57 -14 105.5 -39t84 -60.5t56 -80t20.5 -98.5q0 -63 -17.5 -114t-48.5 -91t-73.5 -69.5t-92.5 -48.5t-105.5 -28.5t-112.5 -9.5q-62 0 -117 8.5t-105 20.5v213z" />
    <glyph glyph-name="egrave" unicode="&#xe8;" horiz-adv-x="2863" 
d="M2466 143q-89 -41 -190 -76.5t-218.5 -61t-253 -40t-293.5 -14.5q-207 0 -378.5 38t-308.5 109t-239 172t-170 226.5t-102 273t-34 311.5q0 150 35 288t103 256.5t168 215.5t230 165.5t289.5 106t345.5 37.5q183 0 340 -34.5t286 -99t228.5 -156t167 -205t102.5 -247.5
t35 -282q0 -20 -0.5 -42t-2 -43.5t-3 -40.5t-2.5 -33h-1917q11 -157 69 -284t166 -217t266.5 -138.5t370.5 -48.5q152 0 278.5 15.5t236 41.5t206.5 60t189 71v-324zM2212 1278q-14 124 -76.5 227.5t-163 177.5t-234 115t-288.5 41t-289 -41t-235 -115t-163.5 -177.5
t-74.5 -227.5h1524zM1315 2408l-606 648h524l451 -648h-369z" />
    <glyph glyph-name="eacute" unicode="&#xe9;" horiz-adv-x="2863" 
d="M2466 143q-89 -41 -190 -76.5t-218.5 -61t-253 -40t-293.5 -14.5q-207 0 -378.5 38t-308.5 109t-239 172t-170 226.5t-102 273t-34 311.5q0 150 35 288t103 256.5t168 215.5t230 165.5t289.5 106t345.5 37.5q183 0 340 -34.5t286 -99t228.5 -156t167 -205t102.5 -247.5
t35 -282q0 -20 -0.5 -42t-2 -43.5t-3 -40.5t-2.5 -33h-1917q11 -157 69 -284t166 -217t266.5 -138.5t370.5 -48.5q152 0 278.5 15.5t236 41.5t206.5 60t189 71v-324zM2212 1278q-14 124 -76.5 227.5t-163 177.5t-234 115t-288.5 41t-289 -41t-235 -115t-163.5 -177.5
t-74.5 -227.5h1524zM1278 2408l450 648h525l-607 -648h-368z" />
    <glyph glyph-name="ecircumflex" unicode="&#xea;" horiz-adv-x="2863" 
d="M2466 143q-89 -41 -190 -76.5t-218.5 -61t-253 -40t-293.5 -14.5q-207 0 -378.5 38t-308.5 109t-239 172t-170 226.5t-102 273t-34 311.5q0 150 35 288t103 256.5t168 215.5t230 165.5t289.5 106t345.5 37.5q183 0 340 -34.5t286 -99t228.5 -156t167 -205t102.5 -247.5
t35 -282q0 -20 -0.5 -42t-2 -43.5t-3 -40.5t-2.5 -33h-1917q11 -157 69 -284t166 -217t266.5 -138.5t370.5 -48.5q152 0 278.5 15.5t236 41.5t206.5 60t189 71v-324zM2212 1278q-14 124 -76.5 227.5t-163 177.5t-234 115t-288.5 41t-289 -41t-235 -115t-163.5 -177.5
t-74.5 -227.5h1524zM1904 2408l-426 328l-426 -328h-368l614 648h360l615 -648h-369z" />
    <glyph glyph-name="edieresis" unicode="&#xeb;" horiz-adv-x="2863" 
d="M2466 143q-89 -41 -190 -76.5t-218.5 -61t-253 -40t-293.5 -14.5q-207 0 -378.5 38t-308.5 109t-239 172t-170 226.5t-102 273t-34 311.5q0 150 35 288t103 256.5t168 215.5t230 165.5t289.5 106t345.5 37.5q183 0 340 -34.5t286 -99t228.5 -156t167 -205t102.5 -247.5
t35 -282q0 -20 -0.5 -42t-2 -43.5t-3 -40.5t-2.5 -33h-1917q11 -157 69 -284t166 -217t266.5 -138.5t370.5 -48.5q152 0 278.5 15.5t236 41.5t206.5 60t189 71v-324zM2212 1278q-14 124 -76.5 227.5t-163 177.5t-234 115t-288.5 41t-289 -41t-235 -115t-163.5 -177.5
t-74.5 -227.5h1524zM725 2527v414h438v-414h-438zM1794 2527v414h438v-414h-438z" />
    <glyph glyph-name="igrave" unicode="&#xec;" horiz-adv-x="1348" 
d="M471 0v2101h406v-2101h-406zM509 2408l-606 648h524l451 -648h-369z" />
    <glyph glyph-name="iacute" unicode="&#xed;" horiz-adv-x="1348" 
d="M471 0v2101h406v-2101h-406zM472 2408l450 648h525l-607 -648h-368z" />
    <glyph glyph-name="icircumflex" unicode="&#xee;" horiz-adv-x="1348" 
d="M471 0v2101h406v-2101h-406zM1099 2408l-426 328l-426 -328h-368l614 648h360l615 -648h-369z" />
    <glyph glyph-name="idieresis" unicode="&#xef;" horiz-adv-x="1348" 
d="M471 0v2101h406v-2101h-406zM-80 2527v414h438v-414h-438zM989 2527v414h438v-414h-438z" />
    <glyph glyph-name="eth" unicode="&#xf0;" horiz-adv-x="3088" 
d="M1942 2560q186 -137 344.5 -302t275 -355.5t182.5 -404.5t66 -449q0 -173 -34.5 -322t-104.5 -271t-174.5 -216t-245.5 -158.5t-317.5 -97.5t-389.5 -33q-216 0 -393.5 34t-318.5 98t-244.5 156t-172.5 208.5t-102.5 255t-33.5 296.5q0 156 39 294t112.5 254t178.5 208
t237.5 156.5t289.5 98.5t334 34q127 0 233 -13t193.5 -37t159 -57t131.5 -73q-120 170 -263 312t-310 257l-754 -287v271l475 184q-120 62 -247.5 114.5t-264.5 98.5l74 233q97 -24 195.5 -56.5t196.5 -72t195 -86t191 -100.5l692 266v-274zM1544 266q209 0 367.5 47
t265.5 139.5t161 228.5t54 314t-54 315t-161 230t-265.5 141t-367.5 48t-367.5 -47t-265.5 -139.5t-161 -229t-54 -314.5q0 -119 24 -219.5t72 -182t119 -143.5t165.5 -103.5t211.5 -63t256 -21.5z" />
    <glyph glyph-name="ntilde" unicode="&#xf1;" horiz-adv-x="3174" 
d="M2343 0v1274q0 157 -42 263.5t-125.5 171.5t-207.5 93.5t-289 28.5q-118 0 -231.5 -18t-217 -48t-193.5 -70t-160 -85v-1610h-406v2101h340l33 -209q78 57 179.5 104.5t220 81.5t250 53t271.5 19q132 0 256.5 -16.5t233.5 -54.5t200 -99t156 -151t101 -210t36 -276v-1343
h-405zM2404 2990q0 -103 -26 -199.5t-81.5 -171.5t-142.5 -120t-208 -45q-73 0 -135.5 18t-117.5 44.5t-103.5 58t-93.5 58t-87.5 44.5t-85.5 18q-45 0 -78 -15t-56 -43.5t-36.5 -69.5t-17.5 -93h-283q0 103 26 199.5t82 171.5t142.5 120.5t208.5 45.5q73 0 135.5 -18
t117 -45t103 -58t93.5 -58t87.5 -45t85.5 -18q45 0 78 15t56 43.5t36.5 69.5t18.5 93h282z" />
    <glyph glyph-name="ograve" unicode="&#xf2;" horiz-adv-x="3088" 
d="M1544 -49q-221 0 -401 38t-320.5 107.5t-243 168.5t-169.5 221.5t-99 265.5t-32 301q0 155 33 297t101 264t171.5 221t244 169t319 108t396.5 38q221 0 401 -38t320.5 -107.5t243.5 -168.5t169.5 -221.5t99 -265.5t32.5 -300q0 -156 -33 -298t-101 -264t-171.5 -221
t-244 -169t-319.5 -108t-397 -38zM1544 266q218 0 378 55.5t264.5 157.5t155 246.5t50.5 323.5q0 178 -50.5 323t-155 248t-264.5 159t-378 56t-377.5 -55.5t-264 -157.5t-155.5 -246.5t-51 -322.5t51 -323.5t155.5 -248.5t264 -159t377.5 -56zM1384 2408l-606 648h524
l451 -648h-369z" />
    <glyph glyph-name="oacute" unicode="&#xf3;" horiz-adv-x="3088" 
d="M1544 -49q-221 0 -401 38t-320.5 107.5t-243 168.5t-169.5 221.5t-99 265.5t-32 301q0 155 33 297t101 264t171.5 221t244 169t319 108t396.5 38q221 0 401 -38t320.5 -107.5t243.5 -168.5t169.5 -221.5t99 -265.5t32.5 -300q0 -156 -33 -298t-101 -264t-171.5 -221
t-244 -169t-319.5 -108t-397 -38zM1544 266q218 0 378 55.5t264.5 157.5t155 246.5t50.5 323.5q0 178 -50.5 323t-155 248t-264.5 159t-378 56t-377.5 -55.5t-264 -157.5t-155.5 -246.5t-51 -322.5t51 -323.5t155.5 -248.5t264 -159t377.5 -56zM1348 2408l450 648h525
l-607 -648h-368z" />
    <glyph glyph-name="ocircumflex" unicode="&#xf4;" horiz-adv-x="3088" 
d="M1544 -49q-221 0 -401 38t-320.5 107.5t-243 168.5t-169.5 221.5t-99 265.5t-32 301q0 155 33 297t101 264t171.5 221t244 169t319 108t396.5 38q221 0 401 -38t320.5 -107.5t243.5 -168.5t169.5 -221.5t99 -265.5t32.5 -300q0 -156 -33 -298t-101 -264t-171.5 -221
t-244 -169t-319.5 -108t-397 -38zM1544 266q218 0 378 55.5t264.5 157.5t155 246.5t50.5 323.5q0 178 -50.5 323t-155 248t-264.5 159t-378 56t-377.5 -55.5t-264 -157.5t-155.5 -246.5t-51 -322.5t51 -323.5t155.5 -248.5t264 -159t377.5 -56zM1974 2408l-426 328
l-426 -328h-368l614 648h360l615 -648h-369z" />
    <glyph glyph-name="otilde" unicode="&#xf5;" horiz-adv-x="3088" 
d="M1544 -49q-221 0 -401 38t-320.5 107.5t-243 168.5t-169.5 221.5t-99 265.5t-32 301q0 155 33 297t101 264t171.5 221t244 169t319 108t396.5 38q221 0 401 -38t320.5 -107.5t243.5 -168.5t169.5 -221.5t99 -265.5t32.5 -300q0 -156 -33 -298t-101 -264t-171.5 -221
t-244 -169t-319.5 -108t-397 -38zM1544 266q218 0 378 55.5t264.5 157.5t155 246.5t50.5 323.5q0 178 -50.5 323t-155 248t-264.5 159t-378 56t-377.5 -55.5t-264 -157.5t-155.5 -246.5t-51 -322.5t51 -323.5t155.5 -248.5t264 -159t377.5 -56zM2334 2990q0 -103 -26 -199.5
t-81.5 -171.5t-142.5 -120t-208 -45q-73 0 -135.5 18t-117.5 44.5t-103.5 58t-93.5 58t-87.5 44.5t-85.5 18q-45 0 -78 -15t-56 -43.5t-36.5 -69.5t-17.5 -93h-283q0 103 26 199.5t82 171.5t142.5 120.5t208.5 45.5q73 0 135.5 -18t117 -45t103 -58t93.5 -58t87.5 -45
t85.5 -18q45 0 78 15t56 43.5t36.5 69.5t18.5 93h282z" />
    <glyph glyph-name="odieresis" unicode="&#xf6;" horiz-adv-x="3088" 
d="M1544 -49q-221 0 -401 38t-320.5 107.5t-243 168.5t-169.5 221.5t-99 265.5t-32 301q0 155 33 297t101 264t171.5 221t244 169t319 108t396.5 38q221 0 401 -38t320.5 -107.5t243.5 -168.5t169.5 -221.5t99 -265.5t32.5 -300q0 -156 -33 -298t-101 -264t-171.5 -221
t-244 -169t-319.5 -108t-397 -38zM1544 266q218 0 378 55.5t264.5 157.5t155 246.5t50.5 323.5q0 178 -50.5 323t-155 248t-264.5 159t-378 56t-377.5 -55.5t-264 -157.5t-155.5 -246.5t-51 -322.5t51 -323.5t155.5 -248.5t264 -159t377.5 -56zM795 2527v414h438v-414h-438z
M1864 2527v414h438v-414h-438z" />
    <glyph glyph-name="divide" unicode="&#xf7;" horiz-adv-x="3039" 
d="M262 1069v320h2515v-320h-2515zM1270 1958v500h499v-500h-499zM1270 0v500h499v-500h-499z" />
    <glyph glyph-name="oslash" unicode="&#xf8;" horiz-adv-x="3088" 
d="M139 0l373 332q-60 70 -104 152t-72.5 173t-42.5 190.5t-14 205.5q0 155 33 297t101 264t171.5 221t244 169t319 108t396.5 38q255 0 455 -50t348 -142l164 143h438l-377 -332q61 -72 106 -154.5t74.5 -173.5t43.5 -189.5t14 -202.5q0 -156 -33 -298t-101 -264
t-171.5 -221t-244 -169t-319.5 -108t-397 -38q-258 0 -457 50t-350 142l-159 -143h-439zM1016 389q102 -59 231.5 -91t296.5 -32q218 0 378 55.5t264.5 157.5t155 246.5t50.5 323.5q0 133 -28 247t-87 207zM2068 1708q-99 62 -229.5 94.5t-294.5 32.5q-218 0 -377.5 -55.5
t-264 -157.5t-155.5 -246.5t-51 -322.5q0 -137 28 -250t87 -209z" />
    <glyph glyph-name="ugrave" unicode="&#xf9;" horiz-adv-x="3133" 
d="M2322 0l-32 180q-78 -51 -174 -93t-205.5 -72t-230.5 -47t-250 -17q-132 0 -258 13.5t-237.5 47.5t-205 91t-161 144.5t-105 208t-37.5 281.5v1364h405v-1294q0 -149 45.5 -251.5t132.5 -166t214.5 -91.5t292.5 -28q120 0 219 13t187 38.5t169.5 63t165.5 86.5v1630h405
v-2101h-340zM1380 2408l-606 648h524l451 -648h-369z" />
    <glyph glyph-name="uacute" unicode="&#xfa;" horiz-adv-x="3133" 
d="M2322 0l-32 180q-78 -51 -174 -93t-205.5 -72t-230.5 -47t-250 -17q-132 0 -258 13.5t-237.5 47.5t-205 91t-161 144.5t-105 208t-37.5 281.5v1364h405v-1294q0 -149 45.5 -251.5t132.5 -166t214.5 -91.5t292.5 -28q120 0 219 13t187 38.5t169.5 63t165.5 86.5v1630h405
v-2101h-340zM1344 2408l450 648h525l-607 -648h-368z" />
    <glyph glyph-name="ucircumflex" unicode="&#xfb;" horiz-adv-x="3133" 
d="M2322 0l-32 180q-78 -51 -174 -93t-205.5 -72t-230.5 -47t-250 -17q-132 0 -258 13.5t-237.5 47.5t-205 91t-161 144.5t-105 208t-37.5 281.5v1364h405v-1294q0 -149 45.5 -251.5t132.5 -166t214.5 -91.5t292.5 -28q120 0 219 13t187 38.5t169.5 63t165.5 86.5v1630h405
v-2101h-340zM1970 2408l-426 328l-426 -328h-368l614 648h360l615 -648h-369z" />
    <glyph glyph-name="udieresis" unicode="&#xfc;" horiz-adv-x="3133" 
d="M2322 0l-32 180q-78 -51 -174 -93t-205.5 -72t-230.5 -47t-250 -17q-132 0 -258 13.5t-237.5 47.5t-205 91t-161 144.5t-105 208t-37.5 281.5v1364h405v-1294q0 -149 45.5 -251.5t132.5 -166t214.5 -91.5t292.5 -28q120 0 219 13t187 38.5t169.5 63t165.5 86.5v1630h405
v-2101h-340zM791 2527v414h438v-414h-438zM1860 2527v414h438v-414h-438z" />
    <glyph glyph-name="yacute" unicode="&#xfd;" horiz-adv-x="2630" 
d="M16 -553q41 -9 90.5 -17t114.5 -8q95 0 180 13.5t160.5 41.5t142.5 70.5t127.5 101t114.5 133t103 165.5l53 98l-1053 2056h451l680 -1384q37 -75 71.5 -146.5t71.5 -148.5q37 77 71.5 151t71.5 148l672 1380h442l-1110 -2162q-67 -130 -140 -244t-157.5 -208.5
t-182.5 -169t-214 -125.5t-252.5 -78t-298.5 -27q-24 0 -52.5 1.5t-56.5 5t-54 8.5t-46 13v332zM1098 2408l450 648h525l-607 -648h-368z" />
    <glyph glyph-name="thorn" unicode="&#xfe;" horiz-adv-x="3174" 
d="M471 -864v3830h405v-1057q43 34 111.5 75.5t164 78.5t219.5 62t279 25q303 0 535.5 -81.5t390.5 -227.5t239 -347t81 -441q0 -160 -36.5 -303.5t-107.5 -266t-176.5 -221t-244 -167.5t-309 -106.5t-372.5 -37.5q-152 0 -275.5 23.5t-220 58.5t-166 75t-112.5 72v-1044
h-405zM876 471q75 -48 159 -86t175 -64.5t189 -40.5t202 -14q214 0 378 49.5t276 148.5t169.5 246.5t57.5 342.5t-57.5 341.5t-169.5 244.5t-276 147t-378 49q-104 0 -202 -14t-189 -40.5t-175 -64.5t-159 -86v-1159z" />
    <glyph glyph-name="ydieresis" unicode="&#xff;" horiz-adv-x="2630" 
d="M16 -553q41 -9 90.5 -17t114.5 -8q95 0 180 13.5t160.5 41.5t142.5 70.5t127.5 101t114.5 133t103 165.5l53 98l-1053 2056h451l680 -1384q37 -75 71.5 -146.5t71.5 -148.5q37 77 71.5 151t71.5 148l672 1380h442l-1110 -2162q-67 -130 -140 -244t-157.5 -208.5
t-182.5 -169t-214 -125.5t-252.5 -78t-298.5 -27q-24 0 -52.5 1.5t-56.5 5t-54 8.5t-46 13v332zM545 2527v414h438v-414h-438zM1614 2527v414h438v-414h-438z" />
    <glyph glyph-name="Amacron" unicode="&#x100;" horiz-adv-x="3494" 
d="M3002 0l-367 731l-1 2h-1786l-1 -2l-364 -731h-463l1483 2966h488l1482 -2966h-471zM1917 2220q-43 87 -88 179t-88 181q-44 -89 -88.5 -179.5t-87.5 -180.5l-565 -1141l-1 -2h1483l-1 2zM1028 3302v307h1426v-307h-1426z" />
    <glyph glyph-name="amacron" unicode="&#x101;" horiz-adv-x="2941" 
d="M2175 0l-33 193q-77 -56 -174 -100.5t-211 -76t-242 -48.5t-266 -17q-197 0 -366.5 38.5t-295 117t-197 197t-71.5 278.5q0 104 32 193t98.5 161t170 127.5t246.5 93t327 57t413 19.5q86 0 175 -2.5t168 -6t160 -7.5v73q0 129 -39.5 228.5t-124 167t-216.5 102.5t-316 35
q-158 0 -283 -10.5t-229.5 -30.5t-196.5 -49t-184 -66v315q83 37 178.5 68t209.5 53t248 34.5t294 12.5q238 0 434 -49.5t336.5 -149.5t217.5 -252t77 -356v-1343h-340zM2109 934h-405q-263 0 -446.5 -19t-299.5 -59.5t-168.5 -104.5t-52.5 -153q0 -81 33.5 -144t105 -105.5
t183 -64.5t268.5 -22q121 0 233.5 14t211.5 40.5t184 64.5t153 86v467zM770 2548v307h1426v-307h-1426z" />
    <glyph glyph-name="Abreve" unicode="&#x102;" horiz-adv-x="3494" 
d="M3002 0l-367 731l-1 2h-1786l-1 -2l-364 -731h-463l1483 2966h488l1482 -2966h-471zM1917 2220q-43 87 -88 179t-88 181q-44 -89 -88.5 -179.5t-87.5 -180.5l-565 -1141l-1 -2h1483l-1 2zM2454 3810q-3 -154 -54.5 -278.5t-144 -213t-223 -136.5t-291.5 -48t-291.5 48
t-223 136.5t-144 213t-54.5 278.5h287q8 -88 38 -156t83 -114.5t129 -70.5t176 -24t176 24t129 70.5t83 114.5t38 156h287z" />
    <glyph glyph-name="abreve" unicode="&#x103;" horiz-adv-x="2941" 
d="M2175 0l-33 193q-77 -56 -174 -100.5t-211 -76t-242 -48.5t-266 -17q-197 0 -366.5 38.5t-295 117t-197 197t-71.5 278.5q0 104 32 193t98.5 161t170 127.5t246.5 93t327 57t413 19.5q86 0 175 -2.5t168 -6t160 -7.5v73q0 129 -39.5 228.5t-124 167t-216.5 102.5t-316 35
q-158 0 -283 -10.5t-229.5 -30.5t-196.5 -49t-184 -66v315q83 37 178.5 68t209.5 53t248 34.5t294 12.5q238 0 434 -49.5t336.5 -149.5t217.5 -252t77 -356v-1343h-340zM2109 934h-405q-263 0 -446.5 -19t-299.5 -59.5t-168.5 -104.5t-52.5 -153q0 -81 33.5 -144t105 -105.5
t183 -64.5t268.5 -22q121 0 233.5 14t211.5 40.5t184 64.5t153 86v467zM2196 3056q-3 -154 -54.5 -278.5t-144 -213t-223 -136.5t-291.5 -48t-291.5 48t-223 136.5t-144 213t-54.5 278.5h287q8 -88 38 -156t83 -114.5t129 -70.5t176 -24t176 24t129 70.5t83 114.5t38 156
h287z" />
    <glyph glyph-name="Aogonek" unicode="&#x104;" horiz-adv-x="3494" 
d="M3346 -860q-49 -13 -105.5 -19t-115.5 -6q-126 0 -215.5 32t-146 83.5t-83 118t-26.5 135.5q0 80 30 152.5t79.5 137.5t111.5 121.5t127 104.5l-367 731l-1 2h-1786l-1 -2l-364 -731h-463l1483 2966h488l1482 -2966h-225q-59 -57 -111 -115t-91 -115.5t-62 -114
t-23 -110.5q0 -101 62 -150.5t176 -49.5q23 0 43 1.5t38 3.5t34.5 5t31.5 6v-221zM1917 2220q-43 87 -88 179t-88 181q-44 -89 -88.5 -179.5t-87.5 -180.5l-565 -1141l-1 -2h1483l-1 2z" />
    <glyph glyph-name="aogonek" unicode="&#x105;" horiz-adv-x="2941" 
d="M2515 -860q-50 -13 -106 -19t-115 -6q-126 0 -215.5 32t-146 83.5t-83 118t-26.5 135.5q0 81 30 154t79.5 137.5t113 120.5t129.5 104l-33 193q-77 -56 -174 -100.5t-211 -76t-242 -48.5t-266 -17q-197 0 -366.5 38.5t-295 117t-197 197t-71.5 278.5q0 104 32 193
t98.5 161t170 127.5t246.5 93t327 57t413 19.5q86 0 175 -2.5t168 -6t160 -7.5v73q0 129 -39.5 228.5t-124 167t-216.5 102.5t-316 35q-158 0 -283 -10.5t-229.5 -30.5t-196.5 -49t-184 -66v315q83 37 178.5 68t209.5 53t248 34.5t294 12.5q238 0 434 -49.5t336.5 -149.5
t217.5 -252t77 -356v-1343h-98q-59 -57 -111 -115t-91 -115.5t-62 -114t-23 -110.5q0 -101 62 -150.5t175 -49.5q23 0 43.5 1.5t38.5 3.5t34.5 5t31.5 6v-221zM2109 934h-405q-263 0 -446.5 -19t-299.5 -59.5t-168.5 -104.5t-52.5 -153q0 -81 33.5 -144t105 -105.5
t183 -64.5t268.5 -22q121 0 233.5 14t211.5 40.5t184 64.5t153 86v467z" />
    <glyph glyph-name="Cacute" unicode="&#x106;" horiz-adv-x="3146" 
d="M2900 98q-77 -31 -176 -57.5t-219.5 -46.5t-262.5 -31.5t-305 -11.5q-235 0 -448 43t-395 128.5t-329 213.5t-250.5 298t-159.5 382.5t-56 466.5q0 240 56 447.5t158 377.5t247 302t323 222t384.5 136.5t433.5 46.5q121 0 245.5 -9.5t245 -29t233 -49.5t209.5 -72v-365
q-110 45 -223 76t-224 50.5t-219.5 28.5t-209.5 9q-185 0 -348 -32t-300 -97t-244.5 -162t-182.5 -227t-114.5 -293.5t-39.5 -359.5q0 -219 48.5 -391.5t134 -303t201.5 -222t251.5 -149.5t283.5 -84t298 -26q178 0 326 14t266.5 35t208.5 46.5t153 48.5v-353zM1643 3162
l450 648h525l-607 -648h-368z" />
    <glyph glyph-name="cacute" unicode="&#x107;" horiz-adv-x="2568" 
d="M2314 111q-75 -32 -159 -61t-186 -51t-227.5 -35t-283.5 -13q-278 0 -497 79t-370.5 223t-231.5 347.5t-80 452.5q0 156 34 298.5t102.5 264.5t172 220.5t242.5 168t314.5 107.5t387.5 38q106 0 211.5 -9.5t203 -27t183 -41.5t151.5 -53v-331q-69 27 -154 51.5t-181.5 43
t-203 29.5t-218.5 11q-220 0 -376.5 -56t-257 -157.5t-147.5 -243t-47 -313.5q0 -189 57 -333.5t162 -242.5t253 -148t331 -50q140 0 259.5 15.5t220.5 40t184 55t151 61.5v-340zM1290 2408l450 648h525l-607 -648h-368z" />
    <glyph glyph-name="Ccircumflex" unicode="&#x108;" horiz-adv-x="3146" 
d="M2900 98q-77 -31 -176 -57.5t-219.5 -46.5t-262.5 -31.5t-305 -11.5q-235 0 -448 43t-395 128.5t-329 213.5t-250.5 298t-159.5 382.5t-56 466.5q0 240 56 447.5t158 377.5t247 302t323 222t384.5 136.5t433.5 46.5q121 0 245.5 -9.5t245 -29t233 -49.5t209.5 -72v-365
q-110 45 -223 76t-224 50.5t-219.5 28.5t-209.5 9q-185 0 -348 -32t-300 -97t-244.5 -162t-182.5 -227t-114.5 -293.5t-39.5 -359.5q0 -219 48.5 -391.5t134 -303t201.5 -222t251.5 -149.5t283.5 -84t298 -26q178 0 326 14t266.5 35t208.5 46.5t153 48.5v-353zM2269 3162
l-426 328l-426 -328h-368l614 648h360l615 -648h-369z" />
    <glyph glyph-name="ccircumflex" unicode="&#x109;" horiz-adv-x="2568" 
d="M2314 111q-75 -32 -159 -61t-186 -51t-227.5 -35t-283.5 -13q-278 0 -497 79t-370.5 223t-231.5 347.5t-80 452.5q0 156 34 298.5t102.5 264.5t172 220.5t242.5 168t314.5 107.5t387.5 38q106 0 211.5 -9.5t203 -27t183 -41.5t151.5 -53v-331q-69 27 -154 51.5t-181.5 43
t-203 29.5t-218.5 11q-220 0 -376.5 -56t-257 -157.5t-147.5 -243t-47 -313.5q0 -189 57 -333.5t162 -242.5t253 -148t331 -50q140 0 259.5 15.5t220.5 40t184 55t151 61.5v-340zM1917 2408l-426 328l-426 -328h-368l614 648h360l615 -648h-369z" />
    <glyph glyph-name="Cdotaccent" unicode="&#x10a;" horiz-adv-x="3146" 
d="M2900 98q-77 -31 -176 -57.5t-219.5 -46.5t-262.5 -31.5t-305 -11.5q-235 0 -448 43t-395 128.5t-329 213.5t-250.5 298t-159.5 382.5t-56 466.5q0 240 56 447.5t158 377.5t247 302t323 222t384.5 136.5t433.5 46.5q121 0 245.5 -9.5t245 -29t233 -49.5t209.5 -72v-365
q-110 45 -223 76t-224 50.5t-219.5 28.5t-209.5 9q-185 0 -348 -32t-300 -97t-244.5 -162t-182.5 -227t-114.5 -293.5t-39.5 -359.5q0 -219 48.5 -391.5t134 -303t201.5 -222t251.5 -149.5t283.5 -84t298 -26q178 0 326 14t266.5 35t208.5 46.5t153 48.5v-353zM1618 3257
v446h454v-446h-454z" />
    <glyph glyph-name="cdotaccent" unicode="&#x10b;" horiz-adv-x="2568" 
d="M2314 111q-75 -32 -159 -61t-186 -51t-227.5 -35t-283.5 -13q-278 0 -497 79t-370.5 223t-231.5 347.5t-80 452.5q0 156 34 298.5t102.5 264.5t172 220.5t242.5 168t314.5 107.5t387.5 38q106 0 211.5 -9.5t203 -27t183 -41.5t151.5 -53v-331q-69 27 -154 51.5t-181.5 43
t-203 29.5t-218.5 11q-220 0 -376.5 -56t-257 -157.5t-147.5 -243t-47 -313.5q0 -189 57 -333.5t162 -242.5t253 -148t331 -50q140 0 259.5 15.5t220.5 40t184 55t151 61.5v-340zM1266 2503v446h454v-446h-454z" />
    <glyph glyph-name="Ccaron" unicode="&#x10c;" horiz-adv-x="3146" 
d="M2900 98q-77 -31 -176 -57.5t-219.5 -46.5t-262.5 -31.5t-305 -11.5q-235 0 -448 43t-395 128.5t-329 213.5t-250.5 298t-159.5 382.5t-56 466.5q0 240 56 447.5t158 377.5t247 302t323 222t384.5 136.5t433.5 46.5q121 0 245.5 -9.5t245 -29t233 -49.5t209.5 -72v-365
q-110 45 -223 76t-224 50.5t-219.5 28.5t-209.5 9q-185 0 -348 -32t-300 -97t-244.5 -162t-182.5 -227t-114.5 -293.5t-39.5 -359.5q0 -219 48.5 -391.5t134 -303t201.5 -222t251.5 -149.5t283.5 -84t298 -26q178 0 326 14t266.5 35t208.5 46.5t153 48.5v-353zM1663 3162
l-614 648h368l426 -332l426 332h369l-615 -648h-360z" />
    <glyph glyph-name="ccaron" unicode="&#x10d;" horiz-adv-x="2568" 
d="M2314 111q-75 -32 -159 -61t-186 -51t-227.5 -35t-283.5 -13q-278 0 -497 79t-370.5 223t-231.5 347.5t-80 452.5q0 156 34 298.5t102.5 264.5t172 220.5t242.5 168t314.5 107.5t387.5 38q106 0 211.5 -9.5t203 -27t183 -41.5t151.5 -53v-331q-69 27 -154 51.5t-181.5 43
t-203 29.5t-218.5 11q-220 0 -376.5 -56t-257 -157.5t-147.5 -243t-47 -313.5q0 -189 57 -333.5t162 -242.5t253 -148t331 -50q140 0 259.5 15.5t220.5 40t184 55t151 61.5v-340zM1311 2408l-614 648h368l426 -332l426 332h369l-615 -648h-360z" />
    <glyph glyph-name="Dcaron" unicode="&#x10e;" horiz-adv-x="3592" 
d="M492 0v2966h1179q260 0 481.5 -47t401.5 -136.5t318 -219t231.5 -294t141.5 -362.5t48 -424q0 -218 -49.5 -413t-145 -359.5t-235.5 -296t-320 -224t-399 -141.5t-473 -49h-1179zM1700 344q195 0 356.5 38.5t291 109.5t226 172.5t161 228t96.5 275.5t32 315t-32 314.5
t-96.5 275t-161 228t-226 172.5t-291.5 109.5t-356 38.5h-787v-2277h787zM1430 3162l-614 648h368l426 -332l426 332h369l-615 -648h-360z" />
    <glyph glyph-name="dcaron" unicode="&#x10f;" horiz-adv-x="3178" 
d="M2367 0l-32 184q-75 -51 -170.5 -93.5t-203.5 -73.5t-226.5 -48.5t-239.5 -17.5q-278 0 -502.5 73.5t-383 214.5t-244.5 346t-86 468q0 256 84 459.5t243 345.5t389.5 217t524.5 75q112 0 220.5 -13t208.5 -37.5t189.5 -61t163.5 -84.5v1012h405v-2966h-340zM2302 1630
q-75 48 -159 86t-175 64.5t-189 40.5t-202 14q-213 0 -377.5 -49t-276.5 -147t-169.5 -244.5t-57.5 -341.5t57.5 -342.5t169.5 -246.5t276.5 -148.5t377.5 -49.5q104 0 202 14t189 40.5t175 64.5t159 86v1159zM3055 2114l123 438l-102 414h249q51 0 95 -15t77 -43.5
t51.5 -70t18.5 -93.5q0 -58 -12.5 -111.5t-34 -107t-51.5 -110.5t-66 -121l-98 -180h-250z" />
    <glyph glyph-name="Dcroat" unicode="&#x110;" horiz-adv-x="3641" 
d="M541 0v1331h-287v307h287v1328h1179q260 0 481.5 -47t401.5 -136.5t318 -219t231.5 -294t141.5 -362.5t48 -424q0 -218 -49.5 -413t-145 -359.5t-235.5 -296t-320 -224t-399 -141.5t-473 -49h-1179zM1749 344q194 0 356 38.5t291.5 109.5t226 172.5t161 228t96.5 275.5
t32 315t-32 314.5t-96.5 275t-161 228t-226 172.5t-291.5 109.5t-356 38.5h-786v-983h815v-307h-815v-987h786z" />
    <glyph glyph-name="dcroat" unicode="&#x111;" horiz-adv-x="3178" 
d="M2367 0l-32 184q-75 -51 -170.5 -93.5t-203.5 -73.5t-226.5 -48.5t-239.5 -17.5q-278 0 -502.5 73.5t-383 214.5t-244.5 346t-86 468q0 256 84 459.5t243 345.5t389.5 217t524.5 75q112 0 220.5 -13t208.5 -37.5t189.5 -61t163.5 -84.5v459h-467v307h467v246h405v-246
h308v-307h-308v-2413h-340zM2302 1630q-75 48 -159 86t-175 64.5t-189 40.5t-202 14q-213 0 -377.5 -49t-276.5 -147t-169.5 -244.5t-57.5 -341.5t57.5 -342.5t169.5 -246.5t276.5 -148.5t377.5 -49.5q104 0 202 14t189 40.5t175 64.5t159 86v1159z" />
    <glyph glyph-name="Emacron" unicode="&#x112;" horiz-adv-x="3162" 
d="M492 0v2966h2359v-345h-1938v-925h1692v-344h-1692v-1008h1962v-344h-2383zM974 3302v307h1426v-307h-1426z" />
    <glyph glyph-name="emacron" unicode="&#x113;" horiz-adv-x="2863" 
d="M2466 143q-89 -41 -190 -76.5t-218.5 -61t-253 -40t-293.5 -14.5q-207 0 -378.5 38t-308.5 109t-239 172t-170 226.5t-102 273t-34 311.5q0 150 35 288t103 256.5t168 215.5t230 165.5t289.5 106t345.5 37.5q183 0 340 -34.5t286 -99t228.5 -156t167 -205t102.5 -247.5
t35 -282q0 -20 -0.5 -42t-2 -43.5t-3 -40.5t-2.5 -33h-1917q11 -157 69 -284t166 -217t266.5 -138.5t370.5 -48.5q152 0 278.5 15.5t236 41.5t206.5 60t189 71v-324zM2212 1278q-14 124 -76.5 227.5t-163 177.5t-234 115t-288.5 41t-289 -41t-235 -115t-163.5 -177.5
t-74.5 -227.5h1524zM765 2548v307h1426v-307h-1426z" />
    <glyph glyph-name="Ebreve" unicode="&#x114;" horiz-adv-x="3162" 
d="M492 0v2966h2359v-345h-1938v-925h1692v-344h-1692v-1008h1962v-344h-2383zM2400 3810q-3 -154 -54.5 -278.5t-144 -213t-223 -136.5t-291.5 -48t-291.5 48t-223 136.5t-144 213t-54.5 278.5h287q8 -88 38 -156t83 -114.5t129 -70.5t176 -24t176 24t129 70.5t83 114.5
t38 156h287z" />
    <glyph glyph-name="ebreve" unicode="&#x115;" horiz-adv-x="2863" 
d="M2466 143q-89 -41 -190 -76.5t-218.5 -61t-253 -40t-293.5 -14.5q-207 0 -378.5 38t-308.5 109t-239 172t-170 226.5t-102 273t-34 311.5q0 150 35 288t103 256.5t168 215.5t230 165.5t289.5 106t345.5 37.5q183 0 340 -34.5t286 -99t228.5 -156t167 -205t102.5 -247.5
t35 -282q0 -20 -0.5 -42t-2 -43.5t-3 -40.5t-2.5 -33h-1917q11 -157 69 -284t166 -217t266.5 -138.5t370.5 -48.5q152 0 278.5 15.5t236 41.5t206.5 60t189 71v-324zM2212 1278q-14 124 -76.5 227.5t-163 177.5t-234 115t-288.5 41t-289 -41t-235 -115t-163.5 -177.5
t-74.5 -227.5h1524zM2191 3056q-3 -154 -54.5 -278.5t-144 -213t-223 -136.5t-291.5 -48t-291.5 48t-223 136.5t-144 213t-54.5 278.5h287q8 -88 38 -156t83 -114.5t129 -70.5t176 -24t176 24t129 70.5t83 114.5t38 156h287z" />
    <glyph glyph-name="Edotaccent" unicode="&#x116;" horiz-adv-x="3162" 
d="M492 0v2966h2359v-345h-1938v-925h1692v-344h-1692v-1008h1962v-344h-2383zM1462 3257v446h454v-446h-454z" />
    <glyph glyph-name="edotaccent" unicode="&#x117;" horiz-adv-x="2863" 
d="M2466 143q-89 -41 -190 -76.5t-218.5 -61t-253 -40t-293.5 -14.5q-207 0 -378.5 38t-308.5 109t-239 172t-170 226.5t-102 273t-34 311.5q0 150 35 288t103 256.5t168 215.5t230 165.5t289.5 106t345.5 37.5q183 0 340 -34.5t286 -99t228.5 -156t167 -205t102.5 -247.5
t35 -282q0 -20 -0.5 -42t-2 -43.5t-3 -40.5t-2.5 -33h-1917q11 -157 69 -284t166 -217t266.5 -138.5t370.5 -48.5q152 0 278.5 15.5t236 41.5t206.5 60t189 71v-324zM2212 1278q-14 124 -76.5 227.5t-163 177.5t-234 115t-288.5 41t-289 -41t-235 -115t-163.5 -177.5
t-74.5 -227.5h1524zM1254 2503v446h454v-446h-454z" />
    <glyph glyph-name="Eogonek" unicode="&#x118;" horiz-adv-x="3162" 
d="M2875 -860q-49 -13 -105.5 -19t-115.5 -6q-126 0 -215.5 32t-146 83.5t-83 118t-26.5 135.5q0 80 30 152.5t79.5 137.5t111.5 121.5t127 104.5h-2039v2966h2359v-345h-1938v-925h1692v-344h-1692v-1008h1962v-344h-98q-59 -57 -111 -115t-91 -115.5t-62 -114t-23 -110.5
q0 -101 62 -150.5t176 -49.5q23 0 43 1.5t38 3.5t34.5 5t31.5 6v-221z" />
    <glyph glyph-name="eogonek" unicode="&#x119;" horiz-adv-x="2863" 
d="M2466 -860q-50 -13 -106.5 -19t-114.5 -6q-126 0 -215.5 32t-146 83.5t-83 118t-26.5 135.5q0 75 26.5 148t70.5 140.5t102.5 128t123.5 111.5q-124 -28 -268 -44.5t-318 -16.5q-207 0 -378.5 38t-308.5 109t-239 172t-170 226.5t-102 273t-34 311.5q0 150 35 288
t103 256.5t168 215.5t230 165.5t289.5 106t345.5 37.5q183 0 340 -34.5t286 -99t228.5 -156t167 -205t102.5 -247.5t35 -282q0 -20 -0.5 -42t-2 -43.5t-3 -40.5t-2.5 -33h-1917q11 -157 69 -284t166 -217t266.5 -138.5t370.5 -48.5q152 0 278.5 15.5t236 41.5t206.5 60
t189 71v-324q-103 -95 -176 -178t-119.5 -156.5t-68 -138.5t-21.5 -125q0 -101 62 -150.5t175 -49.5q23 0 43.5 1.5t38.5 3.5t34.5 5t31.5 6v-221zM2212 1278q-14 124 -76.5 227.5t-163 177.5t-234 115t-288.5 41t-289 -41t-235 -115t-163.5 -177.5t-74.5 -227.5h1524z" />
    <glyph glyph-name="Ecaron" unicode="&#x11a;" horiz-adv-x="3162" 
d="M492 0v2966h2359v-345h-1938v-925h1692v-344h-1692v-1008h1962v-344h-2383zM1507 3162l-614 648h368l426 -332l426 332h369l-615 -648h-360z" />
    <glyph glyph-name="ecaron" unicode="&#x11b;" horiz-adv-x="2863" 
d="M2466 143q-89 -41 -190 -76.5t-218.5 -61t-253 -40t-293.5 -14.5q-207 0 -378.5 38t-308.5 109t-239 172t-170 226.5t-102 273t-34 311.5q0 150 35 288t103 256.5t168 215.5t230 165.5t289.5 106t345.5 37.5q183 0 340 -34.5t286 -99t228.5 -156t167 -205t102.5 -247.5
t35 -282q0 -20 -0.5 -42t-2 -43.5t-3 -40.5t-2.5 -33h-1917q11 -157 69 -284t166 -217t266.5 -138.5t370.5 -48.5q152 0 278.5 15.5t236 41.5t206.5 60t189 71v-324zM2212 1278q-14 124 -76.5 227.5t-163 177.5t-234 115t-288.5 41t-289 -41t-235 -115t-163.5 -177.5
t-74.5 -227.5h1524zM1298 2408l-614 648h368l426 -332l426 332h369l-615 -648h-360z" />
    <glyph glyph-name="Gcircumflex" unicode="&#x11c;" horiz-adv-x="3662" 
d="M2892 1430h418v-1291q-83 -30 -175.5 -55.5t-194.5 -46.5t-213 -37t-230.5 -27t-248.5 -16.5t-266 -5.5q-390 0 -701.5 100.5t-530 295.5t-335 480.5t-116.5 655.5q0 238 53 444.5t154 376.5t248.5 302.5t337 223.5t418.5 138t493 47q88 0 183 -4t191.5 -12.5
t191.5 -21.5t183.5 -31t167.5 -40.5t144 -50.5v-365q-111 45 -239.5 76t-260.5 50.5t-260.5 28.5t-239.5 9q-323 0 -571.5 -72.5t-418.5 -218.5t-257.5 -365.5t-87.5 -514.5q0 -213 43.5 -383t124.5 -300.5t197.5 -224t262.5 -153t319 -87.5t368 -28q155 0 288 11.5
t240.5 28.5t188 36.5t131.5 34.5v1012zM2392 3162l-426 328l-426 -328h-368l614 648h360l615 -648h-369z" />
    <glyph glyph-name="gcircumflex" unicode="&#x11d;" horiz-adv-x="3178" 
d="M2302 229q-77 -48 -170 -87t-196.5 -67t-215 -43.5t-225.5 -15.5q-278 0 -502.5 69.5t-383 205.5t-244.5 335t-86 459q0 253 84 451.5t243 334.5t389.5 207.5t524.5 71.5q120 0 235 -15t220 -43.5t197.5 -69.5t166.5 -93l28 172h340v-2031q0 -264 -89 -451t-253.5 -305
t-398.5 -172.5t-524 -54.5q-158 0 -303.5 12t-271 33t-228.5 49.5t-176 60.5v344q84 -35 184 -66t217.5 -53.5t255 -35.5t297.5 -13q206 0 370 32t278.5 110.5t175.5 210t61 331.5v127zM2302 1630q-75 48 -159 86t-175 64.5t-189 40.5t-202 14q-213 0 -377.5 -46
t-276.5 -139t-169.5 -234t-57.5 -331t57.5 -331.5t169.5 -235t276.5 -140t377.5 -46.5q104 0 202 14t189 40.5t175 64.5t159 86v1093zM1917 2408l-426 328l-426 -328h-368l614 648h360l615 -648h-369z" />
    <glyph glyph-name="Gbreve" unicode="&#x11e;" horiz-adv-x="3662" 
d="M2892 1430h418v-1291q-83 -30 -175.5 -55.5t-194.5 -46.5t-213 -37t-230.5 -27t-248.5 -16.5t-266 -5.5q-390 0 -701.5 100.5t-530 295.5t-335 480.5t-116.5 655.5q0 238 53 444.5t154 376.5t248.5 302.5t337 223.5t418.5 138t493 47q88 0 183 -4t191.5 -12.5
t191.5 -21.5t183.5 -31t167.5 -40.5t144 -50.5v-365q-111 45 -239.5 76t-260.5 50.5t-260.5 28.5t-239.5 9q-323 0 -571.5 -72.5t-418.5 -218.5t-257.5 -365.5t-87.5 -514.5q0 -213 43.5 -383t124.5 -300.5t197.5 -224t262.5 -153t319 -87.5t368 -28q155 0 288 11.5
t240.5 28.5t188 36.5t131.5 34.5v1012zM2679 3810q-3 -154 -54.5 -278.5t-144 -213t-223 -136.5t-291.5 -48t-291.5 48t-223 136.5t-144 213t-54.5 278.5h287q8 -88 38 -156t83 -114.5t129 -70.5t176 -24t176 24t129 70.5t83 114.5t38 156h287z" />
    <glyph glyph-name="gbreve" unicode="&#x11f;" horiz-adv-x="3178" 
d="M2302 229q-77 -48 -170 -87t-196.5 -67t-215 -43.5t-225.5 -15.5q-278 0 -502.5 69.5t-383 205.5t-244.5 335t-86 459q0 253 84 451.5t243 334.5t389.5 207.5t524.5 71.5q120 0 235 -15t220 -43.5t197.5 -69.5t166.5 -93l28 172h340v-2031q0 -264 -89 -451t-253.5 -305
t-398.5 -172.5t-524 -54.5q-158 0 -303.5 12t-271 33t-228.5 49.5t-176 60.5v344q84 -35 184 -66t217.5 -53.5t255 -35.5t297.5 -13q206 0 370 32t278.5 110.5t175.5 210t61 331.5v127zM2302 1630q-75 48 -159 86t-175 64.5t-189 40.5t-202 14q-213 0 -377.5 -46
t-276.5 -139t-169.5 -234t-57.5 -331t57.5 -331.5t169.5 -235t276.5 -140t377.5 -46.5q104 0 202 14t189 40.5t175 64.5t159 86v1093zM2204 3056q-3 -154 -54.5 -278.5t-144 -213t-223 -136.5t-291.5 -48t-291.5 48t-223 136.5t-144 213t-54.5 278.5h287q8 -88 38 -156
t83 -114.5t129 -70.5t176 -24t176 24t129 70.5t83 114.5t38 156h287z" />
    <glyph glyph-name="Gdotaccent" unicode="&#x120;" horiz-adv-x="3662" 
d="M2892 1430h418v-1291q-83 -30 -175.5 -55.5t-194.5 -46.5t-213 -37t-230.5 -27t-248.5 -16.5t-266 -5.5q-390 0 -701.5 100.5t-530 295.5t-335 480.5t-116.5 655.5q0 238 53 444.5t154 376.5t248.5 302.5t337 223.5t418.5 138t493 47q88 0 183 -4t191.5 -12.5
t191.5 -21.5t183.5 -31t167.5 -40.5t144 -50.5v-365q-111 45 -239.5 76t-260.5 50.5t-260.5 28.5t-239.5 9q-323 0 -571.5 -72.5t-418.5 -218.5t-257.5 -365.5t-87.5 -514.5q0 -213 43.5 -383t124.5 -300.5t197.5 -224t262.5 -153t319 -87.5t368 -28q155 0 288 11.5
t240.5 28.5t188 36.5t131.5 34.5v1012zM1741 3257v446h454v-446h-454z" />
    <glyph glyph-name="gdotaccent" unicode="&#x121;" horiz-adv-x="3178" 
d="M2302 229q-77 -48 -170 -87t-196.5 -67t-215 -43.5t-225.5 -15.5q-278 0 -502.5 69.5t-383 205.5t-244.5 335t-86 459q0 253 84 451.5t243 334.5t389.5 207.5t524.5 71.5q120 0 235 -15t220 -43.5t197.5 -69.5t166.5 -93l28 172h340v-2031q0 -264 -89 -451t-253.5 -305
t-398.5 -172.5t-524 -54.5q-158 0 -303.5 12t-271 33t-228.5 49.5t-176 60.5v344q84 -35 184 -66t217.5 -53.5t255 -35.5t297.5 -13q206 0 370 32t278.5 110.5t175.5 210t61 331.5v127zM2302 1630q-75 48 -159 86t-175 64.5t-189 40.5t-202 14q-213 0 -377.5 -46
t-276.5 -139t-169.5 -234t-57.5 -331t57.5 -331.5t169.5 -235t276.5 -140t377.5 -46.5q104 0 202 14t189 40.5t175 64.5t159 86v1093zM1266 2503v446h454v-446h-454z" />
    <glyph glyph-name="Gcommaaccent" unicode="&#x122;" horiz-adv-x="3662" 
d="M2892 1430h418v-1291q-83 -30 -175.5 -55.5t-194.5 -46.5t-213 -37t-230.5 -27t-248.5 -16.5t-266 -5.5q-390 0 -701.5 100.5t-530 295.5t-335 480.5t-116.5 655.5q0 238 53 444.5t154 376.5t248.5 302.5t337 223.5t418.5 138t493 47q88 0 183 -4t191.5 -12.5
t191.5 -21.5t183.5 -31t167.5 -40.5t144 -50.5v-365q-111 45 -239.5 76t-260.5 50.5t-260.5 28.5t-239.5 9q-323 0 -571.5 -72.5t-418.5 -218.5t-257.5 -365.5t-87.5 -514.5q0 -213 43.5 -383t124.5 -300.5t197.5 -224t262.5 -153t319 -87.5t368 -28q155 0 288 11.5
t240.5 28.5t188 36.5t131.5 34.5v1012zM1728 -983l-156 156l260 276l-92 379h250q51 0 95 -15t76.5 -43.5t51.5 -69.5t19 -93q0 -57 -21 -113t-62 -112t-100.5 -111.5t-136.5 -114.5z" />
    <glyph glyph-name="gcommaaccent" unicode="&#x123;" horiz-adv-x="3178" 
d="M2302 229q-77 -48 -170 -87t-196.5 -67t-215 -43.5t-225.5 -15.5q-278 0 -502.5 69.5t-383 205.5t-244.5 335t-86 459q0 253 84 451.5t243 334.5t389.5 207.5t524.5 71.5q120 0 235 -15t220 -43.5t197.5 -69.5t166.5 -93l28 172h340v-2031q0 -264 -89 -451t-253.5 -305
t-398.5 -172.5t-524 -54.5q-158 0 -303.5 12t-271 33t-228.5 49.5t-176 60.5v344q84 -35 184 -66t217.5 -53.5t255 -35.5t297.5 -13q206 0 370 32t278.5 110.5t175.5 210t61 331.5v127zM2302 1630q-75 48 -159 86t-175 64.5t-189 40.5t-202 14q-213 0 -377.5 -46
t-276.5 -139t-169.5 -234t-57.5 -331t57.5 -331.5t169.5 -235t276.5 -140t377.5 -46.5q104 0 202 14t189 40.5t175 64.5t159 86v1093zM1458 2335q-51 0 -95 15t-76.5 43.5t-51.5 69.5t-19 93q0 58 21 116t62 115.5t100.5 115t136.5 116.5l184 139l156 -156l-262 -286
l94 -381h-250z" />
    <glyph glyph-name="Hcircumflex" unicode="&#x124;" horiz-adv-x="3736" 
d="M2822 0v1315h-1909v-1315h-421v2966h421v-1307h1909v1307h422v-2966h-422zM2294 3162l-426 328l-426 -328h-368l614 648h360l615 -648h-369z" />
    <glyph glyph-name="hcircumflex" unicode="&#x125;" horiz-adv-x="3174" 
d="M2343 0v1274q0 157 -42 263.5t-125.5 171.5t-207.5 93.5t-289 28.5q-118 0 -231.5 -18t-217 -48t-193.5 -70t-160 -85v-1610h-406v2966h406v-1065q78 54 176.5 99.5t212 78.5t239.5 52t260 19q132 0 256.5 -16.5t233.5 -54.5t200 -99t156 -151t101 -210t36 -276v-1343
h-405zM1099 3162l-426 328l-426 -328h-368l614 648h360l615 -648h-369z" />
    <glyph glyph-name="Hbar" unicode="&#x126;" horiz-adv-x="3736" 
d="M2822 0v1315h-1909v-1315h-421v2200h-320v307h320v459h421v-459h1909v459h422v-459h320v-307h-320v-2200h-422zM2822 2200h-1909v-541h1909v541z" />
    <glyph glyph-name="hbar" unicode="&#x127;" horiz-adv-x="3174" 
d="M2343 0v1274q0 157 -42 263.5t-125.5 171.5t-207.5 93.5t-289 28.5q-118 0 -231.5 -18t-217 -48t-193.5 -70t-160 -85v-1610h-406v2413h-307v307h307v246h406v-246h466v-307h-466v-512q78 54 176.5 99.5t212 78.5t239.5 52t260 19q132 0 256.5 -16.5t233.5 -54.5t200 -99
t156 -151t101 -210t36 -276v-1343h-405z" />
    <glyph glyph-name="Itilde" unicode="&#x128;" horiz-adv-x="2183" 
d="M328 0v344h553v2277h-553v345h1527v-345h-552v-2277h552v-344h-1527zM1863 3744q0 -103 -26 -199.5t-81.5 -171.5t-142.5 -120t-208 -45q-73 0 -135.5 18t-117.5 44.5t-103.5 58t-93.5 58t-87.5 44.5t-85.5 18q-45 0 -78 -15t-56 -43.5t-36.5 -69.5t-17.5 -93h-283
q0 103 26 199.5t82 171.5t142.5 120.5t208.5 45.5q73 0 135.5 -18t117 -45t103 -58t93.5 -58t87.5 -45t85.5 -18q45 0 78 15t56 43.5t36.5 69.5t18.5 93h282z" />
    <glyph glyph-name="itilde" unicode="&#x129;" horiz-adv-x="1348" 
d="M471 0v2101h406v-2101h-406zM1451 2990q0 -103 -26 -199.5t-81.5 -171.5t-142.5 -120t-208 -45q-73 0 -135.5 18t-117.5 44.5t-103.5 58t-93.5 58t-87.5 44.5t-85.5 18q-45 0 -78 -15t-56 -43.5t-36.5 -69.5t-17.5 -93h-283q0 103 26 199.5t82 171.5t142.5 120.5
t208.5 45.5q73 0 135.5 -18t117 -45t103 -58t93.5 -58t87.5 -45t85.5 -18q45 0 78 15t56 43.5t36.5 69.5t18.5 93h282z" />
    <glyph glyph-name="Imacron" unicode="&#x12a;" horiz-adv-x="2183" 
d="M328 0v344h553v2277h-553v345h1527v-345h-552v-2277h552v-344h-1527zM372 3302v307h1426v-307h-1426z" />
    <glyph glyph-name="imacron" unicode="&#x12b;" horiz-adv-x="1348" 
d="M471 0v2101h406v-2101h-406zM-36 2548v307h1426v-307h-1426z" />
    <glyph glyph-name="Ibreve" unicode="&#x12c;" horiz-adv-x="2183" 
d="M328 0v344h553v2277h-553v345h1527v-345h-552v-2277h552v-344h-1527zM1798 3810q-3 -154 -54.5 -278.5t-144 -213t-223 -136.5t-291.5 -48t-291.5 48t-223 136.5t-144 213t-54.5 278.5h287q8 -88 38 -156t83 -114.5t129 -70.5t176 -24t176 24t129 70.5t83 114.5t38 156
h287z" />
    <glyph glyph-name="ibreve" unicode="&#x12d;" horiz-adv-x="1348" 
d="M471 0v2101h406v-2101h-406zM1390 3056q-3 -154 -54.5 -278.5t-144 -213t-223 -136.5t-291.5 -48t-291.5 48t-223 136.5t-144 213t-54.5 278.5h287q8 -88 38 -156t83 -114.5t129 -70.5t176 -24t176 24t129 70.5t83 114.5t38 156h287z" />
    <glyph glyph-name="Iogonek" unicode="&#x12e;" horiz-adv-x="2183" 
d="M1401 -860q-50 -13 -106.5 -19t-114.5 -6q-126 0 -215.5 32t-146 83.5t-83 118t-26.5 135.5q0 80 30 152.5t79.5 137.5t111.5 121.5t127 104.5h-729v344h553v2277h-553v345h1527v-345h-552v-2277h552v-344h-552q-59 -57 -111 -115t-91 -115.5t-62 -114t-23 -110.5
q0 -101 62 -150.5t175 -49.5q23 0 43.5 1.5t38.5 3.5t34.5 5t31.5 6v-221z" />
    <glyph glyph-name="iogonek" unicode="&#x12f;" horiz-adv-x="1348" 
d="M918 -860q-50 -13 -106.5 -19t-115.5 -6q-126 0 -215.5 32t-146 83.5t-83 118t-26.5 135.5q0 80 30 152.5t79.5 137.5t111.5 121.5t127 104.5h-102v2101h406v-2101h-58q-58 -57 -110 -115t-91.5 -115.5t-62.5 -114t-23 -110.5q0 -101 62 -150.5t176 -49.5q23 0 43 1.5
t38.5 3.5t35 5t31.5 6v-221zM471 2523v443h406v-443h-406z" />
    <glyph glyph-name="Idotaccent" unicode="&#x130;" horiz-adv-x="2183" 
d="M328 0v344h553v2277h-553v345h1527v-345h-552v-2277h552v-344h-1527zM860 3257v446h454v-446h-454z" />
    <glyph glyph-name="dotlessi" unicode="&#x131;" horiz-adv-x="1348" 
d="M471 0v2101h406v-2101h-406z" />
    <glyph glyph-name="IJ" unicode="&#x132;" horiz-adv-x="3920" 
d="M328 0v344h553v2277h-553v345h1527v-345h-552v-2277h552v-344h-1527zM2158 -188q23 -8 61.5 -14.5t81.5 -11.5t86 -8t75 -3q150 0 254 38.5t168.5 123t93 218t28.5 324.5v2142h-635v345h1057v-2528q0 -241 -50.5 -430.5t-162 -320.5t-290.5 -200t-435 -69q-40 0 -87 2.5
t-92.5 7t-86 11.5t-66.5 16v357z" />
    <glyph glyph-name="ij" unicode="&#x133;" horiz-adv-x="2695" 
d="M471 0v2101h406v-2101h-406zM471 2523v443h406v-443h-406zM1057 -565q68 -16 128 -22.5t122 -6.5q146 0 244 39t157.5 120t85 205.5t25.5 295.5v2035h406v-2064q0 -241 -48.5 -419.5t-155 -296.5t-275.5 -176t-410 -58q-39 0 -77 2t-73.5 6.5t-68 10t-60.5 13.5v316z
M1819 2523v443h406v-443h-406z" />
    <glyph glyph-name="Jcircumflex" unicode="&#x134;" horiz-adv-x="1737" 
d="M-25 -188q23 -8 61.5 -14.5t81.5 -11.5t86 -8t75 -3q150 0 254 38.5t168.5 123t93 218t28.5 324.5v2142h-635v345h1057v-2528q0 -241 -50.5 -430.5t-162 -320.5t-290.5 -200t-435 -69q-40 0 -87 2.5t-92.5 7t-86 11.5t-66.5 16v357zM1458 3162l-426 328l-426 -328h-368
l614 648h360l615 -648h-369z" />
    <glyph glyph-name="jcircumflex" unicode="&#x135;" horiz-adv-x="1348" 
d="M-291 -565q68 -16 128 -22.5t122 -6.5q146 0 244 39t157.5 120t85 205.5t25.5 295.5v2035h406v-2064q0 -241 -48.5 -419.5t-155 -296.5t-275.5 -176t-410 -58q-39 0 -77 2t-73.5 6.5t-68 10t-60.5 13.5v316zM1103 2408l-426 328l-426 -328h-368l614 648h360l615 -648
h-369z" />
    <glyph glyph-name="Kcommaaccent" unicode="&#x136;" horiz-adv-x="3461" 
d="M2789 0l-1876 1372v-1372h-421v2966h421v-1344l1852 1344h622l-1682 -1201q-87 -62 -175 -125t-175 -124q43 -31 85.5 -61.5t85 -61.5t85 -61.5t85.5 -61.5l1753 -1270h-660zM1528 -983l-156 156l260 276l-92 379h250q51 0 95 -15t76.5 -43.5t51.5 -69.5t19 -93
q0 -57 -21 -113t-62 -112t-100.5 -111.5t-136.5 -114.5z" />
    <glyph glyph-name="kcommaaccent" unicode="&#x137;" horiz-adv-x="2777" 
d="M2154 0l-1277 958v-958h-406v2966h406v-1786l1261 921h557l-1171 -844q-32 -23 -64 -45t-63.5 -44.5l-63 -45t-63.5 -45.5q31 -21 60 -42t58.5 -41.5t58.5 -41.5t60 -43l1262 -909h-615zM1229 -983l-156 156l260 276l-92 379h250q51 0 95 -15t76.5 -43.5t51.5 -69.5
t19 -93q0 -57 -21 -113t-62 -112t-100.5 -111.5t-136.5 -114.5z" />
    <glyph glyph-name="Lacute" unicode="&#x139;" horiz-adv-x="2761" 
d="M492 0v2966h421v-2622h1684v-344h-2105zM509 3162l450 648h525l-607 -648h-368z" />
    <glyph glyph-name="lacute" unicode="&#x13a;" horiz-adv-x="1593" 
d="M1503 16q-43 -12 -94.5 -23.5t-112 -21t-130.5 -15t-150 -5.5q-157 0 -265 35t-174.5 103t-96 169.5t-29.5 233.5v2474h405v-2425q0 -63 10.5 -110.5t39 -79.5t78.5 -48t130 -16q124 0 221 11t168 30v-312zM452 3162l450 648h525l-607 -648h-368z" />
    <glyph glyph-name="Lcommaaccent" unicode="&#x13b;" horiz-adv-x="2761" 
d="M492 0v2966h421v-2622h1684v-344h-2105zM1307 -983l-156 156l260 276l-92 379h250q51 0 95 -15t76.5 -43.5t51.5 -69.5t19 -93q0 -57 -21 -113t-62 -112t-100.5 -111.5t-136.5 -114.5z" />
    <glyph glyph-name="lcommaaccent" unicode="&#x13c;" horiz-adv-x="1593" 
d="M1503 16q-43 -12 -94.5 -23.5t-112 -21t-130.5 -15t-150 -5.5q-157 0 -265 35t-174.5 103t-96 169.5t-29.5 233.5v2474h405v-2425q0 -63 10.5 -110.5t39 -79.5t78.5 -48t130 -16q124 0 221 11t168 30v-312zM738 -983l-156 156l260 276l-92 379h250q51 0 95 -15
t76.5 -43.5t51.5 -69.5t19 -93q0 -57 -21 -113t-62 -112t-100.5 -111.5t-136.5 -114.5z" />
    <glyph glyph-name="Lcaron" unicode="&#x13d;" horiz-adv-x="2761" 
d="M492 0v2966h421v-2622h1684v-344h-2105zM1319 2114l123 438l-102 414h249q51 0 95 -15t77 -43.5t51.5 -70t18.5 -93.5q0 -58 -12.5 -111.5t-34 -107t-51.5 -110.5t-66 -121l-98 -180h-250z" />
    <glyph glyph-name="lcaron" unicode="&#x13e;" horiz-adv-x="1593" 
d="M1503 16q-43 -12 -94.5 -23.5t-112 -21t-130.5 -15t-150 -5.5q-157 0 -265 35t-174.5 103t-96 169.5t-29.5 233.5v2474h405v-2425q0 -63 10.5 -110.5t39 -79.5t78.5 -48t130 -16q124 0 221 11t168 30v-312zM1098 2114l123 438l-102 414h249q51 0 95 -15t77 -43.5
t51.5 -70t18.5 -93.5q0 -58 -12.5 -111.5t-34 -107t-51.5 -110.5t-66 -121l-98 -180h-250z" />
    <glyph glyph-name="Ldot" unicode="&#x13f;" horiz-adv-x="2761" 
d="M492 0v2966h421v-2622h1684v-344h-2105zM1479 1360v446h454v-446h-454z" />
    <glyph glyph-name="ldot" unicode="&#x140;" horiz-adv-x="1757" 
d="M1503 16q-43 -12 -94.5 -23.5t-112 -21t-130.5 -15t-150 -5.5q-157 0 -265 35t-174.5 103t-96 169.5t-29.5 233.5v2474h405v-2425q0 -63 10.5 -110.5t39 -79.5t78.5 -48t130 -16q124 0 221 11t168 30v-312zM1262 1257v447h454v-447h-454z" />
    <glyph glyph-name="Lslash" unicode="&#x141;" horiz-adv-x="2802" 
d="M532 0v1090l-319 -185v344l319 185v1532h422v-1287l807 471v-348l-807 -471v-987h1684v-344h-2106z" />
    <glyph glyph-name="lslash" unicode="&#x142;" horiz-adv-x="1675" 
d="M1544 16q-43 -12 -94.5 -23.5t-112 -21t-130.5 -15t-150 -5.5q-157 0 -265 35t-174.5 103t-96 169.5t-29.5 233.5v573l-279 -160v344l279 160v1557h405v-1319l463 270v-348l-463 -271v-757q0 -63 10.5 -110.5t39 -79.5t78.5 -48t130 -16q124 0 221 11t168 30v-312z" />
    <glyph glyph-name="Nacute" unicode="&#x143;" horiz-adv-x="3932" 
d="M2982 0l-1733 2032q-86 102 -171.5 202.5t-172.5 202.5v-122.5v-121v-121.5v-122v-1950h-413v2966h458l1729 -2036q43 -51 86.5 -101.5t87 -101.5t87.5 -101.5t87 -101.5v122v122v121.5v122.5v1954h414v-2966h-459zM1766 3162l450 648h525l-607 -648h-368z" />
    <glyph glyph-name="nacute" unicode="&#x144;" horiz-adv-x="3174" 
d="M2343 0v1274q0 157 -42 263.5t-125.5 171.5t-207.5 93.5t-289 28.5q-118 0 -231.5 -18t-217 -48t-193.5 -70t-160 -85v-1610h-406v2101h340l33 -209q78 57 179.5 104.5t220 81.5t250 53t271.5 19q132 0 256.5 -16.5t233.5 -54.5t200 -99t156 -151t101 -210t36 -276v-1343
h-405zM1426 2408l450 648h525l-607 -648h-368z" />
    <glyph glyph-name="Ncommaaccent" unicode="&#x145;" horiz-adv-x="3932" 
d="M2982 0l-1733 2032q-86 102 -171.5 202.5t-172.5 202.5v-122.5v-121v-121.5v-122v-1950h-413v2966h458l1729 -2036q43 -51 86.5 -101.5t87 -101.5t87.5 -101.5t87 -101.5v122v122v121.5v122.5v1954h414v-2966h-459zM1728 -983l-156 156l260 276l-92 379h250q51 0 95 -15
t76.5 -43.5t51.5 -69.5t19 -93q0 -57 -21 -113t-62 -112t-100.5 -111.5t-136.5 -114.5z" />
    <glyph glyph-name="ncommaaccent" unicode="&#x146;" horiz-adv-x="3174" 
d="M2343 0v1274q0 157 -42 263.5t-125.5 171.5t-207.5 93.5t-289 28.5q-118 0 -231.5 -18t-217 -48t-193.5 -70t-160 -85v-1610h-406v2101h340l33 -209q78 57 179.5 104.5t220 81.5t250 53t271.5 19q132 0 256.5 -16.5t233.5 -54.5t200 -99t156 -151t101 -210t36 -276v-1343
h-405zM1372 -983l-156 156l260 276l-92 379h250q51 0 95 -15t76.5 -43.5t51.5 -69.5t19 -93q0 -57 -21 -113t-62 -112t-100.5 -111.5t-136.5 -114.5z" />
    <glyph glyph-name="Ncaron" unicode="&#x147;" horiz-adv-x="3932" 
d="M2982 0l-1733 2032q-86 102 -171.5 202.5t-172.5 202.5v-122.5v-121v-121.5v-122v-1950h-413v2966h458l1729 -2036q43 -51 86.5 -101.5t87 -101.5t87.5 -101.5t87 -101.5v122v122v121.5v122.5v1954h414v-2966h-459zM1786 3162l-614 648h368l426 -332l426 332h369
l-615 -648h-360z" />
    <glyph glyph-name="ncaron" unicode="&#x148;" horiz-adv-x="3174" 
d="M2343 0v1274q0 157 -42 263.5t-125.5 171.5t-207.5 93.5t-289 28.5q-118 0 -231.5 -18t-217 -48t-193.5 -70t-160 -85v-1610h-406v2101h340l33 -209q78 57 179.5 104.5t220 81.5t250 53t271.5 19q132 0 256.5 -16.5t233.5 -54.5t200 -99t156 -151t101 -210t36 -276v-1343
h-405zM1446 2408l-614 648h368l426 -332l426 332h369l-615 -648h-360z" />
    <glyph glyph-name="napostrophe" unicode="&#x149;" horiz-adv-x="4198" 
d="M180 1962l328 545l-98 459h327q64 0 112.5 -10.5t81 -35t48.5 -65.5t16 -102q0 -78 -30.5 -153t-83 -151.5t-123.5 -157.5t-152 -173l-143 -156h-283zM3367 0v1274q0 157 -42 263.5t-125.5 171.5t-207.5 93.5t-289 28.5q-118 0 -231.5 -18t-217 -48t-193.5 -70t-160 -85
v-1610h-406v2101h340l33 -209q78 57 179.5 104.5t220 81.5t250 53t271.5 19q132 0 256.5 -16.5t233.5 -54.5t200 -99t156 -151t101 -210t36 -276v-1343h-405z" />
    <glyph glyph-name="Omacron" unicode="&#x14c;" horiz-adv-x="3760" 
d="M1880 -49q-260 0 -478 50.5t-394 145.5t-308.5 230.5t-221.5 306t-134 372t-45 427.5q0 218 46.5 416.5t137.5 368.5t225.5 308t310 235.5t391.5 150.5t470 53q260 0 478 -50.5t394 -145.5t308.5 -230.5t221.5 -306t134 -372t45 -427.5q0 -218 -46.5 -416.5
t-137.5 -368.5t-225.5 -308t-310 -235.5t-391.5 -150.5t-470 -53zM1880 287q195 0 355.5 42.5t288.5 120t223 186.5t158.5 242t94.5 286t31 319t-31 319t-94.5 286t-158.5 242t-223 186.5t-289 120t-355 42.5t-355 -42.5t-289 -120t-223 -186.5t-158.5 -242t-94.5 -286
t-31 -319t31 -319t94.5 -286t158.5 -242t223 -186.5t288.5 -120t355.5 -42.5zM1167 3302v307h1426v-307h-1426z" />
    <glyph glyph-name="omacron" unicode="&#x14d;" horiz-adv-x="3088" 
d="M1544 -49q-221 0 -401 38t-320.5 107.5t-243 168.5t-169.5 221.5t-99 265.5t-32 301q0 155 33 297t101 264t171.5 221t244 169t319 108t396.5 38q221 0 401 -38t320.5 -107.5t243.5 -168.5t169.5 -221.5t99 -265.5t32.5 -300q0 -156 -33 -298t-101 -264t-171.5 -221
t-244 -169t-319.5 -108t-397 -38zM1544 266q218 0 378 55.5t264.5 157.5t155 246.5t50.5 323.5q0 178 -50.5 323t-155 248t-264.5 159t-378 56t-377.5 -55.5t-264 -157.5t-155.5 -246.5t-51 -322.5t51 -323.5t155.5 -248.5t264 -159t377.5 -56zM835 2548v307h1426v-307
h-1426z" />
    <glyph glyph-name="Obreve" unicode="&#x14e;" horiz-adv-x="3760" 
d="M1880 -49q-260 0 -478 50.5t-394 145.5t-308.5 230.5t-221.5 306t-134 372t-45 427.5q0 218 46.5 416.5t137.5 368.5t225.5 308t310 235.5t391.5 150.5t470 53q260 0 478 -50.5t394 -145.5t308.5 -230.5t221.5 -306t134 -372t45 -427.5q0 -218 -46.5 -416.5
t-137.5 -368.5t-225.5 -308t-310 -235.5t-391.5 -150.5t-470 -53zM1880 287q195 0 355.5 42.5t288.5 120t223 186.5t158.5 242t94.5 286t31 319t-31 319t-94.5 286t-158.5 242t-223 186.5t-289 120t-355 42.5t-355 -42.5t-289 -120t-223 -186.5t-158.5 -242t-94.5 -286
t-31 -319t31 -319t94.5 -286t158.5 -242t223 -186.5t288.5 -120t355.5 -42.5zM2593 3810q-3 -154 -54.5 -278.5t-144 -213t-223 -136.5t-291.5 -48t-291.5 48t-223 136.5t-144 213t-54.5 278.5h287q8 -88 38 -156t83 -114.5t129 -70.5t176 -24t176 24t129 70.5t83 114.5
t38 156h287z" />
    <glyph glyph-name="obreve" unicode="&#x14f;" horiz-adv-x="3088" 
d="M1544 -49q-221 0 -401 38t-320.5 107.5t-243 168.5t-169.5 221.5t-99 265.5t-32 301q0 155 33 297t101 264t171.5 221t244 169t319 108t396.5 38q221 0 401 -38t320.5 -107.5t243.5 -168.5t169.5 -221.5t99 -265.5t32.5 -300q0 -156 -33 -298t-101 -264t-171.5 -221
t-244 -169t-319.5 -108t-397 -38zM1544 266q218 0 378 55.5t264.5 157.5t155 246.5t50.5 323.5q0 178 -50.5 323t-155 248t-264.5 159t-378 56t-377.5 -55.5t-264 -157.5t-155.5 -246.5t-51 -322.5t51 -323.5t155.5 -248.5t264 -159t377.5 -56zM2261 3056
q-3 -154 -54.5 -278.5t-144 -213t-223 -136.5t-291.5 -48t-291.5 48t-223 136.5t-144 213t-54.5 278.5h287q8 -88 38 -156t83 -114.5t129 -70.5t176 -24t176 24t129 70.5t83 114.5t38 156h287z" />
    <glyph glyph-name="Ohungarumlaut" unicode="&#x150;" horiz-adv-x="3760" 
d="M1880 -49q-260 0 -478 50.5t-394 145.5t-308.5 230.5t-221.5 306t-134 372t-45 427.5q0 218 46.5 416.5t137.5 368.5t225.5 308t310 235.5t391.5 150.5t470 53q260 0 478 -50.5t394 -145.5t308.5 -230.5t221.5 -306t134 -372t45 -427.5q0 -218 -46.5 -416.5
t-137.5 -368.5t-225.5 -308t-310 -235.5t-391.5 -150.5t-470 -53zM1880 287q195 0 355.5 42.5t288.5 120t223 186.5t158.5 242t94.5 286t31 319t-31 319t-94.5 286t-158.5 242t-223 186.5t-289 120t-355 42.5t-355 -42.5t-289 -120t-223 -186.5t-158.5 -242t-94.5 -286
t-31 -319t31 -319t94.5 -286t158.5 -242t223 -186.5t288.5 -120t355.5 -42.5zM1266 3162l286 648h496l-442 -648h-340zM2154 3162l287 648h496l-443 -648h-340z" />
    <glyph glyph-name="ohungarumlaut" unicode="&#x151;" horiz-adv-x="3088" 
d="M1544 -49q-221 0 -401 38t-320.5 107.5t-243 168.5t-169.5 221.5t-99 265.5t-32 301q0 155 33 297t101 264t171.5 221t244 169t319 108t396.5 38q221 0 401 -38t320.5 -107.5t243.5 -168.5t169.5 -221.5t99 -265.5t32.5 -300q0 -156 -33 -298t-101 -264t-171.5 -221
t-244 -169t-319.5 -108t-397 -38zM1544 266q218 0 378 55.5t264.5 157.5t155 246.5t50.5 323.5q0 178 -50.5 323t-155 248t-264.5 159t-378 56t-377.5 -55.5t-264 -157.5t-155.5 -246.5t-51 -322.5t51 -323.5t155.5 -248.5t264 -159t377.5 -56zM934 2408l286 648h496
l-442 -648h-340zM1822 2408l287 648h496l-443 -648h-340z" />
    <glyph glyph-name="OE" unicode="&#x152;" horiz-adv-x="5353" 
d="M2683 0q-95 -9 -185.5 -18t-177 -16t-171 -11t-167.5 -4q-265 0 -492.5 50.5t-414.5 145.5t-332 230.5t-243.5 306t-149.5 372t-51 427.5q0 218 52.5 416.5t153.5 368.5t247 308t333 235.5t412.5 150.5t484.5 53q83 0 167.5 -4.5t171 -11t177 -15.5t185.5 -18h2359v-345
h-1937v-925h1691v-344h-1691v-1008h1962v-344h-2384zM2683 2630q-84 13 -169.5 22.5t-173 15.5t-177 8.5t-181.5 2.5q-205 0 -377.5 -42.5t-311.5 -120t-244.5 -186.5t-176.5 -242t-107 -286t-36 -319t36 -319t107 -286t176.5 -242t244.5 -186.5t311.5 -120t377.5 -42.5
q80 0 166.5 2t176 7t180 15t178.5 25v2294z" />
    <glyph glyph-name="oe" unicode="&#x153;" horiz-adv-x="4977" 
d="M4579 143q-89 -41 -190 -76.5t-218 -61t-252.5 -40t-293.5 -14.5q-194 0 -354 34.5t-288.5 97.5t-226.5 151t-167 196q-69 -104 -167.5 -192t-228 -152t-291.5 -99.5t-358 -35.5q-221 0 -401 38t-320.5 107.5t-243 168.5t-169.5 221.5t-99 265.5t-32 301q0 155 33 297
t101 264t171.5 221t244 169t319 108t396.5 38q198 0 360 -35.5t291 -99t227 -150.5t167 -190q69 105 165.5 192t219 150t270.5 98t320 35q183 0 340 -34.5t286 -99t228.5 -156t167 -205t102.5 -247.5t35 -282q0 -20 -0.5 -42t-2 -43.5t-3 -40.5t-3.5 -33h-1916
q10 -158 64.5 -285.5t159.5 -217t265 -137.5t383 -48q152 0 278.5 15.5t236 41.5t206 60t188.5 71v-324zM1544 266q218 0 378 55.5t264.5 157.5t155 246.5t50.5 323.5q0 178 -50.5 323t-155 248t-264.5 159t-378 56t-377.5 -55.5t-264 -157.5t-155.5 -246.5t-51 -322.5
t51 -323.5t155.5 -248.5t264 -159t377.5 -56zM4325 1278q-14 124 -76.5 227.5t-163 177.5t-233.5 115t-288 41t-289 -41t-235 -115t-163.5 -177.5t-74.5 -227.5h1523z" />
    <glyph glyph-name="Racute" unicode="&#x154;" horiz-adv-x="3305" 
d="M2683 0l-950 1065q-30 33 -56.5 57t-54 41.5t-58 28.5t-67 17.5t-82.5 9t-104 2.5h-398v-1221h-421v2966h1150q343 0 583 -59.5t391 -172t219.5 -273.5t68.5 -364q0 -172 -58 -312t-170.5 -245.5t-277.5 -175.5t-379 -102q59 -22 109.5 -60.5t99.5 -91.5l996 -1110h-541z
M1552 1556q256 0 432.5 31t285 96.5t156.5 168t48 245.5t-48 242.5t-156.5 162t-285 91t-432.5 28.5h-639v-1065h639zM1413 3162l450 648h525l-607 -648h-368z" />
    <glyph glyph-name="racute" unicode="&#x155;" horiz-adv-x="2138" 
d="M471 0v2101h365l32 -381q54 81 127 157.5t170 135t219.5 94t274.5 35.5q114 0 209.5 -14t163.5 -39v-360q-45 12 -94.5 21t-103 15.5t-110 9.5t-114.5 3q-110 0 -200.5 -20t-164.5 -52.5t-132.5 -75.5t-103 -88.5t-77.5 -90.5t-55 -83v-1368h-406zM1077 2408l450 648h525
l-607 -648h-368z" />
    <glyph glyph-name="Rcommaaccent" unicode="&#x156;" horiz-adv-x="3305" 
d="M2683 0l-950 1065q-30 33 -56.5 57t-54 41.5t-58 28.5t-67 17.5t-82.5 9t-104 2.5h-398v-1221h-421v2966h1150q343 0 583 -59.5t391 -172t219.5 -273.5t68.5 -364q0 -172 -58 -312t-170.5 -245.5t-277.5 -175.5t-379 -102q59 -22 109.5 -60.5t99.5 -91.5l996 -1110h-541z
M1552 1556q256 0 432.5 31t285 96.5t156.5 168t48 245.5t-48 242.5t-156.5 162t-285 91t-432.5 28.5h-639v-1065h639zM1511 -983l-156 156l260 276l-92 379h250q51 0 95 -15t76.5 -43.5t51.5 -69.5t19 -93q0 -57 -21 -113t-62 -112t-100.5 -111.5t-136.5 -114.5z" />
    <glyph glyph-name="rcommaaccent" unicode="&#x157;" horiz-adv-x="2138" 
d="M471 0v2101h365l32 -381q54 81 127 157.5t170 135t219.5 94t274.5 35.5q114 0 209.5 -14t163.5 -39v-360q-45 12 -94.5 21t-103 15.5t-110 9.5t-114.5 3q-110 0 -200.5 -20t-164.5 -52.5t-132.5 -75.5t-103 -88.5t-77.5 -90.5t-55 -83v-1368h-406zM435 -983l-156 156
l260 276l-92 379h250q51 0 95 -15t76.5 -43.5t51.5 -69.5t19 -93q0 -57 -21 -113t-62 -112t-100.5 -111.5t-136.5 -114.5z" />
    <glyph glyph-name="Rcaron" unicode="&#x158;" horiz-adv-x="3305" 
d="M2683 0l-950 1065q-30 33 -56.5 57t-54 41.5t-58 28.5t-67 17.5t-82.5 9t-104 2.5h-398v-1221h-421v2966h1150q343 0 583 -59.5t391 -172t219.5 -273.5t68.5 -364q0 -172 -58 -312t-170.5 -245.5t-277.5 -175.5t-379 -102q59 -22 109.5 -60.5t99.5 -91.5l996 -1110h-541z
M1552 1556q256 0 432.5 31t285 96.5t156.5 168t48 245.5t-48 242.5t-156.5 162t-285 91t-432.5 28.5h-639v-1065h639zM1434 3162l-614 648h368l426 -332l426 332h369l-615 -648h-360z" />
    <glyph glyph-name="rcaron" unicode="&#x159;" horiz-adv-x="2138" 
d="M471 0v2101h365l32 -381q54 81 127 157.5t170 135t219.5 94t274.5 35.5q114 0 209.5 -14t163.5 -39v-360q-45 12 -94.5 21t-103 15.5t-110 9.5t-114.5 3q-110 0 -200.5 -20t-164.5 -52.5t-132.5 -75.5t-103 -88.5t-77.5 -90.5t-55 -83v-1368h-406zM1098 2408l-614 648
h368l426 -332l426 332h369l-615 -648h-360z" />
    <glyph glyph-name="Sacute" unicode="&#x15a;" horiz-adv-x="3097" 
d="M283 471q103 -32 226 -61t260.5 -51t284.5 -35t298 -13q235 0 417 30t307 87.5t190 140.5t65 189q0 68 -19.5 124t-61.5 103t-108 87.5t-160 79.5t-217 77.5t-278 81.5q-168 46 -319 93t-279.5 101.5t-231.5 121.5t-174.5 152.5t-108.5 194t-34 246.5q2 121 40.5 226.5
t112.5 194t183 158t252.5 117.5t321 73.5t388.5 25.5q160 0 302.5 -12t268.5 -33.5t234 -51.5t199 -67v-365q-101 35 -211.5 66t-234.5 53.5t-264.5 35.5t-301.5 13q-212 0 -372 -27t-267.5 -80t-162 -131t-54.5 -180q0 -67 14 -121t49.5 -100.5t96.5 -88t153.5 -81.5
t221.5 -81.5t301 -88.5q188 -52 347.5 -100.5t289 -102t228 -117.5t164 -146.5t97.5 -189t29 -245.5q-2 -122 -42 -230t-119 -199.5t-197 -164.5t-275.5 -124t-355.5 -78t-437 -27q-158 0 -307.5 11.5t-285 32.5t-253 50.5t-210.5 65.5v360zM1303 3162l450 648h525
l-607 -648h-368z" />
    <glyph glyph-name="sacute" unicode="&#x15b;" horiz-adv-x="2626" 
d="M328 414q45 -16 105 -33t129.5 -32.5t147 -29t158 -23.5t160.5 -16t156 -6q187 0 325.5 19.5t230 58t136.5 94t45 127.5q0 77 -41 126t-120 83.5t-195 60t-267 54.5q-241 45 -418.5 95t-293.5 122t-173 174.5t-57 251.5q0 140 60.5 252.5t188 192t326 122.5t474.5 43
q84 0 163 -5t152 -15t140.5 -24t127.5 -31t113.5 -37.5t98.5 -42.5v-316q-48 20 -104 39t-118 35.5t-130 30t-140 23t-148 15t-155 5.5q-171 0 -291.5 -17.5t-197 -53t-111.5 -88.5t-35 -124q0 -77 41 -125.5t120 -81.5t195 -58t267 -54q240 -45 417 -95.5t293.5 -123.5
t174 -176t57.5 -252q0 -140 -74 -255.5t-219 -198t-360.5 -128t-497.5 -45.5q-125 0 -249 12t-236.5 32.5t-208 48t-162.5 58.5v312zM1168 2408l450 648h525l-607 -648h-368z" />
    <glyph glyph-name="Scircumflex" unicode="&#x15c;" horiz-adv-x="3097" 
d="M283 471q103 -32 226 -61t260.5 -51t284.5 -35t298 -13q235 0 417 30t307 87.5t190 140.5t65 189q0 68 -19.5 124t-61.5 103t-108 87.5t-160 79.5t-217 77.5t-278 81.5q-168 46 -319 93t-279.5 101.5t-231.5 121.5t-174.5 152.5t-108.5 194t-34 246.5q2 121 40.5 226.5
t112.5 194t183 158t252.5 117.5t321 73.5t388.5 25.5q160 0 302.5 -12t268.5 -33.5t234 -51.5t199 -67v-365q-101 35 -211.5 66t-234.5 53.5t-264.5 35.5t-301.5 13q-212 0 -372 -27t-267.5 -80t-162 -131t-54.5 -180q0 -67 14 -121t49.5 -100.5t96.5 -88t153.5 -81.5
t221.5 -81.5t301 -88.5q188 -52 347.5 -100.5t289 -102t228 -117.5t164 -146.5t97.5 -189t29 -245.5q-2 -122 -42 -230t-119 -199.5t-197 -164.5t-275.5 -124t-355.5 -78t-437 -27q-158 0 -307.5 11.5t-285 32.5t-253 50.5t-210.5 65.5v360zM1929 3162l-426 328l-426 -328
h-368l614 648h360l615 -648h-369z" />
    <glyph glyph-name="scircumflex" unicode="&#x15d;" horiz-adv-x="2626" 
d="M328 414q45 -16 105 -33t129.5 -32.5t147 -29t158 -23.5t160.5 -16t156 -6q187 0 325.5 19.5t230 58t136.5 94t45 127.5q0 77 -41 126t-120 83.5t-195 60t-267 54.5q-241 45 -418.5 95t-293.5 122t-173 174.5t-57 251.5q0 140 60.5 252.5t188 192t326 122.5t474.5 43
q84 0 163 -5t152 -15t140.5 -24t127.5 -31t113.5 -37.5t98.5 -42.5v-316q-48 20 -104 39t-118 35.5t-130 30t-140 23t-148 15t-155 5.5q-171 0 -291.5 -17.5t-197 -53t-111.5 -88.5t-35 -124q0 -77 41 -125.5t120 -81.5t195 -58t267 -54q240 -45 417 -95.5t293.5 -123.5
t174 -176t57.5 -252q0 -140 -74 -255.5t-219 -198t-360.5 -128t-497.5 -45.5q-125 0 -249 12t-236.5 32.5t-208 48t-162.5 58.5v312zM1794 2408l-426 328l-426 -328h-368l614 648h360l615 -648h-369z" />
    <glyph glyph-name="Scedilla" unicode="&#x15e;" horiz-adv-x="3097" 
d="M1049 -643q40 -9 83.5 -15t108.5 -6q26 0 59.5 5.5t63 20.5t50 40.5t20.5 65.5q0 43 -24 75.5t-63.5 56.5t-89.5 39.5t-102 24.5l172 287q-157 1 -305 13t-281.5 33t-249.5 49.5t-208 64.5v360q103 -32 226 -61t260.5 -51t284.5 -35t298 -13q235 0 417 30t307 87.5
t190 140.5t65 189q0 68 -19.5 124t-61.5 103t-108 87.5t-160 79.5t-217 77.5t-278 81.5q-168 46 -319 93t-279.5 101.5t-231.5 121.5t-174.5 152.5t-108.5 194t-34 246.5q2 121 40.5 226.5t112.5 194t183 158t252.5 117.5t321 73.5t388.5 25.5q160 0 302.5 -12t268.5 -33.5
t234 -51.5t199 -67v-365q-101 35 -211.5 66t-234.5 53.5t-264.5 35.5t-301.5 13q-212 0 -372 -27t-267.5 -80t-162 -131t-54.5 -180q0 -67 14 -121t49.5 -100.5t96.5 -88t153.5 -81.5t221.5 -81.5t301 -88.5q188 -52 347.5 -100.5t289 -102t228 -117.5t164 -146.5t97.5 -189
t29 -245.5q-3 -169 -79 -311t-226.5 -248.5t-377 -172.5t-530.5 -83l-98 -205q57 -14 105.5 -39t84.5 -60.5t56 -80t20 -98.5q0 -94 -38 -162t-101 -112.5t-144 -65.5t-167 -21q-62 0 -117 8.5t-104 20.5v213z" />
    <glyph glyph-name="scedilla" unicode="&#x15f;" horiz-adv-x="2626" 
d="M836 -643q40 -9 83.5 -15t108.5 -6q26 0 59.5 5.5t63 20.5t50 40.5t20.5 65.5q0 43 -24 75.5t-63.5 56.5t-89.5 39.5t-102 24.5l172 287q-117 3 -230.5 16t-216 33.5t-189.5 46.5t-150 55v312q45 -16 105 -33t129.5 -32.5t147 -29t158 -23.5t160.5 -16t156 -6
q187 0 325.5 19.5t230 58t136.5 94t45 127.5q0 77 -41 126t-120 83.5t-195 60t-267 54.5q-241 45 -418.5 95t-293.5 122t-173 174.5t-57 251.5q0 140 60.5 252.5t188 192t326 122.5t474.5 43q84 0 163 -5t152 -15t140.5 -24t127.5 -31t113.5 -37.5t98.5 -42.5v-316
q-48 20 -104 39t-118 35.5t-130 30t-140 23t-148 15t-155 5.5q-171 0 -291.5 -17.5t-197 -53t-111.5 -88.5t-35 -124q0 -77 41 -125.5t120 -81.5t195 -58t267 -54q240 -45 417 -95.5t293.5 -123.5t174 -176t57.5 -252q0 -131 -64 -240t-189.5 -190t-312 -131t-430.5 -62
l-98 -201q57 -14 105.5 -39t84.5 -60.5t56 -80t20 -98.5q0 -94 -38 -162t-101 -112.5t-144 -65.5t-167 -21q-62 0 -117 8.5t-104 20.5v213z" />
    <glyph glyph-name="Scaron" unicode="&#x160;" horiz-adv-x="3097" 
d="M283 471q103 -32 226 -61t260.5 -51t284.5 -35t298 -13q235 0 417 30t307 87.5t190 140.5t65 189q0 68 -19.5 124t-61.5 103t-108 87.5t-160 79.5t-217 77.5t-278 81.5q-168 46 -319 93t-279.5 101.5t-231.5 121.5t-174.5 152.5t-108.5 194t-34 246.5q2 121 40.5 226.5
t112.5 194t183 158t252.5 117.5t321 73.5t388.5 25.5q160 0 302.5 -12t268.5 -33.5t234 -51.5t199 -67v-365q-101 35 -211.5 66t-234.5 53.5t-264.5 35.5t-301.5 13q-212 0 -372 -27t-267.5 -80t-162 -131t-54.5 -180q0 -67 14 -121t49.5 -100.5t96.5 -88t153.5 -81.5
t221.5 -81.5t301 -88.5q188 -52 347.5 -100.5t289 -102t228 -117.5t164 -146.5t97.5 -189t29 -245.5q-2 -122 -42 -230t-119 -199.5t-197 -164.5t-275.5 -124t-355.5 -78t-437 -27q-158 0 -307.5 11.5t-285 32.5t-253 50.5t-210.5 65.5v360zM1323 3162l-614 648h368
l426 -332l426 332h369l-615 -648h-360z" />
    <glyph glyph-name="scaron" unicode="&#x161;" horiz-adv-x="2626" 
d="M328 414q45 -16 105 -33t129.5 -32.5t147 -29t158 -23.5t160.5 -16t156 -6q187 0 325.5 19.5t230 58t136.5 94t45 127.5q0 77 -41 126t-120 83.5t-195 60t-267 54.5q-241 45 -418.5 95t-293.5 122t-173 174.5t-57 251.5q0 140 60.5 252.5t188 192t326 122.5t474.5 43
q84 0 163 -5t152 -15t140.5 -24t127.5 -31t113.5 -37.5t98.5 -42.5v-316q-48 20 -104 39t-118 35.5t-130 30t-140 23t-148 15t-155 5.5q-171 0 -291.5 -17.5t-197 -53t-111.5 -88.5t-35 -124q0 -77 41 -125.5t120 -81.5t195 -58t267 -54q240 -45 417 -95.5t293.5 -123.5
t174 -176t57.5 -252q0 -140 -74 -255.5t-219 -198t-360.5 -128t-497.5 -45.5q-125 0 -249 12t-236.5 32.5t-208 48t-162.5 58.5v312zM1188 2408l-614 648h368l426 -332l426 332h369l-615 -648h-360z" />
    <glyph glyph-name="Tcommaaccent" unicode="&#x162;" horiz-adv-x="3092" 
d="M1335 0v2621h-1200v345h2822v-345h-1200v-2621h-422zM1307 -983l-156 156l260 276l-92 379h250q51 0 95 -15t76.5 -43.5t51.5 -69.5t19 -93q0 -57 -21 -113t-62 -112t-100.5 -111.5t-136.5 -114.5z" />
    <glyph glyph-name="tcommaaccent" unicode="&#x163;" horiz-adv-x="2187" 
d="M1974 53q-57 -21 -124 -40t-144.5 -32.5t-165 -21.5t-184.5 -8q-191 0 -333.5 36.5t-238 116t-143 204.5t-47.5 302v1172h-455v319h471l49 525h336v-525h1012v-319h-1012v-1118q0 -109 28.5 -183t87.5 -119t150.5 -64t217.5 -19q70 0 137.5 6.5t130 18.5t119.5 28.5
t108 36.5v-316zM1040 -983l-156 156l260 276l-92 379h250q51 0 95 -15t76.5 -43.5t51.5 -69.5t19 -93q0 -57 -21 -113t-62 -112t-100.5 -111.5t-136.5 -114.5z" />
    <glyph glyph-name="Tcaron" unicode="&#x164;" horiz-adv-x="3092" 
d="M1335 0v2621h-1200v345h2822v-345h-1200v-2621h-422zM1364 3162l-614 648h368l426 -332l426 332h369l-615 -648h-360z" />
    <glyph glyph-name="tcaron" unicode="&#x165;" horiz-adv-x="2187" 
d="M1974 53q-57 -21 -124 -40t-144.5 -32.5t-165 -21.5t-184.5 -8q-191 0 -333.5 36.5t-238 116t-143 204.5t-47.5 302v1172h-455v319h471l49 525h336v-525h1012v-319h-1012v-1118q0 -109 28.5 -183t87.5 -119t150.5 -64t217.5 -19q70 0 137.5 6.5t130 18.5t119.5 28.5
t108 36.5v-316zM1425 2483l123 438l-102 414h249q51 0 95 -15t77 -43.5t51.5 -70t18.5 -93.5q0 -58 -12.5 -111.5t-34 -107t-51.5 -110.5t-66 -121l-98 -180h-250z" />
    <glyph glyph-name="Tbar" unicode="&#x166;" horiz-adv-x="3092" 
d="M1335 0v1221h-630v307h630v1093h-1200v345h2822v-345h-1200v-1093h631v-307h-631v-1221h-422z" />
    <glyph glyph-name="tbar" unicode="&#x167;" horiz-adv-x="2187" 
d="M1974 53q-57 -21 -124 -40t-144.5 -32.5t-165 -21.5t-184.5 -8q-191 0 -333.5 36.5t-238 116t-143 204.5t-47.5 302v328h-258v307h258v537h-455v319h471l49 525h336v-525h1012v-319h-1012v-537h676v-307h-676v-274q0 -109 28.5 -183t87.5 -119t150.5 -64t217.5 -19
q70 0 137.5 6.5t130 18.5t119.5 28.5t108 36.5v-316z" />
    <glyph glyph-name="Utilde" unicode="&#x168;" horiz-adv-x="3600" 
d="M2736 2966h422v-1848q0 -182 -43.5 -339.5t-126 -287t-202 -230.5t-270.5 -169.5t-331.5 -104.5t-386.5 -36q-209 0 -390.5 36t-332 104.5t-268.5 169.5t-199 230.5t-123.5 287t-42.5 339.5v1848h422v-1815q0 -207 59 -365.5t176 -266t292 -162t407 -54.5
q234 0 409.5 54.5t293 162t176.5 266t59 365.5v1815zM2576 3744q0 -103 -26 -199.5t-81.5 -171.5t-142.5 -120t-208 -45q-73 0 -135.5 18t-117.5 44.5t-103.5 58t-93.5 58t-87.5 44.5t-85.5 18q-45 0 -78 -15t-56 -43.5t-36.5 -69.5t-17.5 -93h-283q0 103 26 199.5t82 171.5
t142.5 120.5t208.5 45.5q73 0 135.5 -18t117 -45t103 -58t93.5 -58t87.5 -45t85.5 -18q45 0 78 15t56 43.5t36.5 69.5t18.5 93h282z" />
    <glyph glyph-name="utilde" unicode="&#x169;" horiz-adv-x="3133" 
d="M2322 0l-32 180q-78 -51 -174 -93t-205.5 -72t-230.5 -47t-250 -17q-132 0 -258 13.5t-237.5 47.5t-205 91t-161 144.5t-105 208t-37.5 281.5v1364h405v-1294q0 -149 45.5 -251.5t132.5 -166t214.5 -91.5t292.5 -28q120 0 219 13t187 38.5t169.5 63t165.5 86.5v1630h405
v-2101h-340zM2322 2990q0 -103 -26 -199.5t-81.5 -171.5t-142.5 -120t-208 -45q-73 0 -135.5 18t-117.5 44.5t-103.5 58t-93.5 58t-87.5 44.5t-85.5 18q-45 0 -78 -15t-56 -43.5t-36.5 -69.5t-17.5 -93h-283q0 103 26 199.5t82 171.5t142.5 120.5t208.5 45.5q73 0 135.5 -18
t117 -45t103 -58t93.5 -58t87.5 -45t85.5 -18q45 0 78 15t56 43.5t36.5 69.5t18.5 93h282z" />
    <glyph glyph-name="Umacron" unicode="&#x16a;" horiz-adv-x="3600" 
d="M2736 2966h422v-1848q0 -182 -43.5 -339.5t-126 -287t-202 -230.5t-270.5 -169.5t-331.5 -104.5t-386.5 -36q-209 0 -390.5 36t-332 104.5t-268.5 169.5t-199 230.5t-123.5 287t-42.5 339.5v1848h422v-1815q0 -207 59 -365.5t176 -266t292 -162t407 -54.5
q234 0 409.5 54.5t293 162t176.5 266t59 365.5v1815zM1085 3302v307h1426v-307h-1426z" />
    <glyph glyph-name="umacron" unicode="&#x16b;" horiz-adv-x="3133" 
d="M2322 0l-32 180q-78 -51 -174 -93t-205.5 -72t-230.5 -47t-250 -17q-132 0 -258 13.5t-237.5 47.5t-205 91t-161 144.5t-105 208t-37.5 281.5v1364h405v-1294q0 -149 45.5 -251.5t132.5 -166t214.5 -91.5t292.5 -28q120 0 219 13t187 38.5t169.5 63t165.5 86.5v1630h405
v-2101h-340zM831 2548v307h1426v-307h-1426z" />
    <glyph glyph-name="Ubreve" unicode="&#x16c;" horiz-adv-x="3600" 
d="M2736 2966h422v-1848q0 -182 -43.5 -339.5t-126 -287t-202 -230.5t-270.5 -169.5t-331.5 -104.5t-386.5 -36q-209 0 -390.5 36t-332 104.5t-268.5 169.5t-199 230.5t-123.5 287t-42.5 339.5v1848h422v-1815q0 -207 59 -365.5t176 -266t292 -162t407 -54.5
q234 0 409.5 54.5t293 162t176.5 266t59 365.5v1815zM2511 3810q-3 -154 -54.5 -278.5t-144 -213t-223 -136.5t-291.5 -48t-291.5 48t-223 136.5t-144 213t-54.5 278.5h287q8 -88 38 -156t83 -114.5t129 -70.5t176 -24t176 24t129 70.5t83 114.5t38 156h287z" />
    <glyph glyph-name="ubreve" unicode="&#x16d;" horiz-adv-x="3133" 
d="M2322 0l-32 180q-78 -51 -174 -93t-205.5 -72t-230.5 -47t-250 -17q-132 0 -258 13.5t-237.5 47.5t-205 91t-161 144.5t-105 208t-37.5 281.5v1364h405v-1294q0 -149 45.5 -251.5t132.5 -166t214.5 -91.5t292.5 -28q120 0 219 13t187 38.5t169.5 63t165.5 86.5v1630h405
v-2101h-340zM2257 3056q-3 -154 -54.5 -278.5t-144 -213t-223 -136.5t-291.5 -48t-291.5 48t-223 136.5t-144 213t-54.5 278.5h287q8 -88 38 -156t83 -114.5t129 -70.5t176 -24t176 24t129 70.5t83 114.5t38 156h287z" />
    <glyph glyph-name="Uring" unicode="&#x16e;" horiz-adv-x="3600" 
d="M2736 2966h422v-1848q0 -182 -43.5 -339.5t-126 -287t-202 -230.5t-270.5 -169.5t-331.5 -104.5t-386.5 -36q-209 0 -390.5 36t-332 104.5t-268.5 169.5t-199 230.5t-123.5 287t-42.5 339.5v1848h422v-1815q0 -207 59 -365.5t176 -266t292 -162t407 -54.5
q234 0 409.5 54.5t293 162t176.5 266t59 365.5v1815zM2253 3580q0 -93 -35.5 -173t-97 -138t-144.5 -90.5t-178 -32.5q-94 0 -177 32.5t-144.5 90.5t-97 138t-35.5 173q0 94 35.5 173.5t97 137.5t144.5 90.5t177 32.5q95 0 178 -32.5t144.5 -90.5t97 -137.5t35.5 -173.5z
M1798 3355q49 0 90 17.5t71 48t47 71.5t17 88t-17 87.5t-47 71t-71 49t-90 18.5t-90 -18.5t-71 -49t-47 -71t-17 -87.5t17 -88t47 -71.5t71 -48t90 -17.5z" />
    <glyph glyph-name="uring" unicode="&#x16f;" horiz-adv-x="3133" 
d="M2322 0l-32 180q-78 -51 -174 -93t-205.5 -72t-230.5 -47t-250 -17q-132 0 -258 13.5t-237.5 47.5t-205 91t-161 144.5t-105 208t-37.5 281.5v1364h405v-1294q0 -149 45.5 -251.5t132.5 -166t214.5 -91.5t292.5 -28q120 0 219 13t187 38.5t169.5 63t165.5 86.5v1630h405
v-2101h-340zM1999 2826q0 -93 -35.5 -173t-97 -138t-144.5 -90.5t-178 -32.5q-94 0 -177 32.5t-144.5 90.5t-97 138t-35.5 173q0 94 35.5 173.5t97 137.5t144.5 90.5t177 32.5q95 0 178 -32.5t144.5 -90.5t97 -137.5t35.5 -173.5zM1544 2601q49 0 90 17.5t71 48t47 71.5
t17 88t-17 87.5t-47 71t-71 49t-90 18.5t-90 -18.5t-71 -49t-47 -71t-17 -87.5t17 -88t47 -71.5t71 -48t90 -17.5z" />
    <glyph glyph-name="Uhungarumlaut" unicode="&#x170;" horiz-adv-x="3600" 
d="M2736 2966h422v-1848q0 -182 -43.5 -339.5t-126 -287t-202 -230.5t-270.5 -169.5t-331.5 -104.5t-386.5 -36q-209 0 -390.5 36t-332 104.5t-268.5 169.5t-199 230.5t-123.5 287t-42.5 339.5v1848h422v-1815q0 -207 59 -365.5t176 -266t292 -162t407 -54.5
q234 0 409.5 54.5t293 162t176.5 266t59 365.5v1815zM1184 3162l286 648h496l-442 -648h-340zM2072 3162l287 648h496l-443 -648h-340z" />
    <glyph glyph-name="uhungarumlaut" unicode="&#x171;" horiz-adv-x="3133" 
d="M2322 0l-32 180q-78 -51 -174 -93t-205.5 -72t-230.5 -47t-250 -17q-132 0 -258 13.5t-237.5 47.5t-205 91t-161 144.5t-105 208t-37.5 281.5v1364h405v-1294q0 -149 45.5 -251.5t132.5 -166t214.5 -91.5t292.5 -28q120 0 219 13t187 38.5t169.5 63t165.5 86.5v1630h405
v-2101h-340zM930 2408l286 648h496l-442 -648h-340zM1818 2408l287 648h496l-443 -648h-340z" />
    <glyph glyph-name="Uogonek" unicode="&#x172;" horiz-adv-x="3600" 
d="M2138 -860q-49 -13 -105.5 -19t-115.5 -6q-126 0 -215.5 32t-146 83.5t-83 118t-26.5 135.5q0 92 30.5 167t76.5 132.5t98.5 99.5t97.5 68q-202 4 -377 42t-320.5 108t-259 170.5t-191 229t-118.5 283.5t-41 334v1848h422v-1815q0 -207 59 -365.5t176 -266t292 -162
t407 -54.5q234 0 409.5 54.5t293 162t176.5 266t59 365.5v1815h422v-1848q0 -148 -28.5 -279t-83.5 -244t-135.5 -207t-184 -169.5t-230 -131t-272.5 -91.5q-100 -25 -186 -71.5t-149.5 -106.5t-99.5 -130.5t-36 -142.5q0 -101 62 -150.5t176 -49.5q23 0 43 1.5t38 3.5
t34.5 5t31.5 6v-221z" />
    <glyph glyph-name="uogonek" unicode="&#x173;" horiz-adv-x="3133" 
d="M2662 -860q-49 -13 -105.5 -19t-115.5 -6q-126 0 -215.5 32t-146 83.5t-83 118t-26.5 135.5q0 81 30 154t79.5 137.5t113 120.5t129.5 104l-32 180q-78 -51 -174 -93t-205.5 -72t-230.5 -47t-250 -17q-132 0 -258 13.5t-237.5 47.5t-205 91t-161 144.5t-105 208
t-37.5 281.5v1364h405v-1294q0 -149 45.5 -251.5t132.5 -166t214.5 -91.5t292.5 -28q120 0 219 13t187 38.5t169.5 63t165.5 86.5v1630h405v-2101h-98q-59 -57 -111 -115t-91 -115.5t-62 -114t-23 -110.5q0 -101 62 -150.5t176 -49.5q23 0 43 1.5t38 3.5t34.5 5t31.5 6v-221
z" />
    <glyph glyph-name="Wcircumflex" unicode="&#x174;" horiz-adv-x="5476" 
d="M3731 0l-794 1946q-25 61 -50 121.5t-50.5 121.5t-50.5 121.5t-50 122.5q-24 -62 -48.5 -122.5t-49.5 -121.5t-49.5 -121.5t-48.5 -121.5l-795 -1946h-430l-1282 2966h463l831 -2003q26 -63 52 -125.5t52.5 -124.5t52.5 -124.5t52 -125.5q25 63 50 125.5t50.5 124.5
t50.5 124.5t50 125.5l803 2003h397l811 -2024q24 -63 49.5 -126l51 -126t52 -126t52.5 -126q26 63 52.5 126t53.5 126l54 126t53 126l843 2024h435l-1282 -2966h-431zM3162 3162l-426 328l-426 -328h-368l614 648h360l615 -648h-369z" />
    <glyph glyph-name="wcircumflex" unicode="&#x175;" horiz-adv-x="4239" 
d="M2814 0l-561 1339q-34 84 -69.5 166.5t-69.5 165.5q-35 -83 -70.5 -169.5t-69.5 -170.5l-549 -1331h-376l-983 2101h442l586 -1339q37 -84 73.5 -168t73.5 -168q34 84 69.5 168t69.5 168l553 1339h377l565 -1339q34 -84 70 -166t70 -166q37 84 71.5 166t71.5 166
l582 1339h434l-983 -2101h-377zM2543 2408l-426 328l-426 -328h-368l614 648h360l615 -648h-369z" />
    <glyph glyph-name="Ycircumflex" unicode="&#x176;" horiz-adv-x="3183" 
d="M1380 0v1106l-1372 1860h496l1089 -1520l1102 1520h479l-1372 -1856v-1110h-422zM2015 3162l-426 328l-426 -328h-368l614 648h360l615 -648h-369z" />
    <glyph glyph-name="ycircumflex" unicode="&#x177;" horiz-adv-x="2630" 
d="M16 -553q41 -9 90.5 -17t114.5 -8q95 0 180 13.5t160.5 41.5t142.5 70.5t127.5 101t114.5 133t103 165.5l53 98l-1053 2056h451l680 -1384q37 -75 71.5 -146.5t71.5 -148.5q37 77 71.5 151t71.5 148l672 1380h442l-1110 -2162q-67 -130 -140 -244t-157.5 -208.5
t-182.5 -169t-214 -125.5t-252.5 -78t-298.5 -27q-24 0 -52.5 1.5t-56.5 5t-54 8.5t-46 13v332zM1724 2408l-426 328l-426 -328h-368l614 648h360l615 -648h-369z" />
    <glyph glyph-name="Ydieresis" unicode="&#x178;" horiz-adv-x="3183" 
d="M1380 0v1106l-1372 1860h496l1089 -1520l1102 1520h479l-1372 -1856v-1110h-422zM836 3281v414h438v-414h-438zM1905 3281v414h438v-414h-438z" />
    <glyph glyph-name="Zacute" unicode="&#x179;" horiz-adv-x="3117" 
d="M270 0v324l1999 2297h-1954v345h2474v-324l-1994 -2298h2052v-344h-2577zM1368 3162l450 648h525l-607 -648h-368z" />
    <glyph glyph-name="zacute" unicode="&#x17a;" horiz-adv-x="2646" 
d="M238 0v279l1564 1503h-1503v319h2056v-274l-1573 -1508h1626v-319h-2170zM1118 2408l450 648h525l-607 -648h-368z" />
    <glyph glyph-name="Zdotaccent" unicode="&#x17b;" horiz-adv-x="3117" 
d="M270 0v324l1999 2297h-1954v345h2474v-324l-1994 -2298h2052v-344h-2577zM1344 3257v446h454v-446h-454z" />
    <glyph glyph-name="zdotaccent" unicode="&#x17c;" horiz-adv-x="2646" 
d="M238 0v279l1564 1503h-1503v319h2056v-274l-1573 -1508h1626v-319h-2170zM1094 2503v446h454v-446h-454z" />
    <glyph glyph-name="Zcaron" unicode="&#x17d;" horiz-adv-x="3117" 
d="M270 0v324l1999 2297h-1954v345h2474v-324l-1994 -2298h2052v-344h-2577zM1389 3162l-614 648h368l426 -332l426 332h369l-615 -648h-360z" />
    <glyph glyph-name="zcaron" unicode="&#x17e;" horiz-adv-x="2646" 
d="M238 0v279l1564 1503h-1503v319h2056v-274l-1573 -1508h1626v-319h-2170zM1139 2408l-614 648h368l426 -332l426 332h369l-615 -648h-360z" />
    <glyph glyph-name="florin" unicode="&#x192;" 
d="M1827 1397l-135 -852q-39 -237 -121 -418.5t-221.5 -305.5t-342.5 -187.5t-483 -63.5q-23 0 -50.5 2t-55.5 5.5t-52.5 7.5t-41.5 9l45 312q14 -3 33.5 -5.5t40.5 -4t41.5 -2t35.5 -0.5q169 0 299 34.5t224.5 113t155 205t91.5 310.5l135 840h-827l49 319h828l49 299
q40 247 121 434.5t213 313t318.5 189t436.5 63.5q40 0 83 -3t86 -8t84.5 -11.5t79 -13.5t68.5 -15t54 -15l-49 -315q-29 10 -72 20t-93 17t-103.5 11.5t-104.5 4.5q-167 0 -290 -35.5t-209.5 -119t-142 -222t-87.5 -344.5l-41 -250h1003l-49 -319h-1003z" />
    <glyph glyph-name="Scommaaccent" unicode="&#x218;" horiz-adv-x="3097" 
d="M283 471q103 -32 226 -61t260.5 -51t284.5 -35t298 -13q235 0 417 30t307 87.5t190 140.5t65 189q0 68 -19.5 124t-61.5 103t-108 87.5t-160 79.5t-217 77.5t-278 81.5q-168 46 -319 93t-279.5 101.5t-231.5 121.5t-174.5 152.5t-108.5 194t-34 246.5q2 121 40.5 226.5
t112.5 194t183 158t252.5 117.5t321 73.5t388.5 25.5q160 0 302.5 -12t268.5 -33.5t234 -51.5t199 -67v-365q-101 35 -211.5 66t-234.5 53.5t-264.5 35.5t-301.5 13q-212 0 -372 -27t-267.5 -80t-162 -131t-54.5 -180q0 -67 14 -121t49.5 -100.5t96.5 -88t153.5 -81.5
t221.5 -81.5t301 -88.5q188 -52 347.5 -100.5t289 -102t228 -117.5t164 -146.5t97.5 -189t29 -245.5q-2 -122 -42 -230t-119 -199.5t-197 -164.5t-275.5 -124t-355.5 -78t-437 -27q-158 0 -307.5 11.5t-285 32.5t-253 50.5t-210.5 65.5v360zM1319 -983l-156 156l260 276
l-92 379h250q51 0 95 -15t76.5 -43.5t51.5 -69.5t19 -93q0 -57 -21 -113t-62 -112t-100.5 -111.5t-136.5 -114.5z" />
    <glyph glyph-name="scommaaccent" unicode="&#x219;" horiz-adv-x="2626" 
d="M328 414q45 -16 105 -33t129.5 -32.5t147 -29t158 -23.5t160.5 -16t156 -6q187 0 325.5 19.5t230 58t136.5 94t45 127.5q0 77 -41 126t-120 83.5t-195 60t-267 54.5q-241 45 -418.5 95t-293.5 122t-173 174.5t-57 251.5q0 140 60.5 252.5t188 192t326 122.5t474.5 43
q84 0 163 -5t152 -15t140.5 -24t127.5 -31t113.5 -37.5t98.5 -42.5v-316q-48 20 -104 39t-118 35.5t-130 30t-140 23t-148 15t-155 5.5q-171 0 -291.5 -17.5t-197 -53t-111.5 -88.5t-35 -124q0 -77 41 -125.5t120 -81.5t195 -58t267 -54q240 -45 417 -95.5t293.5 -123.5
t174 -176t57.5 -252q0 -140 -74 -255.5t-219 -198t-360.5 -128t-497.5 -45.5q-125 0 -249 12t-236.5 32.5t-208 48t-162.5 58.5v312zM1094 -983l-156 156l260 276l-92 379h250q51 0 95 -15t76.5 -43.5t51.5 -69.5t19 -93q0 -57 -21 -113t-62 -112t-100.5 -111.5
t-136.5 -114.5z" />
    <glyph glyph-name="uni021A" unicode="&#x21a;" horiz-adv-x="3092" 
d="M1335 0v2621h-1200v345h2822v-345h-1200v-2621h-422zM1307 -983l-156 156l260 276l-92 379h250q51 0 95 -15t76.5 -43.5t51.5 -69.5t19 -93q0 -57 -21 -113t-62 -112t-100.5 -111.5t-136.5 -114.5z" />
    <glyph glyph-name="uni021B" unicode="&#x21b;" horiz-adv-x="2187" 
d="M1974 53q-57 -21 -124 -40t-144.5 -32.5t-165 -21.5t-184.5 -8q-191 0 -333.5 36.5t-238 116t-143 204.5t-47.5 302v1172h-455v319h471l49 525h336v-525h1012v-319h-1012v-1118q0 -109 28.5 -183t87.5 -119t150.5 -64t217.5 -19q70 0 137.5 6.5t130 18.5t119.5 28.5
t108 36.5v-316zM1040 -983l-156 156l260 276l-92 379h250q51 0 95 -15t76.5 -43.5t51.5 -69.5t19 -93q0 -57 -21 -113t-62 -112t-100.5 -111.5t-136.5 -114.5z" />
    <glyph glyph-name="dotlessj" unicode="&#x237;" horiz-adv-x="1348" 
d="M-291 -565q68 -16 128 -22.5t122 -6.5q146 0 244 39t157.5 120t85 205.5t25.5 295.5v2035h406v-2064q0 -241 -48.5 -419.5t-155 -296.5t-275.5 -176t-410 -58q-39 0 -77 2t-73.5 6.5t-68 10t-60.5 13.5v316z" />
    <glyph glyph-name="circumflex" unicode="&#x2c6;" horiz-adv-x="2064" 
d="M1458 2408l-426 328l-426 -328h-368l614 648h360l615 -648h-369z" />
    <glyph glyph-name="caron" unicode="&#x2c7;" horiz-adv-x="2064" 
d="M852 2408l-614 648h368l426 -332l426 332h369l-615 -648h-360z" />
    <glyph glyph-name="breve" unicode="&#x2d8;" horiz-adv-x="2064" 
d="M1745 3056q-3 -154 -54.5 -278.5t-144 -213t-223 -136.5t-291.5 -48t-291.5 48t-223 136.5t-144 213t-54.5 278.5h287q8 -88 38 -156t83 -114.5t129 -70.5t176 -24t176 24t129 70.5t83 114.5t38 156h287z" />
    <glyph glyph-name="dotaccent" unicode="&#x2d9;" horiz-adv-x="2064" 
d="M803 2503v446h454v-446h-454z" />
    <glyph glyph-name="ring" unicode="&#x2da;" horiz-adv-x="2064" 
d="M1487 2826q0 -93 -35.5 -173t-97 -138t-144.5 -90.5t-178 -32.5q-94 0 -177 32.5t-144.5 90.5t-97 138t-35.5 173q0 94 35.5 173.5t97 137.5t144.5 90.5t177 32.5q95 0 178 -32.5t144.5 -90.5t97 -137.5t35.5 -173.5zM1032 2601q49 0 90 17.5t71 48t47 71.5t17 88
t-17 87.5t-47 71t-71 49t-90 18.5t-90 -18.5t-71 -49t-47 -71t-17 -87.5t17 -88t47 -71.5t71 -48t90 -17.5z" />
    <glyph glyph-name="ogonek" unicode="&#x2db;" horiz-adv-x="2064" 
d="M1376 -860q-49 -13 -105.5 -19t-115.5 -6q-126 0 -215.5 32t-146 83.5t-83 118t-26.5 135.5q0 89 37 168.5t95.5 149.5t130.5 130t143 109h233q-65 -62 -124.5 -125t-106 -126t-74 -125t-27.5 -120q0 -101 62 -150.5t176 -49.5q23 0 43 1.5t38 3.5t34.5 5t31.5 6v-221z
" />
    <glyph glyph-name="tilde" unicode="&#x2dc;" horiz-adv-x="2064" 
d="M1806 2990q0 -103 -26 -199.5t-81.5 -171.5t-142.5 -120t-208 -45q-73 0 -135.5 18t-117.5 44.5t-103.5 58t-93.5 58t-87.5 44.5t-85.5 18q-45 0 -78 -15t-56 -43.5t-36.5 -69.5t-17.5 -93h-283q0 103 26 199.5t82 171.5t142.5 120.5t208.5 45.5q73 0 135.5 -18t117 -45
t103 -58t93.5 -58t87.5 -45t85.5 -18q45 0 78 15t56 43.5t36.5 69.5t18.5 93h282z" />
    <glyph glyph-name="hungarumlaut" unicode="&#x2dd;" horiz-adv-x="2064" 
d="M197 2408l286 648h496l-442 -648h-340zM1085 2408l287 648h496l-443 -648h-340z" />
    <glyph glyph-name="commatop" unicode="&#x312;" horiz-adv-x="2064" 
d="M942 2335q-51 0 -95 15t-76.5 43.5t-51.5 69.5t-19 93q0 58 21 116t62 115.5t100.5 115t136.5 116.5l184 139l156 -156l-262 -286l94 -381h-250z" />
    <glyph glyph-name="caronslovak" unicode="&#x315;" horiz-adv-x="2064" 
d="M774 2114l123 438l-102 414h249q51 0 95 -15t77 -43.5t51.5 -70t18.5 -93.5q0 -58 -12.5 -111.5t-34 -107t-51.5 -110.5t-66 -121l-98 -180h-250z" />
    <glyph glyph-name="commaaccent" unicode="&#x326;" horiz-adv-x="2064" 
d="M856 -983l-156 156l260 276l-92 379h250q51 0 95 -15t76.5 -43.5t51.5 -69.5t19 -93q0 -57 -21 -113t-62 -112t-100.5 -111.5t-136.5 -114.5z" />
    <glyph glyph-name="tonos" unicode="&#x384;" horiz-adv-x="2064" 
d="M774 3105h516l-184 -721h-148z" />
    <glyph glyph-name="dieresistonos" unicode="&#x385;" horiz-adv-x="2064" 
d="M197 2941h397v-414h-397v414zM815 3105h434l-143 -721h-148zM1470 2941h398v-414h-398v414z" />
    <glyph glyph-name="Alphatonos" unicode="&#x386;" horiz-adv-x="3494" 
d="M3002 0l-367 731l-1 2h-1786l-1 -2l-364 -731h-463l1483 2966h488l1482 -2966h-471zM1917 2220q-43 87 -88 179t-88 181q-44 -89 -88.5 -179.5t-87.5 -180.5l-565 -1141l-1 -2h1483l-1 2zM365 2966h516l-184 -721h-148z" />
    <glyph glyph-name="Epsilontonos" unicode="&#x388;" horiz-adv-x="3469" 
d="M799 0v2966h2359v-345h-1938v-925h1692v-344h-1692v-1008h1962v-344h-2383zM-40 2966h516l-184 -721h-148z" />
    <glyph glyph-name="Etatonos" unicode="&#x389;" horiz-adv-x="4043" 
d="M3129 0v1315h-1909v-1315h-421v2966h421v-1307h1909v1307h422v-2966h-422zM-40 2966h516l-184 -721h-148z" />
    <glyph glyph-name="Iotatonos" unicode="&#x38a;" horiz-adv-x="2658" 
d="M803 0v344h553v2277h-553v345h1527v-345h-552v-2277h552v-344h-1527zM-40 2966h516l-184 -721h-148z" />
    <glyph glyph-name="Omicrontonos" unicode="&#x38c;" horiz-adv-x="4022" 
d="M2142 -49q-260 0 -478 50.5t-394 145.5t-308.5 230.5t-221.5 306t-134 372t-45 427.5q0 218 46.5 416.5t137.5 368.5t225.5 308t310 235.5t391.5 150.5t470 53q260 0 478 -50.5t394 -145.5t308.5 -230.5t221.5 -306t134 -372t45 -427.5q0 -218 -46.5 -416.5
t-137.5 -368.5t-225.5 -308t-310 -235.5t-391.5 -150.5t-470 -53zM2142 287q195 0 355.5 42.5t288.5 120t223 186.5t158.5 242t94.5 286t31 319t-31 319t-94.5 286t-158.5 242t-223 186.5t-289 120t-355 42.5t-355 -42.5t-289 -120t-223 -186.5t-158.5 -242t-94.5 -286
t-31 -319t31 -319t94.5 -286t158.5 -242t223 -186.5t288.5 -120t355.5 -42.5zM-40 2966h516l-184 -721h-148z" />
    <glyph glyph-name="Upsilontonos" unicode="&#x38e;" horiz-adv-x="3797" 
d="M1994 0v1106l-1372 1860h496l1089 -1520l1102 1520h479l-1372 -1856v-1110h-422zM-73 2966h516l-184 -721h-148z" />
    <glyph glyph-name="Omegatonos" unicode="&#x38f;" horiz-adv-x="4178" 
d="M2469 0v324q209 63 363.5 173t256 259t151 333t49.5 394q0 166 -31 319t-94.5 286t-158.5 242t-223 186.5t-289 120t-355 42.5q-195 0 -356 -42.5t-289 -120t-223 -186.5t-158 -242t-94 -286t-31 -319q0 -210 49.5 -394t151 -333t255.5 -259t363 -173v-324h-1446v344h786
q-138 89 -247.5 209t-185 265t-116 312.5t-40.5 352.5q0 218 46.5 416.5t137.5 368.5t225.5 308t310 235.5t391.5 150.5t470 53q260 0 478 -50.5t394 -145.5t308.5 -230.5t221.5 -306t134 -372t45 -427.5q0 -185 -41 -352.5t-117.5 -312.5t-186 -265t-245.5 -209h786v-344
h-1446zM-40 2966h516l-184 -721h-148z" />
    <glyph glyph-name="iotadieresistonos" unicode="&#x390;" horiz-adv-x="1593" 
d="M1016 -49q-157 0 -265 35t-174.5 103t-96 169.5t-29.5 233.5v1609h405v-1560q0 -63 10.5 -110.5t39 -79.5t78.5 -48t130 -16q124 0 221 11t168 30v-312q-43 -12 -94.5 -23.5t-112 -21t-130.5 -15t-150 -5.5zM-183 2941h397v-414h-397v414zM435 3105h434l-143 -721h-148z
M1090 2941h398v-414h-398v414z" />
    <glyph glyph-name="Alpha" unicode="&#x391;" horiz-adv-x="3494" 
d="M3002 0l-367 731l-1 2h-1786l-1 -2l-364 -731h-463l1483 2966h488l1482 -2966h-471zM1917 2220q-43 87 -88 179t-88 181q-44 -89 -88.5 -179.5t-87.5 -180.5l-565 -1141l-1 -2h1483l-1 2z" />
    <glyph glyph-name="Beta" unicode="&#x392;" horiz-adv-x="3326" 
d="M492 0v2966h1118q312 0 548.5 -53.5t395.5 -158t240 -259t81 -357.5q0 -128 -33 -227.5t-94.5 -176t-150.5 -131.5t-201 -92q149 -38 265.5 -97.5t197 -143t122.5 -193.5t42 -250q0 -135 -36 -249t-107.5 -205.5t-177.5 -161.5t-247 -116.5t-315.5 -70.5t-382.5 -24
h-1265zM1667 340q226 0 398 22.5t288.5 78t176 149.5t59.5 237t-59.5 237.5t-176 151t-288.5 80t-398 23.5h-754v-979h754zM1520 1647q226 0 398 23t288 79.5t175.5 151t59.5 237.5t-59.5 237t-175.5 150t-288 78.5t-398 22.5h-607v-979h607z" />
    <glyph glyph-name="Gamma" unicode="&#x393;" horiz-adv-x="2732" 
d="M492 2966h2105v-345h-1684v-2621h-421v2966z" />
    <glyph glyph-name="uni0394" unicode="&#x394;" horiz-adv-x="3543" 
d="M197 0v324l1343 2642h463l1343 -2642v-324h-3149zM2040 1978q-34 68 -68.5 136.5t-69 136.5l-69 136t-68.5 136q-34 -68 -68.5 -136l-69 -136t-68.5 -136.5t-68 -136.5l-823 -1634h2195z" />
    <glyph glyph-name="Epsilon" unicode="&#x395;" horiz-adv-x="3162" 
d="M492 0v2966h2359v-345h-1938v-925h1692v-344h-1692v-1008h1962v-344h-2383z" />
    <glyph glyph-name="Zeta" unicode="&#x396;" horiz-adv-x="3117" 
d="M270 0v324l1999 2297h-1954v345h2474v-324l-1994 -2298h2052v-344h-2577z" />
    <glyph glyph-name="Eta" unicode="&#x397;" horiz-adv-x="3736" 
d="M2822 0v1315h-1909v-1315h-421v2966h421v-1307h1909v1307h422v-2966h-422z" />
    <glyph glyph-name="Theta" unicode="&#x398;" horiz-adv-x="3760" 
d="M1880 -49q-260 0 -478 50.5t-394 145.5t-308.5 230.5t-221.5 306t-134 372t-45 427.5q0 218 46.5 416.5t137.5 368.5t225.5 308t310 235.5t391.5 150.5t470 53q260 0 478 -50.5t394 -145.5t308.5 -230.5t221.5 -306t134 -372t45 -427.5q0 -218 -46.5 -416.5
t-137.5 -368.5t-225.5 -308t-310 -235.5t-391.5 -150.5t-470 -53zM1880 287q195 0 355.5 42.5t288.5 120t223 186.5t158.5 242t94.5 286t31 319t-31 319t-94.5 286t-158.5 242t-223 186.5t-289 120t-355 42.5t-355 -42.5t-289 -120t-223 -186.5t-158.5 -242t-94.5 -286
t-31 -319t31 -319t94.5 -286t158.5 -242t223 -186.5t288.5 -120t355.5 -42.5zM1098 1659h1564v-344h-1564v344z" />
    <glyph glyph-name="Iota" unicode="&#x399;" horiz-adv-x="2183" 
d="M328 0v344h553v2277h-553v345h1527v-345h-552v-2277h552v-344h-1527z" />
    <glyph glyph-name="Kappa" unicode="&#x39a;" horiz-adv-x="3461" 
d="M2789 0l-1876 1372v-1372h-421v2966h421v-1344l1852 1344h622l-1682 -1201q-87 -62 -175 -125t-175 -124q43 -31 85.5 -61.5t85 -61.5t85 -61.5t85.5 -61.5l1753 -1270h-660z" />
    <glyph glyph-name="Lambda" unicode="&#x39b;" horiz-adv-x="3330" 
d="M1434 2966h462l1414 -2966h-467l-1184 2511l-1180 -2511h-459z" />
    <glyph glyph-name="Mu" unicode="&#x39c;" horiz-adv-x="4379" 
d="M3478 0v2007v200.5v200.5q-59 -80 -117 -159.5t-117 -159.5l-938 -1270h-233l-938 1270q-29 40 -58.5 80t-58.5 79.5t-58.5 79.5t-58.5 80v-200.5v-200.5v-2007h-409v2966h458l1041 -1418q52 -71 104 -141t105 -141q52 71 104 143t104 143l1041 1414h438v-2966h-409z" />
    <glyph glyph-name="Nu" unicode="&#x39d;" horiz-adv-x="3932" 
d="M2982 0l-1733 2032q-86 102 -171.5 202.5t-172.5 202.5v-122.5v-121v-121.5v-122v-1950h-413v2966h458l1729 -2036q43 -51 86.5 -101.5t87 -101.5t87.5 -101.5t87 -101.5v122v122v121.5v122.5v1954h414v-2966h-459z" />
    <glyph glyph-name="Xi" unicode="&#x39e;" horiz-adv-x="3035" 
d="M287 360h2461v-360h-2461v360zM532 1704h1946v-361h-1946v361zM287 2966h2461v-361h-2461v361z" />
    <glyph glyph-name="Omicron" unicode="&#x39f;" horiz-adv-x="3760" 
d="M1880 -49q-260 0 -478 50.5t-394 145.5t-308.5 230.5t-221.5 306t-134 372t-45 427.5q0 218 46.5 416.5t137.5 368.5t225.5 308t310 235.5t391.5 150.5t470 53q260 0 478 -50.5t394 -145.5t308.5 -230.5t221.5 -306t134 -372t45 -427.5q0 -218 -46.5 -416.5
t-137.5 -368.5t-225.5 -308t-310 -235.5t-391.5 -150.5t-470 -53zM1880 287q195 0 355.5 42.5t288.5 120t223 186.5t158.5 242t94.5 286t31 319t-31 319t-94.5 286t-158.5 242t-223 186.5t-289 120t-355 42.5t-355 -42.5t-289 -120t-223 -186.5t-158.5 -242t-94.5 -286
t-31 -319t31 -319t94.5 -286t158.5 -242t223 -186.5t288.5 -120t355.5 -42.5z" />
    <glyph glyph-name="Pi" unicode="&#x3a0;" horiz-adv-x="3654" 
d="M2740 2621h-1827v-2621h-421v2966h2670v-2966h-422v2621z" />
    <glyph glyph-name="Rho" unicode="&#x3a1;" horiz-adv-x="3142" 
d="M492 0v2966h1171q228 0 409 -30.5t318.5 -88t235 -139.5t159.5 -184.5t90.5 -223.5t28.5 -256t-30 -257t-94 -226.5t-164 -188.5t-240.5 -143t-323 -91t-410.5 -32h-729v-1106h-421zM1573 1450q256 0 429 39t278 115t149.5 186.5t44.5 253.5t-44.5 251t-149.5 180.5
t-278 109t-429 36.5h-660v-1171h660z" />
    <glyph glyph-name="Sigma" unicode="&#x3a3;" horiz-adv-x="3146" 
d="M307 324l1409 1192l-1409 1126v324h2532v-345h-1958l1237 -974v-267l-1233 -1036h1954v-344h-2532v324z" />
    <glyph glyph-name="Tau" unicode="&#x3a4;" horiz-adv-x="3092" 
d="M1335 0v2621h-1200v345h2822v-345h-1200v-2621h-422z" />
    <glyph glyph-name="Upsilon" unicode="&#x3a5;" horiz-adv-x="3183" 
d="M1380 0v1106l-1372 1860h496l1089 -1520l1102 1520h479l-1372 -1856v-1110h-422z" />
    <glyph glyph-name="Phi" unicode="&#x3a6;" horiz-adv-x="4354" 
d="M1974 311q-241 3 -462.5 30.5t-412 85.5t-346 149t-265.5 221.5t-170 303.5t-60 394q0 212 61.5 381t174 299t269.5 223.5t347.5 154.5t409 91.5t454.5 34.5v287h406v-287q240 -4 461 -32.5t411.5 -86.5t346 -149t266 -221t171 -302.5t60.5 -392.5q0 -213 -61.5 -382.5
t-174 -300t-269.5 -224t-347.5 -154t-409.5 -90.5t-454 -33v-311h-406v311zM684 1495q0 -172 48.5 -301.5t135.5 -223.5t207.5 -156t263.5 -99.5t304.5 -53.5t330.5 -18v1704q-169 -3 -330.5 -19.5t-304.5 -54t-263.5 -99t-207.5 -155.5t-135.5 -223t-48.5 -301zM3670 1495
q0 172 -48.5 301t-135.5 223t-207.5 155.5t-263.5 99t-304.5 54t-330.5 19.5v-1704q169 2 330.5 18t304.5 53.5t263.5 99.5t207.5 156t135.5 223.5t48.5 301.5z" />
    <glyph glyph-name="Chi" unicode="&#x3a7;" horiz-adv-x="3248" 
d="M2666 0l-1056 1262l-1057 -1262h-504l1315 1532l-1221 1434h533l946 -1147l954 1147h504l-1212 -1418l1331 -1548h-533z" />
    <glyph glyph-name="Psi" unicode="&#x3a8;" horiz-adv-x="3969" 
d="M1774 913q-256 0 -462.5 39t-367.5 114.5t-277 185t-191.5 250t-111.5 310.5t-36 367v787h422v-738q0 -258 57 -442t180 -301.5t317.5 -172.5t469.5 -55v1709h421v-1709q275 0 469.5 55t317.5 172.5t180 301.5t57 442v738h422v-787q0 -197 -36 -367t-111.5 -310.5
t-191.5 -250t-277 -185t-367.5 -114.5t-462.5 -39v-913h-421v913z" />
    <glyph glyph-name="uni03A9" unicode="&#x3a9;" horiz-adv-x="4080" 
d="M2371 0v324q209 63 363.5 173t256 259t151 333t49.5 394q0 166 -31 319t-94.5 286t-158.5 242t-223 186.5t-289 120t-355 42.5q-195 0 -356 -42.5t-289 -120t-223 -186.5t-158 -242t-94 -286t-31 -319q0 -210 49.5 -394t151 -333t255.5 -259t363 -173v-324h-1446v344h786
q-138 89 -247.5 209t-185 265t-116 312.5t-40.5 352.5q0 218 46.5 416.5t137.5 368.5t225.5 308t310 235.5t391.5 150.5t470 53q260 0 478 -50.5t394 -145.5t308.5 -230.5t221.5 -306t134 -372t45 -427.5q0 -185 -41 -352.5t-117.5 -312.5t-186 -265t-245.5 -209h786v-344
h-1446z" />
    <glyph glyph-name="Iotadieresis" unicode="&#x3aa;" horiz-adv-x="2183" 
d="M328 0v344h553v2277h-553v345h1527v-345h-552v-2277h552v-344h-1527zM332 3281v414h438v-414h-438zM1401 3281v414h438v-414h-438z" />
    <glyph glyph-name="Upsilondieresis" unicode="&#x3ab;" horiz-adv-x="3183" 
d="M1380 0v1106l-1372 1860h496l1089 -1520l1102 1520h479l-1372 -1856v-1110h-422zM836 3281v414h438v-414h-438zM1905 3281v414h438v-414h-438z" />
    <glyph glyph-name="alphatonos" unicode="&#x3ac;" horiz-adv-x="3244" 
d="M1327 -49q-235 0 -428 74.5t-331 217t-213.5 349.5t-75.5 473q0 262 78 464.5t221 340.5t343.5 209t446.5 71q144 0 276.5 -26t251 -72.5t221.5 -110.5t189 -139l49 299h352v-1609q0 -54 12.5 -90.5t36.5 -58t60 -31t84 -9.5q56 0 111.5 8t101.5 21v-303
q-25 -14 -65.5 -25.5t-89 -19.5t-100 -12.5t-97.5 -4.5q-106 0 -185 26.5t-133 73.5t-85 113t-40 144q-86 -78 -191.5 -146.5t-230 -118.5t-267 -79t-302.5 -29zM1393 270q139 0 267.5 28t243.5 78t215 119t183 152v803q-83 84 -181 154.5t-208.5 120.5t-231 78t-247.5 28
q-183 0 -321 -53t-231 -152t-139.5 -241t-46.5 -320t46 -324.5t135 -251t218.5 -162t297.5 -57.5zM1274 3105h516l-184 -721h-148z" />
    <glyph glyph-name="epsilontonos" unicode="&#x3ad;" horiz-adv-x="2740" 
d="M1417 -49q-250 0 -459 39.5t-360 117t-235 192.5t-84 265q0 102 32.5 181.5t97 140t160.5 102.5t222 68q-95 29 -173.5 72t-134.5 103.5t-87 139.5t-31 180q0 138 80 249t225 188.5t347.5 119t448.5 41.5q72 0 154.5 -5t168.5 -15t173.5 -24t169.5 -33t154.5 -41.5
t130.5 -49.5v-319q-86 34 -195.5 63t-231 50.5t-250.5 34t-253 12.5q-169 0 -300.5 -16.5t-221.5 -52.5t-136.5 -92t-46.5 -134q0 -77 50 -136.5t143.5 -100.5t227 -62t300.5 -21h455v-311h-504q-102 0 -198.5 -6t-180.5 -19.5t-154 -35t-120 -53.5t-77.5 -75t-27.5 -98
q0 -84 48 -146.5t146.5 -103.5t248 -61t352.5 -20q146 0 289.5 13t275.5 37t248 57t207 73v-316q-91 -44 -210.5 -79.5t-260 -60.5t-298 -38.5t-325.5 -13.5zM1122 3105h516l-184 -721h-148z" />
    <glyph glyph-name="etatonos" unicode="&#x3ae;" horiz-adv-x="3174" 
d="M471 2101h340l33 -209q78 57 179.5 104.5t220 81.5t250 53t271.5 19q132 0 256.5 -16.5t233.5 -54.5t200 -99t156 -151t101 -210t36 -276v-2207h-405v2138q0 157 -42 263.5t-125.5 171.5t-207.5 93.5t-289 28.5q-118 0 -231.5 -18t-217 -48t-193.5 -70t-160 -85v-1610
h-406v2101zM1368 3105h516l-184 -721h-148z" />
    <glyph glyph-name="iotatonos" unicode="&#x3af;" horiz-adv-x="1593" 
d="M1016 -49q-157 0 -265 35t-174.5 103t-96 169.5t-29.5 233.5v1609h405v-1560q0 -63 10.5 -110.5t39 -79.5t78.5 -48t130 -16q124 0 221 11t168 30v-312q-43 -12 -94.5 -23.5t-112 -21t-130.5 -15t-150 -5.5zM394 3105h516l-184 -721h-148z" />
    <glyph glyph-name="upsilondieresistonos" unicode="&#x3b0;" horiz-adv-x="3015" 
d="M1544 -49q-171 0 -320.5 29.5t-273.5 89t-221.5 150t-164.5 213.5t-102.5 278.5t-35.5 345.5v1044h405v-995q0 -141 19.5 -258t58 -210t97.5 -162t138.5 -115t179 -68.5t220.5 -22.5q181 0 315.5 55.5t222.5 162.5t131.5 262.5t43.5 355.5q0 196 -18.5 358.5t-45 288
t-56 213t-52.5 135.5h414q20 -35 48 -115.5t53.5 -202t43.5 -283t18 -357.5q0 -183 -29.5 -342.5t-89.5 -292t-151.5 -236t-215.5 -175t-282 -109t-350 -37.5zM709 2941h397v-414h-397v414zM1327 3105h434l-143 -721h-148zM1982 2941h398v-414h-398v414z" />
    <glyph glyph-name="alpha" unicode="&#x3b1;" horiz-adv-x="3244" 
d="M1327 -49q-235 0 -428 74.5t-331 217t-213.5 349.5t-75.5 473q0 262 78 464.5t221 340.5t343.5 209t446.5 71q144 0 276.5 -26t251 -72.5t221.5 -110.5t189 -139l49 299h352v-1609q0 -54 12.5 -90.5t36.5 -58t60 -31t84 -9.5q56 0 111.5 8t101.5 21v-303
q-25 -14 -65.5 -25.5t-89 -19.5t-100 -12.5t-97.5 -4.5q-106 0 -185 26.5t-133 73.5t-85 113t-40 144q-86 -78 -191.5 -146.5t-230 -118.5t-267 -79t-302.5 -29zM1393 270q139 0 267.5 28t243.5 78t215 119t183 152v803q-83 84 -181 154.5t-208.5 120.5t-231 78t-247.5 28
q-183 0 -321 -53t-231 -152t-139.5 -241t-46.5 -320t46 -324.5t135 -251t218.5 -162t297.5 -57.5z" />
    <glyph glyph-name="beta" unicode="&#x3b2;" horiz-adv-x="3166" 
d="M471 1925q0 197 36 354t105 278t170 208t230 142.5t285.5 81.5t336.5 26q256 0 454 -55.5t333.5 -153t205.5 -229t72 -283.5q0 -144 -51.5 -262t-138.5 -209t-202.5 -155.5t-242.5 -102.5q215 -34 378.5 -105.5t273.5 -174.5t165.5 -235.5t55.5 -287.5q0 -102 -27.5 -202
t-86 -190.5t-149 -167t-216.5 -132.5t-288 -87.5t-364 -31.5q-178 0 -325.5 20.5t-263.5 53t-201 71.5t-139 76v-1036h-406v2789zM877 496q66 -39 150 -79.5t192 -74t244 -55t306 -21.5q195 0 337 37.5t233.5 104t135.5 157.5t44 197q0 110 -37.5 198t-109 155.5t-175 116
t-235 80.5t-289.5 49.5t-338 22.5v312q120 0 236.5 13t222 41t194.5 72t154.5 107t102 145t36.5 187q0 101 -40 182t-122.5 138t-210 87.5t-302.5 30.5q-180 0 -316.5 -41t-228 -137t-138 -253.5t-46.5 -391.5v-1380z" />
    <glyph glyph-name="gamma" unicode="&#x3b3;" horiz-adv-x="2712" 
d="M1192 33l-791 1536q-35 67 -67.5 114t-67 76.5t-72 42.5t-83.5 13q-41 0 -84.5 -6t-83.5 -15v307q23 11 53 20t66 15.5t77 10t86 3.5q112 0 189.5 -23.5t136 -72t105.5 -123.5t98 -178l651 -1327v0v0v0v0l815 1675h442l-1065 -2076v-889h-405v897z" />
    <glyph glyph-name="delta" unicode="&#x3b4;" horiz-adv-x="3088" 
d="M1544 -49q-216 0 -393.5 35t-318.5 100t-244.5 159t-172.5 211.5t-102.5 257.5t-33.5 298q0 155 37 292.5t104.5 252.5t162.5 206t211.5 154.5t251 97t281.5 33.5q105 0 200 -14.5t185 -42.5v0v0l-1069 700v275h1811v-308h-1213l709 -458q137 -89 254 -175t213 -174
t169 -182t123 -200t75.5 -227t25.5 -263q0 -137 -34 -266.5t-102.5 -244t-172.5 -209.5t-244.5 -163.5t-318.5 -106.5t-394 -38zM1544 266q139 0 256 22.5t211.5 65.5t165.5 107t119 146.5t72 184t24 220.5t-24 220t-72 184t-119 146.5t-165.5 107t-211.5 65.5t-256 22
q-209 0 -367.5 -49.5t-265.5 -145t-161 -234t-54 -316.5t54 -317t161 -234t265.5 -145t367.5 -50z" />
    <glyph glyph-name="epsilon" unicode="&#x3b5;" horiz-adv-x="2740" 
d="M1417 -49q-250 0 -459 39.5t-360 117t-235 192.5t-84 265q0 102 32.5 181.5t97 140t160.5 102.5t222 68q-95 29 -173.5 72t-134.5 103.5t-87 139.5t-31 180q0 138 80 249t225 188.5t347.5 119t448.5 41.5q72 0 154.5 -5t168.5 -15t173.5 -24t169.5 -33t154.5 -41.5
t130.5 -49.5v-319q-86 34 -195.5 63t-231 50.5t-250.5 34t-253 12.5q-169 0 -300.5 -16.5t-221.5 -52.5t-136.5 -92t-46.5 -134q0 -77 50 -136.5t143.5 -100.5t227 -62t300.5 -21h455v-311h-504q-102 0 -198.5 -6t-180.5 -19.5t-154 -35t-120 -53.5t-77.5 -75t-27.5 -98
q0 -84 48 -146.5t146.5 -103.5t248 -61t352.5 -20q146 0 289.5 13t275.5 37t248 57t207 73v-316q-91 -44 -210.5 -79.5t-260 -60.5t-298 -38.5t-325.5 -13.5z" />
    <glyph glyph-name="zeta" unicode="&#x3b6;" horiz-adv-x="2257" 
d="M1552 -664q48 75 91 159.5t79.5 171t65.5 171.5t47 162h-381q-237 0 -421 33t-321 93t-231 143.5t-151.5 185t-83 217.5t-25.5 241q0 160 51 326t140.5 329t211.5 319t263 295.5t295 257.5t309 206h-1225v320h1872v-275q-117 -51 -243.5 -125t-254 -165.5t-251.5 -198
t-236 -224t-206.5 -243.5t-164 -256t-108.5 -261.5t-39 -259.5q0 -88 16 -168.5t54.5 -149.5t103 -125t161.5 -96t229.5 -61.5t307.5 -21.5h459q57 0 104.5 -16.5t81.5 -46.5t53 -72.5t19 -94.5q0 -64 -12.5 -132.5t-36 -138t-55.5 -137.5t-71.5 -132t-84 -122.5
t-92.5 -107.5h-320v0z" />
    <glyph glyph-name="eta" unicode="&#x3b7;" horiz-adv-x="3174" 
d="M471 2101h340l33 -209q78 57 179.5 104.5t220 81.5t250 53t271.5 19q132 0 256.5 -16.5t233.5 -54.5t200 -99t156 -151t101 -210t36 -276v-2207h-405v2138q0 157 -42 263.5t-125.5 171.5t-207.5 93.5t-289 28.5q-118 0 -231.5 -18t-217 -48t-193.5 -70t-160 -85v-1610
h-406v2101z" />
    <glyph glyph-name="theta" unicode="&#x3b8;" horiz-adv-x="3088" 
d="M1544 -57q-221 0 -401 53t-320.5 151t-243 237t-169.5 310t-99 370.5t-32 418.5q0 220 33 419t101 369.5t171.5 307.5t244 234t319 149.5t396.5 52.5q221 0 401 -53t320.5 -151.5t243.5 -237t169.5 -310t99 -370.5t32.5 -418q0 -220 -33 -419.5t-101 -369.5
t-171.5 -307.5t-244 -234t-319.5 -149t-397 -52.5zM1544 279q203 0 357.5 69t261.5 202.5t167 327.5t74 445h-1720q14 -251 74 -445t167.5 -327.5t261.5 -202.5t357 -69zM1544 2679q-203 0 -357 -68.5t-261.5 -201t-167.5 -325.5t-74 -442h1720q-15 247 -76 440t-168 326
t-261 202t-355 69z" />
    <glyph glyph-name="iota" unicode="&#x3b9;" horiz-adv-x="1593" 
d="M1016 -49q-157 0 -265 35t-174.5 103t-96 169.5t-29.5 233.5v1609h405v-1560q0 -63 10.5 -110.5t39 -79.5t78.5 -48t130 -16q124 0 221 11t168 30v-312q-43 -12 -94.5 -23.5t-112 -21t-130.5 -15t-150 -5.5z" />
    <glyph glyph-name="kappa" unicode="&#x3ba;" horiz-adv-x="2777" 
d="M471 2101h406v-921l1261 921h557l-1421 -1024v0v0v0v0v0v0v0v0l1495 -1077h-615l-1277 958v-958h-406v2101z" />
    <glyph glyph-name="lambda" unicode="&#x3bb;" horiz-adv-x="2818" 
d="M1163 2097l-12 29q-56 112 -103.5 197.5t-92 147t-88 102.5t-92 65.5t-105 34.5t-125.5 10q-32 0 -66 -2t-66.5 -6.5t-61.5 -10.5t-52 -14v316q25 9 61 16.5t79 12.5t91 8t97 3q116 0 209.5 -20.5t171 -61.5t142 -101.5t123 -140.5t113.5 -179t113 -217l852 -1733
q34 -69 65.5 -116t65.5 -76t72 -41.5t84 -12.5q40 0 86 5.5t86 15.5v-308q-23 -11 -53.5 -19.5t-66.5 -15.5t-77 -10.5t-86 -3.5q-106 0 -181.5 23.5t-133.5 72.5t-105 124t-96 178l-643 1351v0v0v0v0v0v0v0v0l-881 -1720h-442z" />
    <glyph glyph-name="uni03BC" unicode="&#x3bc;" horiz-adv-x="3244" 
d="M2761 -49q-85 0 -152 17t-118 48t-87 74.5t-57 97.5q-80 -52 -177 -95.5t-208 -75t-234 -49t-253 -17.5q-92 0 -181 13.5t-170.5 38.5t-153.5 60.5t-130 79.5q12 -49 24.5 -121t12.5 -161v-725h-406v2965h406v-1294q0 -149 56.5 -251.5t151.5 -166t218.5 -91.5t257.5 -28
q120 0 219 13t187 38.5t169.5 63t165.5 86.5v1630h405v-1626q0 -54 12.5 -90t36.5 -57.5t60 -31t84 -9.5q56 0 111.5 8t101.5 20v-303q-25 -14 -65.5 -25t-89 -19t-100 -12.5t-97.5 -4.5z" />
    <glyph glyph-name="nu" unicode="&#x3bd;" horiz-adv-x="2630" 
d="M1126 0l-1077 2101h451l659 -1339q40 -84 82 -168t82 -168q40 84 82 168t82 168l651 1339h442l-1077 -2101h-377z" />
    <glyph glyph-name="xi" unicode="&#x3be;" horiz-adv-x="2396" 
d="M1634 -664q48 75 91 159.5t79.5 171t65.5 171.5t47 162h-283q-248 0 -446 32t-350.5 90t-261.5 141t-178.5 184t-102.5 219t-33 247q0 134 36.5 251.5t107 215t174.5 173t239 126.5q-106 39 -192.5 94.5t-148.5 129.5t-96 167t-34 207q0 154 68 288.5t195.5 234.5
t310.5 157.5t413 57.5q130 0 238.5 -7t201.5 -21.5t174 -37t156 -53.5v-320q-78 29 -156 50t-163 34.5t-180 20t-209 6.5q-152 0 -270 -28t-198 -83t-121.5 -136t-41.5 -187q0 -105 45 -184.5t132 -133t215.5 -81t295.5 -27.5h389v-311h-368q-220 0 -371.5 -38.5
t-245.5 -113t-136 -184t-42 -250.5q0 -90 25.5 -169t79 -145t135 -118t193.5 -88t255.5 -55t319.5 -19h360q57 0 104.5 -16.5t81.5 -46.5t53 -72.5t19 -94.5q0 -97 -28 -201.5t-76 -206.5t-112 -195t-136 -167h-320z" />
    <glyph glyph-name="omicron" unicode="&#x3bf;" horiz-adv-x="3088" 
d="M1544 -49q-221 0 -401 38t-320.5 107.5t-243 168.5t-169.5 221.5t-99 265.5t-32 301q0 155 33 297t101 264t171.5 221t244 169t319 108t396.5 38q221 0 401 -38t320.5 -107.5t243.5 -168.5t169.5 -221.5t99 -265.5t32.5 -300q0 -156 -33 -298t-101 -264t-171.5 -221
t-244 -169t-319.5 -108t-397 -38zM1544 266q218 0 378 55.5t264.5 157.5t155 246.5t50.5 323.5q0 178 -50.5 323t-155 248t-264.5 159t-378 56t-377.5 -55.5t-264 -157.5t-155.5 -246.5t-51 -322.5t51 -323.5t155.5 -248.5t264 -159t377.5 -56z" />
    <glyph glyph-name="pi" unicode="&#x3c0;" horiz-adv-x="3310" 
d="M3039 0q-34 -12 -82 -21.5t-98 -15.5t-95 -9t-73 -3q-126 0 -218.5 25t-153.5 80t-90 142t-29 212v1372h-1164v-1782h-405v1782h-508v319h3023v-319h-541v-1319q0 -60 17.5 -97t50.5 -57.5t79 -27.5t103 -7q20 0 47.5 1.5t55 4t50 5.5t31.5 6v-291z" />
    <glyph glyph-name="rho" unicode="&#x3c1;" horiz-adv-x="3117" 
d="M410 938q0 172 30 328.5t92.5 291.5t159 244t231 186.5t307.5 119.5t388 42q210 0 382 -38t308 -107.5t235.5 -168.5t165.5 -221.5t98 -265.5t32 -300q0 -234 -74 -434.5t-225 -348t-380.5 -231.5t-541.5 -84q-123 0 -236.5 13t-215.5 37.5t-190.5 61t-160.5 84.5v-1011
h-405v1802zM1556 266q218 0 380.5 55.5t270 157.5t161 246.5t53.5 323.5q0 178 -50 323t-150.5 248t-251 159t-351.5 56q-151 0 -269 -31t-207 -88.5t-151.5 -140t-101.5 -185t-56.5 -223t-17.5 -254.5v-438q75 -48 161.5 -86.5t180.5 -65.5t194.5 -42t204.5 -15z" />
    <glyph glyph-name="sigma1" unicode="&#x3c2;" horiz-adv-x="2568" 
d="M1708 -664q48 75 91 159.5t79.5 171t65.5 171.5t47 162h-283q-258 0 -464 37t-365 105t-272.5 163.5t-186.5 212.5t-107 252t-34 283q0 156 34 298.5t102.5 264.5t172 220.5t242.5 168t314.5 107.5t387.5 38q106 0 211.5 -9.5t203 -27t183 -41.5t151.5 -53v-331
q-69 27 -154 51.5t-181.5 43t-203 29.5t-218.5 11q-220 0 -376.5 -56t-257 -157.5t-147.5 -243t-47 -313.5q0 -166 61.5 -299t191.5 -226t331.5 -142.5t480.5 -49.5h361q57 0 104 -16.5t81.5 -46.5t53.5 -72.5t19 -94.5q0 -97 -28 -201.5t-76 -206.5t-112 -195t-136 -167
h-320v0z" />
    <glyph glyph-name="sigma" unicode="&#x3c3;" horiz-adv-x="3252" 
d="M1540 -49q-217 0 -395 38t-318 107.5t-243 168.5t-171 221.5t-101 265.5t-33 301q0 155 33 293.5t100.5 255t170 209t243 157t318.5 99t396 34.5h1589v-319h-643q60 -62 116 -145.5t99.5 -181.5t70 -206t26.5 -217q0 -145 -32.5 -281.5t-99.5 -257t-169.5 -220
t-242.5 -171.5t-318 -111.5t-396 -39.5zM2384 1049q0 103 -23 206.5t-65 199.5t-101 180t-131 147h-487q-223 0 -388.5 -47t-275 -139.5t-163.5 -228.5t-54 -314t52.5 -323.5t157.5 -248.5t263.5 -159t370.5 -56q146 0 265 25t212.5 72.5t162.5 115.5t114.5 155t67.5 191.5
t22 223.5z" />
    <glyph glyph-name="tau" unicode="&#x3c4;" horiz-adv-x="2327" 
d="M66 2101h2195v-319h-1024v-1241q0 -63 10.5 -110.5t39 -79.5t78.5 -48t130 -16q124 0 221 11t168 30v-312q-43 -12 -94.5 -23.5t-112 -21t-130.5 -15t-150 -5.5q-157 0 -265 35t-175 103t-96.5 169.5t-29.5 233.5v1290h-765v319z" />
    <glyph glyph-name="upsilon" unicode="&#x3c5;" horiz-adv-x="3015" 
d="M1544 -49q-171 0 -320.5 29.5t-273.5 89t-221.5 150t-164.5 213.5t-102.5 278.5t-35.5 345.5v1044h405v-995q0 -141 19.5 -258t58 -210t97.5 -162t138.5 -115t179 -68.5t220.5 -22.5q181 0 315.5 55.5t222.5 162.5t131.5 262.5t43.5 355.5q0 196 -18.5 358.5t-45 288
t-56 213t-52.5 135.5h414q20 -35 48 -115.5t53.5 -202t43.5 -283t18 -357.5q0 -183 -29.5 -342.5t-89.5 -292t-151.5 -236t-215.5 -175t-282 -109t-350 -37.5z" />
    <glyph glyph-name="phi" unicode="&#x3c6;" horiz-adv-x="3793" 
d="M1704 -20q-356 3 -628.5 77t-457 212t-278.5 335.5t-94 448.5q0 246 96 442.5t281.5 334.5t457 213.5t623.5 78.5v844h389v-844q355 -3 626.5 -78t455.5 -213t278 -335.5t94 -446.5q0 -248 -96 -444.5t-281 -334.5t-456 -212.5t-621 -77.5v-844h-389v844zM664 1053
q0 -177 65.5 -316t196 -236.5t325.5 -150t453 -55.5v1511q-258 -3 -453 -55.5t-325.5 -149t-196 -235t-65.5 -313.5zM3129 1049q0 175 -65.5 314t-196 236.5t-324.5 150.5t-450 56v-1511q256 3 450 55t324.5 148.5t196 235t65.5 315.5z" />
    <glyph glyph-name="chi" unicode="&#x3c7;" horiz-adv-x="2855" 
d="M2552 -893q-105 0 -184 25.5t-144.5 76t-124 124.5t-121.5 171l-530 797q-5 7 -7 10l-4 6t-3.5 5.5t-3.5 5.5l-8 -12l-3 -4.5l-2 -3l-5 -7.5l-806 -1165h-446l1065 1507l-598 905q-43 64 -85.5 110.5t-85.5 76.5t-87 44.5t-90 14.5q-20 0 -44 -1.5t-49 -4t-48.5 -6.5
t-43.5 -8v307q23 10 56 19t72 16t82.5 10.5t88.5 3.5q105 0 184 -26t144.5 -76t124 -124t121.5 -171l484 -737l6 -9l4 -6t3.5 -5.5t5.5 -8.5q4 6 5.5 8t3.5 5t3.5 5t5.5 8l769 1108h450l-1028 -1446l639 -966q43 -65 85.5 -111.5t85.5 -76.5t87 -44t90 -14q20 0 44 1.5t49 4
t48.5 6t43.5 8.5v-307q-23 -11 -56 -19.5t-72 -15.5t-82.5 -10.5t-88.5 -3.5z" />
    <glyph glyph-name="psi" unicode="&#x3c8;" horiz-adv-x="3686" 
d="M1675 -25q-193 5 -360 36t-306 90.5t-247.5 150.5t-183 217t-113.5 288t-39 365v979h405v-930q0 -236 48.5 -400.5t151 -268t262 -152.5t382.5 -55v2671h389v-2671h29q213 0 370.5 53.5t261 159.5t154 264t50.5 367q0 196 -18.5 353.5t-45 276.5t-56 201.5t-52.5 130.5
h409q20 -35 48.5 -104.5t55 -184.5t45.5 -280.5t19 -392.5q0 -177 -34.5 -332.5t-103.5 -284.5t-172.5 -231t-241.5 -172t-310 -107t-379 -37h-29v-839h-389v839z" />
    <glyph glyph-name="omega" unicode="&#x3c9;" horiz-adv-x="4092" 
d="M1270 -49q-163 0 -298 35.5t-242.5 101.5t-187.5 160t-133 210t-79.5 252.5t-26.5 288.5q0 141 27 269.5t73 240.5t107.5 207t129.5 170.5t139.5 129.5t138.5 85h450q-157 -95 -278 -210.5t-204 -252.5t-126 -296.5t-43 -342.5q0 -158 33 -293t104 -233.5t183 -154.5
t270 -56q121 0 220 43t169 130t108.5 217.5t38.5 305.5v476h406v-476q0 -175 38.5 -305.5t108.5 -217.5t169 -130t220 -43q158 0 270 56t183 154.5t104 233.5t33 293q0 183 -43 342.5t-126 296.5t-204 252.5t-278 210.5h450q67 -31 138.5 -85t139.5 -129.5t129.5 -170.5
t107.5 -207t73 -240.5t27 -269.5q0 -151 -26.5 -288t-79.5 -253t-133.5 -210t-187.5 -160t-242 -101.5t-298 -35.5q-140 0 -260.5 27t-219 78.5t-174 126t-124.5 169.5q-49 -95 -124.5 -169.5t-173.5 -126t-218 -78.5t-258 -27z" />
    <glyph glyph-name="iotadieresis" unicode="&#x3ca;" horiz-adv-x="1593" 
d="M1016 -49q-157 0 -265 35t-174.5 103t-96 169.5t-29.5 233.5v1609h405v-1560q0 -63 10.5 -110.5t39 -79.5t78.5 -48t130 -16q124 0 221 11t168 30v-312q-43 -12 -94.5 -23.5t-112 -21t-130.5 -15t-150 -5.5zM-101 2527v414h438v-414h-438zM968 2527v414h438v-414h-438z
" />
    <glyph glyph-name="upsilondieresis" unicode="&#x3cb;" horiz-adv-x="3015" 
d="M1544 -49q-171 0 -320.5 29.5t-273.5 89t-221.5 150t-164.5 213.5t-102.5 278.5t-35.5 345.5v1044h405v-995q0 -141 19.5 -258t58 -210t97.5 -162t138.5 -115t179 -68.5t220.5 -22.5q181 0 315.5 55.5t222.5 162.5t131.5 262.5t43.5 355.5q0 196 -18.5 358.5t-45 288
t-56 213t-52.5 135.5h414q20 -35 48 -115.5t53.5 -202t43.5 -283t18 -357.5q0 -183 -29.5 -342.5t-89.5 -292t-151.5 -236t-215.5 -175t-282 -109t-350 -37.5zM791 2527v414h438v-414h-438zM1860 2527v414h438v-414h-438z" />
    <glyph glyph-name="omicrontonos" unicode="&#x3cc;" horiz-adv-x="3088" 
d="M1544 -49q-221 0 -401 38t-320.5 107.5t-243 168.5t-169.5 221.5t-99 265.5t-32 301q0 155 33 297t101 264t171.5 221t244 169t319 108t396.5 38q221 0 401 -38t320.5 -107.5t243.5 -168.5t169.5 -221.5t99 -265.5t32.5 -300q0 -156 -33 -298t-101 -264t-171.5 -221
t-244 -169t-319.5 -108t-397 -38zM1544 266q218 0 378 55.5t264.5 157.5t155 246.5t50.5 323.5q0 178 -50.5 323t-155 248t-264.5 159t-378 56t-377.5 -55.5t-264 -157.5t-155.5 -246.5t-51 -322.5t51 -323.5t155.5 -248.5t264 -159t377.5 -56zM1290 3105h516l-184 -721
h-148z" />
    <glyph glyph-name="upsilontonos" unicode="&#x3cd;" horiz-adv-x="3015" 
d="M1544 -49q-171 0 -320.5 29.5t-273.5 89t-221.5 150t-164.5 213.5t-102.5 278.5t-35.5 345.5v1044h405v-995q0 -141 19.5 -258t58 -210t97.5 -162t138.5 -115t179 -68.5t220.5 -22.5q181 0 315.5 55.5t222.5 162.5t131.5 262.5t43.5 355.5q0 196 -18.5 358.5t-45 288
t-56 213t-52.5 135.5h414q20 -35 48 -115.5t53.5 -202t43.5 -283t18 -357.5q0 -183 -29.5 -342.5t-89.5 -292t-151.5 -236t-215.5 -175t-282 -109t-350 -37.5zM1286 3105h516l-184 -721h-148z" />
    <glyph glyph-name="omegatonos" unicode="&#x3ce;" horiz-adv-x="4092" 
d="M1270 -49q-163 0 -298 35.5t-242.5 101.5t-187.5 160t-133 210t-79.5 252.5t-26.5 288.5q0 141 27 269.5t73 240.5t107.5 207t129.5 170.5t139.5 129.5t138.5 85h450q-157 -95 -278 -210.5t-204 -252.5t-126 -296.5t-43 -342.5q0 -158 33 -293t104 -233.5t183 -154.5
t270 -56q121 0 220 43t169 130t108.5 217.5t38.5 305.5v476h406v-476q0 -175 38.5 -305.5t108.5 -217.5t169 -130t220 -43q158 0 270 56t183 154.5t104 233.5t33 293q0 183 -43 342.5t-126 296.5t-204 252.5t-278 210.5h450q67 -31 138.5 -85t139.5 -129.5t129.5 -170.5
t107.5 -207t73 -240.5t27 -269.5q0 -151 -26.5 -288t-79.5 -253t-133.5 -210t-187.5 -160t-242 -101.5t-298 -35.5q-140 0 -260.5 27t-219 78.5t-174 126t-124.5 169.5q-49 -95 -124.5 -169.5t-173.5 -126t-218 -78.5t-258 -27zM1790 3105h516l-184 -721h-148z" />
    <glyph glyph-name="uni0400" unicode="&#x400;" horiz-adv-x="3162" 
d="M492 0v2966h2359v-345h-1938v-925h1692v-344h-1692v-1008h1962v-344h-2383zM1524 3162l-606 648h524l451 -648h-369z" />
    <glyph glyph-name="uni0401" unicode="&#x401;" horiz-adv-x="3162" 
d="M492 0v2966h2359v-345h-1938v-925h1692v-344h-1692v-1008h1962v-344h-2383zM934 3281v414h438v-414h-438zM2003 3281v414h438v-414h-438z" />
    <glyph glyph-name="uni0402" unicode="&#x402;" horiz-adv-x="3957" 
d="M135 2966h2495v-345h-1037v-798h869q218 0 397.5 -27t322 -79.5t248.5 -130t175.5 -179t104 -225.5t34.5 -269q0 -135 -33 -255t-101 -221.5t-171.5 -182.5t-244 -137.5t-319.5 -86.5t-397 -30h-328v340h238q161 0 291.5 14.5t233 45t177.5 77t124 110t72.5 145
t23.5 181.5q0 101 -23.5 182t-72.5 144.5t-124 109.5t-177.5 75.5t-233 44t-291.5 14.5h-795v-1483h-422v2621h-1036v345z" />
    <glyph glyph-name="uni0403" unicode="&#x403;" horiz-adv-x="2732" 
d="M492 2966h2105v-345h-1684v-2621h-421v2966zM1344 3162l450 648h525l-607 -648h-368z" />
    <glyph glyph-name="uni0404" unicode="&#x404;" horiz-adv-x="3146" 
d="M1937 -49q-235 0 -448 43t-395 128.5t-329 213.5t-250.5 298t-159.5 382.5t-56 466.5q0 240 56 447.5t158 377.5t247 302t323 222t384.5 136.5t433.5 46.5q121 0 245.5 -9.5t245 -29t233 -49.5t209.5 -72v-365q-110 45 -223 76t-224 50.5t-219.5 28.5t-209.5 9
q-255 0 -467.5 -60.5t-370.5 -183t-256.5 -306t-126.5 -429.5h1663v-344h-1667q18 -190 75.5 -340t145.5 -264t201 -194t242 -130t268.5 -73t280.5 -23q178 0 326 14t266.5 35t208.5 46.5t153 48.5v-353q-77 -31 -176 -57.5t-219.5 -46.5t-262.5 -31.5t-305 -11.5z" />
    <glyph glyph-name="uni0405" unicode="&#x405;" horiz-adv-x="3097" 
d="M283 471q103 -32 226 -61t260.5 -51t284.5 -35t298 -13q235 0 417 30t307 87.5t190 140.5t65 189q0 68 -19.5 124t-61.5 103t-108 87.5t-160 79.5t-217 77.5t-278 81.5q-168 46 -319 93t-279.5 101.5t-231.5 121.5t-174.5 152.5t-108.5 194t-34 246.5q2 121 40.5 226.5
t112.5 194t183 158t252.5 117.5t321 73.5t388.5 25.5q160 0 302.5 -12t268.5 -33.5t234 -51.5t199 -67v-365q-101 35 -211.5 66t-234.5 53.5t-264.5 35.5t-301.5 13q-212 0 -372 -27t-267.5 -80t-162 -131t-54.5 -180q0 -67 14 -121t49.5 -100.5t96.5 -88t153.5 -81.5
t221.5 -81.5t301 -88.5q188 -52 347.5 -100.5t289 -102t228 -117.5t164 -146.5t97.5 -189t29 -245.5q-2 -122 -42 -230t-119 -199.5t-197 -164.5t-275.5 -124t-355.5 -78t-437 -27q-158 0 -307.5 11.5t-285 32.5t-253 50.5t-210.5 65.5v360z" />
    <glyph glyph-name="uni0406" unicode="&#x406;" horiz-adv-x="2183" 
d="M328 0v344h553v2277h-553v345h1527v-345h-552v-2277h552v-344h-1527z" />
    <glyph glyph-name="uni0407" unicode="&#x407;" horiz-adv-x="2183" 
d="M328 0v344h553v2277h-553v345h1527v-345h-552v-2277h552v-344h-1527zM332 3281v414h438v-414h-438zM1401 3281v414h438v-414h-438z" />
    <glyph glyph-name="uni0408" unicode="&#x408;" horiz-adv-x="1737" 
d="M-25 -188q23 -8 61.5 -14.5t81.5 -11.5t86 -8t75 -3q150 0 254 38.5t168.5 123t93 218t28.5 324.5v2142h-635v345h1057v-2528q0 -241 -50.5 -430.5t-162 -320.5t-290.5 -200t-435 -69q-40 0 -87 2.5t-92.5 7t-86 11.5t-66.5 16v357z" />
    <glyph glyph-name="uni0409" unicode="&#x409;" horiz-adv-x="5497" 
d="M2793 2621h-1380l-16 -462q-8 -217 -20 -426t-34.5 -403.5t-58 -370.5t-89.5 -327t-130 -273t-179 -208.5t-236 -133t-302 -46.5q-51 0 -97 4t-86.5 12t-75.5 20.5t-64 29.5v311q40 -15 95.5 -24t129.5 -9q81 0 154.5 15.5t139.5 54.5t123 107t105 173.5t86.5 252.5
t65.5 344.5t43 450t20 568.5l8 685h2220v-1143h787q218 0 397.5 -27t322 -79.5t248.5 -130t175.5 -179t104 -225.5t34.5 -269q0 -135 -33 -255t-101 -221.5t-171.5 -182.5t-244 -137.5t-319.5 -86.5t-397 -30h-1225v2621zM3215 1483v-1143h713q241 0 415.5 33t287 103
t166 178.5t53.5 258.5q0 151 -53.5 259t-166 177t-287 101.5t-415.5 32.5h-713z" />
    <glyph glyph-name="uni040A" unicode="&#x40a;" horiz-adv-x="5362" 
d="M492 2966h421v-1307h1745v1307h422v-1143h787q218 0 397.5 -27t322 -79.5t248.5 -130t175.5 -179t104 -225.5t34.5 -269q0 -135 -33 -255t-101 -221.5t-172 -182.5t-244.5 -137.5t-319 -86.5t-396.5 -30h-1225v1315h-1745v-1315h-421v2966zM3080 1483v-1143h713
q241 0 415 33t286.5 103t166 178.5t53.5 258.5q0 151 -53.5 259t-166 177t-286.5 101.5t-415 32.5h-713z" />
    <glyph glyph-name="uni040B" unicode="&#x40b;" horiz-adv-x="3981" 
d="M135 2966h2495v-345h-1037v-827q94 49 208 89t237 68.5t249 44t244 15.5q153 0 294 -20.5t264 -66.5t224 -120t173 -180.5t111.5 -248t39.5 -322.5v-1053h-422v979q0 174 -42 302t-134 212t-238.5 125t-355.5 41q-95 0 -205 -13.5t-222.5 -38t-221.5 -59.5t-203 -78
v-1470h-422v2621h-1036v345z" />
    <glyph glyph-name="uni040C" unicode="&#x40c;" horiz-adv-x="3387" 
d="M492 2966h421v-1299h377q58 0 104 2.5t83 9t67 17.5t57.5 28.5t54 41.5t56.5 57l1061 1143h516l-1151 -1229q-34 -36 -68.5 -69.5t-71.5 -63.5t-76.5 -55.5t-82.5 -45.5q48 -18 91 -43.5t83 -56.5t77 -65.5t73 -71.5l1200 -1266h-541l-1093 1176q-30 33 -56.5 57
t-54 41.5t-58 28.5t-67 17t-82.5 8.5t-104 2.5h-394v-1331h-421v2966zM1598 3162l450 648h525l-607 -648h-368z" />
    <glyph glyph-name="uni040D" unicode="&#x40d;" horiz-adv-x="3932" 
d="M492 2966h413v-2130v-74.5v-89.5v-89.5v-74.5q31 37 64 76t64.5 76.5t61 72t52.5 62.5l1835 2171h459v-2966h-414v2126v74.5v89.5v89.5v74.5q-28 -33 -60.5 -71.5l-65 -77t-63 -74.5t-53.5 -64l-1835 -2167h-458v2966zM1802 3162l-606 648h524l451 -648h-369z" />
    <glyph glyph-name="uni040E" unicode="&#x40e;" horiz-adv-x="2982" 
d="M819 -25q-48 0 -88.5 3.5t-74.5 10t-62 14.5t-49 17v340q24 -9 48 -16t50 -11.5t56 -6.5t67 -2q106 0 194 29t163 87t139 144.5t122 201.5v0l-1343 2180h479l1073 -1799v0v0v0v0v0v0v0v0l922 1799h459l-1229 -2335q-94 -180 -191 -305t-207.5 -203t-240 -113t-287.5 -35z
M2269 3810q-3 -154 -54.5 -278.5t-144 -213t-223 -136.5t-291.5 -48t-291.5 48t-223 136.5t-144 213t-54.5 278.5h287q8 -88 38 -156t83 -114.5t129 -70.5t176 -24t176 24t129 70.5t83 114.5t38 156h287z" />
    <glyph glyph-name="uni040F" unicode="&#x40f;" horiz-adv-x="3572" 
d="M492 2966h421v-2622h1745v2622h422v-2966h-1102v-729h-389v729h-1097v2966z" />
    <glyph glyph-name="uni0410" unicode="&#x410;" horiz-adv-x="3494" 
d="M3002 0l-367 731l-1 2h-1786l-1 -2l-364 -731h-463l1483 2966h488l1482 -2966h-471zM1917 2220q-43 87 -88 179t-88 181q-44 -89 -88.5 -179.5t-87.5 -180.5l-565 -1141l-1 -2h1483l-1 2z" />
    <glyph glyph-name="uni0411" unicode="&#x411;" 
d="M492 2966h2351v-345h-1930v-962h828q208 0 383.5 -21t318 -64.5t251 -110.5t181.5 -159t110.5 -210t37.5 -263q0 -135 -36 -249t-107.5 -206.5t-177.5 -162.5t-247 -117.5t-315.5 -71.5t-382.5 -24h-1265v2966zM913 1319v-979h754q226 0 398 23.5t288.5 79.5t176 150.5
t59.5 237.5t-59.5 237t-176 150t-288.5 78.5t-398 22.5h-754z" />
    <glyph glyph-name="uni0412" unicode="&#x412;" horiz-adv-x="3326" 
d="M492 0v2966h1118q312 0 548.5 -53.5t395.5 -158t240 -259t81 -357.5q0 -128 -33 -227.5t-94.5 -176t-150.5 -131.5t-201 -92q149 -38 265.5 -97.5t197 -143t122.5 -193.5t42 -250q0 -135 -36 -249t-107.5 -205.5t-177.5 -161.5t-247 -116.5t-315.5 -70.5t-382.5 -24
h-1265zM1667 340q226 0 398 22.5t288.5 78t176 149.5t59.5 237t-59.5 237.5t-176 151t-288.5 80t-398 23.5h-754v-979h754zM1520 1647q226 0 398 23t288 79.5t175.5 151t59.5 237.5t-59.5 237t-175.5 150t-288 78.5t-398 22.5h-607v-979h607z" />
    <glyph glyph-name="uni0413" unicode="&#x413;" horiz-adv-x="2732" 
d="M492 2966h2105v-345h-1684v-2621h-421v2966z" />
    <glyph glyph-name="uni0414" unicode="&#x414;" horiz-adv-x="3805" 
d="M41 344h168q98 0 188 24.5t181.5 99t163 214.5t120 333.5t80.5 449t44.5 495t18.5 449.5t7 515v42h2179v-2622h491v-1073h-389v729h-2863v-729h-389v1073zM1425 2621v-44q0 -185 -9.5 -386t-27 -412t-51.5 -448t-85.5 -427.5t-131 -339t-194.5 -220.5h1843v2277h-1344z
" />
    <glyph glyph-name="uni0415" unicode="&#x415;" horiz-adv-x="3162" 
d="M492 0v2966h2359v-345h-1938v-925h1692v-344h-1692v-1008h1962v-344h-2383z" />
    <glyph glyph-name="uni0416" unicode="&#x416;" horiz-adv-x="5009" 
d="M2294 1331h-271q-87 0 -148 -5t-107.5 -21.5t-84.5 -47t-81 -81.5l-1012 -1176h-541l1118 1266q34 37 70 71.5t75.5 65.5t82 56.5t88.5 43.5q-42 20 -81 45t-75.5 54.5t-70 63.5t-64.5 71l-1069 1229h516l979 -1143q29 -34 55 -58.5t53.5 -42t58 -28t67.5 -17t83 -8.5
t105 -2h254v1299h422v-1299h254q87 0 148 5.5t107.5 22t84.5 47t81 81.5l979 1143h517l-1070 -1229q-32 -37 -66 -71t-70.5 -63.5t-75.5 -54.5t-82 -45q48 -18 91 -43.5t82.5 -56.5t75.5 -65.5t70 -71.5l1118 -1266h-540l-1012 1176q-29 34 -55 58.5t-53.5 41.5t-58 28
t-68 17t-83.5 8t-104 2h-270v-1331h-422v1331z" />
    <glyph glyph-name="uni0417" unicode="&#x417;" horiz-adv-x="2875" 
d="M1245 -49q-167 0 -312.5 12.5t-271.5 34t-235.5 51.5t-204.5 66v356q102 -31 215.5 -59.5t241 -51t271 -36t304.5 -13.5q121 0 232.5 13.5t208.5 41.5t177 69t136.5 97t87.5 125.5t31 153.5q0 124 -58.5 226t-173.5 175t-285 112.5t-392 39.5h-439v340h439
q177 0 318.5 30t240.5 91.5t152.5 156.5t53.5 226q0 78 -27.5 141.5t-76.5 114t-117 88t-150 62t-175 36.5t-191 12q-114 0 -237.5 -9.5t-249 -30t-247.5 -52t-232 -76.5v349q97 41 210 73t236.5 54t254.5 33.5t265 11.5q178 0 334 -23.5t285.5 -69.5t231.5 -113.5
t172.5 -155.5t107.5 -195.5t37 -233.5q0 -114 -33 -214.5t-95.5 -186.5t-152 -155t-203.5 -120q147 -48 263.5 -123t197.5 -172t123.5 -213t42.5 -245q0 -125 -41 -236t-119 -205t-191.5 -168.5t-259 -126.5t-321.5 -80t-379 -28z" />
    <glyph glyph-name="uni0418" unicode="&#x418;" horiz-adv-x="3932" 
d="M492 2966h413v-2130v-74.5v-89.5v-89.5v-74.5q31 37 64 76t64.5 76.5t61 72t52.5 62.5l1835 2171h459v-2966h-414v2126v74.5v89.5v89.5v74.5q-28 -33 -60.5 -71.5l-65 -77t-63 -74.5t-53.5 -64l-1835 -2167h-458v2966z" />
    <glyph glyph-name="uni0419" unicode="&#x419;" horiz-adv-x="3932" 
d="M492 2966h413v-2130v-74.5v-89.5v-89.5v-74.5q31 37 64 76t64.5 76.5t61 72t52.5 62.5l1835 2171h459v-2966h-414v2126v74.5v89.5v89.5v74.5q-28 -33 -60.5 -71.5l-65 -77t-63 -74.5t-53.5 -64l-1835 -2167h-458v2966zM2679 3810q-3 -154 -54.5 -278.5t-144 -213
t-223 -136.5t-291.5 -48t-291.5 48t-223 136.5t-144 213t-54.5 278.5h287q8 -88 38 -156t83 -114.5t129 -70.5t176 -24t176 24t129 70.5t83 114.5t38 156h287z" />
    <glyph glyph-name="uni041A" unicode="&#x41a;" horiz-adv-x="3387" 
d="M492 2966h421v-1299h377q58 0 104 2.5t83 9t67 17.5t57.5 28.5t54 41.5t56.5 57l1061 1143h516l-1151 -1229q-34 -36 -68.5 -69.5t-71.5 -63.5t-76.5 -55.5t-82.5 -45.5q48 -18 91 -43.5t83 -56.5t77 -65.5t73 -71.5l1200 -1266h-541l-1093 1176q-30 33 -56.5 57
t-54 41.5t-58 28.5t-67 17t-82.5 8.5t-104 2.5h-394v-1331h-421v2966z" />
    <glyph glyph-name="uni041B" unicode="&#x41b;" horiz-adv-x="3748" 
d="M2834 0v2621h-1421l-16 -462q-8 -217 -20 -426t-34.5 -403.5t-58 -370.5t-89.5 -327t-130 -273t-179 -208.5t-236 -133t-302 -46.5q-51 0 -97 4t-86.5 12t-75.5 20.5t-64 29.5v311q40 -15 95.5 -24t129.5 -9q81 0 154.5 15.5t139.5 54.5t123 107t105 173.5t86.5 252.5
t65.5 344.5t43 450t20 568.5l8 685h2261v-2966h-422z" />
    <glyph glyph-name="uni041C" unicode="&#x41c;" horiz-adv-x="4379" 
d="M3478 0v2007v200.5v200.5q-59 -80 -117 -159.5t-117 -159.5l-938 -1270h-233l-938 1270q-29 40 -58.5 80t-58.5 79.5t-58.5 79.5t-58.5 80v-200.5v-200.5v-2007h-409v2966h458l1041 -1418q52 -71 104 -141t105 -141q52 71 104 143t104 143l1041 1414h438v-2966h-409z" />
    <glyph glyph-name="uni041D" unicode="&#x41d;" horiz-adv-x="3736" 
d="M2822 0v1315h-1909v-1315h-421v2966h421v-1307h1909v1307h422v-2966h-422z" />
    <glyph glyph-name="uni041E" unicode="&#x41e;" horiz-adv-x="3760" 
d="M1880 -49q-260 0 -478 50.5t-394 145.5t-308.5 230.5t-221.5 306t-134 372t-45 427.5q0 218 46.5 416.5t137.5 368.5t225.5 308t310 235.5t391.5 150.5t470 53q260 0 478 -50.5t394 -145.5t308.5 -230.5t221.5 -306t134 -372t45 -427.5q0 -218 -46.5 -416.5
t-137.5 -368.5t-225.5 -308t-310 -235.5t-391.5 -150.5t-470 -53zM1880 287q195 0 355.5 42.5t288.5 120t223 186.5t158.5 242t94.5 286t31 319t-31 319t-94.5 286t-158.5 242t-223 186.5t-289 120t-355 42.5t-355 -42.5t-289 -120t-223 -186.5t-158.5 -242t-94.5 -286
t-31 -319t31 -319t94.5 -286t158.5 -242t223 -186.5t288.5 -120t355.5 -42.5z" />
    <glyph glyph-name="uni041F" unicode="&#x41f;" horiz-adv-x="3654" 
d="M2740 2621h-1827v-2621h-421v2966h2670v-2966h-422v2621z" />
    <glyph glyph-name="uni0420" unicode="&#x420;" horiz-adv-x="3142" 
d="M492 0v2966h1171q228 0 409 -30.5t318.5 -88t235 -139.5t159.5 -184.5t90.5 -223.5t28.5 -256t-30 -257t-94 -226.5t-164 -188.5t-240.5 -143t-323 -91t-410.5 -32h-729v-1106h-421zM1573 1450q256 0 429 39t278 115t149.5 186.5t44.5 253.5t-44.5 251t-149.5 180.5
t-278 109t-429 36.5h-660v-1171h660z" />
    <glyph glyph-name="uni0421" unicode="&#x421;" horiz-adv-x="3146" 
d="M2900 98q-77 -31 -176 -57.5t-219.5 -46.5t-262.5 -31.5t-305 -11.5q-235 0 -448 43t-395 128.5t-329 213.5t-250.5 298t-159.5 382.5t-56 466.5q0 240 56 447.5t158 377.5t247 302t323 222t384.5 136.5t433.5 46.5q121 0 245.5 -9.5t245 -29t233 -49.5t209.5 -72v-365
q-110 45 -223 76t-224 50.5t-219.5 28.5t-209.5 9q-185 0 -348 -32t-300 -97t-244.5 -162t-182.5 -227t-114.5 -293.5t-39.5 -359.5q0 -219 48.5 -391.5t134 -303t201.5 -222t251.5 -149.5t283.5 -84t298 -26q178 0 326 14t266.5 35t208.5 46.5t153 48.5v-353z" />
    <glyph glyph-name="uni0422" unicode="&#x422;" horiz-adv-x="3092" 
d="M1335 0v2621h-1200v345h2822v-345h-1200v-2621h-422z" />
    <glyph glyph-name="uni0423" unicode="&#x423;" horiz-adv-x="2982" 
d="M819 -25q-48 0 -88.5 3.5t-74.5 10t-62 14.5t-49 17v340q24 -9 48 -16t50 -11.5t56 -6.5t67 -2q106 0 194 29t163 87t139 144.5t122 201.5v0l-1343 2180h479l1073 -1799v0v0v0v0v0v0v0v0l922 1799h459l-1229 -2335q-94 -180 -191 -305t-207.5 -203t-240 -113t-287.5 -35z
" />
    <glyph glyph-name="uni0424" unicode="&#x424;" horiz-adv-x="4280" 
d="M1938 311q-241 3 -462.5 30.5t-412 85.5t-346 149t-265.5 221.5t-170 303.5t-60 394q0 212 61.5 381t174 299t269.5 223.5t347.5 154.5t409 91.5t454.5 34.5v287h406v-287q240 -4 461 -32.5t411.5 -86.5t346 -149t266 -221t171 -302.5t60.5 -392.5q0 -213 -61.5 -382.5
t-174 -300t-269.5 -224t-347.5 -154t-409.5 -90.5t-454 -33v-311h-406v311zM648 1495q0 -172 48.5 -301.5t135.5 -223.5t207.5 -156t263.5 -99.5t304.5 -53.5t330.5 -18v1704q-169 -3 -330.5 -19.5t-304.5 -54t-263.5 -99t-207.5 -155.5t-135.5 -223t-48.5 -301zM3634 1495
q0 172 -48.5 301t-135.5 223t-207.5 155.5t-263.5 99t-304.5 54t-330.5 19.5v-1704q169 2 330.5 18t304.5 53.5t263.5 99.5t207.5 156t135.5 223.5t48.5 301.5z" />
    <glyph glyph-name="uni0425" unicode="&#x425;" horiz-adv-x="3248" 
d="M2666 0l-1056 1262l-1057 -1262h-504l1315 1532l-1221 1434h533l946 -1147l954 1147h504l-1212 -1418l1331 -1548h-533z" />
    <glyph glyph-name="uni0426" unicode="&#x426;" horiz-adv-x="3695" 
d="M492 2966h421v-2622h1745v2622h422v-2622h492v-1073h-389v729h-2691v2966z" />
    <glyph glyph-name="uni0427" unicode="&#x427;" horiz-adv-x="3301" 
d="M2388 1139q-94 -32 -208.5 -58.5t-237.5 -45.5t-249 -29.5t-243 -10.5q-152 0 -293.5 20.5t-264.5 67t-224 120.5t-173 180.5t-111.5 248t-39.5 322.5v1012h422v-938q0 -174 42 -302t134 -212t238.5 -125t355.5 -41q92 0 201 7.5t222 22t223.5 36t205.5 48.5v1504h422
v-2966h-422v1139z" />
    <glyph glyph-name="uni0428" unicode="&#x428;" horiz-adv-x="5329" 
d="M492 2966h421v-2622h1541v2622h421v-2622h1540v2622h422v-2966h-4345v2966z" />
    <glyph glyph-name="uni0429" unicode="&#x429;" horiz-adv-x="5452" 
d="M492 2966h421v-2622h1541v2622h421v-2622h1540v2622h422v-2622h492v-1073h-389v729h-4448v2966z" />
    <glyph glyph-name="uni042A" unicode="&#x42a;" horiz-adv-x="4121" 
d="M135 2966h1622v-1143h869q218 0 397.5 -27t322 -79.5t248.5 -130t175.5 -179t104 -225.5t34.5 -269q0 -135 -33 -255t-101 -221.5t-172 -182.5t-244.5 -137.5t-319 -86.5t-396.5 -30h-1307v2621h-1200v345zM1757 1483v-1139h795q241 0 415 32.5t286.5 101.5t166 177
t53.5 258q0 151 -53.5 259t-166 177t-286.5 101.5t-415 32.5h-795z" />
    <glyph glyph-name="uni042B" unicode="&#x42b;" horiz-adv-x="4514" 
d="M492 2966h421v-1143h787q218 0 397.5 -27t322 -79.5t248.5 -130t175.5 -179t104 -225.5t34.5 -269q0 -135 -33 -255t-101 -221.5t-171.5 -182.5t-244 -137.5t-319.5 -86.5t-397 -30h-1224v2966zM3600 2966h422v-2966h-422v2966zM913 1483v-1139h713q241 0 415.5 32.5
t287 101.5t166 177t53.5 258q0 151 -53.5 259t-166 177t-287 101.5t-415.5 32.5h-713z" />
    <glyph glyph-name="uni042C" unicode="&#x42c;" 
d="M492 2966h421v-1143h869q218 0 397.5 -27t322 -79.5t248.5 -130t175.5 -179t104 -225.5t34.5 -269q0 -135 -33 -255t-101 -221.5t-171.5 -182.5t-244 -137.5t-319.5 -86.5t-397 -30h-1306v2966zM913 1483v-1139h795q241 0 415.5 32.5t287 101.5t166 177t53.5 258
q0 151 -53.5 259t-166 177t-287 101.5t-415.5 32.5h-795z" />
    <glyph glyph-name="uni042D" unicode="&#x42d;" horiz-adv-x="3146" 
d="M745 1675h1659q-27 246 -125.5 429.5t-256.5 306t-369.5 183t-464.5 60.5q-101 0 -209.5 -9t-220 -28.5t-224 -50.5t-223.5 -76v365q97 42 209.5 72t233 49.5t245.5 29t246 9.5q226 0 433 -46.5t385 -136.5t322.5 -222t247 -302t158.5 -377.5t56 -447.5
q0 -254 -56 -466.5t-159.5 -382.5t-250.5 -298t-329.5 -213.5t-395.5 -128.5t-448 -43q-163 0 -304.5 11.5t-262 31.5t-219.5 46.5t-176 57.5v353q63 -23 153 -48.5t208.5 -46.5t266.5 -35t326 -14q140 0 279.5 23t268.5 73t242 130t200.5 194t144.5 263.5t73 340.5h-1663
v344z" />
    <glyph glyph-name="uni042E" unicode="&#x42e;" horiz-adv-x="5071" 
d="M492 2966h421v-1307h799q18 195 73.5 371.5t148.5 327.5t222.5 272.5t293.5 207t361.5 131.5t428.5 46q252 0 463.5 -50.5t381.5 -145.5t299 -230.5t215 -306t129.5 -372t43.5 -427.5q0 -218 -45 -416.5t-133 -368.5t-218 -308t-300 -235.5t-379.5 -150.5t-456.5 -53
q-236 0 -437 44.5t-365.5 128t-293 204t-219 272t-144.5 331.5t-69 384h-799v-1315h-421v2966zM3240 287q189 0 343.5 42.5t277 120t213 186.5t150 242t89 286t29.5 319t-29.5 319t-89 286t-150 242t-213 186.5t-277.5 120t-343 42.5t-343 -42.5t-277.5 -120t-213 -186.5
t-150 -242t-89 -286t-29.5 -319t29.5 -319t89 -286t150 -242t213 -186.5t277 -120t343.5 -42.5z" />
    <glyph glyph-name="uni042F" unicode="&#x42f;" horiz-adv-x="3305" 
d="M2392 1221h-397q-59 0 -104.5 -2.5t-82.5 -9t-67 -17.5t-57.5 -28.5t-54 -41.5t-56.5 -57l-950 -1065h-541l995 1110q47 53 98 91.5t107 60.5q-213 32 -377.5 102t-276.5 175.5t-169.5 245.5t-57.5 312q0 203 69 364t220 273.5t391 172t582 59.5h1151v-2966h-422v1221z
M831 2097q0 -143 48 -245.5t156.5 -168t284.5 -96.5t433 -31h639v1065h-639q-257 0 -433 -28.5t-284.5 -91t-156.5 -162t-48 -242.5z" />
    <glyph glyph-name="uni0430" unicode="&#x430;" horiz-adv-x="2941" 
d="M2175 0l-33 193q-77 -56 -174 -100.5t-211 -76t-242 -48.5t-266 -17q-197 0 -366.5 38.5t-295 117t-197 197t-71.5 278.5q0 104 32 193t98.5 161t170 127.5t246.5 93t327 57t413 19.5q86 0 175 -2.5t168 -6t160 -7.5v73q0 129 -39.5 228.5t-124 167t-216.5 102.5t-316 35
q-158 0 -283 -10.5t-229.5 -30.5t-196.5 -49t-184 -66v315q83 37 178.5 68t209.5 53t248 34.5t294 12.5q238 0 434 -49.5t336.5 -149.5t217.5 -252t77 -356v-1343h-340zM2109 934h-405q-263 0 -446.5 -19t-299.5 -59.5t-168.5 -104.5t-52.5 -153q0 -81 33.5 -144t105 -105.5
t183 -64.5t268.5 -22q121 0 233.5 14t211.5 40.5t184 64.5t153 86v467z" />
    <glyph glyph-name="uni0431" unicode="&#x431;" horiz-adv-x="3088" 
d="M1552 -49q-213 0 -387 40t-311 120t-238 200.5t-167 282t-98 363t-32 444.5q0 240 37 441.5t110.5 364t182 288t252.5 214.5t322.5 142.5t390.5 73.5l962 90v-332l-921 -86q-130 -12 -244.5 -41.5t-212 -77.5t-176.5 -116t-138 -156.5t-97.5 -199.5t-53.5 -245
q75 58 174 108t214.5 86t243 56.5t261.5 20.5q185 0 347.5 -31.5t297.5 -92t241.5 -149.5t180 -204.5t112 -257t38.5 -306.5q0 -145 -34 -278.5t-103.5 -249t-175 -210t-249 -162t-325.5 -104t-404 -36.5zM1544 1720q-117 0 -229 -17.5t-216 -47.5t-198.5 -71t-175.5 -89
v-39v-39q0 -312 53.5 -530.5t160 -356.5t265.5 -201t369 -63q142 0 260.5 24t213 69t165.5 109.5t118.5 145t71 175.5t23.5 202q0 118 -25.5 217.5t-76 180.5t-125 143t-172.5 103.5t-219 63t-263 21.5z" />
    <glyph glyph-name="uni0432" unicode="&#x432;" horiz-adv-x="2970" 
d="M471 2101h1208q226 0 390 -38.5t270.5 -113t157.5 -183.5t51 -250q0 -83 -21 -150.5t-60.5 -121t-96.5 -94t-129 -69.5q103 -29 183.5 -72t136 -102.5t85 -135t29.5 -169.5q0 -135 -51 -246t-161.5 -190t-284 -122.5t-417.5 -43.5h-1290v2101zM877 918v-603h872
q127 0 221.5 17.5t156 53.5t92 91.5t30.5 132.5t-30.5 134.5t-92 96t-156 58t-221.5 19.5h-872zM877 1786v-569h761q117 0 208 18t153 54t94.5 89.5t32.5 124.5q0 72 -32.5 125.5t-94.5 88.5t-153 52t-208 17h-761z" />
    <glyph glyph-name="uni0433" unicode="&#x433;" horiz-adv-x="2425" 
d="M471 2101h1831v-319h-1425v-1782h-406v2101z" />
    <glyph glyph-name="uni0434" unicode="&#x434;" horiz-adv-x="3265" 
d="M41 319h143q91 0 165 23t140.5 78.5t116 148t89.5 254t65.5 461.5t30.5 794v23h1933v-1782h418v-1007h-365v688h-2371v-688h-365v1007zM1180 1782v-14q-8 -330 -30 -543.5t-49 -348.5t-57.5 -229t-72 -158t-88 -104.5t-101.5 -65.5h1536v1463h-1138z" />
    <glyph glyph-name="uni0435" unicode="&#x435;" horiz-adv-x="2863" 
d="M2466 143q-89 -41 -190 -76.5t-218.5 -61t-253 -40t-293.5 -14.5q-207 0 -378.5 38t-308.5 109t-239 172t-170 226.5t-102 273t-34 311.5q0 150 35 288t103 256.5t168 215.5t230 165.5t289.5 106t345.5 37.5q183 0 340 -34.5t286 -99t228.5 -156t167 -205t102.5 -247.5
t35 -282q0 -20 -0.5 -42t-2 -43.5t-3 -40.5t-2.5 -33h-1917q11 -157 69 -284t166 -217t266.5 -138.5t370.5 -48.5q152 0 278.5 15.5t236 41.5t206.5 60t189 71v-324zM2212 1278q-14 124 -76.5 227.5t-163 177.5t-234 115t-288.5 41t-289 -41t-235 -115t-163.5 -177.5
t-74.5 -227.5h1524z" />
    <glyph glyph-name="uni0436" unicode="&#x436;" horiz-adv-x="4035" 
d="M1815 909h-115q-75 0 -130 -6t-98.5 -22t-80 -44t-76.5 -71l-737 -766h-537l840 864q31 32 64 61t69.5 54.5t76.5 47t85 38.5q-42 17 -79.5 38.5t-72 46.5t-66.5 53t-61 59l-815 839h504l712 -741q40 -43 77 -71t80.5 -44t98 -22t129.5 -6h132v884h405v-884h131
q75 0 130 6t98.5 22t80 44t76.5 71l713 741h504l-815 -839q-29 -31 -61.5 -59t-67.5 -53t-73.5 -46.5t-80.5 -38.5q45 -17 85.5 -38.5t78 -47t71 -54.5t64.5 -61l840 -864h-537l-737 766q-40 43 -77 71t-80.5 44t-98 22t-129.5 6h-115v-909h-405v909z" />
    </font>
</defs>
</svg>
