<?xml version="1.0" encoding="utf-8"?>
<!-- Generator: Adobe Illustrator 18.1.1, SVG Export Plug-In . SVG Version: 6.00 Build 0)  -->
<svg version="1.1" id="Icon" xmlns="http://www.w3.org/2000/svg" xmlns:xlink="http://www.w3.org/1999/xlink" x="0px" y="0px"
	 viewBox="0 0 32 32" enable-background="new 0 0 32 32" xml:space="preserve">
<path d="M27.5,24.5H6.7c-1.2,0-2.2-1-2.2-2.2V7.5h20.9l0,0c0.6,0,1.1,0.2,1.5,0.7c0.4,0.4,0.6,1,0.6,1.6V24.5z M5.5,8.5v13.8
	c0,0.7,0.5,1.2,1.2,1.2h19.8V9.7c0-0.3-0.1-0.6-0.3-0.9c-0.2-0.2-0.5-0.3-0.8-0.3l0,0H5.5z M16,18.9l-7.9-6.2l0.6-0.8l7.3,5.7
	l7.2-5.8l0.6,0.8L16,18.9z"/>
<rect fill="none" width="32" height="32"/>
</svg>
