<?xml version="1.0" encoding="utf-8"?>
<!-- Generator: Adobe Illustrator 18.1.1, SVG Export Plug-In . SVG Version: 6.00 Build 0)  -->
<svg version="1.1" id="Icon" xmlns="http://www.w3.org/2000/svg" xmlns:xlink="http://www.w3.org/1999/xlink" x="0px" y="0px"
	 viewBox="0 0 32 32" enable-background="new 0 0 32 32" xml:space="preserve">
<path d="M20,14.9c-1.1-0.1-3.8-0.2-4-0.2s-2.9,0.1-4,0.2c-0.3,0-0.5,0.2-0.6,0.3c-0.2,0.3-0.1,0.8-0.1,0.9l1,3.3
	c0,0,0.1,0.4,0.6,0.6c0.7,0.1,1.3,0.1,2.1,0.1c0.4,0,1.4,0,1.8,0c0.8,0,1.5,0,2.1-0.1c0.5-0.2,0.6-0.6,0.6-0.6l1-3.3
	c0-0.1,0.2-0.5-0.1-0.9C20.4,15.1,20.3,14.9,20,14.9z M20,15.9l-1,3.4c0,0,0,0.1-0.2,0.1c-0.5,0.1-1.1,0.1-1.9,0.1
	c-0.4,0-1.4,0-1.8,0c-0.8,0-1.4,0-1.9-0.1c-0.1,0-0.2-0.1-0.2-0.1l-1-3.4c0-0.1,0-0.3,0-0.3c1.1-0.1,3.8-0.2,4-0.2
	c0.1,0,2.9,0.1,4,0.2C20,15.6,20,15.8,20,15.9z M26.9,14.5c-0.1-0.5-0.4-0.9-0.7-1.2c-0.1,0-0.3-0.2-0.6-0.5
	c-0.1-0.1-0.2-0.2-0.3-0.2h1.1v-1.4h-2.1c-0.2-0.4-0.3-0.6-0.4-0.9c-0.3-0.7-0.4-0.8-0.6-1.2L23.2,9c-0.2-0.4-0.5-1-1.3-1.1
	c-0.1,0-3,0-5.9,0s-5.8,0-5.9,0C9.3,8,9,8.6,8.8,9L8.7,9.1c-0.3,0.5-0.3,0.6-0.6,1.2c-0.1,0.2-0.2,0.5-0.4,0.9H5.5v1.4h1.1
	c-0.1,0.1-0.2,0.2-0.3,0.2C6,13,5.8,13.2,5.7,13.3C5.4,13.6,5.1,14,5,14.5c0,0.5,0,0.9,0,1c0,0.2,0.1,0.8,0.1,1.5c0,0.1,0,0.2,0,0.3
	c0.2,6.1,0.2,6.3,0.3,6.4c0.2,0.5,0.7,0.5,1.1,0.5c2.1,0,2.2-0.1,2.3-0.1C9,24,9.2,23.6,9.2,23c0-0.5,0-0.9,0-1.2
	c1.4,0.1,3.6,0.2,6.8,0.3l0,0l0,0c3.2-0.1,5.3-0.2,6.8-0.3c0,0.3,0,0.7,0,1.2c0,0.6,0.2,0.9,0.4,1.1c0.1,0.1,0.2,0.1,2.3,0.1
	c0.4,0,0.9,0,1.1-0.5c0-0.1,0.1-0.3,0.3-6.4c0-0.1,0-0.2,0-0.3c0.1-0.7,0.1-1.4,0.1-1.5C27,15.4,27,15,26.9,14.5z M24.4,12.5
	L24.4,12.5L24.4,12.5L24.4,12.5L24.4,12.5z M8.9,10.7c0.3-0.6,0.3-0.7,0.6-1.2l0.1-0.1C9.8,9,10,8.8,10.3,8.7c0.2,0,2.9,0,5.7,0
	c2.7,0,5.5,0,5.7,0C22,8.8,22.2,9,22.4,9.4l0.1,0.1c0.2,0.4,0.3,0.5,0.6,1.2c0.1,0.3,0.3,0.7,0.6,1.3h-6.5H16h-1.2H8.4
	C8.6,11.4,8.8,11,8.9,10.7z M7.6,12.4L7.6,12.4L7.6,12.4L7.6,12.4L7.6,12.4z M6,15.4c0,0,0-0.2,0-0.4c0.4,0.1,0.8,0.1,1.2,0.2
	c0.7,0.1,1.4,0.2,1.6,0.3c0.3,0.1,0.4,0.1,0.5,0.3c0.2,0.3,0.3,1.1,0.3,1.4v0.1c-0.1,0-0.2,0-0.2,0H9.2C9,17.3,7,16.9,6,16.7
	C6,16.1,6,15.6,6,15.4z M25.6,19.8l-0.1,0.5c-0.1,0.1-0.1,0.2-0.2,0.3c-0.8,0.2-5.8,0.4-9.3,0.5l0,0l0,0c-3.4-0.1-8.5-0.3-9.3-0.5
	c0-0.1-0.1-0.2-0.2-0.3l-0.1-0.5c-0.1-0.5-0.2-1.5-0.3-2.4C7.2,17.6,9,18,9.2,18h0.2c0.1,0,0.2,0,0.4,0s0.4,0,0.5-0.2
	c0.1-0.1,0.2-0.2,0.1-0.5v-0.2c-0.1-0.4-0.2-1.2-0.4-1.6c-0.2-0.5-0.6-0.6-0.9-0.6c-0.4-0.1-1.1-0.2-1.8-0.3
	c-0.4-0.1-0.8-0.1-1.2-0.2c0.1-0.1,0.1-0.2,0.2-0.3c0.1,0,0.3-0.2,0.6-0.5c0.3-0.2,0.6-0.5,0.8-0.6h7.1H16h1.2h7.1
	c0.2,0.1,0.5,0.4,0.8,0.6c0.3,0.2,0.5,0.4,0.6,0.5s0.2,0.2,0.2,0.3c-0.3,0.1-0.8,0.1-1.2,0.2c-0.7,0.1-1.4,0.2-1.8,0.3
	C22.6,15,22.3,15,22,15.5c-0.2,0.4-0.3,1.2-0.4,1.6v0.2c0,0.3,0,0.4,0.1,0.5S22,18,22.2,18c0.1,0,0.2,0,0.4,0h0.2c0.2,0,2-0.3,3-0.5
	C25.7,18.4,25.6,19.3,25.6,19.8z M26,15.4c0,0.2-0.1,0.7-0.1,1.3c-1,0.2-2.9,0.6-3.2,0.6h-0.2c-0.1,0-0.1,0-0.2,0v-0.1
	c0.1-0.4,0.2-1.1,0.3-1.4c0.1-0.2,0.1-0.2,0.5-0.3c0.3-0.1,1-0.2,1.6-0.3c0.4-0.1,0.9-0.1,1.2-0.2C26.1,15.2,26,15.4,26,15.4z"/>
<rect fill="none" width="32" height="32"/>
</svg>
