<?xml version="1.0" encoding="utf-8"?>
<!-- Generator: Adobe Illustrator 18.1.1, SVG Export Plug-In . SVG Version: 6.00 Build 0)  -->
<svg version="1.1" id="Icon" xmlns="http://www.w3.org/2000/svg" xmlns:xlink="http://www.w3.org/1999/xlink" x="0px" y="0px"
	 viewBox="0 0 32 32" enable-background="new 0 0 32 32" xml:space="preserve">
<path d="M7.5,28l-0.3-0.8l2-2l-2.3-2.3l-2,2L4,24.5v-3.2L4.1,21l2.6-2.6L7,18.3h2.3l8.9-8.9V7.1l0.1-0.3L21,4.1L21.3,4h3.2l0.3,0.8
	l-2,2l2.3,2.3l2-2L28,7.5v3.2L27.9,11l-2.6,2.6L25,13.7h-2.3l-8.9,8.9v2.3l-0.1,0.3L11,27.9L10.7,28H7.5z M7.2,21.8l3,3v0.7L8.7,27
	h1.8l2.3-2.3v-2.3l0.1-0.3l9.2-9.2l0.3-0.1h2.3l2.3-2.3V8.7l-1.6,1.6h-0.7l-3-3V6.6L23.3,5h-1.8l-2.3,2.3v2.3l-0.1,0.3l-9.2,9.2
	l-0.3,0.1H7.3L5,21.6v1.8l1.6-1.6H7.2z"/>
<rect fill="none" width="32" height="32"/>
</svg>
